%TF.GenerationSoftware,KiCad,Pcbnew,10.0.4*%
%TF.CreationDate,2026-07-23T02:49:07-04:00*%
%TF.ProjectId,dongle-pro,646f6e67-6c65-42d7-9072-6f2e6b696361,rev?*%
%TF.SameCoordinates,Original*%
%TF.FileFunction,Legend,Bot*%
%TF.FilePolarity,Positive*%
%FSLAX46Y46*%
G04 Gerber Fmt 4.6, Leading zero omitted, Abs format (unit mm)*
G04 Created by KiCad (PCBNEW 10.0.4) date 2026-07-23 02:49:07*
%MOMM*%
%LPD*%
G01*
G04 APERTURE LIST*
%ADD10C,0.000000*%
%ADD11C,0.500000*%
%ADD12C,0.350000*%
%ADD13C,0.300000*%
%ADD14C,0.160000*%
%ADD15C,0.220000*%
%ADD16C,0.280000*%
%ADD17C,0.400000*%
%ADD18C,0.420000*%
%ADD19C,1.100000*%
%ADD20C,0.500000*%
%ADD21O,1.000000X2.300000*%
%ADD22O,1.000000X1.950000*%
%ADD23O,1.700000X1.000000*%
%ADD24C,0.990600*%
G04 APERTURE END LIST*
D10*
G36*
X100919999Y-148020000D02*
G01*
X102039999Y-148020000D01*
X99960000Y-151700000D01*
X100440000Y-149300000D01*
X99160000Y-149300000D01*
X101240000Y-145300000D01*
X102360000Y-145300000D01*
X100919999Y-148020000D01*
G37*
G36*
X117720000Y-148020000D02*
G01*
X118840000Y-148020000D01*
X116760000Y-151700000D01*
X117240000Y-149300000D01*
X115960000Y-149300000D01*
X118040000Y-145300000D01*
X119160000Y-145300000D01*
X117720000Y-148020000D01*
G37*
D11*
X100050000Y-181049999D02*
G75*
G02*
X99550000Y-181049999I-250000J0D01*
G01*
X99550000Y-181049999D02*
G75*
G02*
X100050000Y-181049999I250000J0D01*
G01*
D12*
X99800000Y-181049999D02*
X106200000Y-181049999D01*
D11*
X100050000Y-182150000D02*
G75*
G02*
X99550000Y-182150000I-250000J0D01*
G01*
X99550000Y-182150000D02*
G75*
G02*
X100050000Y-182150000I250000J0D01*
G01*
D12*
X99800000Y-182150000D02*
X105700000Y-182150000D01*
D11*
X100050000Y-186649999D02*
G75*
G02*
X99550000Y-186649999I-250000J0D01*
G01*
X99550000Y-186649999D02*
G75*
G02*
X100050000Y-186649999I250000J0D01*
G01*
X100050000Y-187750000D02*
G75*
G02*
X99550000Y-187750000I-250000J0D01*
G01*
X99550000Y-187750000D02*
G75*
G02*
X100050000Y-187750000I250000J0D01*
G01*
D13*
X101500000Y-109100000D02*
X103500000Y-113000000D01*
X101500000Y-116900000D02*
X103500000Y-113000000D01*
X103500000Y-113000000D02*
G75*
G02*
X114500000Y-113000000I5500000J-2401389D01*
G01*
D12*
X105700000Y-182150000D02*
X107900000Y-181049999D01*
X106200000Y-181049999D02*
X108400000Y-182150000D01*
X107900000Y-181049999D02*
X116500000Y-181049999D01*
X108400000Y-182150000D02*
X115400000Y-182150000D01*
D13*
X114500000Y-113000000D02*
G75*
G02*
X103500000Y-113000000I-5500000J2401389D01*
G01*
D12*
X115400000Y-182150000D02*
X117050000Y-184350000D01*
X115400000Y-186649999D02*
X99800000Y-186649999D01*
D13*
X116500000Y-109100000D02*
X114500000Y-113000000D01*
X116500000Y-116900000D02*
X114500000Y-113000000D01*
D12*
X116500000Y-181049999D02*
X118150000Y-184349999D01*
X116500000Y-187750000D02*
X99800000Y-187750000D01*
X117050000Y-184350000D02*
X117050000Y-184450000D01*
X117050000Y-184450000D02*
X115400000Y-186649999D01*
X118150000Y-184349999D02*
X118150000Y-184450000D01*
X118150000Y-184450000D02*
X116500000Y-187750000D01*
D14*
X97577677Y-182109999D02*
X97534820Y-182146427D01*
X97534820Y-182146427D02*
X97491962Y-182255713D01*
X97491962Y-182255713D02*
X97491962Y-182328570D01*
X97491962Y-182328570D02*
X97534820Y-182437856D01*
X97534820Y-182437856D02*
X97620534Y-182510713D01*
X97620534Y-182510713D02*
X97706248Y-182547142D01*
X97706248Y-182547142D02*
X97877677Y-182583570D01*
X97877677Y-182583570D02*
X98006248Y-182583570D01*
X98006248Y-182583570D02*
X98177677Y-182547142D01*
X98177677Y-182547142D02*
X98263391Y-182510713D01*
X98263391Y-182510713D02*
X98349105Y-182437856D01*
X98349105Y-182437856D02*
X98391962Y-182328570D01*
X98391962Y-182328570D02*
X98391962Y-182255713D01*
X98391962Y-182255713D02*
X98349105Y-182146427D01*
X98349105Y-182146427D02*
X98306248Y-182109999D01*
X97577677Y-181344999D02*
X97534820Y-181381427D01*
X97534820Y-181381427D02*
X97491962Y-181490713D01*
X97491962Y-181490713D02*
X97491962Y-181563570D01*
X97491962Y-181563570D02*
X97534820Y-181672856D01*
X97534820Y-181672856D02*
X97620534Y-181745713D01*
X97620534Y-181745713D02*
X97706248Y-181782142D01*
X97706248Y-181782142D02*
X97877677Y-181818570D01*
X97877677Y-181818570D02*
X98006248Y-181818570D01*
X98006248Y-181818570D02*
X98177677Y-181782142D01*
X98177677Y-181782142D02*
X98263391Y-181745713D01*
X98263391Y-181745713D02*
X98349105Y-181672856D01*
X98349105Y-181672856D02*
X98391962Y-181563570D01*
X98391962Y-181563570D02*
X98391962Y-181490713D01*
X98391962Y-181490713D02*
X98349105Y-181381427D01*
X98349105Y-181381427D02*
X98306248Y-181344999D01*
X97491962Y-180616427D02*
X97491962Y-181053570D01*
X97491962Y-180834999D02*
X98391962Y-180834999D01*
X98391962Y-180834999D02*
X98263391Y-180907856D01*
X98263391Y-180907856D02*
X98177677Y-180980713D01*
X98177677Y-180980713D02*
X98134820Y-181053570D01*
X97577677Y-187709999D02*
X97534820Y-187746427D01*
X97534820Y-187746427D02*
X97491962Y-187855713D01*
X97491962Y-187855713D02*
X97491962Y-187928570D01*
X97491962Y-187928570D02*
X97534820Y-188037856D01*
X97534820Y-188037856D02*
X97620534Y-188110713D01*
X97620534Y-188110713D02*
X97706248Y-188147142D01*
X97706248Y-188147142D02*
X97877677Y-188183570D01*
X97877677Y-188183570D02*
X98006248Y-188183570D01*
X98006248Y-188183570D02*
X98177677Y-188147142D01*
X98177677Y-188147142D02*
X98263391Y-188110713D01*
X98263391Y-188110713D02*
X98349105Y-188037856D01*
X98349105Y-188037856D02*
X98391962Y-187928570D01*
X98391962Y-187928570D02*
X98391962Y-187855713D01*
X98391962Y-187855713D02*
X98349105Y-187746427D01*
X98349105Y-187746427D02*
X98306248Y-187709999D01*
X97577677Y-186944999D02*
X97534820Y-186981427D01*
X97534820Y-186981427D02*
X97491962Y-187090713D01*
X97491962Y-187090713D02*
X97491962Y-187163570D01*
X97491962Y-187163570D02*
X97534820Y-187272856D01*
X97534820Y-187272856D02*
X97620534Y-187345713D01*
X97620534Y-187345713D02*
X97706248Y-187382142D01*
X97706248Y-187382142D02*
X97877677Y-187418570D01*
X97877677Y-187418570D02*
X98006248Y-187418570D01*
X98006248Y-187418570D02*
X98177677Y-187382142D01*
X98177677Y-187382142D02*
X98263391Y-187345713D01*
X98263391Y-187345713D02*
X98349105Y-187272856D01*
X98349105Y-187272856D02*
X98391962Y-187163570D01*
X98391962Y-187163570D02*
X98391962Y-187090713D01*
X98391962Y-187090713D02*
X98349105Y-186981427D01*
X98349105Y-186981427D02*
X98306248Y-186944999D01*
X98306248Y-186653570D02*
X98349105Y-186617142D01*
X98349105Y-186617142D02*
X98391962Y-186544285D01*
X98391962Y-186544285D02*
X98391962Y-186362142D01*
X98391962Y-186362142D02*
X98349105Y-186289285D01*
X98349105Y-186289285D02*
X98306248Y-186252856D01*
X98306248Y-186252856D02*
X98220534Y-186216427D01*
X98220534Y-186216427D02*
X98134820Y-186216427D01*
X98134820Y-186216427D02*
X98006248Y-186252856D01*
X98006248Y-186252856D02*
X97491962Y-186689999D01*
X97491962Y-186689999D02*
X97491962Y-186216427D01*
D15*
X110578570Y-194223298D02*
X110315475Y-195089964D01*
X110315475Y-195089964D02*
X110052380Y-194223298D01*
X109052618Y-195089964D02*
X109684046Y-195089964D01*
X109368332Y-195089964D02*
X109368332Y-193789964D01*
X109368332Y-193789964D02*
X109473570Y-193975679D01*
X109473570Y-193975679D02*
X109578808Y-194099488D01*
X109578808Y-194099488D02*
X109684046Y-194161393D01*
X108579046Y-194966155D02*
X108526427Y-195028060D01*
X108526427Y-195028060D02*
X108579046Y-195089964D01*
X108579046Y-195089964D02*
X108631665Y-195028060D01*
X108631665Y-195028060D02*
X108579046Y-194966155D01*
X108579046Y-194966155D02*
X108579046Y-195089964D01*
X107842380Y-193789964D02*
X107737142Y-193789964D01*
X107737142Y-193789964D02*
X107631904Y-193851869D01*
X107631904Y-193851869D02*
X107579285Y-193913774D01*
X107579285Y-193913774D02*
X107526666Y-194037583D01*
X107526666Y-194037583D02*
X107474047Y-194285202D01*
X107474047Y-194285202D02*
X107474047Y-194594726D01*
X107474047Y-194594726D02*
X107526666Y-194842345D01*
X107526666Y-194842345D02*
X107579285Y-194966155D01*
X107579285Y-194966155D02*
X107631904Y-195028060D01*
X107631904Y-195028060D02*
X107737142Y-195089964D01*
X107737142Y-195089964D02*
X107842380Y-195089964D01*
X107842380Y-195089964D02*
X107947618Y-195028060D01*
X107947618Y-195028060D02*
X108000237Y-194966155D01*
X108000237Y-194966155D02*
X108052856Y-194842345D01*
X108052856Y-194842345D02*
X108105475Y-194594726D01*
X108105475Y-194594726D02*
X108105475Y-194285202D01*
X108105475Y-194285202D02*
X108052856Y-194037583D01*
X108052856Y-194037583D02*
X108000237Y-193913774D01*
X108000237Y-193913774D02*
X107947618Y-193851869D01*
X107947618Y-193851869D02*
X107842380Y-193789964D01*
D16*
X115476189Y-179825630D02*
X115476189Y-178758963D01*
X115476189Y-179063725D02*
X115411427Y-178911344D01*
X115411427Y-178911344D02*
X115346665Y-178835154D01*
X115346665Y-178835154D02*
X115217141Y-178758963D01*
X115217141Y-178758963D02*
X115087618Y-178758963D01*
X114116189Y-179749440D02*
X114245713Y-179825630D01*
X114245713Y-179825630D02*
X114504760Y-179825630D01*
X114504760Y-179825630D02*
X114634284Y-179749440D01*
X114634284Y-179749440D02*
X114699046Y-179597059D01*
X114699046Y-179597059D02*
X114699046Y-178987535D01*
X114699046Y-178987535D02*
X114634284Y-178835154D01*
X114634284Y-178835154D02*
X114504760Y-178758963D01*
X114504760Y-178758963D02*
X114245713Y-178758963D01*
X114245713Y-178758963D02*
X114116189Y-178835154D01*
X114116189Y-178835154D02*
X114051427Y-178987535D01*
X114051427Y-178987535D02*
X114051427Y-179139916D01*
X114051427Y-179139916D02*
X114699046Y-179292297D01*
X113533332Y-179749440D02*
X113403808Y-179825630D01*
X113403808Y-179825630D02*
X113144760Y-179825630D01*
X113144760Y-179825630D02*
X113015237Y-179749440D01*
X113015237Y-179749440D02*
X112950475Y-179597059D01*
X112950475Y-179597059D02*
X112950475Y-179520868D01*
X112950475Y-179520868D02*
X113015237Y-179368487D01*
X113015237Y-179368487D02*
X113144760Y-179292297D01*
X113144760Y-179292297D02*
X113339046Y-179292297D01*
X113339046Y-179292297D02*
X113468570Y-179216106D01*
X113468570Y-179216106D02*
X113533332Y-179063725D01*
X113533332Y-179063725D02*
X113533332Y-178987535D01*
X113533332Y-178987535D02*
X113468570Y-178835154D01*
X113468570Y-178835154D02*
X113339046Y-178758963D01*
X113339046Y-178758963D02*
X113144760Y-178758963D01*
X113144760Y-178758963D02*
X113015237Y-178835154D01*
X112561904Y-178758963D02*
X112043808Y-178758963D01*
X112367618Y-178225630D02*
X112367618Y-179597059D01*
X112367618Y-179597059D02*
X112302856Y-179749440D01*
X112302856Y-179749440D02*
X112173332Y-179825630D01*
X112173332Y-179825630D02*
X112043808Y-179825630D01*
X111396189Y-179825630D02*
X111525713Y-179749440D01*
X111525713Y-179749440D02*
X111590475Y-179673249D01*
X111590475Y-179673249D02*
X111655237Y-179520868D01*
X111655237Y-179520868D02*
X111655237Y-179063725D01*
X111655237Y-179063725D02*
X111590475Y-178911344D01*
X111590475Y-178911344D02*
X111525713Y-178835154D01*
X111525713Y-178835154D02*
X111396189Y-178758963D01*
X111396189Y-178758963D02*
X111201904Y-178758963D01*
X111201904Y-178758963D02*
X111072380Y-178835154D01*
X111072380Y-178835154D02*
X111007618Y-178911344D01*
X111007618Y-178911344D02*
X110942856Y-179063725D01*
X110942856Y-179063725D02*
X110942856Y-179520868D01*
X110942856Y-179520868D02*
X111007618Y-179673249D01*
X111007618Y-179673249D02*
X111072380Y-179749440D01*
X111072380Y-179749440D02*
X111201904Y-179825630D01*
X111201904Y-179825630D02*
X111396189Y-179825630D01*
X110359999Y-179825630D02*
X110359999Y-178758963D01*
X110359999Y-179063725D02*
X110295237Y-178911344D01*
X110295237Y-178911344D02*
X110230475Y-178835154D01*
X110230475Y-178835154D02*
X110100951Y-178758963D01*
X110100951Y-178758963D02*
X109971428Y-178758963D01*
X108999999Y-179749440D02*
X109129523Y-179825630D01*
X109129523Y-179825630D02*
X109388570Y-179825630D01*
X109388570Y-179825630D02*
X109518094Y-179749440D01*
X109518094Y-179749440D02*
X109582856Y-179597059D01*
X109582856Y-179597059D02*
X109582856Y-178987535D01*
X109582856Y-178987535D02*
X109518094Y-178835154D01*
X109518094Y-178835154D02*
X109388570Y-178758963D01*
X109388570Y-178758963D02*
X109129523Y-178758963D01*
X109129523Y-178758963D02*
X108999999Y-178835154D01*
X108999999Y-178835154D02*
X108935237Y-178987535D01*
X108935237Y-178987535D02*
X108935237Y-179139916D01*
X108935237Y-179139916D02*
X109582856Y-179292297D01*
X108352380Y-179825630D02*
X108352380Y-178225630D01*
X108222856Y-179216106D02*
X107834285Y-179825630D01*
X107834285Y-178758963D02*
X108352380Y-179368487D01*
X107251428Y-179825630D02*
X107251428Y-178758963D01*
X107251428Y-178225630D02*
X107316190Y-178301820D01*
X107316190Y-178301820D02*
X107251428Y-178378011D01*
X107251428Y-178378011D02*
X107186666Y-178301820D01*
X107186666Y-178301820D02*
X107251428Y-178225630D01*
X107251428Y-178225630D02*
X107251428Y-178378011D01*
X106798095Y-178758963D02*
X106279999Y-178758963D01*
X106603809Y-178225630D02*
X106603809Y-179597059D01*
X106603809Y-179597059D02*
X106539047Y-179749440D01*
X106539047Y-179749440D02*
X106409523Y-179825630D01*
X106409523Y-179825630D02*
X106279999Y-179825630D01*
X105826666Y-179673249D02*
X105761904Y-179749440D01*
X105761904Y-179749440D02*
X105826666Y-179825630D01*
X105826666Y-179825630D02*
X105891428Y-179749440D01*
X105891428Y-179749440D02*
X105826666Y-179673249D01*
X105826666Y-179673249D02*
X105826666Y-179825630D01*
X104984761Y-179825630D02*
X105114285Y-179749440D01*
X105114285Y-179749440D02*
X105179047Y-179673249D01*
X105179047Y-179673249D02*
X105243809Y-179520868D01*
X105243809Y-179520868D02*
X105243809Y-179063725D01*
X105243809Y-179063725D02*
X105179047Y-178911344D01*
X105179047Y-178911344D02*
X105114285Y-178835154D01*
X105114285Y-178835154D02*
X104984761Y-178758963D01*
X104984761Y-178758963D02*
X104790476Y-178758963D01*
X104790476Y-178758963D02*
X104660952Y-178835154D01*
X104660952Y-178835154D02*
X104596190Y-178911344D01*
X104596190Y-178911344D02*
X104531428Y-179063725D01*
X104531428Y-179063725D02*
X104531428Y-179520868D01*
X104531428Y-179520868D02*
X104596190Y-179673249D01*
X104596190Y-179673249D02*
X104660952Y-179749440D01*
X104660952Y-179749440D02*
X104790476Y-179825630D01*
X104790476Y-179825630D02*
X104984761Y-179825630D01*
X103948571Y-179825630D02*
X103948571Y-178758963D01*
X103948571Y-179063725D02*
X103883809Y-178911344D01*
X103883809Y-178911344D02*
X103819047Y-178835154D01*
X103819047Y-178835154D02*
X103689523Y-178758963D01*
X103689523Y-178758963D02*
X103560000Y-178758963D01*
X102523809Y-178758963D02*
X102523809Y-180054201D01*
X102523809Y-180054201D02*
X102588571Y-180206582D01*
X102588571Y-180206582D02*
X102653333Y-180282773D01*
X102653333Y-180282773D02*
X102782856Y-180358963D01*
X102782856Y-180358963D02*
X102977142Y-180358963D01*
X102977142Y-180358963D02*
X103106666Y-180282773D01*
X102523809Y-179749440D02*
X102653333Y-179825630D01*
X102653333Y-179825630D02*
X102912380Y-179825630D01*
X102912380Y-179825630D02*
X103041904Y-179749440D01*
X103041904Y-179749440D02*
X103106666Y-179673249D01*
X103106666Y-179673249D02*
X103171428Y-179520868D01*
X103171428Y-179520868D02*
X103171428Y-179063725D01*
X103171428Y-179063725D02*
X103106666Y-178911344D01*
X103106666Y-178911344D02*
X103041904Y-178835154D01*
X103041904Y-178835154D02*
X102912380Y-178758963D01*
X102912380Y-178758963D02*
X102653333Y-178758963D01*
X102653333Y-178758963D02*
X102523809Y-178835154D01*
D13*
X120175409Y-115752380D02*
X120175409Y-116399999D01*
X120175409Y-116399999D02*
X119413504Y-116464761D01*
X119413504Y-116464761D02*
X119489695Y-116399999D01*
X119489695Y-116399999D02*
X119565885Y-116270475D01*
X119565885Y-116270475D02*
X119565885Y-115946666D01*
X119565885Y-115946666D02*
X119489695Y-115817142D01*
X119489695Y-115817142D02*
X119413504Y-115752380D01*
X119413504Y-115752380D02*
X119261123Y-115687618D01*
X119261123Y-115687618D02*
X118880171Y-115687618D01*
X118880171Y-115687618D02*
X118727790Y-115752380D01*
X118727790Y-115752380D02*
X118651600Y-115817142D01*
X118651600Y-115817142D02*
X118575409Y-115946666D01*
X118575409Y-115946666D02*
X118575409Y-116270475D01*
X118575409Y-116270475D02*
X118651600Y-116399999D01*
X118651600Y-116399999D02*
X118727790Y-116464761D01*
X120099219Y-113356190D02*
X120175409Y-113485714D01*
X120175409Y-113485714D02*
X120175409Y-113680000D01*
X120175409Y-113680000D02*
X120099219Y-113874285D01*
X120099219Y-113874285D02*
X119946838Y-114003809D01*
X119946838Y-114003809D02*
X119794457Y-114068571D01*
X119794457Y-114068571D02*
X119489695Y-114133333D01*
X119489695Y-114133333D02*
X119261123Y-114133333D01*
X119261123Y-114133333D02*
X118956361Y-114068571D01*
X118956361Y-114068571D02*
X118803980Y-114003809D01*
X118803980Y-114003809D02*
X118651600Y-113874285D01*
X118651600Y-113874285D02*
X118575409Y-113680000D01*
X118575409Y-113680000D02*
X118575409Y-113550476D01*
X118575409Y-113550476D02*
X118651600Y-113356190D01*
X118651600Y-113356190D02*
X118727790Y-113291428D01*
X118727790Y-113291428D02*
X119261123Y-113291428D01*
X119261123Y-113291428D02*
X119261123Y-113550476D01*
X118575409Y-112708571D02*
X120175409Y-112708571D01*
X119565885Y-112708571D02*
X119642076Y-112579047D01*
X119642076Y-112579047D02*
X119642076Y-112320000D01*
X119642076Y-112320000D02*
X119565885Y-112190476D01*
X119565885Y-112190476D02*
X119489695Y-112125714D01*
X119489695Y-112125714D02*
X119337314Y-112060952D01*
X119337314Y-112060952D02*
X118880171Y-112060952D01*
X118880171Y-112060952D02*
X118727790Y-112125714D01*
X118727790Y-112125714D02*
X118651600Y-112190476D01*
X118651600Y-112190476D02*
X118575409Y-112320000D01*
X118575409Y-112320000D02*
X118575409Y-112579047D01*
X118575409Y-112579047D02*
X118651600Y-112708571D01*
X120251600Y-110506666D02*
X118194457Y-111672381D01*
X118651600Y-110118095D02*
X118575409Y-109988571D01*
X118575409Y-109988571D02*
X118575409Y-109729523D01*
X118575409Y-109729523D02*
X118651600Y-109600000D01*
X118651600Y-109600000D02*
X118803980Y-109535238D01*
X118803980Y-109535238D02*
X118880171Y-109535238D01*
X118880171Y-109535238D02*
X119032552Y-109600000D01*
X119032552Y-109600000D02*
X119108742Y-109729523D01*
X119108742Y-109729523D02*
X119108742Y-109923809D01*
X119108742Y-109923809D02*
X119184933Y-110053333D01*
X119184933Y-110053333D02*
X119337314Y-110118095D01*
X119337314Y-110118095D02*
X119413504Y-110118095D01*
X119413504Y-110118095D02*
X119565885Y-110053333D01*
X119565885Y-110053333D02*
X119642076Y-109923809D01*
X119642076Y-109923809D02*
X119642076Y-109729523D01*
X119642076Y-109729523D02*
X119565885Y-109600000D01*
X117016304Y-119670853D02*
X117016304Y-121047043D01*
X117016304Y-121047043D02*
X116947495Y-121208948D01*
X116947495Y-121208948D02*
X116878685Y-121289901D01*
X116878685Y-121289901D02*
X116741066Y-121370853D01*
X116741066Y-121370853D02*
X116465828Y-121370853D01*
X116465828Y-121370853D02*
X116328209Y-121289901D01*
X116328209Y-121289901D02*
X116259400Y-121208948D01*
X116259400Y-121208948D02*
X116190590Y-121047043D01*
X116190590Y-121047043D02*
X116190590Y-119670853D01*
X115571306Y-121289901D02*
X115364877Y-121370853D01*
X115364877Y-121370853D02*
X115020830Y-121370853D01*
X115020830Y-121370853D02*
X114883211Y-121289901D01*
X114883211Y-121289901D02*
X114814401Y-121208948D01*
X114814401Y-121208948D02*
X114745592Y-121047043D01*
X114745592Y-121047043D02*
X114745592Y-120885139D01*
X114745592Y-120885139D02*
X114814401Y-120723234D01*
X114814401Y-120723234D02*
X114883211Y-120642281D01*
X114883211Y-120642281D02*
X115020830Y-120561329D01*
X115020830Y-120561329D02*
X115296068Y-120480377D01*
X115296068Y-120480377D02*
X115433687Y-120399424D01*
X115433687Y-120399424D02*
X115502496Y-120318472D01*
X115502496Y-120318472D02*
X115571306Y-120156567D01*
X115571306Y-120156567D02*
X115571306Y-119994662D01*
X115571306Y-119994662D02*
X115502496Y-119832758D01*
X115502496Y-119832758D02*
X115433687Y-119751805D01*
X115433687Y-119751805D02*
X115296068Y-119670853D01*
X115296068Y-119670853D02*
X114952020Y-119670853D01*
X114952020Y-119670853D02*
X114745592Y-119751805D01*
X113644640Y-120480377D02*
X113438211Y-120561329D01*
X113438211Y-120561329D02*
X113369402Y-120642281D01*
X113369402Y-120642281D02*
X113300592Y-120804186D01*
X113300592Y-120804186D02*
X113300592Y-121047043D01*
X113300592Y-121047043D02*
X113369402Y-121208948D01*
X113369402Y-121208948D02*
X113438211Y-121289901D01*
X113438211Y-121289901D02*
X113575830Y-121370853D01*
X113575830Y-121370853D02*
X114126306Y-121370853D01*
X114126306Y-121370853D02*
X114126306Y-119670853D01*
X114126306Y-119670853D02*
X113644640Y-119670853D01*
X113644640Y-119670853D02*
X113507021Y-119751805D01*
X113507021Y-119751805D02*
X113438211Y-119832758D01*
X113438211Y-119832758D02*
X113369402Y-119994662D01*
X113369402Y-119994662D02*
X113369402Y-120156567D01*
X113369402Y-120156567D02*
X113438211Y-120318472D01*
X113438211Y-120318472D02*
X113507021Y-120399424D01*
X113507021Y-120399424D02*
X113644640Y-120480377D01*
X113644640Y-120480377D02*
X114126306Y-120480377D01*
X111717974Y-119670853D02*
X110823451Y-119670853D01*
X110823451Y-119670853D02*
X111305117Y-120318472D01*
X111305117Y-120318472D02*
X111098689Y-120318472D01*
X111098689Y-120318472D02*
X110961070Y-120399424D01*
X110961070Y-120399424D02*
X110892260Y-120480377D01*
X110892260Y-120480377D02*
X110823451Y-120642281D01*
X110823451Y-120642281D02*
X110823451Y-121047043D01*
X110823451Y-121047043D02*
X110892260Y-121208948D01*
X110892260Y-121208948D02*
X110961070Y-121289901D01*
X110961070Y-121289901D02*
X111098689Y-121370853D01*
X111098689Y-121370853D02*
X111511546Y-121370853D01*
X111511546Y-121370853D02*
X111649165Y-121289901D01*
X111649165Y-121289901D02*
X111717974Y-121208948D01*
X110204165Y-121208948D02*
X110135356Y-121289901D01*
X110135356Y-121289901D02*
X110204165Y-121370853D01*
X110204165Y-121370853D02*
X110272975Y-121289901D01*
X110272975Y-121289901D02*
X110204165Y-121208948D01*
X110204165Y-121208948D02*
X110204165Y-121370853D01*
X108759166Y-121370853D02*
X109584880Y-121370853D01*
X109172023Y-121370853D02*
X109172023Y-119670853D01*
X109172023Y-119670853D02*
X109309642Y-119913710D01*
X109309642Y-119913710D02*
X109447261Y-120075615D01*
X109447261Y-120075615D02*
X109584880Y-120156567D01*
X106282024Y-119751805D02*
X106419643Y-119670853D01*
X106419643Y-119670853D02*
X106626071Y-119670853D01*
X106626071Y-119670853D02*
X106832500Y-119751805D01*
X106832500Y-119751805D02*
X106970119Y-119913710D01*
X106970119Y-119913710D02*
X107038928Y-120075615D01*
X107038928Y-120075615D02*
X107107738Y-120399424D01*
X107107738Y-120399424D02*
X107107738Y-120642281D01*
X107107738Y-120642281D02*
X107038928Y-120966091D01*
X107038928Y-120966091D02*
X106970119Y-121127996D01*
X106970119Y-121127996D02*
X106832500Y-121289901D01*
X106832500Y-121289901D02*
X106626071Y-121370853D01*
X106626071Y-121370853D02*
X106488452Y-121370853D01*
X106488452Y-121370853D02*
X106282024Y-121289901D01*
X106282024Y-121289901D02*
X106213214Y-121208948D01*
X106213214Y-121208948D02*
X106213214Y-120642281D01*
X106213214Y-120642281D02*
X106488452Y-120642281D01*
X105593929Y-120480377D02*
X105112263Y-120480377D01*
X104905834Y-121370853D02*
X105593929Y-121370853D01*
X105593929Y-121370853D02*
X105593929Y-119670853D01*
X105593929Y-119670853D02*
X104905834Y-119670853D01*
X104286549Y-121370853D02*
X104286549Y-119670853D01*
X104286549Y-119670853D02*
X103460835Y-121370853D01*
X103460835Y-121370853D02*
X103460835Y-119670853D01*
X100914885Y-121370853D02*
X101740599Y-121370853D01*
X101327742Y-121370853D02*
X101327742Y-119670853D01*
X101327742Y-119670853D02*
X101465361Y-119913710D01*
X101465361Y-119913710D02*
X101602980Y-120075615D01*
X101602980Y-120075615D02*
X101740599Y-120156567D01*
D17*
X114877142Y-177796961D02*
X115500475Y-176749342D01*
X115945713Y-177796961D02*
X115945713Y-175596961D01*
X115945713Y-175596961D02*
X115233332Y-175596961D01*
X115233332Y-175596961D02*
X115055237Y-175701723D01*
X115055237Y-175701723D02*
X114966190Y-175806485D01*
X114966190Y-175806485D02*
X114877142Y-176016009D01*
X114877142Y-176016009D02*
X114877142Y-176330295D01*
X114877142Y-176330295D02*
X114966190Y-176539819D01*
X114966190Y-176539819D02*
X115055237Y-176644580D01*
X115055237Y-176644580D02*
X115233332Y-176749342D01*
X115233332Y-176749342D02*
X115945713Y-176749342D01*
X113363332Y-177692200D02*
X113541428Y-177796961D01*
X113541428Y-177796961D02*
X113897618Y-177796961D01*
X113897618Y-177796961D02*
X114075713Y-177692200D01*
X114075713Y-177692200D02*
X114164761Y-177482676D01*
X114164761Y-177482676D02*
X114164761Y-176644580D01*
X114164761Y-176644580D02*
X114075713Y-176435057D01*
X114075713Y-176435057D02*
X113897618Y-176330295D01*
X113897618Y-176330295D02*
X113541428Y-176330295D01*
X113541428Y-176330295D02*
X113363332Y-176435057D01*
X113363332Y-176435057D02*
X113274285Y-176644580D01*
X113274285Y-176644580D02*
X113274285Y-176854104D01*
X113274285Y-176854104D02*
X114164761Y-177063628D01*
X111671428Y-177692200D02*
X111849523Y-177796961D01*
X111849523Y-177796961D02*
X112205714Y-177796961D01*
X112205714Y-177796961D02*
X112383809Y-177692200D01*
X112383809Y-177692200D02*
X112472856Y-177587438D01*
X112472856Y-177587438D02*
X112561904Y-177377914D01*
X112561904Y-177377914D02*
X112561904Y-176749342D01*
X112561904Y-176749342D02*
X112472856Y-176539819D01*
X112472856Y-176539819D02*
X112383809Y-176435057D01*
X112383809Y-176435057D02*
X112205714Y-176330295D01*
X112205714Y-176330295D02*
X111849523Y-176330295D01*
X111849523Y-176330295D02*
X111671428Y-176435057D01*
X110602857Y-177796961D02*
X110780952Y-177692200D01*
X110780952Y-177692200D02*
X110869999Y-177587438D01*
X110869999Y-177587438D02*
X110959047Y-177377914D01*
X110959047Y-177377914D02*
X110959047Y-176749342D01*
X110959047Y-176749342D02*
X110869999Y-176539819D01*
X110869999Y-176539819D02*
X110780952Y-176435057D01*
X110780952Y-176435057D02*
X110602857Y-176330295D01*
X110602857Y-176330295D02*
X110335714Y-176330295D01*
X110335714Y-176330295D02*
X110157618Y-176435057D01*
X110157618Y-176435057D02*
X110068571Y-176539819D01*
X110068571Y-176539819D02*
X109979523Y-176749342D01*
X109979523Y-176749342D02*
X109979523Y-177377914D01*
X109979523Y-177377914D02*
X110068571Y-177587438D01*
X110068571Y-177587438D02*
X110157618Y-177692200D01*
X110157618Y-177692200D02*
X110335714Y-177796961D01*
X110335714Y-177796961D02*
X110602857Y-177796961D01*
X109356190Y-176330295D02*
X108910952Y-177796961D01*
X108910952Y-177796961D02*
X108465713Y-176330295D01*
X107040951Y-177692200D02*
X107219047Y-177796961D01*
X107219047Y-177796961D02*
X107575237Y-177796961D01*
X107575237Y-177796961D02*
X107753332Y-177692200D01*
X107753332Y-177692200D02*
X107842380Y-177482676D01*
X107842380Y-177482676D02*
X107842380Y-176644580D01*
X107842380Y-176644580D02*
X107753332Y-176435057D01*
X107753332Y-176435057D02*
X107575237Y-176330295D01*
X107575237Y-176330295D02*
X107219047Y-176330295D01*
X107219047Y-176330295D02*
X107040951Y-176435057D01*
X107040951Y-176435057D02*
X106951904Y-176644580D01*
X106951904Y-176644580D02*
X106951904Y-176854104D01*
X106951904Y-176854104D02*
X107842380Y-177063628D01*
X106150475Y-177796961D02*
X106150475Y-176330295D01*
X106150475Y-176749342D02*
X106061428Y-176539819D01*
X106061428Y-176539819D02*
X105972380Y-176435057D01*
X105972380Y-176435057D02*
X105794285Y-176330295D01*
X105794285Y-176330295D02*
X105616190Y-176330295D01*
X104992856Y-177796961D02*
X104992856Y-175596961D01*
X103924285Y-177796961D02*
X104725714Y-176539819D01*
X103924285Y-175596961D02*
X104992856Y-176854104D01*
X103122856Y-177796961D02*
X103122856Y-176330295D01*
X103122856Y-175596961D02*
X103211904Y-175701723D01*
X103211904Y-175701723D02*
X103122856Y-175806485D01*
X103122856Y-175806485D02*
X103033809Y-175701723D01*
X103033809Y-175701723D02*
X103122856Y-175596961D01*
X103122856Y-175596961D02*
X103122856Y-175806485D01*
X102499523Y-176330295D02*
X101787142Y-176330295D01*
X102232380Y-175596961D02*
X102232380Y-177482676D01*
X102232380Y-177482676D02*
X102143333Y-177692200D01*
X102143333Y-177692200D02*
X101965238Y-177796961D01*
X101965238Y-177796961D02*
X101787142Y-177796961D01*
D18*
X120795921Y-101683333D02*
X118595921Y-101683333D01*
X119643540Y-101683333D02*
X119643540Y-102751904D01*
X120795921Y-102751904D02*
X118595921Y-102751904D01*
X118595921Y-103998571D02*
X118595921Y-104354762D01*
X118595921Y-104354762D02*
X118700683Y-104532857D01*
X118700683Y-104532857D02*
X118910207Y-104710952D01*
X118910207Y-104710952D02*
X119329255Y-104800000D01*
X119329255Y-104800000D02*
X120062588Y-104800000D01*
X120062588Y-104800000D02*
X120481636Y-104710952D01*
X120481636Y-104710952D02*
X120691160Y-104532857D01*
X120691160Y-104532857D02*
X120795921Y-104354762D01*
X120795921Y-104354762D02*
X120795921Y-103998571D01*
X120795921Y-103998571D02*
X120691160Y-103820476D01*
X120691160Y-103820476D02*
X120481636Y-103642381D01*
X120481636Y-103642381D02*
X120062588Y-103553333D01*
X120062588Y-103553333D02*
X119329255Y-103553333D01*
X119329255Y-103553333D02*
X118910207Y-103642381D01*
X118910207Y-103642381D02*
X118700683Y-103820476D01*
X118700683Y-103820476D02*
X118595921Y-103998571D01*
X120691160Y-105512381D02*
X120795921Y-105779524D01*
X120795921Y-105779524D02*
X120795921Y-106224762D01*
X120795921Y-106224762D02*
X120691160Y-106402857D01*
X120691160Y-106402857D02*
X120586398Y-106491905D01*
X120586398Y-106491905D02*
X120376874Y-106580952D01*
X120376874Y-106580952D02*
X120167350Y-106580952D01*
X120167350Y-106580952D02*
X119957826Y-106491905D01*
X119957826Y-106491905D02*
X119853064Y-106402857D01*
X119853064Y-106402857D02*
X119748302Y-106224762D01*
X119748302Y-106224762D02*
X119643540Y-105868571D01*
X119643540Y-105868571D02*
X119538779Y-105690476D01*
X119538779Y-105690476D02*
X119434017Y-105601429D01*
X119434017Y-105601429D02*
X119224493Y-105512381D01*
X119224493Y-105512381D02*
X119014969Y-105512381D01*
X119014969Y-105512381D02*
X118805445Y-105601429D01*
X118805445Y-105601429D02*
X118700683Y-105690476D01*
X118700683Y-105690476D02*
X118595921Y-105868571D01*
X118595921Y-105868571D02*
X118595921Y-106313810D01*
X118595921Y-106313810D02*
X118700683Y-106580952D01*
X118595921Y-107115238D02*
X118595921Y-108183809D01*
X120795921Y-107649523D02*
X118595921Y-107649523D01*
X118595921Y-185535952D02*
X118595921Y-186604523D01*
X120795921Y-186070237D02*
X118595921Y-186070237D01*
X120167350Y-187138809D02*
X120167350Y-188029285D01*
X120795921Y-186960714D02*
X118595921Y-187584047D01*
X118595921Y-187584047D02*
X120795921Y-188207380D01*
X120795921Y-189899285D02*
X119748302Y-189275952D01*
X120795921Y-188830714D02*
X118595921Y-188830714D01*
X118595921Y-188830714D02*
X118595921Y-189543095D01*
X118595921Y-189543095D02*
X118700683Y-189721190D01*
X118700683Y-189721190D02*
X118805445Y-189810237D01*
X118805445Y-189810237D02*
X119014969Y-189899285D01*
X119014969Y-189899285D02*
X119329255Y-189899285D01*
X119329255Y-189899285D02*
X119538779Y-189810237D01*
X119538779Y-189810237D02*
X119643540Y-189721190D01*
X119643540Y-189721190D02*
X119748302Y-189543095D01*
X119748302Y-189543095D02*
X119748302Y-188830714D01*
X118700683Y-191680237D02*
X118595921Y-191502142D01*
X118595921Y-191502142D02*
X118595921Y-191234999D01*
X118595921Y-191234999D02*
X118700683Y-190967856D01*
X118700683Y-190967856D02*
X118910207Y-190789761D01*
X118910207Y-190789761D02*
X119119731Y-190700714D01*
X119119731Y-190700714D02*
X119538779Y-190611666D01*
X119538779Y-190611666D02*
X119853064Y-190611666D01*
X119853064Y-190611666D02*
X120272112Y-190700714D01*
X120272112Y-190700714D02*
X120481636Y-190789761D01*
X120481636Y-190789761D02*
X120691160Y-190967856D01*
X120691160Y-190967856D02*
X120795921Y-191234999D01*
X120795921Y-191234999D02*
X120795921Y-191413095D01*
X120795921Y-191413095D02*
X120691160Y-191680237D01*
X120691160Y-191680237D02*
X120586398Y-191769285D01*
X120586398Y-191769285D02*
X119853064Y-191769285D01*
X119853064Y-191769285D02*
X119853064Y-191413095D01*
X119643540Y-192570714D02*
X119643540Y-193194047D01*
X120795921Y-193461190D02*
X120795921Y-192570714D01*
X120795921Y-192570714D02*
X118595921Y-192570714D01*
X118595921Y-192570714D02*
X118595921Y-193461190D01*
X118595921Y-193995476D02*
X118595921Y-195064047D01*
X120795921Y-194529761D02*
X118595921Y-194529761D01*
D19*
X111811038Y-124644763D02*
X105611038Y-124644763D01*
X105611038Y-124644763D02*
X105611038Y-125825715D01*
X105611038Y-125825715D02*
X105906276Y-126534287D01*
X105906276Y-126534287D02*
X106496752Y-127006668D01*
X106496752Y-127006668D02*
X107087228Y-127242858D01*
X107087228Y-127242858D02*
X108268180Y-127479049D01*
X108268180Y-127479049D02*
X109153895Y-127479049D01*
X109153895Y-127479049D02*
X110334847Y-127242858D01*
X110334847Y-127242858D02*
X110925323Y-127006668D01*
X110925323Y-127006668D02*
X111515800Y-126534287D01*
X111515800Y-126534287D02*
X111811038Y-125825715D01*
X111811038Y-125825715D02*
X111811038Y-124644763D01*
X105611038Y-130549525D02*
X105611038Y-131494287D01*
X105611038Y-131494287D02*
X105906276Y-131966668D01*
X105906276Y-131966668D02*
X106496752Y-132439049D01*
X106496752Y-132439049D02*
X107677704Y-132675239D01*
X107677704Y-132675239D02*
X109744371Y-132675239D01*
X109744371Y-132675239D02*
X110925323Y-132439049D01*
X110925323Y-132439049D02*
X111515800Y-131966668D01*
X111515800Y-131966668D02*
X111811038Y-131494287D01*
X111811038Y-131494287D02*
X111811038Y-130549525D01*
X111811038Y-130549525D02*
X111515800Y-130077144D01*
X111515800Y-130077144D02*
X110925323Y-129604763D01*
X110925323Y-129604763D02*
X109744371Y-129368572D01*
X109744371Y-129368572D02*
X107677704Y-129368572D01*
X107677704Y-129368572D02*
X106496752Y-129604763D01*
X106496752Y-129604763D02*
X105906276Y-130077144D01*
X105906276Y-130077144D02*
X105611038Y-130549525D01*
X111811038Y-134800953D02*
X105611038Y-134800953D01*
X105611038Y-134800953D02*
X111811038Y-137635239D01*
X111811038Y-137635239D02*
X105611038Y-137635239D01*
X105906276Y-142595238D02*
X105611038Y-142122857D01*
X105611038Y-142122857D02*
X105611038Y-141414286D01*
X105611038Y-141414286D02*
X105906276Y-140705714D01*
X105906276Y-140705714D02*
X106496752Y-140233333D01*
X106496752Y-140233333D02*
X107087228Y-139997143D01*
X107087228Y-139997143D02*
X108268180Y-139760952D01*
X108268180Y-139760952D02*
X109153895Y-139760952D01*
X109153895Y-139760952D02*
X110334847Y-139997143D01*
X110334847Y-139997143D02*
X110925323Y-140233333D01*
X110925323Y-140233333D02*
X111515800Y-140705714D01*
X111515800Y-140705714D02*
X111811038Y-141414286D01*
X111811038Y-141414286D02*
X111811038Y-141886667D01*
X111811038Y-141886667D02*
X111515800Y-142595238D01*
X111515800Y-142595238D02*
X111220561Y-142831429D01*
X111220561Y-142831429D02*
X109153895Y-142831429D01*
X109153895Y-142831429D02*
X109153895Y-141886667D01*
X111811038Y-147319048D02*
X111811038Y-144957143D01*
X111811038Y-144957143D02*
X105611038Y-144957143D01*
X108563419Y-148972381D02*
X108563419Y-150625714D01*
X111811038Y-151334286D02*
X111811038Y-148972381D01*
X111811038Y-148972381D02*
X105611038Y-148972381D01*
X105611038Y-148972381D02*
X105611038Y-151334286D01*
X109449133Y-153460000D02*
X109449133Y-157239048D01*
X111811038Y-159600952D02*
X105611038Y-159600952D01*
X105611038Y-159600952D02*
X105611038Y-161490476D01*
X105611038Y-161490476D02*
X105906276Y-161962857D01*
X105906276Y-161962857D02*
X106201514Y-162199047D01*
X106201514Y-162199047D02*
X106791990Y-162435238D01*
X106791990Y-162435238D02*
X107677704Y-162435238D01*
X107677704Y-162435238D02*
X108268180Y-162199047D01*
X108268180Y-162199047D02*
X108563419Y-161962857D01*
X108563419Y-161962857D02*
X108858657Y-161490476D01*
X108858657Y-161490476D02*
X108858657Y-159600952D01*
X111811038Y-167395238D02*
X108858657Y-165741904D01*
X111811038Y-164560952D02*
X105611038Y-164560952D01*
X105611038Y-164560952D02*
X105611038Y-166450476D01*
X105611038Y-166450476D02*
X105906276Y-166922857D01*
X105906276Y-166922857D02*
X106201514Y-167159047D01*
X106201514Y-167159047D02*
X106791990Y-167395238D01*
X106791990Y-167395238D02*
X107677704Y-167395238D01*
X107677704Y-167395238D02*
X108268180Y-167159047D01*
X108268180Y-167159047D02*
X108563419Y-166922857D01*
X108563419Y-166922857D02*
X108858657Y-166450476D01*
X108858657Y-166450476D02*
X108858657Y-164560952D01*
X105611038Y-170465714D02*
X105611038Y-171410476D01*
X105611038Y-171410476D02*
X105906276Y-171882857D01*
X105906276Y-171882857D02*
X106496752Y-172355238D01*
X106496752Y-172355238D02*
X107677704Y-172591428D01*
X107677704Y-172591428D02*
X109744371Y-172591428D01*
X109744371Y-172591428D02*
X110925323Y-172355238D01*
X110925323Y-172355238D02*
X111515800Y-171882857D01*
X111515800Y-171882857D02*
X111811038Y-171410476D01*
X111811038Y-171410476D02*
X111811038Y-170465714D01*
X111811038Y-170465714D02*
X111515800Y-169993333D01*
X111515800Y-169993333D02*
X110925323Y-169520952D01*
X110925323Y-169520952D02*
X109744371Y-169284761D01*
X109744371Y-169284761D02*
X107677704Y-169284761D01*
X107677704Y-169284761D02*
X106496752Y-169520952D01*
X106496752Y-169520952D02*
X105906276Y-169993333D01*
X105906276Y-169993333D02*
X105611038Y-170465714D01*
%LPC*%
D20*
%TO.C,J1*%
X112400000Y-104710000D03*
X105600000Y-104710000D03*
D21*
X104680000Y-101510000D03*
X113320000Y-101510000D03*
D22*
X113320000Y-106130000D03*
D23*
X113080000Y-105570000D03*
X104950000Y-105570000D03*
D22*
X104680000Y-106130000D03*
%TD*%
D20*
%TO.C,J2*%
X105600000Y-191290000D03*
X112400000Y-191290000D03*
D21*
X113320000Y-194490000D03*
X104680000Y-194490000D03*
D22*
X104680000Y-189870000D03*
D23*
X104920000Y-190430000D03*
X113050000Y-190430000D03*
D22*
X113320000Y-189870000D03*
%TD*%
D24*
%TO.C,J3*%
X97800000Y-157040000D03*
X96784000Y-151960000D03*
X98816000Y-151960000D03*
%TD*%
%LPD*%
M02*
