%TF.GenerationSoftware,KiCad,Pcbnew,10.0.4*%
%TF.CreationDate,2026-07-23T02:49:07-04:00*%
%TF.ProjectId,dongle-pro,646f6e67-6c65-42d7-9072-6f2e6b696361,rev?*%
%TF.SameCoordinates,Original*%
%TF.FileFunction,Paste,Top*%
%TF.FilePolarity,Positive*%
%FSLAX46Y46*%
G04 Gerber Fmt 4.6, Leading zero omitted, Abs format (unit mm)*
G04 Created by KiCad (PCBNEW 10.0.4) date 2026-07-23 02:49:07*
%MOMM*%
%LPD*%
G01*
G04 APERTURE LIST*
G04 Aperture macros list*
%AMFreePoly0*
4,1,15,0.135380,0.285215,0.150025,0.249865,0.150076,-0.250083,0.135435,-0.285440,0.100081,-0.300088,-0.099949,-0.300088,-0.135304,-0.285443,-0.149949,-0.250088,-0.149949,0.149911,-0.135304,0.185266,-0.135300,0.185271,-0.035326,0.285220,0.000025,0.299860,0.100025,0.299860,0.135380,0.285215,0.135380,0.285215,$1*%
%AMFreePoly1*
4,1,14,0.035208,0.285184,0.135335,0.185311,0.150025,0.149974,0.149949,-0.250199,0.135298,-0.285552,0.099943,-0.300190,-0.100133,-0.300165,-0.135487,-0.285516,-0.150127,-0.250159,-0.150051,0.249766,-0.135401,0.285119,-0.100051,0.299758,-0.000115,0.299784,0.035208,0.285184,0.035208,0.285184,$1*%
%AMFreePoly2*
4,1,14,0.285418,0.135456,0.300063,0.100101,0.300063,-0.099822,0.285418,-0.135177,0.250063,-0.149822,-0.149911,-0.149822,-0.185235,-0.135209,-0.285285,-0.035336,-0.299961,0.000007,-0.299961,0.100101,-0.285316,0.135456,-0.249961,0.150101,0.250063,0.150101,0.285418,0.135456,0.285418,0.135456,$1*%
%AMFreePoly3*
4,1,14,0.285215,0.135253,0.299860,0.099898,0.299860,-0.100101,0.285215,-0.135456,0.249860,-0.150101,-0.250142,-0.150076,-0.285496,-0.135430,-0.300139,-0.100076,-0.300139,-0.000051,-0.285494,0.035304,-0.185485,0.135262,-0.150139,0.149898,0.249860,0.149898,0.285215,0.135253,0.285215,0.135253,$1*%
%AMFreePoly4*
4,1,15,0.135253,0.285443,0.149898,0.250088,0.149898,-0.149911,0.135253,-0.185266,0.135249,-0.185271,0.035275,-0.285220,-0.000076,-0.299860,-0.100076,-0.299860,-0.135431,-0.285215,-0.150076,-0.249865,-0.150127,0.250083,-0.135486,0.285440,-0.100132,0.300088,0.099898,0.300088,0.135253,0.285443,0.135253,0.285443,$1*%
%AMFreePoly5*
4,1,16,0.100089,0.299987,0.135440,0.285333,0.150076,0.249977,0.149974,-0.249921,0.135322,-0.285274,0.118291,-0.296435,0.118164,-0.296485,0.099847,-0.299961,0.000051,-0.299961,-0.035282,-0.285339,-0.135282,-0.185467,-0.149949,-0.150121,-0.149949,0.250038,-0.135304,0.285393,-0.099949,0.300038,0.100089,0.299987,0.100089,0.299987,$1*%
%AMFreePoly6*
4,1,14,0.185255,0.135265,0.285316,0.035203,0.299961,-0.000152,0.299961,-0.100152,0.285316,-0.135507,0.249966,-0.150152,-0.250033,-0.150203,-0.285390,-0.135562,-0.300038,-0.100208,-0.300038,0.099771,-0.285393,0.135126,-0.250054,0.149771,0.149895,0.149898,0.185255,0.135265,0.185255,0.135265,$1*%
%AMFreePoly7*
4,1,15,0.250091,0.150076,0.285445,0.135430,0.300088,0.100076,0.300088,0.000051,0.285443,-0.035304,0.285430,-0.035318,0.185431,-0.135242,0.150089,-0.149873,-0.249885,-0.149873,-0.285240,-0.135228,-0.299885,-0.099873,-0.299885,0.100101,-0.285240,0.135456,-0.249885,0.150101,0.250091,0.150076,0.250091,0.150076,$1*%
G04 Aperture macros list end*
%ADD10R,0.540000X0.500000*%
%ADD11R,1.000000X1.600000*%
%ADD12R,0.500000X0.540000*%
%ADD13R,0.300000X0.950000*%
%ADD14R,0.540000X0.566000*%
%ADD15R,0.280000X0.665000*%
%ADD16R,0.665000X0.280000*%
%ADD17R,1.000000X3.000000*%
%ADD18R,0.200000X0.565000*%
%ADD19R,0.400000X0.565000*%
%ADD20R,1.410000X1.350000*%
%ADD21R,1.350000X1.410000*%
%ADD22R,0.800000X0.800000*%
%ADD23R,1.157000X0.490000*%
%ADD24R,1.175000X0.490000*%
%ADD25FreePoly0,0.000000*%
%ADD26O,0.200000X0.505000*%
%ADD27FreePoly1,0.000000*%
%ADD28FreePoly2,0.000000*%
%ADD29O,0.505000X0.200000*%
%ADD30FreePoly3,0.000000*%
%ADD31FreePoly4,0.000000*%
%ADD32FreePoly5,0.000000*%
%ADD33FreePoly6,0.000000*%
%ADD34FreePoly7,0.000000*%
%ADD35R,3.200000X1.200000*%
%ADD36R,0.400000X0.800000*%
%ADD37R,0.566000X0.540000*%
%ADD38R,0.875000X0.200000*%
%ADD39R,0.200000X0.875000*%
%ADD40R,3.400000X3.400000*%
%ADD41R,1.400000X1.200000*%
%ADD42R,0.200000X0.700000*%
%ADD43R,0.700000X0.200000*%
%ADD44R,5.350000X5.350000*%
%ADD45R,0.600000X1.100000*%
%ADD46R,0.532000X1.072000*%
%ADD47R,0.864000X0.806000*%
%ADD48R,1.200000X1.400000*%
%ADD49R,1.000000X0.750000*%
%ADD50R,0.280000X0.505000*%
%ADD51R,0.505000X0.280000*%
%ADD52R,1.375000X1.375000*%
G04 APERTURE END LIST*
D10*
%TO.C,C50*%
X112000000Y-145920000D03*
X112000000Y-145080000D03*
%TD*%
D11*
%TO.C,L1*%
X119000000Y-158600000D03*
X121000000Y-158600000D03*
%TD*%
D12*
%TO.C,C26*%
X115580000Y-192500000D03*
X116420000Y-192500000D03*
%TD*%
D13*
%TO.C,J1*%
X111630000Y-106690000D03*
X111120000Y-106690000D03*
X110630000Y-106690000D03*
X110120000Y-106690000D03*
X109630000Y-106690000D03*
X109120000Y-106690000D03*
X108630000Y-106690000D03*
X108120000Y-106690000D03*
X107630000Y-106690000D03*
X107120000Y-106690000D03*
X106630000Y-106690000D03*
X106120000Y-106690000D03*
X106380000Y-105390000D03*
X106880000Y-105390000D03*
X107380000Y-105390000D03*
X107880000Y-105390000D03*
X108380000Y-105390000D03*
X108880000Y-105390000D03*
X109380000Y-105390000D03*
X109880000Y-105390000D03*
X110380000Y-105390000D03*
X110880000Y-105390000D03*
X111380000Y-105390000D03*
X111880000Y-105390000D03*
%TD*%
D12*
%TO.C,C41*%
X103180000Y-132500000D03*
X104020000Y-132500000D03*
%TD*%
D14*
%TO.C,R20*%
X119500000Y-130930000D03*
X119500000Y-130070000D03*
%TD*%
D10*
%TO.C,C25*%
X120900000Y-171920000D03*
X120900000Y-171080000D03*
%TD*%
D15*
%TO.C,U7*%
X105750000Y-152340000D03*
D16*
X104840000Y-152750000D03*
X104840000Y-153250000D03*
X104840000Y-153750000D03*
X104840000Y-154250000D03*
X104840000Y-154750000D03*
X104840000Y-155250000D03*
X104840000Y-155750000D03*
X104840000Y-156250000D03*
D15*
X105750000Y-156660000D03*
X106250000Y-156660000D03*
D16*
X107160000Y-156250000D03*
X107160000Y-155750000D03*
X107160000Y-155250000D03*
X107160000Y-154750000D03*
X107160000Y-154250000D03*
X107160000Y-153750000D03*
X107160000Y-153250000D03*
X107160000Y-152750000D03*
D15*
X106250000Y-152340000D03*
D17*
X106000000Y-154500000D03*
%TD*%
D12*
%TO.C,C42*%
X103180000Y-130000000D03*
X104020000Y-130000000D03*
%TD*%
D18*
%TO.C,D14*%
X105600000Y-184400000D03*
X106100000Y-184400000D03*
D19*
X106600000Y-184400000D03*
D18*
X107100000Y-184400000D03*
X107600000Y-184400000D03*
X107600000Y-183600000D03*
X107100000Y-183600000D03*
D19*
X106600000Y-183600000D03*
D18*
X106100000Y-183600000D03*
X105600000Y-183600000D03*
%TD*%
D20*
%TO.C,C38*%
X117500000Y-141000000D03*
X119500000Y-141000000D03*
%TD*%
D21*
%TO.C,C22*%
X120900000Y-175000000D03*
X120900000Y-173000000D03*
%TD*%
D10*
%TO.C,C32*%
X110700000Y-116720000D03*
X110700000Y-115880000D03*
%TD*%
D21*
%TO.C,C45*%
X118500000Y-147500000D03*
X118500000Y-145500000D03*
%TD*%
%TO.C,C16*%
X98600000Y-148500000D03*
X98600000Y-146500000D03*
%TD*%
D22*
%TO.C,D2*%
X102500000Y-189500000D03*
X101000000Y-189500000D03*
%TD*%
D13*
%TO.C,J2*%
X106370000Y-189310000D03*
X106880000Y-189310000D03*
X107370000Y-189310000D03*
X107880000Y-189310000D03*
X108370000Y-189310000D03*
X108880000Y-189310000D03*
X109370000Y-189310000D03*
X109880000Y-189310000D03*
X110370000Y-189310000D03*
X110880000Y-189310000D03*
X111370000Y-189310000D03*
X111880000Y-189310000D03*
X111620000Y-190610000D03*
X111120000Y-190610000D03*
X110620000Y-190610000D03*
X110120000Y-190610000D03*
X109620000Y-190610000D03*
X109120000Y-190610000D03*
X108620000Y-190610000D03*
X108120000Y-190610000D03*
X107620000Y-190610000D03*
X107120000Y-190610000D03*
X106620000Y-190610000D03*
X106120000Y-190610000D03*
%TD*%
D23*
%TO.C,U6*%
X115150000Y-187450000D03*
X115150000Y-186500000D03*
X115150000Y-185550000D03*
D24*
X112850000Y-185550000D03*
X112850000Y-187450000D03*
%TD*%
D12*
%TO.C,C12*%
X114980000Y-176900000D03*
X115820000Y-176900000D03*
%TD*%
%TO.C,C4*%
X112980000Y-174600000D03*
X113820000Y-174600000D03*
%TD*%
D14*
%TO.C,R16*%
X99500000Y-130930000D03*
X99500000Y-130070000D03*
%TD*%
D10*
%TO.C,C31*%
X111900000Y-116720000D03*
X111900000Y-115880000D03*
%TD*%
%TO.C,C29*%
X99500000Y-122420000D03*
X99500000Y-121580000D03*
%TD*%
D14*
%TO.C,R15*%
X118500000Y-125430000D03*
X118500000Y-124570000D03*
%TD*%
D21*
%TO.C,C53*%
X101500000Y-159100000D03*
X101500000Y-157100000D03*
%TD*%
D12*
%TO.C,C10*%
X118880000Y-177200000D03*
X119720000Y-177200000D03*
%TD*%
D25*
%TO.C,U3*%
X107200000Y-122700000D03*
D26*
X107600000Y-122700000D03*
X108000000Y-122700000D03*
X108400000Y-122700000D03*
X108800000Y-122700000D03*
X109200000Y-122700000D03*
X109600000Y-122700000D03*
X110000000Y-122700000D03*
X110400000Y-122700000D03*
D27*
X110800000Y-122700000D03*
D28*
X111200000Y-122300000D03*
D29*
X111200000Y-121900000D03*
X111200000Y-121500000D03*
X111200000Y-121100000D03*
D30*
X111200000Y-120700000D03*
D31*
X110800000Y-120300000D03*
D26*
X110400000Y-120300000D03*
X110000000Y-120300000D03*
X109600000Y-120300000D03*
X109200000Y-120300000D03*
X108800000Y-120300000D03*
X108400000Y-120300000D03*
X108000000Y-120300000D03*
X107600000Y-120300000D03*
D32*
X107200000Y-120300000D03*
D33*
X106800000Y-120700000D03*
D29*
X106800000Y-121100000D03*
X106800000Y-121500000D03*
X106800000Y-121900000D03*
D34*
X106800000Y-122300000D03*
D35*
X109000000Y-121500000D03*
%TD*%
D14*
%TO.C,R12*%
X120900000Y-162630000D03*
X120900000Y-161770000D03*
%TD*%
%TO.C,R4*%
X97800000Y-175130000D03*
X97800000Y-174270000D03*
%TD*%
D10*
%TO.C,C56*%
X115600000Y-182420000D03*
X115600000Y-181580000D03*
%TD*%
D36*
%TO.C,U9*%
X101250000Y-184150000D03*
X101900000Y-184150000D03*
X102550000Y-184150000D03*
X102550000Y-182250000D03*
X101900000Y-182250000D03*
X101250000Y-182250000D03*
%TD*%
D10*
%TO.C,C54*%
X101500000Y-161020000D03*
X101500000Y-160180000D03*
%TD*%
D21*
%TO.C,C2*%
X119000000Y-172200000D03*
X119000000Y-170200000D03*
%TD*%
D37*
%TO.C,R23*%
X108170000Y-150000000D03*
X109030000Y-150000000D03*
%TD*%
D10*
%TO.C,C14*%
X103500000Y-175920000D03*
X103500000Y-175080000D03*
%TD*%
%TO.C,C44*%
X97100000Y-149020000D03*
X97100000Y-148180000D03*
%TD*%
%TO.C,C36*%
X102800000Y-144780000D03*
X102800000Y-145620000D03*
%TD*%
%TO.C,C21*%
X103900000Y-178820000D03*
X103900000Y-177980000D03*
%TD*%
%TO.C,C35*%
X103450000Y-146980000D03*
X103450000Y-147820000D03*
%TD*%
D12*
%TO.C,C7*%
X119680000Y-160700000D03*
X120520000Y-160700000D03*
%TD*%
D14*
%TO.C,R18*%
X101500000Y-133930000D03*
X101500000Y-133070000D03*
%TD*%
D10*
%TO.C,C23*%
X117300000Y-179220000D03*
X117300000Y-178380000D03*
%TD*%
D37*
%TO.C,R10*%
X98570000Y-186500000D03*
X99430000Y-186500000D03*
%TD*%
D23*
%TO.C,U5*%
X119650000Y-183450000D03*
X119650000Y-182500000D03*
X119650000Y-181550000D03*
D24*
X117350000Y-181550000D03*
X117350000Y-183450000D03*
%TD*%
D10*
%TO.C,C48*%
X108000000Y-145920000D03*
X108000000Y-145080000D03*
%TD*%
%TO.C,C24*%
X97500000Y-187420000D03*
X97500000Y-186580000D03*
%TD*%
D38*
%TO.C,U1*%
X112620000Y-162200000D03*
X112620000Y-162600000D03*
X112620000Y-163000000D03*
X112620000Y-163400000D03*
X112620000Y-163800000D03*
X112620000Y-164200000D03*
X112620000Y-164600000D03*
X112620000Y-165000000D03*
X112620000Y-165400000D03*
X112620000Y-165800000D03*
X112620000Y-166200000D03*
X112620000Y-166600000D03*
X112620000Y-167000000D03*
X112620000Y-167400000D03*
X112620000Y-167800000D03*
D39*
X113400000Y-168570000D03*
X113800000Y-168570000D03*
X114200000Y-168570000D03*
X114600000Y-168570000D03*
X115000000Y-168570000D03*
X115400000Y-168570000D03*
X115800000Y-168570000D03*
X116200000Y-168570000D03*
X116600000Y-168570000D03*
X117000000Y-168570000D03*
X117400000Y-168570000D03*
X117800000Y-168570000D03*
X118200000Y-168570000D03*
X118600000Y-168570000D03*
X119000000Y-168570000D03*
D38*
X119780000Y-167800000D03*
X119780000Y-167400000D03*
X119780000Y-167000000D03*
X119780000Y-166600000D03*
X119780000Y-166200000D03*
X119780000Y-165800000D03*
X119780000Y-165400000D03*
X119780000Y-165000000D03*
X119780000Y-164600000D03*
X119780000Y-164200000D03*
X119780000Y-163800000D03*
X119780000Y-163400000D03*
X119780000Y-163000000D03*
X119780000Y-162600000D03*
X119780000Y-162200000D03*
D39*
X119000000Y-161430000D03*
X118600000Y-161430000D03*
X118200000Y-161430000D03*
X117800000Y-161430000D03*
X117400000Y-161430000D03*
X117000000Y-161430000D03*
X116600000Y-161430000D03*
X116200000Y-161430000D03*
X115800000Y-161430000D03*
X115400000Y-161430000D03*
X115000000Y-161430000D03*
X114600000Y-161430000D03*
X114200000Y-161430000D03*
X113800000Y-161430000D03*
X113400000Y-161430000D03*
D40*
X116200000Y-165000000D03*
%TD*%
D12*
%TO.C,C5*%
X114980000Y-174600000D03*
X115820000Y-174600000D03*
%TD*%
D10*
%TO.C,C9*%
X120900000Y-166020000D03*
X120900000Y-165180000D03*
%TD*%
D41*
%TO.C,Y1*%
X114650000Y-172050000D03*
X116850000Y-172050000D03*
X116850000Y-170350000D03*
X114650000Y-170350000D03*
%TD*%
D14*
%TO.C,R14*%
X118500000Y-122930000D03*
X118500000Y-122070000D03*
%TD*%
D10*
%TO.C,C30*%
X112600000Y-124720000D03*
X112600000Y-123880000D03*
%TD*%
%TO.C,C47*%
X106000000Y-145920000D03*
X106000000Y-145080000D03*
%TD*%
D12*
%TO.C,C6*%
X114480000Y-160100000D03*
X115320000Y-160100000D03*
%TD*%
D10*
%TO.C,C37*%
X99500000Y-136920000D03*
X99500000Y-136080000D03*
%TD*%
D14*
%TO.C,R25*%
X113800000Y-182430000D03*
X113800000Y-181570000D03*
%TD*%
%TO.C,R13*%
X114800000Y-158930000D03*
X114800000Y-158070000D03*
%TD*%
D22*
%TO.C,D1*%
X98750000Y-189500000D03*
X97250000Y-189500000D03*
%TD*%
D42*
%TO.C,U4*%
X106000000Y-140850000D03*
X106400000Y-140850000D03*
X106800000Y-140850000D03*
X107200000Y-140850000D03*
X107600000Y-140850000D03*
X108000000Y-140850000D03*
X108400000Y-140850000D03*
X108800000Y-140850000D03*
X109200000Y-140850000D03*
X109600000Y-140850000D03*
X110000000Y-140850000D03*
X110400000Y-140850000D03*
X110800000Y-140850000D03*
X111200000Y-140850000D03*
X111600000Y-140850000D03*
X112000000Y-140850000D03*
D43*
X112850000Y-140000000D03*
X112850000Y-139600000D03*
X112850000Y-139200000D03*
X112850000Y-138800000D03*
X112850000Y-138400000D03*
X112850000Y-138000000D03*
X112850000Y-137600000D03*
X112850000Y-137200000D03*
X112850000Y-136800000D03*
X112850000Y-136400000D03*
X112850000Y-136000000D03*
X112850000Y-135600000D03*
X112850000Y-135200000D03*
X112850000Y-134800000D03*
X112850000Y-134400000D03*
X112850000Y-134000000D03*
D42*
X112000000Y-133150000D03*
X111600000Y-133150000D03*
X111200000Y-133150000D03*
X110800000Y-133150000D03*
X110400000Y-133150000D03*
X110000000Y-133150000D03*
X109600000Y-133150000D03*
X109200000Y-133150000D03*
X108800000Y-133150000D03*
X108400000Y-133150000D03*
X108000000Y-133150000D03*
X107600000Y-133150000D03*
X107200000Y-133150000D03*
X106800000Y-133150000D03*
X106400000Y-133150000D03*
X106000000Y-133150000D03*
D43*
X105150000Y-134000000D03*
X105150000Y-134400000D03*
X105150000Y-134800000D03*
X105150000Y-135200000D03*
X105150000Y-135600000D03*
X105150000Y-136000000D03*
X105150000Y-136400000D03*
X105150000Y-136800000D03*
X105150000Y-137200000D03*
X105150000Y-137600000D03*
X105150000Y-138000000D03*
X105150000Y-138400000D03*
X105150000Y-138800000D03*
X105150000Y-139200000D03*
X105150000Y-139600000D03*
X105150000Y-140000000D03*
D44*
X109000000Y-137000000D03*
%TD*%
D18*
%TO.C,D15*%
X109400000Y-184400000D03*
X109900000Y-184400000D03*
D19*
X110400000Y-184400000D03*
D18*
X110900000Y-184400000D03*
X111400000Y-184400000D03*
X111400000Y-183600000D03*
X110900000Y-183600000D03*
D19*
X110400000Y-183600000D03*
D18*
X109900000Y-183600000D03*
X109400000Y-183600000D03*
%TD*%
D10*
%TO.C,C34*%
X106900000Y-116720000D03*
X106900000Y-115880000D03*
%TD*%
D14*
%TO.C,R1*%
X120900000Y-179830000D03*
X120900000Y-178970000D03*
%TD*%
%TO.C,R22*%
X119500000Y-133430000D03*
X119500000Y-132570000D03*
%TD*%
D45*
%TO.C,U10*%
X119450000Y-187650000D03*
X118500000Y-187650000D03*
X117550000Y-187650000D03*
X117550000Y-190350000D03*
X118500000Y-190350000D03*
X119450000Y-190350000D03*
%TD*%
D10*
%TO.C,C33*%
X105700000Y-116720000D03*
X105700000Y-115880000D03*
%TD*%
%TO.C,C28*%
X99500000Y-119920000D03*
X99500000Y-119080000D03*
%TD*%
D14*
%TO.C,R2*%
X97800000Y-169730000D03*
X97800000Y-168870000D03*
%TD*%
D12*
%TO.C,C20*%
X97080000Y-179500000D03*
X97920000Y-179500000D03*
%TD*%
D46*
%TO.C,D11*%
X102650000Y-188150000D03*
X103600000Y-188150000D03*
X104550000Y-188150000D03*
X104550000Y-185850000D03*
X103600000Y-185850000D03*
X102650000Y-185850000D03*
%TD*%
D14*
%TO.C,R9*%
X116300000Y-186430000D03*
X116300000Y-185570000D03*
%TD*%
D47*
%TO.C,R17*%
X99000000Y-134250000D03*
X99000000Y-132750000D03*
%TD*%
D48*
%TO.C,Y2*%
X99450000Y-144600000D03*
X99450000Y-142400000D03*
X97750000Y-142400000D03*
X97750000Y-144600000D03*
%TD*%
D11*
%TO.C,L2*%
X117500000Y-137500000D03*
X119500000Y-137500000D03*
%TD*%
D21*
%TO.C,C46*%
X118500000Y-151500000D03*
X118500000Y-149500000D03*
%TD*%
D10*
%TO.C,C27*%
X97500000Y-177220000D03*
X97500000Y-176380000D03*
%TD*%
%TO.C,C51*%
X115500000Y-132920000D03*
X115500000Y-132080000D03*
%TD*%
D36*
%TO.C,U8*%
X97750000Y-184150000D03*
X98400000Y-184150000D03*
X99050000Y-184150000D03*
X99050000Y-182250000D03*
X98400000Y-182250000D03*
X97750000Y-182250000D03*
%TD*%
D46*
%TO.C,D10*%
X102550000Y-116650000D03*
X103500000Y-116650000D03*
X104450000Y-116650000D03*
X104450000Y-114350000D03*
X103500000Y-114350000D03*
X102550000Y-114350000D03*
%TD*%
D10*
%TO.C,C13*%
X103500000Y-172920000D03*
X103500000Y-172080000D03*
%TD*%
D37*
%TO.C,R24*%
X108170000Y-152000000D03*
X109030000Y-152000000D03*
%TD*%
D14*
%TO.C,R3*%
X97800000Y-172430000D03*
X97800000Y-171570000D03*
%TD*%
D47*
%TO.C,R8*%
X116000000Y-190750000D03*
X116000000Y-189250000D03*
%TD*%
D10*
%TO.C,C43*%
X115500000Y-145920000D03*
X115500000Y-145080000D03*
%TD*%
D49*
%TO.C,SW1*%
X97500000Y-162150000D03*
X103500000Y-162150000D03*
X97500000Y-165850000D03*
X103500000Y-165850000D03*
%TD*%
D14*
%TO.C,R21*%
X118350000Y-133129999D03*
X118350000Y-132269999D03*
%TD*%
D18*
%TO.C,D13*%
X106000000Y-112600000D03*
X106500000Y-112600000D03*
D19*
X107000000Y-112600000D03*
D18*
X107500000Y-112600000D03*
X108000000Y-112600000D03*
X108000000Y-111800000D03*
X107500000Y-111800000D03*
D19*
X107000000Y-111800000D03*
D18*
X106500000Y-111800000D03*
X106000000Y-111800000D03*
%TD*%
D21*
%TO.C,C15*%
X98600000Y-140500000D03*
X98600000Y-138500000D03*
%TD*%
D12*
%TO.C,C55*%
X105480000Y-150200000D03*
X106320000Y-150200000D03*
%TD*%
D21*
%TO.C,C1*%
X113050000Y-172200000D03*
X113050000Y-170200000D03*
%TD*%
%TO.C,C40*%
X115500000Y-149200000D03*
X115500000Y-147200000D03*
%TD*%
D12*
%TO.C,C39*%
X118080000Y-143500000D03*
X118920000Y-143500000D03*
%TD*%
%TO.C,C11*%
X112980000Y-176900000D03*
X113820000Y-176900000D03*
%TD*%
D10*
%TO.C,C52*%
X115500000Y-130420000D03*
X115500000Y-129580000D03*
%TD*%
%TO.C,C49*%
X110000000Y-145920000D03*
X110000000Y-145080000D03*
%TD*%
D37*
%TO.C,R11*%
X100870000Y-186500000D03*
X101730000Y-186500000D03*
%TD*%
D12*
%TO.C,C8*%
X116980000Y-174600000D03*
X117820000Y-174600000D03*
%TD*%
D50*
%TO.C,U2*%
X100000000Y-177180000D03*
X100500000Y-177180000D03*
X101000000Y-177180000D03*
D51*
X101680000Y-176750000D03*
X101680000Y-176250000D03*
X101680000Y-175750000D03*
X101680000Y-175250000D03*
D50*
X101000000Y-174820000D03*
X100500000Y-174820000D03*
X100000000Y-174820000D03*
D51*
X99320000Y-175250000D03*
X99320000Y-175750000D03*
X99320000Y-176250000D03*
X99320000Y-176750000D03*
D52*
X100500000Y-176000000D03*
%TD*%
D47*
%TO.C,R19*%
X117500000Y-131250000D03*
X117500000Y-129750000D03*
%TD*%
D18*
%TO.C,D12*%
X110900000Y-112600000D03*
X111400000Y-112600000D03*
D19*
X111900000Y-112600000D03*
D18*
X112400000Y-112600000D03*
X112900000Y-112600000D03*
X112900000Y-111800000D03*
X112400000Y-111800000D03*
D19*
X111900000Y-111800000D03*
D18*
X111400000Y-111800000D03*
X110900000Y-111800000D03*
%TD*%
M02*
