M48
; DRILL file KiCad 10.0.4 date 2026-07-23T02:49:07
; FORMAT={-:-/ absolute / metric / decimal}
; #@! TF.CreationDate,2026-07-23T02:49:07-04:00
; #@! TF.GenerationSoftware,Kicad,Pcbnew,10.0.4
; #@! TF.FileFunction,Plated,1,4,PTH
FMAT,2
METRIC
; #@! TA.AperFunction,Plated,PTH,ViaDrill
T1C0.150
; #@! TA.AperFunction,Plated,PTH,ViaDrill
T2C0.200
; #@! TA.AperFunction,Plated,PTH,ComponentDrill
T3C0.500
; #@! TA.AperFunction,Plated,PTH,ComponentDrill
T4C0.600
%
G90
G05
T1
X99.38Y-177.25
X100.9Y-179.2
X101.2Y-186.95
X101.68Y-176.75
X102.95Y-178.5
X104.15Y-185.05
X104.3Y-136.35
X104.35Y-135.2
X104.35Y-135.85
X104.35Y-137.6
X104.75Y-139.6
X104.75Y-140.0
X106.6Y-142.2
X106.8Y-132.35
X108.0Y-131.6
X108.4Y-132.1
X108.8Y-132.4
X108.8Y-140.85
X109.62Y-190.75
X109.88Y-189.2
X110.3Y-123.5
X110.4Y-118.55
X110.8Y-124.3
X113.1Y-139.6
X114.15Y-137.2
X114.15Y-137.9
X115.4Y-168.85
X115.8Y-168.85
X117.0Y-169.45
X117.8Y-161.43
X118.35Y-138.7
X118.6Y-161.43
X118.6Y-169.1
X119.0Y-169.15
X120.0Y-164.6
X120.05Y-165.4
X120.05Y-166.2
X120.05Y-168.2
X120.5Y-164.35
X120.75Y-165.3
T2
X96.75Y-156.9
X97.102Y-133.014
X97.102Y-149.758
X97.102Y-193.101
X97.307Y-177.904
X97.5Y-103.044
X97.523Y-147.59
X97.773Y-137.34
X97.932Y-170.619
X98.067Y-185.022
X98.1Y-150.1
X98.471Y-187.239
X98.497Y-181.006
X98.541Y-110.536
X98.547Y-176.353
X98.643Y-194.452
X99.05Y-185.35
X99.103Y-173.924
X99.238Y-174.679
X99.579Y-133.458
X99.789Y-189.841
X100.035Y-110.862
X100.035Y-125.521
X100.247Y-195.57
X100.276Y-131.114
X100.35Y-190.7
X100.396Y-153.993
X100.396Y-161.485
X100.6Y-133.0
X101.189Y-147.999
X101.488Y-181.096
X101.7Y-155.75
X101.793Y-161.717
X101.879Y-185.772
X101.959Y-139.222
X102.0Y-190.9
X102.118Y-185.008
X102.2Y-155.25
X102.2Y-181.3
X102.538Y-174.679
X102.55Y-112.9
X102.55Y-118.1
X102.6Y-164.0
X102.6Y-175.25
X102.858Y-171.487
X103.079Y-161.255
X103.1Y-184.9
X103.1Y-186.85
X103.171Y-181.41
X103.3Y-176.593
X103.316Y-183.763
X103.379Y-191.785
X103.683Y-179.697
X103.699Y-131.806
X103.95Y-138.0
X104.102Y-171.808
X104.139Y-154.676
X104.184Y-134.496
X104.283Y-164.413
X104.4Y-139.0
X104.45Y-112.9
X104.45Y-118.1
X104.5Y-143.3
X104.5Y-150.996
X104.518Y-157.064
X104.654Y-125.521
X104.657Y-168.691
X104.669Y-131.465
X104.726Y-167.461
X104.9Y-185.0
X105.1Y-181.05
X105.219Y-152.177
X105.45Y-106.6
X105.5Y-188.5
X105.6Y-184.95
X105.85Y-134.169
X105.976Y-131.453
X106.0Y-110.9
X106.1Y-185.35
X106.325Y-132.338
X106.5Y-110.55
X106.62Y-191.5
X106.85Y-188.35
X106.9Y-104.3
X107.0Y-125.2
X107.099Y-131.335
X107.12Y-191.9
X107.323Y-152.177
X107.45Y-104.55
X107.506Y-102.985
X107.6Y-192.35
X107.721Y-140.05
X107.75Y-185.6
X107.837Y-151.239
X107.87Y-188.35
X107.88Y-103.9
X108.05Y-131.108
X108.487Y-175.091
X108.62Y-191.6
X108.63Y-108.35
X108.774Y-168.978
X108.774Y-176.082
X108.88Y-104.45
X108.88Y-188.45
X109.0Y-146.615
X109.209Y-191.522
X109.3Y-108.4
X109.37Y-188.1
X109.42Y-104.28
X109.7Y-115.2
X110.34Y-103.55
X110.4Y-176.082
X110.444Y-133.969
X110.48Y-130.5
X110.495Y-143.503
X110.62Y-191.5
X110.78Y-132.2
X110.9Y-185.35
X110.95Y-104.4
X111.12Y-191.9
X111.4Y-128.4
X111.5Y-104.2
X111.55Y-184.9
X111.881Y-187.446
X111.9Y-117.5
X111.9Y-119.9
X111.989Y-125.62
X111.989Y-194.876
X112.095Y-176.447
X112.121Y-179.392
X112.4Y-110.6
X112.418Y-140.599
X112.429Y-133.089
X112.6Y-181.7
X112.733Y-175.296
X112.9Y-111.0
X112.95Y-169.18
X113.05Y-117.6
X113.128Y-184.029
X113.205Y-158.7
X113.3Y-106.5
X113.373Y-145.019
X113.482Y-173.564
X113.523Y-136.792
X113.579Y-179.379
X113.6Y-131.9
X113.66Y-159.047
X113.838Y-163.041
X113.846Y-178.029
X113.895Y-183.88
X113.9Y-134.3
X114.007Y-163.743
X114.2Y-140.4
X114.254Y-187.665
X114.35Y-145.2
X114.55Y-132.6
X114.65Y-172.05
X114.742Y-129.966
X114.866Y-131.403
X114.899Y-189.337
X114.977Y-118.029
X115.051Y-162.708
X115.346Y-180.897
X115.5Y-133.6
X115.75Y-172.9
X115.757Y-162.658
X116.132Y-152.494
X116.132Y-159.681
X116.2Y-138.6
X116.226Y-173.658
X116.245Y-183.963
X116.45Y-133.6
X116.464Y-167.23
X116.6Y-160.35
X116.784Y-162.649
X116.85Y-170.35
X117.0Y-159.85
X117.15Y-135.4
X117.6Y-134.1
X117.678Y-162.8
X117.7Y-125.5
X117.85Y-173.5
X117.908Y-124.529
X117.966Y-121.026
X118.05Y-176.6
X118.15Y-185.9
X118.155Y-182.837
X118.22Y-165.444
X118.22Y-166.392
X118.238Y-167.57
X118.264Y-131.649
X118.3Y-181.75
X118.6Y-142.2
X118.7Y-182.3
X118.85Y-178.1
X119.0Y-166.913
X119.318Y-180.575
X119.333Y-131.593
X119.43Y-184.173
X119.455Y-161.361
X119.5Y-136.3
X119.526Y-134.329
X119.7Y-122.15
X119.9Y-160.45
X120.15Y-146.4
X120.4Y-175.4
X120.55Y-163.8
X120.6Y-167.75
X120.6Y-170.2
X120.699Y-118.029
X120.738Y-182.035
X121.15Y-123.8
X121.2Y-122.5
T3
X104.68Y-106.63G85X104.68Y-105.63
G05
X104.68Y-189.37G85X104.68Y-190.37
G05
X104.57Y-190.43G85X105.27Y-190.43
G05
X105.3Y-105.57G85X104.6Y-105.57
G05
X112.7Y-190.43G85X113.4Y-190.43
G05
X113.43Y-105.57G85X112.73Y-105.57
G05
X113.32Y-106.63G85X113.32Y-105.63
G05
X113.32Y-189.37G85X113.32Y-190.37
G05
T4
X104.68Y-102.16G85X104.68Y-100.86
G05
X104.68Y-193.84G85X104.68Y-195.14
G05
X113.32Y-102.16G85X113.32Y-100.86
G05
X113.32Y-193.84G85X113.32Y-195.14
G05
M30
