%TF.GenerationSoftware,KiCad,Pcbnew,10.0.4*%
%TF.CreationDate,2026-07-23T02:49:07-04:00*%
%TF.ProjectId,dongle-pro,646f6e67-6c65-42d7-9072-6f2e6b696361,rev?*%
%TF.SameCoordinates,Original*%
%TF.FileFunction,Copper,L4,Bot*%
%TF.FilePolarity,Positive*%
%FSLAX46Y46*%
G04 Gerber Fmt 4.6, Leading zero omitted, Abs format (unit mm)*
G04 Created by KiCad (PCBNEW 10.0.4) date 2026-07-23 02:49:07*
%MOMM*%
%LPD*%
G01*
G04 APERTURE LIST*
%TA.AperFunction,ComponentPad*%
%ADD10O,1.000000X2.300000*%
%TD*%
%TA.AperFunction,ComponentPad*%
%ADD11O,1.000000X1.950000*%
%TD*%
%TA.AperFunction,ComponentPad*%
%ADD12O,1.700000X1.000000*%
%TD*%
%TA.AperFunction,ViaPad*%
%ADD13C,0.450000*%
%TD*%
%TA.AperFunction,ViaPad*%
%ADD14C,0.300000*%
%TD*%
%TA.AperFunction,Conductor*%
%ADD15C,0.120000*%
%TD*%
%TA.AperFunction,Conductor*%
%ADD16C,0.300000*%
%TD*%
%TA.AperFunction,Conductor*%
%ADD17C,0.211000*%
%TD*%
G04 APERTURE END LIST*
D10*
%TO.P,J1,3*%
%TO.N,GND*%
X104680000Y-101510000D03*
%TO.P,J1,4*%
X113320000Y-101510000D03*
D11*
%TO.P,J1,25*%
X113320000Y-106130000D03*
D12*
X113080000Y-105570000D03*
X104950000Y-105570000D03*
D11*
X104680000Y-106130000D03*
%TD*%
D10*
%TO.P,J2,3*%
%TO.N,GND*%
X113320000Y-194490000D03*
%TO.P,J2,4*%
X104680000Y-194490000D03*
D11*
%TO.P,J2,25*%
X104680000Y-189870000D03*
D12*
X104920000Y-190430000D03*
X113050000Y-190430000D03*
D11*
X113320000Y-189870000D03*
%TD*%
D13*
%TO.N,HUB_1V2*%
X117600000Y-134100000D03*
D14*
X106600000Y-142200000D03*
D13*
X113900000Y-134300000D03*
X105850000Y-134169000D03*
X119500000Y-136300000D03*
X116450000Y-133600000D03*
X119700000Y-122150000D03*
D14*
X104350000Y-137600000D03*
D13*
%TO.N,GND*%
X104500000Y-143300000D03*
D14*
X120750000Y-165300000D03*
D13*
X105976200Y-131452700D03*
X113300000Y-106500000D03*
X119455200Y-161361000D03*
X113373300Y-145018900D03*
X114742200Y-129966199D03*
X99789200Y-189841200D03*
X115756600Y-162658100D03*
X111400000Y-128400000D03*
X112733100Y-175295500D03*
X103378600Y-191785300D03*
X116132300Y-159681200D03*
X110443900Y-133969000D03*
X110400000Y-176082100D03*
X105450000Y-106600000D03*
X109000000Y-146614700D03*
D14*
X118600000Y-161430000D03*
D13*
X119333200Y-131592899D03*
D14*
X113100000Y-139600000D03*
D13*
%TO.N,VREG_LX*%
X116783800Y-162649500D03*
X116132300Y-152494200D03*
X115051000Y-162707800D03*
%TO.N,+1V1*%
X112120900Y-179391600D03*
X98642600Y-194452200D03*
X113838200Y-163041500D03*
X119900000Y-160450000D03*
D14*
X120000000Y-164600000D03*
D13*
X112950000Y-169180000D03*
X113481700Y-173563700D03*
X114899200Y-189337400D03*
%TO.N,TGT_VBUS*%
X107600000Y-192350000D03*
X107870000Y-188350000D03*
X103100000Y-186850000D03*
%TO.N,+5V*%
X97500000Y-103043700D03*
X107880000Y-103900000D03*
X119429700Y-184173100D03*
X113895100Y-183880400D03*
X118154600Y-182837400D03*
X99579000Y-133458000D03*
X121150000Y-123800000D03*
X100035500Y-125521200D03*
X118600000Y-142200000D03*
X120400000Y-175400000D03*
X110340000Y-103550000D03*
%TO.N,HOST_CC1*%
X109700000Y-115200000D03*
X107000000Y-125200000D03*
%TO.N,HOST_D_P*%
X104450000Y-118100000D03*
X110480000Y-130500000D03*
X108880000Y-104450000D03*
X109300000Y-108400000D03*
X104450000Y-112900000D03*
%TO.N,HOST_D_N*%
X108630000Y-108350000D03*
X109420000Y-104280000D03*
X102550000Y-118100000D03*
X102550000Y-112900000D03*
X110780000Y-132199999D03*
%TO.N,HOST_TX2_P*%
X106900000Y-104300000D03*
X106000000Y-110900000D03*
%TO.N,HOST_TX2_N*%
X106500000Y-110550000D03*
X107450000Y-104550000D03*
%TO.N,HOST_CC2*%
X107506500Y-102984700D03*
X104653900Y-125521200D03*
%TO.N,HOST_RX1_N*%
X110950000Y-104400000D03*
X112400000Y-110600000D03*
%TO.N,HOST_RX1_P*%
X112900000Y-111000000D03*
X111900000Y-119900000D03*
X111500000Y-104200000D03*
X113050000Y-117600000D03*
%TO.N,HUB_3V3*%
X113600000Y-131900000D03*
D14*
X108800000Y-140850000D03*
D13*
X107721500Y-140050000D03*
X114550000Y-132600000D03*
D14*
X104300000Y-136350000D03*
X108000000Y-131600000D03*
D13*
X114350000Y-145200000D03*
X121200000Y-122500000D03*
X97102100Y-149758200D03*
X117700000Y-125500000D03*
D14*
%TO.N,FUSB_INT*%
X118600000Y-169100000D03*
D13*
X105100000Y-181050000D03*
D14*
X100900000Y-179200000D03*
D13*
%TO.N,HUB_VBUS_SNS*%
X118263900Y-131649499D03*
X113523300Y-136792400D03*
%TO.N,MUX_OE*%
X107837500Y-151239100D03*
X105218900Y-152177500D03*
%TO.N,+3V3*%
X116463600Y-167230200D03*
X98067100Y-185021900D03*
X114253600Y-187664600D03*
X104500500Y-150995700D03*
D14*
X119000000Y-169150000D03*
D13*
X104657500Y-168691200D03*
X117908200Y-124529500D03*
X98547100Y-176353000D03*
X119000000Y-166913200D03*
X104139300Y-154676000D03*
X116245200Y-183962700D03*
D14*
X120500000Y-164350000D03*
D13*
X112094600Y-176447100D03*
X111989100Y-125620200D03*
X102118400Y-185008300D03*
X100035500Y-110862000D03*
X97307200Y-177904500D03*
X101793200Y-161716700D03*
D14*
X102950000Y-178500000D03*
D13*
X104283300Y-164413200D03*
D14*
X117800000Y-161430000D03*
D13*
X103300100Y-176593300D03*
D14*
X101680000Y-176750000D03*
D13*
%TO.N,HUB_DRX_P*%
X104400000Y-139000000D03*
X102200000Y-155250000D03*
%TO.N,HUB_DRX_N*%
X103950000Y-138000000D03*
X101700000Y-155750000D03*
%TO.N,SS_SEL*%
X117678000Y-162799700D03*
X107323200Y-152177500D03*
X104518100Y-157064500D03*
%TO.N,TGT_RX1_N*%
X105600000Y-184950000D03*
X107120000Y-191900000D03*
%TO.N,TGT_RX1_P*%
X106100000Y-185350000D03*
X106620000Y-191500000D03*
%TO.N,TGT_TX1_P*%
X106850000Y-188350000D03*
X107750000Y-185600000D03*
%TO.N,TGT_TX2_N*%
X110900000Y-185350000D03*
X110620000Y-191500000D03*
%TO.N,TGT_TX2_P*%
X111550000Y-184900000D03*
X111120000Y-191900000D03*
%TO.N,HUB_XO*%
X107098700Y-131335100D03*
X104668900Y-131464800D03*
X97102100Y-133013700D03*
X103698900Y-131806000D03*
%TO.N,TGT_CC1*%
X108486700Y-175091400D03*
X99103300Y-173923800D03*
%TO.N,TGT_D_P*%
X103100000Y-184900000D03*
D14*
X104750000Y-139600000D03*
D13*
X102000000Y-190900000D03*
X108880000Y-188450000D03*
%TO.N,TGT_D_N*%
X105500000Y-188500000D03*
X108620000Y-191600000D03*
X104900000Y-185000000D03*
X109370000Y-188100000D03*
D14*
X104750000Y-140000000D03*
D13*
%TO.N,TGT_SBU1*%
X100350000Y-190700000D03*
D14*
X109880000Y-189200000D03*
%TO.N,TGT_CC2*%
X99380000Y-177250000D03*
X109620000Y-190750000D03*
D13*
%TO.N,TGT_SBU2*%
X103316300Y-183762900D03*
X109209200Y-191521800D03*
X103171300Y-181410400D03*
%TO.N,SHIFT_EN*%
X113579500Y-179379200D03*
X118220000Y-165444100D03*
%TO.N,+1V2*%
X98541300Y-110536200D03*
X101488100Y-181095800D03*
X100247000Y-195569600D03*
X103682900Y-179697000D03*
X101878700Y-185771800D03*
X101188600Y-147998700D03*
X111881300Y-187445600D03*
X98470600Y-187239500D03*
X111989100Y-194875700D03*
X97523200Y-147589700D03*
%TO.N,HUB_RTERM*%
X101958600Y-139221800D03*
X100276300Y-131114399D03*
X110494900Y-143503200D03*
X112418100Y-140599000D03*
D14*
%TO.N,M1_TX1_P*%
X110400000Y-118550000D03*
D13*
X111900000Y-117500000D03*
%TO.N,VBUS_DET*%
X117965900Y-121025700D03*
X108050000Y-131108000D03*
D14*
%TO.N,HUB_URX_P*%
X110300000Y-123500000D03*
X108400000Y-132100000D03*
%TO.N,HUB_URX_N*%
X110800000Y-124300000D03*
X108800000Y-132400000D03*
D13*
%TO.N,LDO_EN*%
X119317900Y-180574700D03*
X115346000Y-180896700D03*
D14*
%TO.N,SBU2_UART*%
X120050000Y-166200000D03*
D13*
X118050000Y-176600000D03*
D14*
X104150000Y-185050000D03*
D13*
X118300000Y-181750000D03*
%TO.N,SBU2_DIR*%
X112600000Y-181700000D03*
X102200000Y-181300000D03*
X120600000Y-167750000D03*
%TO.N,XOUT*%
X116226100Y-173658000D03*
X116850000Y-170350000D03*
D14*
X115800000Y-168850000D03*
%TO.N,HUB_RSTn*%
X114150000Y-137200000D03*
D13*
X100600000Y-133000000D03*
X120698600Y-118028700D03*
X120150000Y-146400000D03*
X114977500Y-118028700D03*
X120550000Y-163800000D03*
X117150000Y-135400000D03*
%TO.N,RUN*%
X100396300Y-153992700D03*
X97102100Y-193101500D03*
X113845900Y-178029200D03*
X120738100Y-182035000D03*
X113127600Y-184029400D03*
X113660400Y-159046700D03*
X114006900Y-163743200D03*
%TO.N,XIN*%
X114650000Y-172050000D03*
D14*
X115400000Y-168850000D03*
D13*
%TO.N,SWCLK*%
X115750000Y-172900000D03*
X98100000Y-150100000D03*
D14*
%TO.N,SWDIO*%
X117000000Y-169450000D03*
D13*
X96750000Y-156900000D03*
%TO.N,I2C_SDA*%
X102858400Y-171486700D03*
X117850000Y-173500000D03*
X97932100Y-170619200D03*
X102600000Y-175250000D03*
%TO.N,I2C_SCL*%
X118238000Y-167570200D03*
X102537600Y-174678700D03*
X99237700Y-174678700D03*
X108774100Y-176082100D03*
X108774100Y-168977700D03*
%TO.N,TGT_VBUS_EN*%
X118700000Y-182300000D03*
X118150000Y-185900000D03*
D14*
X120050000Y-168200000D03*
D13*
X118850000Y-178100000D03*
%TO.N,SBU1_DIR*%
X98497200Y-181006200D03*
X104102000Y-171808000D03*
X104726100Y-167461000D03*
X118220000Y-166392500D03*
%TO.N,SBU1_UART*%
X120600000Y-170200000D03*
X99050000Y-185350000D03*
D14*
%TO.N,LED_STAT*%
X120050000Y-165400000D03*
D13*
X102600000Y-164000000D03*
D14*
X101200000Y-186950000D03*
D13*
%TO.N,MCU_D_N*%
X117000000Y-159850000D03*
D14*
X104350000Y-135850000D03*
%TO.N,MCU_D_P*%
X104350000Y-135200000D03*
D13*
X116600000Y-160350000D03*
%TO.N,BOOT_SW*%
X103078900Y-161255500D03*
X100396300Y-161485200D03*
X113204800Y-158699800D03*
%TO.N,HUB_SW*%
X114200000Y-140400000D03*
X116200000Y-138600000D03*
D14*
%TO.N,HUB_FNB*%
X118350000Y-138700000D03*
X114150000Y-137900000D03*
D13*
%TO.N,HUB_FNC*%
X112429400Y-133088699D03*
X119526300Y-134328900D03*
%TO.N,HUB_XI*%
X104184100Y-134495700D03*
X97773300Y-137339700D03*
X106325000Y-132338300D03*
%TO.N,HUB_AV12*%
X115500000Y-133600000D03*
X114866000Y-131403400D03*
D14*
X106800000Y-132350000D03*
%TD*%
%TO.N,HUB_1V2*%
D15*
X117600000Y-134100000D02*
X119000000Y-135500000D01*
X119000000Y-135500000D02*
X119500000Y-136300000D01*
%TO.N,GND*%
X116132300Y-159681200D02*
X115756600Y-160056900D01*
X113320000Y-105330000D02*
X113080000Y-105570000D01*
X113320000Y-101510000D02*
X113320000Y-105330000D01*
X113050000Y-192918300D02*
X113320000Y-193188300D01*
X113320000Y-194490000D02*
X113320000Y-193188300D01*
X113100000Y-144745600D02*
X113373300Y-145018900D01*
X113100000Y-139600000D02*
X113100000Y-144745600D01*
X113050000Y-190430000D02*
X113050000Y-192918300D01*
X115756600Y-160056900D02*
X115756600Y-162658100D01*
%TO.N,VREG_LX*%
D16*
X115051000Y-153575500D02*
X115051000Y-162707800D01*
X116132300Y-152494200D02*
X115051000Y-153575500D01*
%TO.N,+1V1*%
X113379200Y-178133300D02*
X112120900Y-179391600D01*
X113379200Y-173666200D02*
X113379200Y-178133300D01*
X113481700Y-173563700D02*
X113481700Y-169711700D01*
X112950000Y-169180000D02*
X112950000Y-163929700D01*
X112950000Y-163929700D02*
X113838200Y-163041500D01*
X113481700Y-169711700D02*
X112950000Y-169180000D01*
X113481700Y-173563700D02*
X113379200Y-173666200D01*
%TO.N,+5V*%
X100035500Y-125521200D02*
X99579000Y-125977700D01*
X119429700Y-184173100D02*
X119429700Y-181122900D01*
X121150000Y-123800000D02*
X121150000Y-144500000D01*
X120400000Y-180152600D02*
X120400000Y-175400000D01*
X99579000Y-125977700D02*
X99579000Y-133458000D01*
X118600000Y-142200000D02*
X121150000Y-144500000D01*
X121150000Y-144500000D02*
X121150000Y-173500000D01*
X119429700Y-181122900D02*
X120400000Y-180152600D01*
X121150000Y-173500000D02*
X120400000Y-175400000D01*
%TO.N,HOST_D_P*%
D15*
X109300000Y-108400000D02*
X107200000Y-111600000D01*
X107200000Y-111600000D02*
X104450000Y-112900000D01*
X104450000Y-118100000D02*
X110480000Y-130500000D01*
%TO.N,HOST_D_N*%
X108630000Y-108350000D02*
X102550000Y-112900000D01*
X109420000Y-104280000D02*
X108630000Y-108350000D01*
X102550000Y-112900000D02*
X102550000Y-118100000D01*
%TO.N,HUB_3V3*%
X114350000Y-132199999D02*
X114550000Y-132600000D01*
X108000000Y-131600000D02*
X105000000Y-132199999D01*
X113900000Y-131300000D02*
X114350000Y-132199999D01*
X113600000Y-131900000D02*
X114350000Y-132199999D01*
X108000000Y-131600000D02*
X113900000Y-131300000D01*
X114350000Y-132199999D02*
X114550000Y-132600000D01*
X121200000Y-122500000D02*
X117700000Y-125500000D01*
X103750000Y-136100000D02*
X104300000Y-136350000D01*
X103700000Y-134500000D02*
X103750000Y-136100000D01*
X105000000Y-132199999D02*
X103700000Y-134500000D01*
%TO.N,FUSB_INT*%
X103200000Y-180000000D02*
X100900000Y-179200000D01*
X105100000Y-181050000D02*
X103200000Y-180000000D01*
%TO.N,+3V3*%
D16*
X104259400Y-164437100D02*
X104259400Y-168293100D01*
X118844100Y-134306600D02*
X119982900Y-135445400D01*
D15*
X118600000Y-167000000D02*
X118600000Y-165905000D01*
D16*
X104259400Y-168293100D02*
X104657500Y-168691200D01*
X104283300Y-164206800D02*
X104283300Y-164413200D01*
D15*
X118600000Y-164810000D02*
X118600000Y-163500000D01*
X102500000Y-177900000D02*
X102950000Y-178500000D01*
X119000000Y-166913200D02*
X119000000Y-169150000D01*
D16*
X104657500Y-168691200D02*
X104657500Y-175235900D01*
X117200200Y-129792399D02*
X118844100Y-131436299D01*
D15*
X119000000Y-166500000D02*
X119000000Y-169150000D01*
D16*
X98067100Y-185021900D02*
X97307200Y-184262000D01*
X101793200Y-161716700D02*
X104283300Y-164206800D01*
X116463600Y-167230200D02*
X117783000Y-165910800D01*
D15*
X118600000Y-163500000D02*
X120500000Y-164350000D01*
D16*
X117800000Y-142340100D02*
X117800000Y-161430000D01*
X118844100Y-131436299D02*
X118844100Y-134306600D01*
X104500500Y-150995700D02*
X104139300Y-151356900D01*
D15*
X118600000Y-167000000D02*
X118600000Y-163500000D01*
X117800000Y-161430000D02*
X118600000Y-164810000D01*
X119000000Y-166500000D02*
X119000000Y-166913200D01*
D16*
X117908200Y-124529500D02*
X117200200Y-125237500D01*
D15*
X118600000Y-165905000D02*
X118600000Y-164810000D01*
D16*
X117783000Y-165910800D02*
X118594200Y-165910800D01*
X118594200Y-165910800D02*
X118600000Y-165905000D01*
D15*
X119000000Y-169150000D02*
X118600000Y-167000000D01*
D16*
X104139300Y-151356900D02*
X104139300Y-154676000D01*
X119982900Y-140157200D02*
X117800000Y-142340100D01*
D15*
X118600000Y-164810000D02*
X119000000Y-166500000D01*
D16*
X119982900Y-135445400D02*
X119982900Y-140157200D01*
X104283300Y-164413200D02*
X104259400Y-164437100D01*
X97307200Y-184262000D02*
X97307200Y-177904500D01*
D15*
X117800000Y-161430000D02*
X119000000Y-166500000D01*
X101680000Y-176750000D02*
X102500000Y-177900000D01*
D16*
X117200200Y-125237500D02*
X117200200Y-129792399D01*
X104657500Y-175235900D02*
X103300100Y-176593300D01*
%TO.N,TGT_RX1_N*%
D17*
X105600000Y-186200000D02*
X106300000Y-189600000D01*
X106300000Y-189600000D02*
X107250000Y-190900000D01*
X107250000Y-190900000D02*
X107120000Y-191900000D01*
X105600000Y-184950000D02*
X105600000Y-186200000D01*
%TO.N,TGT_TX1_P*%
X107750000Y-185600000D02*
X106850000Y-188350000D01*
%TO.N,HUB_XO*%
D15*
X104668900Y-131464800D02*
X104327700Y-131806000D01*
X104327700Y-131806000D02*
X103698900Y-131806000D01*
%TO.N,TGT_D_P*%
X102000000Y-190900000D02*
X99700000Y-188300000D01*
X99700000Y-139600000D02*
X104750000Y-139600000D01*
X99700000Y-188300000D02*
X99700000Y-139600000D01*
%TO.N,TGT_D_N*%
X105300000Y-183000000D02*
X104900000Y-185000000D01*
X109370000Y-188100000D02*
X108750000Y-183100000D01*
X105500000Y-188500000D02*
X99950000Y-187000000D01*
X99950000Y-140000000D02*
X104750000Y-140000000D01*
X108750000Y-183100000D02*
X105300000Y-183000000D01*
X108620000Y-191600000D02*
X109370000Y-188100000D01*
X99950000Y-187000000D02*
X99950000Y-140000000D01*
%TO.N,TGT_SBU1*%
X110100000Y-192000000D02*
X109000000Y-192850000D01*
X109880000Y-189200000D02*
X110100000Y-192000000D01*
X99900000Y-192150000D02*
X100350000Y-190700000D01*
X109000000Y-192850000D02*
X99900000Y-192150000D01*
%TO.N,TGT_SBU2*%
X103171300Y-183617900D02*
X103171300Y-181410400D01*
X103316300Y-183762900D02*
X103171300Y-183617900D01*
%TO.N,SHIFT_EN*%
X117680900Y-165444100D02*
X118220000Y-165444100D01*
X114222600Y-178736100D02*
X114222600Y-168902400D01*
X113579500Y-179379200D02*
X114222600Y-178736100D01*
X114222600Y-168902400D02*
X117680900Y-165444100D01*
%TO.N,+1V2*%
D16*
X100247000Y-192993200D02*
X100247000Y-195569600D01*
X101488100Y-185381200D02*
X101878700Y-185771800D01*
X111686100Y-187640800D02*
X111881300Y-187445600D01*
X98541300Y-146571600D02*
X97523200Y-147589700D01*
X98541300Y-110536200D02*
X98541300Y-146571600D01*
X105205300Y-178174600D02*
X105205300Y-160010700D01*
X98470600Y-191216800D02*
X100247000Y-192993200D01*
X101488100Y-181095800D02*
X101488100Y-185381200D01*
X101188600Y-155994000D02*
X101188600Y-147998700D01*
X103682900Y-179697000D02*
X105205300Y-178174600D01*
X111686100Y-194572700D02*
X111686100Y-187640800D01*
X98470600Y-187239500D02*
X98470600Y-191216800D01*
X105205300Y-160010700D02*
X101188600Y-155994000D01*
X111989100Y-194875700D02*
X111686100Y-194572700D01*
%TO.N,HUB_RTERM*%
D15*
X110494900Y-143503200D02*
X112418100Y-141580000D01*
X100195700Y-137458900D02*
X101958600Y-139221800D01*
X112418100Y-141580000D02*
X112418100Y-140599000D01*
X100276300Y-131114399D02*
X100195700Y-131195000D01*
X100195700Y-131195000D02*
X100195700Y-137458900D01*
%TO.N,SBU2_UART*%
X104300000Y-184000000D02*
X104150000Y-185050000D01*
X105000000Y-182300000D02*
X104500000Y-182900000D01*
X118300000Y-181750000D02*
X116000000Y-183000000D01*
X104500000Y-182900000D02*
X104300000Y-184000000D01*
X116000000Y-183000000D02*
X114000000Y-182600000D01*
X110500000Y-182300000D02*
X105000000Y-182300000D01*
X114000000Y-182600000D02*
X110500000Y-182300000D01*
%TO.N,SBU2_DIR*%
X119750000Y-178200000D02*
X113000000Y-181500000D01*
X120000000Y-170000000D02*
X119750000Y-178200000D01*
X120600000Y-167750000D02*
X120000000Y-170000000D01*
X113000000Y-181500000D02*
X112600000Y-181700000D01*
%TO.N,XOUT*%
X116850000Y-170350000D02*
X116850000Y-173034100D01*
X116850000Y-173034100D02*
X116226100Y-173658000D01*
%TO.N,HUB_RSTn*%
X103850000Y-117900000D02*
X103900000Y-118500000D01*
X105300000Y-118600000D02*
X104600000Y-117500000D01*
X101500000Y-130400000D02*
X100600000Y-133000000D01*
X120350000Y-152000000D02*
X120150000Y-146400000D01*
X105600000Y-119800000D02*
X105300000Y-118600000D01*
X120550000Y-163800000D02*
X120350000Y-152000000D01*
X103900000Y-118500000D02*
X104000000Y-127000000D01*
X113000000Y-120006200D02*
X113000000Y-127200000D01*
X116900000Y-134300000D02*
X116900000Y-131600000D01*
X114977500Y-118028700D02*
X113000000Y-120006200D01*
X104000000Y-127000000D02*
X104750000Y-129449999D01*
X104600000Y-117500000D02*
X103850000Y-117900000D01*
X117000000Y-134500000D02*
X116900000Y-134300000D01*
X116900000Y-131600000D02*
X114550000Y-128900000D01*
X104750000Y-129449999D02*
X101500000Y-130400000D01*
X117150000Y-135400000D02*
X117000000Y-134500000D01*
X109000000Y-126000000D02*
X105600000Y-119800000D01*
X114550000Y-128900000D02*
X113000000Y-127200000D01*
X113000000Y-127200000D02*
X109000000Y-126000000D01*
%TO.N,RUN*%
X114006900Y-177868200D02*
X114006900Y-163743200D01*
X114006900Y-163743200D02*
X114215000Y-163535100D01*
X114215000Y-159601300D02*
X113660400Y-159046700D01*
X114215000Y-163535100D02*
X114215000Y-159601300D01*
X113845900Y-178029200D02*
X114006900Y-177868200D01*
%TO.N,I2C_SDA*%
X102600000Y-175250000D02*
X102914300Y-174935700D01*
X102914300Y-171542600D02*
X102858400Y-171486700D01*
X102914300Y-174935700D02*
X102914300Y-171542600D01*
%TO.N,I2C_SCL*%
X108774100Y-176082100D02*
X108863400Y-175992800D01*
X108774100Y-176082100D02*
X108863400Y-175992800D01*
X108863400Y-169067000D02*
X108774100Y-168977700D01*
X108863400Y-175992800D02*
X108774100Y-176082100D01*
X108774100Y-168977700D02*
X108863400Y-169067000D01*
X108863400Y-169067000D02*
X108774100Y-168977700D01*
X108863400Y-175992800D02*
X108863400Y-169067000D01*
%TO.N,TGT_VBUS_EN*%
X118200000Y-185600000D02*
X118150000Y-185900000D01*
X120050000Y-168200000D02*
X118850000Y-170200000D01*
X118850000Y-177900000D02*
X118850000Y-178100000D01*
X118850000Y-170200000D02*
X118850000Y-177900000D01*
X118700000Y-182300000D02*
X118200000Y-185600000D01*
X118850000Y-170200000D02*
X118850000Y-178100000D01*
%TO.N,LED_STAT*%
X102600000Y-164000000D02*
X101500000Y-170000000D01*
X101200000Y-186000000D02*
X101200000Y-186950000D01*
X101500000Y-170000000D02*
X100600000Y-177000000D01*
X100600000Y-177000000D02*
X100500000Y-184000000D01*
X100500000Y-184000000D02*
X101200000Y-186000000D01*
%TO.N,MCU_D_P*%
X104350000Y-135200000D02*
X115900000Y-136300000D01*
X116600000Y-137300000D02*
X116600000Y-160350000D01*
X115900000Y-136300000D02*
X116600000Y-137300000D01*
%TO.N,BOOT_SW*%
X100396300Y-161485200D02*
X100626000Y-161255500D01*
X100626000Y-161255500D02*
X103078900Y-161255500D01*
%TO.N,HUB_SW*%
X116000000Y-140250000D02*
X116200000Y-138600000D01*
X114200000Y-140400000D02*
X116000000Y-140250000D01*
%TO.N,HUB_XI*%
X106325000Y-132338300D02*
X104184100Y-134479200D01*
X104184100Y-134479200D02*
X104184100Y-134495700D01*
%TO.N,HUB_AV12*%
X112800000Y-133500000D02*
X114657600Y-133568800D01*
D16*
X114657600Y-133568800D02*
X115017800Y-133208599D01*
D15*
X114657600Y-133568800D02*
X115500000Y-133600000D01*
D16*
X115017800Y-131555200D02*
X114866000Y-131403400D01*
D15*
X107600000Y-133400000D02*
X112800000Y-133500000D01*
X106800000Y-132350000D02*
X107600000Y-133400000D01*
D16*
X115017800Y-133208599D02*
X115017800Y-131555200D01*
D15*
X112800000Y-133500000D02*
X115500000Y-133600000D01*
%TD*%
%TA.AperFunction,Conductor*%
%TO.N,GND*%
G36*
X121642539Y-99320185D02*
G01*
X121688294Y-99372989D01*
X121699500Y-99424500D01*
X121699500Y-122027679D01*
X121679815Y-122094718D01*
X121627011Y-122140473D01*
X121557853Y-122150417D01*
X121499080Y-122123576D01*
X121498409Y-122124451D01*
X121494607Y-122121533D01*
X121494297Y-122121392D01*
X121493708Y-122120843D01*
X121491965Y-122119506D01*
X121491964Y-122119505D01*
X121383536Y-122056905D01*
X121383537Y-122056905D01*
X121343224Y-122046103D01*
X121262601Y-122024500D01*
X121137399Y-122024500D01*
X121056775Y-122046103D01*
X121016463Y-122056905D01*
X120908037Y-122119504D01*
X120908034Y-122119506D01*
X120819506Y-122208034D01*
X120819504Y-122208037D01*
X120756905Y-122316463D01*
X120724500Y-122437400D01*
X120724500Y-122441586D01*
X120723500Y-122444989D01*
X120723439Y-122445458D01*
X120723365Y-122445448D01*
X120704815Y-122508625D01*
X120681198Y-122535734D01*
X118536856Y-124373740D01*
X118473145Y-124402423D01*
X118404041Y-124392108D01*
X118351484Y-124346070D01*
X118348770Y-124341591D01*
X118288695Y-124237536D01*
X118200164Y-124149005D01*
X118091736Y-124086405D01*
X118091737Y-124086405D01*
X118051424Y-124075603D01*
X117970801Y-124054000D01*
X117845599Y-124054000D01*
X117764975Y-124075603D01*
X117724663Y-124086405D01*
X117616237Y-124149004D01*
X117616234Y-124149006D01*
X117527706Y-124237534D01*
X117527704Y-124237537D01*
X117465105Y-124345963D01*
X117465103Y-124345968D01*
X117451654Y-124396159D01*
X117419561Y-124451744D01*
X116879722Y-124991584D01*
X116879718Y-124991590D01*
X116826992Y-125082912D01*
X116826993Y-125082913D01*
X116799700Y-125184773D01*
X116799700Y-129845125D01*
X116826993Y-129946988D01*
X116851509Y-129989449D01*
X116879720Y-130038312D01*
X117460411Y-130619003D01*
X117953493Y-131112084D01*
X117986978Y-131173407D01*
X117981994Y-131243099D01*
X117953494Y-131287446D01*
X117883403Y-131357536D01*
X117820805Y-131465962D01*
X117811945Y-131499028D01*
X117788400Y-131586898D01*
X117788400Y-131712100D01*
X117820805Y-131833035D01*
X117883405Y-131941463D01*
X117971936Y-132029994D01*
X118080364Y-132092594D01*
X118201299Y-132124999D01*
X118201301Y-132124999D01*
X118319600Y-132124999D01*
X118386639Y-132144684D01*
X118432394Y-132197488D01*
X118443600Y-132248999D01*
X118443600Y-134205124D01*
X118437361Y-134226369D01*
X118435782Y-134248458D01*
X118427709Y-134259241D01*
X118423915Y-134272163D01*
X118407181Y-134286662D01*
X118393910Y-134304391D01*
X118381289Y-134309098D01*
X118371111Y-134317918D01*
X118349193Y-134321069D01*
X118328446Y-134328808D01*
X118315285Y-134325945D01*
X118301953Y-134327862D01*
X118281809Y-134318662D01*
X118260173Y-134313956D01*
X118242447Y-134300687D01*
X118238397Y-134298837D01*
X118231919Y-134292805D01*
X118111819Y-134172705D01*
X118078334Y-134111382D01*
X118075500Y-134085024D01*
X118075500Y-134037400D01*
X118064257Y-133995442D01*
X118043095Y-133916464D01*
X117980495Y-133808036D01*
X117891964Y-133719505D01*
X117783536Y-133656905D01*
X117783537Y-133656905D01*
X117726179Y-133641536D01*
X117662601Y-133624500D01*
X117537399Y-133624500D01*
X117476931Y-133640702D01*
X117416462Y-133656905D01*
X117416457Y-133656907D01*
X117396496Y-133668432D01*
X117328596Y-133684902D01*
X117262570Y-133662048D01*
X117219381Y-133607125D01*
X117210500Y-133561043D01*
X117210500Y-131610740D01*
X117212583Y-131580687D01*
X117210500Y-131570006D01*
X117210500Y-131559122D01*
X117202699Y-131530010D01*
X117196933Y-131500443D01*
X117192157Y-131490666D01*
X117189340Y-131480152D01*
X117176416Y-131457768D01*
X117172395Y-131450212D01*
X117161049Y-131426983D01*
X117161047Y-131426981D01*
X117161047Y-131426980D01*
X117153901Y-131418770D01*
X117148462Y-131409349D01*
X117127166Y-131388053D01*
X117124360Y-131384829D01*
X117124346Y-131384814D01*
X117113942Y-131372861D01*
X116187467Y-130308400D01*
X114815954Y-128732620D01*
X114807732Y-128722076D01*
X114806988Y-128721009D01*
X114806987Y-128721006D01*
X114781850Y-128693437D01*
X114757374Y-128665315D01*
X114754356Y-128663282D01*
X113691957Y-127498069D01*
X113342869Y-127115198D01*
X113312247Y-127052397D01*
X113310500Y-127031653D01*
X113310500Y-122087399D01*
X119224500Y-122087399D01*
X119224500Y-122212601D01*
X119256905Y-122333536D01*
X119319505Y-122441964D01*
X119408036Y-122530495D01*
X119516464Y-122593095D01*
X119637399Y-122625500D01*
X119637401Y-122625500D01*
X119762599Y-122625500D01*
X119762601Y-122625500D01*
X119883536Y-122593095D01*
X119991964Y-122530495D01*
X120080495Y-122441964D01*
X120143095Y-122333536D01*
X120175500Y-122212601D01*
X120175500Y-122087399D01*
X120143095Y-121966464D01*
X120080495Y-121858036D01*
X119991964Y-121769505D01*
X119883536Y-121706905D01*
X119883537Y-121706905D01*
X119843224Y-121696103D01*
X119762601Y-121674500D01*
X119637399Y-121674500D01*
X119556775Y-121696103D01*
X119516463Y-121706905D01*
X119408037Y-121769504D01*
X119408034Y-121769506D01*
X119319506Y-121858034D01*
X119319504Y-121858037D01*
X119256905Y-121966463D01*
X119256905Y-121966464D01*
X119224500Y-122087399D01*
X113310500Y-122087399D01*
X113310500Y-120963099D01*
X117490400Y-120963099D01*
X117490400Y-121088301D01*
X117522805Y-121209236D01*
X117585405Y-121317664D01*
X117673936Y-121406195D01*
X117782364Y-121468795D01*
X117903299Y-121501200D01*
X117903301Y-121501200D01*
X118028499Y-121501200D01*
X118028501Y-121501200D01*
X118149436Y-121468795D01*
X118257864Y-121406195D01*
X118346395Y-121317664D01*
X118408995Y-121209236D01*
X118441400Y-121088301D01*
X118441400Y-120963099D01*
X118408995Y-120842164D01*
X118346395Y-120733736D01*
X118257864Y-120645205D01*
X118149436Y-120582605D01*
X118149437Y-120582605D01*
X118109124Y-120571803D01*
X118028501Y-120550200D01*
X117903299Y-120550200D01*
X117822675Y-120571803D01*
X117782363Y-120582605D01*
X117673937Y-120645204D01*
X117673934Y-120645206D01*
X117585406Y-120733734D01*
X117585404Y-120733737D01*
X117522805Y-120842163D01*
X117522805Y-120842164D01*
X117490400Y-120963099D01*
X113310500Y-120963099D01*
X113310500Y-120186176D01*
X113330185Y-120119137D01*
X113346819Y-120098495D01*
X114904795Y-118540519D01*
X114966118Y-118507034D01*
X114992476Y-118504200D01*
X115040099Y-118504200D01*
X115040101Y-118504200D01*
X115161036Y-118471795D01*
X115269464Y-118409195D01*
X115357995Y-118320664D01*
X115420595Y-118212236D01*
X115453000Y-118091301D01*
X115453000Y-117966099D01*
X120223100Y-117966099D01*
X120223100Y-118091301D01*
X120255505Y-118212236D01*
X120318105Y-118320664D01*
X120406636Y-118409195D01*
X120515064Y-118471795D01*
X120635999Y-118504200D01*
X120636001Y-118504200D01*
X120761199Y-118504200D01*
X120761201Y-118504200D01*
X120882136Y-118471795D01*
X120990564Y-118409195D01*
X121079095Y-118320664D01*
X121141695Y-118212236D01*
X121174100Y-118091301D01*
X121174100Y-117966099D01*
X121141695Y-117845164D01*
X121079095Y-117736736D01*
X120990564Y-117648205D01*
X120882136Y-117585605D01*
X120882137Y-117585605D01*
X120841824Y-117574803D01*
X120761201Y-117553200D01*
X120635999Y-117553200D01*
X120555375Y-117574803D01*
X120515063Y-117585605D01*
X120406637Y-117648204D01*
X120406634Y-117648206D01*
X120318106Y-117736734D01*
X120318104Y-117736737D01*
X120255505Y-117845163D01*
X120242965Y-117891962D01*
X120223100Y-117966099D01*
X115453000Y-117966099D01*
X115420595Y-117845164D01*
X115357995Y-117736736D01*
X115269464Y-117648205D01*
X115161036Y-117585605D01*
X115161037Y-117585605D01*
X115120724Y-117574803D01*
X115040101Y-117553200D01*
X114914899Y-117553200D01*
X114834275Y-117574803D01*
X114793963Y-117585605D01*
X114685537Y-117648204D01*
X114685534Y-117648206D01*
X114597006Y-117736734D01*
X114597004Y-117736737D01*
X114534405Y-117845163D01*
X114521865Y-117891962D01*
X114504377Y-117957230D01*
X114502000Y-117966100D01*
X114502000Y-118013724D01*
X114482315Y-118080763D01*
X114465681Y-118101405D01*
X112751539Y-119815546D01*
X112751535Y-119815551D01*
X112710659Y-119886352D01*
X112710658Y-119886354D01*
X112694640Y-119946140D01*
X112694639Y-119946145D01*
X112689500Y-119965321D01*
X112689500Y-125455065D01*
X112669815Y-125522104D01*
X112617011Y-125567859D01*
X112547853Y-125577803D01*
X112484297Y-125548778D01*
X112446523Y-125490000D01*
X112445737Y-125487205D01*
X112432195Y-125436664D01*
X112369595Y-125328236D01*
X112281064Y-125239705D01*
X112172636Y-125177105D01*
X112172637Y-125177105D01*
X112132324Y-125166303D01*
X112051701Y-125144700D01*
X111926499Y-125144700D01*
X111845875Y-125166303D01*
X111805563Y-125177105D01*
X111697137Y-125239704D01*
X111697134Y-125239706D01*
X111608606Y-125328234D01*
X111608604Y-125328237D01*
X111546005Y-125436663D01*
X111531188Y-125491962D01*
X111513600Y-125557599D01*
X111513600Y-125682801D01*
X111546005Y-125803736D01*
X111608605Y-125912164D01*
X111697136Y-126000695D01*
X111805564Y-126063295D01*
X111926499Y-126095700D01*
X111926501Y-126095700D01*
X112051699Y-126095700D01*
X112051701Y-126095700D01*
X112172636Y-126063295D01*
X112281064Y-126000695D01*
X112369595Y-125912164D01*
X112432195Y-125803736D01*
X112445726Y-125753238D01*
X112482090Y-125693580D01*
X112544938Y-125663051D01*
X112614313Y-125671346D01*
X112668191Y-125715831D01*
X112689465Y-125782384D01*
X112689500Y-125785334D01*
X112689500Y-126616018D01*
X112669815Y-126683057D01*
X112617011Y-126728812D01*
X112547853Y-126738756D01*
X112529869Y-126734788D01*
X109259742Y-125753751D01*
X109201186Y-125715633D01*
X109186648Y-125694604D01*
X107954241Y-123447273D01*
X109899500Y-123447273D01*
X109899500Y-123552727D01*
X109926793Y-123654587D01*
X109979520Y-123745913D01*
X110054087Y-123820480D01*
X110145413Y-123873207D01*
X110247273Y-123900500D01*
X110247275Y-123900500D01*
X110353420Y-123900500D01*
X110420459Y-123920185D01*
X110466214Y-123972989D01*
X110476158Y-124042147D01*
X110460808Y-124086495D01*
X110426793Y-124145413D01*
X110399500Y-124247273D01*
X110399500Y-124352727D01*
X110426793Y-124454587D01*
X110479520Y-124545913D01*
X110554087Y-124620480D01*
X110645413Y-124673207D01*
X110747273Y-124700500D01*
X110747275Y-124700500D01*
X110852725Y-124700500D01*
X110852727Y-124700500D01*
X110954587Y-124673207D01*
X111045913Y-124620480D01*
X111120480Y-124545913D01*
X111173207Y-124454587D01*
X111200500Y-124352727D01*
X111200500Y-124247273D01*
X111173207Y-124145413D01*
X111120480Y-124054087D01*
X111045913Y-123979520D01*
X110954587Y-123926793D01*
X110852727Y-123899500D01*
X110747273Y-123899500D01*
X110746580Y-123899500D01*
X110679541Y-123879815D01*
X110633786Y-123827011D01*
X110623842Y-123757853D01*
X110639191Y-123713504D01*
X110673207Y-123654587D01*
X110700500Y-123552727D01*
X110700500Y-123447273D01*
X110673207Y-123345413D01*
X110620480Y-123254087D01*
X110545913Y-123179520D01*
X110454587Y-123126793D01*
X110352727Y-123099500D01*
X110247273Y-123099500D01*
X110145413Y-123126793D01*
X110145410Y-123126794D01*
X110054085Y-123179521D01*
X109979521Y-123254085D01*
X109926794Y-123345410D01*
X109926793Y-123345413D01*
X109899500Y-123447273D01*
X107954241Y-123447273D01*
X106383294Y-120582605D01*
X106002872Y-119888894D01*
X105974633Y-119837399D01*
X111424500Y-119837399D01*
X111424500Y-119962601D01*
X111456905Y-120083536D01*
X111519505Y-120191964D01*
X111608036Y-120280495D01*
X111716464Y-120343095D01*
X111837399Y-120375500D01*
X111837401Y-120375500D01*
X111962599Y-120375500D01*
X111962601Y-120375500D01*
X112083536Y-120343095D01*
X112191964Y-120280495D01*
X112280495Y-120191964D01*
X112343095Y-120083536D01*
X112375500Y-119962601D01*
X112375500Y-119837399D01*
X112343095Y-119716464D01*
X112280495Y-119608036D01*
X112191964Y-119519505D01*
X112083536Y-119456905D01*
X112083537Y-119456905D01*
X112043224Y-119446103D01*
X111962601Y-119424500D01*
X111837399Y-119424500D01*
X111756775Y-119446103D01*
X111716463Y-119456905D01*
X111608037Y-119519504D01*
X111608034Y-119519506D01*
X111519506Y-119608034D01*
X111519504Y-119608037D01*
X111456905Y-119716463D01*
X111456905Y-119716464D01*
X111424500Y-119837399D01*
X105974633Y-119837399D01*
X105899205Y-119699855D01*
X105887632Y-119670306D01*
X105707680Y-118950499D01*
X105611899Y-118567376D01*
X105609926Y-118553767D01*
X105609856Y-118553780D01*
X105608449Y-118545777D01*
X105608448Y-118545774D01*
X105608448Y-118545771D01*
X105600079Y-118519184D01*
X105598074Y-118512072D01*
X105594374Y-118497273D01*
X109999500Y-118497273D01*
X109999500Y-118602727D01*
X110026793Y-118704587D01*
X110079520Y-118795913D01*
X110154087Y-118870480D01*
X110245413Y-118923207D01*
X110347273Y-118950500D01*
X110347275Y-118950500D01*
X110452725Y-118950500D01*
X110452727Y-118950500D01*
X110554587Y-118923207D01*
X110645913Y-118870480D01*
X110720480Y-118795913D01*
X110773207Y-118704587D01*
X110800500Y-118602727D01*
X110800500Y-118497273D01*
X110773207Y-118395413D01*
X110720480Y-118304087D01*
X110645913Y-118229520D01*
X110554587Y-118176793D01*
X110452727Y-118149500D01*
X110347273Y-118149500D01*
X110245413Y-118176793D01*
X110245410Y-118176794D01*
X110154085Y-118229521D01*
X110079521Y-118304085D01*
X110026794Y-118395410D01*
X110026793Y-118395413D01*
X109999500Y-118497273D01*
X105594374Y-118497273D01*
X105591315Y-118485035D01*
X105591314Y-118485033D01*
X105586733Y-118476781D01*
X105583903Y-118467787D01*
X105566958Y-118441159D01*
X105551634Y-118413555D01*
X105551631Y-118413552D01*
X105551630Y-118413550D01*
X105546793Y-118407021D01*
X105546849Y-118406979D01*
X105538331Y-118396175D01*
X105466652Y-118283536D01*
X104928200Y-117437399D01*
X111424500Y-117437399D01*
X111424500Y-117562601D01*
X111456905Y-117683536D01*
X111519505Y-117791964D01*
X111608036Y-117880495D01*
X111716464Y-117943095D01*
X111837399Y-117975500D01*
X111837401Y-117975500D01*
X111962599Y-117975500D01*
X111962601Y-117975500D01*
X112083536Y-117943095D01*
X112191964Y-117880495D01*
X112280495Y-117791964D01*
X112343095Y-117683536D01*
X112343096Y-117683529D01*
X112346204Y-117676029D01*
X112348666Y-117677048D01*
X112378185Y-117628612D01*
X112441029Y-117598078D01*
X112510405Y-117606367D01*
X112564287Y-117650848D01*
X112581376Y-117688263D01*
X112606905Y-117783536D01*
X112669505Y-117891964D01*
X112758036Y-117980495D01*
X112866464Y-118043095D01*
X112987399Y-118075500D01*
X112987401Y-118075500D01*
X113112599Y-118075500D01*
X113112601Y-118075500D01*
X113233536Y-118043095D01*
X113341964Y-117980495D01*
X113430495Y-117891964D01*
X113493095Y-117783536D01*
X113525500Y-117662601D01*
X113525500Y-117537399D01*
X113493095Y-117416464D01*
X113430495Y-117308036D01*
X113341964Y-117219505D01*
X113233536Y-117156905D01*
X113233537Y-117156905D01*
X113193224Y-117146103D01*
X113112601Y-117124500D01*
X112987399Y-117124500D01*
X112906775Y-117146103D01*
X112866463Y-117156905D01*
X112758037Y-117219504D01*
X112758034Y-117219506D01*
X112669506Y-117308034D01*
X112669504Y-117308037D01*
X112606905Y-117416463D01*
X112603796Y-117423971D01*
X112601339Y-117422953D01*
X112571779Y-117471419D01*
X112508923Y-117501929D01*
X112439550Y-117493614D01*
X112385686Y-117449112D01*
X112368624Y-117411739D01*
X112343095Y-117316464D01*
X112280495Y-117208036D01*
X112191964Y-117119505D01*
X112083536Y-117056905D01*
X112083537Y-117056905D01*
X112043224Y-117046103D01*
X111962601Y-117024500D01*
X111837399Y-117024500D01*
X111756775Y-117046103D01*
X111716463Y-117056905D01*
X111608037Y-117119504D01*
X111608034Y-117119506D01*
X111519506Y-117208034D01*
X111519504Y-117208037D01*
X111456905Y-117316463D01*
X111456905Y-117316464D01*
X111424500Y-117437399D01*
X104928200Y-117437399D01*
X104870904Y-117347362D01*
X104866121Y-117339166D01*
X104854734Y-117317814D01*
X104846489Y-117308995D01*
X104840010Y-117298813D01*
X104818676Y-117279243D01*
X104815438Y-117275780D01*
X104815429Y-117275771D01*
X104813787Y-117274015D01*
X104798901Y-117258092D01*
X104798895Y-117258088D01*
X104798414Y-117257788D01*
X104780178Y-117243931D01*
X104779762Y-117243549D01*
X104758300Y-117232363D01*
X104758300Y-117232362D01*
X104754074Y-117230159D01*
X104729513Y-117214855D01*
X104717967Y-117211340D01*
X104707776Y-117206029D01*
X104707774Y-117206029D01*
X104707262Y-117205762D01*
X104707263Y-117205762D01*
X104683642Y-117200513D01*
X104683642Y-117200512D01*
X104678983Y-117199476D01*
X104651298Y-117191051D01*
X104639239Y-117190645D01*
X104628011Y-117188150D01*
X104627457Y-117188026D01*
X104627446Y-117188026D01*
X104603280Y-117189067D01*
X104603281Y-117189068D01*
X104598515Y-117189273D01*
X104569588Y-117188301D01*
X104557828Y-117191030D01*
X104546338Y-117191527D01*
X104546336Y-117191526D01*
X104545780Y-117191550D01*
X104545763Y-117191553D01*
X104522689Y-117198815D01*
X104513519Y-117201319D01*
X104489954Y-117206791D01*
X104489947Y-117206794D01*
X104489442Y-117207064D01*
X104489441Y-117207063D01*
X104479292Y-117212475D01*
X104467787Y-117216097D01*
X104443380Y-117231628D01*
X104439171Y-117233873D01*
X104439161Y-117233880D01*
X103731726Y-117611178D01*
X103715309Y-117618460D01*
X103706539Y-117621611D01*
X103706536Y-117621613D01*
X103693813Y-117630443D01*
X103693812Y-117630442D01*
X103687857Y-117634575D01*
X103667814Y-117645266D01*
X103654429Y-117657777D01*
X103647028Y-117662915D01*
X103647026Y-117662915D01*
X103639381Y-117668223D01*
X103639373Y-117668230D01*
X103629375Y-117680045D01*
X103619407Y-117690518D01*
X103608093Y-117701095D01*
X103608091Y-117701098D01*
X103603161Y-117709008D01*
X103603162Y-117709009D01*
X103598397Y-117716654D01*
X103586564Y-117730641D01*
X103576877Y-117751190D01*
X103573047Y-117757337D01*
X103564854Y-117770487D01*
X103562140Y-117779402D01*
X103562141Y-117779403D01*
X103559519Y-117788019D01*
X103551707Y-117804594D01*
X103547668Y-117826955D01*
X103545559Y-117833887D01*
X103541051Y-117848700D01*
X103540737Y-117858022D01*
X103538834Y-117875873D01*
X103537178Y-117885043D01*
X103537177Y-117885053D01*
X103538463Y-117900477D01*
X103539065Y-117907698D01*
X103538301Y-117930412D01*
X103542443Y-117948254D01*
X103543191Y-117957227D01*
X103543192Y-117957230D01*
X103589285Y-118510345D01*
X103589704Y-118519184D01*
X103688951Y-126955312D01*
X103688396Y-126968586D01*
X103688251Y-126970092D01*
X103689512Y-127005846D01*
X103689580Y-127008754D01*
X103690001Y-127044530D01*
X103690212Y-127045998D01*
X103690725Y-127049567D01*
X103690729Y-127049591D01*
X103690739Y-127049661D01*
X103690885Y-127050315D01*
X103691134Y-127051802D01*
X103701607Y-127086014D01*
X103702034Y-127087408D01*
X103712090Y-127123243D01*
X103713976Y-127126424D01*
X103717244Y-127137098D01*
X103717248Y-127137109D01*
X104324292Y-129120115D01*
X104325093Y-129189980D01*
X104287995Y-129249188D01*
X104240513Y-129275431D01*
X101432507Y-130096234D01*
X101421185Y-130098974D01*
X101401112Y-130102842D01*
X101397193Y-130104746D01*
X101377834Y-130112216D01*
X101373645Y-130113440D01*
X101356175Y-130124058D01*
X101356176Y-130124059D01*
X101351185Y-130127092D01*
X101327571Y-130138563D01*
X101316412Y-130148229D01*
X101307514Y-130153639D01*
X101307511Y-130153642D01*
X101303786Y-130155906D01*
X101303784Y-130155908D01*
X101289659Y-130170684D01*
X101289658Y-130170683D01*
X101285612Y-130174915D01*
X101265781Y-130192099D01*
X101257505Y-130204323D01*
X101250305Y-130211857D01*
X101250304Y-130211859D01*
X101247297Y-130215004D01*
X101247296Y-130215005D01*
X101237480Y-130232930D01*
X101231414Y-130242868D01*
X101219954Y-130259798D01*
X101219954Y-130259800D01*
X101219953Y-130259803D01*
X101215120Y-130273763D01*
X101208027Y-130286717D01*
X101201805Y-130312227D01*
X101199894Y-130317749D01*
X100968732Y-130985551D01*
X100928201Y-131042463D01*
X100863335Y-131068428D01*
X100794729Y-131055202D01*
X100744164Y-131006984D01*
X100731781Y-130977088D01*
X100719395Y-130930863D01*
X100656795Y-130822435D01*
X100568264Y-130733904D01*
X100459836Y-130671304D01*
X100459837Y-130671304D01*
X100410801Y-130658165D01*
X100338901Y-130638899D01*
X100213699Y-130638899D01*
X100135592Y-130659827D01*
X100065744Y-130658165D01*
X100007882Y-130619003D01*
X99980377Y-130554775D01*
X99979500Y-130540053D01*
X99979500Y-126194955D01*
X99988145Y-126165511D01*
X99994668Y-126135529D01*
X99998422Y-126130513D01*
X99999185Y-126127916D01*
X100015814Y-126107277D01*
X100113255Y-126009836D01*
X100168840Y-125977744D01*
X100219036Y-125964295D01*
X100327464Y-125901695D01*
X100415995Y-125813164D01*
X100478595Y-125704736D01*
X100511000Y-125583801D01*
X100511000Y-125458599D01*
X100478595Y-125337664D01*
X100415995Y-125229236D01*
X100327464Y-125140705D01*
X100219036Y-125078105D01*
X100219037Y-125078105D01*
X100178724Y-125067303D01*
X100098101Y-125045700D01*
X99972899Y-125045700D01*
X99892275Y-125067303D01*
X99851963Y-125078105D01*
X99743537Y-125140704D01*
X99743534Y-125140706D01*
X99655006Y-125229234D01*
X99655004Y-125229237D01*
X99592405Y-125337663D01*
X99592403Y-125337668D01*
X99578954Y-125387859D01*
X99546862Y-125443444D01*
X99258519Y-125731788D01*
X99205793Y-125823111D01*
X99205793Y-125823112D01*
X99199174Y-125847814D01*
X99199174Y-125847815D01*
X99199173Y-125847814D01*
X99185575Y-125898568D01*
X99149211Y-125958229D01*
X99086365Y-125988759D01*
X99016989Y-125980465D01*
X98963110Y-125935980D01*
X98941835Y-125869429D01*
X98941800Y-125866476D01*
X98941800Y-112837399D01*
X102074500Y-112837399D01*
X102074500Y-112962601D01*
X102090579Y-113022606D01*
X102106905Y-113083536D01*
X102169504Y-113191962D01*
X102169506Y-113191965D01*
X102203181Y-113225640D01*
X102236666Y-113286963D01*
X102239500Y-113313321D01*
X102239500Y-117686679D01*
X102219815Y-117753718D01*
X102203181Y-117774360D01*
X102169506Y-117808034D01*
X102169504Y-117808037D01*
X102106905Y-117916463D01*
X102099769Y-117943094D01*
X102074500Y-118037399D01*
X102074500Y-118162601D01*
X102106905Y-118283536D01*
X102169505Y-118391964D01*
X102258036Y-118480495D01*
X102366464Y-118543095D01*
X102487399Y-118575500D01*
X102487401Y-118575500D01*
X102612599Y-118575500D01*
X102612601Y-118575500D01*
X102733536Y-118543095D01*
X102841964Y-118480495D01*
X102930495Y-118391964D01*
X102993095Y-118283536D01*
X103025500Y-118162601D01*
X103025500Y-118037399D01*
X102993095Y-117916464D01*
X102930495Y-117808036D01*
X102896819Y-117774360D01*
X102863334Y-117713037D01*
X102860500Y-117686679D01*
X102860500Y-115137399D01*
X109224500Y-115137399D01*
X109224500Y-115262601D01*
X109256905Y-115383536D01*
X109319505Y-115491964D01*
X109408036Y-115580495D01*
X109516464Y-115643095D01*
X109637399Y-115675500D01*
X109637401Y-115675500D01*
X109762599Y-115675500D01*
X109762601Y-115675500D01*
X109883536Y-115643095D01*
X109991964Y-115580495D01*
X110080495Y-115491964D01*
X110143095Y-115383536D01*
X110175500Y-115262601D01*
X110175500Y-115137399D01*
X110143095Y-115016464D01*
X110080495Y-114908036D01*
X109991964Y-114819505D01*
X109883536Y-114756905D01*
X109883537Y-114756905D01*
X109843224Y-114746103D01*
X109762601Y-114724500D01*
X109637399Y-114724500D01*
X109556775Y-114746103D01*
X109516463Y-114756905D01*
X109408037Y-114819504D01*
X109408034Y-114819506D01*
X109319506Y-114908034D01*
X109319504Y-114908037D01*
X109256905Y-115016463D01*
X109256905Y-115016464D01*
X109224500Y-115137399D01*
X102860500Y-115137399D01*
X102860500Y-113313321D01*
X102880185Y-113246282D01*
X102896819Y-113225640D01*
X102930495Y-113191964D01*
X102993095Y-113083536D01*
X103024655Y-112965753D01*
X103061018Y-112906096D01*
X103070111Y-112898589D01*
X105426542Y-111135141D01*
X105492007Y-111110736D01*
X105560277Y-111125598D01*
X105608220Y-111172420D01*
X105619500Y-111191957D01*
X105619504Y-111191962D01*
X105619505Y-111191964D01*
X105708036Y-111280495D01*
X105816464Y-111343095D01*
X105937399Y-111375500D01*
X105937401Y-111375500D01*
X106062599Y-111375500D01*
X106062601Y-111375500D01*
X106183536Y-111343095D01*
X106291964Y-111280495D01*
X106380495Y-111191964D01*
X106394675Y-111167404D01*
X106440807Y-111087501D01*
X106491373Y-111039285D01*
X106548194Y-111025500D01*
X106562599Y-111025500D01*
X106562601Y-111025500D01*
X106683536Y-110993095D01*
X106791964Y-110930495D01*
X106880495Y-110841964D01*
X106943095Y-110733536D01*
X106975500Y-110612601D01*
X106975500Y-110487399D01*
X106943095Y-110366464D01*
X106880495Y-110258036D01*
X106861033Y-110238574D01*
X106827548Y-110177251D01*
X106832532Y-110107559D01*
X106874401Y-110051628D01*
X108215676Y-109047878D01*
X108281142Y-109023473D01*
X108349412Y-109038335D01*
X108398810Y-109087748D01*
X108413652Y-109156023D01*
X108393639Y-109215191D01*
X107007468Y-111327450D01*
X106956793Y-111371522D01*
X104692070Y-112442120D01*
X104623049Y-112452975D01*
X104606988Y-112449791D01*
X104512601Y-112424500D01*
X104387399Y-112424500D01*
X104306775Y-112446103D01*
X104266463Y-112456905D01*
X104158037Y-112519504D01*
X104158034Y-112519506D01*
X104069506Y-112608034D01*
X104069504Y-112608037D01*
X104006905Y-112716463D01*
X104006905Y-112716464D01*
X103974500Y-112837399D01*
X103974500Y-112962601D01*
X104006905Y-113083536D01*
X104069505Y-113191964D01*
X104158036Y-113280495D01*
X104266464Y-113343095D01*
X104387399Y-113375500D01*
X104387401Y-113375500D01*
X104512599Y-113375500D01*
X104512601Y-113375500D01*
X104633536Y-113343095D01*
X104741964Y-113280495D01*
X104830495Y-113191964D01*
X104893095Y-113083536D01*
X104893096Y-113083533D01*
X104893435Y-113082269D01*
X104894012Y-113081320D01*
X104896207Y-113076024D01*
X104897032Y-113076365D01*
X104929796Y-113022606D01*
X104960211Y-113002254D01*
X107299286Y-111896510D01*
X107303124Y-111895714D01*
X107336192Y-111879064D01*
X107369658Y-111863244D01*
X107369664Y-111863238D01*
X107371396Y-111862123D01*
X107371905Y-111861832D01*
X107374389Y-111860142D01*
X107374395Y-111860139D01*
X107374428Y-111860115D01*
X107376137Y-111858951D01*
X107376147Y-111858947D01*
X107402708Y-111835259D01*
X107404917Y-111833339D01*
X107432009Y-111810364D01*
X107432013Y-111810358D01*
X107433416Y-111808811D01*
X107435453Y-111806563D01*
X107435791Y-111806127D01*
X107437162Y-111804537D01*
X107437162Y-111804536D01*
X107437165Y-111804534D01*
X107457484Y-111773570D01*
X107478550Y-111743147D01*
X107479870Y-111739459D01*
X108268722Y-110537399D01*
X111924500Y-110537399D01*
X111924500Y-110662601D01*
X111956905Y-110783536D01*
X112019505Y-110891964D01*
X112108036Y-110980495D01*
X112216464Y-111043095D01*
X112337399Y-111075500D01*
X112337401Y-111075500D01*
X112345458Y-111076561D01*
X112345121Y-111079115D01*
X112399847Y-111095185D01*
X112445602Y-111147989D01*
X112452582Y-111167404D01*
X112456905Y-111183536D01*
X112519505Y-111291964D01*
X112608036Y-111380495D01*
X112716464Y-111443095D01*
X112837399Y-111475500D01*
X112837401Y-111475500D01*
X112962599Y-111475500D01*
X112962601Y-111475500D01*
X113083536Y-111443095D01*
X113191964Y-111380495D01*
X113280495Y-111291964D01*
X113343095Y-111183536D01*
X113375500Y-111062601D01*
X113375500Y-110937399D01*
X113343095Y-110816464D01*
X113280495Y-110708036D01*
X113191964Y-110619505D01*
X113083536Y-110556905D01*
X113083537Y-110556905D01*
X112962598Y-110524499D01*
X112954542Y-110523439D01*
X112954878Y-110520884D01*
X112900153Y-110504815D01*
X112854398Y-110452011D01*
X112847418Y-110432596D01*
X112843749Y-110418905D01*
X112843095Y-110416464D01*
X112780495Y-110308036D01*
X112691964Y-110219505D01*
X112583536Y-110156905D01*
X112583537Y-110156905D01*
X112539245Y-110145037D01*
X112462601Y-110124500D01*
X112337399Y-110124500D01*
X112260755Y-110145037D01*
X112216463Y-110156905D01*
X112108037Y-110219504D01*
X112108034Y-110219506D01*
X112019506Y-110308034D01*
X112019504Y-110308037D01*
X111956905Y-110416463D01*
X111956905Y-110416464D01*
X111924500Y-110537399D01*
X108268722Y-110537399D01*
X109332721Y-108916067D01*
X109385959Y-108870820D01*
X109404288Y-108864329D01*
X109483536Y-108843095D01*
X109591964Y-108780495D01*
X109680495Y-108691964D01*
X109743095Y-108583536D01*
X109775500Y-108462601D01*
X109775500Y-108337399D01*
X109743095Y-108216464D01*
X109680495Y-108108036D01*
X109591964Y-108019505D01*
X109483536Y-107956905D01*
X109483537Y-107956905D01*
X109434886Y-107943869D01*
X109362601Y-107924500D01*
X109237399Y-107924500D01*
X109237396Y-107924500D01*
X109209067Y-107932091D01*
X109139217Y-107930428D01*
X109081355Y-107891265D01*
X109053852Y-107827036D01*
X109055247Y-107788688D01*
X109575092Y-105110499D01*
X109645417Y-104748190D01*
X109677515Y-104686131D01*
X109705147Y-104664431D01*
X109708444Y-104662527D01*
X109711964Y-104660495D01*
X109800495Y-104571964D01*
X109863095Y-104463536D01*
X109895500Y-104342601D01*
X109895500Y-104217399D01*
X109863095Y-104096464D01*
X109854678Y-104081886D01*
X109838206Y-104013987D01*
X109861059Y-103947960D01*
X109915980Y-103904769D01*
X109985533Y-103898128D01*
X110040777Y-103926608D01*
X110041591Y-103925549D01*
X110047462Y-103930054D01*
X110047636Y-103930144D01*
X110047844Y-103930348D01*
X110048032Y-103930491D01*
X110048036Y-103930495D01*
X110156464Y-103993095D01*
X110277399Y-104025500D01*
X110277401Y-104025500D01*
X110402384Y-104025500D01*
X110469423Y-104045185D01*
X110515178Y-104097989D01*
X110525122Y-104167147D01*
X110509771Y-104211500D01*
X110506906Y-104216461D01*
X110506905Y-104216462D01*
X110501295Y-104237399D01*
X110474500Y-104337399D01*
X110474500Y-104462601D01*
X110506905Y-104583536D01*
X110569505Y-104691964D01*
X110658036Y-104780495D01*
X110766464Y-104843095D01*
X110887399Y-104875500D01*
X110887401Y-104875500D01*
X111012599Y-104875500D01*
X111012601Y-104875500D01*
X111133536Y-104843095D01*
X111241964Y-104780495D01*
X111315451Y-104707007D01*
X111376770Y-104673525D01*
X111429297Y-104674776D01*
X111429342Y-104674439D01*
X111432482Y-104674852D01*
X111435226Y-104674917D01*
X111437399Y-104675500D01*
X111437401Y-104675500D01*
X111562599Y-104675500D01*
X111562601Y-104675500D01*
X111683536Y-104643095D01*
X111791964Y-104580495D01*
X111791970Y-104580488D01*
X111798409Y-104575549D01*
X111800198Y-104577880D01*
X111849142Y-104551155D01*
X111918834Y-104556139D01*
X111974767Y-104598011D01*
X111999184Y-104663475D01*
X111999500Y-104672321D01*
X111999500Y-104762727D01*
X112026793Y-104864587D01*
X112079520Y-104955913D01*
X112154087Y-105030480D01*
X112245413Y-105083207D01*
X112347273Y-105110500D01*
X112347275Y-105110500D01*
X112452725Y-105110500D01*
X112452727Y-105110500D01*
X112554587Y-105083207D01*
X112645913Y-105030480D01*
X112720480Y-104955913D01*
X112773207Y-104864587D01*
X112800500Y-104762727D01*
X112800500Y-104657273D01*
X112773207Y-104555413D01*
X112720480Y-104464087D01*
X112645913Y-104389520D01*
X112579059Y-104350922D01*
X112554589Y-104336794D01*
X112554588Y-104336793D01*
X112554587Y-104336793D01*
X112452727Y-104309500D01*
X112347273Y-104309500D01*
X112245413Y-104336793D01*
X112245412Y-104336793D01*
X112160483Y-104385827D01*
X112092583Y-104402299D01*
X112026556Y-104379446D01*
X111983366Y-104324524D01*
X111976613Y-104270729D01*
X111975500Y-104270729D01*
X111975500Y-104137400D01*
X111967632Y-104108036D01*
X111943095Y-104016464D01*
X111880495Y-103908036D01*
X111791964Y-103819505D01*
X111683536Y-103756905D01*
X111683537Y-103756905D01*
X111643224Y-103746103D01*
X111562601Y-103724500D01*
X111437399Y-103724500D01*
X111356775Y-103746103D01*
X111316463Y-103756905D01*
X111208037Y-103819504D01*
X111208034Y-103819506D01*
X111134549Y-103892990D01*
X111073226Y-103926475D01*
X111043127Y-103929252D01*
X111028711Y-103928816D01*
X111012601Y-103924500D01*
X110887399Y-103924500D01*
X110887229Y-103924545D01*
X110883874Y-103924444D01*
X110852354Y-103914145D01*
X110820577Y-103904815D01*
X110819306Y-103903348D01*
X110817459Y-103902745D01*
X110796513Y-103877044D01*
X110774822Y-103852011D01*
X110774545Y-103850089D01*
X110773319Y-103848584D01*
X110769596Y-103815665D01*
X110764878Y-103782853D01*
X110765636Y-103780660D01*
X110765467Y-103779157D01*
X110767776Y-103774479D01*
X110780229Y-103738500D01*
X110783095Y-103733536D01*
X110815500Y-103612601D01*
X110815500Y-103487399D01*
X110783095Y-103366464D01*
X110720495Y-103258036D01*
X110631964Y-103169505D01*
X110523536Y-103106905D01*
X110523537Y-103106905D01*
X110483224Y-103096103D01*
X110402601Y-103074500D01*
X110277399Y-103074500D01*
X110196775Y-103096103D01*
X110156463Y-103106905D01*
X110048037Y-103169504D01*
X110048034Y-103169506D01*
X109959506Y-103258034D01*
X109959504Y-103258037D01*
X109896905Y-103366463D01*
X109896905Y-103366464D01*
X109864500Y-103487399D01*
X109864500Y-103612601D01*
X109866395Y-103619672D01*
X109896905Y-103733537D01*
X109896907Y-103733540D01*
X109905321Y-103748114D01*
X109921792Y-103816014D01*
X109898939Y-103882041D01*
X109844017Y-103925230D01*
X109774464Y-103931871D01*
X109719222Y-103903390D01*
X109718409Y-103904451D01*
X109712533Y-103899942D01*
X109712362Y-103899854D01*
X109712155Y-103899652D01*
X109711966Y-103899507D01*
X109711964Y-103899505D01*
X109603536Y-103836905D01*
X109603537Y-103836905D01*
X109538599Y-103819505D01*
X109482601Y-103804500D01*
X109357399Y-103804500D01*
X109301401Y-103819505D01*
X109236463Y-103836905D01*
X109128037Y-103899504D01*
X109080323Y-103947217D01*
X109018999Y-103980701D01*
X108960553Y-103979310D01*
X108952557Y-103977167D01*
X108942601Y-103974500D01*
X108817399Y-103974500D01*
X108748003Y-103993095D01*
X108696463Y-104006905D01*
X108588037Y-104069504D01*
X108588034Y-104069506D01*
X108558485Y-104099055D01*
X108497161Y-104132540D01*
X108427470Y-104127554D01*
X108371537Y-104085682D01*
X108347121Y-104020217D01*
X108351030Y-103979281D01*
X108355500Y-103962601D01*
X108355500Y-103837399D01*
X108323095Y-103716464D01*
X108260495Y-103608036D01*
X108171964Y-103519505D01*
X108063536Y-103456905D01*
X108063531Y-103456903D01*
X107976618Y-103433614D01*
X107916958Y-103397249D01*
X107886430Y-103334401D01*
X107894725Y-103265026D01*
X107901319Y-103251852D01*
X107949595Y-103168236D01*
X107982000Y-103047301D01*
X107982000Y-102922099D01*
X107949595Y-102801164D01*
X107886995Y-102692736D01*
X107798464Y-102604205D01*
X107690036Y-102541605D01*
X107690037Y-102541605D01*
X107649724Y-102530803D01*
X107569101Y-102509200D01*
X107443899Y-102509200D01*
X107363275Y-102530803D01*
X107322963Y-102541605D01*
X107214537Y-102604204D01*
X107214534Y-102604206D01*
X107126006Y-102692734D01*
X107126004Y-102692737D01*
X107063405Y-102801163D01*
X107063405Y-102801164D01*
X107031000Y-102922099D01*
X107031000Y-103047301D01*
X107063405Y-103168236D01*
X107126005Y-103276664D01*
X107214536Y-103365195D01*
X107322964Y-103427795D01*
X107409881Y-103451084D01*
X107469540Y-103487450D01*
X107500069Y-103550297D01*
X107491774Y-103619672D01*
X107485174Y-103632858D01*
X107436905Y-103716463D01*
X107404499Y-103837401D01*
X107403439Y-103845458D01*
X107400847Y-103845116D01*
X107384815Y-103899718D01*
X107332011Y-103945473D01*
X107262853Y-103955417D01*
X107199297Y-103926392D01*
X107192819Y-103920360D01*
X107191965Y-103919506D01*
X107191964Y-103919505D01*
X107083536Y-103856905D01*
X107083537Y-103856905D01*
X107010747Y-103837401D01*
X106962601Y-103824500D01*
X106837399Y-103824500D01*
X106789253Y-103837401D01*
X106716463Y-103856905D01*
X106608037Y-103919504D01*
X106608034Y-103919506D01*
X106519506Y-104008034D01*
X106519504Y-104008037D01*
X106456905Y-104116463D01*
X106456905Y-104116464D01*
X106424500Y-104237399D01*
X106424500Y-104362601D01*
X106456905Y-104483536D01*
X106519505Y-104591964D01*
X106608036Y-104680495D01*
X106716464Y-104743095D01*
X106837399Y-104775500D01*
X106837401Y-104775500D01*
X106959540Y-104775500D01*
X107026579Y-104795185D01*
X107066926Y-104837498D01*
X107069502Y-104841960D01*
X107069504Y-104841962D01*
X107069505Y-104841964D01*
X107158036Y-104930495D01*
X107266464Y-104993095D01*
X107387399Y-105025500D01*
X107387401Y-105025500D01*
X107512599Y-105025500D01*
X107512601Y-105025500D01*
X107633536Y-104993095D01*
X107741964Y-104930495D01*
X107830495Y-104841964D01*
X107893095Y-104733536D01*
X107925500Y-104612601D01*
X107925500Y-104487399D01*
X107925500Y-104479271D01*
X107927962Y-104479271D01*
X107936812Y-104422518D01*
X107983192Y-104370262D01*
X108016888Y-104355594D01*
X108063536Y-104343095D01*
X108171964Y-104280495D01*
X108201514Y-104250944D01*
X108262834Y-104217460D01*
X108332526Y-104222444D01*
X108388460Y-104264314D01*
X108412878Y-104329778D01*
X108408969Y-104370717D01*
X108404500Y-104387393D01*
X108404500Y-104387399D01*
X108404500Y-104512601D01*
X108436905Y-104633536D01*
X108499505Y-104741964D01*
X108588036Y-104830495D01*
X108696464Y-104893095D01*
X108817399Y-104925500D01*
X108817401Y-104925500D01*
X108828027Y-104925500D01*
X108895066Y-104945185D01*
X108940821Y-104997989D01*
X108950765Y-105067147D01*
X108949755Y-105073128D01*
X108404581Y-107881809D01*
X108372483Y-107943869D01*
X108344860Y-107965564D01*
X108338037Y-107969503D01*
X108249503Y-108058037D01*
X108186905Y-108166463D01*
X108186903Y-108166468D01*
X108155345Y-108284242D01*
X108118980Y-108343902D01*
X108109866Y-108351425D01*
X102699424Y-112400357D01*
X102633956Y-112424764D01*
X102620728Y-112424370D01*
X102620728Y-112424500D01*
X102612601Y-112424500D01*
X102487399Y-112424500D01*
X102406775Y-112446103D01*
X102366463Y-112456905D01*
X102258037Y-112519504D01*
X102258034Y-112519506D01*
X102169506Y-112608034D01*
X102169504Y-112608037D01*
X102106905Y-112716463D01*
X102106905Y-112716464D01*
X102074500Y-112837399D01*
X98941800Y-112837399D01*
X98941800Y-110826738D01*
X98945949Y-110811250D01*
X98945385Y-110799399D01*
X99560000Y-110799399D01*
X99560000Y-110924601D01*
X99592405Y-111045536D01*
X99655005Y-111153964D01*
X99743536Y-111242495D01*
X99851964Y-111305095D01*
X99972899Y-111337500D01*
X99972901Y-111337500D01*
X100098099Y-111337500D01*
X100098101Y-111337500D01*
X100219036Y-111305095D01*
X100327464Y-111242495D01*
X100415995Y-111153964D01*
X100478595Y-111045536D01*
X100511000Y-110924601D01*
X100511000Y-110799399D01*
X100478595Y-110678464D01*
X100415995Y-110570036D01*
X100327464Y-110481505D01*
X100219036Y-110418905D01*
X100219037Y-110418905D01*
X100178724Y-110408103D01*
X100098101Y-110386500D01*
X99972899Y-110386500D01*
X99892275Y-110408103D01*
X99851963Y-110418905D01*
X99743537Y-110481504D01*
X99743534Y-110481506D01*
X99655006Y-110570034D01*
X99655004Y-110570037D01*
X99592405Y-110678463D01*
X99584481Y-110708036D01*
X99560000Y-110799399D01*
X98945385Y-110799399D01*
X98945295Y-110797504D01*
X98958413Y-110764738D01*
X98978890Y-110729271D01*
X98978971Y-110729129D01*
X98984395Y-110719736D01*
X99016800Y-110598801D01*
X99016800Y-110473599D01*
X98984395Y-110352664D01*
X98921795Y-110244236D01*
X98833264Y-110155705D01*
X98724836Y-110093105D01*
X98724837Y-110093105D01*
X98684524Y-110082303D01*
X98603901Y-110060700D01*
X98478699Y-110060700D01*
X98398075Y-110082303D01*
X98357763Y-110093105D01*
X98249337Y-110155704D01*
X98249334Y-110155706D01*
X98160806Y-110244234D01*
X98160804Y-110244237D01*
X98098205Y-110352663D01*
X98082002Y-110413131D01*
X98065800Y-110473599D01*
X98065800Y-110598801D01*
X98087146Y-110678463D01*
X98098205Y-110719737D01*
X98098206Y-110719738D01*
X98124187Y-110764738D01*
X98140800Y-110826738D01*
X98140800Y-136788042D01*
X98121115Y-136855081D01*
X98068311Y-136900836D01*
X97999153Y-136910780D01*
X97964701Y-136898857D01*
X97964346Y-136899716D01*
X97956837Y-136896605D01*
X97916524Y-136885803D01*
X97835901Y-136864200D01*
X97710699Y-136864200D01*
X97630075Y-136885803D01*
X97589763Y-136896605D01*
X97481337Y-136959204D01*
X97481334Y-136959206D01*
X97392806Y-137047734D01*
X97392804Y-137047737D01*
X97330205Y-137156163D01*
X97326954Y-137168296D01*
X97297800Y-137277099D01*
X97297800Y-137402301D01*
X97330205Y-137523236D01*
X97392805Y-137631664D01*
X97481336Y-137720195D01*
X97589764Y-137782795D01*
X97710699Y-137815200D01*
X97710701Y-137815200D01*
X97835899Y-137815200D01*
X97835901Y-137815200D01*
X97956836Y-137782795D01*
X97956839Y-137782792D01*
X97964346Y-137779684D01*
X97965088Y-137781476D01*
X98022691Y-137767497D01*
X98088719Y-137790344D01*
X98131914Y-137845262D01*
X98140800Y-137891357D01*
X98140800Y-146354344D01*
X98121115Y-146421383D01*
X98104481Y-146442025D01*
X97445444Y-147101061D01*
X97389859Y-147133154D01*
X97339668Y-147146603D01*
X97339663Y-147146605D01*
X97231237Y-147209204D01*
X97231234Y-147209206D01*
X97142706Y-147297734D01*
X97142704Y-147297737D01*
X97080105Y-147406163D01*
X97080105Y-147406164D01*
X97047700Y-147527099D01*
X97047700Y-147652301D01*
X97080105Y-147773236D01*
X97142705Y-147881664D01*
X97231236Y-147970195D01*
X97339664Y-148032795D01*
X97460599Y-148065200D01*
X97460601Y-148065200D01*
X97585799Y-148065200D01*
X97585801Y-148065200D01*
X97706736Y-148032795D01*
X97815164Y-147970195D01*
X97903695Y-147881664D01*
X97966295Y-147773236D01*
X97979745Y-147723038D01*
X98011836Y-147667455D01*
X98861780Y-146817513D01*
X98914507Y-146726188D01*
X98941800Y-146624327D01*
X98941800Y-146518873D01*
X98941800Y-133768111D01*
X98961485Y-133701072D01*
X99014289Y-133655317D01*
X99083447Y-133645373D01*
X99147003Y-133674398D01*
X99173186Y-133706109D01*
X99198505Y-133749964D01*
X99287036Y-133838495D01*
X99395464Y-133901095D01*
X99516399Y-133933500D01*
X99516401Y-133933500D01*
X99641599Y-133933500D01*
X99641601Y-133933500D01*
X99729108Y-133910052D01*
X99798956Y-133911715D01*
X99856818Y-133950877D01*
X99884323Y-134015105D01*
X99885200Y-134029827D01*
X99885200Y-137418021D01*
X99885200Y-137499779D01*
X99906360Y-137578749D01*
X99906361Y-137578750D01*
X99906361Y-137578751D01*
X99947235Y-137649548D01*
X99947239Y-137649553D01*
X101375505Y-139077819D01*
X101408990Y-139139142D01*
X101404006Y-139208834D01*
X101362134Y-139264767D01*
X101296670Y-139289184D01*
X101287824Y-139289500D01*
X99740878Y-139289500D01*
X99659122Y-139289500D01*
X99580152Y-139310660D01*
X99580150Y-139310661D01*
X99580149Y-139310661D01*
X99509352Y-139351535D01*
X99509347Y-139351539D01*
X99451539Y-139409347D01*
X99451535Y-139409352D01*
X99410661Y-139480149D01*
X99410661Y-139480150D01*
X99410660Y-139480152D01*
X99389500Y-139559122D01*
X99389500Y-139559124D01*
X99389500Y-151334514D01*
X99369815Y-151401553D01*
X99317011Y-151447308D01*
X99247853Y-151457252D01*
X99196610Y-151437617D01*
X99121905Y-151387701D01*
X99121898Y-151387697D01*
X99004375Y-151339018D01*
X99004376Y-151339018D01*
X99004373Y-151339017D01*
X99004369Y-151339016D01*
X99004365Y-151339015D01*
X98879610Y-151314200D01*
X98879606Y-151314200D01*
X98752394Y-151314200D01*
X98752389Y-151314200D01*
X98627634Y-151339015D01*
X98627624Y-151339018D01*
X98510101Y-151387697D01*
X98510092Y-151387702D01*
X98404326Y-151458373D01*
X98404322Y-151458376D01*
X98314376Y-151548322D01*
X98314373Y-151548326D01*
X98243702Y-151654092D01*
X98243697Y-151654101D01*
X98195018Y-151771624D01*
X98195015Y-151771634D01*
X98170200Y-151896389D01*
X98170200Y-152023610D01*
X98195015Y-152148365D01*
X98195018Y-152148375D01*
X98243697Y-152265898D01*
X98243702Y-152265907D01*
X98314373Y-152371673D01*
X98314376Y-152371677D01*
X98404322Y-152461623D01*
X98404326Y-152461626D01*
X98510092Y-152532297D01*
X98510098Y-152532300D01*
X98510099Y-152532301D01*
X98627627Y-152580983D01*
X98752389Y-152605799D01*
X98752393Y-152605800D01*
X98752394Y-152605800D01*
X98879607Y-152605800D01*
X98879608Y-152605799D01*
X99004373Y-152580983D01*
X99121901Y-152532301D01*
X99196609Y-152482383D01*
X99263286Y-152461505D01*
X99330667Y-152479989D01*
X99377357Y-152531968D01*
X99389500Y-152585485D01*
X99389500Y-173346613D01*
X99369815Y-173413652D01*
X99317011Y-173459407D01*
X99247853Y-173469351D01*
X99233407Y-173466388D01*
X99165901Y-173448300D01*
X99040699Y-173448300D01*
X98973195Y-173466388D01*
X98919763Y-173480705D01*
X98811337Y-173543304D01*
X98811334Y-173543306D01*
X98722806Y-173631834D01*
X98722804Y-173631837D01*
X98660205Y-173740263D01*
X98646016Y-173793218D01*
X98627800Y-173861199D01*
X98627800Y-173986401D01*
X98641759Y-174038495D01*
X98660205Y-174107336D01*
X98722804Y-174215762D01*
X98722806Y-174215765D01*
X98803311Y-174296270D01*
X98836796Y-174357593D01*
X98831812Y-174427285D01*
X98823018Y-174445949D01*
X98794607Y-174495159D01*
X98794605Y-174495162D01*
X98777516Y-174558939D01*
X98762200Y-174616099D01*
X98762200Y-174741301D01*
X98794605Y-174862236D01*
X98857205Y-174970664D01*
X98945736Y-175059195D01*
X99054164Y-175121795D01*
X99175099Y-175154200D01*
X99175101Y-175154200D01*
X99265500Y-175154200D01*
X99332539Y-175173885D01*
X99378294Y-175226689D01*
X99389500Y-175278200D01*
X99389500Y-176737678D01*
X99369815Y-176804717D01*
X99317011Y-176850472D01*
X99297596Y-176857451D01*
X99225413Y-176876793D01*
X99225410Y-176876794D01*
X99134085Y-176929521D01*
X99059521Y-177004085D01*
X99006794Y-177095410D01*
X99006793Y-177095413D01*
X98979500Y-177197273D01*
X98979500Y-177302727D01*
X99006793Y-177404587D01*
X99059520Y-177495913D01*
X99134087Y-177570480D01*
X99225413Y-177623207D01*
X99297595Y-177642547D01*
X99357253Y-177678910D01*
X99387783Y-177741756D01*
X99389500Y-177762321D01*
X99389500Y-184787095D01*
X99369815Y-184854134D01*
X99317011Y-184899889D01*
X99247853Y-184909833D01*
X99233406Y-184906870D01*
X99176250Y-184891555D01*
X99112601Y-184874500D01*
X98987399Y-184874500D01*
X98923750Y-184891555D01*
X98866463Y-184906905D01*
X98758037Y-184969504D01*
X98758033Y-184969507D01*
X98742149Y-184985391D01*
X98680825Y-185018875D01*
X98611134Y-185013889D01*
X98555201Y-184972016D01*
X98534697Y-184929805D01*
X98510195Y-184838364D01*
X98447595Y-184729936D01*
X98359064Y-184641405D01*
X98250636Y-184578805D01*
X98250629Y-184578802D01*
X98200440Y-184565354D01*
X98144854Y-184533261D01*
X97744019Y-184132426D01*
X97710534Y-184071103D01*
X97707700Y-184044745D01*
X97707700Y-180943599D01*
X98021700Y-180943599D01*
X98021700Y-181068801D01*
X98054105Y-181189736D01*
X98116705Y-181298164D01*
X98205236Y-181386695D01*
X98313664Y-181449295D01*
X98434599Y-181481700D01*
X98434601Y-181481700D01*
X98559799Y-181481700D01*
X98559801Y-181481700D01*
X98680736Y-181449295D01*
X98789164Y-181386695D01*
X98877695Y-181298164D01*
X98940295Y-181189736D01*
X98972700Y-181068801D01*
X98972700Y-180943599D01*
X98940295Y-180822664D01*
X98877695Y-180714236D01*
X98789164Y-180625705D01*
X98680736Y-180563105D01*
X98680737Y-180563105D01*
X98640424Y-180552303D01*
X98559801Y-180530700D01*
X98434599Y-180530700D01*
X98353975Y-180552303D01*
X98313663Y-180563105D01*
X98205237Y-180625704D01*
X98205234Y-180625706D01*
X98116706Y-180714234D01*
X98116704Y-180714237D01*
X98054105Y-180822663D01*
X98042315Y-180866664D01*
X98021700Y-180943599D01*
X97707700Y-180943599D01*
X97707700Y-178195038D01*
X97724313Y-178133038D01*
X97727918Y-178126794D01*
X97750295Y-178088036D01*
X97782700Y-177967101D01*
X97782700Y-177841899D01*
X97750295Y-177720964D01*
X97687695Y-177612536D01*
X97599164Y-177524005D01*
X97490736Y-177461405D01*
X97490737Y-177461405D01*
X97450424Y-177450603D01*
X97369801Y-177429000D01*
X97244599Y-177429000D01*
X97163975Y-177450603D01*
X97123663Y-177461405D01*
X97015237Y-177524004D01*
X97015234Y-177524006D01*
X96926706Y-177612534D01*
X96926704Y-177612537D01*
X96864105Y-177720963D01*
X96853023Y-177762321D01*
X96831700Y-177841899D01*
X96831700Y-177967101D01*
X96847049Y-178024383D01*
X96864105Y-178088037D01*
X96864106Y-178088038D01*
X96883638Y-178121869D01*
X96890087Y-178133038D01*
X96906700Y-178195038D01*
X96906700Y-184209273D01*
X96906700Y-184314727D01*
X96913416Y-184339792D01*
X96933993Y-184416589D01*
X96934623Y-184417680D01*
X96986720Y-184507913D01*
X96986722Y-184507915D01*
X97578461Y-185099654D01*
X97610554Y-185155240D01*
X97624002Y-185205429D01*
X97624005Y-185205436D01*
X97686605Y-185313864D01*
X97775136Y-185402395D01*
X97883564Y-185464995D01*
X98004499Y-185497400D01*
X98004501Y-185497400D01*
X98129699Y-185497400D01*
X98129701Y-185497400D01*
X98250636Y-185464995D01*
X98359064Y-185402395D01*
X98374948Y-185386510D01*
X98436268Y-185353025D01*
X98505960Y-185358008D01*
X98561894Y-185399878D01*
X98582403Y-185442095D01*
X98606905Y-185533536D01*
X98669505Y-185641964D01*
X98758036Y-185730495D01*
X98866464Y-185793095D01*
X98987399Y-185825500D01*
X98987401Y-185825500D01*
X99112599Y-185825500D01*
X99112601Y-185825500D01*
X99233408Y-185793129D01*
X99303255Y-185794792D01*
X99361118Y-185833954D01*
X99388623Y-185898182D01*
X99389500Y-185912904D01*
X99389500Y-188290504D01*
X99387582Y-188321827D01*
X99389500Y-188331257D01*
X99389500Y-188340876D01*
X99389501Y-188340885D01*
X99396641Y-188367535D01*
X99397623Y-188371201D01*
X99403877Y-188401943D01*
X99408168Y-188410553D01*
X99410659Y-188419846D01*
X99424454Y-188443740D01*
X99428040Y-188450414D01*
X99440352Y-188475112D01*
X99446727Y-188482319D01*
X99451538Y-188490651D01*
X99473719Y-188512832D01*
X99476218Y-188515657D01*
X99476231Y-188515671D01*
X101493376Y-190795922D01*
X101523050Y-190859176D01*
X101524500Y-190878080D01*
X101524500Y-190962601D01*
X101556905Y-191083536D01*
X101619505Y-191191964D01*
X101708036Y-191280495D01*
X101816464Y-191343095D01*
X101937399Y-191375500D01*
X101937401Y-191375500D01*
X102062599Y-191375500D01*
X102062601Y-191375500D01*
X102183536Y-191343095D01*
X102291964Y-191280495D01*
X102380495Y-191191964D01*
X102443095Y-191083536D01*
X102475500Y-190962601D01*
X102475500Y-190837399D01*
X102443095Y-190716464D01*
X102380495Y-190608036D01*
X102291964Y-190519505D01*
X102183536Y-190456905D01*
X102183537Y-190456905D01*
X102143224Y-190446103D01*
X102062601Y-190424500D01*
X102062599Y-190424500D01*
X102049783Y-190424500D01*
X101982744Y-190404815D01*
X101956907Y-190382659D01*
X100041624Y-188217555D01*
X100011949Y-188154300D01*
X100010500Y-188135396D01*
X100010500Y-187499953D01*
X100030185Y-187432914D01*
X100082989Y-187387159D01*
X100152147Y-187377215D01*
X100166843Y-187380246D01*
X105020026Y-188691917D01*
X105079605Y-188728410D01*
X105095058Y-188749621D01*
X105119502Y-188791960D01*
X105119504Y-188791963D01*
X105119505Y-188791964D01*
X105208036Y-188880495D01*
X105316464Y-188943095D01*
X105437399Y-188975500D01*
X105437401Y-188975500D01*
X105562600Y-188975500D01*
X105562601Y-188975500D01*
X105668104Y-188947230D01*
X105737952Y-188948891D01*
X105795815Y-188988053D01*
X105821650Y-189041999D01*
X105946686Y-189649319D01*
X105946686Y-189649320D01*
X105947882Y-189655129D01*
X105951082Y-189684787D01*
X105957290Y-189700830D01*
X105959371Y-189710935D01*
X105959372Y-189710938D01*
X105960763Y-189717693D01*
X105971483Y-189739069D01*
X105976279Y-189749892D01*
X105983634Y-189768893D01*
X105984916Y-189772205D01*
X105984918Y-189772208D01*
X105984920Y-189772211D01*
X105988974Y-189777760D01*
X105995071Y-189786103D01*
X106002785Y-189801484D01*
X106022609Y-189823786D01*
X106026096Y-189828558D01*
X106026107Y-189828572D01*
X106755974Y-190827338D01*
X106779635Y-190893079D01*
X106763997Y-190961177D01*
X106714026Y-191010010D01*
X106655857Y-191024500D01*
X106557399Y-191024500D01*
X106484308Y-191044085D01*
X106436463Y-191056905D01*
X106328037Y-191119504D01*
X106328034Y-191119506D01*
X106239506Y-191208034D01*
X106239502Y-191208039D01*
X106220590Y-191240796D01*
X106170022Y-191289010D01*
X106101415Y-191302232D01*
X106036551Y-191276263D01*
X105996023Y-191219349D01*
X105993434Y-191210904D01*
X105973207Y-191135413D01*
X105920480Y-191044087D01*
X105845913Y-190969520D01*
X105754587Y-190916793D01*
X105652727Y-190889500D01*
X105547273Y-190889500D01*
X105445413Y-190916793D01*
X105445410Y-190916794D01*
X105354085Y-190969521D01*
X105279521Y-191044085D01*
X105226794Y-191135410D01*
X105226793Y-191135413D01*
X105199500Y-191237273D01*
X105199500Y-191342727D01*
X105226793Y-191444587D01*
X105279520Y-191535913D01*
X105354087Y-191610480D01*
X105445413Y-191663207D01*
X105547273Y-191690500D01*
X105547275Y-191690500D01*
X105652725Y-191690500D01*
X105652727Y-191690500D01*
X105754587Y-191663207D01*
X105845913Y-191610480D01*
X105920480Y-191535913D01*
X105920482Y-191535908D01*
X105925426Y-191529467D01*
X105927136Y-191530779D01*
X105969482Y-191490397D01*
X106038088Y-191477169D01*
X106102954Y-191503132D01*
X106143487Y-191560043D01*
X106146080Y-191568498D01*
X106176905Y-191683536D01*
X106239505Y-191791964D01*
X106328036Y-191880495D01*
X106436464Y-191943095D01*
X106557399Y-191975500D01*
X106557401Y-191975500D01*
X106565458Y-191976561D01*
X106565121Y-191979115D01*
X106619847Y-191995185D01*
X106663614Y-192043840D01*
X106669302Y-192055164D01*
X106676905Y-192083536D01*
X106728076Y-192172168D01*
X106729696Y-192175393D01*
X106735328Y-192206365D01*
X106742749Y-192236954D01*
X106741531Y-192240471D01*
X106742198Y-192244135D01*
X106730191Y-192273236D01*
X106719897Y-192302981D01*
X106716970Y-192305282D01*
X106715551Y-192308723D01*
X106689723Y-192326708D01*
X106664975Y-192346171D01*
X106660874Y-192346799D01*
X106658214Y-192348652D01*
X106645763Y-192349114D01*
X106609380Y-192354688D01*
X100466915Y-191882190D01*
X100401582Y-191857421D01*
X100360012Y-191801264D01*
X100355402Y-191731546D01*
X100357991Y-191721822D01*
X100524095Y-191186597D01*
X100562765Y-191128408D01*
X100580521Y-191115967D01*
X100641964Y-191080495D01*
X100730495Y-190991964D01*
X100793095Y-190883536D01*
X100825500Y-190762601D01*
X100825500Y-190637399D01*
X100793095Y-190516464D01*
X100730495Y-190408036D01*
X100641964Y-190319505D01*
X100533536Y-190256905D01*
X100533537Y-190256905D01*
X100493224Y-190246103D01*
X100412601Y-190224500D01*
X100287399Y-190224500D01*
X100206775Y-190246103D01*
X100166463Y-190256905D01*
X100058037Y-190319504D01*
X100058034Y-190319506D01*
X99969506Y-190408034D01*
X99969504Y-190408037D01*
X99906905Y-190516463D01*
X99906905Y-190516464D01*
X99874500Y-190637399D01*
X99874500Y-190762601D01*
X99906905Y-190883536D01*
X99906906Y-190883538D01*
X99919482Y-190905321D01*
X99935953Y-190973221D01*
X99930522Y-191004074D01*
X99729391Y-191652162D01*
X99690720Y-191710354D01*
X99626728Y-191738402D01*
X99557730Y-191727400D01*
X99523282Y-191703089D01*
X98907419Y-191087226D01*
X98873934Y-191025903D01*
X98871100Y-190999545D01*
X98871100Y-187530038D01*
X98887713Y-187468038D01*
X98894431Y-187456402D01*
X98913695Y-187423036D01*
X98946100Y-187302101D01*
X98946100Y-187176899D01*
X98913695Y-187055964D01*
X98851095Y-186947536D01*
X98762564Y-186859005D01*
X98654136Y-186796405D01*
X98654137Y-186796405D01*
X98613824Y-186785603D01*
X98533201Y-186764000D01*
X98407999Y-186764000D01*
X98327375Y-186785603D01*
X98287063Y-186796405D01*
X98178637Y-186859004D01*
X98178634Y-186859006D01*
X98090106Y-186947534D01*
X98090104Y-186947537D01*
X98027505Y-187055963D01*
X98025055Y-187065106D01*
X97995100Y-187176899D01*
X97995100Y-187302101D01*
X98004717Y-187337991D01*
X98027505Y-187423037D01*
X98027506Y-187423038D01*
X98053487Y-187468038D01*
X98070100Y-187530038D01*
X98070100Y-191164073D01*
X98070100Y-191269527D01*
X98078554Y-191301078D01*
X98097393Y-191371389D01*
X98099767Y-191375500D01*
X98150120Y-191462713D01*
X98150122Y-191462715D01*
X99810181Y-193122774D01*
X99843666Y-193184097D01*
X99846500Y-193210455D01*
X99846500Y-195279060D01*
X99829888Y-195341058D01*
X99803907Y-195386059D01*
X99803905Y-195386062D01*
X99782301Y-195466687D01*
X99771500Y-195506999D01*
X99771500Y-195632201D01*
X99803905Y-195753136D01*
X99866505Y-195861564D01*
X99955036Y-195950095D01*
X100063464Y-196012695D01*
X100184399Y-196045100D01*
X100184401Y-196045100D01*
X100309599Y-196045100D01*
X100309601Y-196045100D01*
X100430536Y-196012695D01*
X100538964Y-195950095D01*
X100627495Y-195861564D01*
X100690095Y-195753136D01*
X100722500Y-195632201D01*
X100722500Y-195506999D01*
X100690095Y-195386064D01*
X100669967Y-195351200D01*
X100664112Y-195341058D01*
X100647500Y-195279060D01*
X100647500Y-192940475D01*
X100647500Y-192940473D01*
X100620207Y-192838613D01*
X100620207Y-192838612D01*
X100567480Y-192747287D01*
X100550434Y-192730241D01*
X100516949Y-192668918D01*
X100521933Y-192599226D01*
X100563805Y-192543293D01*
X100629269Y-192518876D01*
X100647613Y-192518924D01*
X108968344Y-193158982D01*
X109001062Y-193163177D01*
X109008974Y-193162108D01*
X109016943Y-193162721D01*
X109049392Y-193156647D01*
X109082082Y-193152231D01*
X109089447Y-193149149D01*
X109092409Y-193148595D01*
X109097303Y-193147680D01*
X109124242Y-193134770D01*
X109129933Y-193132219D01*
X109157508Y-193120689D01*
X109157509Y-193120688D01*
X109163832Y-193115801D01*
X109171033Y-193112352D01*
X109196082Y-193090881D01*
X110280261Y-192253105D01*
X110285819Y-192249053D01*
X110309527Y-192232765D01*
X110315239Y-192226078D01*
X110322201Y-192220699D01*
X110341718Y-192195083D01*
X110362632Y-192170604D01*
X110364607Y-192166464D01*
X110366421Y-192162662D01*
X110371750Y-192155670D01*
X110383970Y-192125881D01*
X110397839Y-192096816D01*
X110397840Y-192096812D01*
X110398169Y-192095801D01*
X110398534Y-192094096D01*
X110400747Y-192084987D01*
X110402781Y-192080031D01*
X110403706Y-192072813D01*
X110405330Y-192066131D01*
X110419502Y-192041606D01*
X110430873Y-192015660D01*
X110436755Y-192011750D01*
X110440289Y-192005636D01*
X110465471Y-191992666D01*
X110489064Y-191976987D01*
X110496185Y-191976847D01*
X110502404Y-191973645D01*
X110529091Y-191976203D01*
X110549161Y-191975811D01*
X110549342Y-191974439D01*
X110557398Y-191975499D01*
X110557399Y-191975500D01*
X110557400Y-191975500D01*
X110565458Y-191976561D01*
X110565121Y-191979115D01*
X110567867Y-191979922D01*
X110571955Y-191980314D01*
X110573593Y-191981603D01*
X110619847Y-191995185D01*
X110665602Y-192047989D01*
X110672582Y-192067404D01*
X110675966Y-192080031D01*
X110676905Y-192083536D01*
X110739505Y-192191964D01*
X110828036Y-192280495D01*
X110936464Y-192343095D01*
X111057399Y-192375500D01*
X111057401Y-192375500D01*
X111161600Y-192375500D01*
X111228639Y-192395185D01*
X111274394Y-192447989D01*
X111285600Y-192499500D01*
X111285600Y-194625426D01*
X111312893Y-194727289D01*
X111322635Y-194744162D01*
X111365620Y-194818613D01*
X111365622Y-194818615D01*
X111500461Y-194953454D01*
X111532554Y-195009040D01*
X111546002Y-195059229D01*
X111546005Y-195059236D01*
X111608605Y-195167664D01*
X111697136Y-195256195D01*
X111805564Y-195318795D01*
X111926499Y-195351200D01*
X111926501Y-195351200D01*
X112051699Y-195351200D01*
X112051701Y-195351200D01*
X112172636Y-195318795D01*
X112281064Y-195256195D01*
X112369595Y-195167664D01*
X112432195Y-195059236D01*
X112464600Y-194938301D01*
X112464600Y-194813099D01*
X112432195Y-194692164D01*
X112369595Y-194583736D01*
X112281064Y-194495205D01*
X112172636Y-194432605D01*
X112165127Y-194429495D01*
X112166274Y-194426724D01*
X112118838Y-194397805D01*
X112088315Y-194334955D01*
X112086600Y-194314403D01*
X112086600Y-191782252D01*
X112106285Y-191715213D01*
X112159089Y-191669458D01*
X112228247Y-191659514D01*
X112242694Y-191662477D01*
X112245408Y-191663204D01*
X112245413Y-191663207D01*
X112347273Y-191690500D01*
X112347276Y-191690500D01*
X112452725Y-191690500D01*
X112452727Y-191690500D01*
X112554587Y-191663207D01*
X112645913Y-191610480D01*
X112720480Y-191535913D01*
X112773207Y-191444587D01*
X112800500Y-191342727D01*
X112800500Y-191237273D01*
X112773207Y-191135413D01*
X112720480Y-191044087D01*
X112645913Y-190969520D01*
X112554587Y-190916793D01*
X112452727Y-190889500D01*
X112347273Y-190889500D01*
X112245413Y-190916793D01*
X112245412Y-190916793D01*
X112242693Y-190917522D01*
X112172843Y-190915859D01*
X112114981Y-190876696D01*
X112087477Y-190812468D01*
X112086600Y-190797747D01*
X112086600Y-189274799D01*
X114423700Y-189274799D01*
X114423700Y-189400001D01*
X114456105Y-189520936D01*
X114518705Y-189629364D01*
X114607236Y-189717895D01*
X114715664Y-189780495D01*
X114836599Y-189812900D01*
X114836601Y-189812900D01*
X114961799Y-189812900D01*
X114961801Y-189812900D01*
X115082736Y-189780495D01*
X115191164Y-189717895D01*
X115279695Y-189629364D01*
X115342295Y-189520936D01*
X115374700Y-189400001D01*
X115374700Y-189274799D01*
X115342295Y-189153864D01*
X115279695Y-189045436D01*
X115191164Y-188956905D01*
X115082736Y-188894305D01*
X115082737Y-188894305D01*
X115027562Y-188879521D01*
X114961801Y-188861900D01*
X114836599Y-188861900D01*
X114770838Y-188879521D01*
X114715663Y-188894305D01*
X114607237Y-188956904D01*
X114607234Y-188956906D01*
X114518706Y-189045434D01*
X114518704Y-189045437D01*
X114456105Y-189153863D01*
X114456105Y-189153864D01*
X114423700Y-189274799D01*
X112086600Y-189274799D01*
X112086600Y-187947721D01*
X112106285Y-187880682D01*
X112148601Y-187840333D01*
X112173264Y-187826095D01*
X112261795Y-187737564D01*
X112324395Y-187629136D01*
X112331666Y-187602000D01*
X112331666Y-187601999D01*
X113778100Y-187601999D01*
X113778100Y-187727201D01*
X113810505Y-187848136D01*
X113873105Y-187956564D01*
X113961636Y-188045095D01*
X114070064Y-188107695D01*
X114190999Y-188140100D01*
X114191001Y-188140100D01*
X114316199Y-188140100D01*
X114316201Y-188140100D01*
X114437136Y-188107695D01*
X114545564Y-188045095D01*
X114634095Y-187956564D01*
X114696695Y-187848136D01*
X114729100Y-187727201D01*
X114729100Y-187601999D01*
X114696695Y-187481064D01*
X114634095Y-187372636D01*
X114545564Y-187284105D01*
X114437136Y-187221505D01*
X114437137Y-187221505D01*
X114396824Y-187210703D01*
X114316201Y-187189100D01*
X114190999Y-187189100D01*
X114110375Y-187210703D01*
X114070063Y-187221505D01*
X113961637Y-187284104D01*
X113961634Y-187284106D01*
X113873106Y-187372634D01*
X113873104Y-187372637D01*
X113810505Y-187481063D01*
X113800255Y-187519315D01*
X113778100Y-187601999D01*
X112331666Y-187601999D01*
X112342445Y-187561776D01*
X112347982Y-187541109D01*
X112356800Y-187508201D01*
X112356800Y-187382999D01*
X112324395Y-187262064D01*
X112261795Y-187153636D01*
X112173264Y-187065105D01*
X112064836Y-187002505D01*
X112064837Y-187002505D01*
X112024524Y-186991703D01*
X111943901Y-186970100D01*
X111818699Y-186970100D01*
X111738075Y-186991703D01*
X111697763Y-187002505D01*
X111589337Y-187065104D01*
X111589334Y-187065106D01*
X111500806Y-187153634D01*
X111500804Y-187153637D01*
X111438205Y-187262063D01*
X111438203Y-187262068D01*
X111424754Y-187312259D01*
X111392663Y-187367843D01*
X111365620Y-187394886D01*
X111312892Y-187486212D01*
X111312893Y-187486213D01*
X111285600Y-187588073D01*
X111285600Y-191239079D01*
X111265915Y-191306118D01*
X111213111Y-191351873D01*
X111143953Y-191361817D01*
X111080397Y-191332792D01*
X111054212Y-191301078D01*
X111047245Y-191289010D01*
X111000495Y-191208036D01*
X110911964Y-191119505D01*
X110803536Y-191056905D01*
X110803537Y-191056905D01*
X110755692Y-191044085D01*
X110682601Y-191024500D01*
X110557399Y-191024500D01*
X110483431Y-191044319D01*
X110413582Y-191042657D01*
X110355719Y-191003495D01*
X110328215Y-190939266D01*
X110327723Y-190934300D01*
X110212560Y-189468586D01*
X110226933Y-189400211D01*
X110228793Y-189396872D01*
X110253206Y-189354589D01*
X110253207Y-189354587D01*
X110280500Y-189252727D01*
X110280500Y-189147273D01*
X110253207Y-189045413D01*
X110200480Y-188954087D01*
X110125913Y-188879520D01*
X110034587Y-188826793D01*
X109932727Y-188799500D01*
X109827273Y-188799500D01*
X109725413Y-188826793D01*
X109725411Y-188826793D01*
X109717562Y-188828897D01*
X109717122Y-188827256D01*
X109710413Y-188830947D01*
X109685981Y-188829275D01*
X109661637Y-188831888D01*
X109651745Y-188826934D01*
X109640706Y-188826179D01*
X109621056Y-188811564D01*
X109599164Y-188800600D01*
X109593520Y-188791083D01*
X109584643Y-188784481D01*
X109576015Y-188761566D01*
X109563524Y-188740504D01*
X109563277Y-188727737D01*
X109560023Y-188719093D01*
X109562432Y-188683881D01*
X109586574Y-188571219D01*
X109619868Y-188509792D01*
X109645818Y-188489816D01*
X109661964Y-188480495D01*
X109750495Y-188391964D01*
X109813095Y-188283536D01*
X109845500Y-188162601D01*
X109845500Y-188037399D01*
X109813095Y-187916464D01*
X109750495Y-187808036D01*
X109662110Y-187719651D01*
X109628625Y-187658328D01*
X109626733Y-187647229D01*
X109624489Y-187629136D01*
X109334115Y-185287399D01*
X110424500Y-185287399D01*
X110424500Y-185412601D01*
X110456905Y-185533536D01*
X110519505Y-185641964D01*
X110608036Y-185730495D01*
X110716464Y-185793095D01*
X110837399Y-185825500D01*
X110837401Y-185825500D01*
X110962599Y-185825500D01*
X110962601Y-185825500D01*
X111083536Y-185793095D01*
X111191964Y-185730495D01*
X111280495Y-185641964D01*
X111343095Y-185533536D01*
X111360815Y-185467403D01*
X111397179Y-185407746D01*
X111460026Y-185377217D01*
X111480589Y-185375500D01*
X111612599Y-185375500D01*
X111612601Y-185375500D01*
X111733536Y-185343095D01*
X111841964Y-185280495D01*
X111930495Y-185191964D01*
X111993095Y-185083536D01*
X112025500Y-184962601D01*
X112025500Y-184837399D01*
X111993095Y-184716464D01*
X111930495Y-184608036D01*
X111841964Y-184519505D01*
X111733536Y-184456905D01*
X111733537Y-184456905D01*
X111681863Y-184443059D01*
X111612601Y-184424500D01*
X111487399Y-184424500D01*
X111418137Y-184443059D01*
X111366463Y-184456905D01*
X111258037Y-184519504D01*
X111258034Y-184519506D01*
X111169506Y-184608034D01*
X111169504Y-184608037D01*
X111106905Y-184716463D01*
X111106905Y-184716464D01*
X111089184Y-184782596D01*
X111052821Y-184842254D01*
X110989974Y-184872783D01*
X110969411Y-184874500D01*
X110962601Y-184874500D01*
X110837399Y-184874500D01*
X110773750Y-184891555D01*
X110716463Y-184906905D01*
X110608037Y-184969504D01*
X110608034Y-184969506D01*
X110519506Y-185058034D01*
X110519504Y-185058037D01*
X110456905Y-185166463D01*
X110452346Y-185183477D01*
X110424500Y-185287399D01*
X109334115Y-185287399D01*
X109170361Y-183966799D01*
X112652100Y-183966799D01*
X112652100Y-184092001D01*
X112684505Y-184212936D01*
X112747105Y-184321364D01*
X112835636Y-184409895D01*
X112944064Y-184472495D01*
X113064999Y-184504900D01*
X113065001Y-184504900D01*
X113190199Y-184504900D01*
X113190201Y-184504900D01*
X113311136Y-184472495D01*
X113419564Y-184409895D01*
X113508095Y-184321364D01*
X113508095Y-184321363D01*
X113513842Y-184315617D01*
X113516453Y-184318228D01*
X113558725Y-184286841D01*
X113628435Y-184282130D01*
X113663602Y-184295804D01*
X113711564Y-184323495D01*
X113832499Y-184355900D01*
X113832501Y-184355900D01*
X113957699Y-184355900D01*
X113957701Y-184355900D01*
X114078636Y-184323495D01*
X114187064Y-184260895D01*
X114275595Y-184172364D01*
X114338195Y-184063936D01*
X114370600Y-183943001D01*
X114370600Y-183817799D01*
X114338195Y-183696864D01*
X114275595Y-183588436D01*
X114187064Y-183499905D01*
X114078636Y-183437305D01*
X114078637Y-183437305D01*
X114038324Y-183426503D01*
X113957701Y-183404900D01*
X113832499Y-183404900D01*
X113751875Y-183426503D01*
X113711563Y-183437305D01*
X113603137Y-183499904D01*
X113603134Y-183499906D01*
X113508858Y-183594183D01*
X113506384Y-183591709D01*
X113462743Y-183623404D01*
X113392987Y-183627379D01*
X113359097Y-183613995D01*
X113311136Y-183586305D01*
X113311137Y-183586305D01*
X113270824Y-183575503D01*
X113190201Y-183553900D01*
X113064999Y-183553900D01*
X112984375Y-183575503D01*
X112944063Y-183586305D01*
X112835637Y-183648904D01*
X112835634Y-183648906D01*
X112747106Y-183737434D01*
X112747104Y-183737437D01*
X112684505Y-183845863D01*
X112669972Y-183900100D01*
X112652100Y-183966799D01*
X109170361Y-183966799D01*
X109061056Y-183085305D01*
X109061554Y-183068135D01*
X109056047Y-183044912D01*
X109053110Y-183021223D01*
X109046654Y-183005299D01*
X109042691Y-182988585D01*
X109031361Y-182967578D01*
X109022393Y-182945457D01*
X109012036Y-182931748D01*
X109003882Y-182916628D01*
X108987501Y-182899269D01*
X108973113Y-182880223D01*
X108967023Y-182875476D01*
X108959558Y-182869658D01*
X108947770Y-182857166D01*
X108927459Y-182844641D01*
X108922097Y-182840462D01*
X108922096Y-182840461D01*
X108911632Y-182832306D01*
X108870854Y-182775571D01*
X108867223Y-182705795D01*
X108901892Y-182645134D01*
X108963854Y-182612845D01*
X108987855Y-182610500D01*
X110481407Y-182610500D01*
X110491997Y-182610953D01*
X113864230Y-182900001D01*
X113949246Y-182907288D01*
X113962973Y-182909242D01*
X115925368Y-183301722D01*
X115951133Y-183309343D01*
X115965295Y-183309708D01*
X115979190Y-183312487D01*
X115979193Y-183312486D01*
X115984334Y-183313515D01*
X116046212Y-183345965D01*
X116080722Y-183406717D01*
X116076910Y-183476482D01*
X116035984Y-183533111D01*
X116022016Y-183542494D01*
X115953239Y-183582202D01*
X115953234Y-183582206D01*
X115864706Y-183670734D01*
X115864704Y-183670737D01*
X115802105Y-183779163D01*
X115794454Y-183807718D01*
X115769700Y-183900099D01*
X115769700Y-184025301D01*
X115802105Y-184146236D01*
X115864705Y-184254664D01*
X115953236Y-184343195D01*
X116061664Y-184405795D01*
X116182599Y-184438200D01*
X116182601Y-184438200D01*
X116307799Y-184438200D01*
X116307801Y-184438200D01*
X116428736Y-184405795D01*
X116537164Y-184343195D01*
X116625695Y-184254664D01*
X116688295Y-184146236D01*
X116720700Y-184025301D01*
X116720700Y-183900099D01*
X116688295Y-183779164D01*
X116625695Y-183670736D01*
X116537164Y-183582205D01*
X116428736Y-183519605D01*
X116428737Y-183519605D01*
X116386374Y-183508254D01*
X116307801Y-183487200D01*
X116241632Y-183487200D01*
X116174593Y-183467515D01*
X116128838Y-183414711D01*
X116118894Y-183345553D01*
X116147919Y-183281997D01*
X116182420Y-183254251D01*
X116249319Y-183217893D01*
X117530110Y-182521810D01*
X117598411Y-182507094D01*
X117663827Y-182531640D01*
X117705588Y-182587656D01*
X117710435Y-182657358D01*
X117709096Y-182662854D01*
X117708058Y-182666729D01*
X117679100Y-182774799D01*
X117679100Y-182900001D01*
X117711505Y-183020936D01*
X117774105Y-183129364D01*
X117862636Y-183217895D01*
X117971064Y-183280495D01*
X118091999Y-183312900D01*
X118092001Y-183312900D01*
X118100058Y-183313961D01*
X118099754Y-183316268D01*
X118155322Y-183332585D01*
X118201077Y-183385389D01*
X118211021Y-183454547D01*
X118210900Y-183455367D01*
X118133410Y-183966799D01*
X117910911Y-185435284D01*
X117881405Y-185498618D01*
X117863800Y-185515081D01*
X117858039Y-185519501D01*
X117769503Y-185608037D01*
X117706905Y-185716463D01*
X117706905Y-185716464D01*
X117674500Y-185837399D01*
X117674500Y-185962601D01*
X117706905Y-186083536D01*
X117769505Y-186191964D01*
X117858036Y-186280495D01*
X117966464Y-186343095D01*
X118087399Y-186375500D01*
X118087401Y-186375500D01*
X118212599Y-186375500D01*
X118212601Y-186375500D01*
X118333536Y-186343095D01*
X118441964Y-186280495D01*
X118530495Y-186191964D01*
X118593095Y-186083536D01*
X118625500Y-185962601D01*
X118625500Y-185837399D01*
X118593095Y-185716464D01*
X118538218Y-185621414D01*
X118521747Y-185553515D01*
X118523006Y-185540840D01*
X118523527Y-185537400D01*
X118716221Y-184265623D01*
X118745726Y-184202292D01*
X118804788Y-184164964D01*
X118874656Y-184165493D01*
X118933146Y-184203711D01*
X118958595Y-184252107D01*
X118986603Y-184356631D01*
X118986605Y-184356636D01*
X119049205Y-184465064D01*
X119137736Y-184553595D01*
X119246164Y-184616195D01*
X119367099Y-184648600D01*
X119367101Y-184648600D01*
X119492299Y-184648600D01*
X119492301Y-184648600D01*
X119613236Y-184616195D01*
X119721664Y-184553595D01*
X119810195Y-184465064D01*
X119872795Y-184356636D01*
X119905200Y-184235701D01*
X119905200Y-184110499D01*
X119872795Y-183989564D01*
X119861580Y-183970138D01*
X119846812Y-183944558D01*
X119830200Y-183882560D01*
X119830200Y-181972399D01*
X120262600Y-181972399D01*
X120262600Y-182097601D01*
X120295005Y-182218536D01*
X120357605Y-182326964D01*
X120446136Y-182415495D01*
X120554564Y-182478095D01*
X120675499Y-182510500D01*
X120675501Y-182510500D01*
X120800699Y-182510500D01*
X120800701Y-182510500D01*
X120921636Y-182478095D01*
X121030064Y-182415495D01*
X121118595Y-182326964D01*
X121181195Y-182218536D01*
X121213600Y-182097601D01*
X121213600Y-181972399D01*
X121181195Y-181851464D01*
X121118595Y-181743036D01*
X121030064Y-181654505D01*
X120921636Y-181591905D01*
X120921637Y-181591905D01*
X120881324Y-181581103D01*
X120800701Y-181559500D01*
X120675499Y-181559500D01*
X120594875Y-181581103D01*
X120554563Y-181591905D01*
X120446137Y-181654504D01*
X120446134Y-181654506D01*
X120357606Y-181743034D01*
X120357604Y-181743037D01*
X120295005Y-181851463D01*
X120293683Y-181856398D01*
X120262600Y-181972399D01*
X119830200Y-181972399D01*
X119830200Y-181340155D01*
X119849885Y-181273116D01*
X119866519Y-181252474D01*
X120288376Y-180830617D01*
X120720480Y-180398513D01*
X120773206Y-180307188D01*
X120773207Y-180307187D01*
X120800500Y-180205327D01*
X120800500Y-175690538D01*
X120817113Y-175628538D01*
X120843095Y-175583536D01*
X120875500Y-175462601D01*
X120875500Y-175337399D01*
X120875499Y-175337396D01*
X120874636Y-175330843D01*
X120882234Y-175269124D01*
X121460161Y-173805040D01*
X121503085Y-173749913D01*
X121569001Y-173726741D01*
X121636980Y-173742885D01*
X121685439Y-173793218D01*
X121699500Y-173850571D01*
X121699500Y-196575500D01*
X121679815Y-196642539D01*
X121627011Y-196688294D01*
X121575500Y-196699500D01*
X96424500Y-196699500D01*
X96357461Y-196679815D01*
X96311706Y-196627011D01*
X96300500Y-196575500D01*
X96300500Y-194389599D01*
X98167100Y-194389599D01*
X98167100Y-194514801D01*
X98199505Y-194635736D01*
X98262105Y-194744164D01*
X98350636Y-194832695D01*
X98459064Y-194895295D01*
X98579999Y-194927700D01*
X98580001Y-194927700D01*
X98705199Y-194927700D01*
X98705201Y-194927700D01*
X98826136Y-194895295D01*
X98934564Y-194832695D01*
X99023095Y-194744164D01*
X99085695Y-194635736D01*
X99118100Y-194514801D01*
X99118100Y-194389599D01*
X99085695Y-194268664D01*
X99023095Y-194160236D01*
X98934564Y-194071705D01*
X98826136Y-194009105D01*
X98826137Y-194009105D01*
X98785824Y-193998303D01*
X98705201Y-193976700D01*
X98579999Y-193976700D01*
X98499375Y-193998303D01*
X98459063Y-194009105D01*
X98350637Y-194071704D01*
X98350634Y-194071706D01*
X98262106Y-194160234D01*
X98262104Y-194160237D01*
X98199505Y-194268663D01*
X98199505Y-194268664D01*
X98167100Y-194389599D01*
X96300500Y-194389599D01*
X96300500Y-193038899D01*
X96626600Y-193038899D01*
X96626600Y-193164101D01*
X96659005Y-193285036D01*
X96721605Y-193393464D01*
X96810136Y-193481995D01*
X96918564Y-193544595D01*
X97039499Y-193577000D01*
X97039501Y-193577000D01*
X97164699Y-193577000D01*
X97164701Y-193577000D01*
X97285636Y-193544595D01*
X97394064Y-193481995D01*
X97482595Y-193393464D01*
X97545195Y-193285036D01*
X97577600Y-193164101D01*
X97577600Y-193038899D01*
X97545195Y-192917964D01*
X97482595Y-192809536D01*
X97394064Y-192721005D01*
X97285636Y-192658405D01*
X97285637Y-192658405D01*
X97245324Y-192647603D01*
X97164701Y-192626000D01*
X97039499Y-192626000D01*
X96958875Y-192647603D01*
X96918563Y-192658405D01*
X96810137Y-192721004D01*
X96810134Y-192721006D01*
X96721606Y-192809534D01*
X96721604Y-192809537D01*
X96659005Y-192917963D01*
X96652973Y-192940475D01*
X96626600Y-193038899D01*
X96300500Y-193038899D01*
X96300500Y-176290399D01*
X98071600Y-176290399D01*
X98071600Y-176415601D01*
X98104005Y-176536536D01*
X98166605Y-176644964D01*
X98255136Y-176733495D01*
X98363564Y-176796095D01*
X98484499Y-176828500D01*
X98484501Y-176828500D01*
X98609699Y-176828500D01*
X98609701Y-176828500D01*
X98730636Y-176796095D01*
X98839064Y-176733495D01*
X98927595Y-176644964D01*
X98990195Y-176536536D01*
X99022600Y-176415601D01*
X99022600Y-176290399D01*
X98990195Y-176169464D01*
X98927595Y-176061036D01*
X98839064Y-175972505D01*
X98730636Y-175909905D01*
X98730637Y-175909905D01*
X98690324Y-175899103D01*
X98609701Y-175877500D01*
X98484499Y-175877500D01*
X98403875Y-175899103D01*
X98363563Y-175909905D01*
X98255137Y-175972504D01*
X98255134Y-175972506D01*
X98166606Y-176061034D01*
X98166604Y-176061037D01*
X98104005Y-176169463D01*
X98104005Y-176169464D01*
X98071600Y-176290399D01*
X96300500Y-176290399D01*
X96300500Y-170556599D01*
X97456600Y-170556599D01*
X97456600Y-170681801D01*
X97489005Y-170802736D01*
X97551605Y-170911164D01*
X97640136Y-170999695D01*
X97748564Y-171062295D01*
X97869499Y-171094700D01*
X97869501Y-171094700D01*
X97994699Y-171094700D01*
X97994701Y-171094700D01*
X98115636Y-171062295D01*
X98224064Y-170999695D01*
X98312595Y-170911164D01*
X98375195Y-170802736D01*
X98407600Y-170681801D01*
X98407600Y-170556599D01*
X98375195Y-170435664D01*
X98312595Y-170327236D01*
X98224064Y-170238705D01*
X98115636Y-170176105D01*
X98115637Y-170176105D01*
X98075324Y-170165303D01*
X97994701Y-170143700D01*
X97869499Y-170143700D01*
X97788875Y-170165303D01*
X97748563Y-170176105D01*
X97640137Y-170238704D01*
X97640134Y-170238706D01*
X97551606Y-170327234D01*
X97551604Y-170327237D01*
X97489005Y-170435663D01*
X97489005Y-170435664D01*
X97456600Y-170556599D01*
X96300500Y-170556599D01*
X96300500Y-157404315D01*
X96320185Y-157337276D01*
X96372989Y-157291521D01*
X96442147Y-157281577D01*
X96486498Y-157296927D01*
X96566464Y-157343095D01*
X96687399Y-157375500D01*
X96687401Y-157375500D01*
X96812599Y-157375500D01*
X96812601Y-157375500D01*
X96933536Y-157343095D01*
X97041964Y-157280495D01*
X97041964Y-157280494D01*
X97047539Y-157277276D01*
X97115439Y-157260804D01*
X97181466Y-157283657D01*
X97224098Y-157337209D01*
X97227696Y-157345895D01*
X97227702Y-157345907D01*
X97298373Y-157451673D01*
X97298376Y-157451677D01*
X97388322Y-157541623D01*
X97388326Y-157541626D01*
X97494092Y-157612297D01*
X97494098Y-157612300D01*
X97494099Y-157612301D01*
X97611627Y-157660983D01*
X97736389Y-157685799D01*
X97736393Y-157685800D01*
X97736394Y-157685800D01*
X97863607Y-157685800D01*
X97863608Y-157685799D01*
X97988373Y-157660983D01*
X98105901Y-157612301D01*
X98211674Y-157541626D01*
X98301626Y-157451674D01*
X98372301Y-157345901D01*
X98420983Y-157228373D01*
X98445800Y-157103606D01*
X98445800Y-156976394D01*
X98420983Y-156851627D01*
X98372301Y-156734099D01*
X98372300Y-156734098D01*
X98372297Y-156734092D01*
X98301626Y-156628326D01*
X98301623Y-156628322D01*
X98211677Y-156538376D01*
X98211673Y-156538373D01*
X98105907Y-156467702D01*
X98105898Y-156467697D01*
X97988375Y-156419018D01*
X97988376Y-156419018D01*
X97988373Y-156419017D01*
X97988369Y-156419016D01*
X97988365Y-156419015D01*
X97863610Y-156394200D01*
X97863606Y-156394200D01*
X97736394Y-156394200D01*
X97736389Y-156394200D01*
X97611634Y-156419015D01*
X97611624Y-156419018D01*
X97494101Y-156467697D01*
X97494092Y-156467702D01*
X97388326Y-156538373D01*
X97312173Y-156614526D01*
X97250849Y-156648010D01*
X97181158Y-156643025D01*
X97138527Y-156611497D01*
X97136242Y-156613783D01*
X97041965Y-156519506D01*
X97041964Y-156519505D01*
X96933536Y-156456905D01*
X96933537Y-156456905D01*
X96893224Y-156446103D01*
X96812601Y-156424500D01*
X96687399Y-156424500D01*
X96606775Y-156446103D01*
X96566463Y-156456905D01*
X96486499Y-156503072D01*
X96418599Y-156519543D01*
X96352572Y-156496691D01*
X96309382Y-156441769D01*
X96300500Y-156395684D01*
X96300500Y-152644254D01*
X96320185Y-152577215D01*
X96372989Y-152531460D01*
X96442147Y-152521516D01*
X96471926Y-152531283D01*
X96472471Y-152529970D01*
X96478099Y-152532301D01*
X96595627Y-152580983D01*
X96720389Y-152605799D01*
X96720393Y-152605800D01*
X96720394Y-152605800D01*
X96847607Y-152605800D01*
X96847608Y-152605799D01*
X96972373Y-152580983D01*
X97089901Y-152532301D01*
X97195674Y-152461626D01*
X97285626Y-152371674D01*
X97356301Y-152265901D01*
X97404983Y-152148373D01*
X97429800Y-152023606D01*
X97429800Y-151896394D01*
X97404983Y-151771627D01*
X97356301Y-151654099D01*
X97356300Y-151654098D01*
X97356297Y-151654092D01*
X97285626Y-151548326D01*
X97285623Y-151548322D01*
X97195677Y-151458376D01*
X97195673Y-151458373D01*
X97089907Y-151387702D01*
X97089898Y-151387697D01*
X96972375Y-151339018D01*
X96972376Y-151339018D01*
X96972373Y-151339017D01*
X96972369Y-151339016D01*
X96972365Y-151339015D01*
X96847610Y-151314200D01*
X96847606Y-151314200D01*
X96720394Y-151314200D01*
X96720389Y-151314200D01*
X96595634Y-151339015D01*
X96595624Y-151339018D01*
X96472471Y-151390030D01*
X96471436Y-151387532D01*
X96414388Y-151399332D01*
X96349177Y-151374246D01*
X96307880Y-151317886D01*
X96300500Y-151275745D01*
X96300500Y-149695599D01*
X96626600Y-149695599D01*
X96626600Y-149820801D01*
X96659005Y-149941736D01*
X96721605Y-150050164D01*
X96810136Y-150138695D01*
X96918564Y-150201295D01*
X97039499Y-150233700D01*
X97039501Y-150233700D01*
X97164699Y-150233700D01*
X97164701Y-150233700D01*
X97285636Y-150201295D01*
X97394064Y-150138695D01*
X97418885Y-150113873D01*
X97480204Y-150080390D01*
X97549896Y-150085374D01*
X97605830Y-150127244D01*
X97626337Y-150169459D01*
X97656905Y-150283536D01*
X97719505Y-150391964D01*
X97808036Y-150480495D01*
X97916464Y-150543095D01*
X98037399Y-150575500D01*
X98037401Y-150575500D01*
X98162599Y-150575500D01*
X98162601Y-150575500D01*
X98283536Y-150543095D01*
X98391964Y-150480495D01*
X98480495Y-150391964D01*
X98543095Y-150283536D01*
X98575500Y-150162601D01*
X98575500Y-150037399D01*
X98543095Y-149916464D01*
X98480495Y-149808036D01*
X98391964Y-149719505D01*
X98283536Y-149656905D01*
X98283537Y-149656905D01*
X98243224Y-149646103D01*
X98162601Y-149624500D01*
X98037399Y-149624500D01*
X97956775Y-149646103D01*
X97916463Y-149656905D01*
X97808037Y-149719504D01*
X97783215Y-149744326D01*
X97721891Y-149777810D01*
X97652200Y-149772824D01*
X97596267Y-149730952D01*
X97575762Y-149688740D01*
X97545195Y-149574664D01*
X97482595Y-149466236D01*
X97394064Y-149377705D01*
X97285636Y-149315105D01*
X97285637Y-149315105D01*
X97245324Y-149304303D01*
X97164701Y-149282700D01*
X97039499Y-149282700D01*
X96958875Y-149304303D01*
X96918563Y-149315105D01*
X96810137Y-149377704D01*
X96810134Y-149377706D01*
X96721606Y-149466234D01*
X96721604Y-149466237D01*
X96659005Y-149574663D01*
X96659005Y-149574664D01*
X96626600Y-149695599D01*
X96300500Y-149695599D01*
X96300500Y-132951099D01*
X96626600Y-132951099D01*
X96626600Y-133076301D01*
X96659005Y-133197236D01*
X96721605Y-133305664D01*
X96810136Y-133394195D01*
X96918564Y-133456795D01*
X97039499Y-133489200D01*
X97039501Y-133489200D01*
X97164699Y-133489200D01*
X97164701Y-133489200D01*
X97285636Y-133456795D01*
X97394064Y-133394195D01*
X97482595Y-133305664D01*
X97545195Y-133197236D01*
X97577600Y-133076301D01*
X97577600Y-132951099D01*
X97545195Y-132830164D01*
X97482595Y-132721736D01*
X97394064Y-132633205D01*
X97285636Y-132570605D01*
X97285637Y-132570605D01*
X97245324Y-132559803D01*
X97164701Y-132538200D01*
X97039499Y-132538200D01*
X96958875Y-132559803D01*
X96918563Y-132570605D01*
X96810137Y-132633204D01*
X96810134Y-132633206D01*
X96721606Y-132721734D01*
X96721604Y-132721737D01*
X96659005Y-132830163D01*
X96659005Y-132830164D01*
X96626600Y-132951099D01*
X96300500Y-132951099D01*
X96300500Y-104657273D01*
X105199500Y-104657273D01*
X105199500Y-104762727D01*
X105226793Y-104864587D01*
X105279520Y-104955913D01*
X105354087Y-105030480D01*
X105445413Y-105083207D01*
X105547273Y-105110500D01*
X105547275Y-105110500D01*
X105652725Y-105110500D01*
X105652727Y-105110500D01*
X105754587Y-105083207D01*
X105845913Y-105030480D01*
X105920480Y-104955913D01*
X105973207Y-104864587D01*
X106000500Y-104762727D01*
X106000500Y-104657273D01*
X105973207Y-104555413D01*
X105920480Y-104464087D01*
X105845913Y-104389520D01*
X105779059Y-104350922D01*
X105754589Y-104336794D01*
X105754588Y-104336793D01*
X105754587Y-104336793D01*
X105652727Y-104309500D01*
X105547273Y-104309500D01*
X105445413Y-104336793D01*
X105445410Y-104336794D01*
X105354085Y-104389521D01*
X105279521Y-104464085D01*
X105226794Y-104555410D01*
X105226793Y-104555413D01*
X105199500Y-104657273D01*
X96300500Y-104657273D01*
X96300500Y-102981099D01*
X97024500Y-102981099D01*
X97024500Y-103106301D01*
X97056905Y-103227236D01*
X97119505Y-103335664D01*
X97208036Y-103424195D01*
X97316464Y-103486795D01*
X97437399Y-103519200D01*
X97437401Y-103519200D01*
X97562599Y-103519200D01*
X97562601Y-103519200D01*
X97683536Y-103486795D01*
X97791964Y-103424195D01*
X97880495Y-103335664D01*
X97943095Y-103227236D01*
X97975500Y-103106301D01*
X97975500Y-102981099D01*
X97943095Y-102860164D01*
X97880495Y-102751736D01*
X97791964Y-102663205D01*
X97683536Y-102600605D01*
X97683537Y-102600605D01*
X97643224Y-102589803D01*
X97562601Y-102568200D01*
X97437399Y-102568200D01*
X97356775Y-102589803D01*
X97316463Y-102600605D01*
X97208037Y-102663204D01*
X97208034Y-102663206D01*
X97119506Y-102751734D01*
X97119504Y-102751737D01*
X97056905Y-102860163D01*
X97056905Y-102860164D01*
X97024500Y-102981099D01*
X96300500Y-102981099D01*
X96300500Y-99424500D01*
X96320185Y-99357461D01*
X96372989Y-99311706D01*
X96424500Y-99300500D01*
X121575500Y-99300500D01*
X121642539Y-99320185D01*
G37*
%TD.AperFunction*%
%TA.AperFunction,Conductor*%
G36*
X104418917Y-118770260D02*
G01*
X104450336Y-118810694D01*
X107246842Y-124561385D01*
X107258457Y-124630282D01*
X107230980Y-124694522D01*
X107173134Y-124733709D01*
X107103285Y-124735401D01*
X107103251Y-124735392D01*
X107062601Y-124724500D01*
X106937399Y-124724500D01*
X106856775Y-124746103D01*
X106816463Y-124756905D01*
X106708037Y-124819504D01*
X106708034Y-124819506D01*
X106619506Y-124908034D01*
X106619504Y-124908037D01*
X106556905Y-125016463D01*
X106556905Y-125016464D01*
X106524500Y-125137399D01*
X106524500Y-125262601D01*
X106556905Y-125383536D01*
X106619505Y-125491964D01*
X106708036Y-125580495D01*
X106816464Y-125643095D01*
X106937399Y-125675500D01*
X106937401Y-125675500D01*
X107062599Y-125675500D01*
X107062601Y-125675500D01*
X107183536Y-125643095D01*
X107291964Y-125580495D01*
X107380495Y-125491964D01*
X107436815Y-125394412D01*
X107487379Y-125346199D01*
X107555986Y-125332975D01*
X107620851Y-125358942D01*
X107655715Y-125402186D01*
X110019712Y-130263473D01*
X110031327Y-130332370D01*
X110027973Y-130349794D01*
X110004500Y-130437398D01*
X110004500Y-130437399D01*
X110004500Y-130562601D01*
X110036905Y-130683536D01*
X110099505Y-130791964D01*
X110188036Y-130880495D01*
X110296464Y-130943095D01*
X110296467Y-130943096D01*
X110297798Y-130943864D01*
X110346014Y-130994430D01*
X110359238Y-131063037D01*
X110333271Y-131127902D01*
X110276357Y-131168432D01*
X110242096Y-131175092D01*
X108655797Y-131255752D01*
X108587844Y-131239497D01*
X108539467Y-131189085D01*
X108525500Y-131131912D01*
X108525500Y-131045400D01*
X108524894Y-131043137D01*
X108493095Y-130924464D01*
X108430495Y-130816036D01*
X108341964Y-130727505D01*
X108233536Y-130664905D01*
X108233537Y-130664905D01*
X108189301Y-130653052D01*
X108112601Y-130632500D01*
X107987399Y-130632500D01*
X107910699Y-130653052D01*
X107866463Y-130664905D01*
X107758037Y-130727504D01*
X107758034Y-130727506D01*
X107669506Y-130816034D01*
X107669504Y-130816037D01*
X107606904Y-130924465D01*
X107605758Y-130927233D01*
X107604166Y-130929207D01*
X107602842Y-130931502D01*
X107602484Y-130931295D01*
X107561915Y-130981635D01*
X107495620Y-131003698D01*
X107427921Y-130986417D01*
X107403517Y-130967458D01*
X107390665Y-130954606D01*
X107390664Y-130954605D01*
X107282236Y-130892005D01*
X107282237Y-130892005D01*
X107239273Y-130880493D01*
X107161301Y-130859600D01*
X107036099Y-130859600D01*
X106958127Y-130880493D01*
X106915163Y-130892005D01*
X106806737Y-130954604D01*
X106806734Y-130954606D01*
X106718206Y-131043134D01*
X106718204Y-131043137D01*
X106655605Y-131151563D01*
X106645551Y-131189085D01*
X106623688Y-131270680D01*
X106623200Y-131272500D01*
X106623200Y-131397701D01*
X106629918Y-131422773D01*
X106628255Y-131492623D01*
X106589092Y-131550485D01*
X106534461Y-131576458D01*
X105241949Y-131834960D01*
X105172351Y-131828805D01*
X105117129Y-131786000D01*
X105093816Y-131720134D01*
X105108932Y-131655865D01*
X105108884Y-131655846D01*
X105109006Y-131655550D01*
X105109813Y-131652121D01*
X105110159Y-131651515D01*
X105111995Y-131648336D01*
X105144400Y-131527401D01*
X105144400Y-131402199D01*
X105111995Y-131281264D01*
X105049395Y-131172836D01*
X104960864Y-131084305D01*
X104852436Y-131021705D01*
X104852437Y-131021705D01*
X104789895Y-131004947D01*
X104731501Y-130989300D01*
X104606299Y-130989300D01*
X104547905Y-131004947D01*
X104485363Y-131021705D01*
X104376937Y-131084304D01*
X104376934Y-131084306D01*
X104288406Y-131172834D01*
X104288404Y-131172837D01*
X104225805Y-131281263D01*
X104225804Y-131281266D01*
X104201260Y-131372861D01*
X104164894Y-131432520D01*
X104102047Y-131463048D01*
X104032671Y-131454752D01*
X103993805Y-131428446D01*
X103990865Y-131425506D01*
X103990864Y-131425505D01*
X103882436Y-131362905D01*
X103882437Y-131362905D01*
X103842124Y-131352103D01*
X103761501Y-131330500D01*
X103636299Y-131330500D01*
X103555675Y-131352103D01*
X103515363Y-131362905D01*
X103406937Y-131425504D01*
X103406934Y-131425506D01*
X103318406Y-131514034D01*
X103318404Y-131514037D01*
X103255805Y-131622463D01*
X103255805Y-131622464D01*
X103223400Y-131743399D01*
X103223400Y-131868601D01*
X103255805Y-131989536D01*
X103318405Y-132097964D01*
X103406936Y-132186495D01*
X103515364Y-132249095D01*
X103636299Y-132281500D01*
X103636301Y-132281500D01*
X103761499Y-132281500D01*
X103761501Y-132281500D01*
X103882436Y-132249095D01*
X103990864Y-132186495D01*
X104024540Y-132152819D01*
X104085863Y-132119334D01*
X104112221Y-132116500D01*
X104368576Y-132116500D01*
X104368579Y-132116500D01*
X104447549Y-132095340D01*
X104447558Y-132095334D01*
X104447932Y-132095181D01*
X104448279Y-132095143D01*
X104455399Y-132093236D01*
X104455696Y-132094345D01*
X104517400Y-132087708D01*
X104579882Y-132118979D01*
X104615537Y-132179066D01*
X104613048Y-132248891D01*
X104603341Y-132270754D01*
X103453468Y-134305145D01*
X103448086Y-134314665D01*
X103445704Y-134317203D01*
X103428020Y-134350167D01*
X103427323Y-134351401D01*
X103409576Y-134382801D01*
X103409236Y-134383645D01*
X103408921Y-134384316D01*
X103408770Y-134384718D01*
X103407790Y-134387225D01*
X103407603Y-134387687D01*
X103407373Y-134388413D01*
X103407059Y-134389241D01*
X103398821Y-134424335D01*
X103398167Y-134426986D01*
X103389138Y-134461963D01*
X103389028Y-134462855D01*
X103389029Y-134462856D01*
X103388552Y-134466749D01*
X103388499Y-134467178D01*
X103388465Y-134467927D01*
X103388374Y-134468830D01*
X103389501Y-134504904D01*
X103389500Y-134504904D01*
X103389544Y-134506334D01*
X103389887Y-134543716D01*
X103390818Y-134547071D01*
X103391160Y-134558005D01*
X103391160Y-134558006D01*
X103438316Y-136066989D01*
X103437188Y-136083855D01*
X103437001Y-136089380D01*
X103439575Y-136115852D01*
X103440096Y-136123973D01*
X103440927Y-136150555D01*
X103440929Y-136150563D01*
X103443916Y-136160463D01*
X103444917Y-136170748D01*
X103455685Y-136199464D01*
X103464545Y-136228827D01*
X103464548Y-136228832D01*
X103466823Y-136233874D01*
X103471043Y-136242461D01*
X103473623Y-136247301D01*
X103489087Y-136268936D01*
X103489088Y-136268936D01*
X103491458Y-136272252D01*
X103507614Y-136298319D01*
X103515152Y-136305400D01*
X103521165Y-136313812D01*
X103521166Y-136313813D01*
X103521167Y-136313814D01*
X103541701Y-136330707D01*
X103547820Y-136336089D01*
X103567197Y-136354292D01*
X103571716Y-136357540D01*
X103579588Y-136362815D01*
X103584298Y-136365751D01*
X103584300Y-136365753D01*
X103608528Y-136376765D01*
X103615792Y-136380360D01*
X103639248Y-136392942D01*
X103639250Y-136392942D01*
X103639253Y-136392944D01*
X103644427Y-136394900D01*
X103660420Y-136400352D01*
X103889739Y-136504589D01*
X103903782Y-136510972D01*
X103956667Y-136556633D01*
X103959856Y-136561855D01*
X103970798Y-136580807D01*
X103979520Y-136595913D01*
X104054087Y-136670480D01*
X104145413Y-136723207D01*
X104247273Y-136750500D01*
X104247275Y-136750500D01*
X104352725Y-136750500D01*
X104352727Y-136750500D01*
X104454587Y-136723207D01*
X104545913Y-136670480D01*
X104620480Y-136595913D01*
X104673207Y-136504587D01*
X104700500Y-136402727D01*
X104700500Y-136297273D01*
X104673207Y-136195413D01*
X104673202Y-136195405D01*
X104671471Y-136191224D01*
X104664002Y-136121754D01*
X104678645Y-136081770D01*
X104679441Y-136080392D01*
X104723207Y-136004587D01*
X104750500Y-135902727D01*
X104750500Y-135797273D01*
X104728732Y-135716032D01*
X104730395Y-135646186D01*
X104769557Y-135588323D01*
X104833786Y-135560819D01*
X104860261Y-135560501D01*
X113033378Y-136338893D01*
X113098248Y-136364843D01*
X113138790Y-136421747D01*
X113142132Y-136491537D01*
X113129008Y-136524331D01*
X113080207Y-136608859D01*
X113080205Y-136608862D01*
X113063695Y-136670478D01*
X113047800Y-136729799D01*
X113047800Y-136855001D01*
X113080205Y-136975936D01*
X113142805Y-137084364D01*
X113231336Y-137172895D01*
X113339764Y-137235495D01*
X113460699Y-137267900D01*
X113460701Y-137267900D01*
X113585899Y-137267900D01*
X113585901Y-137267900D01*
X113622559Y-137258077D01*
X113692405Y-137259738D01*
X113750269Y-137298899D01*
X113760898Y-137313916D01*
X113769906Y-137328886D01*
X113776793Y-137354587D01*
X113829520Y-137445913D01*
X113856662Y-137473055D01*
X113864491Y-137486065D01*
X113869650Y-137505766D01*
X113879411Y-137523642D01*
X113878321Y-137538878D01*
X113882191Y-137553655D01*
X113875879Y-137573017D01*
X113874427Y-137593334D01*
X113863939Y-137609652D01*
X113860539Y-137620085D01*
X113853589Y-137625757D01*
X113845926Y-137637681D01*
X113829521Y-137654085D01*
X113776794Y-137745410D01*
X113776793Y-137745413D01*
X113749500Y-137847273D01*
X113749500Y-137952727D01*
X113761712Y-137998301D01*
X113776793Y-138054586D01*
X113776794Y-138054589D01*
X113781419Y-138062599D01*
X113829520Y-138145913D01*
X113904087Y-138220480D01*
X113995413Y-138273207D01*
X114097273Y-138300500D01*
X114097275Y-138300500D01*
X114202725Y-138300500D01*
X114202727Y-138300500D01*
X114304587Y-138273207D01*
X114395913Y-138220480D01*
X114470480Y-138145913D01*
X114523207Y-138054587D01*
X114550500Y-137952727D01*
X114550500Y-137847273D01*
X114523207Y-137745413D01*
X114470480Y-137654087D01*
X114454074Y-137637681D01*
X114420589Y-137576358D01*
X114425573Y-137506666D01*
X114454074Y-137462319D01*
X114470480Y-137445913D01*
X114523207Y-137354587D01*
X114550500Y-137252727D01*
X114550500Y-137147273D01*
X114523207Y-137045413D01*
X114470480Y-136954087D01*
X114395913Y-136879520D01*
X114304587Y-136826793D01*
X114202727Y-136799500D01*
X114112625Y-136799500D01*
X114086299Y-136791769D01*
X114059207Y-136787404D01*
X114053254Y-136782066D01*
X114045586Y-136779815D01*
X114027620Y-136759082D01*
X114007187Y-136740760D01*
X114002649Y-136730263D01*
X113999831Y-136727011D01*
X113993072Y-136708411D01*
X113992959Y-136708002D01*
X113966395Y-136608864D01*
X113965005Y-136606457D01*
X113962184Y-136596208D01*
X113962651Y-136568664D01*
X113959708Y-136541278D01*
X113963236Y-136534229D01*
X113963370Y-136526349D01*
X113978652Y-136503432D01*
X113990984Y-136478799D01*
X113997763Y-136474776D01*
X114002136Y-136468220D01*
X114027381Y-136457204D01*
X114051073Y-136443148D01*
X114061438Y-136442343D01*
X114066175Y-136440277D01*
X114073291Y-136441423D01*
X114093492Y-136439856D01*
X115670847Y-136590080D01*
X115735717Y-136616031D01*
X115760674Y-136642412D01*
X115821845Y-136729799D01*
X116258846Y-137354085D01*
X116267085Y-137365854D01*
X116289403Y-137432063D01*
X116289500Y-137436963D01*
X116289500Y-138000500D01*
X116269815Y-138067539D01*
X116217011Y-138113294D01*
X116165500Y-138124500D01*
X116137399Y-138124500D01*
X116057486Y-138145913D01*
X116016463Y-138156905D01*
X115908037Y-138219504D01*
X115908034Y-138219506D01*
X115819506Y-138308034D01*
X115819504Y-138308037D01*
X115756905Y-138416463D01*
X115756905Y-138416464D01*
X115724500Y-138537399D01*
X115724500Y-138662601D01*
X115748649Y-138752725D01*
X115756905Y-138783536D01*
X115823569Y-138899003D01*
X115821297Y-138900314D01*
X115841806Y-138953360D01*
X115841335Y-138978601D01*
X115734340Y-139861310D01*
X115706732Y-139925494D01*
X115648805Y-139964562D01*
X115621539Y-139969961D01*
X114590433Y-140055886D01*
X114521990Y-140041836D01*
X114498434Y-140024417D01*
X114498409Y-140024451D01*
X114496528Y-140023008D01*
X114492454Y-140019995D01*
X114491965Y-140019506D01*
X114491964Y-140019505D01*
X114383536Y-139956905D01*
X114383537Y-139956905D01*
X114343224Y-139946103D01*
X114262601Y-139924500D01*
X114137399Y-139924500D01*
X114056775Y-139946103D01*
X114016463Y-139956905D01*
X113908037Y-140019504D01*
X113908034Y-140019506D01*
X113819506Y-140108034D01*
X113819504Y-140108037D01*
X113756905Y-140216463D01*
X113756905Y-140216464D01*
X113724500Y-140337399D01*
X113724500Y-140462601D01*
X113756905Y-140583536D01*
X113819505Y-140691964D01*
X113908036Y-140780495D01*
X114016464Y-140843095D01*
X114137399Y-140875500D01*
X114137401Y-140875500D01*
X114262599Y-140875500D01*
X114262601Y-140875500D01*
X114383536Y-140843095D01*
X114491964Y-140780495D01*
X114561575Y-140710883D01*
X114622894Y-140677401D01*
X114638944Y-140674996D01*
X115994150Y-140562063D01*
X116003218Y-140563163D01*
X116034763Y-140558679D01*
X116066522Y-140556033D01*
X116075119Y-140552943D01*
X116084160Y-140551659D01*
X116113468Y-140539164D01*
X116123580Y-140535530D01*
X116193326Y-140531392D01*
X116254238Y-140565619D01*
X116286977Y-140627343D01*
X116289500Y-140652230D01*
X116289500Y-151894700D01*
X116269815Y-151961739D01*
X116217011Y-152007494D01*
X116165500Y-152018700D01*
X116069699Y-152018700D01*
X116017642Y-152032649D01*
X115948763Y-152051105D01*
X115840337Y-152113704D01*
X115840334Y-152113706D01*
X115751806Y-152202234D01*
X115751804Y-152202237D01*
X115689205Y-152310663D01*
X115689203Y-152310668D01*
X115675754Y-152360859D01*
X115643661Y-152416444D01*
X114730522Y-153329584D01*
X114730518Y-153329590D01*
X114677792Y-153420912D01*
X114677793Y-153420913D01*
X114650500Y-153522773D01*
X114650500Y-159298324D01*
X114630815Y-159365363D01*
X114578011Y-159411118D01*
X114508853Y-159421062D01*
X114445297Y-159392037D01*
X114438819Y-159386005D01*
X114172219Y-159119405D01*
X114138734Y-159058082D01*
X114135900Y-159031724D01*
X114135900Y-158984100D01*
X114108900Y-158883336D01*
X114103495Y-158863164D01*
X114040895Y-158754736D01*
X113952364Y-158666205D01*
X113843936Y-158603605D01*
X113843937Y-158603605D01*
X113790295Y-158589231D01*
X113723001Y-158571200D01*
X113723000Y-158571200D01*
X113721283Y-158570740D01*
X113661623Y-158534374D01*
X113645992Y-158512969D01*
X113585295Y-158407836D01*
X113496764Y-158319305D01*
X113388336Y-158256705D01*
X113388337Y-158256705D01*
X113348024Y-158245903D01*
X113267401Y-158224300D01*
X113142199Y-158224300D01*
X113061575Y-158245903D01*
X113021263Y-158256705D01*
X112912837Y-158319304D01*
X112912834Y-158319306D01*
X112824306Y-158407834D01*
X112824304Y-158407837D01*
X112761705Y-158516263D01*
X112761705Y-158516264D01*
X112729300Y-158637199D01*
X112729300Y-158762401D01*
X112761705Y-158883336D01*
X112824305Y-158991764D01*
X112912836Y-159080295D01*
X113021264Y-159142895D01*
X113142199Y-159175300D01*
X113142203Y-159175300D01*
X113143916Y-159175759D01*
X113203576Y-159212124D01*
X113219208Y-159233532D01*
X113279905Y-159338664D01*
X113368436Y-159427195D01*
X113476864Y-159489795D01*
X113597799Y-159522200D01*
X113645424Y-159522200D01*
X113674867Y-159530845D01*
X113704850Y-159537368D01*
X113709865Y-159541122D01*
X113712463Y-159541885D01*
X113733100Y-159558514D01*
X113868182Y-159693595D01*
X113901666Y-159754916D01*
X113904500Y-159781275D01*
X113904500Y-162442000D01*
X113884815Y-162509039D01*
X113832011Y-162554794D01*
X113780500Y-162566000D01*
X113775599Y-162566000D01*
X113694975Y-162587603D01*
X113654663Y-162598405D01*
X113546237Y-162661004D01*
X113546234Y-162661006D01*
X113457706Y-162749534D01*
X113457704Y-162749537D01*
X113395105Y-162857963D01*
X113395103Y-162857968D01*
X113381654Y-162908159D01*
X113349561Y-162963744D01*
X112629522Y-163683784D01*
X112629520Y-163683787D01*
X112576794Y-163775110D01*
X112554777Y-163857275D01*
X112554777Y-163857279D01*
X112549500Y-163876973D01*
X112549500Y-163876975D01*
X112549500Y-168889460D01*
X112532888Y-168951458D01*
X112506907Y-168996459D01*
X112506905Y-168996462D01*
X112492694Y-169049500D01*
X112474500Y-169117399D01*
X112474500Y-169242601D01*
X112506905Y-169363536D01*
X112569505Y-169471964D01*
X112658036Y-169560495D01*
X112766464Y-169623095D01*
X112816659Y-169636545D01*
X112830545Y-169644562D01*
X112843991Y-169647487D01*
X112872245Y-169668638D01*
X113044881Y-169841274D01*
X113078366Y-169902597D01*
X113081200Y-169928955D01*
X113081200Y-173273160D01*
X113064588Y-173335158D01*
X113038607Y-173380159D01*
X113038605Y-173380162D01*
X113006199Y-173501101D01*
X113005139Y-173509158D01*
X113004287Y-173509045D01*
X113001975Y-173526609D01*
X112994977Y-173552726D01*
X112978700Y-173613473D01*
X112978700Y-177916044D01*
X112959015Y-177983083D01*
X112942381Y-178003725D01*
X112043144Y-178902961D01*
X111987559Y-178935054D01*
X111937368Y-178948503D01*
X111937363Y-178948505D01*
X111828937Y-179011104D01*
X111828934Y-179011106D01*
X111740406Y-179099634D01*
X111740404Y-179099637D01*
X111677805Y-179208063D01*
X111677805Y-179208064D01*
X111645400Y-179328999D01*
X111645400Y-179454201D01*
X111677805Y-179575136D01*
X111740405Y-179683564D01*
X111828936Y-179772095D01*
X111937364Y-179834695D01*
X112058299Y-179867100D01*
X112058301Y-179867100D01*
X112183499Y-179867100D01*
X112183501Y-179867100D01*
X112304436Y-179834695D01*
X112412864Y-179772095D01*
X112501395Y-179683564D01*
X112563995Y-179575136D01*
X112577445Y-179524938D01*
X112609536Y-179469355D01*
X112901845Y-179177046D01*
X112963166Y-179143563D01*
X113032858Y-179148547D01*
X113088791Y-179190419D01*
X113113208Y-179255883D01*
X113109299Y-179296821D01*
X113104000Y-179316596D01*
X113104000Y-179316599D01*
X113104000Y-179441801D01*
X113136405Y-179562736D01*
X113199005Y-179671164D01*
X113287536Y-179759695D01*
X113395964Y-179822295D01*
X113516899Y-179854700D01*
X113516901Y-179854700D01*
X113642099Y-179854700D01*
X113642101Y-179854700D01*
X113763036Y-179822295D01*
X113871464Y-179759695D01*
X113959995Y-179671164D01*
X114022595Y-179562736D01*
X114055000Y-179441801D01*
X114055000Y-179394175D01*
X114074685Y-179327136D01*
X114091319Y-179306494D01*
X114254250Y-179143563D01*
X114471062Y-178926751D01*
X114511940Y-178855949D01*
X114533100Y-178776978D01*
X114533100Y-178695221D01*
X114533100Y-172837399D01*
X115274500Y-172837399D01*
X115274500Y-172962601D01*
X115306905Y-173083536D01*
X115369505Y-173191964D01*
X115458036Y-173280495D01*
X115566464Y-173343095D01*
X115681569Y-173373937D01*
X115741227Y-173410301D01*
X115771756Y-173473148D01*
X115769248Y-173525804D01*
X115753308Y-173585294D01*
X115750600Y-173595399D01*
X115750600Y-173720601D01*
X115783005Y-173841536D01*
X115845605Y-173949964D01*
X115934136Y-174038495D01*
X116042564Y-174101095D01*
X116163499Y-174133500D01*
X116163501Y-174133500D01*
X116288699Y-174133500D01*
X116288701Y-174133500D01*
X116409636Y-174101095D01*
X116518064Y-174038495D01*
X116606595Y-173949964D01*
X116669195Y-173841536D01*
X116701600Y-173720601D01*
X116701600Y-173672975D01*
X116721285Y-173605936D01*
X116737919Y-173585294D01*
X116916232Y-173406981D01*
X117098462Y-173224751D01*
X117139340Y-173153949D01*
X117160500Y-173074978D01*
X117160500Y-172993221D01*
X117160500Y-170763321D01*
X117180185Y-170696282D01*
X117196819Y-170675640D01*
X117204043Y-170668416D01*
X117230495Y-170641964D01*
X117293095Y-170533536D01*
X117325500Y-170412601D01*
X117325500Y-170287399D01*
X117293095Y-170166464D01*
X117230495Y-170058036D01*
X117168103Y-169995644D01*
X117134618Y-169934321D01*
X117139602Y-169864629D01*
X117181474Y-169808696D01*
X117193776Y-169800581D01*
X117245913Y-169770480D01*
X117320480Y-169695913D01*
X117373207Y-169604587D01*
X117400500Y-169502727D01*
X117400500Y-169397273D01*
X117373207Y-169295413D01*
X117320480Y-169204087D01*
X117245913Y-169129520D01*
X117164255Y-169082375D01*
X117154589Y-169076794D01*
X117154588Y-169076793D01*
X117154587Y-169076793D01*
X117052727Y-169049500D01*
X116947273Y-169049500D01*
X116845413Y-169076793D01*
X116845410Y-169076794D01*
X116754085Y-169129521D01*
X116679521Y-169204085D01*
X116626794Y-169295410D01*
X116626793Y-169295413D01*
X116599500Y-169397273D01*
X116599500Y-169502727D01*
X116626793Y-169604587D01*
X116663138Y-169667539D01*
X116679521Y-169695914D01*
X116694236Y-169710629D01*
X116727721Y-169771952D01*
X116722737Y-169841644D01*
X116680865Y-169897577D01*
X116668555Y-169905697D01*
X116558039Y-169969502D01*
X116558034Y-169969506D01*
X116469506Y-170058034D01*
X116469504Y-170058037D01*
X116406905Y-170166463D01*
X116398618Y-170197390D01*
X116374500Y-170287399D01*
X116374500Y-170412601D01*
X116380680Y-170435663D01*
X116406905Y-170533536D01*
X116469504Y-170641962D01*
X116469506Y-170641965D01*
X116503181Y-170675640D01*
X116536666Y-170736963D01*
X116539500Y-170763321D01*
X116539500Y-172854124D01*
X116530855Y-172883564D01*
X116524332Y-172913551D01*
X116520577Y-172918566D01*
X116519815Y-172921163D01*
X116503181Y-172941805D01*
X116437181Y-173007805D01*
X116375858Y-173041290D01*
X116306166Y-173036306D01*
X116250233Y-172994434D01*
X116225816Y-172928970D01*
X116225500Y-172920124D01*
X116225500Y-172837400D01*
X116225500Y-172837399D01*
X116193095Y-172716464D01*
X116130495Y-172608036D01*
X116041964Y-172519505D01*
X115933536Y-172456905D01*
X115933537Y-172456905D01*
X115893224Y-172446103D01*
X115812601Y-172424500D01*
X115687399Y-172424500D01*
X115606775Y-172446103D01*
X115566463Y-172456905D01*
X115458037Y-172519504D01*
X115458034Y-172519506D01*
X115369506Y-172608034D01*
X115369504Y-172608037D01*
X115306905Y-172716463D01*
X115306905Y-172716464D01*
X115274500Y-172837399D01*
X114533100Y-172837399D01*
X114533100Y-172649500D01*
X114552785Y-172582461D01*
X114605589Y-172536706D01*
X114657100Y-172525500D01*
X114712599Y-172525500D01*
X114712601Y-172525500D01*
X114833536Y-172493095D01*
X114941964Y-172430495D01*
X115030495Y-172341964D01*
X115093095Y-172233536D01*
X115125500Y-172112601D01*
X115125500Y-171987399D01*
X115093095Y-171866464D01*
X115030495Y-171758036D01*
X114941964Y-171669505D01*
X114833536Y-171606905D01*
X114833537Y-171606905D01*
X114793224Y-171596103D01*
X114712601Y-171574500D01*
X114657100Y-171574500D01*
X114590061Y-171554815D01*
X114544306Y-171502011D01*
X114533100Y-171450500D01*
X114533100Y-169082375D01*
X114552785Y-169015336D01*
X114569419Y-168994694D01*
X114787819Y-168776294D01*
X114849142Y-168742809D01*
X114918834Y-168747793D01*
X114974767Y-168789665D01*
X114999184Y-168855129D01*
X114999500Y-168863975D01*
X114999500Y-168902727D01*
X115026793Y-169004587D01*
X115079520Y-169095913D01*
X115154087Y-169170480D01*
X115245413Y-169223207D01*
X115347273Y-169250500D01*
X115347275Y-169250500D01*
X115452725Y-169250500D01*
X115452727Y-169250500D01*
X115554587Y-169223207D01*
X115554588Y-169223206D01*
X115562438Y-169221103D01*
X115562929Y-169222937D01*
X115622004Y-169216580D01*
X115637550Y-169221144D01*
X115637562Y-169221103D01*
X115645411Y-169223206D01*
X115645413Y-169223207D01*
X115747273Y-169250500D01*
X115747275Y-169250500D01*
X115852725Y-169250500D01*
X115852727Y-169250500D01*
X115954587Y-169223207D01*
X116045913Y-169170480D01*
X116120480Y-169095913D01*
X116173207Y-169004587D01*
X116200500Y-168902727D01*
X116200500Y-168797273D01*
X116173207Y-168695413D01*
X116120480Y-168604087D01*
X116045913Y-168529520D01*
X115979059Y-168490922D01*
X115954589Y-168476794D01*
X115954588Y-168476793D01*
X115954587Y-168476793D01*
X115852727Y-168449500D01*
X115747273Y-168449500D01*
X115645413Y-168476793D01*
X115645411Y-168476793D01*
X115637562Y-168478897D01*
X115637071Y-168477065D01*
X115577977Y-168483416D01*
X115576512Y-168483142D01*
X115560099Y-168479975D01*
X115554587Y-168476793D01*
X115452727Y-168449500D01*
X115402124Y-168449500D01*
X115390487Y-168447255D01*
X115369544Y-168436453D01*
X115346936Y-168429815D01*
X115339068Y-168420735D01*
X115328390Y-168415228D01*
X115316610Y-168394817D01*
X115301181Y-168377011D01*
X115299471Y-168365120D01*
X115293465Y-168354713D01*
X115294590Y-168331175D01*
X115291237Y-168307853D01*
X115296228Y-168296923D01*
X115296802Y-168284923D01*
X115310473Y-168265731D01*
X115320262Y-168244297D01*
X115326294Y-168237819D01*
X115974846Y-167589267D01*
X116036169Y-167555782D01*
X116105861Y-167560766D01*
X116150208Y-167589267D01*
X116171636Y-167610695D01*
X116280064Y-167673295D01*
X116400999Y-167705700D01*
X116401001Y-167705700D01*
X116526199Y-167705700D01*
X116526201Y-167705700D01*
X116647136Y-167673295D01*
X116755564Y-167610695D01*
X116844095Y-167522164D01*
X116906695Y-167413736D01*
X116920145Y-167363538D01*
X116952236Y-167307955D01*
X117628689Y-166631502D01*
X117690010Y-166598019D01*
X117759702Y-166603003D01*
X117815635Y-166644875D01*
X117823755Y-166657185D01*
X117839502Y-166684460D01*
X117839504Y-166684463D01*
X117839505Y-166684464D01*
X117928036Y-166772995D01*
X118036464Y-166835595D01*
X118142424Y-166863987D01*
X118202082Y-166900351D01*
X118232611Y-166963198D01*
X118224316Y-167032574D01*
X118179831Y-167086452D01*
X118142423Y-167103535D01*
X118054468Y-167127103D01*
X118054463Y-167127105D01*
X117946037Y-167189704D01*
X117946034Y-167189706D01*
X117857506Y-167278234D01*
X117857504Y-167278237D01*
X117794905Y-167386663D01*
X117794905Y-167386664D01*
X117762500Y-167507599D01*
X117762500Y-167632801D01*
X117794905Y-167753736D01*
X117857505Y-167862164D01*
X117946036Y-167950695D01*
X118054464Y-168013295D01*
X118175399Y-168045700D01*
X118175401Y-168045700D01*
X118300600Y-168045700D01*
X118300601Y-168045700D01*
X118340779Y-168034934D01*
X118410626Y-168036595D01*
X118468489Y-168075756D01*
X118494780Y-168132027D01*
X118576856Y-168573183D01*
X118569766Y-168642692D01*
X118526222Y-168697334D01*
X118487043Y-168715638D01*
X118471105Y-168719908D01*
X118445411Y-168726793D01*
X118445410Y-168726794D01*
X118354085Y-168779521D01*
X118279521Y-168854085D01*
X118226794Y-168945410D01*
X118226793Y-168945413D01*
X118199500Y-169047273D01*
X118199500Y-169152727D01*
X118223582Y-169242601D01*
X118226793Y-169254586D01*
X118226794Y-169254589D01*
X118240922Y-169279059D01*
X118279520Y-169345913D01*
X118354087Y-169420480D01*
X118445413Y-169473207D01*
X118547273Y-169500500D01*
X118547275Y-169500500D01*
X118652725Y-169500500D01*
X118652727Y-169500500D01*
X118660235Y-169498488D01*
X118730083Y-169500147D01*
X118787947Y-169539307D01*
X118815454Y-169603534D01*
X118803871Y-169672437D01*
X118798661Y-169682058D01*
X118608619Y-169998795D01*
X118608619Y-169998796D01*
X118603411Y-170007474D01*
X118601538Y-170009349D01*
X118582451Y-170042406D01*
X118581865Y-170043384D01*
X118581866Y-170043384D01*
X118562557Y-170075567D01*
X118562057Y-170076776D01*
X118562056Y-170076780D01*
X118560660Y-170080149D01*
X118551033Y-170116076D01*
X118550479Y-170118079D01*
X118540232Y-170153904D01*
X118539681Y-170157606D01*
X118539500Y-170158822D01*
X118539500Y-170159122D01*
X118539500Y-170197390D01*
X118538856Y-170235649D01*
X118539500Y-170238225D01*
X118539500Y-173294187D01*
X118519815Y-173361226D01*
X118467011Y-173406981D01*
X118397853Y-173416925D01*
X118334297Y-173387900D01*
X118296523Y-173329122D01*
X118295735Y-173326319D01*
X118293095Y-173316464D01*
X118230495Y-173208036D01*
X118141964Y-173119505D01*
X118033536Y-173056905D01*
X118033537Y-173056905D01*
X117975261Y-173041290D01*
X117912601Y-173024500D01*
X117787399Y-173024500D01*
X117724739Y-173041290D01*
X117666463Y-173056905D01*
X117558037Y-173119504D01*
X117558034Y-173119506D01*
X117469506Y-173208034D01*
X117469504Y-173208037D01*
X117406905Y-173316463D01*
X117406905Y-173316464D01*
X117374500Y-173437399D01*
X117374500Y-173562601D01*
X117406905Y-173683536D01*
X117469505Y-173791964D01*
X117558036Y-173880495D01*
X117666464Y-173943095D01*
X117787399Y-173975500D01*
X117787401Y-173975500D01*
X117912599Y-173975500D01*
X117912601Y-173975500D01*
X118033536Y-173943095D01*
X118141964Y-173880495D01*
X118230495Y-173791964D01*
X118293095Y-173683536D01*
X118295725Y-173673717D01*
X118332090Y-173614059D01*
X118394936Y-173583529D01*
X118464312Y-173591823D01*
X118518190Y-173636308D01*
X118539465Y-173702860D01*
X118539500Y-173705812D01*
X118539500Y-176119632D01*
X118519815Y-176186671D01*
X118467011Y-176232426D01*
X118397853Y-176242370D01*
X118349826Y-176222142D01*
X118349003Y-176223569D01*
X118233536Y-176156905D01*
X118233537Y-176156905D01*
X118187983Y-176144699D01*
X118112601Y-176124500D01*
X117987399Y-176124500D01*
X117912017Y-176144699D01*
X117866463Y-176156905D01*
X117758037Y-176219504D01*
X117758034Y-176219506D01*
X117669506Y-176308034D01*
X117669504Y-176308037D01*
X117606905Y-176416463D01*
X117594544Y-176462595D01*
X117574500Y-176537399D01*
X117574500Y-176662601D01*
X117606905Y-176783536D01*
X117669505Y-176891964D01*
X117758036Y-176980495D01*
X117866464Y-177043095D01*
X117987399Y-177075500D01*
X117987401Y-177075500D01*
X118112599Y-177075500D01*
X118112601Y-177075500D01*
X118233536Y-177043095D01*
X118341964Y-176980495D01*
X118341964Y-176980494D01*
X118349003Y-176976431D01*
X118349988Y-176978137D01*
X118405173Y-176956798D01*
X118473619Y-176970831D01*
X118523613Y-177019641D01*
X118539500Y-177080367D01*
X118539500Y-177686679D01*
X118519815Y-177753718D01*
X118503181Y-177774360D01*
X118469506Y-177808034D01*
X118469504Y-177808037D01*
X118406905Y-177916463D01*
X118406905Y-177916464D01*
X118374500Y-178037399D01*
X118374500Y-178162601D01*
X118399014Y-178254087D01*
X118406905Y-178283536D01*
X118442900Y-178345882D01*
X118459371Y-178413782D01*
X118436519Y-178479809D01*
X118389974Y-178519281D01*
X112907234Y-181199731D01*
X112899082Y-181203716D01*
X112897703Y-181203999D01*
X112862408Y-181221645D01*
X112861823Y-181221932D01*
X112861821Y-181221932D01*
X112829609Y-181237681D01*
X112760737Y-181249442D01*
X112743053Y-181246057D01*
X112662601Y-181224500D01*
X112537399Y-181224500D01*
X112488208Y-181237681D01*
X112416463Y-181256905D01*
X112308037Y-181319504D01*
X112308034Y-181319506D01*
X112219506Y-181408034D01*
X112219504Y-181408037D01*
X112156905Y-181516463D01*
X112140702Y-181576931D01*
X112124500Y-181637399D01*
X112124500Y-181762601D01*
X112141972Y-181827805D01*
X112156905Y-181883537D01*
X112156907Y-181883540D01*
X112187995Y-181937388D01*
X112204466Y-182005288D01*
X112181613Y-182071315D01*
X112126691Y-182114504D01*
X112070017Y-182122933D01*
X110564773Y-181993912D01*
X110564773Y-181993911D01*
X110553846Y-181992974D01*
X110540878Y-181989500D01*
X110513292Y-181989500D01*
X110508005Y-181989047D01*
X110508002Y-181989047D01*
X110485788Y-181987143D01*
X110485784Y-181987143D01*
X110483344Y-181987578D01*
X110461599Y-181989500D01*
X105026635Y-181989500D01*
X105012599Y-181987074D01*
X104985913Y-181989500D01*
X104959122Y-181989500D01*
X104959120Y-181989500D01*
X104959112Y-181989501D01*
X104955624Y-181990436D01*
X104934776Y-181994148D01*
X104931179Y-181994475D01*
X104911297Y-182001787D01*
X104911296Y-182001786D01*
X104906013Y-182003729D01*
X104880152Y-182010660D01*
X104867823Y-182017777D01*
X104857842Y-182021449D01*
X104857843Y-182021449D01*
X104854452Y-182022696D01*
X104854449Y-182022697D01*
X104837149Y-182034899D01*
X104827687Y-182040950D01*
X104809347Y-182051538D01*
X104806787Y-182054099D01*
X104806786Y-182054098D01*
X104799270Y-182061613D01*
X104787637Y-182069819D01*
X104770496Y-182090386D01*
X104766521Y-182094362D01*
X104766511Y-182094374D01*
X104751538Y-182109348D01*
X104751531Y-182109357D01*
X104749729Y-182112479D01*
X104737610Y-182129849D01*
X104262658Y-182699793D01*
X104262657Y-182699792D01*
X104262212Y-182700325D01*
X104236766Y-182730326D01*
X104236177Y-182731570D01*
X104235298Y-182732626D01*
X104235296Y-182732628D01*
X104235294Y-182732632D01*
X104218988Y-182767913D01*
X104218534Y-182768885D01*
X104201820Y-182804238D01*
X104201230Y-182806074D01*
X104201012Y-182806751D01*
X104194366Y-182845206D01*
X104194178Y-182846270D01*
X104037188Y-183709710D01*
X104005828Y-183772147D01*
X103945691Y-183807718D01*
X103875869Y-183805129D01*
X103818531Y-183765203D01*
X103794120Y-183708090D01*
X103793903Y-183708149D01*
X103793495Y-183706626D01*
X103792248Y-183703709D01*
X103791800Y-183700311D01*
X103791800Y-183700299D01*
X103759395Y-183579364D01*
X103696795Y-183470936D01*
X103608264Y-183382405D01*
X103543800Y-183345187D01*
X103495585Y-183294621D01*
X103481800Y-183237800D01*
X103481800Y-181823721D01*
X103501485Y-181756682D01*
X103518119Y-181736040D01*
X103521351Y-181732808D01*
X103551795Y-181702364D01*
X103614395Y-181593936D01*
X103646800Y-181473001D01*
X103646800Y-181347799D01*
X103614395Y-181226864D01*
X103551795Y-181118436D01*
X103463264Y-181029905D01*
X103354836Y-180967305D01*
X103354837Y-180967305D01*
X103309642Y-180955195D01*
X103233901Y-180934900D01*
X103108699Y-180934900D01*
X103032958Y-180955195D01*
X102987763Y-180967305D01*
X102879337Y-181029903D01*
X102812151Y-181097090D01*
X102750827Y-181130574D01*
X102681136Y-181125589D01*
X102625202Y-181083718D01*
X102617083Y-181071408D01*
X102580497Y-181008039D01*
X102580493Y-181008034D01*
X102491965Y-180919506D01*
X102491964Y-180919505D01*
X102383536Y-180856905D01*
X102383537Y-180856905D01*
X102343224Y-180846103D01*
X102262601Y-180824500D01*
X102137399Y-180824500D01*
X102016464Y-180856905D01*
X102016462Y-180856906D01*
X102008614Y-180859009D01*
X102007820Y-180856048D01*
X101952780Y-180861931D01*
X101890320Y-180830617D01*
X101873918Y-180810000D01*
X101873545Y-180810287D01*
X101868593Y-180803834D01*
X101780065Y-180715306D01*
X101780064Y-180715305D01*
X101671636Y-180652705D01*
X101671637Y-180652705D01*
X101614141Y-180637299D01*
X101550701Y-180620300D01*
X101425499Y-180620300D01*
X101362059Y-180637299D01*
X101304563Y-180652705D01*
X101196137Y-180715304D01*
X101196134Y-180715306D01*
X101107606Y-180803834D01*
X101107600Y-180803842D01*
X101087990Y-180837809D01*
X101037424Y-180886025D01*
X100968817Y-180899249D01*
X100903952Y-180873281D01*
X100863423Y-180816367D01*
X100856616Y-180774039D01*
X100858109Y-180669505D01*
X100871737Y-179715578D01*
X100879709Y-179689796D01*
X100884186Y-179663172D01*
X100889877Y-179656911D01*
X100892376Y-179648830D01*
X100913028Y-179631445D01*
X100931185Y-179611472D01*
X100942521Y-179606617D01*
X100945828Y-179603834D01*
X100963624Y-179597580D01*
X101002645Y-179587124D01*
X101072494Y-179588787D01*
X101075475Y-179589781D01*
X101563973Y-179759693D01*
X103063006Y-180281095D01*
X103082241Y-180289681D01*
X104587591Y-181121585D01*
X104636745Y-181171239D01*
X104647387Y-181198018D01*
X104654484Y-181224500D01*
X104656905Y-181233536D01*
X104719505Y-181341964D01*
X104808036Y-181430495D01*
X104916464Y-181493095D01*
X105037399Y-181525500D01*
X105037401Y-181525500D01*
X105162599Y-181525500D01*
X105162601Y-181525500D01*
X105283536Y-181493095D01*
X105391964Y-181430495D01*
X105480495Y-181341964D01*
X105543095Y-181233536D01*
X105575500Y-181112601D01*
X105575500Y-180987399D01*
X105543095Y-180866464D01*
X105480495Y-180758036D01*
X105391964Y-180669505D01*
X105283536Y-180606905D01*
X105283537Y-180606905D01*
X105243224Y-180596103D01*
X105162601Y-180574500D01*
X105037399Y-180574500D01*
X105037394Y-180574500D01*
X104980718Y-180589686D01*
X104910868Y-180588022D01*
X104888650Y-180578441D01*
X104115582Y-180151219D01*
X104112320Y-180147924D01*
X104107881Y-180146591D01*
X104087974Y-180123330D01*
X104066427Y-180101564D01*
X104065464Y-180097027D01*
X104062451Y-180093507D01*
X104058280Y-180063180D01*
X104051921Y-180033217D01*
X104053387Y-180027602D01*
X104052932Y-180024289D01*
X104058160Y-180009329D01*
X104063083Y-179990487D01*
X104065408Y-179985476D01*
X104125995Y-179880536D01*
X104142223Y-179819968D01*
X104146743Y-179810232D01*
X104159352Y-179795858D01*
X104171536Y-179774755D01*
X105441003Y-178505287D01*
X105441008Y-178505284D01*
X105451211Y-178495080D01*
X105451213Y-178495080D01*
X105525780Y-178420513D01*
X105578507Y-178329187D01*
X105589573Y-178287888D01*
X105605801Y-178227327D01*
X105605801Y-178121873D01*
X105605800Y-178121869D01*
X105605800Y-175028799D01*
X108011200Y-175028799D01*
X108011200Y-175154001D01*
X108043605Y-175274936D01*
X108106205Y-175383364D01*
X108194736Y-175471895D01*
X108303164Y-175534495D01*
X108368654Y-175552043D01*
X108428315Y-175588409D01*
X108458843Y-175651256D01*
X108450548Y-175720632D01*
X108424242Y-175759498D01*
X108393606Y-175790134D01*
X108393604Y-175790137D01*
X108331005Y-175898563D01*
X108331005Y-175898564D01*
X108298600Y-176019499D01*
X108298600Y-176144701D01*
X108331005Y-176265636D01*
X108393605Y-176374064D01*
X108482136Y-176462595D01*
X108590564Y-176525195D01*
X108711499Y-176557600D01*
X108711501Y-176557600D01*
X108836699Y-176557600D01*
X108836701Y-176557600D01*
X108957636Y-176525195D01*
X109066064Y-176462595D01*
X109144160Y-176384499D01*
X111619100Y-176384499D01*
X111619100Y-176509701D01*
X111651505Y-176630636D01*
X111714105Y-176739064D01*
X111802636Y-176827595D01*
X111911064Y-176890195D01*
X112031999Y-176922600D01*
X112032001Y-176922600D01*
X112157199Y-176922600D01*
X112157201Y-176922600D01*
X112278136Y-176890195D01*
X112386564Y-176827595D01*
X112475095Y-176739064D01*
X112537695Y-176630636D01*
X112570100Y-176509701D01*
X112570100Y-176384499D01*
X112537695Y-176263564D01*
X112475095Y-176155136D01*
X112386564Y-176066605D01*
X112278136Y-176004005D01*
X112278137Y-176004005D01*
X112237824Y-175993203D01*
X112157201Y-175971600D01*
X112031999Y-175971600D01*
X111951375Y-175993203D01*
X111911063Y-176004005D01*
X111802637Y-176066604D01*
X111802634Y-176066606D01*
X111714106Y-176155134D01*
X111714104Y-176155137D01*
X111651505Y-176263563D01*
X111639588Y-176308037D01*
X111619100Y-176384499D01*
X109144160Y-176384499D01*
X109154595Y-176374064D01*
X109217195Y-176265636D01*
X109249600Y-176144701D01*
X109249600Y-176019499D01*
X109217195Y-175898564D01*
X109205034Y-175877500D01*
X109190512Y-175852345D01*
X109173900Y-175790347D01*
X109173900Y-169269450D01*
X109190511Y-169207452D01*
X109217195Y-169161236D01*
X109249600Y-169040301D01*
X109249600Y-168915099D01*
X109217195Y-168794164D01*
X109154595Y-168685736D01*
X109066064Y-168597205D01*
X108957636Y-168534605D01*
X108957637Y-168534605D01*
X108917324Y-168523803D01*
X108836701Y-168502200D01*
X108711499Y-168502200D01*
X108630875Y-168523803D01*
X108590563Y-168534605D01*
X108482137Y-168597204D01*
X108482134Y-168597206D01*
X108393606Y-168685734D01*
X108393604Y-168685737D01*
X108331005Y-168794163D01*
X108331005Y-168794164D01*
X108298600Y-168915099D01*
X108298600Y-169040301D01*
X108331005Y-169161236D01*
X108393481Y-169269450D01*
X108393604Y-169269662D01*
X108393606Y-169269665D01*
X108482136Y-169358195D01*
X108490899Y-169363254D01*
X108539115Y-169413820D01*
X108552900Y-169470642D01*
X108552900Y-174491900D01*
X108533215Y-174558939D01*
X108480411Y-174604694D01*
X108428900Y-174615900D01*
X108424099Y-174615900D01*
X108343475Y-174637503D01*
X108303163Y-174648305D01*
X108194737Y-174710904D01*
X108194734Y-174710906D01*
X108106206Y-174799434D01*
X108106204Y-174799437D01*
X108043605Y-174907863D01*
X108043605Y-174907864D01*
X108011200Y-175028799D01*
X105605800Y-175028799D01*
X105605800Y-160073429D01*
X105605801Y-160073416D01*
X105605801Y-159957974D01*
X105599508Y-159934488D01*
X105578507Y-159856113D01*
X105548336Y-159803856D01*
X105525780Y-159764787D01*
X105451213Y-159690220D01*
X105451210Y-159690218D01*
X102762892Y-157001899D01*
X104042600Y-157001899D01*
X104042600Y-157127101D01*
X104075005Y-157248036D01*
X104137605Y-157356464D01*
X104226136Y-157444995D01*
X104334564Y-157507595D01*
X104455499Y-157540000D01*
X104455501Y-157540000D01*
X104580699Y-157540000D01*
X104580701Y-157540000D01*
X104701636Y-157507595D01*
X104810064Y-157444995D01*
X104898595Y-157356464D01*
X104961195Y-157248036D01*
X104993600Y-157127101D01*
X104993600Y-157001899D01*
X104961195Y-156880964D01*
X104898595Y-156772536D01*
X104810064Y-156684005D01*
X104701636Y-156621405D01*
X104701637Y-156621405D01*
X104651743Y-156608036D01*
X104580701Y-156589000D01*
X104455499Y-156589000D01*
X104384457Y-156608036D01*
X104334563Y-156621405D01*
X104226137Y-156684004D01*
X104226134Y-156684006D01*
X104137606Y-156772534D01*
X104137604Y-156772537D01*
X104075005Y-156880963D01*
X104075005Y-156880964D01*
X104042600Y-157001899D01*
X102762892Y-157001899D01*
X102029404Y-156268411D01*
X101995921Y-156207091D01*
X102000905Y-156137399D01*
X102029405Y-156093053D01*
X102080495Y-156041964D01*
X102143095Y-155933536D01*
X102175377Y-155813056D01*
X102211743Y-155753398D01*
X102263056Y-155725378D01*
X102383536Y-155693095D01*
X102491964Y-155630495D01*
X102580495Y-155541964D01*
X102643095Y-155433536D01*
X102675500Y-155312601D01*
X102675500Y-155187399D01*
X102643095Y-155066464D01*
X102580495Y-154958036D01*
X102491964Y-154869505D01*
X102383536Y-154806905D01*
X102383537Y-154806905D01*
X102343224Y-154796103D01*
X102262601Y-154774500D01*
X102137399Y-154774500D01*
X102056775Y-154796103D01*
X102016463Y-154806905D01*
X101908037Y-154869504D01*
X101908034Y-154869506D01*
X101819506Y-154958034D01*
X101814555Y-154964487D01*
X101813104Y-154963374D01*
X101769916Y-155004552D01*
X101701309Y-155017772D01*
X101636445Y-154991802D01*
X101595918Y-154934886D01*
X101589100Y-154894334D01*
X101589100Y-154613399D01*
X103663800Y-154613399D01*
X103663800Y-154738601D01*
X103696205Y-154859536D01*
X103758805Y-154967964D01*
X103847336Y-155056495D01*
X103955764Y-155119095D01*
X104076699Y-155151500D01*
X104076701Y-155151500D01*
X104201899Y-155151500D01*
X104201901Y-155151500D01*
X104322836Y-155119095D01*
X104431264Y-155056495D01*
X104519795Y-154967964D01*
X104582395Y-154859536D01*
X104614800Y-154738601D01*
X104614800Y-154613399D01*
X104582395Y-154492464D01*
X104574856Y-154479406D01*
X104556412Y-154447458D01*
X104539800Y-154385460D01*
X104539800Y-152414659D01*
X104559485Y-152347620D01*
X104612289Y-152301865D01*
X104681447Y-152291921D01*
X104745003Y-152320946D01*
X104769688Y-152355183D01*
X104771742Y-152353998D01*
X104775804Y-152361034D01*
X104775805Y-152361036D01*
X104838405Y-152469464D01*
X104926936Y-152557995D01*
X105035364Y-152620595D01*
X105156299Y-152653000D01*
X105156301Y-152653000D01*
X105281499Y-152653000D01*
X105281501Y-152653000D01*
X105402436Y-152620595D01*
X105510864Y-152557995D01*
X105599395Y-152469464D01*
X105661995Y-152361036D01*
X105694400Y-152240101D01*
X105694400Y-152114899D01*
X106847700Y-152114899D01*
X106847700Y-152240101D01*
X106880105Y-152361036D01*
X106942705Y-152469464D01*
X107031236Y-152557995D01*
X107139664Y-152620595D01*
X107260599Y-152653000D01*
X107260601Y-152653000D01*
X107385799Y-152653000D01*
X107385801Y-152653000D01*
X107506736Y-152620595D01*
X107615164Y-152557995D01*
X107703695Y-152469464D01*
X107766295Y-152361036D01*
X107798700Y-152240101D01*
X107798700Y-152114899D01*
X107766295Y-151993964D01*
X107735336Y-151940340D01*
X107712392Y-151900599D01*
X107695919Y-151832699D01*
X107718772Y-151766672D01*
X107773693Y-151723482D01*
X107819779Y-151714600D01*
X107900099Y-151714600D01*
X107900101Y-151714600D01*
X108021036Y-151682195D01*
X108129464Y-151619595D01*
X108217995Y-151531064D01*
X108280595Y-151422636D01*
X108313000Y-151301701D01*
X108313000Y-151176499D01*
X108280595Y-151055564D01*
X108217995Y-150947136D01*
X108129464Y-150858605D01*
X108021036Y-150796005D01*
X108021037Y-150796005D01*
X107980724Y-150785203D01*
X107900101Y-150763600D01*
X107774899Y-150763600D01*
X107694275Y-150785203D01*
X107653963Y-150796005D01*
X107545537Y-150858604D01*
X107545534Y-150858606D01*
X107457006Y-150947134D01*
X107457004Y-150947137D01*
X107394405Y-151055563D01*
X107362000Y-151176500D01*
X107362000Y-151301698D01*
X107361999Y-151301698D01*
X107394405Y-151422637D01*
X107394408Y-151422642D01*
X107448308Y-151516001D01*
X107464781Y-151583901D01*
X107441928Y-151649928D01*
X107387007Y-151693118D01*
X107340921Y-151702000D01*
X107260599Y-151702000D01*
X107180428Y-151723482D01*
X107139663Y-151734405D01*
X107031237Y-151797004D01*
X107031234Y-151797006D01*
X106942706Y-151885534D01*
X106942704Y-151885537D01*
X106880105Y-151993963D01*
X106873477Y-152018700D01*
X106847700Y-152114899D01*
X105694400Y-152114899D01*
X105661995Y-151993964D01*
X105599395Y-151885536D01*
X105510864Y-151797005D01*
X105402436Y-151734405D01*
X105402437Y-151734405D01*
X105361672Y-151723482D01*
X105281501Y-151702000D01*
X105156299Y-151702000D01*
X105076128Y-151723482D01*
X105035363Y-151734405D01*
X104926937Y-151797004D01*
X104926934Y-151797006D01*
X104838406Y-151885534D01*
X104838404Y-151885537D01*
X104806764Y-151940340D01*
X104777025Y-151991852D01*
X104771742Y-152001002D01*
X104768996Y-151999417D01*
X104734507Y-152042205D01*
X104668210Y-152064262D01*
X104600513Y-152046974D01*
X104552909Y-151995831D01*
X104539800Y-151940340D01*
X104539800Y-151574155D01*
X104548444Y-151544714D01*
X104554968Y-151514728D01*
X104558722Y-151509712D01*
X104559485Y-151507116D01*
X104576119Y-151486474D01*
X104578255Y-151484338D01*
X104633840Y-151452244D01*
X104684036Y-151438795D01*
X104792464Y-151376195D01*
X104880995Y-151287664D01*
X104943595Y-151179236D01*
X104976000Y-151058301D01*
X104976000Y-150933099D01*
X104943595Y-150812164D01*
X104880995Y-150703736D01*
X104792464Y-150615205D01*
X104684036Y-150552605D01*
X104684037Y-150552605D01*
X104643724Y-150541803D01*
X104563101Y-150520200D01*
X104437899Y-150520200D01*
X104357275Y-150541803D01*
X104316963Y-150552605D01*
X104208537Y-150615204D01*
X104208534Y-150615206D01*
X104120006Y-150703734D01*
X104120004Y-150703737D01*
X104057405Y-150812163D01*
X104057403Y-150812168D01*
X104043954Y-150862359D01*
X104011862Y-150917944D01*
X103818819Y-151110987D01*
X103779416Y-151179236D01*
X103766093Y-151202312D01*
X103743223Y-151287665D01*
X103739460Y-151301710D01*
X103738800Y-151304172D01*
X103738800Y-154385460D01*
X103738050Y-154388256D01*
X103738684Y-154390817D01*
X103732157Y-154425502D01*
X103728244Y-154436969D01*
X103696205Y-154492464D01*
X103663800Y-154613399D01*
X101589100Y-154613399D01*
X101589100Y-148289238D01*
X101605713Y-148227238D01*
X101631695Y-148182236D01*
X101664100Y-148061301D01*
X101664100Y-147936099D01*
X101631695Y-147815164D01*
X101569095Y-147706736D01*
X101480564Y-147618205D01*
X101372136Y-147555605D01*
X101372137Y-147555605D01*
X101331372Y-147544682D01*
X101251201Y-147523200D01*
X101125999Y-147523200D01*
X101045828Y-147544682D01*
X101005063Y-147555605D01*
X100896637Y-147618204D01*
X100896634Y-147618206D01*
X100808106Y-147706734D01*
X100808104Y-147706737D01*
X100745505Y-147815163D01*
X100745505Y-147815164D01*
X100713100Y-147936099D01*
X100713100Y-148061301D01*
X100714145Y-148065200D01*
X100745505Y-148182237D01*
X100745506Y-148182238D01*
X100771487Y-148227238D01*
X100788100Y-148289238D01*
X100788100Y-153455071D01*
X100768415Y-153522110D01*
X100715611Y-153567865D01*
X100646453Y-153577809D01*
X100602103Y-153562460D01*
X100579838Y-153549606D01*
X100579837Y-153549605D01*
X100532096Y-153536813D01*
X100458901Y-153517200D01*
X100384500Y-153517200D01*
X100317461Y-153497515D01*
X100271706Y-153444711D01*
X100260500Y-153393200D01*
X100260500Y-145137399D01*
X113874500Y-145137399D01*
X113874500Y-145262601D01*
X113906905Y-145383536D01*
X113969505Y-145491964D01*
X114058036Y-145580495D01*
X114166464Y-145643095D01*
X114287399Y-145675500D01*
X114287401Y-145675500D01*
X114412599Y-145675500D01*
X114412601Y-145675500D01*
X114533536Y-145643095D01*
X114641964Y-145580495D01*
X114730495Y-145491964D01*
X114793095Y-145383536D01*
X114825500Y-145262601D01*
X114825500Y-145137399D01*
X114793095Y-145016464D01*
X114730495Y-144908036D01*
X114641964Y-144819505D01*
X114533536Y-144756905D01*
X114533537Y-144756905D01*
X114493224Y-144746103D01*
X114412601Y-144724500D01*
X114287399Y-144724500D01*
X114206775Y-144746103D01*
X114166463Y-144756905D01*
X114058037Y-144819504D01*
X114058034Y-144819506D01*
X113969506Y-144908034D01*
X113969504Y-144908037D01*
X113906905Y-145016463D01*
X113906905Y-145016464D01*
X113874500Y-145137399D01*
X100260500Y-145137399D01*
X100260500Y-143440599D01*
X110019400Y-143440599D01*
X110019400Y-143565801D01*
X110051805Y-143686736D01*
X110114405Y-143795164D01*
X110202936Y-143883695D01*
X110311364Y-143946295D01*
X110432299Y-143978700D01*
X110432301Y-143978700D01*
X110557499Y-143978700D01*
X110557501Y-143978700D01*
X110678436Y-143946295D01*
X110786864Y-143883695D01*
X110875395Y-143795164D01*
X110937995Y-143686736D01*
X110970400Y-143565801D01*
X110970400Y-143518175D01*
X110990085Y-143451136D01*
X111006719Y-143430494D01*
X111827773Y-142609440D01*
X112666562Y-141770651D01*
X112707440Y-141699849D01*
X112728600Y-141620878D01*
X112728600Y-141539121D01*
X112728600Y-141012321D01*
X112748285Y-140945282D01*
X112764919Y-140924640D01*
X112798595Y-140890964D01*
X112861195Y-140782536D01*
X112893600Y-140661601D01*
X112893600Y-140536399D01*
X112861195Y-140415464D01*
X112798595Y-140307036D01*
X112710064Y-140218505D01*
X112601636Y-140155905D01*
X112601637Y-140155905D01*
X112561324Y-140145103D01*
X112480701Y-140123500D01*
X112355499Y-140123500D01*
X112274875Y-140145103D01*
X112234563Y-140155905D01*
X112126137Y-140218504D01*
X112126134Y-140218506D01*
X112037606Y-140307034D01*
X112037604Y-140307037D01*
X111975005Y-140415463D01*
X111975005Y-140415464D01*
X111942600Y-140536399D01*
X111942600Y-140661601D01*
X111951660Y-140695413D01*
X111975005Y-140782536D01*
X112037604Y-140890962D01*
X112037606Y-140890965D01*
X112071281Y-140924640D01*
X112104766Y-140985963D01*
X112107600Y-141012321D01*
X112107600Y-141400024D01*
X112087915Y-141467063D01*
X112071281Y-141487705D01*
X110567605Y-142991381D01*
X110506282Y-143024866D01*
X110479924Y-143027700D01*
X110432299Y-143027700D01*
X110351675Y-143049303D01*
X110311363Y-143060105D01*
X110202937Y-143122704D01*
X110202934Y-143122706D01*
X110114406Y-143211234D01*
X110114404Y-143211237D01*
X110051805Y-143319663D01*
X110051805Y-143319664D01*
X110019400Y-143440599D01*
X100260500Y-143440599D01*
X100260500Y-142147273D01*
X106199500Y-142147273D01*
X106199500Y-142252727D01*
X106226793Y-142354587D01*
X106279520Y-142445913D01*
X106354087Y-142520480D01*
X106445413Y-142573207D01*
X106547273Y-142600500D01*
X106547275Y-142600500D01*
X106652725Y-142600500D01*
X106652727Y-142600500D01*
X106754587Y-142573207D01*
X106845913Y-142520480D01*
X106920480Y-142445913D01*
X106973207Y-142354587D01*
X107000500Y-142252727D01*
X107000500Y-142147273D01*
X106973207Y-142045413D01*
X106920480Y-141954087D01*
X106845913Y-141879520D01*
X106754587Y-141826793D01*
X106652727Y-141799500D01*
X106547273Y-141799500D01*
X106445413Y-141826793D01*
X106445410Y-141826794D01*
X106354085Y-141879521D01*
X106279521Y-141954085D01*
X106226794Y-142045410D01*
X106226793Y-142045413D01*
X106199500Y-142147273D01*
X100260500Y-142147273D01*
X100260500Y-140797273D01*
X108399500Y-140797273D01*
X108399500Y-140902727D01*
X108426793Y-141004587D01*
X108479520Y-141095913D01*
X108554087Y-141170480D01*
X108645413Y-141223207D01*
X108747273Y-141250500D01*
X108747275Y-141250500D01*
X108852725Y-141250500D01*
X108852727Y-141250500D01*
X108954587Y-141223207D01*
X109045913Y-141170480D01*
X109120480Y-141095913D01*
X109173207Y-141004587D01*
X109200500Y-140902727D01*
X109200500Y-140797273D01*
X109173207Y-140695413D01*
X109120480Y-140604087D01*
X109045913Y-140529520D01*
X108956125Y-140477681D01*
X108954589Y-140476794D01*
X108954588Y-140476793D01*
X108954587Y-140476793D01*
X108852727Y-140449500D01*
X108747273Y-140449500D01*
X108645413Y-140476793D01*
X108645410Y-140476794D01*
X108554085Y-140529521D01*
X108479521Y-140604085D01*
X108426794Y-140695410D01*
X108426793Y-140695413D01*
X108399500Y-140797273D01*
X100260500Y-140797273D01*
X100260500Y-140434500D01*
X100280185Y-140367461D01*
X100332989Y-140321706D01*
X100384500Y-140310500D01*
X104453577Y-140310500D01*
X104515573Y-140327111D01*
X104595413Y-140373207D01*
X104697273Y-140400500D01*
X104697275Y-140400500D01*
X104802725Y-140400500D01*
X104802727Y-140400500D01*
X104904587Y-140373207D01*
X104995913Y-140320480D01*
X105070480Y-140245913D01*
X105123207Y-140154587D01*
X105150500Y-140052727D01*
X105150500Y-139987399D01*
X107246000Y-139987399D01*
X107246000Y-140112601D01*
X107278405Y-140233536D01*
X107341005Y-140341964D01*
X107429536Y-140430495D01*
X107537964Y-140493095D01*
X107658899Y-140525500D01*
X107658901Y-140525500D01*
X107784099Y-140525500D01*
X107784101Y-140525500D01*
X107905036Y-140493095D01*
X108013464Y-140430495D01*
X108101995Y-140341964D01*
X108164595Y-140233536D01*
X108197000Y-140112601D01*
X108197000Y-139987399D01*
X108164595Y-139866464D01*
X108101995Y-139758036D01*
X108013464Y-139669505D01*
X107905036Y-139606905D01*
X107905037Y-139606905D01*
X107864724Y-139596103D01*
X107784101Y-139574500D01*
X107658899Y-139574500D01*
X107578275Y-139596103D01*
X107537963Y-139606905D01*
X107429537Y-139669504D01*
X107429534Y-139669506D01*
X107341006Y-139758034D01*
X107341004Y-139758037D01*
X107278405Y-139866463D01*
X107278405Y-139866464D01*
X107246000Y-139987399D01*
X105150500Y-139987399D01*
X105150500Y-139947273D01*
X105123207Y-139845413D01*
X105120199Y-139840204D01*
X105117024Y-139824340D01*
X105119071Y-139801145D01*
X105116580Y-139777996D01*
X105121144Y-139762449D01*
X105121103Y-139762438D01*
X105123207Y-139754587D01*
X105150500Y-139652727D01*
X105150500Y-139547273D01*
X105123207Y-139445413D01*
X105070480Y-139354087D01*
X104995913Y-139279520D01*
X104923695Y-139237825D01*
X104875480Y-139187259D01*
X104862257Y-139118652D01*
X104865920Y-139098352D01*
X104875500Y-139062601D01*
X104875500Y-138937399D01*
X104843095Y-138816464D01*
X104780495Y-138708036D01*
X104691964Y-138619505D01*
X104583536Y-138556905D01*
X104583537Y-138556905D01*
X104540637Y-138545410D01*
X104462601Y-138524500D01*
X104397321Y-138524500D01*
X104330282Y-138504815D01*
X104284527Y-138452011D01*
X104274583Y-138382853D01*
X104303608Y-138319297D01*
X104309640Y-138312819D01*
X104314425Y-138308034D01*
X104330495Y-138291964D01*
X104393095Y-138183536D01*
X104425500Y-138062601D01*
X104425500Y-138062597D01*
X104426742Y-138057962D01*
X104463107Y-137998301D01*
X104499069Y-137975492D01*
X104504578Y-137973209D01*
X104504587Y-137973207D01*
X104595913Y-137920480D01*
X104670480Y-137845913D01*
X104723207Y-137754587D01*
X104750500Y-137652727D01*
X104750500Y-137547273D01*
X104723207Y-137445413D01*
X104670480Y-137354087D01*
X104595913Y-137279520D01*
X104504587Y-137226793D01*
X104402727Y-137199500D01*
X104297273Y-137199500D01*
X104195413Y-137226793D01*
X104195410Y-137226794D01*
X104104085Y-137279521D01*
X104029521Y-137354085D01*
X103976793Y-137445412D01*
X103974503Y-137450941D01*
X103930659Y-137505342D01*
X103892039Y-137523257D01*
X103887400Y-137524500D01*
X103887399Y-137524500D01*
X103766464Y-137556905D01*
X103766462Y-137556905D01*
X103766462Y-137556906D01*
X103658037Y-137619504D01*
X103658034Y-137619506D01*
X103569506Y-137708034D01*
X103569504Y-137708037D01*
X103506905Y-137816463D01*
X103498649Y-137847275D01*
X103474500Y-137937399D01*
X103474500Y-138062601D01*
X103506905Y-138183536D01*
X103569505Y-138291964D01*
X103658036Y-138380495D01*
X103766464Y-138443095D01*
X103887399Y-138475500D01*
X103887401Y-138475500D01*
X103952679Y-138475500D01*
X104019718Y-138495185D01*
X104065473Y-138547989D01*
X104075417Y-138617147D01*
X104046392Y-138680703D01*
X104040360Y-138687181D01*
X104019506Y-138708034D01*
X104019504Y-138708037D01*
X103956905Y-138816463D01*
X103956905Y-138816464D01*
X103924500Y-138937399D01*
X103924500Y-139062601D01*
X103943472Y-139133407D01*
X103941810Y-139203256D01*
X103902648Y-139261118D01*
X103838420Y-139288623D01*
X103823698Y-139289500D01*
X102558100Y-139289500D01*
X102491061Y-139269815D01*
X102445306Y-139217011D01*
X102434100Y-139165500D01*
X102434100Y-139159200D01*
X102434100Y-139159199D01*
X102401695Y-139038264D01*
X102339095Y-138929836D01*
X102250564Y-138841305D01*
X102142136Y-138778705D01*
X102142137Y-138778705D01*
X102101824Y-138767903D01*
X102021201Y-138746300D01*
X102021199Y-138746300D01*
X101973576Y-138746300D01*
X101906537Y-138726615D01*
X101885895Y-138709981D01*
X100542519Y-137366605D01*
X100509034Y-137305282D01*
X100506200Y-137278924D01*
X100506200Y-133599500D01*
X100525885Y-133532461D01*
X100578689Y-133486706D01*
X100630200Y-133475500D01*
X100662599Y-133475500D01*
X100662601Y-133475500D01*
X100783536Y-133443095D01*
X100891964Y-133380495D01*
X100980495Y-133291964D01*
X101043095Y-133183536D01*
X101075500Y-133062601D01*
X101075500Y-132937399D01*
X101043095Y-132816464D01*
X101039534Y-132810297D01*
X101023062Y-132742398D01*
X101029744Y-132707736D01*
X101052120Y-132643094D01*
X101720040Y-130713545D01*
X101760571Y-130656635D01*
X101802425Y-130635091D01*
X104799800Y-129758935D01*
X104801800Y-129758865D01*
X104839001Y-129747476D01*
X104876352Y-129736559D01*
X104876351Y-129736559D01*
X104876506Y-129736514D01*
X104877468Y-129736076D01*
X104877492Y-129736065D01*
X104879963Y-129734937D01*
X104879975Y-129734934D01*
X104912421Y-129714642D01*
X104913523Y-129713962D01*
X104946214Y-129694092D01*
X104946219Y-129694086D01*
X104948396Y-129692336D01*
X104948397Y-129692335D01*
X104948415Y-129692321D01*
X104949181Y-129691704D01*
X104949290Y-129691586D01*
X104949293Y-129691585D01*
X104975819Y-129663117D01*
X105002704Y-129634991D01*
X105003663Y-129633238D01*
X105005026Y-129631776D01*
X105005026Y-129631774D01*
X105005029Y-129631772D01*
X105022980Y-129597980D01*
X105023603Y-129596824D01*
X105041973Y-129563282D01*
X105041977Y-129563264D01*
X105042976Y-129560691D01*
X105042983Y-129560672D01*
X105043349Y-129559727D01*
X105043384Y-129559574D01*
X105043386Y-129559571D01*
X105051975Y-129522301D01*
X105052305Y-129520914D01*
X105061343Y-129483857D01*
X105061344Y-129483854D01*
X105061343Y-129483848D01*
X105061637Y-129481150D01*
X105061637Y-129481146D01*
X105061753Y-129480070D01*
X105061747Y-129479907D01*
X105061748Y-129479904D01*
X105060376Y-129441031D01*
X105059498Y-129402119D01*
X105058936Y-129400198D01*
X105058866Y-129398199D01*
X105047673Y-129361638D01*
X105047268Y-129360281D01*
X105035833Y-129321160D01*
X105032724Y-129312803D01*
X104973738Y-129120115D01*
X104315164Y-126968779D01*
X104309743Y-126933944D01*
X104307400Y-126734788D01*
X104299705Y-126080638D01*
X104318599Y-126013372D01*
X104370861Y-125966999D01*
X104439898Y-125956243D01*
X104462485Y-125962298D01*
X104462514Y-125962191D01*
X104470362Y-125964293D01*
X104470364Y-125964295D01*
X104591299Y-125996700D01*
X104591301Y-125996700D01*
X104716499Y-125996700D01*
X104716501Y-125996700D01*
X104837436Y-125964295D01*
X104945864Y-125901695D01*
X105034395Y-125813164D01*
X105096995Y-125704736D01*
X105129400Y-125583801D01*
X105129400Y-125458599D01*
X105096995Y-125337664D01*
X105034395Y-125229236D01*
X104945864Y-125140705D01*
X104837436Y-125078105D01*
X104837437Y-125078105D01*
X104797124Y-125067303D01*
X104716501Y-125045700D01*
X104591299Y-125045700D01*
X104530831Y-125061902D01*
X104470362Y-125078105D01*
X104462854Y-125081216D01*
X104462082Y-125079354D01*
X104404729Y-125093263D01*
X104338704Y-125070406D01*
X104295518Y-125015481D01*
X104286648Y-124970866D01*
X104214831Y-118866379D01*
X104233725Y-118799114D01*
X104285987Y-118752741D01*
X104355024Y-118741985D01*
X104418917Y-118770260D01*
G37*
%TD.AperFunction*%
%TA.AperFunction,Conductor*%
G36*
X119085128Y-164057186D02*
G01*
X119568256Y-164273321D01*
X119621411Y-164318666D01*
X119641613Y-164385551D01*
X119628013Y-164437120D01*
X119629904Y-164437903D01*
X119626793Y-164445413D01*
X119599500Y-164547273D01*
X119599500Y-164652727D01*
X119613551Y-164705164D01*
X119626793Y-164754586D01*
X119626794Y-164754589D01*
X119637859Y-164773754D01*
X119679520Y-164845913D01*
X119754087Y-164920480D01*
X119754093Y-164920483D01*
X119760189Y-164925161D01*
X119801393Y-164981588D01*
X119805550Y-165051334D01*
X119772387Y-165111219D01*
X119729521Y-165154085D01*
X119676794Y-165245410D01*
X119676793Y-165245413D01*
X119649500Y-165347273D01*
X119649500Y-165452726D01*
X119676793Y-165554586D01*
X119676794Y-165554589D01*
X119729521Y-165645914D01*
X119795926Y-165712319D01*
X119829411Y-165773642D01*
X119824427Y-165843334D01*
X119795926Y-165887681D01*
X119729521Y-165954085D01*
X119676794Y-166045410D01*
X119676793Y-166045413D01*
X119649500Y-166147273D01*
X119649500Y-166252727D01*
X119676793Y-166354587D01*
X119729520Y-166445913D01*
X119804087Y-166520480D01*
X119895413Y-166573207D01*
X119997273Y-166600500D01*
X119997275Y-166600500D01*
X120102725Y-166600500D01*
X120102727Y-166600500D01*
X120204587Y-166573207D01*
X120295913Y-166520480D01*
X120370480Y-166445913D01*
X120423207Y-166354587D01*
X120450500Y-166252727D01*
X120450500Y-166147273D01*
X120423207Y-166045413D01*
X120370480Y-165954087D01*
X120304074Y-165887681D01*
X120270589Y-165826358D01*
X120275573Y-165756666D01*
X120304074Y-165712319D01*
X120370480Y-165645913D01*
X120423207Y-165554587D01*
X120450500Y-165452727D01*
X120450500Y-165347273D01*
X120423207Y-165245413D01*
X120370480Y-165154087D01*
X120295913Y-165079520D01*
X120295910Y-165079518D01*
X120289809Y-165074837D01*
X120283663Y-165066420D01*
X120274690Y-165061118D01*
X120263411Y-165038685D01*
X120248605Y-165018409D01*
X120247985Y-165008005D01*
X120243304Y-164998695D01*
X120245943Y-164973726D01*
X120244450Y-164948663D01*
X120249747Y-164937732D01*
X120250648Y-164929212D01*
X120262462Y-164911496D01*
X120268603Y-164898827D01*
X120272827Y-164893565D01*
X120320480Y-164845913D01*
X120344521Y-164804272D01*
X120350467Y-164796867D01*
X120371652Y-164782101D01*
X120390339Y-164764284D01*
X120400888Y-164761724D01*
X120407788Y-164756916D01*
X120423074Y-164756342D01*
X120447158Y-164750500D01*
X120552723Y-164750500D01*
X120552727Y-164750500D01*
X120593410Y-164739599D01*
X120663255Y-164741262D01*
X120721118Y-164780424D01*
X120748623Y-164844652D01*
X120749500Y-164859374D01*
X120749500Y-167150500D01*
X120729815Y-167217539D01*
X120677011Y-167263294D01*
X120625500Y-167274500D01*
X120537399Y-167274500D01*
X120456775Y-167296103D01*
X120416463Y-167306905D01*
X120308037Y-167369504D01*
X120308034Y-167369506D01*
X120219506Y-167458034D01*
X120219504Y-167458037D01*
X120156905Y-167566463D01*
X120124499Y-167687402D01*
X120123936Y-167691683D01*
X120122456Y-167695028D01*
X120122397Y-167695249D01*
X120122362Y-167695239D01*
X120095671Y-167755580D01*
X120037348Y-167794052D01*
X120000997Y-167799500D01*
X119997273Y-167799500D01*
X119895413Y-167826793D01*
X119895410Y-167826794D01*
X119804085Y-167879521D01*
X119729521Y-167954085D01*
X119676794Y-168045410D01*
X119676793Y-168045413D01*
X119649500Y-168147273D01*
X119649500Y-168229650D01*
X119645030Y-168245786D01*
X119645496Y-168260907D01*
X119631830Y-168293444D01*
X119571007Y-168394817D01*
X119540829Y-168445114D01*
X119489458Y-168492472D01*
X119420638Y-168504539D01*
X119356219Y-168477483D01*
X119316654Y-168419896D01*
X119310500Y-168381316D01*
X119310500Y-167326521D01*
X119330185Y-167259482D01*
X119346819Y-167238840D01*
X119380495Y-167205164D01*
X119443095Y-167096736D01*
X119475500Y-166975801D01*
X119475500Y-166850599D01*
X119443095Y-166729664D01*
X119380495Y-166621236D01*
X119347004Y-166587745D01*
X119332408Y-166561015D01*
X119315842Y-166535452D01*
X119315021Y-166529172D01*
X119313519Y-166526422D01*
X119310686Y-166500536D01*
X119310678Y-166498500D01*
X119311567Y-166468264D01*
X119310546Y-166463951D01*
X119310529Y-166459346D01*
X119310500Y-166459130D01*
X119310500Y-166459122D01*
X119301553Y-166425735D01*
X119300690Y-166422312D01*
X118927281Y-164844652D01*
X118913834Y-164787840D01*
X118910500Y-164759280D01*
X118910500Y-164170378D01*
X118930185Y-164103339D01*
X118982989Y-164057584D01*
X119052147Y-164047640D01*
X119085128Y-164057186D01*
G37*
%TD.AperFunction*%
%TA.AperFunction,Conductor*%
G36*
X116208834Y-153086572D02*
G01*
X116264767Y-153128444D01*
X116289184Y-153193908D01*
X116289500Y-153202754D01*
X116289500Y-159936679D01*
X116269815Y-160003718D01*
X116253181Y-160024360D01*
X116219506Y-160058034D01*
X116219504Y-160058037D01*
X116156905Y-160166463D01*
X116156905Y-160166464D01*
X116124500Y-160287399D01*
X116124500Y-160412601D01*
X116156905Y-160533536D01*
X116219505Y-160641964D01*
X116308036Y-160730495D01*
X116416464Y-160793095D01*
X116537399Y-160825500D01*
X116537401Y-160825500D01*
X116662599Y-160825500D01*
X116662601Y-160825500D01*
X116783536Y-160793095D01*
X116891964Y-160730495D01*
X116980495Y-160641964D01*
X117043095Y-160533536D01*
X117075500Y-160412601D01*
X117075500Y-160412598D01*
X117076561Y-160404542D01*
X117079115Y-160404878D01*
X117095185Y-160350152D01*
X117147989Y-160304397D01*
X117148851Y-160304007D01*
X117157864Y-160299973D01*
X117183536Y-160293095D01*
X117219030Y-160272602D01*
X117224851Y-160269998D01*
X117253395Y-160266115D01*
X117281399Y-160259322D01*
X117287591Y-160261465D01*
X117294084Y-160260582D01*
X117320201Y-160272751D01*
X117347426Y-160282174D01*
X117351476Y-160287324D01*
X117357416Y-160290092D01*
X117372806Y-160314447D01*
X117390617Y-160337095D01*
X117392152Y-160345062D01*
X117394740Y-160349157D01*
X117394671Y-160358130D01*
X117399500Y-160383182D01*
X117399500Y-161482727D01*
X117426793Y-161584587D01*
X117475376Y-161668736D01*
X117479521Y-161675914D01*
X117532728Y-161729122D01*
X117565712Y-161788242D01*
X117660231Y-162187585D01*
X117656517Y-162257356D01*
X117615671Y-162314043D01*
X117571660Y-162335919D01*
X117494468Y-162356603D01*
X117494463Y-162356605D01*
X117386037Y-162419204D01*
X117386036Y-162419204D01*
X117382294Y-162422947D01*
X117320969Y-162456429D01*
X117251277Y-162451440D01*
X117195346Y-162409566D01*
X117187229Y-162397260D01*
X117164295Y-162357536D01*
X117075765Y-162269006D01*
X117075764Y-162269005D01*
X116967336Y-162206405D01*
X116967337Y-162206405D01*
X116927024Y-162195603D01*
X116846401Y-162174000D01*
X116721199Y-162174000D01*
X116640575Y-162195603D01*
X116600263Y-162206405D01*
X116491837Y-162269004D01*
X116491834Y-162269006D01*
X116403306Y-162357534D01*
X116403304Y-162357537D01*
X116340705Y-162465963D01*
X116340705Y-162465964D01*
X116308300Y-162586899D01*
X116308300Y-162712101D01*
X116340705Y-162833036D01*
X116403305Y-162941464D01*
X116491836Y-163029995D01*
X116600264Y-163092595D01*
X116721199Y-163125000D01*
X116721201Y-163125000D01*
X116846399Y-163125000D01*
X116846401Y-163125000D01*
X116967336Y-163092595D01*
X117075764Y-163029995D01*
X117079500Y-163026258D01*
X117140818Y-162992773D01*
X117210509Y-162997754D01*
X117266445Y-163039622D01*
X117274569Y-163051938D01*
X117297502Y-163091660D01*
X117297504Y-163091663D01*
X117297505Y-163091664D01*
X117386036Y-163180195D01*
X117494464Y-163242795D01*
X117615399Y-163275200D01*
X117615401Y-163275200D01*
X117740600Y-163275200D01*
X117740601Y-163275200D01*
X117783746Y-163263639D01*
X117853596Y-163265300D01*
X117911459Y-163304462D01*
X117936507Y-163354853D01*
X118016530Y-163692949D01*
X118268916Y-164759280D01*
X118282351Y-164816040D01*
X118278637Y-164885811D01*
X118237791Y-164942497D01*
X118172782Y-164968102D01*
X118161685Y-164968600D01*
X118157399Y-164968600D01*
X118076775Y-164990203D01*
X118036463Y-165001005D01*
X117928037Y-165063604D01*
X117928034Y-165063606D01*
X117894360Y-165097281D01*
X117833037Y-165130766D01*
X117806679Y-165133600D01*
X117640022Y-165133600D01*
X117561050Y-165154760D01*
X117490249Y-165195638D01*
X117490246Y-165195640D01*
X114529081Y-168156805D01*
X114467758Y-168190290D01*
X114398066Y-168185306D01*
X114342133Y-168143434D01*
X114317716Y-168077970D01*
X114317400Y-168069124D01*
X114317400Y-164156521D01*
X114337085Y-164089482D01*
X114353719Y-164068840D01*
X114370347Y-164052212D01*
X114387395Y-164035164D01*
X114449995Y-163926736D01*
X114482400Y-163805801D01*
X114482400Y-163726175D01*
X114499013Y-163664175D01*
X114504340Y-163654949D01*
X114525500Y-163575978D01*
X114525500Y-163494221D01*
X114525500Y-163154121D01*
X114545185Y-163087082D01*
X114597989Y-163041327D01*
X114667147Y-163031383D01*
X114730703Y-163060408D01*
X114737181Y-163066440D01*
X114759036Y-163088295D01*
X114867464Y-163150895D01*
X114988399Y-163183300D01*
X114988401Y-163183300D01*
X115113599Y-163183300D01*
X115113601Y-163183300D01*
X115234536Y-163150895D01*
X115342964Y-163088295D01*
X115431495Y-162999764D01*
X115494095Y-162891336D01*
X115526500Y-162770401D01*
X115526500Y-162645199D01*
X115494095Y-162524264D01*
X115484553Y-162507736D01*
X115468112Y-162479258D01*
X115451500Y-162417260D01*
X115451500Y-153792754D01*
X115471185Y-153725715D01*
X115487815Y-153705077D01*
X116077819Y-153115072D01*
X116139142Y-153081588D01*
X116208834Y-153086572D01*
G37*
%TD.AperFunction*%
%TA.AperFunction,Conductor*%
G36*
X118339249Y-142610860D02*
G01*
X118342147Y-142610444D01*
X118349705Y-142613059D01*
X118367034Y-142616705D01*
X118377158Y-142620402D01*
X118416464Y-142643095D01*
X118502242Y-142666079D01*
X118507389Y-142667959D01*
X118547906Y-142692357D01*
X119123187Y-143211237D01*
X120708551Y-144641173D01*
X120745149Y-144700690D01*
X120749500Y-144733251D01*
X120749500Y-146028157D01*
X120729815Y-146095196D01*
X120677011Y-146140951D01*
X120607853Y-146150895D01*
X120544297Y-146121870D01*
X120536465Y-146113559D01*
X120536242Y-146113783D01*
X120441965Y-146019506D01*
X120441964Y-146019505D01*
X120333536Y-145956905D01*
X120333537Y-145956905D01*
X120293224Y-145946103D01*
X120212601Y-145924500D01*
X120087399Y-145924500D01*
X120006775Y-145946103D01*
X119966463Y-145956905D01*
X119858037Y-146019504D01*
X119858034Y-146019506D01*
X119769506Y-146108034D01*
X119769504Y-146108037D01*
X119706905Y-146216463D01*
X119706905Y-146216464D01*
X119674500Y-146337399D01*
X119674500Y-146462601D01*
X119706905Y-146583536D01*
X119765596Y-146685194D01*
X119769504Y-146691962D01*
X119769506Y-146691965D01*
X119818201Y-146740660D01*
X119851686Y-146801983D01*
X119854441Y-146823915D01*
X120039552Y-152007020D01*
X120039613Y-152009345D01*
X120172795Y-159867125D01*
X120154250Y-159934488D01*
X120102229Y-159981131D01*
X120033248Y-159992245D01*
X120016720Y-159989001D01*
X119962601Y-159974500D01*
X119837399Y-159974500D01*
X119771175Y-159992245D01*
X119716463Y-160006905D01*
X119608037Y-160069504D01*
X119608034Y-160069506D01*
X119519506Y-160158034D01*
X119519504Y-160158037D01*
X119456905Y-160266463D01*
X119456905Y-160266464D01*
X119424500Y-160387399D01*
X119424500Y-160512601D01*
X119456905Y-160633536D01*
X119519505Y-160741964D01*
X119608036Y-160830495D01*
X119716464Y-160893095D01*
X119837399Y-160925500D01*
X119837401Y-160925500D01*
X119962600Y-160925500D01*
X119962601Y-160925500D01*
X120036318Y-160905747D01*
X120106167Y-160907408D01*
X120164030Y-160946570D01*
X120191535Y-161010798D01*
X120192394Y-161023420D01*
X120232531Y-163391526D01*
X120213986Y-163458889D01*
X120196233Y-163481306D01*
X120169505Y-163508034D01*
X120106905Y-163616463D01*
X120106904Y-163616466D01*
X120092502Y-163670213D01*
X120056136Y-163729872D01*
X119993289Y-163760400D01*
X119923913Y-163752104D01*
X119922091Y-163751306D01*
X118747231Y-163225711D01*
X118741399Y-163223102D01*
X118719848Y-163210660D01*
X118704237Y-163206476D01*
X118695234Y-163202449D01*
X118695231Y-163202448D01*
X118689484Y-163199877D01*
X118680086Y-163198371D01*
X118671213Y-163196949D01*
X118658750Y-163194288D01*
X118640878Y-163189500D01*
X118634585Y-163189500D01*
X118614889Y-163187925D01*
X118614000Y-163187783D01*
X118613863Y-163187761D01*
X118550803Y-163157674D01*
X118514020Y-163098270D01*
X118512900Y-163093896D01*
X118406700Y-162645200D01*
X118171098Y-161649781D01*
X118171989Y-161589129D01*
X118173205Y-161584590D01*
X118173207Y-161584587D01*
X118200500Y-161482727D01*
X118200500Y-142733182D01*
X118209029Y-142704133D01*
X118215262Y-142674504D01*
X118218776Y-142670941D01*
X118220185Y-142666143D01*
X118243061Y-142646320D01*
X118264327Y-142624761D01*
X118269208Y-142623663D01*
X118272989Y-142620388D01*
X118302955Y-142616079D01*
X118332496Y-142609440D01*
X118339249Y-142610860D01*
G37*
%TD.AperFunction*%
%TA.AperFunction,Conductor*%
G36*
X106707552Y-132750196D02*
G01*
X106734257Y-132776052D01*
X107333671Y-133562783D01*
X107343588Y-133577996D01*
X107347918Y-133585839D01*
X107347919Y-133585840D01*
X107358905Y-133597257D01*
X107368183Y-133608080D01*
X107377792Y-133620692D01*
X107392085Y-133631737D01*
X107404607Y-133644750D01*
X107424287Y-133656622D01*
X107424653Y-133656905D01*
X107429937Y-133660988D01*
X107429937Y-133660989D01*
X107429939Y-133660990D01*
X107442480Y-133670682D01*
X107442479Y-133670682D01*
X107442482Y-133670683D01*
X107442483Y-133670684D01*
X107459149Y-133677654D01*
X107474611Y-133686982D01*
X107496694Y-133693357D01*
X107503279Y-133696111D01*
X107503278Y-133696111D01*
X107515141Y-133701072D01*
X107517908Y-133702229D01*
X107524266Y-133703088D01*
X107526774Y-133703427D01*
X107544558Y-133707174D01*
X107553156Y-133709656D01*
X107553157Y-133709656D01*
X107553160Y-133709657D01*
X107576151Y-133710099D01*
X107598929Y-133713177D01*
X107616837Y-133710881D01*
X112790282Y-133810370D01*
X112792332Y-133810427D01*
X113410246Y-133833313D01*
X113476509Y-133855465D01*
X113520279Y-133909927D01*
X113527656Y-133979406D01*
X113513043Y-134019226D01*
X113456907Y-134116459D01*
X113456905Y-134116462D01*
X113445640Y-134158503D01*
X113424500Y-134237399D01*
X113424500Y-134362601D01*
X113456905Y-134483536D01*
X113519505Y-134591964D01*
X113608036Y-134680495D01*
X113716464Y-134743095D01*
X113837399Y-134775500D01*
X113837401Y-134775500D01*
X113962599Y-134775500D01*
X113962601Y-134775500D01*
X114083536Y-134743095D01*
X114191964Y-134680495D01*
X114280495Y-134591964D01*
X114343095Y-134483536D01*
X114375500Y-134362601D01*
X114375500Y-134237399D01*
X114343095Y-134116464D01*
X114343094Y-134116462D01*
X114339984Y-134108954D01*
X114341156Y-134108468D01*
X114326622Y-134048573D01*
X114349470Y-133982544D01*
X114404388Y-133939350D01*
X114473941Y-133932704D01*
X114497929Y-133939902D01*
X114503006Y-133942004D01*
X114503009Y-133942004D01*
X114503013Y-133942007D01*
X114604874Y-133969300D01*
X114604876Y-133969300D01*
X114710325Y-133969300D01*
X114710327Y-133969300D01*
X114812188Y-133942007D01*
X114873670Y-133906509D01*
X114890644Y-133902296D01*
X114905163Y-133893708D01*
X114940256Y-133889981D01*
X115075681Y-133894996D01*
X115141944Y-133917148D01*
X115158771Y-133931230D01*
X115208036Y-133980495D01*
X115316464Y-134043095D01*
X115437399Y-134075500D01*
X115437401Y-134075500D01*
X115562599Y-134075500D01*
X115562601Y-134075500D01*
X115683536Y-134043095D01*
X115791964Y-133980495D01*
X115880495Y-133891964D01*
X115880495Y-133891963D01*
X115886242Y-133886217D01*
X115888421Y-133888396D01*
X115933035Y-133855811D01*
X116002780Y-133851646D01*
X116063706Y-133885849D01*
X116065756Y-133888215D01*
X116069505Y-133891964D01*
X116158036Y-133980495D01*
X116266464Y-134043095D01*
X116387399Y-134075500D01*
X116387401Y-134075500D01*
X116465500Y-134075500D01*
X116474185Y-134078050D01*
X116483147Y-134076762D01*
X116507187Y-134087740D01*
X116532539Y-134095185D01*
X116538466Y-134102025D01*
X116546703Y-134105787D01*
X116560992Y-134128021D01*
X116578294Y-134147989D01*
X116580581Y-134158503D01*
X116584477Y-134164565D01*
X116589500Y-134199500D01*
X116589500Y-134286979D01*
X116589277Y-134294408D01*
X116587608Y-134322201D01*
X116588185Y-134330309D01*
X116588114Y-134330314D01*
X116588369Y-134332832D01*
X116588440Y-134332823D01*
X116589500Y-134340880D01*
X116596707Y-134367776D01*
X116598414Y-134375008D01*
X116603998Y-134402295D01*
X116603998Y-134402296D01*
X116608218Y-134410738D01*
X116610660Y-134419848D01*
X116626432Y-134447167D01*
X116628093Y-134450489D01*
X116628101Y-134450503D01*
X116693060Y-134580419D01*
X116704464Y-134615489D01*
X116775424Y-135041250D01*
X116767028Y-135110613D01*
X116760499Y-135123634D01*
X116706905Y-135216463D01*
X116706905Y-135216464D01*
X116674500Y-135337399D01*
X116674500Y-135462601D01*
X116706905Y-135583536D01*
X116769505Y-135691964D01*
X116858036Y-135780495D01*
X116966464Y-135843095D01*
X117087399Y-135875500D01*
X117087401Y-135875500D01*
X117212599Y-135875500D01*
X117212601Y-135875500D01*
X117333536Y-135843095D01*
X117441964Y-135780495D01*
X117530495Y-135691964D01*
X117593095Y-135583536D01*
X117625500Y-135462601D01*
X117625500Y-135337399D01*
X117593095Y-135216464D01*
X117530495Y-135108036D01*
X117441964Y-135019505D01*
X117441961Y-135019503D01*
X117435515Y-135014557D01*
X117437444Y-135012042D01*
X117425496Y-134999513D01*
X117402208Y-134977207D01*
X117400998Y-134973823D01*
X117399522Y-134972275D01*
X117398440Y-134966666D01*
X117387422Y-134935836D01*
X117378036Y-134879520D01*
X117349217Y-134706607D01*
X117357613Y-134637246D01*
X117402176Y-134583433D01*
X117468759Y-134562255D01*
X117503624Y-134566449D01*
X117537399Y-134575500D01*
X117585024Y-134575500D01*
X117613229Y-134583782D01*
X117642094Y-134589413D01*
X117646376Y-134593515D01*
X117652063Y-134595185D01*
X117672705Y-134611819D01*
X118745451Y-135684565D01*
X118762922Y-135706526D01*
X119016990Y-136113036D01*
X119035828Y-136180318D01*
X119031614Y-136210845D01*
X119024500Y-136237397D01*
X119024500Y-136237399D01*
X119024500Y-136362601D01*
X119056905Y-136483536D01*
X119119505Y-136591964D01*
X119208036Y-136680495D01*
X119316464Y-136743095D01*
X119437399Y-136775500D01*
X119437401Y-136775500D01*
X119458400Y-136775500D01*
X119525439Y-136795185D01*
X119571194Y-136847989D01*
X119582400Y-136899500D01*
X119582400Y-139939945D01*
X119562715Y-140006984D01*
X119546081Y-140027626D01*
X117479522Y-142094184D01*
X117479520Y-142094187D01*
X117426791Y-142185513D01*
X117403279Y-142273271D01*
X117403278Y-142273275D01*
X117399500Y-142287372D01*
X117399500Y-159316817D01*
X117379815Y-159383856D01*
X117327011Y-159429611D01*
X117257853Y-159439555D01*
X117242601Y-159436373D01*
X117227269Y-159432154D01*
X117183536Y-159406905D01*
X117062601Y-159374500D01*
X117017751Y-159374500D01*
X117001601Y-159370056D01*
X116985558Y-159360129D01*
X116967461Y-159354815D01*
X116956467Y-159342127D01*
X116942187Y-159333291D01*
X116934057Y-159316265D01*
X116921706Y-159302011D01*
X116917065Y-159280678D01*
X116912081Y-159270240D01*
X116913078Y-159262351D01*
X116910500Y-159250500D01*
X116910500Y-138647273D01*
X117949500Y-138647273D01*
X117949500Y-138752727D01*
X117976793Y-138854587D01*
X118029520Y-138945913D01*
X118104087Y-139020480D01*
X118195413Y-139073207D01*
X118297273Y-139100500D01*
X118297275Y-139100500D01*
X118402725Y-139100500D01*
X118402727Y-139100500D01*
X118504587Y-139073207D01*
X118595913Y-139020480D01*
X118670480Y-138945913D01*
X118723207Y-138854587D01*
X118750500Y-138752727D01*
X118750500Y-138647273D01*
X118723207Y-138545413D01*
X118670480Y-138454087D01*
X118595913Y-138379520D01*
X118504587Y-138326793D01*
X118402727Y-138299500D01*
X118297273Y-138299500D01*
X118195413Y-138326793D01*
X118195410Y-138326794D01*
X118104085Y-138379521D01*
X118029521Y-138454085D01*
X117976794Y-138545410D01*
X117976793Y-138545413D01*
X117949500Y-138647273D01*
X116910500Y-138647273D01*
X116910500Y-137327185D01*
X116912879Y-137313704D01*
X116910500Y-137286467D01*
X116910500Y-137259122D01*
X116909766Y-137256385D01*
X116906011Y-137235074D01*
X116905765Y-137232258D01*
X116898262Y-137211634D01*
X116898262Y-137211633D01*
X116896413Y-137206553D01*
X116889340Y-137180152D01*
X116882495Y-137168296D01*
X116878780Y-137158084D01*
X116877815Y-137155431D01*
X116872106Y-137147275D01*
X116862131Y-137133025D01*
X116848462Y-137109349D01*
X116838782Y-137099669D01*
X116177114Y-136154428D01*
X116165922Y-136134865D01*
X116165419Y-136133764D01*
X116150423Y-136115611D01*
X116144441Y-136107751D01*
X116131580Y-136089380D01*
X116130930Y-136088451D01*
X116130928Y-136088449D01*
X116130000Y-136087670D01*
X116129999Y-136087669D01*
X116121325Y-136080389D01*
X116113349Y-136070733D01*
X116090143Y-136054217D01*
X116086352Y-136051035D01*
X116068308Y-136035891D01*
X116068299Y-136035886D01*
X116067206Y-136035376D01*
X116067206Y-136035377D01*
X116056950Y-136030592D01*
X116046740Y-136023326D01*
X116020039Y-136013374D01*
X115994217Y-136001329D01*
X115994215Y-136001328D01*
X115994209Y-136001326D01*
X115993010Y-136001115D01*
X115971273Y-135995198D01*
X115970138Y-135994775D01*
X115970137Y-135994774D01*
X115946688Y-135992540D01*
X115941758Y-135992071D01*
X115913704Y-135987121D01*
X115901222Y-135988211D01*
X115889951Y-135987137D01*
X115889949Y-135987136D01*
X104690579Y-134920530D01*
X104625707Y-134894579D01*
X104585165Y-134837674D01*
X104581823Y-134767885D01*
X104594946Y-134735093D01*
X104627195Y-134679236D01*
X104659600Y-134558301D01*
X104659600Y-134494175D01*
X104679285Y-134427136D01*
X104695919Y-134406494D01*
X104937848Y-134164565D01*
X105185807Y-133916605D01*
X105247128Y-133883122D01*
X105316819Y-133888106D01*
X105372753Y-133929977D01*
X105397170Y-133995442D01*
X105393261Y-134036381D01*
X105377505Y-134095185D01*
X105374500Y-134106399D01*
X105374500Y-134231601D01*
X105406905Y-134352536D01*
X105469505Y-134460964D01*
X105558036Y-134549495D01*
X105666464Y-134612095D01*
X105787399Y-134644500D01*
X105787401Y-134644500D01*
X105912599Y-134644500D01*
X105912601Y-134644500D01*
X106033536Y-134612095D01*
X106141964Y-134549495D01*
X106230495Y-134460964D01*
X106293095Y-134352536D01*
X106325500Y-134231601D01*
X106325500Y-134106399D01*
X106293095Y-133985464D01*
X106230495Y-133877036D01*
X106141964Y-133788505D01*
X106033536Y-133725905D01*
X106033537Y-133725905D01*
X105982617Y-133712261D01*
X105912601Y-133693500D01*
X105787399Y-133693500D01*
X105787398Y-133693500D01*
X105717381Y-133712261D01*
X105647531Y-133710598D01*
X105589669Y-133671435D01*
X105562165Y-133607207D01*
X105573752Y-133538304D01*
X105597604Y-133504808D01*
X106252294Y-132850119D01*
X106313617Y-132816634D01*
X106339975Y-132813800D01*
X106387599Y-132813800D01*
X106387601Y-132813800D01*
X106508536Y-132781395D01*
X106573626Y-132743815D01*
X106641525Y-132727343D01*
X106707552Y-132750196D01*
G37*
%TD.AperFunction*%
%TA.AperFunction,Conductor*%
G36*
X120634650Y-123489010D02*
G01*
X120687207Y-123535048D01*
X120706531Y-123602192D01*
X120702308Y-123633619D01*
X120674500Y-123737399D01*
X120674500Y-123862601D01*
X120691701Y-123926794D01*
X120706905Y-123983537D01*
X120706906Y-123983538D01*
X120732887Y-124028538D01*
X120749500Y-124090538D01*
X120749500Y-143320590D01*
X120729815Y-143387629D01*
X120677011Y-143433384D01*
X120607853Y-143443328D01*
X120544297Y-143414303D01*
X120542449Y-143412669D01*
X119085820Y-142098847D01*
X119060141Y-142066381D01*
X119052961Y-142053285D01*
X119043095Y-142016464D01*
X118980495Y-141908036D01*
X118964625Y-141892166D01*
X118956107Y-141876629D01*
X118952265Y-141859113D01*
X118943671Y-141843374D01*
X118944935Y-141825694D01*
X118941138Y-141808381D01*
X118947375Y-141791569D01*
X118948655Y-141773682D01*
X118961330Y-141753959D01*
X118965443Y-141742875D01*
X118971265Y-141738501D01*
X118977154Y-141729337D01*
X120218603Y-140487887D01*
X120218608Y-140487884D01*
X120228811Y-140477680D01*
X120228813Y-140477680D01*
X120303380Y-140403113D01*
X120329743Y-140357450D01*
X120356107Y-140311788D01*
X120383400Y-140209927D01*
X120383400Y-140104473D01*
X120383400Y-135392673D01*
X120356107Y-135290813D01*
X120303380Y-135199487D01*
X120228813Y-135124920D01*
X119903457Y-134799564D01*
X119869972Y-134738241D01*
X119874956Y-134668549D01*
X119903457Y-134624202D01*
X119906795Y-134620864D01*
X119969395Y-134512436D01*
X120001800Y-134391501D01*
X120001800Y-134266299D01*
X119969395Y-134145364D01*
X119906795Y-134036936D01*
X119818264Y-133948405D01*
X119709836Y-133885805D01*
X119709837Y-133885805D01*
X119645698Y-133868619D01*
X119588901Y-133853400D01*
X119463699Y-133853400D01*
X119463698Y-133853400D01*
X119400693Y-133870282D01*
X119330843Y-133868619D01*
X119272981Y-133829456D01*
X119245477Y-133765227D01*
X119244600Y-133750507D01*
X119244600Y-131499028D01*
X119244601Y-131499015D01*
X119244601Y-131383573D01*
X119244601Y-131383572D01*
X119217307Y-131281712D01*
X119217049Y-131281266D01*
X119211988Y-131272499D01*
X119198312Y-131248812D01*
X119164580Y-131190386D01*
X119090013Y-131115819D01*
X119090010Y-131115817D01*
X117637019Y-129662825D01*
X117603534Y-129601502D01*
X117600700Y-129575144D01*
X117600700Y-126099500D01*
X117620385Y-126032461D01*
X117673189Y-125986706D01*
X117724700Y-125975500D01*
X117762599Y-125975500D01*
X117762601Y-125975500D01*
X117883536Y-125943095D01*
X117991964Y-125880495D01*
X118080495Y-125791964D01*
X118143095Y-125683536D01*
X118175500Y-125562601D01*
X118175500Y-125558412D01*
X118176499Y-125555007D01*
X118176561Y-125554542D01*
X118176633Y-125554551D01*
X118195185Y-125491373D01*
X118218798Y-125464267D01*
X120501837Y-123507376D01*
X120565546Y-123478695D01*
X120634650Y-123489010D01*
G37*
%TD.AperFunction*%
%TA.AperFunction,Conductor*%
G36*
X109030246Y-126333245D02*
G01*
X112795582Y-127462845D01*
X112851581Y-127498069D01*
X113941476Y-128693437D01*
X114317165Y-129105482D01*
X114319065Y-129107614D01*
X116551602Y-131672657D01*
X116559034Y-131681195D01*
X116588199Y-131744687D01*
X116589500Y-131762604D01*
X116589500Y-133000500D01*
X116569815Y-133067539D01*
X116517011Y-133113294D01*
X116465500Y-133124500D01*
X116387399Y-133124500D01*
X116306775Y-133146103D01*
X116266463Y-133156905D01*
X116158037Y-133219504D01*
X116158034Y-133219506D01*
X116063758Y-133313783D01*
X116061582Y-133311607D01*
X116016925Y-133344202D01*
X115947178Y-133348343D01*
X115886264Y-133314119D01*
X115884226Y-133311767D01*
X115791965Y-133219506D01*
X115791964Y-133219505D01*
X115683536Y-133156905D01*
X115683537Y-133156905D01*
X115643224Y-133146103D01*
X115562601Y-133124500D01*
X115542300Y-133124500D01*
X115475261Y-133104815D01*
X115429506Y-133052011D01*
X115418300Y-133000500D01*
X115418300Y-131617929D01*
X115418301Y-131617916D01*
X115418301Y-131502474D01*
X115416433Y-131495500D01*
X115391007Y-131400613D01*
X115379824Y-131381244D01*
X115338280Y-131309287D01*
X115338278Y-131309285D01*
X115336693Y-131306539D01*
X115324307Y-131276638D01*
X115309095Y-131219864D01*
X115246495Y-131111436D01*
X115157964Y-131022905D01*
X115049536Y-130960305D01*
X115049537Y-130960305D01*
X114988178Y-130943864D01*
X114928601Y-130927900D01*
X114803399Y-130927900D01*
X114743822Y-130943864D01*
X114682463Y-130960305D01*
X114574037Y-131022904D01*
X114574034Y-131022906D01*
X114485506Y-131111434D01*
X114485502Y-131111439D01*
X114422475Y-131220606D01*
X114415365Y-131227384D01*
X114411603Y-131236457D01*
X114390498Y-131251095D01*
X114371908Y-131268822D01*
X114362262Y-131270680D01*
X114354192Y-131276279D01*
X114328519Y-131277183D01*
X114303301Y-131282044D01*
X114294183Y-131278393D01*
X114284366Y-131278740D01*
X114262280Y-131265621D01*
X114238436Y-131256076D01*
X114231136Y-131247123D01*
X114224294Y-131243059D01*
X114204181Y-131214064D01*
X114192418Y-131190538D01*
X114185340Y-131173224D01*
X114183791Y-131168432D01*
X114182880Y-131165613D01*
X114182878Y-131165610D01*
X114182878Y-131165609D01*
X114173753Y-131151509D01*
X114173753Y-131151510D01*
X114170020Y-131145742D01*
X114159438Y-131124578D01*
X114147905Y-131111572D01*
X114138460Y-131096978D01*
X114126001Y-131085725D01*
X114116339Y-131075975D01*
X114105194Y-131063406D01*
X114098521Y-131059001D01*
X114098518Y-131058999D01*
X114090685Y-131053827D01*
X114077787Y-131042177D01*
X114056718Y-131031400D01*
X114036969Y-131018361D01*
X114036963Y-131018358D01*
X114029373Y-131015828D01*
X114012123Y-131008590D01*
X114005002Y-131004948D01*
X114005001Y-131004947D01*
X114005000Y-131004947D01*
X113993935Y-131002577D01*
X113988568Y-131001427D01*
X113988568Y-131001426D01*
X113981850Y-130999987D01*
X113959408Y-130992507D01*
X113942054Y-130991465D01*
X113932881Y-130989500D01*
X113932879Y-130989499D01*
X113925059Y-130987825D01*
X113925054Y-130987824D01*
X113908287Y-130988677D01*
X113894569Y-130988615D01*
X113877798Y-130987609D01*
X113877796Y-130987609D01*
X113869951Y-130989214D01*
X113851401Y-130991569D01*
X110777666Y-131147860D01*
X110709713Y-131131605D01*
X110661336Y-131081193D01*
X110647893Y-131012629D01*
X110673653Y-130947681D01*
X110709369Y-130916633D01*
X110771964Y-130880495D01*
X110860495Y-130791964D01*
X110923095Y-130683536D01*
X110955500Y-130562601D01*
X110955500Y-130437399D01*
X110923095Y-130316464D01*
X110860495Y-130208036D01*
X110771964Y-130119505D01*
X110663536Y-130056905D01*
X110663531Y-130056903D01*
X110656409Y-130054995D01*
X110596749Y-130018630D01*
X110576992Y-129989453D01*
X108883147Y-126506256D01*
X108871533Y-126437360D01*
X108899010Y-126373120D01*
X108956856Y-126333933D01*
X109026705Y-126332241D01*
X109030246Y-126333245D01*
G37*
%TD.AperFunction*%
%TD*%
M02*
