%TF.GenerationSoftware,KiCad,Pcbnew,10.0.4*%
%TF.CreationDate,2026-07-20T18:38:35-04:00*%
%TF.ProjectId,dongle-lite,646f6e67-6c65-42d6-9c69-74652e6b6963,rev?*%
%TF.SameCoordinates,Original*%
%TF.FileFunction,Copper,L2,Inr*%
%TF.FilePolarity,Positive*%
%FSLAX46Y46*%
G04 Gerber Fmt 4.6, Leading zero omitted, Abs format (unit mm)*
G04 Created by KiCad (PCBNEW 10.0.4) date 2026-07-20 18:38:35*
%MOMM*%
%LPD*%
G01*
G04 APERTURE LIST*
%TA.AperFunction,ComponentPad*%
%ADD10O,1.200000X2.000000*%
%TD*%
%TA.AperFunction,ComponentPad*%
%ADD11O,1.200000X1.800000*%
%TD*%
%TA.AperFunction,ViaPad*%
%ADD12C,0.300000*%
%TD*%
G04 APERTURE END LIST*
D10*
%TO.N,GND*%
%TO.C,J1*%
X102670000Y-106800000D03*
D11*
X102670000Y-102620000D03*
X111330000Y-102620000D03*
D10*
X111330000Y-106800000D03*
%TD*%
%TO.N,GND*%
%TO.C,J2*%
X111330000Y-148160000D03*
D11*
X111330000Y-152340000D03*
X102670000Y-152340000D03*
D10*
X102670000Y-148160000D03*
%TD*%
D12*
%TO.N,RUN*%
X102399999Y-130899999D03*
X106149999Y-129850000D03*
X107949999Y-129100000D03*
X109030000Y-134670000D03*
X109365142Y-132171153D03*
%TO.N,+3V3*%
X113205000Y-139500000D03*
X107445695Y-120142717D03*
X109300000Y-129569999D03*
X102865539Y-124022768D03*
X112600000Y-132143999D03*
X101000000Y-139536000D03*
X111900000Y-132837999D03*
X102300000Y-129620000D03*
X108446330Y-122881653D03*
X111150000Y-130661999D03*
X109900000Y-137150000D03*
X103095892Y-137769387D03*
X107950000Y-137450000D03*
X106506275Y-123092729D03*
X102300000Y-116582000D03*
X101475000Y-117680000D03*
X102670194Y-128285385D03*
X106600000Y-118502000D03*
X106800000Y-123080000D03*
X110930000Y-127100000D03*
X109300000Y-126370000D03*
X102350000Y-130044999D03*
X100670000Y-111530000D03*
X111500000Y-124048000D03*
X109030000Y-136873038D03*
X105395892Y-137769387D03*
X106500000Y-124500000D03*
X110753778Y-124449421D03*
X112600000Y-121544000D03*
X103796932Y-120404595D03*
X104600000Y-129970000D03*
X111500000Y-121744000D03*
X110734460Y-124022768D03*
X109564999Y-130789999D03*
X105625000Y-137450000D03*
X103175000Y-128320000D03*
%TO.N,GND*%
X103911091Y-124691091D03*
X110950000Y-113950000D03*
X113950000Y-119950000D03*
X110450000Y-139250000D03*
X110710000Y-115327999D03*
X104950000Y-152950000D03*
X107201040Y-117811040D03*
X104950000Y-101950000D03*
X107091866Y-119090475D03*
X109875499Y-136610526D03*
X106200000Y-137030000D03*
X108910288Y-128504999D03*
X107850000Y-113630000D03*
X101950000Y-140950000D03*
X104950000Y-110950000D03*
X113950000Y-131949999D03*
X111405575Y-128066228D03*
X103480384Y-138950000D03*
X105200000Y-120380000D03*
X113950000Y-110950000D03*
X110950000Y-149950000D03*
X111900000Y-131547999D03*
X103614890Y-136479679D03*
X104950000Y-104950000D03*
X111200000Y-129372000D03*
X104149999Y-132199999D03*
X113950000Y-104950000D03*
X101950000Y-116950000D03*
X112020000Y-119232000D03*
X110950000Y-152950000D03*
X110200000Y-147400000D03*
X107108133Y-117420475D03*
X106050000Y-134050000D03*
X110950000Y-110950000D03*
X101950000Y-134950000D03*
X110050000Y-116177999D03*
X113950000Y-152950000D03*
X107950000Y-104950000D03*
X101950000Y-104950000D03*
X108620000Y-139648000D03*
X113950000Y-101950000D03*
X103450000Y-119167999D03*
X107950000Y-149950000D03*
X104850000Y-128280000D03*
X103200000Y-139514000D03*
X110950000Y-101950000D03*
X113950000Y-107950000D03*
X110950000Y-143950000D03*
X102850000Y-121560000D03*
X106675500Y-145096643D03*
X110950000Y-104950000D03*
X113950000Y-140950000D03*
X110950000Y-122950000D03*
X101950000Y-149950000D03*
X113950000Y-128949999D03*
X107220000Y-124500000D03*
X107250000Y-127100000D03*
X101950000Y-146950000D03*
X109200000Y-123530000D03*
X101950000Y-113950000D03*
X107950000Y-152950000D03*
X107475000Y-132739711D03*
X105100000Y-141915999D03*
X113950000Y-122950000D03*
X113950000Y-143950000D03*
X107950000Y-101950000D03*
X104950000Y-149950000D03*
X110950000Y-132500000D03*
X113950000Y-125950000D03*
X103060288Y-110625000D03*
X111800000Y-114477999D03*
X103800000Y-107560000D03*
X109300000Y-125080000D03*
X113950000Y-149950000D03*
X110200000Y-107560000D03*
X106904095Y-110656073D03*
X105978133Y-117710475D03*
X100900500Y-141716134D03*
X101950000Y-107950000D03*
X104950000Y-113950000D03*
X110950000Y-146950000D03*
X107000000Y-120880000D03*
X110950000Y-140950000D03*
X113950000Y-116950000D03*
X109800000Y-139648000D03*
X110950000Y-107950000D03*
X113950000Y-146950000D03*
X103800000Y-147400000D03*
X109450000Y-109830000D03*
X107511091Y-113941091D03*
X100989524Y-131008133D03*
X101950000Y-137950000D03*
X109070000Y-139148000D03*
%TO.N,+5V*%
X109149999Y-108399999D03*
X106600000Y-108850000D03*
X104500000Y-115449999D03*
X102100000Y-111399999D03*
X101350000Y-137950000D03*
X104649999Y-107500000D03*
X107350000Y-109000000D03*
%TO.N,HUB_RSTB*%
X109600000Y-118000000D03*
X110500000Y-113500000D03*
%TO.N,HUB_3V3*%
X111274721Y-120296084D03*
X111471880Y-118701880D03*
%TO.N,SHIFT_EN*%
X109850000Y-127920000D03*
X105650000Y-118245000D03*
%TO.N,+1V2*%
X103000000Y-112000000D03*
%TO.N,TGT_VBUS_EN*%
X110649999Y-131350000D03*
X107050000Y-138100000D03*
%TO.N,TGT_VBUS*%
X104649999Y-147549999D03*
X109449999Y-147399999D03*
X103900000Y-142050000D03*
%TO.N,+1V1*%
X106800000Y-125005000D03*
X104350000Y-129100000D03*
X104350000Y-125949999D03*
X107534999Y-121875000D03*
X111850000Y-127600000D03*
X106750000Y-121600000D03*
X108000000Y-123525000D03*
X104800000Y-131400000D03*
X108550000Y-119199999D03*
X109600000Y-127000000D03*
%TO.N,Net-(U1-XIN)*%
X106000000Y-130690000D03*
%TO.N,Net-(U1-XOUT)*%
X107100000Y-129664999D03*
X106380000Y-130329999D03*
X107614999Y-133690000D03*
%TO.N,SWCLK*%
X107199999Y-130600000D03*
X112950000Y-138850000D03*
X108250000Y-136899999D03*
%TO.N,SWDIO*%
X107600000Y-131089999D03*
%TO.N,I2C_SDA*%
X108699999Y-132699999D03*
X109149999Y-138100000D03*
X110050000Y-130299999D03*
%TO.N,I2C_SCL*%
X109401880Y-133671880D03*
X108820000Y-130750000D03*
X109550000Y-138100000D03*
X109534242Y-131695431D03*
X108188725Y-138161274D03*
X112600000Y-123070000D03*
%TO.N,FUSB_INT*%
X111288118Y-126188118D03*
X109170701Y-130475845D03*
X110000000Y-138380000D03*
%TO.N,SBU1_DIR*%
X104140000Y-135400000D03*
X110233118Y-129493118D03*
%TO.N,SBU2_DIR*%
X108600000Y-129959999D03*
X107085000Y-131459999D03*
%TO.N,SBU2_UART*%
X108699999Y-129100000D03*
X107050000Y-137049999D03*
%TO.N,VREG_LX*%
X108250000Y-121000000D03*
X108850000Y-124149999D03*
%TO.N,MCU_D_N*%
X107649999Y-122949999D03*
X112899999Y-114550000D03*
%TO.N,MCU_D_P*%
X107199999Y-123699999D03*
X112899999Y-113800000D03*
%TO.N,Net-(U1-QSPI_SS)*%
X103899999Y-123699999D03*
%TO.N,HUB_XO*%
X110500000Y-117399999D03*
%TO.N,HUB_XI*%
X110350000Y-118600000D03*
X110949999Y-117850000D03*
%TO.N,TGT_D_P*%
X113199999Y-115149999D03*
X106000000Y-140049999D03*
X106000000Y-146049999D03*
X106750000Y-147399999D03*
%TO.N,TGT_SBU2*%
X105250000Y-147250000D03*
X107050000Y-135100000D03*
%TO.N,TGT_CC1*%
X108399999Y-141549999D03*
X105550000Y-145149999D03*
%TO.N,TGT_SBU1*%
X104649999Y-136149999D03*
X108250000Y-147399999D03*
%TO.N,Net-(SW1-A)*%
X104260000Y-141340000D03*
X105160000Y-125080000D03*
X107048119Y-143178118D03*
X110020000Y-142970000D03*
%TD*%
%TA.AperFunction,Conductor*%
%TO.N,GND*%
G36*
X115442539Y-100520185D02*
G01*
X115488294Y-100572989D01*
X115499500Y-100624500D01*
X115499500Y-154375500D01*
X115479815Y-154442539D01*
X115427011Y-154488294D01*
X115375500Y-154499500D01*
X100624500Y-154499500D01*
X100557461Y-154479815D01*
X100511706Y-154427011D01*
X100500500Y-154375500D01*
X100500500Y-148590817D01*
X103574500Y-148590817D01*
X103574500Y-148729182D01*
X103610312Y-148862835D01*
X103610313Y-148862838D01*
X103679492Y-148982661D01*
X103679494Y-148982664D01*
X103679495Y-148982665D01*
X103777335Y-149080505D01*
X103897164Y-149149688D01*
X104030817Y-149185500D01*
X104030819Y-149185500D01*
X104169181Y-149185500D01*
X104169183Y-149185500D01*
X104302836Y-149149688D01*
X104422665Y-149080505D01*
X104520505Y-148982665D01*
X104589688Y-148862836D01*
X104625500Y-148729183D01*
X104625500Y-148590817D01*
X109374500Y-148590817D01*
X109374500Y-148729182D01*
X109410312Y-148862835D01*
X109410313Y-148862838D01*
X109479492Y-148982661D01*
X109479494Y-148982664D01*
X109479495Y-148982665D01*
X109577335Y-149080505D01*
X109697164Y-149149688D01*
X109830817Y-149185500D01*
X109830819Y-149185500D01*
X109969181Y-149185500D01*
X109969183Y-149185500D01*
X110102836Y-149149688D01*
X110222665Y-149080505D01*
X110320505Y-148982665D01*
X110389688Y-148862836D01*
X110425500Y-148729183D01*
X110425500Y-148590817D01*
X110389688Y-148457164D01*
X110320505Y-148337335D01*
X110222665Y-148239495D01*
X110222664Y-148239494D01*
X110222661Y-148239492D01*
X110102838Y-148170313D01*
X110102837Y-148170312D01*
X110102836Y-148170312D01*
X109969183Y-148134500D01*
X109830817Y-148134500D01*
X109697164Y-148170312D01*
X109697161Y-148170313D01*
X109577338Y-148239492D01*
X109577333Y-148239496D01*
X109479496Y-148337333D01*
X109479492Y-148337338D01*
X109410313Y-148457161D01*
X109410312Y-148457164D01*
X109374500Y-148590817D01*
X104625500Y-148590817D01*
X104589688Y-148457164D01*
X104520505Y-148337335D01*
X104422665Y-148239495D01*
X104422664Y-148239494D01*
X104422661Y-148239492D01*
X104302838Y-148170313D01*
X104302837Y-148170312D01*
X104302836Y-148170312D01*
X104169183Y-148134500D01*
X104030817Y-148134500D01*
X103897164Y-148170312D01*
X103897161Y-148170313D01*
X103777338Y-148239492D01*
X103777333Y-148239496D01*
X103679496Y-148337333D01*
X103679492Y-148337338D01*
X103610313Y-148457161D01*
X103610312Y-148457164D01*
X103574500Y-148590817D01*
X100500500Y-148590817D01*
X100500500Y-147503855D01*
X104299499Y-147503855D01*
X104299499Y-147596143D01*
X104304608Y-147615211D01*
X104323386Y-147685289D01*
X104323387Y-147685292D01*
X104369525Y-147765204D01*
X104369528Y-147765208D01*
X104369530Y-147765211D01*
X104434787Y-147830468D01*
X104434790Y-147830469D01*
X104434793Y-147830472D01*
X104514705Y-147876610D01*
X104514706Y-147876610D01*
X104514711Y-147876613D01*
X104603855Y-147900499D01*
X104603857Y-147900499D01*
X104696141Y-147900499D01*
X104696143Y-147900499D01*
X104785287Y-147876613D01*
X104865211Y-147830468D01*
X104930468Y-147765211D01*
X104976613Y-147685287D01*
X104980938Y-147669142D01*
X105017302Y-147609483D01*
X105080148Y-147578953D01*
X105132804Y-147581461D01*
X105203856Y-147600500D01*
X105203858Y-147600500D01*
X105296142Y-147600500D01*
X105296144Y-147600500D01*
X105385288Y-147576614D01*
X105465212Y-147530469D01*
X105530469Y-147465212D01*
X105576614Y-147385288D01*
X105585036Y-147353855D01*
X106399500Y-147353855D01*
X106399500Y-147446143D01*
X106422096Y-147530473D01*
X106423387Y-147535289D01*
X106423388Y-147535292D01*
X106469526Y-147615204D01*
X106469529Y-147615208D01*
X106469531Y-147615211D01*
X106534788Y-147680468D01*
X106534791Y-147680469D01*
X106534794Y-147680472D01*
X106614706Y-147726610D01*
X106614707Y-147726610D01*
X106614712Y-147726613D01*
X106703856Y-147750499D01*
X106703858Y-147750499D01*
X106796142Y-147750499D01*
X106796144Y-147750499D01*
X106885288Y-147726613D01*
X106965212Y-147680468D01*
X107030469Y-147615211D01*
X107076614Y-147535287D01*
X107100500Y-147446143D01*
X107100500Y-147353855D01*
X107899500Y-147353855D01*
X107899500Y-147446143D01*
X107922096Y-147530473D01*
X107923387Y-147535289D01*
X107923388Y-147535292D01*
X107969526Y-147615204D01*
X107969529Y-147615208D01*
X107969531Y-147615211D01*
X108034788Y-147680468D01*
X108034791Y-147680469D01*
X108034794Y-147680472D01*
X108114706Y-147726610D01*
X108114707Y-147726610D01*
X108114712Y-147726613D01*
X108203856Y-147750499D01*
X108203858Y-147750499D01*
X108296142Y-147750499D01*
X108296144Y-147750499D01*
X108385288Y-147726613D01*
X108465212Y-147680468D01*
X108530469Y-147615211D01*
X108576614Y-147535287D01*
X108600500Y-147446143D01*
X108600500Y-147353855D01*
X109099499Y-147353855D01*
X109099499Y-147446143D01*
X109122095Y-147530473D01*
X109123386Y-147535289D01*
X109123387Y-147535292D01*
X109169525Y-147615204D01*
X109169528Y-147615208D01*
X109169530Y-147615211D01*
X109234787Y-147680468D01*
X109234790Y-147680469D01*
X109234793Y-147680472D01*
X109314705Y-147726610D01*
X109314706Y-147726610D01*
X109314711Y-147726613D01*
X109403855Y-147750499D01*
X109403857Y-147750499D01*
X109496141Y-147750499D01*
X109496143Y-147750499D01*
X109585287Y-147726613D01*
X109665211Y-147680468D01*
X109730468Y-147615211D01*
X109776613Y-147535287D01*
X109800499Y-147446143D01*
X109800499Y-147353855D01*
X109776613Y-147264711D01*
X109776610Y-147264705D01*
X109730472Y-147184793D01*
X109730469Y-147184790D01*
X109730468Y-147184787D01*
X109665211Y-147119530D01*
X109665208Y-147119528D01*
X109665204Y-147119525D01*
X109585292Y-147073387D01*
X109585289Y-147073386D01*
X109585288Y-147073385D01*
X109585287Y-147073385D01*
X109496143Y-147049499D01*
X109403855Y-147049499D01*
X109314711Y-147073385D01*
X109314710Y-147073385D01*
X109314708Y-147073386D01*
X109314705Y-147073387D01*
X109234793Y-147119525D01*
X109234784Y-147119532D01*
X109169532Y-147184784D01*
X109169525Y-147184793D01*
X109123387Y-147264705D01*
X109123386Y-147264708D01*
X109123385Y-147264710D01*
X109123385Y-147264711D01*
X109099499Y-147353855D01*
X108600500Y-147353855D01*
X108576614Y-147264711D01*
X108576611Y-147264705D01*
X108530473Y-147184793D01*
X108530470Y-147184790D01*
X108530469Y-147184787D01*
X108465212Y-147119530D01*
X108465209Y-147119528D01*
X108465205Y-147119525D01*
X108385293Y-147073387D01*
X108385290Y-147073386D01*
X108385289Y-147073385D01*
X108385288Y-147073385D01*
X108296144Y-147049499D01*
X108203856Y-147049499D01*
X108114712Y-147073385D01*
X108114711Y-147073385D01*
X108114709Y-147073386D01*
X108114706Y-147073387D01*
X108034794Y-147119525D01*
X108034785Y-147119532D01*
X107969533Y-147184784D01*
X107969526Y-147184793D01*
X107923388Y-147264705D01*
X107923387Y-147264708D01*
X107923386Y-147264710D01*
X107923386Y-147264711D01*
X107899500Y-147353855D01*
X107100500Y-147353855D01*
X107076614Y-147264711D01*
X107076611Y-147264705D01*
X107030473Y-147184793D01*
X107030470Y-147184790D01*
X107030469Y-147184787D01*
X106965212Y-147119530D01*
X106965209Y-147119528D01*
X106965205Y-147119525D01*
X106885293Y-147073387D01*
X106885290Y-147073386D01*
X106885289Y-147073385D01*
X106885288Y-147073385D01*
X106796144Y-147049499D01*
X106703856Y-147049499D01*
X106614712Y-147073385D01*
X106614711Y-147073385D01*
X106614709Y-147073386D01*
X106614706Y-147073387D01*
X106534794Y-147119525D01*
X106534785Y-147119532D01*
X106469533Y-147184784D01*
X106469526Y-147184793D01*
X106423388Y-147264705D01*
X106423387Y-147264708D01*
X106423386Y-147264710D01*
X106423386Y-147264711D01*
X106399500Y-147353855D01*
X105585036Y-147353855D01*
X105600500Y-147296144D01*
X105600500Y-147203856D01*
X105576614Y-147114712D01*
X105552754Y-147073386D01*
X105530473Y-147034794D01*
X105530470Y-147034791D01*
X105530469Y-147034788D01*
X105465212Y-146969531D01*
X105465209Y-146969529D01*
X105465205Y-146969526D01*
X105385293Y-146923388D01*
X105385290Y-146923387D01*
X105385289Y-146923386D01*
X105385288Y-146923386D01*
X105296144Y-146899500D01*
X105203856Y-146899500D01*
X105114712Y-146923386D01*
X105114711Y-146923386D01*
X105114709Y-146923387D01*
X105114706Y-146923388D01*
X105034794Y-146969526D01*
X105034785Y-146969533D01*
X104969533Y-147034785D01*
X104969526Y-147034794D01*
X104923388Y-147114706D01*
X104923386Y-147114710D01*
X104919059Y-147130859D01*
X104882692Y-147190519D01*
X104819844Y-147221046D01*
X104767194Y-147218537D01*
X104696143Y-147199499D01*
X104603855Y-147199499D01*
X104514711Y-147223385D01*
X104514710Y-147223385D01*
X104514708Y-147223386D01*
X104514705Y-147223387D01*
X104434793Y-147269525D01*
X104434784Y-147269532D01*
X104369532Y-147334784D01*
X104369525Y-147334793D01*
X104323387Y-147414705D01*
X104323386Y-147414708D01*
X104323385Y-147414710D01*
X104323385Y-147414711D01*
X104299499Y-147503855D01*
X100500500Y-147503855D01*
X100500500Y-146003855D01*
X105649500Y-146003855D01*
X105649500Y-146096142D01*
X105673387Y-146185289D01*
X105673388Y-146185292D01*
X105719526Y-146265204D01*
X105719529Y-146265208D01*
X105719531Y-146265211D01*
X105784788Y-146330468D01*
X105784791Y-146330469D01*
X105784794Y-146330472D01*
X105864706Y-146376610D01*
X105864707Y-146376610D01*
X105864712Y-146376613D01*
X105953856Y-146400499D01*
X105953858Y-146400499D01*
X106046142Y-146400499D01*
X106046144Y-146400499D01*
X106135288Y-146376613D01*
X106215212Y-146330468D01*
X106280469Y-146265211D01*
X106326614Y-146185287D01*
X106350500Y-146096143D01*
X106350500Y-146003855D01*
X106326614Y-145914711D01*
X106326611Y-145914705D01*
X106280473Y-145834793D01*
X106280470Y-145834790D01*
X106280469Y-145834787D01*
X106215212Y-145769530D01*
X106215209Y-145769528D01*
X106215205Y-145769525D01*
X106135293Y-145723387D01*
X106135290Y-145723386D01*
X106135289Y-145723385D01*
X106135288Y-145723385D01*
X106046144Y-145699499D01*
X105953856Y-145699499D01*
X105864712Y-145723385D01*
X105864711Y-145723385D01*
X105864709Y-145723386D01*
X105864706Y-145723387D01*
X105784794Y-145769525D01*
X105784785Y-145769532D01*
X105719533Y-145834784D01*
X105719526Y-145834793D01*
X105673388Y-145914705D01*
X105673387Y-145914708D01*
X105649500Y-146003855D01*
X100500500Y-146003855D01*
X100500500Y-145103855D01*
X105199500Y-145103855D01*
X105199500Y-145196142D01*
X105223387Y-145285289D01*
X105223388Y-145285292D01*
X105269526Y-145365204D01*
X105269529Y-145365208D01*
X105269531Y-145365211D01*
X105334788Y-145430468D01*
X105334791Y-145430469D01*
X105334794Y-145430472D01*
X105414706Y-145476610D01*
X105414707Y-145476610D01*
X105414712Y-145476613D01*
X105503856Y-145500499D01*
X105503858Y-145500499D01*
X105596142Y-145500499D01*
X105596144Y-145500499D01*
X105685288Y-145476613D01*
X105765212Y-145430468D01*
X105830469Y-145365211D01*
X105876614Y-145285287D01*
X105900500Y-145196143D01*
X105900500Y-145103855D01*
X105876614Y-145014711D01*
X105876611Y-145014705D01*
X105830473Y-144934793D01*
X105830470Y-144934790D01*
X105830469Y-144934787D01*
X105765212Y-144869530D01*
X105765209Y-144869528D01*
X105765205Y-144869525D01*
X105685293Y-144823387D01*
X105685290Y-144823386D01*
X105685289Y-144823385D01*
X105685288Y-144823385D01*
X105596144Y-144799499D01*
X105503856Y-144799499D01*
X105414712Y-144823385D01*
X105414711Y-144823385D01*
X105414709Y-144823386D01*
X105414706Y-144823387D01*
X105334794Y-144869525D01*
X105334785Y-144869532D01*
X105269533Y-144934784D01*
X105269526Y-144934793D01*
X105223388Y-145014705D01*
X105223387Y-145014708D01*
X105199500Y-145103855D01*
X100500500Y-145103855D01*
X100500500Y-143131974D01*
X106697619Y-143131974D01*
X106697619Y-143224262D01*
X106717005Y-143296612D01*
X106721506Y-143313408D01*
X106721507Y-143313411D01*
X106767645Y-143393323D01*
X106767648Y-143393327D01*
X106767650Y-143393330D01*
X106832907Y-143458587D01*
X106832910Y-143458588D01*
X106832913Y-143458591D01*
X106912825Y-143504729D01*
X106912826Y-143504729D01*
X106912831Y-143504732D01*
X107001975Y-143528618D01*
X107001977Y-143528618D01*
X107094261Y-143528618D01*
X107094263Y-143528618D01*
X107183407Y-143504732D01*
X107263331Y-143458587D01*
X107328588Y-143393330D01*
X107374733Y-143313406D01*
X107398619Y-143224262D01*
X107398619Y-143131974D01*
X107374733Y-143042830D01*
X107374732Y-143042829D01*
X107374732Y-143042827D01*
X107337147Y-142977731D01*
X107337146Y-142977729D01*
X107328591Y-142962912D01*
X107328588Y-142962906D01*
X107289538Y-142923856D01*
X109669500Y-142923856D01*
X109669500Y-143016144D01*
X109676650Y-143042830D01*
X109693387Y-143105290D01*
X109693388Y-143105293D01*
X109739526Y-143185205D01*
X109739529Y-143185209D01*
X109739531Y-143185212D01*
X109804788Y-143250469D01*
X109804791Y-143250470D01*
X109804794Y-143250473D01*
X109884706Y-143296611D01*
X109884707Y-143296611D01*
X109884712Y-143296614D01*
X109973856Y-143320500D01*
X109973858Y-143320500D01*
X110066142Y-143320500D01*
X110066144Y-143320500D01*
X110155288Y-143296614D01*
X110235212Y-143250469D01*
X110300469Y-143185212D01*
X110346614Y-143105288D01*
X110370500Y-143016144D01*
X110370500Y-142923856D01*
X110346614Y-142834712D01*
X110346611Y-142834706D01*
X110300473Y-142754794D01*
X110300470Y-142754791D01*
X110300469Y-142754788D01*
X110235212Y-142689531D01*
X110235209Y-142689529D01*
X110235205Y-142689526D01*
X110155293Y-142643388D01*
X110155290Y-142643387D01*
X110155289Y-142643386D01*
X110155288Y-142643386D01*
X110066144Y-142619500D01*
X109973856Y-142619500D01*
X109884712Y-142643386D01*
X109884711Y-142643386D01*
X109884709Y-142643387D01*
X109884706Y-142643388D01*
X109804794Y-142689526D01*
X109804785Y-142689533D01*
X109739533Y-142754785D01*
X109739526Y-142754794D01*
X109693388Y-142834706D01*
X109693387Y-142834709D01*
X109693386Y-142834711D01*
X109693386Y-142834712D01*
X109669500Y-142923856D01*
X107289538Y-142923856D01*
X107263331Y-142897649D01*
X107263328Y-142897647D01*
X107263324Y-142897644D01*
X107183412Y-142851506D01*
X107183409Y-142851505D01*
X107183408Y-142851504D01*
X107183407Y-142851504D01*
X107094263Y-142827618D01*
X107001975Y-142827618D01*
X106912831Y-142851504D01*
X106912830Y-142851504D01*
X106912828Y-142851505D01*
X106912825Y-142851506D01*
X106832913Y-142897644D01*
X106832904Y-142897651D01*
X106767652Y-142962903D01*
X106767645Y-142962912D01*
X106721507Y-143042824D01*
X106721506Y-143042827D01*
X106721505Y-143042829D01*
X106721505Y-143042830D01*
X106697619Y-143131974D01*
X100500500Y-143131974D01*
X100500500Y-142003856D01*
X103549500Y-142003856D01*
X103549500Y-142096143D01*
X103573387Y-142185290D01*
X103573388Y-142185293D01*
X103619526Y-142265205D01*
X103619529Y-142265209D01*
X103619531Y-142265212D01*
X103684788Y-142330469D01*
X103684791Y-142330470D01*
X103684794Y-142330473D01*
X103764706Y-142376611D01*
X103764707Y-142376611D01*
X103764712Y-142376614D01*
X103853856Y-142400500D01*
X103853858Y-142400500D01*
X103946142Y-142400500D01*
X103946144Y-142400500D01*
X104035288Y-142376614D01*
X104115212Y-142330469D01*
X104180469Y-142265212D01*
X104226614Y-142185288D01*
X104250500Y-142096144D01*
X104250500Y-142003856D01*
X104226614Y-141914712D01*
X104226613Y-141914711D01*
X104226613Y-141914709D01*
X104204553Y-141876502D01*
X104188079Y-141808602D01*
X104210931Y-141742574D01*
X104265851Y-141699383D01*
X104298290Y-141693130D01*
X104298084Y-141691561D01*
X104306135Y-141690500D01*
X104306144Y-141690500D01*
X104395288Y-141666614D01*
X104475212Y-141620469D01*
X104540469Y-141555212D01*
X104570121Y-141503855D01*
X108049499Y-141503855D01*
X108049499Y-141596143D01*
X108063240Y-141647426D01*
X108073386Y-141685289D01*
X108073387Y-141685292D01*
X108119525Y-141765204D01*
X108119528Y-141765208D01*
X108119530Y-141765211D01*
X108184787Y-141830468D01*
X108184790Y-141830469D01*
X108184793Y-141830472D01*
X108264705Y-141876610D01*
X108264706Y-141876610D01*
X108264711Y-141876613D01*
X108353855Y-141900499D01*
X108353857Y-141900499D01*
X108446141Y-141900499D01*
X108446143Y-141900499D01*
X108535287Y-141876613D01*
X108615211Y-141830468D01*
X108680468Y-141765211D01*
X108726613Y-141685287D01*
X108750499Y-141596143D01*
X108750499Y-141503855D01*
X108726613Y-141414711D01*
X108726610Y-141414705D01*
X108725222Y-141412300D01*
X108692940Y-141356389D01*
X111354200Y-141356389D01*
X111354200Y-141483610D01*
X111379015Y-141608365D01*
X111379018Y-141608375D01*
X111427697Y-141725898D01*
X111427702Y-141725907D01*
X111498373Y-141831673D01*
X111498376Y-141831677D01*
X111588322Y-141921623D01*
X111588326Y-141921626D01*
X111694092Y-141992297D01*
X111694098Y-141992300D01*
X111694099Y-141992301D01*
X111811627Y-142040983D01*
X111936389Y-142065799D01*
X111936393Y-142065800D01*
X111936394Y-142065800D01*
X112063607Y-142065800D01*
X112063608Y-142065799D01*
X112188373Y-142040983D01*
X112305901Y-141992301D01*
X112411674Y-141921626D01*
X112501626Y-141831674D01*
X112572301Y-141725901D01*
X112620983Y-141608373D01*
X112645800Y-141483606D01*
X112645800Y-141356394D01*
X112620983Y-141231627D01*
X112572301Y-141114099D01*
X112572300Y-141114098D01*
X112572297Y-141114092D01*
X112501626Y-141008326D01*
X112501623Y-141008322D01*
X112411677Y-140918376D01*
X112411673Y-140918373D01*
X112305907Y-140847702D01*
X112305898Y-140847697D01*
X112188375Y-140799018D01*
X112188376Y-140799018D01*
X112188373Y-140799017D01*
X112188369Y-140799016D01*
X112188365Y-140799015D01*
X112063610Y-140774200D01*
X112063606Y-140774200D01*
X111936394Y-140774200D01*
X111936389Y-140774200D01*
X111811634Y-140799015D01*
X111811624Y-140799018D01*
X111694101Y-140847697D01*
X111694092Y-140847702D01*
X111588326Y-140918373D01*
X111588322Y-140918376D01*
X111498376Y-141008322D01*
X111498373Y-141008326D01*
X111427702Y-141114092D01*
X111427697Y-141114101D01*
X111379018Y-141231624D01*
X111379015Y-141231634D01*
X111354200Y-141356389D01*
X108692940Y-141356389D01*
X108680471Y-141334793D01*
X108680468Y-141334787D01*
X108615211Y-141269530D01*
X108615208Y-141269528D01*
X108615204Y-141269525D01*
X108535292Y-141223387D01*
X108535289Y-141223386D01*
X108535288Y-141223385D01*
X108535287Y-141223385D01*
X108446143Y-141199499D01*
X108353855Y-141199499D01*
X108264711Y-141223385D01*
X108264710Y-141223385D01*
X108264708Y-141223386D01*
X108264705Y-141223387D01*
X108184793Y-141269525D01*
X108184784Y-141269532D01*
X108119532Y-141334784D01*
X108119525Y-141334793D01*
X108073387Y-141414705D01*
X108073386Y-141414708D01*
X108073385Y-141414710D01*
X108073385Y-141414711D01*
X108049499Y-141503855D01*
X104570121Y-141503855D01*
X104586614Y-141475288D01*
X104610500Y-141386144D01*
X104610500Y-141293856D01*
X104586614Y-141204712D01*
X104586611Y-141204706D01*
X104540473Y-141124794D01*
X104540470Y-141124791D01*
X104540469Y-141124788D01*
X104475212Y-141059531D01*
X104475209Y-141059529D01*
X104475205Y-141059526D01*
X104395293Y-141013388D01*
X104395290Y-141013387D01*
X104395289Y-141013386D01*
X104395288Y-141013386D01*
X104306144Y-140989500D01*
X104213856Y-140989500D01*
X104124712Y-141013386D01*
X104124711Y-141013386D01*
X104124709Y-141013387D01*
X104124706Y-141013388D01*
X104044794Y-141059526D01*
X104044785Y-141059533D01*
X103979533Y-141124785D01*
X103979526Y-141124794D01*
X103933388Y-141204706D01*
X103933387Y-141204709D01*
X103933386Y-141204711D01*
X103933386Y-141204712D01*
X103916018Y-141269530D01*
X103909500Y-141293856D01*
X103909500Y-141386143D01*
X103933386Y-141475290D01*
X103955447Y-141513498D01*
X103971921Y-141581398D01*
X103949069Y-141647426D01*
X103894149Y-141690617D01*
X103861709Y-141696869D01*
X103861916Y-141698439D01*
X103853856Y-141699500D01*
X103764712Y-141723386D01*
X103764711Y-141723386D01*
X103764709Y-141723387D01*
X103764706Y-141723388D01*
X103684794Y-141769526D01*
X103684785Y-141769533D01*
X103619533Y-141834785D01*
X103619526Y-141834794D01*
X103573388Y-141914706D01*
X103573387Y-141914709D01*
X103573386Y-141914711D01*
X103573386Y-141914712D01*
X103552597Y-141992297D01*
X103549500Y-142003856D01*
X100500500Y-142003856D01*
X100500500Y-140003855D01*
X105649500Y-140003855D01*
X105649500Y-140096142D01*
X105673387Y-140185289D01*
X105673388Y-140185292D01*
X105719526Y-140265204D01*
X105719529Y-140265208D01*
X105719531Y-140265211D01*
X105784788Y-140330468D01*
X105784791Y-140330469D01*
X105784794Y-140330472D01*
X105864706Y-140376610D01*
X105864707Y-140376610D01*
X105864712Y-140376613D01*
X105953856Y-140400499D01*
X105953858Y-140400499D01*
X106046142Y-140400499D01*
X106046144Y-140400499D01*
X106135288Y-140376613D01*
X106215212Y-140330468D01*
X106280469Y-140265211D01*
X106326614Y-140185287D01*
X106350500Y-140096143D01*
X106350500Y-140003855D01*
X106326614Y-139914711D01*
X106326611Y-139914705D01*
X106280473Y-139834793D01*
X106280470Y-139834790D01*
X106280469Y-139834787D01*
X106215212Y-139769530D01*
X106215209Y-139769528D01*
X106215205Y-139769525D01*
X106135293Y-139723387D01*
X106135290Y-139723386D01*
X106135289Y-139723385D01*
X106135288Y-139723385D01*
X106046144Y-139699499D01*
X105953856Y-139699499D01*
X105864712Y-139723385D01*
X105864711Y-139723385D01*
X105864709Y-139723386D01*
X105864706Y-139723387D01*
X105784794Y-139769525D01*
X105784785Y-139769532D01*
X105719533Y-139834784D01*
X105719526Y-139834793D01*
X105673388Y-139914705D01*
X105673387Y-139914708D01*
X105649500Y-140003855D01*
X100500500Y-140003855D01*
X100500500Y-139831056D01*
X100520185Y-139764017D01*
X100572989Y-139718262D01*
X100642147Y-139708318D01*
X100705703Y-139737343D01*
X100713562Y-139745686D01*
X100713784Y-139745465D01*
X100719531Y-139751212D01*
X100784788Y-139816469D01*
X100784791Y-139816470D01*
X100784794Y-139816473D01*
X100864706Y-139862611D01*
X100864707Y-139862611D01*
X100864712Y-139862614D01*
X100953856Y-139886500D01*
X100953858Y-139886500D01*
X101046142Y-139886500D01*
X101046144Y-139886500D01*
X101135288Y-139862614D01*
X101135290Y-139862612D01*
X101135292Y-139862612D01*
X101135293Y-139862611D01*
X101215205Y-139816473D01*
X101215204Y-139816473D01*
X101215212Y-139816469D01*
X101280469Y-139751212D01*
X101326614Y-139671288D01*
X101350500Y-139582144D01*
X101350500Y-139489856D01*
X101326614Y-139400712D01*
X101326611Y-139400706D01*
X101280473Y-139320794D01*
X101280470Y-139320791D01*
X101280469Y-139320788D01*
X101215212Y-139255531D01*
X101215209Y-139255529D01*
X101215205Y-139255526D01*
X101135293Y-139209388D01*
X101135290Y-139209387D01*
X101135289Y-139209386D01*
X101135288Y-139209386D01*
X101046144Y-139185500D01*
X100953856Y-139185500D01*
X100864712Y-139209386D01*
X100864711Y-139209386D01*
X100864709Y-139209387D01*
X100864706Y-139209388D01*
X100784794Y-139255526D01*
X100784785Y-139255533D01*
X100713784Y-139326535D01*
X100711780Y-139324531D01*
X100666446Y-139357633D01*
X100596700Y-139361787D01*
X100535780Y-139327573D01*
X100503028Y-139265855D01*
X100500500Y-139240943D01*
X100500500Y-138803856D01*
X112599500Y-138803856D01*
X112599500Y-138896144D01*
X112623385Y-138985286D01*
X112623387Y-138985290D01*
X112623388Y-138985293D01*
X112669526Y-139065205D01*
X112669529Y-139065209D01*
X112669531Y-139065212D01*
X112734788Y-139130469D01*
X112734791Y-139130470D01*
X112734794Y-139130473D01*
X112814706Y-139176611D01*
X112814708Y-139176612D01*
X112814712Y-139176614D01*
X112814715Y-139176614D01*
X112822216Y-139179722D01*
X112820949Y-139182779D01*
X112867448Y-139211104D01*
X112897994Y-139273942D01*
X112889719Y-139343320D01*
X112883104Y-139356539D01*
X112878387Y-139364708D01*
X112878387Y-139364709D01*
X112878386Y-139364711D01*
X112878386Y-139364712D01*
X112868741Y-139400709D01*
X112854500Y-139453856D01*
X112854500Y-139546143D01*
X112878387Y-139635290D01*
X112878388Y-139635293D01*
X112924526Y-139715205D01*
X112924529Y-139715209D01*
X112924531Y-139715212D01*
X112989788Y-139780469D01*
X112989791Y-139780470D01*
X112989794Y-139780473D01*
X113069706Y-139826611D01*
X113069707Y-139826611D01*
X113069712Y-139826614D01*
X113158856Y-139850500D01*
X113158858Y-139850500D01*
X113251142Y-139850500D01*
X113251144Y-139850500D01*
X113340288Y-139826614D01*
X113420212Y-139780469D01*
X113485469Y-139715212D01*
X113531614Y-139635288D01*
X113555500Y-139546144D01*
X113555500Y-139453856D01*
X113531614Y-139364712D01*
X113531611Y-139364706D01*
X113485473Y-139284794D01*
X113485470Y-139284791D01*
X113485469Y-139284788D01*
X113420212Y-139219531D01*
X113420209Y-139219529D01*
X113420205Y-139219526D01*
X113340293Y-139173388D01*
X113332784Y-139170278D01*
X113334044Y-139167233D01*
X113287491Y-139138829D01*
X113256990Y-139075969D01*
X113265315Y-139006597D01*
X113271889Y-138993470D01*
X113276614Y-138985288D01*
X113300500Y-138896144D01*
X113300500Y-138803856D01*
X113276614Y-138714712D01*
X113271939Y-138706614D01*
X113230473Y-138634794D01*
X113230470Y-138634791D01*
X113230469Y-138634788D01*
X113165212Y-138569531D01*
X113165209Y-138569529D01*
X113165205Y-138569526D01*
X113085293Y-138523388D01*
X113085290Y-138523387D01*
X113085289Y-138523386D01*
X113085288Y-138523386D01*
X112996144Y-138499500D01*
X112903856Y-138499500D01*
X112814712Y-138523386D01*
X112814711Y-138523386D01*
X112814709Y-138523387D01*
X112814706Y-138523388D01*
X112734794Y-138569526D01*
X112734785Y-138569533D01*
X112669533Y-138634785D01*
X112669526Y-138634794D01*
X112623388Y-138714706D01*
X112623387Y-138714709D01*
X112623386Y-138714711D01*
X112623386Y-138714712D01*
X112599500Y-138803856D01*
X100500500Y-138803856D01*
X100500500Y-137903856D01*
X100999500Y-137903856D01*
X100999500Y-137996144D01*
X101021385Y-138077822D01*
X101023387Y-138085290D01*
X101023388Y-138085293D01*
X101069526Y-138165205D01*
X101069529Y-138165209D01*
X101069531Y-138165212D01*
X101134788Y-138230469D01*
X101134791Y-138230470D01*
X101134794Y-138230473D01*
X101214706Y-138276611D01*
X101214707Y-138276611D01*
X101214712Y-138276614D01*
X101303856Y-138300500D01*
X101303858Y-138300500D01*
X101396142Y-138300500D01*
X101396144Y-138300500D01*
X101485288Y-138276614D01*
X101565212Y-138230469D01*
X101630469Y-138165212D01*
X101676614Y-138085288D01*
X101700500Y-137996144D01*
X101700500Y-137903856D01*
X101676614Y-137814712D01*
X101630469Y-137734788D01*
X101618924Y-137723243D01*
X102745392Y-137723243D01*
X102745392Y-137815531D01*
X102769059Y-137903858D01*
X102769279Y-137904677D01*
X102769280Y-137904680D01*
X102815418Y-137984592D01*
X102815421Y-137984596D01*
X102815423Y-137984599D01*
X102880680Y-138049856D01*
X102880683Y-138049857D01*
X102880686Y-138049860D01*
X102960598Y-138095998D01*
X102960599Y-138095998D01*
X102960604Y-138096001D01*
X103049748Y-138119887D01*
X103049750Y-138119887D01*
X103142034Y-138119887D01*
X103142036Y-138119887D01*
X103231180Y-138096001D01*
X103311104Y-138049856D01*
X103376361Y-137984599D01*
X103422506Y-137904675D01*
X103446392Y-137815531D01*
X103446392Y-137723243D01*
X105045392Y-137723243D01*
X105045392Y-137815531D01*
X105069059Y-137903858D01*
X105069279Y-137904677D01*
X105069280Y-137904680D01*
X105115418Y-137984592D01*
X105115421Y-137984596D01*
X105115423Y-137984599D01*
X105180680Y-138049856D01*
X105180683Y-138049857D01*
X105180686Y-138049860D01*
X105260598Y-138095998D01*
X105260599Y-138095998D01*
X105260604Y-138096001D01*
X105349748Y-138119887D01*
X105349750Y-138119887D01*
X105442034Y-138119887D01*
X105442036Y-138119887D01*
X105531180Y-138096001D01*
X105604176Y-138053856D01*
X106699500Y-138053856D01*
X106699500Y-138146144D01*
X106715918Y-138207418D01*
X106723387Y-138235290D01*
X106723388Y-138235293D01*
X106769526Y-138315205D01*
X106769529Y-138315209D01*
X106769531Y-138315212D01*
X106834788Y-138380469D01*
X106834791Y-138380470D01*
X106834794Y-138380473D01*
X106914706Y-138426611D01*
X106914707Y-138426611D01*
X106914712Y-138426614D01*
X107003856Y-138450500D01*
X107003858Y-138450500D01*
X107096142Y-138450500D01*
X107096144Y-138450500D01*
X107185288Y-138426614D01*
X107265212Y-138380469D01*
X107330469Y-138315212D01*
X107376614Y-138235288D01*
X107400500Y-138146144D01*
X107400500Y-138053856D01*
X107376614Y-137964712D01*
X107376611Y-137964706D01*
X107330473Y-137884794D01*
X107330470Y-137884791D01*
X107330469Y-137884788D01*
X107265212Y-137819531D01*
X107265209Y-137819529D01*
X107265205Y-137819526D01*
X107185293Y-137773388D01*
X107185290Y-137773387D01*
X107185289Y-137773386D01*
X107185288Y-137773386D01*
X107096144Y-137749500D01*
X107003856Y-137749500D01*
X106914712Y-137773386D01*
X106914711Y-137773386D01*
X106914709Y-137773387D01*
X106914706Y-137773388D01*
X106834794Y-137819526D01*
X106834785Y-137819533D01*
X106769533Y-137884785D01*
X106769526Y-137884794D01*
X106723388Y-137964706D01*
X106723387Y-137964709D01*
X106723386Y-137964711D01*
X106723386Y-137964712D01*
X106699500Y-138053856D01*
X105604176Y-138053856D01*
X105611104Y-138049856D01*
X105676361Y-137984599D01*
X105722506Y-137904675D01*
X105745126Y-137820253D01*
X105748495Y-137812305D01*
X105765384Y-137791691D01*
X105779256Y-137768934D01*
X105791142Y-137760254D01*
X105792777Y-137758260D01*
X105794749Y-137757621D01*
X105800663Y-137753302D01*
X105840212Y-137730469D01*
X105905469Y-137665212D01*
X105951614Y-137585288D01*
X105975500Y-137496144D01*
X105975500Y-137403856D01*
X107599500Y-137403856D01*
X107599500Y-137496144D01*
X107615049Y-137554175D01*
X107623387Y-137585290D01*
X107623388Y-137585293D01*
X107669526Y-137665205D01*
X107669529Y-137665209D01*
X107669531Y-137665212D01*
X107734788Y-137730469D01*
X107734791Y-137730470D01*
X107734794Y-137730473D01*
X107814706Y-137776611D01*
X107814707Y-137776612D01*
X107814709Y-137776612D01*
X107814712Y-137776614D01*
X107824355Y-137779197D01*
X107884014Y-137815562D01*
X107914543Y-137878409D01*
X107906248Y-137947785D01*
X107899647Y-137960973D01*
X107862111Y-138025985D01*
X107846220Y-138085293D01*
X107838225Y-138115130D01*
X107838225Y-138207418D01*
X107856765Y-138276612D01*
X107862112Y-138296564D01*
X107862113Y-138296567D01*
X107908251Y-138376479D01*
X107908254Y-138376483D01*
X107908256Y-138376486D01*
X107973513Y-138441743D01*
X107973516Y-138441744D01*
X107973519Y-138441747D01*
X108053431Y-138487885D01*
X108053432Y-138487885D01*
X108053437Y-138487888D01*
X108142581Y-138511774D01*
X108142583Y-138511774D01*
X108234867Y-138511774D01*
X108234869Y-138511774D01*
X108324013Y-138487888D01*
X108403937Y-138441743D01*
X108469194Y-138376486D01*
X108515339Y-138296562D01*
X108539225Y-138207418D01*
X108539225Y-138115130D01*
X108522807Y-138053856D01*
X108799499Y-138053856D01*
X108799499Y-138146144D01*
X108815917Y-138207418D01*
X108823386Y-138235290D01*
X108823387Y-138235293D01*
X108869525Y-138315205D01*
X108869528Y-138315209D01*
X108869530Y-138315212D01*
X108934787Y-138380469D01*
X108934790Y-138380470D01*
X108934793Y-138380473D01*
X109014705Y-138426611D01*
X109014706Y-138426611D01*
X109014711Y-138426614D01*
X109103855Y-138450500D01*
X109103857Y-138450500D01*
X109196141Y-138450500D01*
X109196143Y-138450500D01*
X109285287Y-138426614D01*
X109287990Y-138425053D01*
X109290562Y-138424428D01*
X109292798Y-138423503D01*
X109292942Y-138423851D01*
X109355886Y-138408574D01*
X109373874Y-138410754D01*
X109394124Y-138414727D01*
X109414712Y-138426614D01*
X109503856Y-138450500D01*
X109576441Y-138450500D01*
X109588265Y-138452820D01*
X109609005Y-138463600D01*
X109631429Y-138470185D01*
X109641015Y-138480238D01*
X109650260Y-138485044D01*
X109657277Y-138497294D01*
X109671777Y-138512500D01*
X109673385Y-138515285D01*
X109673386Y-138515288D01*
X109719531Y-138595212D01*
X109784788Y-138660469D01*
X109784791Y-138660470D01*
X109784794Y-138660473D01*
X109864706Y-138706611D01*
X109864707Y-138706611D01*
X109864712Y-138706614D01*
X109953856Y-138730500D01*
X109953858Y-138730500D01*
X110046142Y-138730500D01*
X110046144Y-138730500D01*
X110135288Y-138706614D01*
X110139474Y-138704196D01*
X110166935Y-138688343D01*
X110215205Y-138660473D01*
X110215204Y-138660473D01*
X110215212Y-138660469D01*
X110280469Y-138595212D01*
X110326614Y-138515288D01*
X110350500Y-138426144D01*
X110350500Y-138333856D01*
X110326614Y-138244712D01*
X110321176Y-138235293D01*
X110280473Y-138164794D01*
X110280470Y-138164791D01*
X110280469Y-138164788D01*
X110215212Y-138099531D01*
X110215209Y-138099529D01*
X110215205Y-138099526D01*
X110135293Y-138053388D01*
X110135290Y-138053387D01*
X110135289Y-138053386D01*
X110135288Y-138053386D01*
X110046144Y-138029500D01*
X109985611Y-138029500D01*
X109918572Y-138009815D01*
X109878224Y-137967501D01*
X109876612Y-137964709D01*
X109830469Y-137884788D01*
X109765212Y-137819531D01*
X109765209Y-137819529D01*
X109765205Y-137819526D01*
X109685293Y-137773388D01*
X109685290Y-137773387D01*
X109685289Y-137773386D01*
X109685288Y-137773386D01*
X109596144Y-137749500D01*
X109503856Y-137749500D01*
X109414712Y-137773386D01*
X109414701Y-137773390D01*
X109411988Y-137774957D01*
X109409411Y-137775581D01*
X109407202Y-137776497D01*
X109407059Y-137776152D01*
X109344086Y-137791423D01*
X109292851Y-137776376D01*
X109292801Y-137776498D01*
X109291671Y-137776030D01*
X109288000Y-137774952D01*
X109285289Y-137773386D01*
X109225857Y-137757462D01*
X109196143Y-137749500D01*
X109103855Y-137749500D01*
X109014711Y-137773386D01*
X109014710Y-137773386D01*
X109014708Y-137773387D01*
X109014705Y-137773388D01*
X108934793Y-137819526D01*
X108934784Y-137819533D01*
X108869532Y-137884785D01*
X108869525Y-137884794D01*
X108823387Y-137964706D01*
X108823386Y-137964709D01*
X108823385Y-137964711D01*
X108823385Y-137964712D01*
X108799499Y-138053856D01*
X108522807Y-138053856D01*
X108515339Y-138025986D01*
X108515336Y-138025980D01*
X108469198Y-137946068D01*
X108469195Y-137946065D01*
X108469194Y-137946062D01*
X108403937Y-137880805D01*
X108403934Y-137880803D01*
X108403930Y-137880800D01*
X108324018Y-137834662D01*
X108324008Y-137834658D01*
X108314366Y-137832074D01*
X108254707Y-137795707D01*
X108224180Y-137732859D01*
X108232478Y-137663484D01*
X108239066Y-137650320D01*
X108276614Y-137585288D01*
X108300500Y-137496144D01*
X108300500Y-137403856D01*
X108293962Y-137379456D01*
X108295623Y-137309611D01*
X108334784Y-137251747D01*
X108381642Y-137227589D01*
X108385288Y-137226613D01*
X108465212Y-137180468D01*
X108530469Y-137115211D01*
X108540618Y-137097631D01*
X108591182Y-137049417D01*
X108659789Y-137036192D01*
X108724654Y-137062159D01*
X108746379Y-137084142D01*
X108749530Y-137088248D01*
X108749531Y-137088250D01*
X108814788Y-137153507D01*
X108814791Y-137153508D01*
X108814794Y-137153511D01*
X108894706Y-137199649D01*
X108894707Y-137199649D01*
X108894712Y-137199652D01*
X108983856Y-137223538D01*
X108983858Y-137223538D01*
X109076142Y-137223538D01*
X109076144Y-137223538D01*
X109165288Y-137199652D01*
X109245212Y-137153507D01*
X109310469Y-137088250D01*
X109318113Y-137075009D01*
X109368680Y-137026795D01*
X109437287Y-137013571D01*
X109502151Y-137039539D01*
X109542680Y-137096453D01*
X109549500Y-137137010D01*
X109549500Y-137196144D01*
X109568006Y-137265211D01*
X109573387Y-137285290D01*
X109573388Y-137285293D01*
X109619526Y-137365205D01*
X109619529Y-137365209D01*
X109619531Y-137365212D01*
X109684788Y-137430469D01*
X109684791Y-137430470D01*
X109684794Y-137430473D01*
X109764706Y-137476611D01*
X109764707Y-137476611D01*
X109764712Y-137476614D01*
X109853856Y-137500500D01*
X109853858Y-137500500D01*
X109946142Y-137500500D01*
X109946144Y-137500500D01*
X110035288Y-137476614D01*
X110115212Y-137430469D01*
X110180469Y-137365212D01*
X110226614Y-137285288D01*
X110250500Y-137196144D01*
X110250500Y-137103856D01*
X110226614Y-137014712D01*
X110226611Y-137014706D01*
X110180473Y-136934794D01*
X110180470Y-136934791D01*
X110180469Y-136934788D01*
X110115212Y-136869531D01*
X110115209Y-136869529D01*
X110115205Y-136869526D01*
X110035293Y-136823388D01*
X110035290Y-136823387D01*
X110035289Y-136823386D01*
X110035288Y-136823386D01*
X109946144Y-136799500D01*
X109853856Y-136799500D01*
X109764712Y-136823386D01*
X109764711Y-136823386D01*
X109764709Y-136823387D01*
X109764706Y-136823388D01*
X109684794Y-136869526D01*
X109684785Y-136869533D01*
X109619533Y-136934785D01*
X109619529Y-136934791D01*
X109611886Y-136948029D01*
X109561318Y-136996244D01*
X109492711Y-137009465D01*
X109427847Y-136983496D01*
X109387319Y-136926581D01*
X109380500Y-136886027D01*
X109380500Y-136826896D01*
X109380500Y-136826894D01*
X109356614Y-136737750D01*
X109356611Y-136737744D01*
X109310473Y-136657832D01*
X109310470Y-136657829D01*
X109310469Y-136657826D01*
X109245212Y-136592569D01*
X109245209Y-136592567D01*
X109245205Y-136592564D01*
X109165293Y-136546426D01*
X109165290Y-136546425D01*
X109165289Y-136546424D01*
X109165288Y-136546424D01*
X109076144Y-136522538D01*
X108983856Y-136522538D01*
X108894712Y-136546424D01*
X108894711Y-136546424D01*
X108894709Y-136546425D01*
X108894706Y-136546426D01*
X108814794Y-136592564D01*
X108814785Y-136592571D01*
X108749533Y-136657823D01*
X108749531Y-136657826D01*
X108739380Y-136675408D01*
X108688811Y-136723622D01*
X108620204Y-136736843D01*
X108555340Y-136710874D01*
X108533619Y-136688892D01*
X108530469Y-136684787D01*
X108465214Y-136619532D01*
X108465212Y-136619530D01*
X108465209Y-136619528D01*
X108465205Y-136619525D01*
X108385293Y-136573387D01*
X108385290Y-136573386D01*
X108385289Y-136573385D01*
X108385288Y-136573385D01*
X108296144Y-136549499D01*
X108203856Y-136549499D01*
X108114712Y-136573385D01*
X108114711Y-136573385D01*
X108114709Y-136573386D01*
X108114706Y-136573387D01*
X108034794Y-136619525D01*
X108034785Y-136619532D01*
X107969533Y-136684784D01*
X107969526Y-136684793D01*
X107923388Y-136764705D01*
X107923387Y-136764708D01*
X107923386Y-136764710D01*
X107923386Y-136764711D01*
X107899500Y-136853855D01*
X107899500Y-136946143D01*
X107906037Y-136970542D01*
X107904375Y-137040390D01*
X107865213Y-137098252D01*
X107818366Y-137122406D01*
X107814715Y-137123384D01*
X107814706Y-137123388D01*
X107734794Y-137169526D01*
X107734785Y-137169533D01*
X107669533Y-137234785D01*
X107669526Y-137234794D01*
X107623388Y-137314706D01*
X107623387Y-137314709D01*
X107623386Y-137314711D01*
X107623386Y-137314712D01*
X107599500Y-137403856D01*
X105975500Y-137403856D01*
X105951614Y-137314712D01*
X105948669Y-137309611D01*
X105905473Y-137234794D01*
X105905470Y-137234791D01*
X105905469Y-137234788D01*
X105840212Y-137169531D01*
X105840209Y-137169529D01*
X105840205Y-137169526D01*
X105760293Y-137123388D01*
X105760292Y-137123387D01*
X105756631Y-137122406D01*
X105730865Y-137115502D01*
X105687408Y-137103858D01*
X105671144Y-137099500D01*
X105578856Y-137099500D01*
X105489712Y-137123386D01*
X105489711Y-137123386D01*
X105489709Y-137123387D01*
X105489706Y-137123388D01*
X105409794Y-137169526D01*
X105409785Y-137169533D01*
X105344533Y-137234785D01*
X105344526Y-137234794D01*
X105298388Y-137314706D01*
X105298385Y-137314713D01*
X105277999Y-137390793D01*
X105241634Y-137450453D01*
X105220228Y-137466083D01*
X105180686Y-137488914D01*
X105180677Y-137488920D01*
X105115425Y-137554172D01*
X105115418Y-137554181D01*
X105069280Y-137634093D01*
X105069279Y-137634096D01*
X105069278Y-137634098D01*
X105069278Y-137634099D01*
X105045392Y-137723243D01*
X103446392Y-137723243D01*
X103422506Y-137634099D01*
X103416322Y-137623388D01*
X103376365Y-137554181D01*
X103376362Y-137554178D01*
X103376361Y-137554175D01*
X103311104Y-137488918D01*
X103311101Y-137488916D01*
X103311097Y-137488913D01*
X103231185Y-137442775D01*
X103231182Y-137442774D01*
X103231181Y-137442773D01*
X103231180Y-137442773D01*
X103142036Y-137418887D01*
X103049748Y-137418887D01*
X102960604Y-137442773D01*
X102960603Y-137442773D01*
X102960601Y-137442774D01*
X102960598Y-137442775D01*
X102880686Y-137488913D01*
X102880677Y-137488920D01*
X102815425Y-137554172D01*
X102815418Y-137554181D01*
X102769280Y-137634093D01*
X102769279Y-137634096D01*
X102769278Y-137634098D01*
X102769278Y-137634099D01*
X102745392Y-137723243D01*
X101618924Y-137723243D01*
X101565212Y-137669531D01*
X101565209Y-137669529D01*
X101565205Y-137669526D01*
X101485293Y-137623388D01*
X101485290Y-137623387D01*
X101485289Y-137623386D01*
X101485288Y-137623386D01*
X101396144Y-137599500D01*
X101303856Y-137599500D01*
X101214712Y-137623386D01*
X101214711Y-137623386D01*
X101214709Y-137623387D01*
X101214706Y-137623388D01*
X101134794Y-137669526D01*
X101134785Y-137669533D01*
X101069533Y-137734785D01*
X101069526Y-137734794D01*
X101023388Y-137814706D01*
X101023387Y-137814709D01*
X101023386Y-137814711D01*
X101023386Y-137814712D01*
X100999500Y-137903856D01*
X100500500Y-137903856D01*
X100500500Y-137003855D01*
X106699500Y-137003855D01*
X106699500Y-137096143D01*
X106719164Y-137169531D01*
X106723387Y-137185289D01*
X106723388Y-137185292D01*
X106769526Y-137265204D01*
X106769529Y-137265208D01*
X106769531Y-137265211D01*
X106834788Y-137330468D01*
X106834791Y-137330469D01*
X106834794Y-137330472D01*
X106914706Y-137376610D01*
X106914707Y-137376610D01*
X106914712Y-137376613D01*
X107003856Y-137400499D01*
X107003858Y-137400499D01*
X107096142Y-137400499D01*
X107096144Y-137400499D01*
X107185288Y-137376613D01*
X107265212Y-137330468D01*
X107330469Y-137265211D01*
X107376614Y-137185287D01*
X107400500Y-137096143D01*
X107400500Y-137003855D01*
X107376614Y-136914711D01*
X107376611Y-136914705D01*
X107330473Y-136834793D01*
X107330470Y-136834790D01*
X107330469Y-136834787D01*
X107265212Y-136769530D01*
X107265209Y-136769528D01*
X107265205Y-136769525D01*
X107185293Y-136723387D01*
X107185290Y-136723386D01*
X107185289Y-136723385D01*
X107185288Y-136723385D01*
X107096144Y-136699499D01*
X107003856Y-136699499D01*
X106914712Y-136723385D01*
X106914711Y-136723385D01*
X106914709Y-136723386D01*
X106914706Y-136723387D01*
X106834794Y-136769525D01*
X106834785Y-136769532D01*
X106769533Y-136834784D01*
X106769526Y-136834793D01*
X106723388Y-136914705D01*
X106723387Y-136914708D01*
X106723386Y-136914710D01*
X106723386Y-136914711D01*
X106699500Y-137003855D01*
X100500500Y-137003855D01*
X100500500Y-135353856D01*
X103789500Y-135353856D01*
X103789500Y-135446143D01*
X103813387Y-135535290D01*
X103813388Y-135535293D01*
X103859526Y-135615205D01*
X103859529Y-135615209D01*
X103859531Y-135615212D01*
X103924788Y-135680469D01*
X103924791Y-135680470D01*
X103924794Y-135680473D01*
X104004706Y-135726611D01*
X104004707Y-135726611D01*
X104004712Y-135726614D01*
X104093856Y-135750500D01*
X104093858Y-135750500D01*
X104186142Y-135750500D01*
X104186144Y-135750500D01*
X104242158Y-135735491D01*
X104312005Y-135737152D01*
X104369868Y-135776314D01*
X104397373Y-135840542D01*
X104385787Y-135909445D01*
X104372630Y-135930746D01*
X104369529Y-135934787D01*
X104323387Y-136014705D01*
X104323386Y-136014708D01*
X104323385Y-136014710D01*
X104323385Y-136014711D01*
X104299499Y-136103855D01*
X104299499Y-136196143D01*
X104321002Y-136276394D01*
X104323386Y-136285289D01*
X104323387Y-136285292D01*
X104369525Y-136365204D01*
X104369528Y-136365208D01*
X104369530Y-136365211D01*
X104434787Y-136430468D01*
X104434790Y-136430469D01*
X104434793Y-136430472D01*
X104514705Y-136476610D01*
X104514706Y-136476610D01*
X104514711Y-136476613D01*
X104603855Y-136500499D01*
X104603857Y-136500499D01*
X104696141Y-136500499D01*
X104696143Y-136500499D01*
X104785287Y-136476613D01*
X104865211Y-136430468D01*
X104930468Y-136365211D01*
X104976613Y-136285287D01*
X104978997Y-136276389D01*
X110338200Y-136276389D01*
X110338200Y-136403610D01*
X110363015Y-136528365D01*
X110363018Y-136528375D01*
X110411697Y-136645898D01*
X110411702Y-136645907D01*
X110482373Y-136751673D01*
X110482376Y-136751677D01*
X110572322Y-136841623D01*
X110572326Y-136841626D01*
X110678092Y-136912297D01*
X110678101Y-136912302D01*
X110683910Y-136914708D01*
X110795627Y-136960983D01*
X110908811Y-136983496D01*
X110920389Y-136985799D01*
X110920393Y-136985800D01*
X110920394Y-136985800D01*
X111047607Y-136985800D01*
X111047608Y-136985799D01*
X111172373Y-136960983D01*
X111289901Y-136912301D01*
X111395674Y-136841626D01*
X111485626Y-136751674D01*
X111556301Y-136645901D01*
X111604983Y-136528373D01*
X111629800Y-136403606D01*
X111629800Y-136276394D01*
X111629799Y-136276389D01*
X112370200Y-136276389D01*
X112370200Y-136403610D01*
X112395015Y-136528365D01*
X112395018Y-136528375D01*
X112443697Y-136645898D01*
X112443702Y-136645907D01*
X112514373Y-136751673D01*
X112514376Y-136751677D01*
X112604322Y-136841623D01*
X112604326Y-136841626D01*
X112710092Y-136912297D01*
X112710101Y-136912302D01*
X112715910Y-136914708D01*
X112827627Y-136960983D01*
X112940811Y-136983496D01*
X112952389Y-136985799D01*
X112952393Y-136985800D01*
X112952394Y-136985800D01*
X113079607Y-136985800D01*
X113079608Y-136985799D01*
X113204373Y-136960983D01*
X113321901Y-136912301D01*
X113427674Y-136841626D01*
X113517626Y-136751674D01*
X113588301Y-136645901D01*
X113636983Y-136528373D01*
X113661800Y-136403606D01*
X113661800Y-136276394D01*
X113636983Y-136151627D01*
X113588301Y-136034099D01*
X113588300Y-136034098D01*
X113588297Y-136034092D01*
X113517626Y-135928326D01*
X113517623Y-135928322D01*
X113427677Y-135838376D01*
X113427673Y-135838373D01*
X113321907Y-135767702D01*
X113321898Y-135767697D01*
X113204375Y-135719018D01*
X113204376Y-135719018D01*
X113204373Y-135719017D01*
X113204369Y-135719016D01*
X113204365Y-135719015D01*
X113079610Y-135694200D01*
X113079606Y-135694200D01*
X112952394Y-135694200D01*
X112952389Y-135694200D01*
X112827634Y-135719015D01*
X112827624Y-135719018D01*
X112710101Y-135767697D01*
X112710092Y-135767702D01*
X112604326Y-135838373D01*
X112604322Y-135838376D01*
X112514376Y-135928322D01*
X112514373Y-135928326D01*
X112443702Y-136034092D01*
X112443697Y-136034101D01*
X112395018Y-136151624D01*
X112395015Y-136151634D01*
X112370200Y-136276389D01*
X111629799Y-136276389D01*
X111604983Y-136151627D01*
X111556301Y-136034099D01*
X111556300Y-136034098D01*
X111556297Y-136034092D01*
X111485626Y-135928326D01*
X111485623Y-135928322D01*
X111395677Y-135838376D01*
X111395673Y-135838373D01*
X111289907Y-135767702D01*
X111289898Y-135767697D01*
X111172375Y-135719018D01*
X111172376Y-135719018D01*
X111172373Y-135719017D01*
X111172369Y-135719016D01*
X111172365Y-135719015D01*
X111047610Y-135694200D01*
X111047606Y-135694200D01*
X110920394Y-135694200D01*
X110920389Y-135694200D01*
X110795634Y-135719015D01*
X110795624Y-135719018D01*
X110678101Y-135767697D01*
X110678092Y-135767702D01*
X110572326Y-135838373D01*
X110572322Y-135838376D01*
X110482376Y-135928322D01*
X110482373Y-135928326D01*
X110411702Y-136034092D01*
X110411697Y-136034101D01*
X110363018Y-136151624D01*
X110363015Y-136151634D01*
X110338200Y-136276389D01*
X104978997Y-136276389D01*
X105000499Y-136196143D01*
X105000499Y-136103855D01*
X104976613Y-136014711D01*
X104976610Y-136014705D01*
X104930472Y-135934793D01*
X104930469Y-135934790D01*
X104930468Y-135934787D01*
X104865211Y-135869530D01*
X104865208Y-135869528D01*
X104865204Y-135869525D01*
X104785292Y-135823387D01*
X104785289Y-135823386D01*
X104785288Y-135823385D01*
X104785287Y-135823385D01*
X104696143Y-135799499D01*
X104603855Y-135799499D01*
X104547841Y-135814508D01*
X104477991Y-135812845D01*
X104420129Y-135773682D01*
X104392625Y-135709454D01*
X104404212Y-135640551D01*
X104417376Y-135619241D01*
X104420460Y-135615220D01*
X104420469Y-135615212D01*
X104466614Y-135535288D01*
X104490500Y-135446144D01*
X104490500Y-135353856D01*
X104466614Y-135264712D01*
X104449626Y-135235288D01*
X104420473Y-135184794D01*
X104420470Y-135184791D01*
X104420469Y-135184788D01*
X104355212Y-135119531D01*
X104355209Y-135119529D01*
X104355205Y-135119526D01*
X104275293Y-135073388D01*
X104275290Y-135073387D01*
X104275289Y-135073386D01*
X104275288Y-135073386D01*
X104202401Y-135053856D01*
X106699500Y-135053856D01*
X106699500Y-135146144D01*
X106709856Y-135184794D01*
X106723387Y-135235290D01*
X106723388Y-135235293D01*
X106769526Y-135315205D01*
X106769529Y-135315209D01*
X106769531Y-135315212D01*
X106834788Y-135380469D01*
X106834791Y-135380470D01*
X106834794Y-135380473D01*
X106914706Y-135426611D01*
X106914707Y-135426611D01*
X106914712Y-135426614D01*
X107003856Y-135450500D01*
X107003858Y-135450500D01*
X107096142Y-135450500D01*
X107096144Y-135450500D01*
X107185288Y-135426614D01*
X107265212Y-135380469D01*
X107330469Y-135315212D01*
X107376614Y-135235288D01*
X107400500Y-135146144D01*
X107400500Y-135053856D01*
X107376614Y-134964712D01*
X107330710Y-134885205D01*
X107330473Y-134884794D01*
X107330470Y-134884791D01*
X107330469Y-134884788D01*
X107265212Y-134819531D01*
X107265209Y-134819529D01*
X107265205Y-134819526D01*
X107185293Y-134773388D01*
X107185290Y-134773387D01*
X107185289Y-134773386D01*
X107185288Y-134773386D01*
X107096144Y-134749500D01*
X107003856Y-134749500D01*
X106914712Y-134773386D01*
X106914711Y-134773386D01*
X106914709Y-134773387D01*
X106914706Y-134773388D01*
X106834794Y-134819526D01*
X106834785Y-134819533D01*
X106769533Y-134884785D01*
X106769526Y-134884794D01*
X106723388Y-134964706D01*
X106723387Y-134964709D01*
X106723386Y-134964711D01*
X106723386Y-134964712D01*
X106699500Y-135053856D01*
X104202401Y-135053856D01*
X104186144Y-135049500D01*
X104093856Y-135049500D01*
X104004712Y-135073386D01*
X104004711Y-135073386D01*
X104004709Y-135073387D01*
X104004706Y-135073388D01*
X103924794Y-135119526D01*
X103924785Y-135119533D01*
X103859533Y-135184785D01*
X103859526Y-135184794D01*
X103813388Y-135264706D01*
X103813387Y-135264709D01*
X103813386Y-135264711D01*
X103813386Y-135264712D01*
X103799855Y-135315212D01*
X103789500Y-135353856D01*
X100500500Y-135353856D01*
X100500500Y-134623856D01*
X108679500Y-134623856D01*
X108679500Y-134716144D01*
X108694838Y-134773388D01*
X108703387Y-134805290D01*
X108703388Y-134805293D01*
X108749526Y-134885205D01*
X108749529Y-134885209D01*
X108749531Y-134885212D01*
X108814788Y-134950469D01*
X108814791Y-134950470D01*
X108814794Y-134950473D01*
X108894706Y-134996611D01*
X108894707Y-134996611D01*
X108894712Y-134996614D01*
X108983856Y-135020500D01*
X108983858Y-135020500D01*
X109076142Y-135020500D01*
X109076144Y-135020500D01*
X109165288Y-134996614D01*
X109245212Y-134950469D01*
X109310469Y-134885212D01*
X109356614Y-134805288D01*
X109380500Y-134716144D01*
X109380500Y-134623856D01*
X109356614Y-134534712D01*
X109356611Y-134534706D01*
X109310473Y-134454794D01*
X109310470Y-134454791D01*
X109310469Y-134454788D01*
X109245212Y-134389531D01*
X109245209Y-134389529D01*
X109245205Y-134389526D01*
X109165293Y-134343388D01*
X109165290Y-134343387D01*
X109165289Y-134343386D01*
X109165288Y-134343386D01*
X109076144Y-134319500D01*
X108983856Y-134319500D01*
X108894712Y-134343386D01*
X108894711Y-134343386D01*
X108894709Y-134343387D01*
X108894706Y-134343388D01*
X108814794Y-134389526D01*
X108814785Y-134389533D01*
X108749533Y-134454785D01*
X108749526Y-134454794D01*
X108703388Y-134534706D01*
X108703387Y-134534709D01*
X108703386Y-134534711D01*
X108703386Y-134534712D01*
X108679500Y-134623856D01*
X100500500Y-134623856D01*
X100500500Y-133643856D01*
X107264499Y-133643856D01*
X107264499Y-133736144D01*
X107283531Y-133807173D01*
X107288386Y-133825290D01*
X107288387Y-133825293D01*
X107334525Y-133905205D01*
X107334528Y-133905209D01*
X107334530Y-133905212D01*
X107399787Y-133970469D01*
X107399790Y-133970470D01*
X107399793Y-133970473D01*
X107479705Y-134016611D01*
X107479706Y-134016611D01*
X107479711Y-134016614D01*
X107568855Y-134040500D01*
X107568857Y-134040500D01*
X107661141Y-134040500D01*
X107661143Y-134040500D01*
X107750287Y-134016614D01*
X107830211Y-133970469D01*
X107895468Y-133905212D01*
X107941613Y-133825288D01*
X107965499Y-133736144D01*
X107965499Y-133643856D01*
X107960644Y-133625736D01*
X109051380Y-133625736D01*
X109051380Y-133718024D01*
X109056235Y-133736144D01*
X109075267Y-133807170D01*
X109075268Y-133807173D01*
X109121406Y-133887085D01*
X109121409Y-133887089D01*
X109121411Y-133887092D01*
X109186668Y-133952349D01*
X109186671Y-133952350D01*
X109186674Y-133952353D01*
X109266586Y-133998491D01*
X109266587Y-133998491D01*
X109266592Y-133998494D01*
X109355736Y-134022380D01*
X109355738Y-134022380D01*
X109448022Y-134022380D01*
X109448024Y-134022380D01*
X109537168Y-133998494D01*
X109617092Y-133952349D01*
X109682349Y-133887092D01*
X109728494Y-133807168D01*
X109752380Y-133718024D01*
X109752380Y-133625736D01*
X109728494Y-133536592D01*
X109728491Y-133536586D01*
X109682353Y-133456674D01*
X109682350Y-133456671D01*
X109682349Y-133456668D01*
X109617092Y-133391411D01*
X109617089Y-133391409D01*
X109617085Y-133391406D01*
X109537173Y-133345268D01*
X109537170Y-133345267D01*
X109537169Y-133345266D01*
X109537168Y-133345266D01*
X109448024Y-133321380D01*
X109355736Y-133321380D01*
X109266592Y-133345266D01*
X109266591Y-133345266D01*
X109266589Y-133345267D01*
X109266586Y-133345268D01*
X109186674Y-133391406D01*
X109186665Y-133391413D01*
X109121413Y-133456665D01*
X109121406Y-133456674D01*
X109075268Y-133536586D01*
X109075267Y-133536589D01*
X109075266Y-133536591D01*
X109075266Y-133536592D01*
X109051380Y-133625736D01*
X107960644Y-133625736D01*
X107941613Y-133554712D01*
X107941610Y-133554706D01*
X107895472Y-133474794D01*
X107895469Y-133474791D01*
X107895468Y-133474788D01*
X107830211Y-133409531D01*
X107830208Y-133409529D01*
X107830204Y-133409526D01*
X107750292Y-133363388D01*
X107750289Y-133363387D01*
X107750288Y-133363386D01*
X107750287Y-133363386D01*
X107661143Y-133339500D01*
X107568855Y-133339500D01*
X107479711Y-133363386D01*
X107479710Y-133363386D01*
X107479708Y-133363387D01*
X107479705Y-133363388D01*
X107399793Y-133409526D01*
X107399784Y-133409533D01*
X107334532Y-133474785D01*
X107334525Y-133474794D01*
X107288387Y-133554706D01*
X107288386Y-133554709D01*
X107288385Y-133554711D01*
X107288385Y-133554712D01*
X107264499Y-133643856D01*
X100500500Y-133643856D01*
X100500500Y-131353856D01*
X104449500Y-131353856D01*
X104449500Y-131446144D01*
X104465576Y-131506142D01*
X104473387Y-131535290D01*
X104473388Y-131535293D01*
X104519526Y-131615205D01*
X104519529Y-131615209D01*
X104519531Y-131615212D01*
X104584788Y-131680469D01*
X104584791Y-131680470D01*
X104584794Y-131680473D01*
X104664706Y-131726611D01*
X104664707Y-131726611D01*
X104664712Y-131726614D01*
X104753856Y-131750500D01*
X104753858Y-131750500D01*
X104846142Y-131750500D01*
X104846144Y-131750500D01*
X104935288Y-131726614D01*
X105015212Y-131680469D01*
X105080469Y-131615212D01*
X105126614Y-131535288D01*
X105150500Y-131446144D01*
X105150500Y-131353856D01*
X105126614Y-131264712D01*
X105118408Y-131250499D01*
X105080473Y-131184794D01*
X105080470Y-131184791D01*
X105080469Y-131184788D01*
X105015212Y-131119531D01*
X105015209Y-131119529D01*
X105015205Y-131119526D01*
X104935293Y-131073388D01*
X104935290Y-131073387D01*
X104935289Y-131073386D01*
X104935288Y-131073386D01*
X104846144Y-131049500D01*
X104753856Y-131049500D01*
X104664712Y-131073386D01*
X104664711Y-131073386D01*
X104664709Y-131073387D01*
X104664706Y-131073388D01*
X104584794Y-131119526D01*
X104584785Y-131119533D01*
X104519533Y-131184785D01*
X104519526Y-131184794D01*
X104473388Y-131264706D01*
X104473387Y-131264709D01*
X104473386Y-131264711D01*
X104473386Y-131264712D01*
X104449500Y-131353856D01*
X100500500Y-131353856D01*
X100500500Y-129573856D01*
X101949500Y-129573856D01*
X101949500Y-129666144D01*
X101973251Y-129754785D01*
X101973387Y-129755290D01*
X101973388Y-129755293D01*
X102010116Y-129818906D01*
X102026590Y-129886806D01*
X102022505Y-129912997D01*
X101999500Y-129998855D01*
X101999500Y-130091143D01*
X102022026Y-130175213D01*
X102023387Y-130180289D01*
X102023388Y-130180292D01*
X102069526Y-130260204D01*
X102069529Y-130260208D01*
X102069531Y-130260211D01*
X102134788Y-130325468D01*
X102134791Y-130325469D01*
X102134794Y-130325472D01*
X102214706Y-130371610D01*
X102214708Y-130371611D01*
X102214712Y-130371613D01*
X102214715Y-130371613D01*
X102215004Y-130371734D01*
X102215216Y-130371905D01*
X102221751Y-130375678D01*
X102221162Y-130376696D01*
X102269408Y-130415575D01*
X102291474Y-130481869D01*
X102274196Y-130549568D01*
X102229555Y-130593682D01*
X102184790Y-130619528D01*
X102184784Y-130619532D01*
X102119532Y-130684784D01*
X102119525Y-130684793D01*
X102073387Y-130764705D01*
X102073386Y-130764708D01*
X102073385Y-130764710D01*
X102073385Y-130764711D01*
X102049499Y-130853855D01*
X102049499Y-130946143D01*
X102072095Y-131030473D01*
X102073386Y-131035289D01*
X102073387Y-131035292D01*
X102119525Y-131115204D01*
X102119528Y-131115208D01*
X102119530Y-131115211D01*
X102184787Y-131180468D01*
X102184790Y-131180469D01*
X102184793Y-131180472D01*
X102264705Y-131226610D01*
X102264706Y-131226610D01*
X102264711Y-131226613D01*
X102353855Y-131250499D01*
X102353857Y-131250499D01*
X102446141Y-131250499D01*
X102446143Y-131250499D01*
X102535287Y-131226613D01*
X102615211Y-131180468D01*
X102680468Y-131115211D01*
X102726613Y-131035287D01*
X102750499Y-130946143D01*
X102750499Y-130853855D01*
X102726613Y-130764711D01*
X102726612Y-130764710D01*
X102726612Y-130764708D01*
X102693952Y-130708142D01*
X102680468Y-130684787D01*
X102639537Y-130643856D01*
X105649500Y-130643856D01*
X105649500Y-130736144D01*
X105671322Y-130817586D01*
X105673387Y-130825290D01*
X105673388Y-130825293D01*
X105719526Y-130905205D01*
X105719529Y-130905209D01*
X105719531Y-130905212D01*
X105784788Y-130970469D01*
X105784791Y-130970470D01*
X105784794Y-130970473D01*
X105864706Y-131016611D01*
X105864707Y-131016611D01*
X105864712Y-131016614D01*
X105953856Y-131040500D01*
X105953858Y-131040500D01*
X106046142Y-131040500D01*
X106046144Y-131040500D01*
X106135288Y-131016614D01*
X106215212Y-130970469D01*
X106280469Y-130905212D01*
X106326614Y-130825288D01*
X106342183Y-130767181D01*
X106378546Y-130707523D01*
X106429861Y-130679502D01*
X106515288Y-130656613D01*
X106595212Y-130610468D01*
X106637966Y-130567713D01*
X106699287Y-130534229D01*
X106768978Y-130539213D01*
X106824912Y-130581084D01*
X106848584Y-130639200D01*
X106849498Y-130646139D01*
X106849499Y-130646142D01*
X106849499Y-130646144D01*
X106866111Y-130708142D01*
X106873386Y-130735290D01*
X106873387Y-130735293D01*
X106919525Y-130815205D01*
X106919528Y-130815209D01*
X106919530Y-130815212D01*
X106984787Y-130880469D01*
X107013615Y-130897113D01*
X107061831Y-130947680D01*
X107075053Y-131016287D01*
X107049085Y-131081152D01*
X106992171Y-131121680D01*
X106983712Y-131124274D01*
X106949710Y-131133385D01*
X106949706Y-131133387D01*
X106869794Y-131179525D01*
X106869785Y-131179532D01*
X106804533Y-131244784D01*
X106804526Y-131244793D01*
X106758388Y-131324705D01*
X106758387Y-131324708D01*
X106758386Y-131324710D01*
X106758386Y-131324711D01*
X106734500Y-131413855D01*
X106734500Y-131506143D01*
X106750327Y-131565212D01*
X106758387Y-131595289D01*
X106758388Y-131595292D01*
X106804526Y-131675204D01*
X106804529Y-131675208D01*
X106804531Y-131675211D01*
X106869788Y-131740468D01*
X106869791Y-131740469D01*
X106869794Y-131740472D01*
X106949706Y-131786610D01*
X106949707Y-131786610D01*
X106949712Y-131786613D01*
X107038856Y-131810499D01*
X107038858Y-131810499D01*
X107131142Y-131810499D01*
X107131144Y-131810499D01*
X107220288Y-131786613D01*
X107300212Y-131740468D01*
X107365469Y-131675211D01*
X107411614Y-131595287D01*
X107428463Y-131532403D01*
X107464826Y-131472746D01*
X107527673Y-131442216D01*
X107548237Y-131440499D01*
X107646142Y-131440499D01*
X107646144Y-131440499D01*
X107735288Y-131416613D01*
X107815212Y-131370468D01*
X107880469Y-131305211D01*
X107926614Y-131225287D01*
X107950500Y-131136143D01*
X107950500Y-131043855D01*
X107926614Y-130954711D01*
X107922555Y-130947680D01*
X107880473Y-130874793D01*
X107880470Y-130874790D01*
X107880469Y-130874787D01*
X107815212Y-130809530D01*
X107815209Y-130809528D01*
X107815205Y-130809525D01*
X107735293Y-130763387D01*
X107735292Y-130763386D01*
X107642405Y-130738497D01*
X107582745Y-130702131D01*
X107552216Y-130639284D01*
X107550499Y-130618722D01*
X107550499Y-130553858D01*
X107550499Y-130553856D01*
X107526613Y-130464712D01*
X107525694Y-130463120D01*
X107480472Y-130384794D01*
X107480469Y-130384791D01*
X107480468Y-130384788D01*
X107415211Y-130319531D01*
X107415208Y-130319529D01*
X107415204Y-130319526D01*
X107335292Y-130273388D01*
X107335289Y-130273387D01*
X107335288Y-130273386D01*
X107335287Y-130273386D01*
X107246143Y-130249500D01*
X107153855Y-130249500D01*
X107108137Y-130261749D01*
X107108137Y-130261750D01*
X107064706Y-130273387D01*
X107064705Y-130273388D01*
X106984793Y-130319526D01*
X106984783Y-130319534D01*
X106942032Y-130362285D01*
X106880709Y-130395769D01*
X106811017Y-130390784D01*
X106755084Y-130348912D01*
X106731413Y-130290791D01*
X106730500Y-130283862D01*
X106730500Y-130283855D01*
X106706614Y-130194711D01*
X106701126Y-130185205D01*
X106660473Y-130114793D01*
X106660470Y-130114790D01*
X106660469Y-130114787D01*
X106595212Y-130049530D01*
X106559992Y-130029195D01*
X106511779Y-129978629D01*
X106498557Y-129910022D01*
X106499604Y-129904221D01*
X106499438Y-129904200D01*
X106500499Y-129896142D01*
X106500499Y-129803858D01*
X106500499Y-129803856D01*
X106476613Y-129714712D01*
X106476610Y-129714706D01*
X106430472Y-129634794D01*
X106430469Y-129634791D01*
X106430468Y-129634788D01*
X106414535Y-129618855D01*
X106749500Y-129618855D01*
X106749500Y-129711143D01*
X106769346Y-129785211D01*
X106773387Y-129800289D01*
X106773388Y-129800292D01*
X106819526Y-129880204D01*
X106819529Y-129880208D01*
X106819531Y-129880211D01*
X106884788Y-129945468D01*
X106884791Y-129945469D01*
X106884794Y-129945472D01*
X106964706Y-129991610D01*
X106964707Y-129991610D01*
X106964712Y-129991613D01*
X107053856Y-130015499D01*
X107053858Y-130015499D01*
X107078599Y-130015499D01*
X107146144Y-130015499D01*
X107235288Y-129991613D01*
X107235290Y-129991611D01*
X107235292Y-129991611D01*
X107235293Y-129991610D01*
X107246240Y-129985290D01*
X107315212Y-129945468D01*
X107380469Y-129880211D01*
X107426614Y-129800287D01*
X107450500Y-129711143D01*
X107450500Y-129618855D01*
X107426614Y-129529711D01*
X107426611Y-129529705D01*
X107380473Y-129449793D01*
X107380470Y-129449790D01*
X107380469Y-129449787D01*
X107315212Y-129384530D01*
X107315209Y-129384528D01*
X107315205Y-129384525D01*
X107235293Y-129338387D01*
X107235290Y-129338386D01*
X107235289Y-129338385D01*
X107235288Y-129338385D01*
X107146144Y-129314499D01*
X107053856Y-129314499D01*
X106964712Y-129338385D01*
X106964711Y-129338385D01*
X106964709Y-129338386D01*
X106964706Y-129338387D01*
X106884794Y-129384525D01*
X106884785Y-129384532D01*
X106819533Y-129449784D01*
X106819526Y-129449793D01*
X106773388Y-129529705D01*
X106773387Y-129529708D01*
X106773386Y-129529710D01*
X106773386Y-129529711D01*
X106749500Y-129618855D01*
X106414535Y-129618855D01*
X106365211Y-129569531D01*
X106365208Y-129569529D01*
X106365204Y-129569526D01*
X106285292Y-129523388D01*
X106285289Y-129523387D01*
X106285288Y-129523386D01*
X106285287Y-129523386D01*
X106196143Y-129499500D01*
X106103855Y-129499500D01*
X106014711Y-129523386D01*
X106014710Y-129523386D01*
X106014708Y-129523387D01*
X106014705Y-129523388D01*
X105934793Y-129569526D01*
X105934784Y-129569533D01*
X105869532Y-129634785D01*
X105869525Y-129634794D01*
X105823387Y-129714706D01*
X105823386Y-129714709D01*
X105823385Y-129714711D01*
X105823385Y-129714712D01*
X105799499Y-129803856D01*
X105799499Y-129896144D01*
X105820442Y-129974306D01*
X105823386Y-129985290D01*
X105823387Y-129985293D01*
X105869525Y-130065205D01*
X105869528Y-130065209D01*
X105869530Y-130065212D01*
X105934787Y-130130469D01*
X105934790Y-130130471D01*
X105941236Y-130135417D01*
X105939275Y-130137972D01*
X105977071Y-130177602D01*
X105990302Y-130246208D01*
X105964341Y-130311076D01*
X105907432Y-130351611D01*
X105898958Y-130354209D01*
X105864711Y-130363386D01*
X105864706Y-130363388D01*
X105784794Y-130409526D01*
X105784785Y-130409533D01*
X105719533Y-130474785D01*
X105719526Y-130474794D01*
X105673388Y-130554706D01*
X105673387Y-130554709D01*
X105673386Y-130554711D01*
X105673386Y-130554712D01*
X105649500Y-130643856D01*
X102639537Y-130643856D01*
X102615211Y-130619530D01*
X102615208Y-130619528D01*
X102615204Y-130619525D01*
X102535290Y-130573386D01*
X102534986Y-130573260D01*
X102534768Y-130573084D01*
X102528248Y-130569320D01*
X102528835Y-130568302D01*
X102480585Y-130529416D01*
X102458524Y-130463120D01*
X102475807Y-130395422D01*
X102520443Y-130351315D01*
X102565212Y-130325468D01*
X102630469Y-130260211D01*
X102676614Y-130180287D01*
X102700500Y-130091143D01*
X102700500Y-129998855D01*
X102676614Y-129909711D01*
X102676613Y-129909710D01*
X102676613Y-129909708D01*
X102650756Y-129864924D01*
X102639882Y-129846091D01*
X102623409Y-129778193D01*
X102627493Y-129752005D01*
X102650500Y-129666144D01*
X102650500Y-129573856D01*
X102626614Y-129484712D01*
X102618764Y-129471115D01*
X102580473Y-129404794D01*
X102580470Y-129404791D01*
X102580469Y-129404788D01*
X102515212Y-129339531D01*
X102515209Y-129339529D01*
X102515205Y-129339526D01*
X102435293Y-129293388D01*
X102435290Y-129293387D01*
X102435289Y-129293386D01*
X102435288Y-129293386D01*
X102346144Y-129269500D01*
X102253856Y-129269500D01*
X102164712Y-129293386D01*
X102164711Y-129293386D01*
X102164709Y-129293387D01*
X102164706Y-129293388D01*
X102084794Y-129339526D01*
X102084785Y-129339533D01*
X102019533Y-129404785D01*
X102019526Y-129404794D01*
X101973388Y-129484706D01*
X101973387Y-129484709D01*
X101973386Y-129484711D01*
X101973386Y-129484712D01*
X101949500Y-129573856D01*
X100500500Y-129573856D01*
X100500500Y-129053856D01*
X103999500Y-129053856D01*
X103999500Y-129146144D01*
X104022103Y-129230500D01*
X104023387Y-129235290D01*
X104023388Y-129235293D01*
X104069526Y-129315205D01*
X104069529Y-129315209D01*
X104069531Y-129315212D01*
X104134788Y-129380469D01*
X104134791Y-129380470D01*
X104134794Y-129380473D01*
X104214706Y-129426611D01*
X104214707Y-129426611D01*
X104214712Y-129426614D01*
X104303856Y-129450500D01*
X104303858Y-129450500D01*
X104336027Y-129450500D01*
X104403066Y-129470185D01*
X104448821Y-129522989D01*
X104458765Y-129592147D01*
X104429740Y-129655703D01*
X104398029Y-129681886D01*
X104384791Y-129689529D01*
X104384785Y-129689533D01*
X104319533Y-129754785D01*
X104319526Y-129754794D01*
X104273388Y-129834706D01*
X104273387Y-129834709D01*
X104273386Y-129834711D01*
X104273386Y-129834712D01*
X104249500Y-129923856D01*
X104249500Y-130016144D01*
X104270706Y-130095287D01*
X104273387Y-130105290D01*
X104273388Y-130105293D01*
X104319526Y-130185205D01*
X104319529Y-130185209D01*
X104319531Y-130185212D01*
X104384788Y-130250469D01*
X104384791Y-130250470D01*
X104384794Y-130250473D01*
X104464706Y-130296611D01*
X104464707Y-130296611D01*
X104464712Y-130296614D01*
X104553856Y-130320500D01*
X104553858Y-130320500D01*
X104646142Y-130320500D01*
X104646144Y-130320500D01*
X104735288Y-130296614D01*
X104815212Y-130250469D01*
X104880469Y-130185212D01*
X104926614Y-130105288D01*
X104950500Y-130016144D01*
X104950500Y-129923856D01*
X104926614Y-129834712D01*
X104926611Y-129834706D01*
X104880473Y-129754794D01*
X104880470Y-129754791D01*
X104880469Y-129754788D01*
X104815212Y-129689531D01*
X104815209Y-129689529D01*
X104815205Y-129689526D01*
X104735293Y-129643388D01*
X104735290Y-129643387D01*
X104735289Y-129643386D01*
X104735288Y-129643386D01*
X104646144Y-129619500D01*
X104613973Y-129619500D01*
X104546934Y-129599815D01*
X104501179Y-129547011D01*
X104491235Y-129477853D01*
X104520260Y-129414297D01*
X104551971Y-129388114D01*
X104553437Y-129387267D01*
X104565212Y-129380469D01*
X104630469Y-129315212D01*
X104676614Y-129235288D01*
X104700500Y-129146144D01*
X104700500Y-129053856D01*
X107599499Y-129053856D01*
X107599499Y-129146144D01*
X107622102Y-129230500D01*
X107623386Y-129235290D01*
X107623387Y-129235293D01*
X107669525Y-129315205D01*
X107669528Y-129315209D01*
X107669530Y-129315212D01*
X107734787Y-129380469D01*
X107734790Y-129380470D01*
X107734793Y-129380473D01*
X107814705Y-129426611D01*
X107814706Y-129426611D01*
X107814711Y-129426614D01*
X107903855Y-129450500D01*
X107903857Y-129450500D01*
X107996141Y-129450500D01*
X107996143Y-129450500D01*
X108085287Y-129426614D01*
X108165211Y-129380469D01*
X108230468Y-129315212D01*
X108230468Y-129315211D01*
X108236215Y-129309465D01*
X108238386Y-129311636D01*
X108283030Y-129279026D01*
X108352775Y-129274859D01*
X108405254Y-129301182D01*
X108417367Y-129311466D01*
X108419530Y-129315212D01*
X108484787Y-129380469D01*
X108528078Y-129405463D01*
X108536625Y-129412720D01*
X108549900Y-129432927D01*
X108566587Y-129450428D01*
X108568740Y-129461604D01*
X108574989Y-129471115D01*
X108575232Y-129495292D01*
X108579808Y-129519035D01*
X108575578Y-129529599D01*
X108575693Y-129540981D01*
X108562824Y-129561454D01*
X108553839Y-129583899D01*
X108544569Y-129590500D01*
X108538512Y-129600137D01*
X108516620Y-129610402D01*
X108496925Y-129624427D01*
X108488480Y-129627016D01*
X108464712Y-129633385D01*
X108464710Y-129633385D01*
X108464706Y-129633387D01*
X108384794Y-129679525D01*
X108384785Y-129679532D01*
X108319533Y-129744784D01*
X108319526Y-129744793D01*
X108273388Y-129824705D01*
X108273387Y-129824708D01*
X108273386Y-129824710D01*
X108273386Y-129824711D01*
X108249500Y-129913855D01*
X108249500Y-130006143D01*
X108272275Y-130091142D01*
X108273387Y-130095289D01*
X108273388Y-130095292D01*
X108319526Y-130175204D01*
X108319529Y-130175208D01*
X108319531Y-130175211D01*
X108384788Y-130240468D01*
X108384791Y-130240469D01*
X108384794Y-130240472D01*
X108464706Y-130286610D01*
X108464710Y-130286612D01*
X108464712Y-130286613D01*
X108511993Y-130299282D01*
X108571653Y-130335645D01*
X108602183Y-130398492D01*
X108593889Y-130467868D01*
X108567583Y-130506736D01*
X108539531Y-130534788D01*
X108539526Y-130534794D01*
X108493388Y-130614706D01*
X108493387Y-130614709D01*
X108493386Y-130614711D01*
X108493386Y-130614712D01*
X108469500Y-130703856D01*
X108469500Y-130796144D01*
X108491222Y-130877213D01*
X108493387Y-130885290D01*
X108493388Y-130885293D01*
X108539526Y-130965205D01*
X108539529Y-130965209D01*
X108539531Y-130965212D01*
X108604788Y-131030469D01*
X108604791Y-131030470D01*
X108604794Y-131030473D01*
X108684706Y-131076611D01*
X108684707Y-131076611D01*
X108684712Y-131076614D01*
X108773856Y-131100500D01*
X108773858Y-131100500D01*
X108866142Y-131100500D01*
X108866144Y-131100500D01*
X108955288Y-131076614D01*
X109035212Y-131030469D01*
X109088251Y-130977429D01*
X109149572Y-130943945D01*
X109219264Y-130948929D01*
X109275197Y-130990800D01*
X109283318Y-131003113D01*
X109284530Y-131005211D01*
X109349787Y-131070468D01*
X109349790Y-131070469D01*
X109349793Y-131070472D01*
X109429705Y-131116610D01*
X109429709Y-131116612D01*
X109429711Y-131116613D01*
X109437945Y-131118819D01*
X109497606Y-131155183D01*
X109528136Y-131218029D01*
X109519842Y-131287405D01*
X109475357Y-131341284D01*
X109437950Y-131358368D01*
X109398954Y-131368817D01*
X109398952Y-131368817D01*
X109398948Y-131368819D01*
X109319036Y-131414957D01*
X109319027Y-131414964D01*
X109253775Y-131480216D01*
X109253768Y-131480225D01*
X109207630Y-131560137D01*
X109207629Y-131560140D01*
X109207628Y-131560142D01*
X109207628Y-131560143D01*
X109198210Y-131595292D01*
X109183742Y-131649287D01*
X109183742Y-131741579D01*
X109189671Y-131763705D01*
X109188007Y-131833554D01*
X109154217Y-131883477D01*
X109155677Y-131884937D01*
X109084672Y-131955942D01*
X109084668Y-131955947D01*
X109038530Y-132035859D01*
X109038529Y-132035862D01*
X109014642Y-132125009D01*
X109014642Y-132217296D01*
X109019464Y-132235294D01*
X109017799Y-132305144D01*
X108978635Y-132363005D01*
X108914405Y-132390508D01*
X108845503Y-132378919D01*
X108837685Y-132374769D01*
X108835289Y-132373386D01*
X108835288Y-132373385D01*
X108835287Y-132373385D01*
X108746143Y-132349499D01*
X108653855Y-132349499D01*
X108564711Y-132373385D01*
X108564710Y-132373385D01*
X108564708Y-132373386D01*
X108564705Y-132373387D01*
X108484793Y-132419525D01*
X108484784Y-132419532D01*
X108419532Y-132484784D01*
X108419525Y-132484793D01*
X108373387Y-132564705D01*
X108373386Y-132564708D01*
X108373385Y-132564710D01*
X108373385Y-132564711D01*
X108349499Y-132653855D01*
X108349499Y-132746143D01*
X108361747Y-132791855D01*
X108373386Y-132835289D01*
X108373387Y-132835292D01*
X108419525Y-132915204D01*
X108419528Y-132915208D01*
X108419530Y-132915211D01*
X108484787Y-132980468D01*
X108484790Y-132980469D01*
X108484793Y-132980472D01*
X108564705Y-133026610D01*
X108564706Y-133026610D01*
X108564711Y-133026613D01*
X108653855Y-133050499D01*
X108653857Y-133050499D01*
X108746141Y-133050499D01*
X108746143Y-133050499D01*
X108835287Y-133026613D01*
X108915211Y-132980468D01*
X108980468Y-132915211D01*
X109026613Y-132835287D01*
X109038251Y-132791855D01*
X111549500Y-132791855D01*
X111549500Y-132884142D01*
X111573387Y-132973289D01*
X111573388Y-132973292D01*
X111619526Y-133053204D01*
X111619529Y-133053208D01*
X111619531Y-133053211D01*
X111684788Y-133118468D01*
X111684791Y-133118469D01*
X111684794Y-133118472D01*
X111764706Y-133164610D01*
X111764707Y-133164610D01*
X111764712Y-133164613D01*
X111853856Y-133188499D01*
X111853858Y-133188499D01*
X111946142Y-133188499D01*
X111946144Y-133188499D01*
X112035288Y-133164613D01*
X112115212Y-133118468D01*
X112180469Y-133053211D01*
X112226614Y-132973287D01*
X112250500Y-132884143D01*
X112250500Y-132791855D01*
X112226614Y-132702711D01*
X112226611Y-132702705D01*
X112180473Y-132622793D01*
X112180470Y-132622790D01*
X112180469Y-132622787D01*
X112115212Y-132557530D01*
X112115209Y-132557528D01*
X112115205Y-132557525D01*
X112035293Y-132511387D01*
X112035290Y-132511386D01*
X112035289Y-132511385D01*
X112035288Y-132511385D01*
X111946144Y-132487499D01*
X111853856Y-132487499D01*
X111764712Y-132511385D01*
X111764711Y-132511385D01*
X111764709Y-132511386D01*
X111764706Y-132511387D01*
X111684794Y-132557525D01*
X111684785Y-132557532D01*
X111619533Y-132622784D01*
X111619526Y-132622793D01*
X111573388Y-132702705D01*
X111573387Y-132702708D01*
X111573386Y-132702710D01*
X111573386Y-132702711D01*
X111555747Y-132768540D01*
X111549500Y-132791855D01*
X109038251Y-132791855D01*
X109050499Y-132746143D01*
X109050499Y-132653855D01*
X109041754Y-132621221D01*
X109041473Y-132606075D01*
X109046854Y-132586400D01*
X109047340Y-132566010D01*
X109055885Y-132553384D01*
X109059907Y-132538681D01*
X109075070Y-132525039D01*
X109086503Y-132508148D01*
X109100516Y-132502147D01*
X109111850Y-132491951D01*
X109131981Y-132488673D01*
X109150731Y-132480644D01*
X109165764Y-132483172D01*
X109180812Y-132480722D01*
X109199520Y-132488848D01*
X109219634Y-132492231D01*
X109227454Y-132496381D01*
X109229854Y-132497767D01*
X109318998Y-132521653D01*
X109319000Y-132521653D01*
X109411284Y-132521653D01*
X109411286Y-132521653D01*
X109500430Y-132497767D01*
X109580354Y-132451622D01*
X109645611Y-132386365D01*
X109691756Y-132306441D01*
X109715642Y-132217297D01*
X109715642Y-132125009D01*
X109709711Y-132102874D01*
X109709831Y-132097855D01*
X112249500Y-132097855D01*
X112249500Y-132190143D01*
X112261598Y-132235294D01*
X112273387Y-132279289D01*
X112273388Y-132279292D01*
X112319526Y-132359204D01*
X112319529Y-132359208D01*
X112319531Y-132359211D01*
X112384788Y-132424468D01*
X112384791Y-132424469D01*
X112384794Y-132424472D01*
X112464706Y-132470610D01*
X112464707Y-132470610D01*
X112464712Y-132470613D01*
X112553856Y-132494499D01*
X112553858Y-132494499D01*
X112646142Y-132494499D01*
X112646144Y-132494499D01*
X112735288Y-132470613D01*
X112815212Y-132424468D01*
X112880469Y-132359211D01*
X112926614Y-132279287D01*
X112950500Y-132190143D01*
X112950500Y-132097855D01*
X112926614Y-132008711D01*
X112926611Y-132008705D01*
X112880473Y-131928793D01*
X112880470Y-131928790D01*
X112880469Y-131928787D01*
X112815212Y-131863530D01*
X112815209Y-131863528D01*
X112815205Y-131863525D01*
X112735293Y-131817387D01*
X112735290Y-131817386D01*
X112735289Y-131817385D01*
X112735288Y-131817385D01*
X112646144Y-131793499D01*
X112553856Y-131793499D01*
X112464712Y-131817385D01*
X112464711Y-131817385D01*
X112464709Y-131817386D01*
X112464706Y-131817387D01*
X112384794Y-131863525D01*
X112384785Y-131863532D01*
X112319533Y-131928784D01*
X112319526Y-131928793D01*
X112273388Y-132008705D01*
X112273387Y-132008708D01*
X112273386Y-132008710D01*
X112273386Y-132008711D01*
X112249500Y-132097855D01*
X109709831Y-132097855D01*
X109711376Y-132033027D01*
X109745165Y-131983105D01*
X109743707Y-131981647D01*
X109769413Y-131955941D01*
X109814711Y-131910643D01*
X109860856Y-131830719D01*
X109884742Y-131741575D01*
X109884742Y-131649287D01*
X109860856Y-131560143D01*
X109817638Y-131485288D01*
X109814715Y-131480225D01*
X109814712Y-131480222D01*
X109814711Y-131480219D01*
X109749454Y-131414962D01*
X109669530Y-131368817D01*
X109649104Y-131363344D01*
X109637824Y-131357690D01*
X109621121Y-131342122D01*
X109601631Y-131330242D01*
X109596053Y-131318759D01*
X109586712Y-131310053D01*
X109585134Y-131303856D01*
X110299499Y-131303856D01*
X110299499Y-131396144D01*
X110322028Y-131480225D01*
X110323386Y-131485290D01*
X110323387Y-131485293D01*
X110369525Y-131565205D01*
X110369528Y-131565209D01*
X110369530Y-131565212D01*
X110434787Y-131630469D01*
X110434790Y-131630470D01*
X110434793Y-131630473D01*
X110514705Y-131676611D01*
X110514706Y-131676611D01*
X110514711Y-131676614D01*
X110603855Y-131700500D01*
X110603857Y-131700500D01*
X110696141Y-131700500D01*
X110696143Y-131700500D01*
X110785287Y-131676614D01*
X110865211Y-131630469D01*
X110930468Y-131565212D01*
X110976613Y-131485288D01*
X111000499Y-131396144D01*
X111000499Y-131303856D01*
X110976613Y-131214712D01*
X110976610Y-131214706D01*
X110964894Y-131194413D01*
X110948420Y-131126513D01*
X110971272Y-131060486D01*
X111026193Y-131017295D01*
X111095746Y-131010653D01*
X111103656Y-131012472D01*
X111103854Y-131012498D01*
X111103856Y-131012499D01*
X111103858Y-131012499D01*
X111196142Y-131012499D01*
X111196144Y-131012499D01*
X111285288Y-130988613D01*
X111365212Y-130942468D01*
X111430469Y-130877211D01*
X111476614Y-130797287D01*
X111500500Y-130708143D01*
X111500500Y-130615855D01*
X111476614Y-130526711D01*
X111469976Y-130515213D01*
X111430473Y-130446793D01*
X111430470Y-130446790D01*
X111430469Y-130446787D01*
X111365212Y-130381530D01*
X111365209Y-130381528D01*
X111365205Y-130381525D01*
X111285293Y-130335387D01*
X111285290Y-130335386D01*
X111285289Y-130335385D01*
X111285288Y-130335385D01*
X111196144Y-130311499D01*
X111103856Y-130311499D01*
X111014712Y-130335385D01*
X111014711Y-130335385D01*
X111014709Y-130335386D01*
X111014706Y-130335387D01*
X110934794Y-130381525D01*
X110934785Y-130381532D01*
X110869533Y-130446784D01*
X110869526Y-130446793D01*
X110823388Y-130526705D01*
X110823387Y-130526708D01*
X110823386Y-130526710D01*
X110823386Y-130526711D01*
X110799500Y-130615855D01*
X110799500Y-130708143D01*
X110823079Y-130796143D01*
X110823387Y-130797289D01*
X110823387Y-130797290D01*
X110835105Y-130817586D01*
X110851578Y-130885486D01*
X110828725Y-130951513D01*
X110773804Y-130994704D01*
X110704251Y-131001345D01*
X110696348Y-130999527D01*
X110696144Y-130999500D01*
X110696143Y-130999500D01*
X110603855Y-130999500D01*
X110514711Y-131023386D01*
X110514710Y-131023386D01*
X110514708Y-131023387D01*
X110514705Y-131023388D01*
X110434793Y-131069526D01*
X110434784Y-131069533D01*
X110369532Y-131134785D01*
X110369525Y-131134794D01*
X110323387Y-131214706D01*
X110323386Y-131214709D01*
X110323385Y-131214711D01*
X110323385Y-131214712D01*
X110299499Y-131303856D01*
X109585134Y-131303856D01*
X109581077Y-131287927D01*
X109571103Y-131267394D01*
X109572619Y-131254716D01*
X109569468Y-131242344D01*
X109576689Y-131220686D01*
X109579400Y-131198019D01*
X109587529Y-131188173D01*
X109591568Y-131176062D01*
X109609349Y-131161747D01*
X109623887Y-131144142D01*
X109640832Y-131136403D01*
X109645994Y-131132249D01*
X109651136Y-131131698D01*
X109661290Y-131127062D01*
X109700287Y-131116613D01*
X109780211Y-131070468D01*
X109845468Y-131005211D01*
X109891613Y-130925287D01*
X109915499Y-130836143D01*
X109915499Y-130774499D01*
X109935184Y-130707460D01*
X109987988Y-130661705D01*
X110039499Y-130650499D01*
X110096142Y-130650499D01*
X110096144Y-130650499D01*
X110185288Y-130626613D01*
X110265212Y-130580468D01*
X110330469Y-130515211D01*
X110376614Y-130435287D01*
X110400500Y-130346143D01*
X110400500Y-130253855D01*
X110376614Y-130164711D01*
X110376611Y-130164705D01*
X110330473Y-130084793D01*
X110330470Y-130084790D01*
X110330469Y-130084787D01*
X110281311Y-130035629D01*
X110247826Y-129974306D01*
X110252810Y-129904614D01*
X110294682Y-129848681D01*
X110336893Y-129828175D01*
X110368406Y-129819732D01*
X110368410Y-129819729D01*
X110368412Y-129819729D01*
X110448323Y-129773591D01*
X110448322Y-129773591D01*
X110448330Y-129773587D01*
X110513587Y-129708330D01*
X110559732Y-129628406D01*
X110583618Y-129539262D01*
X110583618Y-129446974D01*
X110559732Y-129357830D01*
X110557979Y-129354793D01*
X110513591Y-129277912D01*
X110513588Y-129277909D01*
X110513587Y-129277906D01*
X110448330Y-129212649D01*
X110448327Y-129212647D01*
X110448323Y-129212644D01*
X110368411Y-129166506D01*
X110368408Y-129166505D01*
X110368407Y-129166504D01*
X110368406Y-129166504D01*
X110279262Y-129142618D01*
X110186974Y-129142618D01*
X110097830Y-129166504D01*
X110097829Y-129166504D01*
X110097827Y-129166505D01*
X110097824Y-129166506D01*
X110017912Y-129212644D01*
X110017903Y-129212651D01*
X109952651Y-129277903D01*
X109952644Y-129277912D01*
X109906506Y-129357824D01*
X109906505Y-129357827D01*
X109906504Y-129357829D01*
X109906504Y-129357830D01*
X109882618Y-129446974D01*
X109882618Y-129539262D01*
X109903945Y-129618857D01*
X109906505Y-129628408D01*
X109906506Y-129628411D01*
X109952644Y-129708323D01*
X109952651Y-129708332D01*
X110001806Y-129757487D01*
X110035291Y-129818810D01*
X110030307Y-129888502D01*
X109988435Y-129944435D01*
X109946220Y-129964942D01*
X109942714Y-129965882D01*
X109914707Y-129973386D01*
X109914706Y-129973387D01*
X109834794Y-130019525D01*
X109834785Y-130019532D01*
X109769533Y-130084784D01*
X109769526Y-130084793D01*
X109723388Y-130164705D01*
X109723387Y-130164708D01*
X109723386Y-130164710D01*
X109723386Y-130164711D01*
X109700407Y-130250473D01*
X109697397Y-130261705D01*
X109694397Y-130260901D01*
X109672066Y-130311367D01*
X109613738Y-130349831D01*
X109543873Y-130350655D01*
X109484654Y-130313576D01*
X109470017Y-130293276D01*
X109458534Y-130273388D01*
X109451170Y-130260633D01*
X109385913Y-130195376D01*
X109307183Y-130149920D01*
X109258970Y-130099354D01*
X109245748Y-130030747D01*
X109271716Y-129965882D01*
X109328631Y-129925355D01*
X109338412Y-129923043D01*
X109338294Y-129922602D01*
X109346142Y-129920499D01*
X109346144Y-129920499D01*
X109435288Y-129896613D01*
X109515212Y-129850468D01*
X109580469Y-129785211D01*
X109626614Y-129705287D01*
X109650500Y-129616143D01*
X109650500Y-129523855D01*
X109626614Y-129434711D01*
X109626612Y-129434708D01*
X109626612Y-129434706D01*
X109626611Y-129434705D01*
X109580473Y-129354793D01*
X109580470Y-129354790D01*
X109580469Y-129354787D01*
X109515212Y-129289530D01*
X109515209Y-129289528D01*
X109515205Y-129289525D01*
X109435293Y-129243387D01*
X109435290Y-129243386D01*
X109435289Y-129243385D01*
X109435288Y-129243385D01*
X109346144Y-129219499D01*
X109253856Y-129219499D01*
X109253854Y-129219499D01*
X109206591Y-129232163D01*
X109136741Y-129230500D01*
X109078879Y-129191336D01*
X109051376Y-129127108D01*
X109050499Y-129112388D01*
X109050499Y-129053858D01*
X109050499Y-129053856D01*
X109026613Y-128964712D01*
X109026610Y-128964706D01*
X108980472Y-128884794D01*
X108980469Y-128884791D01*
X108980468Y-128884788D01*
X108915211Y-128819531D01*
X108915208Y-128819529D01*
X108915204Y-128819526D01*
X108835292Y-128773388D01*
X108835289Y-128773387D01*
X108835288Y-128773386D01*
X108835287Y-128773386D01*
X108746143Y-128749500D01*
X108653855Y-128749500D01*
X108564711Y-128773386D01*
X108564710Y-128773386D01*
X108564708Y-128773387D01*
X108564705Y-128773388D01*
X108484793Y-128819526D01*
X108484784Y-128819533D01*
X108413783Y-128890535D01*
X108411615Y-128888367D01*
X108366929Y-128920987D01*
X108297182Y-128925131D01*
X108236267Y-128890909D01*
X108234177Y-128888497D01*
X108165213Y-128819533D01*
X108165211Y-128819531D01*
X108165208Y-128819529D01*
X108165204Y-128819526D01*
X108085292Y-128773388D01*
X108085289Y-128773387D01*
X108085288Y-128773386D01*
X108085287Y-128773386D01*
X107996143Y-128749500D01*
X107903855Y-128749500D01*
X107814711Y-128773386D01*
X107814710Y-128773386D01*
X107814708Y-128773387D01*
X107814705Y-128773388D01*
X107734793Y-128819526D01*
X107734784Y-128819533D01*
X107669532Y-128884785D01*
X107669525Y-128884794D01*
X107623387Y-128964706D01*
X107623386Y-128964709D01*
X107623385Y-128964711D01*
X107623385Y-128964712D01*
X107599499Y-129053856D01*
X104700500Y-129053856D01*
X104676614Y-128964712D01*
X104676611Y-128964706D01*
X104630473Y-128884794D01*
X104630470Y-128884791D01*
X104630469Y-128884788D01*
X104565212Y-128819531D01*
X104565209Y-128819529D01*
X104565205Y-128819526D01*
X104485293Y-128773388D01*
X104485290Y-128773387D01*
X104485289Y-128773386D01*
X104485288Y-128773386D01*
X104396144Y-128749500D01*
X104303856Y-128749500D01*
X104214712Y-128773386D01*
X104214711Y-128773386D01*
X104214709Y-128773387D01*
X104214706Y-128773388D01*
X104134794Y-128819526D01*
X104134785Y-128819533D01*
X104069533Y-128884785D01*
X104069526Y-128884794D01*
X104023388Y-128964706D01*
X104023387Y-128964709D01*
X104023386Y-128964711D01*
X104023386Y-128964712D01*
X103999500Y-129053856D01*
X100500500Y-129053856D01*
X100500500Y-128239241D01*
X102319694Y-128239241D01*
X102319694Y-128331528D01*
X102343581Y-128420675D01*
X102343582Y-128420678D01*
X102389720Y-128500590D01*
X102389723Y-128500594D01*
X102389725Y-128500597D01*
X102454982Y-128565854D01*
X102454985Y-128565855D01*
X102454988Y-128565858D01*
X102534900Y-128611996D01*
X102534901Y-128611996D01*
X102534906Y-128611999D01*
X102624050Y-128635885D01*
X102624052Y-128635885D01*
X102716336Y-128635885D01*
X102716338Y-128635885D01*
X102805482Y-128611999D01*
X102830617Y-128597486D01*
X102898517Y-128581012D01*
X102954622Y-128597486D01*
X103039709Y-128646613D01*
X103039711Y-128646613D01*
X103039712Y-128646614D01*
X103128856Y-128670500D01*
X103128858Y-128670500D01*
X103221142Y-128670500D01*
X103221144Y-128670500D01*
X103310288Y-128646614D01*
X103390212Y-128600469D01*
X103455469Y-128535212D01*
X103501614Y-128455288D01*
X103525500Y-128366144D01*
X103525500Y-128273856D01*
X103501614Y-128184712D01*
X103481627Y-128150094D01*
X103455473Y-128104794D01*
X103455470Y-128104791D01*
X103455469Y-128104788D01*
X103390212Y-128039531D01*
X103390209Y-128039529D01*
X103390205Y-128039526D01*
X103310293Y-127993388D01*
X103310292Y-127993387D01*
X103306652Y-127992411D01*
X103280869Y-127985503D01*
X103253711Y-127978226D01*
X103221144Y-127969500D01*
X103128856Y-127969500D01*
X103039710Y-127993386D01*
X103014572Y-128007900D01*
X102946672Y-128024371D01*
X102890572Y-128007898D01*
X102805487Y-127958773D01*
X102805484Y-127958772D01*
X102805483Y-127958771D01*
X102805482Y-127958771D01*
X102716338Y-127934885D01*
X102624050Y-127934885D01*
X102534906Y-127958771D01*
X102534905Y-127958771D01*
X102534903Y-127958772D01*
X102534900Y-127958773D01*
X102454988Y-128004911D01*
X102454979Y-128004918D01*
X102389727Y-128070170D01*
X102389720Y-128070179D01*
X102343582Y-128150091D01*
X102343581Y-128150094D01*
X102319694Y-128239241D01*
X100500500Y-128239241D01*
X100500500Y-127873856D01*
X109499500Y-127873856D01*
X109499500Y-127966144D01*
X109519164Y-128039533D01*
X109523387Y-128055290D01*
X109523388Y-128055293D01*
X109569526Y-128135205D01*
X109569529Y-128135209D01*
X109569531Y-128135212D01*
X109634788Y-128200469D01*
X109634791Y-128200470D01*
X109634794Y-128200473D01*
X109714706Y-128246611D01*
X109714707Y-128246611D01*
X109714712Y-128246614D01*
X109803856Y-128270500D01*
X109803858Y-128270500D01*
X109896142Y-128270500D01*
X109896144Y-128270500D01*
X109985288Y-128246614D01*
X110065212Y-128200469D01*
X110130469Y-128135212D01*
X110176614Y-128055288D01*
X110200500Y-127966144D01*
X110200500Y-127873856D01*
X110176614Y-127784712D01*
X110176611Y-127784706D01*
X110130473Y-127704794D01*
X110130470Y-127704791D01*
X110130469Y-127704788D01*
X110065212Y-127639531D01*
X110065209Y-127639529D01*
X110065205Y-127639526D01*
X109985293Y-127593388D01*
X109985290Y-127593387D01*
X109985289Y-127593386D01*
X109985288Y-127593386D01*
X109896144Y-127569500D01*
X109803856Y-127569500D01*
X109714712Y-127593386D01*
X109714711Y-127593386D01*
X109714709Y-127593387D01*
X109714706Y-127593388D01*
X109634794Y-127639526D01*
X109634785Y-127639533D01*
X109569533Y-127704785D01*
X109569526Y-127704794D01*
X109523388Y-127784706D01*
X109523387Y-127784709D01*
X109523386Y-127784711D01*
X109523386Y-127784712D01*
X109499500Y-127873856D01*
X100500500Y-127873856D01*
X100500500Y-127553856D01*
X111499500Y-127553856D01*
X111499500Y-127646144D01*
X111515215Y-127704794D01*
X111523387Y-127735290D01*
X111523388Y-127735293D01*
X111569526Y-127815205D01*
X111569529Y-127815209D01*
X111569531Y-127815212D01*
X111634788Y-127880469D01*
X111634791Y-127880470D01*
X111634794Y-127880473D01*
X111714706Y-127926611D01*
X111714707Y-127926611D01*
X111714712Y-127926614D01*
X111803856Y-127950500D01*
X111803858Y-127950500D01*
X111896142Y-127950500D01*
X111896144Y-127950500D01*
X111985288Y-127926614D01*
X112065212Y-127880469D01*
X112130469Y-127815212D01*
X112176614Y-127735288D01*
X112200500Y-127646144D01*
X112200500Y-127553856D01*
X112176614Y-127464712D01*
X112154616Y-127426611D01*
X112130473Y-127384794D01*
X112130470Y-127384791D01*
X112130469Y-127384788D01*
X112065212Y-127319531D01*
X112065209Y-127319529D01*
X112065205Y-127319526D01*
X111985293Y-127273388D01*
X111985290Y-127273387D01*
X111985289Y-127273386D01*
X111985288Y-127273386D01*
X111896144Y-127249500D01*
X111803856Y-127249500D01*
X111714712Y-127273386D01*
X111714711Y-127273386D01*
X111714709Y-127273387D01*
X111714706Y-127273388D01*
X111634794Y-127319526D01*
X111634785Y-127319533D01*
X111569533Y-127384785D01*
X111569526Y-127384794D01*
X111523388Y-127464706D01*
X111523387Y-127464709D01*
X111523386Y-127464711D01*
X111523386Y-127464712D01*
X111499500Y-127553856D01*
X100500500Y-127553856D01*
X100500500Y-126323856D01*
X108949500Y-126323856D01*
X108949500Y-126416144D01*
X108963551Y-126468584D01*
X108973387Y-126505290D01*
X108973388Y-126505293D01*
X109019526Y-126585205D01*
X109019529Y-126585209D01*
X109019531Y-126585212D01*
X109084788Y-126650469D01*
X109084791Y-126650470D01*
X109084794Y-126650473D01*
X109164706Y-126696611D01*
X109164707Y-126696612D01*
X109164709Y-126696612D01*
X109164712Y-126696614D01*
X109188626Y-126703021D01*
X109248285Y-126739386D01*
X109278814Y-126802234D01*
X109272706Y-126856115D01*
X109275490Y-126856861D01*
X109273386Y-126864711D01*
X109273386Y-126864712D01*
X109249500Y-126953856D01*
X109249500Y-127046144D01*
X109251566Y-127053856D01*
X109273387Y-127135290D01*
X109273388Y-127135293D01*
X109319526Y-127215205D01*
X109319529Y-127215209D01*
X109319531Y-127215212D01*
X109384788Y-127280469D01*
X109384791Y-127280470D01*
X109384794Y-127280473D01*
X109464706Y-127326611D01*
X109464707Y-127326611D01*
X109464712Y-127326614D01*
X109553856Y-127350500D01*
X109553858Y-127350500D01*
X109646142Y-127350500D01*
X109646144Y-127350500D01*
X109735288Y-127326614D01*
X109815212Y-127280469D01*
X109880469Y-127215212D01*
X109926614Y-127135288D01*
X109948434Y-127053856D01*
X110579500Y-127053856D01*
X110579500Y-127146144D01*
X110598007Y-127215214D01*
X110603387Y-127235290D01*
X110603388Y-127235293D01*
X110649526Y-127315205D01*
X110649529Y-127315209D01*
X110649531Y-127315212D01*
X110714788Y-127380469D01*
X110714791Y-127380470D01*
X110714794Y-127380473D01*
X110794706Y-127426611D01*
X110794707Y-127426611D01*
X110794712Y-127426614D01*
X110883856Y-127450500D01*
X110883858Y-127450500D01*
X110976142Y-127450500D01*
X110976144Y-127450500D01*
X111065288Y-127426614D01*
X111145212Y-127380469D01*
X111210469Y-127315212D01*
X111256614Y-127235288D01*
X111280500Y-127146144D01*
X111280500Y-127053856D01*
X111256614Y-126964712D01*
X111256611Y-126964706D01*
X111210473Y-126884794D01*
X111210470Y-126884791D01*
X111210469Y-126884788D01*
X111145212Y-126819531D01*
X111145209Y-126819529D01*
X111145205Y-126819526D01*
X111065293Y-126773388D01*
X111065290Y-126773387D01*
X111065289Y-126773386D01*
X111065288Y-126773386D01*
X110976144Y-126749500D01*
X110883856Y-126749500D01*
X110794712Y-126773386D01*
X110794711Y-126773386D01*
X110794709Y-126773387D01*
X110794706Y-126773388D01*
X110714794Y-126819526D01*
X110714785Y-126819533D01*
X110649533Y-126884785D01*
X110649526Y-126884794D01*
X110603388Y-126964706D01*
X110603387Y-126964709D01*
X110603386Y-126964711D01*
X110603386Y-126964712D01*
X110579500Y-127053856D01*
X109948434Y-127053856D01*
X109950500Y-127046144D01*
X109950500Y-126953856D01*
X109926614Y-126864712D01*
X109926611Y-126864706D01*
X109880473Y-126784794D01*
X109880470Y-126784791D01*
X109880469Y-126784788D01*
X109815212Y-126719531D01*
X109815209Y-126719529D01*
X109815205Y-126719526D01*
X109735293Y-126673388D01*
X109735289Y-126673386D01*
X109711371Y-126666977D01*
X109651712Y-126630611D01*
X109621184Y-126567763D01*
X109627308Y-126513888D01*
X109624510Y-126513139D01*
X109626614Y-126505288D01*
X109650500Y-126416144D01*
X109650500Y-126323856D01*
X109626614Y-126234712D01*
X109626613Y-126234711D01*
X109626613Y-126234709D01*
X109604176Y-126195849D01*
X109604175Y-126195848D01*
X109580469Y-126154788D01*
X109567655Y-126141974D01*
X110937618Y-126141974D01*
X110937618Y-126234262D01*
X110955366Y-126300499D01*
X110961505Y-126323408D01*
X110961506Y-126323411D01*
X111007644Y-126403323D01*
X111007647Y-126403327D01*
X111007649Y-126403330D01*
X111072906Y-126468587D01*
X111072909Y-126468588D01*
X111072912Y-126468591D01*
X111152824Y-126514729D01*
X111152825Y-126514729D01*
X111152830Y-126514732D01*
X111241974Y-126538618D01*
X111241976Y-126538618D01*
X111334260Y-126538618D01*
X111334262Y-126538618D01*
X111423406Y-126514732D01*
X111503330Y-126468587D01*
X111568587Y-126403330D01*
X111614732Y-126323406D01*
X111638618Y-126234262D01*
X111638618Y-126141974D01*
X111614732Y-126052830D01*
X111609280Y-126043387D01*
X111568591Y-125972912D01*
X111568588Y-125972909D01*
X111568587Y-125972906D01*
X111503330Y-125907649D01*
X111503327Y-125907647D01*
X111503323Y-125907644D01*
X111423411Y-125861506D01*
X111423408Y-125861505D01*
X111423407Y-125861504D01*
X111423406Y-125861504D01*
X111334262Y-125837618D01*
X111241974Y-125837618D01*
X111152830Y-125861504D01*
X111152829Y-125861504D01*
X111152827Y-125861505D01*
X111152824Y-125861506D01*
X111072912Y-125907644D01*
X111072903Y-125907651D01*
X111007651Y-125972903D01*
X111007644Y-125972912D01*
X110961506Y-126052824D01*
X110961505Y-126052827D01*
X110961504Y-126052829D01*
X110961504Y-126052830D01*
X110937618Y-126141974D01*
X109567655Y-126141974D01*
X109515212Y-126089531D01*
X109515209Y-126089529D01*
X109515205Y-126089526D01*
X109435293Y-126043388D01*
X109435290Y-126043387D01*
X109435289Y-126043386D01*
X109435288Y-126043386D01*
X109346144Y-126019500D01*
X109253856Y-126019500D01*
X109164712Y-126043386D01*
X109164711Y-126043386D01*
X109164709Y-126043387D01*
X109164706Y-126043388D01*
X109084794Y-126089526D01*
X109084785Y-126089533D01*
X109019533Y-126154785D01*
X109019526Y-126154794D01*
X108973388Y-126234706D01*
X108973387Y-126234709D01*
X108973386Y-126234711D01*
X108973386Y-126234712D01*
X108949500Y-126323856D01*
X100500500Y-126323856D01*
X100500500Y-125903855D01*
X103999500Y-125903855D01*
X103999500Y-125996143D01*
X104014689Y-126052830D01*
X104023387Y-126085289D01*
X104023388Y-126085292D01*
X104069526Y-126165204D01*
X104069529Y-126165208D01*
X104069531Y-126165211D01*
X104134788Y-126230468D01*
X104134791Y-126230469D01*
X104134794Y-126230472D01*
X104214706Y-126276610D01*
X104214707Y-126276610D01*
X104214712Y-126276613D01*
X104303856Y-126300499D01*
X104303858Y-126300499D01*
X104396142Y-126300499D01*
X104396144Y-126300499D01*
X104485288Y-126276613D01*
X104565212Y-126230468D01*
X104630469Y-126165211D01*
X104676614Y-126085287D01*
X104700500Y-125996143D01*
X104700500Y-125903855D01*
X104676614Y-125814711D01*
X104676611Y-125814705D01*
X104630473Y-125734793D01*
X104630470Y-125734790D01*
X104630469Y-125734787D01*
X104565212Y-125669530D01*
X104565209Y-125669528D01*
X104565205Y-125669525D01*
X104485293Y-125623387D01*
X104485290Y-125623386D01*
X104485289Y-125623385D01*
X104485288Y-125623385D01*
X104396144Y-125599499D01*
X104303856Y-125599499D01*
X104214712Y-125623385D01*
X104214711Y-125623385D01*
X104214709Y-125623386D01*
X104214706Y-125623387D01*
X104134794Y-125669525D01*
X104134785Y-125669532D01*
X104069533Y-125734784D01*
X104069526Y-125734793D01*
X104023388Y-125814705D01*
X104023387Y-125814708D01*
X104023386Y-125814710D01*
X104023386Y-125814711D01*
X103999500Y-125903855D01*
X100500500Y-125903855D01*
X100500500Y-125033856D01*
X104809500Y-125033856D01*
X104809500Y-125126144D01*
X104813291Y-125140293D01*
X104833387Y-125215290D01*
X104833388Y-125215293D01*
X104879526Y-125295205D01*
X104879529Y-125295209D01*
X104879531Y-125295212D01*
X104944788Y-125360469D01*
X104944791Y-125360470D01*
X104944794Y-125360473D01*
X105024706Y-125406611D01*
X105024707Y-125406611D01*
X105024712Y-125406614D01*
X105113856Y-125430500D01*
X105113858Y-125430500D01*
X105206142Y-125430500D01*
X105206144Y-125430500D01*
X105295288Y-125406614D01*
X105375212Y-125360469D01*
X105440469Y-125295212D01*
X105486614Y-125215288D01*
X105510500Y-125126144D01*
X105510500Y-125033856D01*
X105486614Y-124944712D01*
X105443312Y-124869712D01*
X105440473Y-124864794D01*
X105440470Y-124864791D01*
X105440469Y-124864788D01*
X105375212Y-124799531D01*
X105375209Y-124799529D01*
X105375205Y-124799526D01*
X105295293Y-124753388D01*
X105295290Y-124753387D01*
X105295289Y-124753386D01*
X105295288Y-124753386D01*
X105206144Y-124729500D01*
X105113856Y-124729500D01*
X105024712Y-124753386D01*
X105024711Y-124753386D01*
X105024709Y-124753387D01*
X105024706Y-124753388D01*
X104944794Y-124799526D01*
X104944785Y-124799533D01*
X104879533Y-124864785D01*
X104879526Y-124864794D01*
X104833388Y-124944706D01*
X104833387Y-124944709D01*
X104833386Y-124944711D01*
X104833386Y-124944712D01*
X104809500Y-125033856D01*
X100500500Y-125033856D01*
X100500500Y-124453856D01*
X106149500Y-124453856D01*
X106149500Y-124546144D01*
X106159833Y-124584709D01*
X106173387Y-124635290D01*
X106173388Y-124635293D01*
X106219526Y-124715205D01*
X106219529Y-124715209D01*
X106219531Y-124715212D01*
X106284788Y-124780469D01*
X106284791Y-124780470D01*
X106284794Y-124780473D01*
X106364706Y-124826611D01*
X106364708Y-124826612D01*
X106364712Y-124826614D01*
X106364715Y-124826614D01*
X106372216Y-124829722D01*
X106371017Y-124832615D01*
X106418054Y-124861290D01*
X106448579Y-124924139D01*
X106449054Y-124950729D01*
X106449500Y-124950729D01*
X106449500Y-124958856D01*
X106449500Y-125051144D01*
X106469596Y-125126144D01*
X106473387Y-125140290D01*
X106473388Y-125140293D01*
X106519526Y-125220205D01*
X106519529Y-125220209D01*
X106519531Y-125220212D01*
X106584788Y-125285469D01*
X106584791Y-125285470D01*
X106584794Y-125285473D01*
X106664706Y-125331611D01*
X106664707Y-125331611D01*
X106664712Y-125331614D01*
X106753856Y-125355500D01*
X106753858Y-125355500D01*
X106846142Y-125355500D01*
X106846144Y-125355500D01*
X106935288Y-125331614D01*
X107015212Y-125285469D01*
X107080469Y-125220212D01*
X107126614Y-125140288D01*
X107150500Y-125051144D01*
X107150500Y-124958856D01*
X107126614Y-124869712D01*
X107123775Y-124864794D01*
X107080473Y-124789794D01*
X107080470Y-124789791D01*
X107080469Y-124789788D01*
X107015212Y-124724531D01*
X107015209Y-124724529D01*
X107015205Y-124724526D01*
X106935293Y-124678388D01*
X106927784Y-124675278D01*
X106928979Y-124672392D01*
X106881908Y-124643668D01*
X106851411Y-124580805D01*
X106850945Y-124554271D01*
X106850500Y-124554271D01*
X106850500Y-124453858D01*
X106850500Y-124453856D01*
X106826614Y-124364712D01*
X106826611Y-124364706D01*
X106780473Y-124284794D01*
X106780470Y-124284791D01*
X106780469Y-124284788D01*
X106715212Y-124219531D01*
X106715209Y-124219529D01*
X106715205Y-124219526D01*
X106635293Y-124173388D01*
X106635290Y-124173387D01*
X106635289Y-124173386D01*
X106635288Y-124173386D01*
X106546144Y-124149500D01*
X106453856Y-124149500D01*
X106364712Y-124173386D01*
X106364711Y-124173386D01*
X106364709Y-124173387D01*
X106364706Y-124173388D01*
X106284794Y-124219526D01*
X106284785Y-124219533D01*
X106219533Y-124284785D01*
X106219526Y-124284794D01*
X106173388Y-124364706D01*
X106173387Y-124364709D01*
X106173386Y-124364711D01*
X106173386Y-124364712D01*
X106149500Y-124453856D01*
X100500500Y-124453856D01*
X100500500Y-123976624D01*
X102515039Y-123976624D01*
X102515039Y-124068912D01*
X102536632Y-124149500D01*
X102538926Y-124158058D01*
X102538927Y-124158061D01*
X102585065Y-124237973D01*
X102585068Y-124237977D01*
X102585070Y-124237980D01*
X102650327Y-124303237D01*
X102650330Y-124303238D01*
X102650333Y-124303241D01*
X102730245Y-124349379D01*
X102730246Y-124349379D01*
X102730251Y-124349382D01*
X102819395Y-124373268D01*
X102819397Y-124373268D01*
X102911681Y-124373268D01*
X102911683Y-124373268D01*
X103000827Y-124349382D01*
X103000831Y-124349380D01*
X103019947Y-124338343D01*
X103019948Y-124338342D01*
X103080751Y-124303237D01*
X103146008Y-124237980D01*
X103192153Y-124158056D01*
X103206676Y-124103855D01*
X108499500Y-124103855D01*
X108499500Y-124196143D01*
X108523252Y-124284788D01*
X108523387Y-124285289D01*
X108523388Y-124285292D01*
X108569526Y-124365204D01*
X108569529Y-124365208D01*
X108569531Y-124365211D01*
X108634788Y-124430468D01*
X108634791Y-124430469D01*
X108634794Y-124430472D01*
X108714706Y-124476610D01*
X108714707Y-124476610D01*
X108714712Y-124476613D01*
X108803856Y-124500499D01*
X108803858Y-124500499D01*
X108896142Y-124500499D01*
X108896144Y-124500499D01*
X108985288Y-124476613D01*
X109065212Y-124430468D01*
X109130469Y-124365211D01*
X109176614Y-124285287D01*
X109200500Y-124196143D01*
X109200500Y-124103855D01*
X109176614Y-124014711D01*
X109176611Y-124014705D01*
X109176609Y-124014701D01*
X109154625Y-123976624D01*
X110383960Y-123976624D01*
X110383960Y-124068912D01*
X110405553Y-124149500D01*
X110407847Y-124158058D01*
X110407847Y-124158059D01*
X110426764Y-124190824D01*
X110443237Y-124258724D01*
X110429294Y-124306217D01*
X110430275Y-124306623D01*
X110427164Y-124314133D01*
X110403278Y-124403277D01*
X110403278Y-124495565D01*
X110419008Y-124554271D01*
X110427165Y-124584711D01*
X110427166Y-124584714D01*
X110473304Y-124664626D01*
X110473307Y-124664630D01*
X110473309Y-124664633D01*
X110538566Y-124729890D01*
X110538569Y-124729891D01*
X110538572Y-124729894D01*
X110618484Y-124776032D01*
X110618485Y-124776032D01*
X110618490Y-124776035D01*
X110707634Y-124799921D01*
X110707636Y-124799921D01*
X110799920Y-124799921D01*
X110799922Y-124799921D01*
X110889066Y-124776035D01*
X110968990Y-124729890D01*
X111034247Y-124664633D01*
X111080392Y-124584709D01*
X111104278Y-124495565D01*
X111104278Y-124439025D01*
X111123963Y-124371986D01*
X111176767Y-124326231D01*
X111245925Y-124316287D01*
X111290276Y-124331637D01*
X111321010Y-124349382D01*
X111364708Y-124374612D01*
X111364712Y-124374614D01*
X111453856Y-124398500D01*
X111453858Y-124398500D01*
X111546142Y-124398500D01*
X111546144Y-124398500D01*
X111635288Y-124374614D01*
X111715212Y-124328469D01*
X111780469Y-124263212D01*
X111826614Y-124183288D01*
X111850500Y-124094144D01*
X111850500Y-124001856D01*
X111826614Y-123912712D01*
X111826611Y-123912706D01*
X111780473Y-123832794D01*
X111780470Y-123832791D01*
X111780469Y-123832788D01*
X111715212Y-123767531D01*
X111715209Y-123767529D01*
X111715205Y-123767526D01*
X111635293Y-123721388D01*
X111635290Y-123721387D01*
X111635289Y-123721386D01*
X111635288Y-123721386D01*
X111546144Y-123697500D01*
X111453856Y-123697500D01*
X111364712Y-123721386D01*
X111364711Y-123721386D01*
X111364709Y-123721387D01*
X111364706Y-123721388D01*
X111284794Y-123767526D01*
X111284785Y-123767533D01*
X111213784Y-123838535D01*
X111211400Y-123836151D01*
X111167516Y-123868127D01*
X111097766Y-123872211D01*
X111036880Y-123837936D01*
X111018301Y-123813397D01*
X111014929Y-123807556D01*
X110949672Y-123742299D01*
X110949669Y-123742297D01*
X110949665Y-123742294D01*
X110869753Y-123696156D01*
X110869750Y-123696155D01*
X110869749Y-123696154D01*
X110869748Y-123696154D01*
X110780604Y-123672268D01*
X110688316Y-123672268D01*
X110599172Y-123696154D01*
X110599171Y-123696154D01*
X110599169Y-123696155D01*
X110599166Y-123696156D01*
X110519254Y-123742294D01*
X110519245Y-123742301D01*
X110453993Y-123807553D01*
X110453986Y-123807562D01*
X110407848Y-123887474D01*
X110407847Y-123887477D01*
X110407846Y-123887479D01*
X110407846Y-123887480D01*
X110383960Y-123976624D01*
X109154625Y-123976624D01*
X109130473Y-123934793D01*
X109130470Y-123934790D01*
X109130469Y-123934787D01*
X109065212Y-123869530D01*
X109065209Y-123869528D01*
X109065205Y-123869525D01*
X108985293Y-123823387D01*
X108985290Y-123823386D01*
X108985289Y-123823385D01*
X108985288Y-123823385D01*
X108896144Y-123799499D01*
X108803856Y-123799499D01*
X108714712Y-123823385D01*
X108714711Y-123823385D01*
X108714709Y-123823386D01*
X108714706Y-123823387D01*
X108634794Y-123869525D01*
X108634785Y-123869532D01*
X108569533Y-123934784D01*
X108569526Y-123934793D01*
X108523388Y-124014705D01*
X108523387Y-124014708D01*
X108523386Y-124014710D01*
X108523386Y-124014711D01*
X108499500Y-124103855D01*
X103206676Y-124103855D01*
X103216039Y-124068912D01*
X103216039Y-123976624D01*
X103192153Y-123887480D01*
X103192150Y-123887474D01*
X103146012Y-123807562D01*
X103146009Y-123807559D01*
X103146008Y-123807556D01*
X103080751Y-123742299D01*
X103080749Y-123742297D01*
X103000832Y-123696156D01*
X103000829Y-123696155D01*
X103000828Y-123696154D01*
X103000827Y-123696154D01*
X102911683Y-123672268D01*
X102819395Y-123672268D01*
X102730251Y-123696154D01*
X102730250Y-123696154D01*
X102730248Y-123696155D01*
X102730245Y-123696156D01*
X102650333Y-123742294D01*
X102650324Y-123742301D01*
X102585072Y-123807553D01*
X102585065Y-123807562D01*
X102538927Y-123887474D01*
X102538926Y-123887477D01*
X102538925Y-123887479D01*
X102538925Y-123887480D01*
X102515039Y-123976624D01*
X100500500Y-123976624D01*
X100500500Y-123653855D01*
X103549499Y-123653855D01*
X103549499Y-123746143D01*
X103572715Y-123832788D01*
X103573386Y-123835289D01*
X103573387Y-123835292D01*
X103619525Y-123915204D01*
X103619528Y-123915208D01*
X103619530Y-123915211D01*
X103684787Y-123980468D01*
X103684790Y-123980469D01*
X103684793Y-123980472D01*
X103764705Y-124026610D01*
X103764706Y-124026610D01*
X103764711Y-124026613D01*
X103853855Y-124050499D01*
X103853857Y-124050499D01*
X103946141Y-124050499D01*
X103946143Y-124050499D01*
X104035287Y-124026613D01*
X104115211Y-123980468D01*
X104180468Y-123915211D01*
X104226613Y-123835287D01*
X104250499Y-123746143D01*
X104250499Y-123653855D01*
X104226613Y-123564711D01*
X104199068Y-123517002D01*
X104180472Y-123484793D01*
X104180469Y-123484790D01*
X104180468Y-123484787D01*
X104115211Y-123419530D01*
X104115208Y-123419528D01*
X104115204Y-123419525D01*
X104035292Y-123373387D01*
X104035289Y-123373386D01*
X104035288Y-123373385D01*
X104035287Y-123373385D01*
X103946143Y-123349499D01*
X103853855Y-123349499D01*
X103764711Y-123373385D01*
X103764710Y-123373385D01*
X103764708Y-123373386D01*
X103764705Y-123373387D01*
X103684793Y-123419525D01*
X103684784Y-123419532D01*
X103619532Y-123484784D01*
X103619525Y-123484793D01*
X103573387Y-123564705D01*
X103573386Y-123564708D01*
X103573385Y-123564710D01*
X103573385Y-123564711D01*
X103549499Y-123653855D01*
X100500500Y-123653855D01*
X100500500Y-123046585D01*
X106155775Y-123046585D01*
X106155775Y-123138873D01*
X106176250Y-123215288D01*
X106179662Y-123228019D01*
X106179663Y-123228022D01*
X106225801Y-123307934D01*
X106225804Y-123307938D01*
X106225806Y-123307941D01*
X106291063Y-123373198D01*
X106291066Y-123373199D01*
X106291069Y-123373202D01*
X106370981Y-123419340D01*
X106370982Y-123419340D01*
X106370987Y-123419343D01*
X106460131Y-123443229D01*
X106460133Y-123443229D01*
X106552417Y-123443229D01*
X106552419Y-123443229D01*
X106641563Y-123419343D01*
X106641563Y-123419342D01*
X106644798Y-123418476D01*
X106659047Y-123418216D01*
X106669434Y-123414475D01*
X106699201Y-123417486D01*
X106704608Y-123417388D01*
X106706780Y-123417886D01*
X106753856Y-123430500D01*
X106761785Y-123430500D01*
X106775464Y-123433637D01*
X106794190Y-123444137D01*
X106814786Y-123450185D01*
X106824056Y-123460883D01*
X106836407Y-123467809D01*
X106846483Y-123486765D01*
X106860541Y-123502989D01*
X106862556Y-123517002D01*
X106869201Y-123529504D01*
X106867429Y-123550896D01*
X106870485Y-123572147D01*
X106867522Y-123586589D01*
X106849499Y-123653855D01*
X106849499Y-123746143D01*
X106872715Y-123832788D01*
X106873386Y-123835289D01*
X106873387Y-123835292D01*
X106919525Y-123915204D01*
X106919528Y-123915208D01*
X106919530Y-123915211D01*
X106984787Y-123980468D01*
X106984790Y-123980469D01*
X106984793Y-123980472D01*
X107064705Y-124026610D01*
X107064706Y-124026610D01*
X107064711Y-124026613D01*
X107153855Y-124050499D01*
X107153857Y-124050499D01*
X107246141Y-124050499D01*
X107246143Y-124050499D01*
X107335287Y-124026613D01*
X107415211Y-123980468D01*
X107480468Y-123915211D01*
X107526613Y-123835287D01*
X107531885Y-123815608D01*
X107568250Y-123755949D01*
X107631097Y-123725420D01*
X107700472Y-123733715D01*
X107739341Y-123760022D01*
X107784788Y-123805469D01*
X107784791Y-123805470D01*
X107784794Y-123805473D01*
X107864706Y-123851611D01*
X107864707Y-123851611D01*
X107864712Y-123851614D01*
X107953856Y-123875500D01*
X107953858Y-123875500D01*
X108046142Y-123875500D01*
X108046144Y-123875500D01*
X108135288Y-123851614D01*
X108215212Y-123805469D01*
X108280469Y-123740212D01*
X108326614Y-123660288D01*
X108350500Y-123571144D01*
X108350500Y-123478856D01*
X108326614Y-123389712D01*
X108326613Y-123389711D01*
X108326221Y-123388246D01*
X108327884Y-123318396D01*
X108367047Y-123260534D01*
X108431275Y-123233030D01*
X108445996Y-123232153D01*
X108492472Y-123232153D01*
X108492474Y-123232153D01*
X108581618Y-123208267D01*
X108661542Y-123162122D01*
X108726799Y-123096865D01*
X108768952Y-123023856D01*
X112249500Y-123023856D01*
X112249500Y-123116144D01*
X112265136Y-123174500D01*
X112273387Y-123205290D01*
X112273388Y-123205293D01*
X112319526Y-123285205D01*
X112319529Y-123285209D01*
X112319531Y-123285212D01*
X112384788Y-123350469D01*
X112384791Y-123350470D01*
X112384794Y-123350473D01*
X112464706Y-123396611D01*
X112464707Y-123396611D01*
X112464712Y-123396614D01*
X112553856Y-123420500D01*
X112553858Y-123420500D01*
X112646142Y-123420500D01*
X112646144Y-123420500D01*
X112735288Y-123396614D01*
X112815212Y-123350469D01*
X112880469Y-123285212D01*
X112926614Y-123205288D01*
X112950500Y-123116144D01*
X112950500Y-123023856D01*
X112926614Y-122934712D01*
X112926611Y-122934706D01*
X112880473Y-122854794D01*
X112880470Y-122854791D01*
X112880469Y-122854788D01*
X112815212Y-122789531D01*
X112815209Y-122789529D01*
X112815205Y-122789526D01*
X112735293Y-122743388D01*
X112735290Y-122743387D01*
X112735289Y-122743386D01*
X112735288Y-122743386D01*
X112646144Y-122719500D01*
X112553856Y-122719500D01*
X112464712Y-122743386D01*
X112464711Y-122743386D01*
X112464709Y-122743387D01*
X112464706Y-122743388D01*
X112384794Y-122789526D01*
X112384785Y-122789533D01*
X112319533Y-122854785D01*
X112319526Y-122854794D01*
X112273388Y-122934706D01*
X112273387Y-122934709D01*
X112273386Y-122934711D01*
X112273386Y-122934712D01*
X112249500Y-123023856D01*
X108768952Y-123023856D01*
X108772944Y-123016941D01*
X108796830Y-122927797D01*
X108796830Y-122835509D01*
X108772944Y-122746365D01*
X108772941Y-122746359D01*
X108726803Y-122666447D01*
X108726800Y-122666444D01*
X108726799Y-122666441D01*
X108661542Y-122601184D01*
X108661539Y-122601182D01*
X108661535Y-122601179D01*
X108581623Y-122555041D01*
X108581620Y-122555040D01*
X108581619Y-122555039D01*
X108581618Y-122555039D01*
X108492474Y-122531153D01*
X108400186Y-122531153D01*
X108311042Y-122555039D01*
X108311041Y-122555039D01*
X108311039Y-122555040D01*
X108311036Y-122555041D01*
X108231124Y-122601179D01*
X108231115Y-122601186D01*
X108165863Y-122666438D01*
X108165858Y-122666444D01*
X108135063Y-122719782D01*
X108084495Y-122767997D01*
X108015887Y-122781218D01*
X107951023Y-122755249D01*
X107936349Y-122740399D01*
X107936215Y-122740534D01*
X107865213Y-122669532D01*
X107865211Y-122669530D01*
X107865208Y-122669528D01*
X107865204Y-122669525D01*
X107785292Y-122623387D01*
X107785289Y-122623386D01*
X107785288Y-122623385D01*
X107785287Y-122623385D01*
X107696143Y-122599499D01*
X107603855Y-122599499D01*
X107514711Y-122623385D01*
X107514710Y-122623385D01*
X107514708Y-122623386D01*
X107514705Y-122623387D01*
X107434793Y-122669525D01*
X107434784Y-122669532D01*
X107369532Y-122734784D01*
X107369525Y-122734793D01*
X107323387Y-122814705D01*
X107323386Y-122814706D01*
X107314700Y-122847125D01*
X107278334Y-122906786D01*
X107215487Y-122937314D01*
X107146112Y-122929019D01*
X107092234Y-122884533D01*
X107087539Y-122877033D01*
X107080471Y-122864791D01*
X107080466Y-122864785D01*
X107015214Y-122799533D01*
X107015212Y-122799531D01*
X107015209Y-122799529D01*
X107015205Y-122799526D01*
X106935293Y-122753388D01*
X106935290Y-122753387D01*
X106935289Y-122753386D01*
X106935288Y-122753386D01*
X106846144Y-122729500D01*
X106753856Y-122729500D01*
X106753854Y-122729500D01*
X106661477Y-122754252D01*
X106597294Y-122754252D01*
X106552423Y-122742229D01*
X106552419Y-122742229D01*
X106460131Y-122742229D01*
X106370987Y-122766115D01*
X106370986Y-122766115D01*
X106370984Y-122766116D01*
X106370981Y-122766117D01*
X106291069Y-122812255D01*
X106291060Y-122812262D01*
X106225808Y-122877514D01*
X106225801Y-122877523D01*
X106179663Y-122957435D01*
X106179662Y-122957438D01*
X106179661Y-122957440D01*
X106179661Y-122957441D01*
X106155775Y-123046585D01*
X100500500Y-123046585D01*
X100500500Y-121553856D01*
X106399500Y-121553856D01*
X106399500Y-121646144D01*
X106413356Y-121697856D01*
X106423387Y-121735290D01*
X106423388Y-121735293D01*
X106469526Y-121815205D01*
X106469529Y-121815209D01*
X106469531Y-121815212D01*
X106534788Y-121880469D01*
X106534791Y-121880470D01*
X106534794Y-121880473D01*
X106614706Y-121926611D01*
X106614707Y-121926611D01*
X106614712Y-121926614D01*
X106703856Y-121950500D01*
X106703858Y-121950500D01*
X106796142Y-121950500D01*
X106796144Y-121950500D01*
X106885288Y-121926614D01*
X106965212Y-121880469D01*
X106977695Y-121867985D01*
X107039014Y-121834502D01*
X107108705Y-121839484D01*
X107164640Y-121881354D01*
X107185150Y-121923573D01*
X107208386Y-122010292D01*
X107208387Y-122010293D01*
X107254525Y-122090205D01*
X107254528Y-122090209D01*
X107254530Y-122090212D01*
X107319787Y-122155469D01*
X107319790Y-122155470D01*
X107319793Y-122155473D01*
X107399705Y-122201611D01*
X107399706Y-122201611D01*
X107399711Y-122201614D01*
X107488855Y-122225500D01*
X107488857Y-122225500D01*
X107581141Y-122225500D01*
X107581143Y-122225500D01*
X107670287Y-122201614D01*
X107750211Y-122155469D01*
X107815468Y-122090212D01*
X107861613Y-122010288D01*
X107885499Y-121921144D01*
X107885499Y-121828856D01*
X107861613Y-121739712D01*
X107861611Y-121739708D01*
X107861611Y-121739707D01*
X107837448Y-121697856D01*
X111149500Y-121697856D01*
X111149500Y-121790144D01*
X111171061Y-121870612D01*
X111173387Y-121879290D01*
X111173388Y-121879293D01*
X111219526Y-121959205D01*
X111219529Y-121959209D01*
X111219531Y-121959212D01*
X111284788Y-122024469D01*
X111284791Y-122024470D01*
X111284794Y-122024473D01*
X111364706Y-122070611D01*
X111364707Y-122070611D01*
X111364712Y-122070614D01*
X111453856Y-122094500D01*
X111453858Y-122094500D01*
X111546142Y-122094500D01*
X111546144Y-122094500D01*
X111635288Y-122070614D01*
X111715212Y-122024469D01*
X111780469Y-121959212D01*
X111826614Y-121879288D01*
X111850500Y-121790144D01*
X111850500Y-121697856D01*
X111826614Y-121608712D01*
X111826613Y-121608711D01*
X111826613Y-121608709D01*
X111793715Y-121551731D01*
X111793714Y-121551729D01*
X111780469Y-121528788D01*
X111749537Y-121497856D01*
X112249500Y-121497856D01*
X112249500Y-121590144D01*
X112268160Y-121659785D01*
X112273387Y-121679290D01*
X112273388Y-121679293D01*
X112319526Y-121759205D01*
X112319529Y-121759209D01*
X112319531Y-121759212D01*
X112384788Y-121824469D01*
X112384791Y-121824470D01*
X112384794Y-121824473D01*
X112464706Y-121870611D01*
X112464707Y-121870611D01*
X112464712Y-121870614D01*
X112553856Y-121894500D01*
X112553858Y-121894500D01*
X112646142Y-121894500D01*
X112646144Y-121894500D01*
X112735288Y-121870614D01*
X112815212Y-121824469D01*
X112880469Y-121759212D01*
X112926614Y-121679288D01*
X112950500Y-121590144D01*
X112950500Y-121497856D01*
X112926614Y-121408712D01*
X112926611Y-121408706D01*
X112880473Y-121328794D01*
X112880470Y-121328791D01*
X112880469Y-121328788D01*
X112815212Y-121263531D01*
X112815209Y-121263529D01*
X112815205Y-121263526D01*
X112735293Y-121217388D01*
X112735290Y-121217387D01*
X112735289Y-121217386D01*
X112735288Y-121217386D01*
X112646144Y-121193500D01*
X112553856Y-121193500D01*
X112464712Y-121217386D01*
X112464711Y-121217386D01*
X112464709Y-121217387D01*
X112464706Y-121217388D01*
X112384794Y-121263526D01*
X112384785Y-121263533D01*
X112319533Y-121328785D01*
X112319526Y-121328794D01*
X112273388Y-121408706D01*
X112273387Y-121408709D01*
X112273386Y-121408711D01*
X112273386Y-121408712D01*
X112249500Y-121497856D01*
X111749537Y-121497856D01*
X111715212Y-121463531D01*
X111715209Y-121463529D01*
X111715205Y-121463526D01*
X111635293Y-121417388D01*
X111635290Y-121417387D01*
X111635289Y-121417386D01*
X111635288Y-121417386D01*
X111546144Y-121393500D01*
X111453856Y-121393500D01*
X111364712Y-121417386D01*
X111364711Y-121417386D01*
X111364709Y-121417387D01*
X111364706Y-121417388D01*
X111284794Y-121463526D01*
X111284785Y-121463533D01*
X111219533Y-121528785D01*
X111219526Y-121528794D01*
X111173387Y-121608707D01*
X111164869Y-121640499D01*
X111149500Y-121697856D01*
X107837448Y-121697856D01*
X107815472Y-121659794D01*
X107815469Y-121659791D01*
X107815468Y-121659788D01*
X107750211Y-121594531D01*
X107750208Y-121594529D01*
X107750204Y-121594526D01*
X107670292Y-121548388D01*
X107670289Y-121548387D01*
X107670288Y-121548386D01*
X107670287Y-121548386D01*
X107581143Y-121524500D01*
X107488855Y-121524500D01*
X107399711Y-121548386D01*
X107399710Y-121548386D01*
X107399708Y-121548387D01*
X107399705Y-121548388D01*
X107319793Y-121594526D01*
X107319787Y-121594531D01*
X107307302Y-121607016D01*
X107245978Y-121640499D01*
X107176286Y-121635513D01*
X107120354Y-121593640D01*
X107099849Y-121551427D01*
X107076614Y-121464712D01*
X107076611Y-121464706D01*
X107030473Y-121384794D01*
X107030470Y-121384791D01*
X107030469Y-121384788D01*
X106965212Y-121319531D01*
X106965209Y-121319529D01*
X106965205Y-121319526D01*
X106885293Y-121273388D01*
X106885290Y-121273387D01*
X106885289Y-121273386D01*
X106885288Y-121273386D01*
X106796144Y-121249500D01*
X106703856Y-121249500D01*
X106614712Y-121273386D01*
X106614711Y-121273386D01*
X106614709Y-121273387D01*
X106614706Y-121273388D01*
X106534794Y-121319526D01*
X106534785Y-121319533D01*
X106469533Y-121384785D01*
X106469526Y-121384794D01*
X106423388Y-121464706D01*
X106423387Y-121464709D01*
X106423386Y-121464711D01*
X106423386Y-121464712D01*
X106399500Y-121553856D01*
X100500500Y-121553856D01*
X100500500Y-120953856D01*
X107899500Y-120953856D01*
X107899500Y-121046143D01*
X107923387Y-121135290D01*
X107923388Y-121135293D01*
X107969526Y-121215205D01*
X107969529Y-121215209D01*
X107969531Y-121215212D01*
X108034788Y-121280469D01*
X108034791Y-121280470D01*
X108034794Y-121280473D01*
X108114706Y-121326611D01*
X108114707Y-121326611D01*
X108114712Y-121326614D01*
X108203856Y-121350500D01*
X108203858Y-121350500D01*
X108296142Y-121350500D01*
X108296144Y-121350500D01*
X108385288Y-121326614D01*
X108465212Y-121280469D01*
X108530469Y-121215212D01*
X108576614Y-121135288D01*
X108600500Y-121046144D01*
X108600500Y-120953856D01*
X108576614Y-120864712D01*
X108576611Y-120864706D01*
X108530473Y-120784794D01*
X108530470Y-120784791D01*
X108530469Y-120784788D01*
X108465212Y-120719531D01*
X108465209Y-120719529D01*
X108465205Y-120719526D01*
X108385293Y-120673388D01*
X108385290Y-120673387D01*
X108385289Y-120673386D01*
X108385288Y-120673386D01*
X108296144Y-120649500D01*
X108203856Y-120649500D01*
X108114712Y-120673386D01*
X108114711Y-120673386D01*
X108114709Y-120673387D01*
X108114706Y-120673388D01*
X108034794Y-120719526D01*
X108034785Y-120719533D01*
X107969533Y-120784785D01*
X107969526Y-120784794D01*
X107923388Y-120864706D01*
X107923387Y-120864709D01*
X107899500Y-120953856D01*
X100500500Y-120953856D01*
X100500500Y-120358451D01*
X103446432Y-120358451D01*
X103446432Y-120450739D01*
X103462658Y-120511296D01*
X103470319Y-120539885D01*
X103470320Y-120539888D01*
X103516458Y-120619800D01*
X103516461Y-120619804D01*
X103516463Y-120619807D01*
X103581720Y-120685064D01*
X103581723Y-120685065D01*
X103581726Y-120685068D01*
X103661638Y-120731206D01*
X103661639Y-120731206D01*
X103661644Y-120731209D01*
X103750788Y-120755095D01*
X103750790Y-120755095D01*
X103843074Y-120755095D01*
X103843076Y-120755095D01*
X103932220Y-120731209D01*
X104012144Y-120685064D01*
X104077401Y-120619807D01*
X104123546Y-120539883D01*
X104147432Y-120450739D01*
X104147432Y-120358451D01*
X104123546Y-120269307D01*
X104123543Y-120269301D01*
X104077405Y-120189389D01*
X104077402Y-120189386D01*
X104077401Y-120189383D01*
X104012144Y-120124126D01*
X104012141Y-120124124D01*
X104012137Y-120124121D01*
X103964423Y-120096573D01*
X107095195Y-120096573D01*
X107095195Y-120188861D01*
X107116750Y-120269307D01*
X107119082Y-120278007D01*
X107119083Y-120278010D01*
X107165221Y-120357922D01*
X107165224Y-120357926D01*
X107165226Y-120357929D01*
X107230483Y-120423186D01*
X107230486Y-120423187D01*
X107230489Y-120423190D01*
X107310401Y-120469328D01*
X107310402Y-120469328D01*
X107310407Y-120469331D01*
X107399551Y-120493217D01*
X107399553Y-120493217D01*
X107491837Y-120493217D01*
X107491839Y-120493217D01*
X107580983Y-120469331D01*
X107660907Y-120423186D01*
X107726164Y-120357929D01*
X107772309Y-120278005D01*
X107779829Y-120249940D01*
X110924221Y-120249940D01*
X110924221Y-120342228D01*
X110928568Y-120358453D01*
X110948108Y-120431374D01*
X110948109Y-120431377D01*
X110994247Y-120511289D01*
X110994250Y-120511293D01*
X110994252Y-120511296D01*
X111059509Y-120576553D01*
X111059512Y-120576554D01*
X111059515Y-120576557D01*
X111139427Y-120622695D01*
X111139428Y-120622695D01*
X111139433Y-120622698D01*
X111228577Y-120646584D01*
X111228579Y-120646584D01*
X111320863Y-120646584D01*
X111320865Y-120646584D01*
X111410009Y-120622698D01*
X111489933Y-120576553D01*
X111555190Y-120511296D01*
X111601335Y-120431372D01*
X111625221Y-120342228D01*
X111625221Y-120249940D01*
X111601335Y-120160796D01*
X111601332Y-120160790D01*
X111555194Y-120080878D01*
X111555191Y-120080875D01*
X111555190Y-120080872D01*
X111489933Y-120015615D01*
X111489930Y-120015613D01*
X111489926Y-120015610D01*
X111410014Y-119969472D01*
X111410011Y-119969471D01*
X111410010Y-119969470D01*
X111410009Y-119969470D01*
X111320865Y-119945584D01*
X111228577Y-119945584D01*
X111139433Y-119969470D01*
X111139432Y-119969470D01*
X111139430Y-119969471D01*
X111139427Y-119969472D01*
X111059515Y-120015610D01*
X111059506Y-120015617D01*
X110994254Y-120080869D01*
X110994247Y-120080878D01*
X110948109Y-120160790D01*
X110948108Y-120160793D01*
X110948107Y-120160795D01*
X110948107Y-120160796D01*
X110924221Y-120249940D01*
X107779829Y-120249940D01*
X107796195Y-120188861D01*
X107796195Y-120096573D01*
X107772309Y-120007429D01*
X107772306Y-120007423D01*
X107726168Y-119927511D01*
X107726165Y-119927508D01*
X107726164Y-119927505D01*
X107660907Y-119862248D01*
X107660904Y-119862246D01*
X107660900Y-119862243D01*
X107580988Y-119816105D01*
X107580985Y-119816104D01*
X107580984Y-119816103D01*
X107580983Y-119816103D01*
X107491839Y-119792217D01*
X107399551Y-119792217D01*
X107310407Y-119816103D01*
X107310406Y-119816103D01*
X107310404Y-119816104D01*
X107310401Y-119816105D01*
X107230489Y-119862243D01*
X107230480Y-119862250D01*
X107165228Y-119927502D01*
X107165221Y-119927511D01*
X107119083Y-120007423D01*
X107119082Y-120007426D01*
X107119081Y-120007428D01*
X107119081Y-120007429D01*
X107095195Y-120096573D01*
X103964423Y-120096573D01*
X103932225Y-120077983D01*
X103932222Y-120077982D01*
X103932221Y-120077981D01*
X103932220Y-120077981D01*
X103843076Y-120054095D01*
X103750788Y-120054095D01*
X103661644Y-120077981D01*
X103661643Y-120077981D01*
X103661641Y-120077982D01*
X103661638Y-120077983D01*
X103581726Y-120124121D01*
X103581717Y-120124128D01*
X103516465Y-120189380D01*
X103516458Y-120189389D01*
X103470320Y-120269301D01*
X103470319Y-120269304D01*
X103470318Y-120269306D01*
X103470318Y-120269307D01*
X103446432Y-120358451D01*
X100500500Y-120358451D01*
X100500500Y-119153855D01*
X108199500Y-119153855D01*
X108199500Y-119246142D01*
X108223387Y-119335289D01*
X108223388Y-119335292D01*
X108269526Y-119415204D01*
X108269529Y-119415208D01*
X108269531Y-119415211D01*
X108334788Y-119480468D01*
X108334791Y-119480469D01*
X108334794Y-119480472D01*
X108414706Y-119526610D01*
X108414707Y-119526610D01*
X108414712Y-119526613D01*
X108503856Y-119550499D01*
X108503858Y-119550499D01*
X108596142Y-119550499D01*
X108596144Y-119550499D01*
X108685288Y-119526613D01*
X108765212Y-119480468D01*
X108830469Y-119415211D01*
X108876614Y-119335287D01*
X108900500Y-119246143D01*
X108900500Y-119153855D01*
X108876614Y-119064711D01*
X108855702Y-119028491D01*
X108830473Y-118984793D01*
X108830470Y-118984790D01*
X108830469Y-118984787D01*
X108765212Y-118919530D01*
X108765209Y-118919528D01*
X108765205Y-118919525D01*
X108685293Y-118873387D01*
X108685290Y-118873386D01*
X108685289Y-118873385D01*
X108685288Y-118873385D01*
X108596144Y-118849499D01*
X108503856Y-118849499D01*
X108414712Y-118873385D01*
X108414711Y-118873385D01*
X108414709Y-118873386D01*
X108414706Y-118873387D01*
X108334794Y-118919525D01*
X108334785Y-118919532D01*
X108269533Y-118984784D01*
X108269526Y-118984793D01*
X108223388Y-119064705D01*
X108223387Y-119064708D01*
X108199500Y-119153855D01*
X100500500Y-119153855D01*
X100500500Y-118198856D01*
X105299500Y-118198856D01*
X105299500Y-118291144D01*
X105322040Y-118375266D01*
X105323387Y-118380290D01*
X105323388Y-118380293D01*
X105369526Y-118460205D01*
X105369529Y-118460209D01*
X105369531Y-118460212D01*
X105434788Y-118525469D01*
X105434791Y-118525470D01*
X105434794Y-118525473D01*
X105514706Y-118571611D01*
X105514707Y-118571611D01*
X105514712Y-118571614D01*
X105603856Y-118595500D01*
X105603858Y-118595500D01*
X105696142Y-118595500D01*
X105696144Y-118595500D01*
X105785288Y-118571614D01*
X105865212Y-118525469D01*
X105930469Y-118460212D01*
X105932984Y-118455856D01*
X106249500Y-118455856D01*
X106249500Y-118548144D01*
X106255788Y-118571612D01*
X106273387Y-118637290D01*
X106273388Y-118637293D01*
X106319526Y-118717205D01*
X106319529Y-118717209D01*
X106319531Y-118717212D01*
X106384788Y-118782469D01*
X106384791Y-118782470D01*
X106384794Y-118782473D01*
X106464706Y-118828611D01*
X106464707Y-118828611D01*
X106464712Y-118828614D01*
X106553856Y-118852500D01*
X106553858Y-118852500D01*
X106646142Y-118852500D01*
X106646144Y-118852500D01*
X106735288Y-118828614D01*
X106815212Y-118782469D01*
X106880469Y-118717212D01*
X106926614Y-118637288D01*
X106948969Y-118553856D01*
X109999500Y-118553856D01*
X109999500Y-118646144D01*
X110018543Y-118717214D01*
X110023387Y-118735290D01*
X110023388Y-118735293D01*
X110069526Y-118815205D01*
X110069529Y-118815209D01*
X110069531Y-118815212D01*
X110134788Y-118880469D01*
X110134791Y-118880470D01*
X110134794Y-118880473D01*
X110214706Y-118926611D01*
X110214707Y-118926611D01*
X110214712Y-118926614D01*
X110303856Y-118950500D01*
X110303858Y-118950500D01*
X110396142Y-118950500D01*
X110396144Y-118950500D01*
X110485288Y-118926614D01*
X110565212Y-118880469D01*
X110630469Y-118815212D01*
X110676614Y-118735288D01*
X110697930Y-118655736D01*
X111121380Y-118655736D01*
X111121380Y-118748024D01*
X111142973Y-118828612D01*
X111145267Y-118837170D01*
X111145268Y-118837173D01*
X111191406Y-118917085D01*
X111191409Y-118917089D01*
X111191411Y-118917092D01*
X111256668Y-118982349D01*
X111256671Y-118982350D01*
X111256674Y-118982353D01*
X111336586Y-119028491D01*
X111336587Y-119028491D01*
X111336592Y-119028494D01*
X111425736Y-119052380D01*
X111425738Y-119052380D01*
X111518022Y-119052380D01*
X111518024Y-119052380D01*
X111607168Y-119028494D01*
X111687092Y-118982349D01*
X111752349Y-118917092D01*
X111798494Y-118837168D01*
X111822380Y-118748024D01*
X111822380Y-118655736D01*
X111798494Y-118566592D01*
X111787843Y-118548144D01*
X111752353Y-118486674D01*
X111752350Y-118486671D01*
X111752349Y-118486668D01*
X111687092Y-118421411D01*
X111687089Y-118421409D01*
X111687085Y-118421406D01*
X111607173Y-118375268D01*
X111607170Y-118375267D01*
X111607169Y-118375266D01*
X111607168Y-118375266D01*
X111518024Y-118351380D01*
X111425736Y-118351380D01*
X111336592Y-118375266D01*
X111336591Y-118375266D01*
X111336589Y-118375267D01*
X111336586Y-118375268D01*
X111256674Y-118421406D01*
X111256665Y-118421413D01*
X111191413Y-118486665D01*
X111191406Y-118486674D01*
X111145268Y-118566586D01*
X111145267Y-118566589D01*
X111145266Y-118566591D01*
X111145266Y-118566592D01*
X111121380Y-118655736D01*
X110697930Y-118655736D01*
X110700500Y-118646144D01*
X110700500Y-118553856D01*
X110676614Y-118464712D01*
X110674012Y-118460205D01*
X110630473Y-118384794D01*
X110630470Y-118384791D01*
X110630469Y-118384788D01*
X110565212Y-118319531D01*
X110565209Y-118319529D01*
X110565205Y-118319526D01*
X110485293Y-118273388D01*
X110485290Y-118273387D01*
X110485289Y-118273386D01*
X110485288Y-118273386D01*
X110396144Y-118249500D01*
X110303856Y-118249500D01*
X110214712Y-118273386D01*
X110214711Y-118273386D01*
X110214709Y-118273387D01*
X110214706Y-118273388D01*
X110134794Y-118319526D01*
X110134785Y-118319533D01*
X110069533Y-118384785D01*
X110069526Y-118384794D01*
X110023388Y-118464706D01*
X110023387Y-118464709D01*
X110023386Y-118464711D01*
X110023386Y-118464712D01*
X109999500Y-118553856D01*
X106948969Y-118553856D01*
X106950500Y-118548144D01*
X106950500Y-118455856D01*
X106926614Y-118366712D01*
X106917254Y-118350500D01*
X106880473Y-118286794D01*
X106880470Y-118286791D01*
X106880469Y-118286788D01*
X106815212Y-118221531D01*
X106815209Y-118221529D01*
X106815205Y-118221526D01*
X106735293Y-118175388D01*
X106735290Y-118175387D01*
X106735289Y-118175386D01*
X106735288Y-118175386D01*
X106646144Y-118151500D01*
X106553856Y-118151500D01*
X106464712Y-118175386D01*
X106464711Y-118175386D01*
X106464709Y-118175387D01*
X106464706Y-118175388D01*
X106384794Y-118221526D01*
X106384785Y-118221533D01*
X106319533Y-118286785D01*
X106319526Y-118286794D01*
X106273388Y-118366706D01*
X106273387Y-118366709D01*
X106273386Y-118366711D01*
X106273386Y-118366712D01*
X106249500Y-118455856D01*
X105932984Y-118455856D01*
X105954227Y-118419061D01*
X105973474Y-118385728D01*
X105973474Y-118385727D01*
X105976613Y-118380290D01*
X105977959Y-118375267D01*
X106000500Y-118291144D01*
X106000500Y-118198856D01*
X105976614Y-118109712D01*
X105950923Y-118065214D01*
X105930473Y-118029794D01*
X105930470Y-118029791D01*
X105930469Y-118029788D01*
X105865212Y-117964531D01*
X105865209Y-117964529D01*
X105865205Y-117964526D01*
X105846724Y-117953856D01*
X109249500Y-117953856D01*
X109249500Y-118046144D01*
X109266532Y-118109709D01*
X109273387Y-118135290D01*
X109273388Y-118135293D01*
X109319526Y-118215205D01*
X109319529Y-118215209D01*
X109319531Y-118215212D01*
X109384788Y-118280469D01*
X109384791Y-118280470D01*
X109384794Y-118280473D01*
X109464706Y-118326611D01*
X109464707Y-118326611D01*
X109464712Y-118326614D01*
X109553856Y-118350500D01*
X109553858Y-118350500D01*
X109646142Y-118350500D01*
X109646144Y-118350500D01*
X109735288Y-118326614D01*
X109815212Y-118280469D01*
X109880469Y-118215212D01*
X109926614Y-118135288D01*
X109950500Y-118046144D01*
X109950500Y-117953856D01*
X109926614Y-117864712D01*
X109926611Y-117864706D01*
X109880473Y-117784794D01*
X109880470Y-117784791D01*
X109880469Y-117784788D01*
X109815212Y-117719531D01*
X109815209Y-117719529D01*
X109815205Y-117719526D01*
X109735293Y-117673388D01*
X109735290Y-117673387D01*
X109735289Y-117673386D01*
X109735288Y-117673386D01*
X109646144Y-117649500D01*
X109553856Y-117649500D01*
X109464712Y-117673386D01*
X109464711Y-117673386D01*
X109464709Y-117673387D01*
X109464706Y-117673388D01*
X109384794Y-117719526D01*
X109384785Y-117719533D01*
X109319533Y-117784785D01*
X109319526Y-117784794D01*
X109273388Y-117864706D01*
X109273387Y-117864709D01*
X109273386Y-117864711D01*
X109273386Y-117864712D01*
X109249500Y-117953856D01*
X105846724Y-117953856D01*
X105785293Y-117918388D01*
X105785290Y-117918387D01*
X105785289Y-117918386D01*
X105785288Y-117918386D01*
X105696144Y-117894500D01*
X105603856Y-117894500D01*
X105514712Y-117918386D01*
X105514711Y-117918386D01*
X105514709Y-117918387D01*
X105514706Y-117918388D01*
X105434794Y-117964526D01*
X105434785Y-117964533D01*
X105369533Y-118029785D01*
X105369526Y-118029794D01*
X105323388Y-118109706D01*
X105323387Y-118109709D01*
X105323386Y-118109711D01*
X105323386Y-118109712D01*
X105299500Y-118198856D01*
X100500500Y-118198856D01*
X100500500Y-117633856D01*
X101124500Y-117633856D01*
X101124500Y-117726144D01*
X101145323Y-117803858D01*
X101148387Y-117815290D01*
X101148388Y-117815293D01*
X101194526Y-117895205D01*
X101194529Y-117895209D01*
X101194531Y-117895212D01*
X101259788Y-117960469D01*
X101259791Y-117960470D01*
X101259794Y-117960473D01*
X101339706Y-118006611D01*
X101339707Y-118006611D01*
X101339712Y-118006614D01*
X101428856Y-118030500D01*
X101428858Y-118030500D01*
X101521142Y-118030500D01*
X101521144Y-118030500D01*
X101610288Y-118006614D01*
X101690212Y-117960469D01*
X101755469Y-117895212D01*
X101801614Y-117815288D01*
X101825500Y-117726144D01*
X101825500Y-117633856D01*
X101801614Y-117544712D01*
X101801611Y-117544706D01*
X101755473Y-117464794D01*
X101755470Y-117464791D01*
X101755469Y-117464788D01*
X101690212Y-117399531D01*
X101690209Y-117399529D01*
X101690205Y-117399526D01*
X101611102Y-117353855D01*
X110149500Y-117353855D01*
X110149500Y-117446143D01*
X110170197Y-117523387D01*
X110173387Y-117535289D01*
X110173388Y-117535292D01*
X110219526Y-117615204D01*
X110219529Y-117615208D01*
X110219531Y-117615211D01*
X110284788Y-117680468D01*
X110284791Y-117680469D01*
X110284794Y-117680472D01*
X110364706Y-117726610D01*
X110364707Y-117726610D01*
X110364712Y-117726613D01*
X110453856Y-117750499D01*
X110453858Y-117750499D01*
X110475499Y-117750499D01*
X110542538Y-117770184D01*
X110588293Y-117822988D01*
X110599499Y-117874499D01*
X110599499Y-117896144D01*
X110617823Y-117964531D01*
X110623386Y-117985290D01*
X110623387Y-117985293D01*
X110669525Y-118065205D01*
X110669528Y-118065209D01*
X110669530Y-118065212D01*
X110734787Y-118130469D01*
X110734790Y-118130470D01*
X110734793Y-118130473D01*
X110814705Y-118176611D01*
X110814706Y-118176611D01*
X110814711Y-118176614D01*
X110903855Y-118200500D01*
X110903857Y-118200500D01*
X110996141Y-118200500D01*
X110996143Y-118200500D01*
X111085287Y-118176614D01*
X111165211Y-118130469D01*
X111230468Y-118065212D01*
X111276613Y-117985288D01*
X111300499Y-117896144D01*
X111300499Y-117803856D01*
X111276613Y-117714712D01*
X111276610Y-117714706D01*
X111230472Y-117634794D01*
X111230469Y-117634791D01*
X111230468Y-117634788D01*
X111165211Y-117569531D01*
X111165208Y-117569529D01*
X111165204Y-117569526D01*
X111085292Y-117523388D01*
X111085289Y-117523387D01*
X111085288Y-117523386D01*
X111085287Y-117523386D01*
X110996143Y-117499500D01*
X110974500Y-117499500D01*
X110907461Y-117479815D01*
X110861706Y-117427011D01*
X110850500Y-117375500D01*
X110850500Y-117353857D01*
X110850500Y-117353855D01*
X110826614Y-117264711D01*
X110826611Y-117264705D01*
X110780473Y-117184793D01*
X110780470Y-117184790D01*
X110780469Y-117184787D01*
X110715212Y-117119530D01*
X110715209Y-117119528D01*
X110715205Y-117119525D01*
X110635293Y-117073387D01*
X110635290Y-117073386D01*
X110635289Y-117073385D01*
X110635288Y-117073385D01*
X110546144Y-117049499D01*
X110453856Y-117049499D01*
X110364712Y-117073385D01*
X110364711Y-117073385D01*
X110364709Y-117073386D01*
X110364706Y-117073387D01*
X110284794Y-117119525D01*
X110284785Y-117119532D01*
X110219533Y-117184784D01*
X110219526Y-117184793D01*
X110173388Y-117264705D01*
X110173387Y-117264708D01*
X110173386Y-117264710D01*
X110173386Y-117264711D01*
X110149500Y-117353855D01*
X101611102Y-117353855D01*
X101610293Y-117353388D01*
X101610290Y-117353387D01*
X101610289Y-117353386D01*
X101610288Y-117353386D01*
X101521144Y-117329500D01*
X101428856Y-117329500D01*
X101339712Y-117353386D01*
X101339711Y-117353386D01*
X101339709Y-117353387D01*
X101339706Y-117353388D01*
X101259794Y-117399526D01*
X101259785Y-117399533D01*
X101194533Y-117464785D01*
X101194526Y-117464794D01*
X101148388Y-117544706D01*
X101148387Y-117544709D01*
X101148386Y-117544711D01*
X101148386Y-117544712D01*
X101124500Y-117633856D01*
X100500500Y-117633856D01*
X100500500Y-116535856D01*
X101949500Y-116535856D01*
X101949500Y-116628143D01*
X101973387Y-116717290D01*
X101973388Y-116717293D01*
X102019526Y-116797205D01*
X102019529Y-116797209D01*
X102019531Y-116797212D01*
X102084788Y-116862469D01*
X102084791Y-116862470D01*
X102084794Y-116862473D01*
X102164706Y-116908611D01*
X102164707Y-116908611D01*
X102164712Y-116908614D01*
X102253856Y-116932500D01*
X102253858Y-116932500D01*
X102346142Y-116932500D01*
X102346144Y-116932500D01*
X102435288Y-116908614D01*
X102515212Y-116862469D01*
X102580469Y-116797212D01*
X102626614Y-116717288D01*
X102650500Y-116628144D01*
X102650500Y-116535856D01*
X102626614Y-116446712D01*
X102626611Y-116446706D01*
X102580473Y-116366794D01*
X102580470Y-116366791D01*
X102580469Y-116366788D01*
X102515212Y-116301531D01*
X102515209Y-116301529D01*
X102515205Y-116301526D01*
X102435293Y-116255388D01*
X102435290Y-116255387D01*
X102435289Y-116255386D01*
X102435288Y-116255386D01*
X102346144Y-116231500D01*
X102253856Y-116231500D01*
X102164712Y-116255386D01*
X102164711Y-116255386D01*
X102164709Y-116255387D01*
X102164706Y-116255388D01*
X102084794Y-116301526D01*
X102084785Y-116301533D01*
X102019533Y-116366785D01*
X102019526Y-116366794D01*
X101973388Y-116446706D01*
X101973387Y-116446709D01*
X101949500Y-116535856D01*
X100500500Y-116535856D01*
X100500500Y-115403855D01*
X104149500Y-115403855D01*
X104149500Y-115496142D01*
X104173387Y-115585289D01*
X104173388Y-115585292D01*
X104219526Y-115665204D01*
X104219529Y-115665208D01*
X104219531Y-115665211D01*
X104284788Y-115730468D01*
X104284791Y-115730469D01*
X104284794Y-115730472D01*
X104364706Y-115776610D01*
X104364707Y-115776610D01*
X104364712Y-115776613D01*
X104453856Y-115800499D01*
X104453858Y-115800499D01*
X104546142Y-115800499D01*
X104546144Y-115800499D01*
X104635288Y-115776613D01*
X104715212Y-115730468D01*
X104780469Y-115665211D01*
X104826614Y-115585287D01*
X104850500Y-115496143D01*
X104850500Y-115403855D01*
X104826614Y-115314711D01*
X104809626Y-115285287D01*
X104780473Y-115234793D01*
X104780470Y-115234790D01*
X104780469Y-115234787D01*
X104715212Y-115169530D01*
X104715209Y-115169528D01*
X104715205Y-115169525D01*
X104635293Y-115123387D01*
X104635290Y-115123386D01*
X104635289Y-115123385D01*
X104635288Y-115123385D01*
X104546144Y-115099499D01*
X104453856Y-115099499D01*
X104364712Y-115123385D01*
X104364711Y-115123385D01*
X104364709Y-115123386D01*
X104364706Y-115123387D01*
X104284794Y-115169525D01*
X104284785Y-115169532D01*
X104219533Y-115234784D01*
X104219526Y-115234793D01*
X104173388Y-115314705D01*
X104173387Y-115314708D01*
X104173386Y-115314710D01*
X104173386Y-115314711D01*
X104159855Y-115365211D01*
X104149500Y-115403855D01*
X100500500Y-115403855D01*
X100500500Y-113453856D01*
X110149500Y-113453856D01*
X110149500Y-113546144D01*
X110159856Y-113584794D01*
X110173387Y-113635290D01*
X110173388Y-113635293D01*
X110219526Y-113715205D01*
X110219529Y-113715209D01*
X110219531Y-113715212D01*
X110284788Y-113780469D01*
X110284791Y-113780470D01*
X110284794Y-113780473D01*
X110364706Y-113826611D01*
X110364707Y-113826611D01*
X110364712Y-113826614D01*
X110453856Y-113850500D01*
X110453858Y-113850500D01*
X110546142Y-113850500D01*
X110546144Y-113850500D01*
X110635288Y-113826614D01*
X110715212Y-113780469D01*
X110741825Y-113753856D01*
X112549499Y-113753856D01*
X112549499Y-113846143D01*
X112573386Y-113935290D01*
X112573387Y-113935293D01*
X112619525Y-114015205D01*
X112619532Y-114015214D01*
X112690534Y-114086216D01*
X112688366Y-114088383D01*
X112720986Y-114133070D01*
X112725130Y-114202817D01*
X112690908Y-114263732D01*
X112688496Y-114265821D01*
X112619532Y-114334785D01*
X112619525Y-114334794D01*
X112573387Y-114414706D01*
X112573386Y-114414709D01*
X112549499Y-114503856D01*
X112549499Y-114596143D01*
X112573386Y-114685290D01*
X112573387Y-114685293D01*
X112619525Y-114765205D01*
X112619528Y-114765209D01*
X112619530Y-114765212D01*
X112684787Y-114830469D01*
X112684790Y-114830470D01*
X112684793Y-114830473D01*
X112764705Y-114876611D01*
X112764707Y-114876612D01*
X112764708Y-114876612D01*
X112764711Y-114876614D01*
X112780855Y-114880939D01*
X112840514Y-114917303D01*
X112871044Y-114980150D01*
X112868535Y-115032807D01*
X112849499Y-115103855D01*
X112849499Y-115196143D01*
X112859855Y-115234793D01*
X112873386Y-115285289D01*
X112873387Y-115285292D01*
X112919525Y-115365204D01*
X112919528Y-115365208D01*
X112919530Y-115365211D01*
X112984787Y-115430468D01*
X112984790Y-115430469D01*
X112984793Y-115430472D01*
X113064705Y-115476610D01*
X113064706Y-115476610D01*
X113064711Y-115476613D01*
X113153855Y-115500499D01*
X113153857Y-115500499D01*
X113246141Y-115500499D01*
X113246143Y-115500499D01*
X113335287Y-115476613D01*
X113415211Y-115430468D01*
X113480468Y-115365211D01*
X113526613Y-115285287D01*
X113550499Y-115196143D01*
X113550499Y-115103855D01*
X113526613Y-115014711D01*
X113506659Y-114980150D01*
X113480472Y-114934793D01*
X113480469Y-114934790D01*
X113480468Y-114934787D01*
X113415211Y-114869530D01*
X113415208Y-114869528D01*
X113415204Y-114869525D01*
X113335292Y-114823387D01*
X113335287Y-114823384D01*
X113319140Y-114819058D01*
X113259480Y-114782692D01*
X113228952Y-114719844D01*
X113231460Y-114667196D01*
X113250499Y-114596144D01*
X113250499Y-114503856D01*
X113226613Y-114414712D01*
X113226610Y-114414706D01*
X113180472Y-114334794D01*
X113180469Y-114334791D01*
X113180468Y-114334788D01*
X113115211Y-114269531D01*
X113109464Y-114263784D01*
X113111635Y-114261612D01*
X113079025Y-114216969D01*
X113074858Y-114147224D01*
X113109059Y-114086297D01*
X113111485Y-114084194D01*
X113115208Y-114080470D01*
X113115211Y-114080469D01*
X113180468Y-114015212D01*
X113226613Y-113935288D01*
X113250499Y-113846144D01*
X113250499Y-113753856D01*
X113226613Y-113664712D01*
X113209625Y-113635288D01*
X113180472Y-113584794D01*
X113180469Y-113584791D01*
X113180468Y-113584788D01*
X113115211Y-113519531D01*
X113115208Y-113519529D01*
X113115204Y-113519526D01*
X113035292Y-113473388D01*
X113035289Y-113473387D01*
X113035288Y-113473386D01*
X113035287Y-113473386D01*
X112946143Y-113449500D01*
X112853855Y-113449500D01*
X112764711Y-113473386D01*
X112764710Y-113473386D01*
X112764708Y-113473387D01*
X112764705Y-113473388D01*
X112684793Y-113519526D01*
X112684784Y-113519533D01*
X112619532Y-113584785D01*
X112619525Y-113584794D01*
X112573387Y-113664706D01*
X112573386Y-113664709D01*
X112573385Y-113664711D01*
X112573385Y-113664712D01*
X112559854Y-113715211D01*
X112549499Y-113753856D01*
X110741825Y-113753856D01*
X110780469Y-113715212D01*
X110826614Y-113635288D01*
X110850500Y-113546144D01*
X110850500Y-113453856D01*
X110826614Y-113364712D01*
X110826611Y-113364706D01*
X110780473Y-113284794D01*
X110780470Y-113284791D01*
X110780469Y-113284788D01*
X110715212Y-113219531D01*
X110715209Y-113219529D01*
X110715205Y-113219526D01*
X110635293Y-113173388D01*
X110635290Y-113173387D01*
X110635289Y-113173386D01*
X110635288Y-113173386D01*
X110546144Y-113149500D01*
X110453856Y-113149500D01*
X110364712Y-113173386D01*
X110364711Y-113173386D01*
X110364709Y-113173387D01*
X110364706Y-113173388D01*
X110284794Y-113219526D01*
X110284785Y-113219533D01*
X110219533Y-113284785D01*
X110219526Y-113284794D01*
X110173388Y-113364706D01*
X110173387Y-113364709D01*
X110173386Y-113364711D01*
X110173386Y-113364712D01*
X110149500Y-113453856D01*
X100500500Y-113453856D01*
X100500500Y-112004500D01*
X100515371Y-111953856D01*
X102649500Y-111953856D01*
X102649500Y-112046143D01*
X102673387Y-112135290D01*
X102673388Y-112135293D01*
X102719526Y-112215205D01*
X102719529Y-112215209D01*
X102719531Y-112215212D01*
X102784788Y-112280469D01*
X102784791Y-112280470D01*
X102784794Y-112280473D01*
X102864706Y-112326611D01*
X102864707Y-112326611D01*
X102864712Y-112326614D01*
X102953856Y-112350500D01*
X102953858Y-112350500D01*
X103046142Y-112350500D01*
X103046144Y-112350500D01*
X103135288Y-112326614D01*
X103215212Y-112280469D01*
X103280469Y-112215212D01*
X103326614Y-112135288D01*
X103350500Y-112046144D01*
X103350500Y-111953856D01*
X103326614Y-111864712D01*
X103321939Y-111856614D01*
X103280473Y-111784794D01*
X103280470Y-111784791D01*
X103280469Y-111784788D01*
X103215212Y-111719531D01*
X103215209Y-111719529D01*
X103215205Y-111719526D01*
X103135293Y-111673388D01*
X103135290Y-111673387D01*
X103135289Y-111673386D01*
X103135288Y-111673386D01*
X103046144Y-111649500D01*
X102953856Y-111649500D01*
X102864712Y-111673386D01*
X102864711Y-111673386D01*
X102864709Y-111673387D01*
X102864706Y-111673388D01*
X102784794Y-111719526D01*
X102784785Y-111719533D01*
X102719533Y-111784785D01*
X102719526Y-111784794D01*
X102673388Y-111864706D01*
X102673387Y-111864709D01*
X102649500Y-111953856D01*
X100515371Y-111953856D01*
X100520185Y-111937461D01*
X100572989Y-111891706D01*
X100624500Y-111880500D01*
X100716142Y-111880500D01*
X100716144Y-111880500D01*
X100805288Y-111856614D01*
X100809474Y-111854196D01*
X100836935Y-111838343D01*
X100885205Y-111810473D01*
X100885204Y-111810473D01*
X100885212Y-111810469D01*
X100950469Y-111745212D01*
X100996614Y-111665288D01*
X101020500Y-111576144D01*
X101020500Y-111483856D01*
X100996614Y-111394712D01*
X100996612Y-111394709D01*
X100996612Y-111394707D01*
X100973025Y-111353855D01*
X101749500Y-111353855D01*
X101749500Y-111446142D01*
X101773387Y-111535289D01*
X101773388Y-111535292D01*
X101819526Y-111615204D01*
X101819529Y-111615208D01*
X101819531Y-111615211D01*
X101884788Y-111680468D01*
X101884791Y-111680469D01*
X101884794Y-111680472D01*
X101964706Y-111726610D01*
X101964707Y-111726610D01*
X101964712Y-111726613D01*
X102053856Y-111750499D01*
X102053858Y-111750499D01*
X102146142Y-111750499D01*
X102146144Y-111750499D01*
X102235288Y-111726613D01*
X102315212Y-111680468D01*
X102380469Y-111615211D01*
X102426614Y-111535287D01*
X102450500Y-111446143D01*
X102450500Y-111353855D01*
X102426614Y-111264711D01*
X102417847Y-111249526D01*
X102380473Y-111184793D01*
X102380470Y-111184790D01*
X102380469Y-111184787D01*
X102315212Y-111119530D01*
X102315209Y-111119528D01*
X102315205Y-111119525D01*
X102235293Y-111073387D01*
X102235290Y-111073386D01*
X102235289Y-111073385D01*
X102235288Y-111073385D01*
X102146144Y-111049499D01*
X102053856Y-111049499D01*
X101964712Y-111073385D01*
X101964711Y-111073385D01*
X101964709Y-111073386D01*
X101964706Y-111073387D01*
X101884794Y-111119525D01*
X101884785Y-111119532D01*
X101819533Y-111184784D01*
X101819526Y-111184793D01*
X101773388Y-111264705D01*
X101773387Y-111264708D01*
X101749500Y-111353855D01*
X100973025Y-111353855D01*
X100950473Y-111314794D01*
X100950470Y-111314791D01*
X100950469Y-111314788D01*
X100885212Y-111249531D01*
X100885209Y-111249529D01*
X100885205Y-111249526D01*
X100805293Y-111203388D01*
X100805290Y-111203387D01*
X100805289Y-111203386D01*
X100805288Y-111203386D01*
X100716144Y-111179500D01*
X100624500Y-111179500D01*
X100557461Y-111159815D01*
X100511706Y-111107011D01*
X100500500Y-111055500D01*
X100500500Y-108803856D01*
X106249500Y-108803856D01*
X106249500Y-108896144D01*
X106264964Y-108953858D01*
X106273387Y-108985290D01*
X106273388Y-108985293D01*
X106319526Y-109065205D01*
X106319529Y-109065209D01*
X106319531Y-109065212D01*
X106384788Y-109130469D01*
X106384791Y-109130470D01*
X106384794Y-109130473D01*
X106464706Y-109176611D01*
X106464707Y-109176611D01*
X106464712Y-109176614D01*
X106553856Y-109200500D01*
X106553858Y-109200500D01*
X106646142Y-109200500D01*
X106646144Y-109200500D01*
X106735288Y-109176614D01*
X106815212Y-109130469D01*
X106831156Y-109114524D01*
X106892476Y-109081039D01*
X106962168Y-109086022D01*
X107018102Y-109127892D01*
X107026223Y-109140203D01*
X107047244Y-109176611D01*
X107069531Y-109215212D01*
X107134788Y-109280469D01*
X107134791Y-109280470D01*
X107134794Y-109280473D01*
X107214706Y-109326611D01*
X107214707Y-109326611D01*
X107214712Y-109326614D01*
X107303856Y-109350500D01*
X107303858Y-109350500D01*
X107396142Y-109350500D01*
X107396144Y-109350500D01*
X107485288Y-109326614D01*
X107565212Y-109280469D01*
X107630469Y-109215212D01*
X107676614Y-109135288D01*
X107700500Y-109046144D01*
X107700500Y-108953856D01*
X107676614Y-108864712D01*
X107676611Y-108864706D01*
X107630473Y-108784794D01*
X107630470Y-108784791D01*
X107630469Y-108784788D01*
X107565212Y-108719531D01*
X107565209Y-108719529D01*
X107565205Y-108719526D01*
X107485293Y-108673388D01*
X107485290Y-108673387D01*
X107485289Y-108673386D01*
X107485288Y-108673386D01*
X107396144Y-108649500D01*
X107303856Y-108649500D01*
X107214712Y-108673386D01*
X107214711Y-108673386D01*
X107214709Y-108673387D01*
X107214706Y-108673388D01*
X107134794Y-108719526D01*
X107134784Y-108719534D01*
X107118841Y-108735477D01*
X107057517Y-108768961D01*
X106987826Y-108763975D01*
X106931893Y-108722102D01*
X106923776Y-108709795D01*
X106880473Y-108634794D01*
X106880470Y-108634791D01*
X106880469Y-108634788D01*
X106815212Y-108569531D01*
X106815209Y-108569529D01*
X106815205Y-108569526D01*
X106735293Y-108523388D01*
X106735290Y-108523387D01*
X106735289Y-108523386D01*
X106735288Y-108523386D01*
X106646144Y-108499500D01*
X106553856Y-108499500D01*
X106464712Y-108523386D01*
X106464711Y-108523386D01*
X106464709Y-108523387D01*
X106464706Y-108523388D01*
X106384794Y-108569526D01*
X106384785Y-108569533D01*
X106319533Y-108634785D01*
X106319526Y-108634794D01*
X106273388Y-108714706D01*
X106273387Y-108714709D01*
X106273386Y-108714711D01*
X106273386Y-108714712D01*
X106249500Y-108803856D01*
X100500500Y-108803856D01*
X100500500Y-108353855D01*
X108799499Y-108353855D01*
X108799499Y-108446143D01*
X108820196Y-108523387D01*
X108823386Y-108535289D01*
X108823387Y-108535292D01*
X108869525Y-108615204D01*
X108869528Y-108615208D01*
X108869530Y-108615211D01*
X108934787Y-108680468D01*
X108934790Y-108680469D01*
X108934793Y-108680472D01*
X109014705Y-108726610D01*
X109014706Y-108726610D01*
X109014711Y-108726613D01*
X109103855Y-108750499D01*
X109103857Y-108750499D01*
X109196141Y-108750499D01*
X109196143Y-108750499D01*
X109285287Y-108726613D01*
X109365211Y-108680468D01*
X109430468Y-108615211D01*
X109476613Y-108535287D01*
X109500499Y-108446143D01*
X109500499Y-108353855D01*
X109476613Y-108264711D01*
X109476610Y-108264705D01*
X109430472Y-108184793D01*
X109430469Y-108184790D01*
X109430468Y-108184787D01*
X109365211Y-108119530D01*
X109365208Y-108119528D01*
X109365204Y-108119525D01*
X109285292Y-108073387D01*
X109285289Y-108073386D01*
X109285288Y-108073385D01*
X109285287Y-108073385D01*
X109196143Y-108049499D01*
X109103855Y-108049499D01*
X109014711Y-108073385D01*
X109014710Y-108073385D01*
X109014708Y-108073386D01*
X109014705Y-108073387D01*
X108934793Y-108119525D01*
X108934784Y-108119532D01*
X108869532Y-108184784D01*
X108869525Y-108184793D01*
X108823387Y-108264705D01*
X108823386Y-108264708D01*
X108823385Y-108264710D01*
X108823385Y-108264711D01*
X108799499Y-108353855D01*
X100500500Y-108353855D01*
X100500500Y-107453856D01*
X104299499Y-107453856D01*
X104299499Y-107546143D01*
X104323386Y-107635290D01*
X104323387Y-107635293D01*
X104369525Y-107715205D01*
X104369528Y-107715209D01*
X104369530Y-107715212D01*
X104434787Y-107780469D01*
X104434790Y-107780470D01*
X104434793Y-107780473D01*
X104514705Y-107826611D01*
X104514706Y-107826611D01*
X104514711Y-107826614D01*
X104603855Y-107850500D01*
X104603857Y-107850500D01*
X104696141Y-107850500D01*
X104696143Y-107850500D01*
X104785287Y-107826614D01*
X104865211Y-107780469D01*
X104930468Y-107715212D01*
X104976613Y-107635288D01*
X105000499Y-107546144D01*
X105000499Y-107453856D01*
X104976613Y-107364712D01*
X104976610Y-107364706D01*
X104930472Y-107284794D01*
X104930469Y-107284791D01*
X104930468Y-107284788D01*
X104865211Y-107219531D01*
X104865208Y-107219529D01*
X104865204Y-107219526D01*
X104785292Y-107173388D01*
X104785289Y-107173387D01*
X104785288Y-107173386D01*
X104785287Y-107173386D01*
X104696143Y-107149500D01*
X104603855Y-107149500D01*
X104514711Y-107173386D01*
X104514710Y-107173386D01*
X104514708Y-107173387D01*
X104514705Y-107173388D01*
X104434793Y-107219526D01*
X104434784Y-107219533D01*
X104369532Y-107284785D01*
X104369525Y-107284794D01*
X104323387Y-107364706D01*
X104323386Y-107364709D01*
X104299499Y-107453856D01*
X100500500Y-107453856D01*
X100500500Y-106230817D01*
X103574500Y-106230817D01*
X103574500Y-106369182D01*
X103610312Y-106502835D01*
X103610313Y-106502838D01*
X103679492Y-106622661D01*
X103679494Y-106622664D01*
X103679495Y-106622665D01*
X103777335Y-106720505D01*
X103897164Y-106789688D01*
X104030817Y-106825500D01*
X104030819Y-106825500D01*
X104169181Y-106825500D01*
X104169183Y-106825500D01*
X104302836Y-106789688D01*
X104422665Y-106720505D01*
X104520505Y-106622665D01*
X104589688Y-106502836D01*
X104625500Y-106369183D01*
X104625500Y-106230817D01*
X109374500Y-106230817D01*
X109374500Y-106369182D01*
X109410312Y-106502835D01*
X109410313Y-106502838D01*
X109479492Y-106622661D01*
X109479494Y-106622664D01*
X109479495Y-106622665D01*
X109577335Y-106720505D01*
X109697164Y-106789688D01*
X109830817Y-106825500D01*
X109830819Y-106825500D01*
X109969181Y-106825500D01*
X109969183Y-106825500D01*
X110102836Y-106789688D01*
X110222665Y-106720505D01*
X110320505Y-106622665D01*
X110389688Y-106502836D01*
X110425500Y-106369183D01*
X110425500Y-106230817D01*
X110389688Y-106097164D01*
X110320505Y-105977335D01*
X110222665Y-105879495D01*
X110222664Y-105879494D01*
X110222661Y-105879492D01*
X110102838Y-105810313D01*
X110102837Y-105810312D01*
X110102836Y-105810312D01*
X109969183Y-105774500D01*
X109830817Y-105774500D01*
X109697164Y-105810312D01*
X109697161Y-105810313D01*
X109577338Y-105879492D01*
X109577333Y-105879496D01*
X109479496Y-105977333D01*
X109479492Y-105977338D01*
X109410313Y-106097161D01*
X109410312Y-106097164D01*
X109374500Y-106230817D01*
X104625500Y-106230817D01*
X104589688Y-106097164D01*
X104520505Y-105977335D01*
X104422665Y-105879495D01*
X104422664Y-105879494D01*
X104422661Y-105879492D01*
X104302838Y-105810313D01*
X104302837Y-105810312D01*
X104302836Y-105810312D01*
X104169183Y-105774500D01*
X104030817Y-105774500D01*
X103897164Y-105810312D01*
X103897161Y-105810313D01*
X103777338Y-105879492D01*
X103777333Y-105879496D01*
X103679496Y-105977333D01*
X103679492Y-105977338D01*
X103610313Y-106097161D01*
X103610312Y-106097164D01*
X103574500Y-106230817D01*
X100500500Y-106230817D01*
X100500500Y-100624500D01*
X100520185Y-100557461D01*
X100572989Y-100511706D01*
X100624500Y-100500500D01*
X115375500Y-100500500D01*
X115442539Y-100520185D01*
G37*
%TD.AperFunction*%
%TD*%
M02*
