%TF.GenerationSoftware,KiCad,Pcbnew,10.0.4*%
%TF.CreationDate,2026-07-20T18:38:35-04:00*%
%TF.ProjectId,dongle-lite,646f6e67-6c65-42d6-9c69-74652e6b6963,rev?*%
%TF.SameCoordinates,Original*%
%TF.FileFunction,Legend,Top*%
%TF.FilePolarity,Positive*%
%FSLAX46Y46*%
G04 Gerber Fmt 4.6, Leading zero omitted, Abs format (unit mm)*
G04 Created by KiCad (PCBNEW 10.0.4) date 2026-07-20 18:38:35*
%MOMM*%
%LPD*%
G01*
G04 APERTURE LIST*
%ADD10C,0.120000*%
%ADD11C,0.150000*%
%ADD12C,0.060000*%
%ADD13C,0.300000*%
%ADD14C,0.250000*%
%ADD15C,0.100000*%
%ADD16C,0.200000*%
%ADD17C,0.000000*%
G04 APERTURE END LIST*
D10*
X108419047Y-128825760D02*
X108533333Y-128863855D01*
X108533333Y-128863855D02*
X108723809Y-128863855D01*
X108723809Y-128863855D02*
X108800000Y-128825760D01*
X108800000Y-128825760D02*
X108838095Y-128787664D01*
X108838095Y-128787664D02*
X108876190Y-128711474D01*
X108876190Y-128711474D02*
X108876190Y-128635283D01*
X108876190Y-128635283D02*
X108838095Y-128559093D01*
X108838095Y-128559093D02*
X108800000Y-128520998D01*
X108800000Y-128520998D02*
X108723809Y-128482902D01*
X108723809Y-128482902D02*
X108571428Y-128444807D01*
X108571428Y-128444807D02*
X108495238Y-128406712D01*
X108495238Y-128406712D02*
X108457143Y-128368617D01*
X108457143Y-128368617D02*
X108419047Y-128292426D01*
X108419047Y-128292426D02*
X108419047Y-128216236D01*
X108419047Y-128216236D02*
X108457143Y-128140045D01*
X108457143Y-128140045D02*
X108495238Y-128101950D01*
X108495238Y-128101950D02*
X108571428Y-128063855D01*
X108571428Y-128063855D02*
X108761905Y-128063855D01*
X108761905Y-128063855D02*
X108876190Y-128101950D01*
X109104762Y-128063855D02*
X109561905Y-128063855D01*
X109333333Y-128863855D02*
X109333333Y-128063855D01*
X109790476Y-128635283D02*
X110171429Y-128635283D01*
X109714286Y-128863855D02*
X109980953Y-128063855D01*
X109980953Y-128063855D02*
X110247619Y-128863855D01*
X110400000Y-128063855D02*
X110857143Y-128063855D01*
X110628571Y-128863855D02*
X110628571Y-128063855D01*
X108833333Y-123363855D02*
X108833333Y-122563855D01*
X108833333Y-122563855D02*
X109138095Y-122563855D01*
X109138095Y-122563855D02*
X109214285Y-122601950D01*
X109214285Y-122601950D02*
X109252380Y-122640045D01*
X109252380Y-122640045D02*
X109290476Y-122716236D01*
X109290476Y-122716236D02*
X109290476Y-122830521D01*
X109290476Y-122830521D02*
X109252380Y-122906712D01*
X109252380Y-122906712D02*
X109214285Y-122944807D01*
X109214285Y-122944807D02*
X109138095Y-122982902D01*
X109138095Y-122982902D02*
X108833333Y-122982902D01*
X109557142Y-122563855D02*
X109747618Y-123363855D01*
X109747618Y-123363855D02*
X109899999Y-122792426D01*
X109899999Y-122792426D02*
X110052380Y-123363855D01*
X110052380Y-123363855D02*
X110242857Y-122563855D01*
X111004762Y-123363855D02*
X110738095Y-122982902D01*
X110547619Y-123363855D02*
X110547619Y-122563855D01*
X110547619Y-122563855D02*
X110852381Y-122563855D01*
X110852381Y-122563855D02*
X110928571Y-122601950D01*
X110928571Y-122601950D02*
X110966666Y-122640045D01*
X110966666Y-122640045D02*
X111004762Y-122716236D01*
X111004762Y-122716236D02*
X111004762Y-122830521D01*
X111004762Y-122830521D02*
X110966666Y-122906712D01*
X110966666Y-122906712D02*
X110928571Y-122944807D01*
X110928571Y-122944807D02*
X110852381Y-122982902D01*
X110852381Y-122982902D02*
X110547619Y-122982902D01*
X114263855Y-106433332D02*
X113463855Y-106433332D01*
X113844807Y-106433332D02*
X113844807Y-105976189D01*
X114263855Y-105976189D02*
X113463855Y-105976189D01*
X113463855Y-105442856D02*
X113463855Y-105290475D01*
X113463855Y-105290475D02*
X113501950Y-105214285D01*
X113501950Y-105214285D02*
X113578140Y-105138094D01*
X113578140Y-105138094D02*
X113730521Y-105099999D01*
X113730521Y-105099999D02*
X113997188Y-105099999D01*
X113997188Y-105099999D02*
X114149569Y-105138094D01*
X114149569Y-105138094D02*
X114225760Y-105214285D01*
X114225760Y-105214285D02*
X114263855Y-105290475D01*
X114263855Y-105290475D02*
X114263855Y-105442856D01*
X114263855Y-105442856D02*
X114225760Y-105519047D01*
X114225760Y-105519047D02*
X114149569Y-105595237D01*
X114149569Y-105595237D02*
X113997188Y-105633333D01*
X113997188Y-105633333D02*
X113730521Y-105633333D01*
X113730521Y-105633333D02*
X113578140Y-105595237D01*
X113578140Y-105595237D02*
X113501950Y-105519047D01*
X113501950Y-105519047D02*
X113463855Y-105442856D01*
X114225760Y-104795238D02*
X114263855Y-104680952D01*
X114263855Y-104680952D02*
X114263855Y-104490476D01*
X114263855Y-104490476D02*
X114225760Y-104414285D01*
X114225760Y-104414285D02*
X114187664Y-104376190D01*
X114187664Y-104376190D02*
X114111474Y-104338095D01*
X114111474Y-104338095D02*
X114035283Y-104338095D01*
X114035283Y-104338095D02*
X113959093Y-104376190D01*
X113959093Y-104376190D02*
X113920998Y-104414285D01*
X113920998Y-104414285D02*
X113882902Y-104490476D01*
X113882902Y-104490476D02*
X113844807Y-104642857D01*
X113844807Y-104642857D02*
X113806712Y-104719047D01*
X113806712Y-104719047D02*
X113768617Y-104757142D01*
X113768617Y-104757142D02*
X113692426Y-104795238D01*
X113692426Y-104795238D02*
X113616236Y-104795238D01*
X113616236Y-104795238D02*
X113540045Y-104757142D01*
X113540045Y-104757142D02*
X113501950Y-104719047D01*
X113501950Y-104719047D02*
X113463855Y-104642857D01*
X113463855Y-104642857D02*
X113463855Y-104452380D01*
X113463855Y-104452380D02*
X113501950Y-104338095D01*
X113463855Y-104109523D02*
X113463855Y-103652380D01*
X114263855Y-103880952D02*
X113463855Y-103880952D01*
X113463855Y-151938095D02*
X113463855Y-151480952D01*
X114263855Y-151709524D02*
X113463855Y-151709524D01*
X114035283Y-151252381D02*
X114035283Y-150871428D01*
X114263855Y-151328571D02*
X113463855Y-151061904D01*
X113463855Y-151061904D02*
X114263855Y-150795238D01*
X114263855Y-150071428D02*
X113882902Y-150338095D01*
X114263855Y-150528571D02*
X113463855Y-150528571D01*
X113463855Y-150528571D02*
X113463855Y-150223809D01*
X113463855Y-150223809D02*
X113501950Y-150147619D01*
X113501950Y-150147619D02*
X113540045Y-150109524D01*
X113540045Y-150109524D02*
X113616236Y-150071428D01*
X113616236Y-150071428D02*
X113730521Y-150071428D01*
X113730521Y-150071428D02*
X113806712Y-150109524D01*
X113806712Y-150109524D02*
X113844807Y-150147619D01*
X113844807Y-150147619D02*
X113882902Y-150223809D01*
X113882902Y-150223809D02*
X113882902Y-150528571D01*
X113501950Y-149309524D02*
X113463855Y-149385714D01*
X113463855Y-149385714D02*
X113463855Y-149500000D01*
X113463855Y-149500000D02*
X113501950Y-149614286D01*
X113501950Y-149614286D02*
X113578140Y-149690476D01*
X113578140Y-149690476D02*
X113654331Y-149728571D01*
X113654331Y-149728571D02*
X113806712Y-149766667D01*
X113806712Y-149766667D02*
X113920998Y-149766667D01*
X113920998Y-149766667D02*
X114073379Y-149728571D01*
X114073379Y-149728571D02*
X114149569Y-149690476D01*
X114149569Y-149690476D02*
X114225760Y-149614286D01*
X114225760Y-149614286D02*
X114263855Y-149500000D01*
X114263855Y-149500000D02*
X114263855Y-149423809D01*
X114263855Y-149423809D02*
X114225760Y-149309524D01*
X114225760Y-149309524D02*
X114187664Y-149271428D01*
X114187664Y-149271428D02*
X113920998Y-149271428D01*
X113920998Y-149271428D02*
X113920998Y-149423809D01*
X113844807Y-148928571D02*
X113844807Y-148661905D01*
X114263855Y-148547619D02*
X114263855Y-148928571D01*
X114263855Y-148928571D02*
X113463855Y-148928571D01*
X113463855Y-148928571D02*
X113463855Y-148547619D01*
X113463855Y-148319047D02*
X113463855Y-147861904D01*
X114263855Y-148090476D02*
X113463855Y-148090476D01*
X106817664Y-119433332D02*
X106855760Y-119471428D01*
X106855760Y-119471428D02*
X106893855Y-119585713D01*
X106893855Y-119585713D02*
X106893855Y-119661904D01*
X106893855Y-119661904D02*
X106855760Y-119776190D01*
X106855760Y-119776190D02*
X106779569Y-119852380D01*
X106779569Y-119852380D02*
X106703379Y-119890475D01*
X106703379Y-119890475D02*
X106550998Y-119928571D01*
X106550998Y-119928571D02*
X106436712Y-119928571D01*
X106436712Y-119928571D02*
X106284331Y-119890475D01*
X106284331Y-119890475D02*
X106208140Y-119852380D01*
X106208140Y-119852380D02*
X106131950Y-119776190D01*
X106131950Y-119776190D02*
X106093855Y-119661904D01*
X106093855Y-119661904D02*
X106093855Y-119585713D01*
X106093855Y-119585713D02*
X106131950Y-119471428D01*
X106131950Y-119471428D02*
X106170045Y-119433332D01*
X106093855Y-118747618D02*
X106093855Y-118899999D01*
X106093855Y-118899999D02*
X106131950Y-118976190D01*
X106131950Y-118976190D02*
X106170045Y-119014285D01*
X106170045Y-119014285D02*
X106284331Y-119090475D01*
X106284331Y-119090475D02*
X106436712Y-119128571D01*
X106436712Y-119128571D02*
X106741474Y-119128571D01*
X106741474Y-119128571D02*
X106817664Y-119090475D01*
X106817664Y-119090475D02*
X106855760Y-119052380D01*
X106855760Y-119052380D02*
X106893855Y-118976190D01*
X106893855Y-118976190D02*
X106893855Y-118823809D01*
X106893855Y-118823809D02*
X106855760Y-118747618D01*
X106855760Y-118747618D02*
X106817664Y-118709523D01*
X106817664Y-118709523D02*
X106741474Y-118671428D01*
X106741474Y-118671428D02*
X106550998Y-118671428D01*
X106550998Y-118671428D02*
X106474807Y-118709523D01*
X106474807Y-118709523D02*
X106436712Y-118747618D01*
X106436712Y-118747618D02*
X106398617Y-118823809D01*
X106398617Y-118823809D02*
X106398617Y-118976190D01*
X106398617Y-118976190D02*
X106436712Y-119052380D01*
X106436712Y-119052380D02*
X106474807Y-119090475D01*
X106474807Y-119090475D02*
X106550998Y-119128571D01*
X113355713Y-119519664D02*
X113317617Y-119557760D01*
X113317617Y-119557760D02*
X113203332Y-119595855D01*
X113203332Y-119595855D02*
X113127141Y-119595855D01*
X113127141Y-119595855D02*
X113012855Y-119557760D01*
X113012855Y-119557760D02*
X112936665Y-119481569D01*
X112936665Y-119481569D02*
X112898570Y-119405379D01*
X112898570Y-119405379D02*
X112860474Y-119252998D01*
X112860474Y-119252998D02*
X112860474Y-119138712D01*
X112860474Y-119138712D02*
X112898570Y-118986331D01*
X112898570Y-118986331D02*
X112936665Y-118910140D01*
X112936665Y-118910140D02*
X113012855Y-118833950D01*
X113012855Y-118833950D02*
X113127141Y-118795855D01*
X113127141Y-118795855D02*
X113203332Y-118795855D01*
X113203332Y-118795855D02*
X113317617Y-118833950D01*
X113317617Y-118833950D02*
X113355713Y-118872045D01*
X114117617Y-119595855D02*
X113660474Y-119595855D01*
X113889046Y-119595855D02*
X113889046Y-118795855D01*
X113889046Y-118795855D02*
X113812855Y-118910140D01*
X113812855Y-118910140D02*
X113736665Y-118986331D01*
X113736665Y-118986331D02*
X113660474Y-119024426D01*
X114574760Y-119138712D02*
X114498570Y-119100617D01*
X114498570Y-119100617D02*
X114460475Y-119062521D01*
X114460475Y-119062521D02*
X114422379Y-118986331D01*
X114422379Y-118986331D02*
X114422379Y-118948236D01*
X114422379Y-118948236D02*
X114460475Y-118872045D01*
X114460475Y-118872045D02*
X114498570Y-118833950D01*
X114498570Y-118833950D02*
X114574760Y-118795855D01*
X114574760Y-118795855D02*
X114727141Y-118795855D01*
X114727141Y-118795855D02*
X114803332Y-118833950D01*
X114803332Y-118833950D02*
X114841427Y-118872045D01*
X114841427Y-118872045D02*
X114879522Y-118948236D01*
X114879522Y-118948236D02*
X114879522Y-118986331D01*
X114879522Y-118986331D02*
X114841427Y-119062521D01*
X114841427Y-119062521D02*
X114803332Y-119100617D01*
X114803332Y-119100617D02*
X114727141Y-119138712D01*
X114727141Y-119138712D02*
X114574760Y-119138712D01*
X114574760Y-119138712D02*
X114498570Y-119176807D01*
X114498570Y-119176807D02*
X114460475Y-119214902D01*
X114460475Y-119214902D02*
X114422379Y-119291093D01*
X114422379Y-119291093D02*
X114422379Y-119443474D01*
X114422379Y-119443474D02*
X114460475Y-119519664D01*
X114460475Y-119519664D02*
X114498570Y-119557760D01*
X114498570Y-119557760D02*
X114574760Y-119595855D01*
X114574760Y-119595855D02*
X114727141Y-119595855D01*
X114727141Y-119595855D02*
X114803332Y-119557760D01*
X114803332Y-119557760D02*
X114841427Y-119519664D01*
X114841427Y-119519664D02*
X114879522Y-119443474D01*
X114879522Y-119443474D02*
X114879522Y-119291093D01*
X114879522Y-119291093D02*
X114841427Y-119214902D01*
X114841427Y-119214902D02*
X114803332Y-119176807D01*
X114803332Y-119176807D02*
X114727141Y-119138712D01*
X100813855Y-117059523D02*
X101461474Y-117059523D01*
X101461474Y-117059523D02*
X101537664Y-117021428D01*
X101537664Y-117021428D02*
X101575760Y-116983333D01*
X101575760Y-116983333D02*
X101613855Y-116907142D01*
X101613855Y-116907142D02*
X101613855Y-116754761D01*
X101613855Y-116754761D02*
X101575760Y-116678571D01*
X101575760Y-116678571D02*
X101537664Y-116640476D01*
X101537664Y-116640476D02*
X101461474Y-116602380D01*
X101461474Y-116602380D02*
X100813855Y-116602380D01*
X100813855Y-115878571D02*
X100813855Y-116030952D01*
X100813855Y-116030952D02*
X100851950Y-116107143D01*
X100851950Y-116107143D02*
X100890045Y-116145238D01*
X100890045Y-116145238D02*
X101004331Y-116221428D01*
X101004331Y-116221428D02*
X101156712Y-116259524D01*
X101156712Y-116259524D02*
X101461474Y-116259524D01*
X101461474Y-116259524D02*
X101537664Y-116221428D01*
X101537664Y-116221428D02*
X101575760Y-116183333D01*
X101575760Y-116183333D02*
X101613855Y-116107143D01*
X101613855Y-116107143D02*
X101613855Y-115954762D01*
X101613855Y-115954762D02*
X101575760Y-115878571D01*
X101575760Y-115878571D02*
X101537664Y-115840476D01*
X101537664Y-115840476D02*
X101461474Y-115802381D01*
X101461474Y-115802381D02*
X101270998Y-115802381D01*
X101270998Y-115802381D02*
X101194807Y-115840476D01*
X101194807Y-115840476D02*
X101156712Y-115878571D01*
X101156712Y-115878571D02*
X101118617Y-115954762D01*
X101118617Y-115954762D02*
X101118617Y-116107143D01*
X101118617Y-116107143D02*
X101156712Y-116183333D01*
X101156712Y-116183333D02*
X101194807Y-116221428D01*
X101194807Y-116221428D02*
X101270998Y-116259524D01*
X102763855Y-145354475D02*
X103411474Y-145354475D01*
X103411474Y-145354475D02*
X103487664Y-145316380D01*
X103487664Y-145316380D02*
X103525760Y-145278285D01*
X103525760Y-145278285D02*
X103563855Y-145202094D01*
X103563855Y-145202094D02*
X103563855Y-145049713D01*
X103563855Y-145049713D02*
X103525760Y-144973523D01*
X103525760Y-144973523D02*
X103487664Y-144935428D01*
X103487664Y-144935428D02*
X103411474Y-144897332D01*
X103411474Y-144897332D02*
X102763855Y-144897332D01*
X103563855Y-144097333D02*
X103563855Y-144554476D01*
X103563855Y-144325904D02*
X102763855Y-144325904D01*
X102763855Y-144325904D02*
X102878140Y-144402095D01*
X102878140Y-144402095D02*
X102954331Y-144478285D01*
X102954331Y-144478285D02*
X102992426Y-144554476D01*
X102763855Y-143602094D02*
X102763855Y-143525904D01*
X102763855Y-143525904D02*
X102801950Y-143449713D01*
X102801950Y-143449713D02*
X102840045Y-143411618D01*
X102840045Y-143411618D02*
X102916236Y-143373523D01*
X102916236Y-143373523D02*
X103068617Y-143335428D01*
X103068617Y-143335428D02*
X103259093Y-143335428D01*
X103259093Y-143335428D02*
X103411474Y-143373523D01*
X103411474Y-143373523D02*
X103487664Y-143411618D01*
X103487664Y-143411618D02*
X103525760Y-143449713D01*
X103525760Y-143449713D02*
X103563855Y-143525904D01*
X103563855Y-143525904D02*
X103563855Y-143602094D01*
X103563855Y-143602094D02*
X103525760Y-143678285D01*
X103525760Y-143678285D02*
X103487664Y-143716380D01*
X103487664Y-143716380D02*
X103411474Y-143754475D01*
X103411474Y-143754475D02*
X103259093Y-143792571D01*
X103259093Y-143792571D02*
X103068617Y-143792571D01*
X103068617Y-143792571D02*
X102916236Y-143754475D01*
X102916236Y-143754475D02*
X102840045Y-143716380D01*
X102840045Y-143716380D02*
X102801950Y-143678285D01*
X102801950Y-143678285D02*
X102763855Y-143602094D01*
X101663855Y-145924332D02*
X101282902Y-146190999D01*
X101663855Y-146381475D02*
X100863855Y-146381475D01*
X100863855Y-146381475D02*
X100863855Y-146076713D01*
X100863855Y-146076713D02*
X100901950Y-146000523D01*
X100901950Y-146000523D02*
X100940045Y-145962428D01*
X100940045Y-145962428D02*
X101016236Y-145924332D01*
X101016236Y-145924332D02*
X101130521Y-145924332D01*
X101130521Y-145924332D02*
X101206712Y-145962428D01*
X101206712Y-145962428D02*
X101244807Y-146000523D01*
X101244807Y-146000523D02*
X101282902Y-146076713D01*
X101282902Y-146076713D02*
X101282902Y-146381475D01*
X101206712Y-145467190D02*
X101168617Y-145543380D01*
X101168617Y-145543380D02*
X101130521Y-145581475D01*
X101130521Y-145581475D02*
X101054331Y-145619571D01*
X101054331Y-145619571D02*
X101016236Y-145619571D01*
X101016236Y-145619571D02*
X100940045Y-145581475D01*
X100940045Y-145581475D02*
X100901950Y-145543380D01*
X100901950Y-145543380D02*
X100863855Y-145467190D01*
X100863855Y-145467190D02*
X100863855Y-145314809D01*
X100863855Y-145314809D02*
X100901950Y-145238618D01*
X100901950Y-145238618D02*
X100940045Y-145200523D01*
X100940045Y-145200523D02*
X101016236Y-145162428D01*
X101016236Y-145162428D02*
X101054331Y-145162428D01*
X101054331Y-145162428D02*
X101130521Y-145200523D01*
X101130521Y-145200523D02*
X101168617Y-145238618D01*
X101168617Y-145238618D02*
X101206712Y-145314809D01*
X101206712Y-145314809D02*
X101206712Y-145467190D01*
X101206712Y-145467190D02*
X101244807Y-145543380D01*
X101244807Y-145543380D02*
X101282902Y-145581475D01*
X101282902Y-145581475D02*
X101359093Y-145619571D01*
X101359093Y-145619571D02*
X101511474Y-145619571D01*
X101511474Y-145619571D02*
X101587664Y-145581475D01*
X101587664Y-145581475D02*
X101625760Y-145543380D01*
X101625760Y-145543380D02*
X101663855Y-145467190D01*
X101663855Y-145467190D02*
X101663855Y-145314809D01*
X101663855Y-145314809D02*
X101625760Y-145238618D01*
X101625760Y-145238618D02*
X101587664Y-145200523D01*
X101587664Y-145200523D02*
X101511474Y-145162428D01*
X101511474Y-145162428D02*
X101359093Y-145162428D01*
X101359093Y-145162428D02*
X101282902Y-145200523D01*
X101282902Y-145200523D02*
X101244807Y-145238618D01*
X101244807Y-145238618D02*
X101206712Y-145314809D01*
X106337664Y-115764285D02*
X106375760Y-115802381D01*
X106375760Y-115802381D02*
X106413855Y-115916666D01*
X106413855Y-115916666D02*
X106413855Y-115992857D01*
X106413855Y-115992857D02*
X106375760Y-116107143D01*
X106375760Y-116107143D02*
X106299569Y-116183333D01*
X106299569Y-116183333D02*
X106223379Y-116221428D01*
X106223379Y-116221428D02*
X106070998Y-116259524D01*
X106070998Y-116259524D02*
X105956712Y-116259524D01*
X105956712Y-116259524D02*
X105804331Y-116221428D01*
X105804331Y-116221428D02*
X105728140Y-116183333D01*
X105728140Y-116183333D02*
X105651950Y-116107143D01*
X105651950Y-116107143D02*
X105613855Y-115992857D01*
X105613855Y-115992857D02*
X105613855Y-115916666D01*
X105613855Y-115916666D02*
X105651950Y-115802381D01*
X105651950Y-115802381D02*
X105690045Y-115764285D01*
X105690045Y-115459524D02*
X105651950Y-115421428D01*
X105651950Y-115421428D02*
X105613855Y-115345238D01*
X105613855Y-115345238D02*
X105613855Y-115154762D01*
X105613855Y-115154762D02*
X105651950Y-115078571D01*
X105651950Y-115078571D02*
X105690045Y-115040476D01*
X105690045Y-115040476D02*
X105766236Y-115002381D01*
X105766236Y-115002381D02*
X105842426Y-115002381D01*
X105842426Y-115002381D02*
X105956712Y-115040476D01*
X105956712Y-115040476D02*
X106413855Y-115497619D01*
X106413855Y-115497619D02*
X106413855Y-115002381D01*
X105613855Y-114507142D02*
X105613855Y-114430952D01*
X105613855Y-114430952D02*
X105651950Y-114354761D01*
X105651950Y-114354761D02*
X105690045Y-114316666D01*
X105690045Y-114316666D02*
X105766236Y-114278571D01*
X105766236Y-114278571D02*
X105918617Y-114240476D01*
X105918617Y-114240476D02*
X106109093Y-114240476D01*
X106109093Y-114240476D02*
X106261474Y-114278571D01*
X106261474Y-114278571D02*
X106337664Y-114316666D01*
X106337664Y-114316666D02*
X106375760Y-114354761D01*
X106375760Y-114354761D02*
X106413855Y-114430952D01*
X106413855Y-114430952D02*
X106413855Y-114507142D01*
X106413855Y-114507142D02*
X106375760Y-114583333D01*
X106375760Y-114583333D02*
X106337664Y-114621428D01*
X106337664Y-114621428D02*
X106261474Y-114659523D01*
X106261474Y-114659523D02*
X106109093Y-114697619D01*
X106109093Y-114697619D02*
X105918617Y-114697619D01*
X105918617Y-114697619D02*
X105766236Y-114659523D01*
X105766236Y-114659523D02*
X105690045Y-114621428D01*
X105690045Y-114621428D02*
X105651950Y-114583333D01*
X105651950Y-114583333D02*
X105613855Y-114507142D01*
X102337664Y-114164285D02*
X102375760Y-114202381D01*
X102375760Y-114202381D02*
X102413855Y-114316666D01*
X102413855Y-114316666D02*
X102413855Y-114392857D01*
X102413855Y-114392857D02*
X102375760Y-114507143D01*
X102375760Y-114507143D02*
X102299569Y-114583333D01*
X102299569Y-114583333D02*
X102223379Y-114621428D01*
X102223379Y-114621428D02*
X102070998Y-114659524D01*
X102070998Y-114659524D02*
X101956712Y-114659524D01*
X101956712Y-114659524D02*
X101804331Y-114621428D01*
X101804331Y-114621428D02*
X101728140Y-114583333D01*
X101728140Y-114583333D02*
X101651950Y-114507143D01*
X101651950Y-114507143D02*
X101613855Y-114392857D01*
X101613855Y-114392857D02*
X101613855Y-114316666D01*
X101613855Y-114316666D02*
X101651950Y-114202381D01*
X101651950Y-114202381D02*
X101690045Y-114164285D01*
X101690045Y-113859524D02*
X101651950Y-113821428D01*
X101651950Y-113821428D02*
X101613855Y-113745238D01*
X101613855Y-113745238D02*
X101613855Y-113554762D01*
X101613855Y-113554762D02*
X101651950Y-113478571D01*
X101651950Y-113478571D02*
X101690045Y-113440476D01*
X101690045Y-113440476D02*
X101766236Y-113402381D01*
X101766236Y-113402381D02*
X101842426Y-113402381D01*
X101842426Y-113402381D02*
X101956712Y-113440476D01*
X101956712Y-113440476D02*
X102413855Y-113897619D01*
X102413855Y-113897619D02*
X102413855Y-113402381D01*
X101690045Y-113097619D02*
X101651950Y-113059523D01*
X101651950Y-113059523D02*
X101613855Y-112983333D01*
X101613855Y-112983333D02*
X101613855Y-112792857D01*
X101613855Y-112792857D02*
X101651950Y-112716666D01*
X101651950Y-112716666D02*
X101690045Y-112678571D01*
X101690045Y-112678571D02*
X101766236Y-112640476D01*
X101766236Y-112640476D02*
X101842426Y-112640476D01*
X101842426Y-112640476D02*
X101956712Y-112678571D01*
X101956712Y-112678571D02*
X102413855Y-113135714D01*
X102413855Y-113135714D02*
X102413855Y-112640476D01*
X101613855Y-122964285D02*
X101232902Y-123230952D01*
X101613855Y-123421428D02*
X100813855Y-123421428D01*
X100813855Y-123421428D02*
X100813855Y-123116666D01*
X100813855Y-123116666D02*
X100851950Y-123040476D01*
X100851950Y-123040476D02*
X100890045Y-123002381D01*
X100890045Y-123002381D02*
X100966236Y-122964285D01*
X100966236Y-122964285D02*
X101080521Y-122964285D01*
X101080521Y-122964285D02*
X101156712Y-123002381D01*
X101156712Y-123002381D02*
X101194807Y-123040476D01*
X101194807Y-123040476D02*
X101232902Y-123116666D01*
X101232902Y-123116666D02*
X101232902Y-123421428D01*
X101613855Y-122202381D02*
X101613855Y-122659524D01*
X101613855Y-122430952D02*
X100813855Y-122430952D01*
X100813855Y-122430952D02*
X100928140Y-122507143D01*
X100928140Y-122507143D02*
X101004331Y-122583333D01*
X101004331Y-122583333D02*
X101042426Y-122659524D01*
X100890045Y-121897619D02*
X100851950Y-121859523D01*
X100851950Y-121859523D02*
X100813855Y-121783333D01*
X100813855Y-121783333D02*
X100813855Y-121592857D01*
X100813855Y-121592857D02*
X100851950Y-121516666D01*
X100851950Y-121516666D02*
X100890045Y-121478571D01*
X100890045Y-121478571D02*
X100966236Y-121440476D01*
X100966236Y-121440476D02*
X101042426Y-121440476D01*
X101042426Y-121440476D02*
X101156712Y-121478571D01*
X101156712Y-121478571D02*
X101613855Y-121935714D01*
X101613855Y-121935714D02*
X101613855Y-121440476D01*
X115073855Y-129102475D02*
X114273855Y-129102475D01*
X114273855Y-129102475D02*
X114273855Y-128911999D01*
X114273855Y-128911999D02*
X114311950Y-128797713D01*
X114311950Y-128797713D02*
X114388140Y-128721523D01*
X114388140Y-128721523D02*
X114464331Y-128683428D01*
X114464331Y-128683428D02*
X114616712Y-128645332D01*
X114616712Y-128645332D02*
X114730998Y-128645332D01*
X114730998Y-128645332D02*
X114883379Y-128683428D01*
X114883379Y-128683428D02*
X114959569Y-128721523D01*
X114959569Y-128721523D02*
X115035760Y-128797713D01*
X115035760Y-128797713D02*
X115073855Y-128911999D01*
X115073855Y-128911999D02*
X115073855Y-129102475D01*
X115073855Y-127883428D02*
X115073855Y-128340571D01*
X115073855Y-128111999D02*
X114273855Y-128111999D01*
X114273855Y-128111999D02*
X114388140Y-128188190D01*
X114388140Y-128188190D02*
X114464331Y-128264380D01*
X114464331Y-128264380D02*
X114502426Y-128340571D01*
X101537664Y-107764285D02*
X101575760Y-107802381D01*
X101575760Y-107802381D02*
X101613855Y-107916666D01*
X101613855Y-107916666D02*
X101613855Y-107992857D01*
X101613855Y-107992857D02*
X101575760Y-108107143D01*
X101575760Y-108107143D02*
X101499569Y-108183333D01*
X101499569Y-108183333D02*
X101423379Y-108221428D01*
X101423379Y-108221428D02*
X101270998Y-108259524D01*
X101270998Y-108259524D02*
X101156712Y-108259524D01*
X101156712Y-108259524D02*
X101004331Y-108221428D01*
X101004331Y-108221428D02*
X100928140Y-108183333D01*
X100928140Y-108183333D02*
X100851950Y-108107143D01*
X100851950Y-108107143D02*
X100813855Y-107992857D01*
X100813855Y-107992857D02*
X100813855Y-107916666D01*
X100813855Y-107916666D02*
X100851950Y-107802381D01*
X100851950Y-107802381D02*
X100890045Y-107764285D01*
X100890045Y-107459524D02*
X100851950Y-107421428D01*
X100851950Y-107421428D02*
X100813855Y-107345238D01*
X100813855Y-107345238D02*
X100813855Y-107154762D01*
X100813855Y-107154762D02*
X100851950Y-107078571D01*
X100851950Y-107078571D02*
X100890045Y-107040476D01*
X100890045Y-107040476D02*
X100966236Y-107002381D01*
X100966236Y-107002381D02*
X101042426Y-107002381D01*
X101042426Y-107002381D02*
X101156712Y-107040476D01*
X101156712Y-107040476D02*
X101613855Y-107497619D01*
X101613855Y-107497619D02*
X101613855Y-107002381D01*
X100813855Y-106735714D02*
X100813855Y-106240476D01*
X100813855Y-106240476D02*
X101118617Y-106507142D01*
X101118617Y-106507142D02*
X101118617Y-106392857D01*
X101118617Y-106392857D02*
X101156712Y-106316666D01*
X101156712Y-106316666D02*
X101194807Y-106278571D01*
X101194807Y-106278571D02*
X101270998Y-106240476D01*
X101270998Y-106240476D02*
X101461474Y-106240476D01*
X101461474Y-106240476D02*
X101537664Y-106278571D01*
X101537664Y-106278571D02*
X101575760Y-106316666D01*
X101575760Y-106316666D02*
X101613855Y-106392857D01*
X101613855Y-106392857D02*
X101613855Y-106621428D01*
X101613855Y-106621428D02*
X101575760Y-106697619D01*
X101575760Y-106697619D02*
X101537664Y-106735714D01*
X106190476Y-131645104D02*
X106190476Y-132292723D01*
X106190476Y-132292723D02*
X106228571Y-132368913D01*
X106228571Y-132368913D02*
X106266666Y-132407009D01*
X106266666Y-132407009D02*
X106342857Y-132445104D01*
X106342857Y-132445104D02*
X106495238Y-132445104D01*
X106495238Y-132445104D02*
X106571428Y-132407009D01*
X106571428Y-132407009D02*
X106609523Y-132368913D01*
X106609523Y-132368913D02*
X106647619Y-132292723D01*
X106647619Y-132292723D02*
X106647619Y-131645104D01*
X107447618Y-132445104D02*
X106990475Y-132445104D01*
X107219047Y-132445104D02*
X107219047Y-131645104D01*
X107219047Y-131645104D02*
X107142856Y-131759389D01*
X107142856Y-131759389D02*
X107066666Y-131835580D01*
X107066666Y-131835580D02*
X106990475Y-131873675D01*
X101937664Y-125764285D02*
X101975760Y-125802381D01*
X101975760Y-125802381D02*
X102013855Y-125916666D01*
X102013855Y-125916666D02*
X102013855Y-125992857D01*
X102013855Y-125992857D02*
X101975760Y-126107143D01*
X101975760Y-126107143D02*
X101899569Y-126183333D01*
X101899569Y-126183333D02*
X101823379Y-126221428D01*
X101823379Y-126221428D02*
X101670998Y-126259524D01*
X101670998Y-126259524D02*
X101556712Y-126259524D01*
X101556712Y-126259524D02*
X101404331Y-126221428D01*
X101404331Y-126221428D02*
X101328140Y-126183333D01*
X101328140Y-126183333D02*
X101251950Y-126107143D01*
X101251950Y-126107143D02*
X101213855Y-125992857D01*
X101213855Y-125992857D02*
X101213855Y-125916666D01*
X101213855Y-125916666D02*
X101251950Y-125802381D01*
X101251950Y-125802381D02*
X101290045Y-125764285D01*
X101290045Y-125459524D02*
X101251950Y-125421428D01*
X101251950Y-125421428D02*
X101213855Y-125345238D01*
X101213855Y-125345238D02*
X101213855Y-125154762D01*
X101213855Y-125154762D02*
X101251950Y-125078571D01*
X101251950Y-125078571D02*
X101290045Y-125040476D01*
X101290045Y-125040476D02*
X101366236Y-125002381D01*
X101366236Y-125002381D02*
X101442426Y-125002381D01*
X101442426Y-125002381D02*
X101556712Y-125040476D01*
X101556712Y-125040476D02*
X102013855Y-125497619D01*
X102013855Y-125497619D02*
X102013855Y-125002381D01*
X101480521Y-124316666D02*
X102013855Y-124316666D01*
X101175760Y-124507142D02*
X101747188Y-124697619D01*
X101747188Y-124697619D02*
X101747188Y-124202380D01*
X114826855Y-126274285D02*
X114445902Y-126540952D01*
X114826855Y-126731428D02*
X114026855Y-126731428D01*
X114026855Y-126731428D02*
X114026855Y-126426666D01*
X114026855Y-126426666D02*
X114064950Y-126350476D01*
X114064950Y-126350476D02*
X114103045Y-126312381D01*
X114103045Y-126312381D02*
X114179236Y-126274285D01*
X114179236Y-126274285D02*
X114293521Y-126274285D01*
X114293521Y-126274285D02*
X114369712Y-126312381D01*
X114369712Y-126312381D02*
X114407807Y-126350476D01*
X114407807Y-126350476D02*
X114445902Y-126426666D01*
X114445902Y-126426666D02*
X114445902Y-126731428D01*
X114826855Y-125512381D02*
X114826855Y-125969524D01*
X114826855Y-125740952D02*
X114026855Y-125740952D01*
X114026855Y-125740952D02*
X114141140Y-125817143D01*
X114141140Y-125817143D02*
X114217331Y-125893333D01*
X114217331Y-125893333D02*
X114255426Y-125969524D01*
X114826855Y-124750476D02*
X114826855Y-125207619D01*
X114826855Y-124979047D02*
X114026855Y-124979047D01*
X114026855Y-124979047D02*
X114141140Y-125055238D01*
X114141140Y-125055238D02*
X114217331Y-125131428D01*
X114217331Y-125131428D02*
X114255426Y-125207619D01*
X110090476Y-108891854D02*
X110090476Y-109539473D01*
X110090476Y-109539473D02*
X110128571Y-109615663D01*
X110128571Y-109615663D02*
X110166666Y-109653759D01*
X110166666Y-109653759D02*
X110242857Y-109691854D01*
X110242857Y-109691854D02*
X110395238Y-109691854D01*
X110395238Y-109691854D02*
X110471428Y-109653759D01*
X110471428Y-109653759D02*
X110509523Y-109615663D01*
X110509523Y-109615663D02*
X110547619Y-109539473D01*
X110547619Y-109539473D02*
X110547619Y-108891854D01*
X110852380Y-108891854D02*
X111347618Y-108891854D01*
X111347618Y-108891854D02*
X111080952Y-109196616D01*
X111080952Y-109196616D02*
X111195237Y-109196616D01*
X111195237Y-109196616D02*
X111271428Y-109234711D01*
X111271428Y-109234711D02*
X111309523Y-109272806D01*
X111309523Y-109272806D02*
X111347618Y-109348997D01*
X111347618Y-109348997D02*
X111347618Y-109539473D01*
X111347618Y-109539473D02*
X111309523Y-109615663D01*
X111309523Y-109615663D02*
X111271428Y-109653759D01*
X111271428Y-109653759D02*
X111195237Y-109691854D01*
X111195237Y-109691854D02*
X110966666Y-109691854D01*
X110966666Y-109691854D02*
X110890475Y-109653759D01*
X110890475Y-109653759D02*
X110852380Y-109615663D01*
X105690476Y-133871854D02*
X105690476Y-134519473D01*
X105690476Y-134519473D02*
X105728571Y-134595663D01*
X105728571Y-134595663D02*
X105766666Y-134633759D01*
X105766666Y-134633759D02*
X105842857Y-134671854D01*
X105842857Y-134671854D02*
X105995238Y-134671854D01*
X105995238Y-134671854D02*
X106071428Y-134633759D01*
X106071428Y-134633759D02*
X106109523Y-134595663D01*
X106109523Y-134595663D02*
X106147619Y-134519473D01*
X106147619Y-134519473D02*
X106147619Y-133871854D01*
X106566666Y-134671854D02*
X106719047Y-134671854D01*
X106719047Y-134671854D02*
X106795237Y-134633759D01*
X106795237Y-134633759D02*
X106833333Y-134595663D01*
X106833333Y-134595663D02*
X106909523Y-134481378D01*
X106909523Y-134481378D02*
X106947618Y-134328997D01*
X106947618Y-134328997D02*
X106947618Y-134024235D01*
X106947618Y-134024235D02*
X106909523Y-133948044D01*
X106909523Y-133948044D02*
X106871428Y-133909949D01*
X106871428Y-133909949D02*
X106795237Y-133871854D01*
X106795237Y-133871854D02*
X106642856Y-133871854D01*
X106642856Y-133871854D02*
X106566666Y-133909949D01*
X106566666Y-133909949D02*
X106528571Y-133948044D01*
X106528571Y-133948044D02*
X106490475Y-134024235D01*
X106490475Y-134024235D02*
X106490475Y-134214711D01*
X106490475Y-134214711D02*
X106528571Y-134290901D01*
X106528571Y-134290901D02*
X106566666Y-134328997D01*
X106566666Y-134328997D02*
X106642856Y-134367092D01*
X106642856Y-134367092D02*
X106795237Y-134367092D01*
X106795237Y-134367092D02*
X106871428Y-134328997D01*
X106871428Y-134328997D02*
X106909523Y-134290901D01*
X106909523Y-134290901D02*
X106947618Y-134214711D01*
X104417664Y-122003331D02*
X104455760Y-122041427D01*
X104455760Y-122041427D02*
X104493855Y-122155712D01*
X104493855Y-122155712D02*
X104493855Y-122231903D01*
X104493855Y-122231903D02*
X104455760Y-122346189D01*
X104455760Y-122346189D02*
X104379569Y-122422379D01*
X104379569Y-122422379D02*
X104303379Y-122460474D01*
X104303379Y-122460474D02*
X104150998Y-122498570D01*
X104150998Y-122498570D02*
X104036712Y-122498570D01*
X104036712Y-122498570D02*
X103884331Y-122460474D01*
X103884331Y-122460474D02*
X103808140Y-122422379D01*
X103808140Y-122422379D02*
X103731950Y-122346189D01*
X103731950Y-122346189D02*
X103693855Y-122231903D01*
X103693855Y-122231903D02*
X103693855Y-122155712D01*
X103693855Y-122155712D02*
X103731950Y-122041427D01*
X103731950Y-122041427D02*
X103770045Y-122003331D01*
X104493855Y-121622379D02*
X104493855Y-121469998D01*
X104493855Y-121469998D02*
X104455760Y-121393808D01*
X104455760Y-121393808D02*
X104417664Y-121355712D01*
X104417664Y-121355712D02*
X104303379Y-121279522D01*
X104303379Y-121279522D02*
X104150998Y-121241427D01*
X104150998Y-121241427D02*
X103846236Y-121241427D01*
X103846236Y-121241427D02*
X103770045Y-121279522D01*
X103770045Y-121279522D02*
X103731950Y-121317617D01*
X103731950Y-121317617D02*
X103693855Y-121393808D01*
X103693855Y-121393808D02*
X103693855Y-121546189D01*
X103693855Y-121546189D02*
X103731950Y-121622379D01*
X103731950Y-121622379D02*
X103770045Y-121660474D01*
X103770045Y-121660474D02*
X103846236Y-121698570D01*
X103846236Y-121698570D02*
X104036712Y-121698570D01*
X104036712Y-121698570D02*
X104112902Y-121660474D01*
X104112902Y-121660474D02*
X104150998Y-121622379D01*
X104150998Y-121622379D02*
X104189093Y-121546189D01*
X104189093Y-121546189D02*
X104189093Y-121393808D01*
X104189093Y-121393808D02*
X104150998Y-121317617D01*
X104150998Y-121317617D02*
X104112902Y-121279522D01*
X104112902Y-121279522D02*
X104036712Y-121241427D01*
X101587664Y-135844284D02*
X101625760Y-135882380D01*
X101625760Y-135882380D02*
X101663855Y-135996665D01*
X101663855Y-135996665D02*
X101663855Y-136072856D01*
X101663855Y-136072856D02*
X101625760Y-136187142D01*
X101625760Y-136187142D02*
X101549569Y-136263332D01*
X101549569Y-136263332D02*
X101473379Y-136301427D01*
X101473379Y-136301427D02*
X101320998Y-136339523D01*
X101320998Y-136339523D02*
X101206712Y-136339523D01*
X101206712Y-136339523D02*
X101054331Y-136301427D01*
X101054331Y-136301427D02*
X100978140Y-136263332D01*
X100978140Y-136263332D02*
X100901950Y-136187142D01*
X100901950Y-136187142D02*
X100863855Y-136072856D01*
X100863855Y-136072856D02*
X100863855Y-135996665D01*
X100863855Y-135996665D02*
X100901950Y-135882380D01*
X100901950Y-135882380D02*
X100940045Y-135844284D01*
X100940045Y-135539523D02*
X100901950Y-135501427D01*
X100901950Y-135501427D02*
X100863855Y-135425237D01*
X100863855Y-135425237D02*
X100863855Y-135234761D01*
X100863855Y-135234761D02*
X100901950Y-135158570D01*
X100901950Y-135158570D02*
X100940045Y-135120475D01*
X100940045Y-135120475D02*
X101016236Y-135082380D01*
X101016236Y-135082380D02*
X101092426Y-135082380D01*
X101092426Y-135082380D02*
X101206712Y-135120475D01*
X101206712Y-135120475D02*
X101663855Y-135577618D01*
X101663855Y-135577618D02*
X101663855Y-135082380D01*
X100863855Y-134358570D02*
X100863855Y-134739522D01*
X100863855Y-134739522D02*
X101244807Y-134777618D01*
X101244807Y-134777618D02*
X101206712Y-134739522D01*
X101206712Y-134739522D02*
X101168617Y-134663332D01*
X101168617Y-134663332D02*
X101168617Y-134472856D01*
X101168617Y-134472856D02*
X101206712Y-134396665D01*
X101206712Y-134396665D02*
X101244807Y-134358570D01*
X101244807Y-134358570D02*
X101320998Y-134320475D01*
X101320998Y-134320475D02*
X101511474Y-134320475D01*
X101511474Y-134320475D02*
X101587664Y-134358570D01*
X101587664Y-134358570D02*
X101625760Y-134396665D01*
X101625760Y-134396665D02*
X101663855Y-134472856D01*
X101663855Y-134472856D02*
X101663855Y-134663332D01*
X101663855Y-134663332D02*
X101625760Y-134739522D01*
X101625760Y-134739522D02*
X101587664Y-134777618D01*
X103137664Y-134164285D02*
X103175760Y-134202381D01*
X103175760Y-134202381D02*
X103213855Y-134316666D01*
X103213855Y-134316666D02*
X103213855Y-134392857D01*
X103213855Y-134392857D02*
X103175760Y-134507143D01*
X103175760Y-134507143D02*
X103099569Y-134583333D01*
X103099569Y-134583333D02*
X103023379Y-134621428D01*
X103023379Y-134621428D02*
X102870998Y-134659524D01*
X102870998Y-134659524D02*
X102756712Y-134659524D01*
X102756712Y-134659524D02*
X102604331Y-134621428D01*
X102604331Y-134621428D02*
X102528140Y-134583333D01*
X102528140Y-134583333D02*
X102451950Y-134507143D01*
X102451950Y-134507143D02*
X102413855Y-134392857D01*
X102413855Y-134392857D02*
X102413855Y-134316666D01*
X102413855Y-134316666D02*
X102451950Y-134202381D01*
X102451950Y-134202381D02*
X102490045Y-134164285D01*
X102490045Y-133859524D02*
X102451950Y-133821428D01*
X102451950Y-133821428D02*
X102413855Y-133745238D01*
X102413855Y-133745238D02*
X102413855Y-133554762D01*
X102413855Y-133554762D02*
X102451950Y-133478571D01*
X102451950Y-133478571D02*
X102490045Y-133440476D01*
X102490045Y-133440476D02*
X102566236Y-133402381D01*
X102566236Y-133402381D02*
X102642426Y-133402381D01*
X102642426Y-133402381D02*
X102756712Y-133440476D01*
X102756712Y-133440476D02*
X103213855Y-133897619D01*
X103213855Y-133897619D02*
X103213855Y-133402381D01*
X103213855Y-132640476D02*
X103213855Y-133097619D01*
X103213855Y-132869047D02*
X102413855Y-132869047D01*
X102413855Y-132869047D02*
X102528140Y-132945238D01*
X102528140Y-132945238D02*
X102604331Y-133021428D01*
X102604331Y-133021428D02*
X102642426Y-133097619D01*
X106028571Y-139005355D02*
X106028571Y-138205355D01*
X106028571Y-138205355D02*
X106219047Y-138205355D01*
X106219047Y-138205355D02*
X106333333Y-138243450D01*
X106333333Y-138243450D02*
X106409523Y-138319640D01*
X106409523Y-138319640D02*
X106447618Y-138395831D01*
X106447618Y-138395831D02*
X106485714Y-138548212D01*
X106485714Y-138548212D02*
X106485714Y-138662498D01*
X106485714Y-138662498D02*
X106447618Y-138814879D01*
X106447618Y-138814879D02*
X106409523Y-138891069D01*
X106409523Y-138891069D02*
X106333333Y-138967260D01*
X106333333Y-138967260D02*
X106219047Y-139005355D01*
X106219047Y-139005355D02*
X106028571Y-139005355D01*
X107247618Y-139005355D02*
X106790475Y-139005355D01*
X107019047Y-139005355D02*
X107019047Y-138205355D01*
X107019047Y-138205355D02*
X106942856Y-138319640D01*
X106942856Y-138319640D02*
X106866666Y-138395831D01*
X106866666Y-138395831D02*
X106790475Y-138433926D01*
X108009523Y-139005355D02*
X107552380Y-139005355D01*
X107780952Y-139005355D02*
X107780952Y-138205355D01*
X107780952Y-138205355D02*
X107704761Y-138319640D01*
X107704761Y-138319640D02*
X107628571Y-138395831D01*
X107628571Y-138395831D02*
X107552380Y-138433926D01*
X108976855Y-105920332D02*
X108595902Y-106186999D01*
X108976855Y-106377475D02*
X108176855Y-106377475D01*
X108176855Y-106377475D02*
X108176855Y-106072713D01*
X108176855Y-106072713D02*
X108214950Y-105996523D01*
X108214950Y-105996523D02*
X108253045Y-105958428D01*
X108253045Y-105958428D02*
X108329236Y-105920332D01*
X108329236Y-105920332D02*
X108443521Y-105920332D01*
X108443521Y-105920332D02*
X108519712Y-105958428D01*
X108519712Y-105958428D02*
X108557807Y-105996523D01*
X108557807Y-105996523D02*
X108595902Y-106072713D01*
X108595902Y-106072713D02*
X108595902Y-106377475D01*
X108176855Y-105653666D02*
X108176855Y-105120332D01*
X108176855Y-105120332D02*
X108976855Y-105463190D01*
X109135714Y-112337664D02*
X109097618Y-112375760D01*
X109097618Y-112375760D02*
X108983333Y-112413855D01*
X108983333Y-112413855D02*
X108907142Y-112413855D01*
X108907142Y-112413855D02*
X108792856Y-112375760D01*
X108792856Y-112375760D02*
X108716666Y-112299569D01*
X108716666Y-112299569D02*
X108678571Y-112223379D01*
X108678571Y-112223379D02*
X108640475Y-112070998D01*
X108640475Y-112070998D02*
X108640475Y-111956712D01*
X108640475Y-111956712D02*
X108678571Y-111804331D01*
X108678571Y-111804331D02*
X108716666Y-111728140D01*
X108716666Y-111728140D02*
X108792856Y-111651950D01*
X108792856Y-111651950D02*
X108907142Y-111613855D01*
X108907142Y-111613855D02*
X108983333Y-111613855D01*
X108983333Y-111613855D02*
X109097618Y-111651950D01*
X109097618Y-111651950D02*
X109135714Y-111690045D01*
X109897618Y-112413855D02*
X109440475Y-112413855D01*
X109669047Y-112413855D02*
X109669047Y-111613855D01*
X109669047Y-111613855D02*
X109592856Y-111728140D01*
X109592856Y-111728140D02*
X109516666Y-111804331D01*
X109516666Y-111804331D02*
X109440475Y-111842426D01*
X110278571Y-112413855D02*
X110430952Y-112413855D01*
X110430952Y-112413855D02*
X110507142Y-112375760D01*
X110507142Y-112375760D02*
X110545238Y-112337664D01*
X110545238Y-112337664D02*
X110621428Y-112223379D01*
X110621428Y-112223379D02*
X110659523Y-112070998D01*
X110659523Y-112070998D02*
X110659523Y-111766236D01*
X110659523Y-111766236D02*
X110621428Y-111690045D01*
X110621428Y-111690045D02*
X110583333Y-111651950D01*
X110583333Y-111651950D02*
X110507142Y-111613855D01*
X110507142Y-111613855D02*
X110354761Y-111613855D01*
X110354761Y-111613855D02*
X110278571Y-111651950D01*
X110278571Y-111651950D02*
X110240476Y-111690045D01*
X110240476Y-111690045D02*
X110202380Y-111766236D01*
X110202380Y-111766236D02*
X110202380Y-111956712D01*
X110202380Y-111956712D02*
X110240476Y-112032902D01*
X110240476Y-112032902D02*
X110278571Y-112070998D01*
X110278571Y-112070998D02*
X110354761Y-112109093D01*
X110354761Y-112109093D02*
X110507142Y-112109093D01*
X110507142Y-112109093D02*
X110583333Y-112070998D01*
X110583333Y-112070998D02*
X110621428Y-112032902D01*
X110621428Y-112032902D02*
X110659523Y-111956712D01*
X113263855Y-109533332D02*
X112882902Y-109799999D01*
X113263855Y-109990475D02*
X112463855Y-109990475D01*
X112463855Y-109990475D02*
X112463855Y-109685713D01*
X112463855Y-109685713D02*
X112501950Y-109609523D01*
X112501950Y-109609523D02*
X112540045Y-109571428D01*
X112540045Y-109571428D02*
X112616236Y-109533332D01*
X112616236Y-109533332D02*
X112730521Y-109533332D01*
X112730521Y-109533332D02*
X112806712Y-109571428D01*
X112806712Y-109571428D02*
X112844807Y-109609523D01*
X112844807Y-109609523D02*
X112882902Y-109685713D01*
X112882902Y-109685713D02*
X112882902Y-109990475D01*
X112463855Y-108847618D02*
X112463855Y-108999999D01*
X112463855Y-108999999D02*
X112501950Y-109076190D01*
X112501950Y-109076190D02*
X112540045Y-109114285D01*
X112540045Y-109114285D02*
X112654331Y-109190475D01*
X112654331Y-109190475D02*
X112806712Y-109228571D01*
X112806712Y-109228571D02*
X113111474Y-109228571D01*
X113111474Y-109228571D02*
X113187664Y-109190475D01*
X113187664Y-109190475D02*
X113225760Y-109152380D01*
X113225760Y-109152380D02*
X113263855Y-109076190D01*
X113263855Y-109076190D02*
X113263855Y-108923809D01*
X113263855Y-108923809D02*
X113225760Y-108847618D01*
X113225760Y-108847618D02*
X113187664Y-108809523D01*
X113187664Y-108809523D02*
X113111474Y-108771428D01*
X113111474Y-108771428D02*
X112920998Y-108771428D01*
X112920998Y-108771428D02*
X112844807Y-108809523D01*
X112844807Y-108809523D02*
X112806712Y-108847618D01*
X112806712Y-108847618D02*
X112768617Y-108923809D01*
X112768617Y-108923809D02*
X112768617Y-109076190D01*
X112768617Y-109076190D02*
X112806712Y-109152380D01*
X112806712Y-109152380D02*
X112844807Y-109190475D01*
X112844807Y-109190475D02*
X112920998Y-109228571D01*
X115073855Y-123598475D02*
X114273855Y-123598475D01*
X114273855Y-123598475D02*
X114273855Y-123407999D01*
X114273855Y-123407999D02*
X114311950Y-123293713D01*
X114311950Y-123293713D02*
X114388140Y-123217523D01*
X114388140Y-123217523D02*
X114464331Y-123179428D01*
X114464331Y-123179428D02*
X114616712Y-123141332D01*
X114616712Y-123141332D02*
X114730998Y-123141332D01*
X114730998Y-123141332D02*
X114883379Y-123179428D01*
X114883379Y-123179428D02*
X114959569Y-123217523D01*
X114959569Y-123217523D02*
X115035760Y-123293713D01*
X115035760Y-123293713D02*
X115073855Y-123407999D01*
X115073855Y-123407999D02*
X115073855Y-123598475D01*
X114350045Y-122836571D02*
X114311950Y-122798475D01*
X114311950Y-122798475D02*
X114273855Y-122722285D01*
X114273855Y-122722285D02*
X114273855Y-122531809D01*
X114273855Y-122531809D02*
X114311950Y-122455618D01*
X114311950Y-122455618D02*
X114350045Y-122417523D01*
X114350045Y-122417523D02*
X114426236Y-122379428D01*
X114426236Y-122379428D02*
X114502426Y-122379428D01*
X114502426Y-122379428D02*
X114616712Y-122417523D01*
X114616712Y-122417523D02*
X115073855Y-122874666D01*
X115073855Y-122874666D02*
X115073855Y-122379428D01*
X105213855Y-144183332D02*
X104832902Y-144449999D01*
X105213855Y-144640475D02*
X104413855Y-144640475D01*
X104413855Y-144640475D02*
X104413855Y-144335713D01*
X104413855Y-144335713D02*
X104451950Y-144259523D01*
X104451950Y-144259523D02*
X104490045Y-144221428D01*
X104490045Y-144221428D02*
X104566236Y-144183332D01*
X104566236Y-144183332D02*
X104680521Y-144183332D01*
X104680521Y-144183332D02*
X104756712Y-144221428D01*
X104756712Y-144221428D02*
X104794807Y-144259523D01*
X104794807Y-144259523D02*
X104832902Y-144335713D01*
X104832902Y-144335713D02*
X104832902Y-144640475D01*
X105213855Y-143802380D02*
X105213855Y-143649999D01*
X105213855Y-143649999D02*
X105175760Y-143573809D01*
X105175760Y-143573809D02*
X105137664Y-143535713D01*
X105137664Y-143535713D02*
X105023379Y-143459523D01*
X105023379Y-143459523D02*
X104870998Y-143421428D01*
X104870998Y-143421428D02*
X104566236Y-143421428D01*
X104566236Y-143421428D02*
X104490045Y-143459523D01*
X104490045Y-143459523D02*
X104451950Y-143497618D01*
X104451950Y-143497618D02*
X104413855Y-143573809D01*
X104413855Y-143573809D02*
X104413855Y-143726190D01*
X104413855Y-143726190D02*
X104451950Y-143802380D01*
X104451950Y-143802380D02*
X104490045Y-143840475D01*
X104490045Y-143840475D02*
X104566236Y-143878571D01*
X104566236Y-143878571D02*
X104756712Y-143878571D01*
X104756712Y-143878571D02*
X104832902Y-143840475D01*
X104832902Y-143840475D02*
X104870998Y-143802380D01*
X104870998Y-143802380D02*
X104909093Y-143726190D01*
X104909093Y-143726190D02*
X104909093Y-143573809D01*
X104909093Y-143573809D02*
X104870998Y-143497618D01*
X104870998Y-143497618D02*
X104832902Y-143459523D01*
X104832902Y-143459523D02*
X104756712Y-143421428D01*
X109166666Y-119463855D02*
X108785714Y-119463855D01*
X108785714Y-119463855D02*
X108785714Y-118663855D01*
X109852380Y-119463855D02*
X109395237Y-119463855D01*
X109623809Y-119463855D02*
X109623809Y-118663855D01*
X109623809Y-118663855D02*
X109547618Y-118778140D01*
X109547618Y-118778140D02*
X109471428Y-118854331D01*
X109471428Y-118854331D02*
X109395237Y-118892426D01*
X111117664Y-133552283D02*
X111155760Y-133590379D01*
X111155760Y-133590379D02*
X111193855Y-133704664D01*
X111193855Y-133704664D02*
X111193855Y-133780855D01*
X111193855Y-133780855D02*
X111155760Y-133895141D01*
X111155760Y-133895141D02*
X111079569Y-133971331D01*
X111079569Y-133971331D02*
X111003379Y-134009426D01*
X111003379Y-134009426D02*
X110850998Y-134047522D01*
X110850998Y-134047522D02*
X110736712Y-134047522D01*
X110736712Y-134047522D02*
X110584331Y-134009426D01*
X110584331Y-134009426D02*
X110508140Y-133971331D01*
X110508140Y-133971331D02*
X110431950Y-133895141D01*
X110431950Y-133895141D02*
X110393855Y-133780855D01*
X110393855Y-133780855D02*
X110393855Y-133704664D01*
X110393855Y-133704664D02*
X110431950Y-133590379D01*
X110431950Y-133590379D02*
X110470045Y-133552283D01*
X111193855Y-132790379D02*
X111193855Y-133247522D01*
X111193855Y-133018950D02*
X110393855Y-133018950D01*
X110393855Y-133018950D02*
X110508140Y-133095141D01*
X110508140Y-133095141D02*
X110584331Y-133171331D01*
X110584331Y-133171331D02*
X110622426Y-133247522D01*
X110660521Y-132104664D02*
X111193855Y-132104664D01*
X110355760Y-132295140D02*
X110927188Y-132485617D01*
X110927188Y-132485617D02*
X110927188Y-131990378D01*
X106733333Y-144103855D02*
X106733333Y-144675283D01*
X106733333Y-144675283D02*
X106695238Y-144789569D01*
X106695238Y-144789569D02*
X106619047Y-144865760D01*
X106619047Y-144865760D02*
X106504762Y-144903855D01*
X106504762Y-144903855D02*
X106428571Y-144903855D01*
X107076190Y-144180045D02*
X107114286Y-144141950D01*
X107114286Y-144141950D02*
X107190476Y-144103855D01*
X107190476Y-144103855D02*
X107380952Y-144103855D01*
X107380952Y-144103855D02*
X107457143Y-144141950D01*
X107457143Y-144141950D02*
X107495238Y-144180045D01*
X107495238Y-144180045D02*
X107533333Y-144256236D01*
X107533333Y-144256236D02*
X107533333Y-144332426D01*
X107533333Y-144332426D02*
X107495238Y-144446712D01*
X107495238Y-144446712D02*
X107038095Y-144903855D01*
X107038095Y-144903855D02*
X107533333Y-144903855D01*
%TO.C,D10*%
D11*
X105460000Y-111290000D02*
X105460000Y-109510000D01*
D12*
X105570000Y-111800000D02*
G75*
G02*
X105510000Y-111800000I-30000J0D01*
G01*
X105510000Y-111800000D02*
G75*
G02*
X105570000Y-111800000I30000J0D01*
G01*
%TO.C,U6*%
D11*
X101450000Y-118687999D02*
X101450000Y-119647999D01*
X103150000Y-117637999D02*
X101450000Y-117637999D01*
X103150000Y-120697999D02*
X101450000Y-120697999D01*
D13*
X103590000Y-120817999D02*
G75*
G02*
X103290000Y-120817999I-150000J0D01*
G01*
X103290000Y-120817999D02*
G75*
G02*
X103590000Y-120817999I150000J0D01*
G01*
D12*
X103700000Y-120587999D02*
G75*
G02*
X103640000Y-120587999I-30000J0D01*
G01*
X103640000Y-120587999D02*
G75*
G02*
X103700000Y-120587999I30000J0D01*
G01*
%TO.C,U10*%
D14*
X101650000Y-141764000D02*
X101650000Y-139964000D01*
X104750000Y-141764000D02*
X104750000Y-139964000D01*
D12*
X104680000Y-139464000D02*
G75*
G02*
X104620000Y-139464000I-30000J0D01*
G01*
X104620000Y-139464000D02*
G75*
G02*
X104680000Y-139464000I30000J0D01*
G01*
D14*
X104970000Y-139464000D02*
G75*
G02*
X104730000Y-139464000I-120000J0D01*
G01*
X104730000Y-139464000D02*
G75*
G02*
X104970000Y-139464000I120000J0D01*
G01*
%TO.C,D1*%
X111900000Y-127112000D02*
X111900000Y-128212000D01*
X111900000Y-129982000D02*
X111900000Y-128712000D01*
X112200000Y-126812000D02*
X111900000Y-127112000D01*
X112600000Y-128602000D02*
X112600000Y-128392000D01*
X113000000Y-126812000D02*
X112200000Y-126812000D01*
X113000000Y-128602000D02*
X112220000Y-128602000D01*
X113300000Y-127112000D02*
X113000000Y-126812000D01*
X113300000Y-128212000D02*
X113300000Y-127112000D01*
X113300000Y-128712000D02*
X113300000Y-129982000D01*
X113300000Y-129982000D02*
X111900000Y-129982000D01*
D15*
X113050000Y-129312000D02*
G75*
G02*
X112950000Y-129312000I-50000J0D01*
G01*
X112950000Y-129312000D02*
G75*
G02*
X113050000Y-129312000I50000J0D01*
G01*
%TO.C,U1*%
D14*
X103200000Y-123500000D02*
X103200000Y-123970000D01*
X103200000Y-130230000D02*
X103200000Y-130700000D01*
X103200000Y-130700000D02*
X103670000Y-130700000D01*
X103600000Y-123500000D02*
X103200000Y-123500000D01*
X103670000Y-123500000D02*
X103600000Y-123500000D01*
X109930000Y-130700000D02*
X110400000Y-130700000D01*
X110400000Y-123500000D02*
X109930000Y-123500000D01*
X110400000Y-123970000D02*
X110400000Y-123500000D01*
X110400000Y-130700000D02*
X110400000Y-130230000D01*
X102740000Y-123540000D02*
G75*
G02*
X102480000Y-123540000I-130000J0D01*
G01*
X102480000Y-123540000D02*
G75*
G02*
X102740000Y-123540000I130000J0D01*
G01*
D12*
X103330000Y-123600000D02*
G75*
G02*
X103270000Y-123600000I-30000J0D01*
G01*
X103270000Y-123600000D02*
G75*
G02*
X103330000Y-123600000I30000J0D01*
G01*
%TO.C,U3*%
D16*
X108560000Y-113177999D02*
X108960000Y-113177999D01*
X108560000Y-113577999D02*
X108560000Y-113177999D01*
X108560000Y-117477999D02*
X108560000Y-117077999D01*
X108960000Y-117477999D02*
X108560000Y-117477999D01*
X112860000Y-113177999D02*
X112460000Y-113177999D01*
X112860000Y-113577999D02*
X112860000Y-113177999D01*
X112860000Y-117077999D02*
X112860000Y-117477999D01*
X112860000Y-117477999D02*
X112460000Y-117477999D01*
D15*
X108750000Y-117327999D02*
G75*
G02*
X108650000Y-117327999I-50000J0D01*
G01*
X108650000Y-117327999D02*
G75*
G02*
X108750000Y-117327999I50000J0D01*
G01*
D17*
%TO.C,U9*%
D14*
X105200000Y-135747999D02*
X105200000Y-137147999D01*
X107400000Y-135747999D02*
X107400000Y-137147999D01*
X105130000Y-137587999D02*
G75*
G02*
X104870000Y-137587999I-130000J0D01*
G01*
X104870000Y-137587999D02*
G75*
G02*
X105130000Y-137587999I130000J0D01*
G01*
D12*
X105330000Y-137497999D02*
G75*
G02*
X105270000Y-137497999I-30000J0D01*
G01*
X105270000Y-137497999D02*
G75*
G02*
X105330000Y-137497999I30000J0D01*
G01*
%TO.C,U5*%
D11*
X101450000Y-109920000D02*
X101450000Y-110880000D01*
X103150000Y-108870000D02*
X101450000Y-108870000D01*
X103150000Y-111930000D02*
X101450000Y-111930000D01*
D13*
X103590000Y-112050000D02*
G75*
G02*
X103290000Y-112050000I-150000J0D01*
G01*
X103290000Y-112050000D02*
G75*
G02*
X103590000Y-112050000I150000J0D01*
G01*
D12*
X103700000Y-111820000D02*
G75*
G02*
X103640000Y-111820000I-30000J0D01*
G01*
X103640000Y-111820000D02*
G75*
G02*
X103700000Y-111820000I30000J0D01*
G01*
%TO.C,U2*%
D11*
X108470000Y-138318000D02*
X108470000Y-138818000D01*
X108470000Y-140978000D02*
X108470000Y-140478000D01*
X108720000Y-138318000D02*
X108470000Y-138318000D01*
X108720000Y-140978000D02*
X108470000Y-140978000D01*
X110880000Y-138318000D02*
X111130000Y-138318000D01*
X110880000Y-140978000D02*
X111130000Y-140978000D01*
X111130000Y-138318000D02*
X111130000Y-138818000D01*
X111130000Y-140978000D02*
X111130000Y-140478000D01*
D12*
X111080000Y-140898000D02*
G75*
G02*
X111020000Y-140898000I-30000J0D01*
G01*
X111020000Y-140898000D02*
G75*
G02*
X111080000Y-140898000I30000J0D01*
G01*
D11*
X111610000Y-140148000D02*
G75*
G02*
X111450000Y-140148000I-80000J0D01*
G01*
X111450000Y-140148000D02*
G75*
G02*
X111610000Y-140148000I80000J0D01*
G01*
%TO.C,D11*%
X105460000Y-142074000D02*
X105460000Y-140294000D01*
X108540000Y-142074000D02*
X108540000Y-140294000D01*
D13*
X105480000Y-142484000D02*
G75*
G02*
X105180000Y-142484000I-150000J0D01*
G01*
X105180000Y-142484000D02*
G75*
G02*
X105480000Y-142484000I150000J0D01*
G01*
D12*
X105570000Y-142584000D02*
G75*
G02*
X105510000Y-142584000I-30000J0D01*
G01*
X105510000Y-142584000D02*
G75*
G02*
X105570000Y-142584000I30000J0D01*
G01*
%TO.C,U8*%
D14*
X102830000Y-137587999D02*
G75*
G02*
X102570000Y-137587999I-130000J0D01*
G01*
X102570000Y-137587999D02*
G75*
G02*
X102830000Y-137587999I130000J0D01*
G01*
%TO.C,D2*%
X111900000Y-121608000D02*
X111900000Y-122708000D01*
X111900000Y-124478000D02*
X111900000Y-123208000D01*
X112200000Y-121308000D02*
X111900000Y-121608000D01*
X112600000Y-123098000D02*
X112600000Y-122888000D01*
X113000000Y-121308000D02*
X112200000Y-121308000D01*
X113000000Y-123098000D02*
X112220000Y-123098000D01*
X113300000Y-121608000D02*
X113000000Y-121308000D01*
X113300000Y-122708000D02*
X113300000Y-121608000D01*
X113300000Y-123208000D02*
X113300000Y-124478000D01*
X113300000Y-124478000D02*
X111900000Y-124478000D01*
D15*
X113050000Y-123808000D02*
G75*
G02*
X112950000Y-123808000I-50000J0D01*
G01*
X112950000Y-123808000D02*
G75*
G02*
X113050000Y-123808000I50000J0D01*
G01*
%TO.C,L1*%
D14*
X109030000Y-120200000D02*
X109570000Y-120200000D01*
X109030000Y-121800000D02*
X109570000Y-121800000D01*
D12*
X108330000Y-121800000D02*
G75*
G02*
X108270000Y-121800000I-30000J0D01*
G01*
X108270000Y-121800000D02*
G75*
G02*
X108330000Y-121800000I30000J0D01*
G01*
D14*
X110330000Y-119900000D02*
G75*
G02*
X110070000Y-119900000I-130000J0D01*
G01*
X110070000Y-119900000D02*
G75*
G02*
X110330000Y-119900000I130000J0D01*
G01*
%TO.C,J2*%
X102530000Y-151250000D02*
X102530000Y-149380000D01*
X102530000Y-154960000D02*
X102530000Y-153480000D01*
X111470000Y-151250000D02*
X111470000Y-149380000D01*
X111470000Y-154960000D02*
X102530000Y-154960000D01*
X111470000Y-154960000D02*
X111470000Y-153480000D01*
D12*
X111510000Y-147110000D02*
G75*
G02*
X111450000Y-147110000I-30000J0D01*
G01*
X111450000Y-147110000D02*
G75*
G02*
X111510000Y-147110000I30000J0D01*
G01*
%TD*%
M02*
