M48
; DRILL file KiCad 10.0.4 date 2026-07-20T18:38:35
; FORMAT={-:-/ absolute / metric / decimal}
; #@! TF.CreationDate,2026-07-20T18:38:35-04:00
; #@! TF.GenerationSoftware,Kicad,Pcbnew,10.0.4
; #@! TF.FileFunction,MixedPlating,1,6
FMAT,2
METRIC
; #@! TA.AperFunction,Plated,PTH,ViaDrill
T1C0.150
; #@! TA.AperFunction,Plated,PTH,ComponentDrill
T2C0.800
; #@! TA.AperFunction,NonPlated,NPTH,ComponentDrill
T3C0.750
; #@! TA.AperFunction,NonPlated,NPTH,ComponentDrill
T4C0.991
%
G90
G05
T1
X100.67Y-111.53
X100.9Y-141.716
X100.99Y-131.008
X101.0Y-139.536
X101.35Y-137.95
X101.475Y-117.68
X101.95Y-104.95
X101.95Y-107.95
X101.95Y-113.95
X101.95Y-116.95
X101.95Y-134.95
X101.95Y-137.95
X101.95Y-140.95
X101.95Y-146.95
X101.95Y-149.95
X102.1Y-111.4
X102.3Y-116.582
X102.3Y-129.62
X102.35Y-130.045
X102.4Y-130.9
X102.67Y-128.285
X102.85Y-121.56
X102.866Y-124.023
X103.0Y-112.0
X103.06Y-110.625
X103.096Y-137.769
X103.175Y-128.32
X103.2Y-139.514
X103.45Y-119.168
X103.48Y-138.95
X103.615Y-136.48
X103.797Y-120.405
X103.8Y-107.56
X103.8Y-147.4
X103.9Y-123.7
X103.9Y-142.05
X103.911Y-124.691
X104.14Y-135.4
X104.15Y-132.2
X104.26Y-141.34
X104.35Y-125.95
X104.35Y-129.1
X104.5Y-115.45
X104.6Y-129.97
X104.65Y-107.5
X104.65Y-136.15
X104.65Y-147.55
X104.8Y-131.4
X104.85Y-128.28
X104.95Y-101.95
X104.95Y-104.95
X104.95Y-110.95
X104.95Y-113.95
X104.95Y-149.95
X104.95Y-152.95
X105.1Y-141.916
X105.16Y-125.08
X105.2Y-120.38
X105.25Y-147.25
X105.396Y-137.769
X105.55Y-145.15
X105.625Y-137.45
X105.65Y-118.245
X105.978Y-117.71
X106.0Y-130.69
X106.0Y-140.05
X106.0Y-146.05
X106.05Y-134.05
X106.15Y-129.85
X106.2Y-137.03
X106.38Y-130.33
X106.5Y-124.5
X106.506Y-123.093
X106.6Y-108.85
X106.6Y-118.502
X106.675Y-145.097
X106.75Y-121.6
X106.75Y-147.4
X106.8Y-123.08
X106.8Y-125.005
X106.904Y-110.656
X107.0Y-120.88
X107.048Y-143.178
X107.05Y-135.1
X107.05Y-137.05
X107.05Y-138.1
X107.085Y-131.46
X107.092Y-119.09
X107.1Y-129.665
X107.108Y-117.42
X107.2Y-123.7
X107.2Y-130.6
X107.201Y-117.811
X107.22Y-124.5
X107.25Y-127.1
X107.35Y-109.0
X107.446Y-120.143
X107.475Y-132.74
X107.511Y-113.941
X107.535Y-121.875
X107.6Y-131.09
X107.615Y-133.69
X107.65Y-122.95
X107.85Y-113.63
X107.95Y-129.1
X107.95Y-101.95
X107.95Y-104.95
X107.95Y-137.45
X107.95Y-149.95
X107.95Y-152.95
X108.0Y-123.525
X108.189Y-138.161
X108.25Y-121.0
X108.25Y-136.9
X108.25Y-147.4
X108.4Y-141.55
X108.446Y-122.882
X108.55Y-119.2
X108.6Y-129.96
X108.62Y-139.648
X108.7Y-129.1
X108.7Y-132.7
X108.82Y-130.75
X108.85Y-124.15
X108.91Y-128.505
X109.03Y-134.67
X109.03Y-136.873
X109.07Y-139.148
X109.15Y-108.4
X109.15Y-138.1
X109.171Y-130.476
X109.2Y-123.53
X109.3Y-125.08
X109.3Y-126.37
X109.3Y-129.57
X109.365Y-132.171
X109.402Y-133.672
X109.45Y-147.4
X109.45Y-109.83
X109.534Y-131.695
X109.55Y-138.1
X109.565Y-130.79
X109.6Y-118.0
X109.6Y-127.0
X109.8Y-139.648
X109.85Y-127.92
X109.875Y-136.611
X109.9Y-137.15
X110.0Y-138.38
X110.02Y-142.97
X110.05Y-116.178
X110.05Y-130.3
X110.2Y-107.56
X110.2Y-147.4
X110.233Y-129.493
X110.35Y-118.6
X110.45Y-139.25
X110.5Y-113.5
X110.5Y-117.4
X110.65Y-131.35
X110.71Y-115.328
X110.734Y-124.023
X110.754Y-124.449
X110.93Y-127.1
X110.95Y-117.85
X110.95Y-101.95
X110.95Y-104.95
X110.95Y-107.95
X110.95Y-110.95
X110.95Y-113.95
X110.95Y-122.95
X110.95Y-132.5
X110.95Y-140.95
X110.95Y-143.95
X110.95Y-146.95
X110.95Y-149.95
X110.95Y-152.95
X111.15Y-130.662
X111.2Y-129.372
X111.275Y-120.296
X111.288Y-126.188
X111.406Y-128.066
X111.472Y-118.702
X111.5Y-121.744
X111.5Y-124.048
X111.8Y-114.478
X111.85Y-127.6
X111.9Y-131.548
X111.9Y-132.838
X112.02Y-119.232
X112.6Y-121.544
X112.6Y-123.07
X112.6Y-132.144
X112.9Y-113.8
X112.9Y-114.55
X112.95Y-138.85
X113.2Y-115.15
X113.205Y-139.5
X113.95Y-101.95
X113.95Y-104.95
X113.95Y-107.95
X113.95Y-110.95
X113.95Y-116.95
X113.95Y-119.95
X113.95Y-122.95
X113.95Y-125.95
X113.95Y-128.95
X113.95Y-131.95
X113.95Y-140.95
X113.95Y-143.95
X113.95Y-146.95
X113.95Y-149.95
X113.95Y-152.95
T3
X104.1Y-106.3
X104.1Y-148.66
X109.9Y-106.3
X109.9Y-148.66
T4
X110.984Y-136.34
X112.0Y-141.42
X113.016Y-136.34
T2
X102.67Y-102.92G85X102.67Y-102.32
G05
X102.67Y-107.2G85X102.67Y-106.4
G05
X102.67Y-147.76G85X102.67Y-148.56
G05
X102.67Y-152.04G85X102.67Y-152.64
G05
X111.33Y-102.92G85X111.33Y-102.32
G05
X111.33Y-107.2G85X111.33Y-106.4
G05
X111.33Y-147.76G85X111.33Y-148.56
G05
X111.33Y-152.04G85X111.33Y-152.64
G05
M30
