%TF.GenerationSoftware,KiCad,Pcbnew,10.0.4*%
%TF.CreationDate,2026-07-20T18:38:35-04:00*%
%TF.ProjectId,dongle-lite,646f6e67-6c65-42d6-9c69-74652e6b6963,rev?*%
%TF.SameCoordinates,Original*%
%TF.FileFunction,Copper,L1,Top*%
%TF.FilePolarity,Positive*%
%FSLAX46Y46*%
G04 Gerber Fmt 4.6, Leading zero omitted, Abs format (unit mm)*
G04 Created by KiCad (PCBNEW 10.0.4) date 2026-07-20 18:38:35*
%MOMM*%
%LPD*%
G01*
G04 APERTURE LIST*
G04 Aperture macros list*
%AMFreePoly0*
4,1,15,0.335278,0.685443,0.349923,0.650088,0.349923,-0.615000,0.335278,-0.650355,0.299923,-0.665000,-0.300050,-0.665000,-0.335405,-0.650355,-0.350050,-0.615000,-0.350050,0.649935,-0.335405,0.685290,-0.300050,0.699935,-0.000445,0.699935,-0.000076,0.700088,0.299923,0.700088,0.335278,0.685443,0.335278,0.685443,$1*%
%AMFreePoly1*
4,1,17,0.335431,0.685290,0.350076,0.649935,0.350076,-0.650037,0.335431,-0.685392,0.300076,-0.700037,0.000187,-0.700037,0.000127,-0.700062,-0.299898,-0.700062,-0.335253,-0.685417,-0.349898,-0.650062,-0.349898,0.649910,-0.335253,0.685265,-0.299898,0.699910,-0.000009,0.699910,0.000051,0.699935,0.300076,0.699935,0.335431,0.685290,0.335431,0.685290,$1*%
%AMFreePoly2*
4,1,13,0.335227,0.685443,0.349872,0.650088,0.349872,-0.615000,0.335227,-0.650355,0.299872,-0.665000,-0.300152,-0.665000,-0.335507,-0.650355,-0.350152,-0.615000,-0.350152,0.650088,-0.335507,0.685443,-0.300152,0.700088,0.299872,0.700088,0.335227,0.685443,0.335227,0.685443,$1*%
%AMFreePoly3*
4,1,13,0.335227,0.685443,0.349872,0.650088,0.349872,-0.649884,0.335227,-0.685239,0.299872,-0.699884,-0.300152,-0.699884,-0.335507,-0.685239,-0.350152,-0.649884,-0.350152,0.650088,-0.335507,0.685443,-0.300152,0.700088,0.299872,0.700088,0.335227,0.685443,0.335227,0.685443,$1*%
G04 Aperture macros list end*
%TA.AperFunction,SMDPad,CuDef*%
%ADD10R,0.540000X0.566000*%
%TD*%
%TA.AperFunction,SMDPad,CuDef*%
%ADD11R,0.532000X1.072000*%
%TD*%
%TA.AperFunction,SMDPad,CuDef*%
%ADD12R,0.566000X0.540000*%
%TD*%
%TA.AperFunction,SMDPad,CuDef*%
%ADD13R,0.540000X0.500000*%
%TD*%
%TA.AperFunction,SMDPad,CuDef*%
%ADD14R,0.500000X0.540000*%
%TD*%
%TA.AperFunction,SMDPad,CuDef*%
%ADD15R,1.157000X0.490000*%
%TD*%
%TA.AperFunction,SMDPad,CuDef*%
%ADD16R,1.175000X0.490000*%
%TD*%
%TA.AperFunction,SMDPad,CuDef*%
%ADD17R,0.600000X1.100000*%
%TD*%
%TA.AperFunction,SMDPad,CuDef*%
%ADD18R,0.864000X0.806000*%
%TD*%
%TA.AperFunction,SMDPad,CuDef*%
%ADD19R,1.350000X1.410000*%
%TD*%
%TA.AperFunction,SMDPad,CuDef*%
%ADD20R,0.800000X0.800000*%
%TD*%
%TA.AperFunction,SMDPad,CuDef*%
%ADD21R,0.875000X0.200000*%
%TD*%
%TA.AperFunction,SMDPad,CuDef*%
%ADD22R,0.200000X0.875000*%
%TD*%
%TA.AperFunction,SMDPad,CuDef*%
%ADD23R,3.400000X3.400000*%
%TD*%
%TA.AperFunction,ComponentPad*%
%ADD24O,1.200000X2.000000*%
%TD*%
%TA.AperFunction,ComponentPad*%
%ADD25O,1.200000X1.800000*%
%TD*%
%TA.AperFunction,SMDPad,CuDef*%
%ADD26FreePoly0,180.000000*%
%TD*%
%TA.AperFunction,SMDPad,CuDef*%
%ADD27FreePoly1,180.000000*%
%TD*%
%TA.AperFunction,SMDPad,CuDef*%
%ADD28R,0.300000X1.300000*%
%TD*%
%TA.AperFunction,SMDPad,CuDef*%
%ADD29FreePoly2,180.000000*%
%TD*%
%TA.AperFunction,SMDPad,CuDef*%
%ADD30FreePoly3,180.000000*%
%TD*%
%TA.AperFunction,SMDPad,CuDef*%
%ADD31O,0.280000X0.700000*%
%TD*%
%TA.AperFunction,SMDPad,CuDef*%
%ADD32O,0.700000X0.280000*%
%TD*%
%TA.AperFunction,SMDPad,CuDef*%
%ADD33R,2.800000X2.800000*%
%TD*%
%TA.AperFunction,SMDPad,CuDef*%
%ADD34R,0.400000X0.800000*%
%TD*%
%TA.AperFunction,SMDPad,CuDef*%
%ADD35R,0.505000X0.280000*%
%TD*%
%TA.AperFunction,SMDPad,CuDef*%
%ADD36R,0.280000X0.505000*%
%TD*%
%TA.AperFunction,SMDPad,CuDef*%
%ADD37R,1.375000X1.375000*%
%TD*%
%TA.AperFunction,SMDPad,CuDef*%
%ADD38R,1.000000X1.600000*%
%TD*%
%TA.AperFunction,SMDPad,CuDef*%
%ADD39FreePoly0,0.000000*%
%TD*%
%TA.AperFunction,SMDPad,CuDef*%
%ADD40FreePoly1,0.000000*%
%TD*%
%TA.AperFunction,SMDPad,CuDef*%
%ADD41FreePoly2,0.000000*%
%TD*%
%TA.AperFunction,SMDPad,CuDef*%
%ADD42FreePoly3,0.000000*%
%TD*%
%TA.AperFunction,ViaPad*%
%ADD43C,0.300000*%
%TD*%
%TA.AperFunction,Conductor*%
%ADD44C,0.120000*%
%TD*%
%TA.AperFunction,Conductor*%
%ADD45C,0.150000*%
%TD*%
G04 APERTURE END LIST*
D10*
%TO.P,R1,1,1_1*%
%TO.N,RUN*%
X102300000Y-130930000D03*
%TO.P,R1,2,2_2*%
%TO.N,+3V3*%
X102300000Y-130070000D03*
%TD*%
D11*
%TO.P,D10,1,1_1*%
%TO.N,HOST_D_P*%
X106050000Y-111550000D03*
%TO.P,D10,2,2_2*%
%TO.N,GND*%
X107000000Y-111550000D03*
%TO.P,D10,3,3_3*%
%TO.N,HOST_D_N*%
X107950000Y-111550000D03*
%TO.P,D10,4,4_4*%
X107950000Y-109250000D03*
%TO.P,D10,5,5_5*%
%TO.N,+5V*%
X107000000Y-109250000D03*
%TO.P,D10,6,6_6*%
%TO.N,HOST_D_P*%
X106050000Y-109250000D03*
%TD*%
D12*
%TO.P,R5,1,1_1*%
%TO.N,HUB_RSTB*%
X111820000Y-120448000D03*
%TO.P,R5,2,2_2*%
%TO.N,HUB_3V3*%
X112680000Y-120448000D03*
%TD*%
D13*
%TO.P,C6,1,1_1*%
%TO.N,+3V3*%
X107600000Y-119720000D03*
%TO.P,C6,2,2_2*%
%TO.N,GND*%
X107600000Y-118880000D03*
%TD*%
%TO.P,C17,1,1_1*%
%TO.N,+5V*%
X107300000Y-114467999D03*
%TO.P,C17,2,2_2*%
%TO.N,GND*%
X107300000Y-113627999D03*
%TD*%
D14*
%TO.P,C18,1,1_1*%
%TO.N,HUB_3V3*%
X111180000Y-119232000D03*
%TO.P,C18,2,2_2*%
%TO.N,GND*%
X112020000Y-119232000D03*
%TD*%
D15*
%TO.P,U6,1,IN_1*%
%TO.N,+3V3*%
X103450000Y-120117999D03*
%TO.P,U6,2,GND_2*%
%TO.N,GND*%
X103450000Y-119167999D03*
%TO.P,U6,3,EN_3*%
%TO.N,SHIFT_EN*%
X103450000Y-118217999D03*
D16*
%TO.P,U6,4,NC_4*%
%TO.N,unconnected-(U6-NC-Pad4)*%
X101150000Y-118217999D03*
%TO.P,U6,5,OUT_5*%
%TO.N,+1V2*%
X101150000Y-120117999D03*
%TD*%
D17*
%TO.P,U10,1,IN_1*%
%TO.N,+5V*%
X104150000Y-139514000D03*
%TO.P,U10,2,GND_2*%
%TO.N,GND*%
X103200000Y-139514000D03*
%TO.P,U10,3,EN/~{EN}_3*%
%TO.N,TGT_VBUS_EN*%
X102250000Y-139514000D03*
%TO.P,U10,4,~{FAULT}_4*%
%TO.N,Net-(U10-~{FAULT})*%
X102250000Y-142214000D03*
%TO.P,U10,5,ILIM_5*%
%TO.N,Net-(U10-ILIM)*%
X103200000Y-142214000D03*
%TO.P,U10,6,OUT_6*%
%TO.N,TGT_VBUS*%
X104150000Y-142214000D03*
%TD*%
D18*
%TO.P,R8,1,1_1*%
%TO.N,Net-(U10-ILIM)*%
X101300000Y-144238000D03*
%TO.P,R8,2,2_2*%
%TO.N,GND*%
X101300000Y-142738000D03*
%TD*%
D13*
%TO.P,C20,1,1_1*%
%TO.N,+3V3*%
X106600000Y-118052000D03*
%TO.P,C20,2,2_2*%
%TO.N,GND*%
X106600000Y-117212000D03*
%TD*%
D19*
%TO.P,C22,1,1_1*%
%TO.N,+5V*%
X104550000Y-115240000D03*
%TO.P,C22,2,2_2*%
%TO.N,GND*%
X104550000Y-113240000D03*
%TD*%
D10*
%TO.P,R12,1,1_1*%
%TO.N,+3V3*%
X105200000Y-119630000D03*
%TO.P,R12,2,2_2*%
%TO.N,Net-(U1-VREG_AVDD)*%
X105200000Y-118770000D03*
%TD*%
D20*
%TO.P,D1,1,A_1*%
%TO.N,Net-(D1-A)*%
X112600000Y-129262000D03*
%TO.P,D1,2,K_2*%
%TO.N,GND*%
X112600000Y-127762000D03*
%TD*%
D13*
%TO.P,C23,1,1_1*%
%TO.N,+3V3*%
X102300000Y-116132000D03*
%TO.P,C23,2,2_2*%
%TO.N,GND*%
X102300000Y-115292000D03*
%TD*%
D21*
%TO.P,U1,1,IOVDD_1*%
%TO.N,+3V3*%
X103220000Y-124300000D03*
%TO.P,U1,2,GPIO0_2*%
%TO.N,unconnected-(U1-GPIO0-Pad2)*%
X103220000Y-124700000D03*
%TO.P,U1,3,GPIO1_3*%
%TO.N,unconnected-(U1-GPIO1-Pad3)*%
X103220000Y-125100000D03*
%TO.P,U1,4,GPIO2_4*%
%TO.N,unconnected-(U1-GPIO2-Pad4)*%
X103220000Y-125500000D03*
%TO.P,U1,5,GPIO3_5*%
%TO.N,unconnected-(U1-GPIO3-Pad5)*%
X103220000Y-125900000D03*
%TO.P,U1,6,DVDD_6*%
%TO.N,+1V1*%
X103220000Y-126300000D03*
%TO.P,U1,7,GPIO4_7*%
%TO.N,unconnected-(U1-GPIO4-Pad7)*%
X103220000Y-126700000D03*
%TO.P,U1,8,GPIO5_8*%
%TO.N,unconnected-(U1-GPIO5-Pad8)*%
X103220000Y-127100000D03*
%TO.P,U1,9,GPIO6_9*%
%TO.N,unconnected-(U1-GPIO6-Pad9)*%
X103220000Y-127500000D03*
%TO.P,U1,10,GPIO7_10*%
%TO.N,unconnected-(U1-GPIO7-Pad10)*%
X103220000Y-127900000D03*
%TO.P,U1,11,IOVDD_11*%
%TO.N,+3V3*%
X103220000Y-128300000D03*
%TO.P,U1,12,GPIO8_12*%
%TO.N,unconnected-(U1-GPIO8-Pad12)*%
X103220000Y-128700000D03*
%TO.P,U1,13,GPIO9_13*%
%TO.N,unconnected-(U1-GPIO9-Pad13)*%
X103220000Y-129100000D03*
%TO.P,U1,14,GPIO10_14*%
%TO.N,unconnected-(U1-GPIO10-Pad14)*%
X103220000Y-129500000D03*
%TO.P,U1,15,GPIO11_15*%
%TO.N,unconnected-(U1-GPIO11-Pad15)*%
X103220000Y-129900000D03*
D22*
%TO.P,U1,16,GPIO12_16*%
%TO.N,unconnected-(U1-GPIO12-Pad16)*%
X104000000Y-130670000D03*
%TO.P,U1,17,GPIO13_17*%
%TO.N,unconnected-(U1-GPIO13-Pad17)*%
X104400000Y-130670000D03*
%TO.P,U1,18,GPIO14_18*%
%TO.N,unconnected-(U1-GPIO14-Pad18)*%
X104800000Y-130670000D03*
%TO.P,U1,19,GPIO15_19*%
%TO.N,unconnected-(U1-GPIO15-Pad19)*%
X105200000Y-130670000D03*
%TO.P,U1,20,IOVDD_20*%
%TO.N,+3V3*%
X105600000Y-130670000D03*
%TO.P,U1,21,XIN_21*%
%TO.N,Net-(U1-XIN)*%
X106000000Y-130670000D03*
%TO.P,U1,22,XOUT_22*%
%TO.N,Net-(U1-XOUT)*%
X106400000Y-130670000D03*
%TO.P,U1,23,DVDD_23*%
%TO.N,+1V1*%
X106800000Y-130670000D03*
%TO.P,U1,24,SWCLK_24*%
%TO.N,SWCLK*%
X107200000Y-130670000D03*
%TO.P,U1,25,SWDIO_25*%
%TO.N,SWDIO*%
X107600000Y-130670000D03*
%TO.P,U1,26,RUN_26*%
%TO.N,RUN*%
X108000000Y-130670000D03*
%TO.P,U1,27,GPIO16_27*%
%TO.N,I2C_SDA*%
X108400000Y-130670000D03*
%TO.P,U1,28,GPIO17_28*%
%TO.N,I2C_SCL*%
X108800000Y-130670000D03*
%TO.P,U1,29,GPIO18_29*%
%TO.N,FUSB_INT*%
X109200000Y-130670000D03*
%TO.P,U1,30,IOVDD_30*%
%TO.N,+3V3*%
X109600000Y-130670000D03*
D21*
%TO.P,U1,31,GPIO19_31*%
%TO.N,TGT_VBUS_EN*%
X110380000Y-129900000D03*
%TO.P,U1,32,GPIO20_32*%
%TO.N,SBU1_DIR*%
X110380000Y-129500000D03*
%TO.P,U1,33,GPIO21_33*%
%TO.N,SBU2_DIR*%
X110380000Y-129100000D03*
%TO.P,U1,34,GPIO22_34*%
%TO.N,SBU1_UART*%
X110380000Y-128700000D03*
%TO.P,U1,35,GPIO23_35*%
%TO.N,SBU2_UART*%
X110380000Y-128300000D03*
%TO.P,U1,36,GPIO24_36*%
%TO.N,SHIFT_EN*%
X110380000Y-127900000D03*
%TO.P,U1,37,GPIO25_37*%
%TO.N,LED_STAT*%
X110380000Y-127500000D03*
%TO.P,U1,38,IOVDD_38*%
%TO.N,+3V3*%
X110380000Y-127100000D03*
%TO.P,U1,39,DVDD_39*%
%TO.N,+1V1*%
X110380000Y-126700000D03*
%TO.P,U1,40,GPIO26_ADC0_40*%
%TO.N,unconnected-(U1-GPIO26_ADC0-Pad40)*%
X110380000Y-126300000D03*
%TO.P,U1,41,GPIO27_ADC1_41*%
%TO.N,unconnected-(U1-GPIO27_ADC1-Pad41)*%
X110380000Y-125900000D03*
%TO.P,U1,42,GPIO28_ADC2_42*%
%TO.N,unconnected-(U1-GPIO28_ADC2-Pad42)*%
X110380000Y-125500000D03*
%TO.P,U1,43,GPIO29_ADC3_43*%
%TO.N,unconnected-(U1-GPIO29_ADC3-Pad43)*%
X110380000Y-125100000D03*
%TO.P,U1,44,ADC_AVDD_44*%
%TO.N,+3V3*%
X110380000Y-124700000D03*
%TO.P,U1,45,IOVDD_45*%
X110380000Y-124300000D03*
D22*
%TO.P,U1,46,VREG_AVDD_46*%
%TO.N,Net-(U1-VREG_AVDD)*%
X109600000Y-123530000D03*
%TO.P,U1,47,VREG_PGND_47*%
%TO.N,GND*%
X109200000Y-123530000D03*
%TO.P,U1,48,VREG_LX_48*%
%TO.N,VREG_LX*%
X108800000Y-123530000D03*
%TO.P,U1,49,VREG_VIN_49*%
%TO.N,+3V3*%
X108400000Y-123530000D03*
%TO.P,U1,50,VREG_FB_50*%
%TO.N,+1V1*%
X108000000Y-123530000D03*
%TO.P,U1,51,USB_DM_51*%
%TO.N,MCU_D_N*%
X107600000Y-123530000D03*
%TO.P,U1,52,USB_DP_52*%
%TO.N,MCU_D_P*%
X107200000Y-123530000D03*
%TO.P,U1,53,USB_OTP_VDD_53*%
%TO.N,+3V3*%
X106800000Y-123530000D03*
%TO.P,U1,54,QSPI_IOVDD_54*%
X106400000Y-123530000D03*
%TO.P,U1,55,QSPI_SD3_55*%
%TO.N,unconnected-(U1-QSPI_SD3-Pad55)*%
X106000000Y-123530000D03*
%TO.P,U1,56,QSPI_SCLK_56*%
%TO.N,unconnected-(U1-QSPI_SCLK-Pad56)*%
X105600000Y-123530000D03*
%TO.P,U1,57,QSPI_SD0_57*%
%TO.N,unconnected-(U1-QSPI_SD0-Pad57)*%
X105200000Y-123530000D03*
%TO.P,U1,58,QSPI_SD2_58*%
%TO.N,unconnected-(U1-QSPI_SD2-Pad58)*%
X104800000Y-123530000D03*
%TO.P,U1,59,QSPI_SD1_59*%
%TO.N,unconnected-(U1-QSPI_SD1-Pad59)*%
X104400000Y-123530000D03*
%TO.P,U1,60,QSPI_SS_60*%
%TO.N,Net-(U1-QSPI_SS)*%
X104000000Y-123530000D03*
D23*
%TO.P,U1,61,GND_61*%
%TO.N,GND*%
X106800000Y-127100000D03*
%TD*%
D13*
%TO.P,C24,1,1_1*%
%TO.N,+1V2*%
X102300000Y-122404000D03*
%TO.P,C24,2,2_2*%
%TO.N,GND*%
X102300000Y-121564000D03*
%TD*%
D24*
%TO.P,J1,1,EH_1*%
%TO.N,GND*%
X102670000Y-106800000D03*
D25*
%TO.P,J1,2,EH_2*%
X102670000Y-102620000D03*
%TO.P,J1,3,EH_3*%
X111330000Y-102620000D03*
D24*
%TO.P,J1,4,EH_4*%
X111330000Y-106800000D03*
D26*
%TO.P,J1,A1B12,GND_A1B12*%
X110200000Y-107560000D03*
D27*
%TO.P,J1,A4B9,VBUS_A4B9*%
%TO.N,+5V*%
X109400000Y-107560000D03*
D28*
%TO.P,J1,A5,CC1_A5*%
%TO.N,HOST_CC1*%
X108250000Y-107560000D03*
%TO.P,J1,A6,DP1_A6*%
%TO.N,HOST_D_P*%
X107250000Y-107560000D03*
%TO.P,J1,A7,DN1_A7*%
%TO.N,HOST_D_N*%
X106750000Y-107560000D03*
%TO.P,J1,A8,SBU1_A8*%
%TO.N,unconnected-(J1-SBU1-PadA8)*%
X105750000Y-107560000D03*
D29*
%TO.P,J1,B1A12,GND_B1A12*%
%TO.N,GND*%
X103800000Y-107560000D03*
D30*
%TO.P,J1,B4A9,VBUS_B4A9*%
%TO.N,+5V*%
X104600000Y-107560000D03*
D28*
%TO.P,J1,B5,CC2_B5*%
%TO.N,HOST_CC2*%
X105250000Y-107560000D03*
%TO.P,J1,B6,DP2_B6*%
%TO.N,HOST_D_P*%
X106250000Y-107560000D03*
%TO.P,J1,B7,DN2_B7*%
%TO.N,HOST_D_N*%
X107750000Y-107560000D03*
%TO.P,J1,B8,SBU2_B8*%
%TO.N,unconnected-(J1-SBU2-PadB8)*%
X108750000Y-107560000D03*
%TD*%
D13*
%TO.P,C13,1,1_1*%
%TO.N,+3V3*%
X111200000Y-130212000D03*
%TO.P,C13,2,2_2*%
%TO.N,GND*%
X111200000Y-129372000D03*
%TD*%
D10*
%TO.P,R11,1,1_1*%
%TO.N,LED_STAT*%
X112600000Y-126190000D03*
%TO.P,R11,2,2_2*%
%TO.N,Net-(D2-A)*%
X112600000Y-125330000D03*
%TD*%
D13*
%TO.P,C7,1,1_1*%
%TO.N,+1V1*%
X107000000Y-121720000D03*
%TO.P,C7,2,2_2*%
%TO.N,GND*%
X107000000Y-120880000D03*
%TD*%
D31*
%TO.P,U3,1,~{OVCUR}_1*%
%TO.N,HUB_3V3*%
X109450000Y-117327999D03*
%TO.P,U3,2,NC._2*%
%TO.N,unconnected-(U3-NC.-Pad2)*%
X109950000Y-117327999D03*
%TO.P,U3,3,XO_3*%
%TO.N,HUB_XO*%
X110450000Y-117327999D03*
%TO.P,U3,4,XI_4*%
%TO.N,HUB_XI*%
X110950000Y-117327999D03*
%TO.P,U3,5,DM4_5*%
%TO.N,unconnected-(U3-DM4-Pad5)*%
X111450000Y-117327999D03*
%TO.P,U3,6,DP4_6*%
%TO.N,unconnected-(U3-DP4-Pad6)*%
X111950000Y-117327999D03*
D32*
%TO.P,U3,7,DM3_7*%
%TO.N,unconnected-(U3-DM3-Pad7)*%
X112700000Y-116577999D03*
%TO.P,U3,8,DP3_8*%
%TO.N,unconnected-(U3-DP3-Pad8)*%
X112700000Y-116077999D03*
%TO.P,U3,9,DM2_9*%
%TO.N,TGT_D_N*%
X112700000Y-115577999D03*
%TO.P,U3,10,DP2_10*%
%TO.N,TGT_D_P*%
X112700000Y-115077999D03*
%TO.P,U3,11,DM1_11*%
%TO.N,MCU_D_N*%
X112700000Y-114577999D03*
%TO.P,U3,12,DP1_12*%
%TO.N,MCU_D_P*%
X112700000Y-114077999D03*
D31*
%TO.P,U3,13,LED3/SCL_13*%
%TO.N,unconnected-(U3-LED3{slash}SCL-Pad13)*%
X111950000Y-113327999D03*
%TO.P,U3,14,DMU_14*%
%TO.N,HOST_D_N*%
X111450000Y-113327999D03*
%TO.P,U3,15,DPU_15*%
%TO.N,HOST_D_P*%
X110950000Y-113327999D03*
%TO.P,U3,16,~{RESET}/CDP_16*%
%TO.N,HUB_RSTB*%
X110450000Y-113327999D03*
%TO.P,U3,17,NC_17*%
%TO.N,unconnected-(U3-NC-Pad17)*%
X109950000Y-113327999D03*
%TO.P,U3,18,PSELF_18*%
%TO.N,GND*%
X109450000Y-113327999D03*
D32*
%TO.P,U3,19,V5_19*%
%TO.N,+5V*%
X108700000Y-114077999D03*
%TO.P,U3,20,VDD33_20*%
%TO.N,HUB_3V3*%
X108700000Y-114577999D03*
%TO.P,U3,21,LED4/SDA_21*%
%TO.N,unconnected-(U3-LED4{slash}SDA-Pad21)*%
X108700000Y-115077999D03*
%TO.P,U3,22,LED1_22*%
%TO.N,unconnected-(U3-LED1-Pad22)*%
X108700000Y-115577999D03*
%TO.P,U3,23,LED2_23*%
%TO.N,unconnected-(U3-LED2-Pad23)*%
X108700000Y-116077999D03*
%TO.P,U3,24,~{PWREN}_24*%
%TO.N,unconnected-(U3-~{PWREN}-Pad24)*%
X108700000Y-116577999D03*
D33*
%TO.P,U3,25,GND_25*%
%TO.N,GND*%
X110710000Y-115327999D03*
%TD*%
D34*
%TO.P,U9,1,VCC(A)_1*%
%TO.N,+3V3*%
X105650000Y-137397999D03*
%TO.P,U9,2,GND_2*%
%TO.N,GND*%
X106300000Y-137397999D03*
%TO.P,U9,3,A_3*%
%TO.N,SBU2_UART*%
X106950000Y-137397999D03*
%TO.P,U9,4,B_4*%
%TO.N,TGT_SBU2*%
X106950000Y-135497999D03*
%TO.P,U9,5,DIR_5*%
%TO.N,SBU2_DIR*%
X106300000Y-135497999D03*
%TO.P,U9,6,VCC(B)_6*%
%TO.N,+1V2*%
X105650000Y-135497999D03*
%TD*%
D10*
%TO.P,R10,1,1_1*%
%TO.N,+3V3*%
X112600000Y-131694000D03*
%TO.P,R10,2,2_2*%
%TO.N,Net-(D1-A)*%
X112600000Y-130834000D03*
%TD*%
D13*
%TO.P,C26,1,1_1*%
%TO.N,TGT_VBUS*%
X105100000Y-142755999D03*
%TO.P,C26,2,2_2*%
%TO.N,GND*%
X105100000Y-141915999D03*
%TD*%
%TO.P,C9,1,1_1*%
%TO.N,Net-(U1-VREG_AVDD)*%
X105200000Y-121220000D03*
%TO.P,C9,2,2_2*%
%TO.N,GND*%
X105200000Y-120380000D03*
%TD*%
%TO.P,C25,1,1_1*%
%TO.N,+5V*%
X101300000Y-138020000D03*
%TO.P,C25,2,2_2*%
%TO.N,GND*%
X101300000Y-137180000D03*
%TD*%
%TO.P,C21,1,1_1*%
%TO.N,+1V2*%
X102400000Y-136996000D03*
%TO.P,C21,2,2_2*%
%TO.N,GND*%
X102400000Y-136156000D03*
%TD*%
D15*
%TO.P,U5,1,VIN_1*%
%TO.N,+5V*%
X103450000Y-111350000D03*
%TO.P,U5,2,GND_2*%
%TO.N,GND*%
X103450000Y-110400000D03*
%TO.P,U5,3,EN_3*%
%TO.N,+5V*%
X103450000Y-109450000D03*
D16*
%TO.P,U5,4,NC_4*%
%TO.N,unconnected-(U5-NC-Pad4)*%
X101150000Y-109450000D03*
%TO.P,U5,5,VOUT_5*%
%TO.N,+3V3*%
X101150000Y-111350000D03*
%TD*%
D35*
%TO.P,U2,1,CC2_1*%
%TO.N,TGT_CC2*%
X110980000Y-140148000D03*
%TO.P,U2,2,VBUS_2*%
%TO.N,unconnected-(U2-VBUS-Pad2)*%
X110980000Y-139648000D03*
%TO.P,U2,3,VDD_3*%
%TO.N,+3V3*%
X110980000Y-139148000D03*
D36*
%TO.P,U2,4,VDD_4*%
X110550000Y-138468000D03*
%TO.P,U2,5,INT_N_5*%
%TO.N,FUSB_INT*%
X110050000Y-138468000D03*
%TO.P,U2,6,SCL_6*%
%TO.N,I2C_SCL*%
X109550000Y-138468000D03*
%TO.P,U2,7,SDA_7*%
%TO.N,I2C_SDA*%
X109050000Y-138468000D03*
D35*
%TO.P,U2,8,GND_8*%
%TO.N,GND*%
X108620000Y-139148000D03*
%TO.P,U2,9,GND_9*%
X108620000Y-139648000D03*
%TO.P,U2,10,CC1_10*%
%TO.N,TGT_CC1*%
X108620000Y-140148000D03*
D36*
%TO.P,U2,11,CC1_11*%
X109050000Y-140828000D03*
%TO.P,U2,12,VCONN_12*%
%TO.N,unconnected-(U2-VCONN-Pad12)*%
X109550000Y-140828000D03*
%TO.P,U2,13,VCONN_13*%
%TO.N,unconnected-(U2-VCONN-Pad13)*%
X110050000Y-140828000D03*
%TO.P,U2,14,CC2_14*%
%TO.N,TGT_CC2*%
X110550000Y-140828000D03*
D37*
%TO.P,U2,15,EP_15*%
%TO.N,GND*%
X109800000Y-139648000D03*
%TD*%
D11*
%TO.P,D11,1,1_1*%
%TO.N,TGT_D_P*%
X106050000Y-142334000D03*
%TO.P,D11,2,2_2*%
%TO.N,GND*%
X107000000Y-142334000D03*
%TO.P,D11,3,3_3*%
%TO.N,TGT_D_N*%
X107950000Y-142334000D03*
%TO.P,D11,4,4_4*%
X107950000Y-140034000D03*
%TO.P,D11,5,5_5*%
%TO.N,TGT_VBUS*%
X107000000Y-140034000D03*
%TO.P,D11,6,6_6*%
%TO.N,TGT_D_P*%
X106050000Y-140034000D03*
%TD*%
D10*
%TO.P,R7,1,1_1*%
%TO.N,HOST_CC2*%
X105000000Y-108970000D03*
%TO.P,R7,2,2_2*%
%TO.N,GND*%
X105000000Y-109830000D03*
%TD*%
D34*
%TO.P,U8,1,VCC(A)_1*%
%TO.N,+3V3*%
X103350000Y-137397999D03*
%TO.P,U8,2,GND_2*%
%TO.N,GND*%
X104000000Y-137397999D03*
%TO.P,U8,3,A_3*%
%TO.N,SBU1_UART*%
X104650000Y-137397999D03*
%TO.P,U8,4,B_4*%
%TO.N,TGT_SBU1*%
X104650000Y-135497999D03*
%TO.P,U8,5,DIR_5*%
%TO.N,SBU1_DIR*%
X104000000Y-135497999D03*
%TO.P,U8,6,VCC(B)_6*%
%TO.N,+1V2*%
X103350000Y-135497999D03*
%TD*%
D14*
%TO.P,C19,1,1_1*%
%TO.N,HUB_3V3*%
X104630000Y-117503999D03*
%TO.P,C19,2,2_2*%
%TO.N,GND*%
X105470000Y-117503999D03*
%TD*%
D10*
%TO.P,R6,1,1_1*%
%TO.N,HOST_CC1*%
X108900000Y-108970000D03*
%TO.P,R6,2,2_2*%
%TO.N,GND*%
X108900000Y-109830000D03*
%TD*%
D20*
%TO.P,D2,1,A_1*%
%TO.N,Net-(D2-A)*%
X112600000Y-123758000D03*
%TO.P,D2,2,K_2*%
%TO.N,GND*%
X112600000Y-122258000D03*
%TD*%
D10*
%TO.P,R9,1,1_1*%
%TO.N,Net-(U10-~{FAULT})*%
X101000000Y-140846000D03*
%TO.P,R9,2,2_2*%
%TO.N,+3V3*%
X101000000Y-139986000D03*
%TD*%
D38*
%TO.P,L1,1,1_1*%
%TO.N,VREG_LX*%
X108300000Y-121000000D03*
%TO.P,L1,2,2_2*%
%TO.N,+1V1*%
X110300000Y-121000000D03*
%TD*%
D13*
%TO.P,C14,1,1_1*%
%TO.N,+3V3*%
X111900000Y-132387999D03*
%TO.P,C14,2,2_2*%
%TO.N,GND*%
X111900000Y-131547999D03*
%TD*%
D24*
%TO.P,J2,1,EH_1*%
%TO.N,GND*%
X111330000Y-148160000D03*
D25*
%TO.P,J2,2,EH_2*%
X111330000Y-152340000D03*
%TO.P,J2,3,EH_3*%
X102670000Y-152340000D03*
D24*
%TO.P,J2,4,EH_4*%
X102670000Y-148160000D03*
D39*
%TO.P,J2,A1B12,GND_A1B12*%
X103800000Y-147400000D03*
D40*
%TO.P,J2,A4B9,VBUS_A4B9*%
%TO.N,TGT_VBUS*%
X104600000Y-147400000D03*
D28*
%TO.P,J2,A5,CC1_A5*%
%TO.N,TGT_CC1*%
X105750000Y-147400000D03*
%TO.P,J2,A6,DP1_A6*%
%TO.N,TGT_D_P*%
X106750000Y-147400000D03*
%TO.P,J2,A7,DN1_A7*%
%TO.N,TGT_D_N*%
X107250000Y-147400000D03*
%TO.P,J2,A8,SBU1_A8*%
%TO.N,TGT_SBU1*%
X108250000Y-147400000D03*
D41*
%TO.P,J2,B1A12,GND_B1A12*%
%TO.N,GND*%
X110200000Y-147400000D03*
D42*
%TO.P,J2,B4A9,VBUS_B4A9*%
%TO.N,TGT_VBUS*%
X109400000Y-147400000D03*
D28*
%TO.P,J2,B5,CC2_B5*%
%TO.N,TGT_CC2*%
X108750000Y-147400000D03*
%TO.P,J2,B6,DP2_B6*%
%TO.N,TGT_D_P*%
X107750000Y-147400000D03*
%TO.P,J2,B7,DN2_B7*%
%TO.N,TGT_D_N*%
X106250000Y-147400000D03*
%TO.P,J2,B8,SBU2_B8*%
%TO.N,TGT_SBU2*%
X105250000Y-147400000D03*
%TD*%
D43*
%TO.N,RUN*%
X102399999Y-130899999D03*
X106149999Y-129850000D03*
X107949999Y-129100000D03*
X109030000Y-134670000D03*
X109365142Y-132171153D03*
%TO.N,+3V3*%
X113205000Y-139500000D03*
X107445695Y-120142717D03*
X109300000Y-129569999D03*
X102865539Y-124022768D03*
X112600000Y-132143999D03*
X101000000Y-139536000D03*
X111900000Y-132837999D03*
X102300000Y-129620000D03*
X108446330Y-122881653D03*
X111150000Y-130661999D03*
X109900000Y-137150000D03*
X103095892Y-137769387D03*
X107950000Y-137450000D03*
X106506275Y-123092729D03*
X102300000Y-116582000D03*
X101475000Y-117680000D03*
X102670194Y-128285385D03*
X106600000Y-118502000D03*
X106800000Y-123080000D03*
X110930000Y-127100000D03*
X109300000Y-126370000D03*
X102350000Y-130044999D03*
X100670000Y-111530000D03*
X111500000Y-124048000D03*
X109030000Y-136873038D03*
X105395892Y-137769387D03*
X106500000Y-124500000D03*
X110753778Y-124449421D03*
X112600000Y-121544000D03*
X103796932Y-120404595D03*
X104600000Y-129970000D03*
X111500000Y-121744000D03*
X110734460Y-124022768D03*
X109564999Y-130789999D03*
X105625000Y-137450000D03*
X103175000Y-128320000D03*
%TO.N,GND*%
X103911091Y-124691091D03*
X110950000Y-113950000D03*
X113950000Y-119950000D03*
X110450000Y-139250000D03*
X110710000Y-115327999D03*
X104950000Y-152950000D03*
X107201040Y-117811040D03*
X104950000Y-101950000D03*
X107091866Y-119090475D03*
X109875499Y-136610526D03*
X106200000Y-137030000D03*
X108910288Y-128504999D03*
X107850000Y-113630000D03*
X101950000Y-140950000D03*
X104950000Y-110950000D03*
X113950000Y-131949999D03*
X111405575Y-128066228D03*
X103480384Y-138950000D03*
X105200000Y-120380000D03*
X113950000Y-110950000D03*
X110950000Y-149950000D03*
X111900000Y-131547999D03*
X103614890Y-136479679D03*
X104950000Y-104950000D03*
X111200000Y-129372000D03*
X104149999Y-132199999D03*
X113950000Y-104950000D03*
X101950000Y-116950000D03*
X112020000Y-119232000D03*
X110950000Y-152950000D03*
X110200000Y-147400000D03*
X107108133Y-117420475D03*
X106050000Y-134050000D03*
X110950000Y-110950000D03*
X101950000Y-134950000D03*
X110050000Y-116177999D03*
X113950000Y-152950000D03*
X107950000Y-104950000D03*
X101950000Y-104950000D03*
X108620000Y-139648000D03*
X113950000Y-101950000D03*
X103450000Y-119167999D03*
X107950000Y-149950000D03*
X104850000Y-128280000D03*
X103200000Y-139514000D03*
X110950000Y-101950000D03*
X113950000Y-107950000D03*
X110950000Y-143950000D03*
X102850000Y-121560000D03*
X106675500Y-145096643D03*
X110950000Y-104950000D03*
X113950000Y-140950000D03*
X110950000Y-122950000D03*
X101950000Y-149950000D03*
X113950000Y-128949999D03*
X107220000Y-124500000D03*
X107250000Y-127100000D03*
X101950000Y-146950000D03*
X109200000Y-123530000D03*
X101950000Y-113950000D03*
X107950000Y-152950000D03*
X107475000Y-132739711D03*
X105100000Y-141915999D03*
X113950000Y-122950000D03*
X113950000Y-143950000D03*
X107950000Y-101950000D03*
X104950000Y-149950000D03*
X110950000Y-132500000D03*
X113950000Y-125950000D03*
X103060288Y-110625000D03*
X111800000Y-114477999D03*
X103800000Y-107560000D03*
X109300000Y-125080000D03*
X113950000Y-149950000D03*
X110200000Y-107560000D03*
X106904095Y-110656073D03*
X105978133Y-117710475D03*
X100900500Y-141716134D03*
X101950000Y-107950000D03*
X104950000Y-113950000D03*
X110950000Y-146950000D03*
X107000000Y-120880000D03*
X110950000Y-140950000D03*
X113950000Y-116950000D03*
X109800000Y-139648000D03*
X110950000Y-107950000D03*
X113950000Y-146950000D03*
X103800000Y-147400000D03*
X109450000Y-109830000D03*
X107511091Y-113941091D03*
X100989524Y-131008133D03*
X101950000Y-137950000D03*
X109070000Y-139148000D03*
%TO.N,+5V*%
X109149999Y-108399999D03*
X106600000Y-108850000D03*
X104500000Y-115449999D03*
X102100000Y-111399999D03*
X101350000Y-137950000D03*
X104649999Y-107500000D03*
X107350000Y-109000000D03*
%TO.N,HUB_RSTB*%
X109600000Y-118000000D03*
X110500000Y-113500000D03*
%TO.N,HUB_3V3*%
X111274721Y-120296084D03*
X111471880Y-118701880D03*
%TO.N,SHIFT_EN*%
X109850000Y-127920000D03*
X105650000Y-118245000D03*
%TO.N,+1V2*%
X103000000Y-112000000D03*
%TO.N,TGT_VBUS_EN*%
X110649999Y-131350000D03*
X107050000Y-138100000D03*
%TO.N,TGT_VBUS*%
X104649999Y-147549999D03*
X109449999Y-147399999D03*
X103900000Y-142050000D03*
%TO.N,+1V1*%
X106800000Y-125005000D03*
X104350000Y-129100000D03*
X104350000Y-125949999D03*
X107534999Y-121875000D03*
X111850000Y-127600000D03*
X106750000Y-121600000D03*
X108000000Y-123525000D03*
X104800000Y-131400000D03*
X108550000Y-119199999D03*
X109600000Y-127000000D03*
%TO.N,Net-(U1-XIN)*%
X106000000Y-130690000D03*
%TO.N,Net-(U1-XOUT)*%
X107100000Y-129664999D03*
X106380000Y-130329999D03*
X107614999Y-133690000D03*
%TO.N,SWCLK*%
X107199999Y-130600000D03*
X112950000Y-138850000D03*
X108250000Y-136899999D03*
%TO.N,SWDIO*%
X107600000Y-131089999D03*
%TO.N,I2C_SDA*%
X108699999Y-132699999D03*
X109149999Y-138100000D03*
X110050000Y-130299999D03*
%TO.N,I2C_SCL*%
X109401880Y-133671880D03*
X108820000Y-130750000D03*
X109550000Y-138100000D03*
X109534242Y-131695431D03*
X108188725Y-138161274D03*
X112600000Y-123070000D03*
%TO.N,FUSB_INT*%
X111288118Y-126188118D03*
X109170701Y-130475845D03*
X110000000Y-138380000D03*
%TO.N,SBU1_DIR*%
X104140000Y-135400000D03*
X110233118Y-129493118D03*
%TO.N,SBU2_DIR*%
X108600000Y-129959999D03*
X107085000Y-131459999D03*
%TO.N,SBU2_UART*%
X108699999Y-129100000D03*
X107050000Y-137049999D03*
%TO.N,VREG_LX*%
X108250000Y-121000000D03*
X108850000Y-124149999D03*
%TO.N,MCU_D_N*%
X107649999Y-122949999D03*
X112899999Y-114550000D03*
%TO.N,MCU_D_P*%
X107199999Y-123699999D03*
X112899999Y-113800000D03*
%TO.N,Net-(U1-QSPI_SS)*%
X103899999Y-123699999D03*
%TO.N,HUB_XO*%
X110500000Y-117399999D03*
%TO.N,HUB_XI*%
X110350000Y-118600000D03*
X110949999Y-117850000D03*
%TO.N,TGT_D_P*%
X113199999Y-115149999D03*
X106000000Y-140049999D03*
X106000000Y-146049999D03*
X106750000Y-147399999D03*
%TO.N,TGT_SBU2*%
X105250000Y-147250000D03*
X107050000Y-135100000D03*
%TO.N,TGT_CC1*%
X108399999Y-141549999D03*
X105550000Y-145149999D03*
%TO.N,TGT_SBU1*%
X104649999Y-136149999D03*
X108250000Y-147399999D03*
%TO.N,Net-(SW1-A)*%
X104260000Y-141340000D03*
X105160000Y-125080000D03*
X107048119Y-143178118D03*
X110020000Y-142970000D03*
%TD*%
%TO.N,RUN*%
D44*
X108150000Y-133830000D02*
X109050000Y-132930000D01*
X109050000Y-132630000D02*
X109110000Y-132570000D01*
X109050000Y-132930000D02*
X109050000Y-132630000D01*
D45*
X102250000Y-130899999D02*
X102399999Y-130899999D01*
X106149999Y-129850000D02*
X106449999Y-129850000D01*
X107949999Y-130600000D02*
X107949999Y-129100000D01*
D44*
X109110000Y-132570000D02*
X109110000Y-132510000D01*
X107970000Y-134070000D02*
X108150000Y-133890000D01*
X109110000Y-132510000D02*
X109365142Y-132171153D01*
X108150000Y-133890000D02*
X108150000Y-133830000D01*
D45*
X107949999Y-130600000D02*
X107949999Y-134049999D01*
X107949999Y-130000000D02*
X107949999Y-130600000D01*
X106600000Y-130000000D02*
X107949999Y-130000000D01*
X106449999Y-129850000D02*
X106600000Y-130000000D01*
%TO.N,+3V3*%
D44*
X102274999Y-130044999D02*
X102350000Y-130044999D01*
X108850000Y-137150000D02*
X108925000Y-137150000D01*
X110675000Y-138745000D02*
X110675000Y-138895000D01*
D45*
X108400000Y-123530000D02*
X108446330Y-122881653D01*
X110380000Y-127100000D02*
X110930000Y-127100000D01*
D44*
X105625000Y-137375000D02*
X105625000Y-137450000D01*
D45*
X111900000Y-132387999D02*
X111900000Y-132837999D01*
X102300000Y-130070000D02*
X102300000Y-129620000D01*
X101000000Y-139986000D02*
X101000000Y-139536000D01*
X102300000Y-116132000D02*
X102300000Y-116582000D01*
X103350000Y-137397999D02*
X103095892Y-137769387D01*
D44*
X110955000Y-127074999D02*
X110354999Y-127074999D01*
X105500000Y-130644999D02*
X105575000Y-130644999D01*
X111480000Y-139425000D02*
X111480000Y-139500000D01*
X109000000Y-137075000D02*
X109030000Y-136873038D01*
X103250000Y-128320000D02*
X103175000Y-128320000D01*
D45*
X110380000Y-124300000D02*
X110734460Y-124022768D01*
D44*
X101475000Y-116555000D02*
X101475000Y-117680000D01*
X104750000Y-119604999D02*
X104750000Y-119530000D01*
X108775000Y-137450000D02*
X108775000Y-137375000D01*
X105200000Y-119530000D02*
X105200000Y-119604999D01*
D45*
X103220000Y-124300000D02*
X102865539Y-124022768D01*
D44*
X109564999Y-130789999D02*
X109619999Y-130669999D01*
X110524999Y-138745000D02*
X110675000Y-138745000D01*
D45*
X105650000Y-137397999D02*
X105395892Y-137769387D01*
D44*
X104750000Y-119530000D02*
X105200000Y-119530000D01*
X110750000Y-138895000D02*
X110750000Y-139120000D01*
X102300000Y-116555000D02*
X101475000Y-116555000D01*
X107950000Y-137450000D02*
X108775000Y-137450000D01*
X110425000Y-138050000D02*
X110425000Y-138500000D01*
D45*
X101150000Y-111350000D02*
X100670000Y-111530000D01*
X103220000Y-128300000D02*
X102670194Y-128285385D01*
D44*
X110750000Y-139120000D02*
X110975000Y-139120000D01*
X111405000Y-139275000D02*
X111405000Y-139425000D01*
D45*
X103450000Y-120117999D02*
X103796932Y-120404595D01*
X112600000Y-131693999D02*
X112600000Y-132143999D01*
X111200000Y-130211998D02*
X111150000Y-130661999D01*
D44*
X110425000Y-138500000D02*
X110575000Y-138500000D01*
D45*
X106400000Y-123530000D02*
X106506275Y-123092729D01*
D44*
X105350000Y-130044999D02*
X105500000Y-130044999D01*
X110955000Y-139275000D02*
X111405000Y-139275000D01*
D45*
X106600000Y-118052000D02*
X106600000Y-118502000D01*
D44*
X109900000Y-137975000D02*
X110350000Y-137975000D01*
X108850000Y-137375000D02*
X108850000Y-137150000D01*
X110350000Y-138050000D02*
X110425000Y-138050000D01*
D45*
X106800000Y-123530000D02*
X106800000Y-123080000D01*
D44*
X110350000Y-137975000D02*
X110350000Y-138050000D01*
X105500000Y-130044999D02*
X105500000Y-130644999D01*
X111480000Y-139500000D02*
X113205000Y-139500000D01*
D45*
X107600000Y-119720000D02*
X107445695Y-120142717D01*
D44*
X108775000Y-137375000D02*
X108850000Y-137375000D01*
X103774999Y-119604999D02*
X104750000Y-119604999D01*
X109900000Y-137150000D02*
X109900000Y-137975000D01*
X104600000Y-129970000D02*
X105350000Y-129970000D01*
X108925000Y-137150000D02*
X108925000Y-137075000D01*
X105350000Y-129970000D02*
X105350000Y-130044999D01*
X110675000Y-138895000D02*
X110750000Y-138895000D01*
X103774999Y-120430000D02*
X103774999Y-119604999D01*
X111405000Y-139425000D02*
X111480000Y-139425000D01*
X110955000Y-139125000D02*
X110955000Y-139275000D01*
D45*
X110380000Y-124700000D02*
X110753778Y-124449421D01*
D44*
X108925000Y-137075000D02*
X109000000Y-137075000D01*
X110524999Y-138445000D02*
X110524999Y-138745000D01*
%TO.N,HOST_D_P*%
D45*
X107050000Y-106600000D02*
X107199999Y-106750000D01*
X109899999Y-112750000D02*
X110800000Y-112750000D01*
X106000000Y-111550000D02*
X106449999Y-112000000D01*
X106000000Y-111550000D02*
X106000000Y-109300000D01*
X106449999Y-106600000D02*
X107050000Y-106600000D01*
X107649999Y-112449999D02*
X109600000Y-112449999D01*
X106149999Y-108399999D02*
X106149999Y-107649999D01*
X106000000Y-108550000D02*
X106149999Y-108399999D01*
X109600000Y-112449999D02*
X109899999Y-112750000D01*
X107500000Y-112300000D02*
X107649999Y-112449999D01*
X106000000Y-109300000D02*
X106000000Y-108550000D01*
X106149999Y-107649999D02*
X106300000Y-107500000D01*
X106449999Y-112000000D02*
X106449999Y-112300000D01*
X110800000Y-113199999D02*
X110949999Y-113350000D01*
X107199999Y-106750000D02*
X107199999Y-107500000D01*
X106300000Y-107500000D02*
X106300000Y-106750000D01*
X106300000Y-106750000D02*
X106449999Y-106600000D01*
X110800000Y-112750000D02*
X110800000Y-113199999D01*
X106449999Y-112300000D02*
X107500000Y-112300000D01*
%TO.N,HOST_D_N*%
X107949999Y-111550000D02*
X107949999Y-109300000D01*
X106750000Y-107800000D02*
X106750000Y-107500000D01*
X106899999Y-108399999D02*
X106899999Y-107949999D01*
X111399999Y-112750000D02*
X111399999Y-113350000D01*
X110199999Y-112300000D02*
X111100000Y-112300000D01*
X108250000Y-111850000D02*
X109750000Y-111850000D01*
X107800000Y-107500000D02*
X107649999Y-107649999D01*
X107949999Y-111550000D02*
X108250000Y-111850000D01*
X107800000Y-108399999D02*
X107800000Y-107500000D01*
X111250000Y-112449999D02*
X111250000Y-112600000D01*
X109750000Y-111850000D02*
X110199999Y-112300000D01*
X107649999Y-107649999D02*
X107649999Y-108399999D01*
X106899999Y-107949999D02*
X106750000Y-107800000D01*
X107949999Y-109300000D02*
X107949999Y-108550000D01*
X111250000Y-112600000D02*
X111399999Y-112750000D01*
X107649999Y-108399999D02*
X106899999Y-108399999D01*
X111100000Y-112300000D02*
X111250000Y-112449999D01*
X107949999Y-108550000D02*
X107800000Y-108399999D01*
%TO.N,+5V*%
X107050000Y-109300000D02*
X107350000Y-109000000D01*
X104649999Y-107500000D02*
X104350000Y-107800000D01*
X107800000Y-114250000D02*
X108100000Y-114250000D01*
X107649999Y-114399999D02*
X107800000Y-114250000D01*
X101350000Y-137950000D02*
X101649999Y-138250000D01*
X109149999Y-108100000D02*
X109300000Y-107949999D01*
X102699999Y-109899999D02*
X102550000Y-110050000D01*
X104500000Y-115300000D02*
X104500000Y-115449999D01*
X102550000Y-110800000D02*
X103000000Y-111250000D01*
X107199999Y-114399999D02*
X107350000Y-114399999D01*
X103449999Y-112300000D02*
X103600000Y-112449999D01*
X104350000Y-107800000D02*
X104350000Y-108550000D01*
X103449999Y-109449999D02*
X103000000Y-109899999D01*
X104350000Y-115149999D02*
X104500000Y-115300000D01*
X104050000Y-139600000D02*
X104199999Y-139450000D01*
X102550000Y-110050000D02*
X102550000Y-110800000D01*
X105399999Y-115000000D02*
X106300000Y-115000000D01*
X103300000Y-111250000D02*
X103449999Y-111399999D01*
X106600000Y-114699999D02*
X106750000Y-114699999D01*
X103000000Y-111250000D02*
X103300000Y-111250000D01*
X103449999Y-111399999D02*
X103449999Y-112300000D01*
X106750000Y-114699999D02*
X106899999Y-114550000D01*
X103899999Y-140200000D02*
X103899999Y-140049999D01*
X103600000Y-112449999D02*
X103600000Y-114100000D01*
X103000000Y-109899999D02*
X102699999Y-109899999D01*
X108100000Y-114250000D02*
X108250000Y-114100000D01*
X103899999Y-140049999D02*
X104050000Y-139899999D01*
X101800000Y-140350000D02*
X103750000Y-140350000D01*
X107350000Y-114399999D02*
X107649999Y-114399999D01*
X103750000Y-140350000D02*
X103899999Y-140200000D01*
X105100000Y-115300000D02*
X105399999Y-115000000D01*
X108250000Y-114100000D02*
X108699999Y-114100000D01*
X103449999Y-111399999D02*
X102100000Y-111399999D01*
X109300000Y-107949999D02*
X109300000Y-107649999D01*
X104500000Y-115300000D02*
X105100000Y-115300000D01*
X104050000Y-139899999D02*
X104050000Y-139600000D01*
X101649999Y-140200000D02*
X101800000Y-140350000D01*
X107050000Y-114550000D02*
X107199999Y-114399999D01*
X103600000Y-114100000D02*
X104350000Y-114850000D01*
X106899999Y-114550000D02*
X107050000Y-114550000D01*
X104350000Y-108550000D02*
X103449999Y-109449999D01*
X107050000Y-109300000D02*
X106600000Y-108850000D01*
X109300000Y-107649999D02*
X109449999Y-107500000D01*
X104350000Y-114850000D02*
X104350000Y-115149999D01*
X106300000Y-115000000D02*
X106600000Y-114699999D01*
X109149999Y-108399999D02*
X109149999Y-108100000D01*
X101649999Y-138250000D02*
X101649999Y-140200000D01*
%TO.N,HUB_RSTB*%
X109750000Y-119649999D02*
X109750000Y-118149999D01*
X110500000Y-113500000D02*
X110500000Y-113350000D01*
X109750000Y-118149999D02*
X109600000Y-118000000D01*
X111850000Y-120399999D02*
X111250000Y-119800000D01*
X111250000Y-119800000D02*
X109899999Y-119800000D01*
X109899999Y-119800000D02*
X109750000Y-119649999D01*
%TO.N,HUB_3V3*%
D44*
X108310000Y-119500000D02*
X108370000Y-119560000D01*
X109690000Y-122020000D02*
X110950000Y-122020000D01*
X111155000Y-119205000D02*
X110630000Y-119205000D01*
D45*
X107050000Y-116649999D02*
X105850000Y-116649999D01*
D44*
X111830000Y-119955000D02*
X112280000Y-119955000D01*
X108250000Y-118960000D02*
X108190000Y-119020000D01*
X110950000Y-122020000D02*
X111010000Y-121960000D01*
X112280000Y-119955000D02*
X112280000Y-120105000D01*
X111530000Y-118830000D02*
X111605000Y-118830000D01*
X111471880Y-118701880D02*
X110770000Y-118660000D01*
X110705000Y-118755000D02*
X111530000Y-118755000D01*
D45*
X105550000Y-116949999D02*
X104949999Y-116949999D01*
D44*
X109030000Y-120100000D02*
X109030000Y-120160000D01*
D45*
X109000000Y-116949999D02*
X108100000Y-116949999D01*
D44*
X111680000Y-119730000D02*
X111680000Y-119805000D01*
D45*
X109449999Y-117399999D02*
X108850000Y-117399999D01*
D44*
X108850000Y-119980000D02*
X108910000Y-119980000D01*
X108910000Y-119980000D02*
X108910000Y-120040000D01*
X109270000Y-117580000D02*
X109270000Y-117640000D01*
X110705000Y-118830000D02*
X110705000Y-118755000D01*
X111010000Y-121960000D02*
X111010000Y-120460000D01*
X110770000Y-118660000D02*
X110710000Y-118720000D01*
X111680000Y-119805000D02*
X111755000Y-119805000D01*
D45*
X108550000Y-117100000D02*
X107649999Y-117100000D01*
D44*
X109210000Y-117760000D02*
X109090000Y-117880000D01*
X108190000Y-119380000D02*
X108250000Y-119440000D01*
X109210000Y-117700000D02*
X109210000Y-117760000D01*
D45*
X104649999Y-117399999D02*
X104649999Y-117550000D01*
X104800000Y-117100000D02*
X104800000Y-117250000D01*
D44*
X108910000Y-120040000D02*
X108970000Y-120040000D01*
X108250000Y-119500000D02*
X108310000Y-119500000D01*
X109450000Y-117400000D02*
X109270000Y-117580000D01*
X111605000Y-118830000D02*
X111605000Y-119730000D01*
X108250000Y-118900000D02*
X108250000Y-118960000D01*
X108190000Y-119020000D02*
X108190000Y-119380000D01*
X111530000Y-118755000D02*
X111530000Y-118830000D01*
X111010000Y-120460000D02*
X111274721Y-120296084D01*
X108250000Y-119440000D02*
X108250000Y-119500000D01*
X109390000Y-121720000D02*
X109690000Y-122020000D01*
D45*
X108100000Y-114699999D02*
X108399999Y-114699999D01*
D44*
X109030000Y-120160000D02*
X109390000Y-120520000D01*
D45*
X108550000Y-114550000D02*
X108699999Y-114550000D01*
D44*
X108970000Y-118120000D02*
X108970000Y-118180000D01*
X108970000Y-118180000D02*
X108250000Y-118900000D01*
X110630000Y-118830000D02*
X110705000Y-118830000D01*
D45*
X107350000Y-116949999D02*
X107050000Y-116649999D01*
D44*
X112355000Y-120480000D02*
X112655000Y-120480000D01*
X111605000Y-119730000D02*
X111680000Y-119730000D01*
X108370000Y-119560000D02*
X108430000Y-119560000D01*
X110630000Y-119205000D02*
X110630000Y-118830000D01*
X109030000Y-118060000D02*
X108970000Y-118120000D01*
D45*
X104800000Y-117250000D02*
X104649999Y-117399999D01*
X108100000Y-116949999D02*
X108100000Y-114699999D01*
D44*
X111755000Y-119805000D02*
X111755000Y-119880000D01*
X109030000Y-118000000D02*
X109030000Y-118060000D01*
X109090000Y-117880000D02*
X109090000Y-117940000D01*
D45*
X109449999Y-117399999D02*
X109000000Y-116949999D01*
D44*
X109270000Y-117640000D02*
X109210000Y-117700000D01*
D45*
X104949999Y-116949999D02*
X104800000Y-117100000D01*
D44*
X108970000Y-120100000D02*
X109030000Y-120100000D01*
D45*
X108850000Y-117399999D02*
X108550000Y-117100000D01*
D44*
X108970000Y-120040000D02*
X108970000Y-120100000D01*
X108430000Y-119560000D02*
X108850000Y-119980000D01*
X109390000Y-120520000D02*
X109390000Y-121720000D01*
D45*
X107500000Y-116949999D02*
X107350000Y-116949999D01*
D44*
X112355000Y-120105000D02*
X112355000Y-120480000D01*
D45*
X107649999Y-117100000D02*
X107500000Y-116949999D01*
X105850000Y-116649999D02*
X105550000Y-116949999D01*
D44*
X111830000Y-119880000D02*
X111830000Y-119955000D01*
X109090000Y-117940000D02*
X109030000Y-118000000D01*
X112280000Y-120105000D02*
X112355000Y-120105000D01*
X111755000Y-119880000D02*
X111830000Y-119880000D01*
D45*
X108399999Y-114699999D02*
X108550000Y-114550000D01*
%TO.N,SHIFT_EN*%
D44*
X103475000Y-118245000D02*
X105650000Y-118245000D01*
X109850000Y-127920000D02*
X110375000Y-127920000D01*
%TO.N,+1V2*%
D45*
X101500000Y-120550000D02*
X101500000Y-120699999D01*
X103000000Y-136450000D02*
X102399999Y-137049999D01*
X105550000Y-135399999D02*
X105699999Y-135549999D01*
X103600000Y-134799999D02*
X105100000Y-134799999D01*
X102550000Y-133750000D02*
X102550000Y-134049999D01*
X101949999Y-122199999D02*
X102100000Y-122199999D01*
X102100000Y-132850000D02*
X102100000Y-133000000D01*
X101800000Y-132399999D02*
X101949999Y-132549999D01*
X102550000Y-134049999D02*
X102699999Y-134199999D01*
X103300000Y-135549999D02*
X103600000Y-135250000D01*
X102699999Y-134350000D02*
X102850000Y-134500000D01*
X101350000Y-120399999D02*
X101500000Y-120550000D01*
X102850000Y-134649999D02*
X103000000Y-134799999D01*
X102100000Y-122199999D02*
X102250000Y-122350000D01*
X103600000Y-135250000D02*
X103600000Y-134799999D01*
X103000000Y-135850000D02*
X103000000Y-136450000D01*
X103000000Y-134950000D02*
X103149999Y-135100000D01*
X101500000Y-120699999D02*
X101800000Y-121000000D01*
X101949999Y-132549999D02*
X101949999Y-132699999D01*
X103149999Y-135399999D02*
X103300000Y-135549999D01*
X101949999Y-119350000D02*
X101949999Y-118449999D01*
X102250000Y-133299999D02*
X102399999Y-133449999D01*
X101350000Y-120250000D02*
X101350000Y-120399999D01*
X102100000Y-117550000D02*
X102850000Y-116800000D01*
X101199999Y-120100000D02*
X101949999Y-119350000D01*
X102399999Y-133600000D02*
X102550000Y-133750000D01*
X101949999Y-132699999D02*
X102100000Y-132850000D01*
X102100000Y-133000000D02*
X102250000Y-133149999D01*
X101800000Y-122050000D02*
X101949999Y-122199999D01*
X102699999Y-134199999D02*
X102699999Y-134350000D01*
X102250000Y-133149999D02*
X102250000Y-133299999D01*
X102250000Y-128949999D02*
X101800000Y-129399999D01*
X102100000Y-118300000D02*
X102100000Y-117550000D01*
X101199999Y-120100000D02*
X101350000Y-120250000D01*
X102399999Y-133449999D02*
X102399999Y-133600000D01*
X101800000Y-129399999D02*
X101800000Y-132399999D01*
X102850000Y-112149999D02*
X103000000Y-112000000D01*
X102850000Y-134500000D02*
X102850000Y-134649999D01*
X103300000Y-135549999D02*
X103000000Y-135850000D01*
X105100000Y-134799999D02*
X105550000Y-135250000D01*
X102250000Y-122350000D02*
X102250000Y-128949999D01*
X103000000Y-134799999D02*
X103000000Y-134950000D01*
X102850000Y-116800000D02*
X102850000Y-112149999D01*
X103149999Y-135100000D02*
X103149999Y-135399999D01*
X101800000Y-121000000D02*
X101800000Y-122050000D01*
X101949999Y-118449999D02*
X102100000Y-118300000D01*
X105550000Y-135250000D02*
X105550000Y-135399999D01*
%TO.N,TGT_VBUS_EN*%
X106300000Y-138100000D02*
X107050000Y-138100000D01*
X105850000Y-138549999D02*
X106300000Y-138100000D01*
X102850000Y-138549999D02*
X105850000Y-138549999D01*
X110649999Y-131350000D02*
X110649999Y-130449999D01*
X102699999Y-138700000D02*
X102850000Y-138549999D01*
X102250000Y-139450000D02*
X102699999Y-139000000D01*
X110500000Y-130000000D02*
X110350000Y-130000000D01*
X110500000Y-130299999D02*
X110500000Y-130000000D01*
X110649999Y-130449999D02*
X110500000Y-130299999D01*
X102699999Y-139000000D02*
X102699999Y-138700000D01*
X110350000Y-130000000D02*
X110350000Y-129850000D01*
%TO.N,Net-(U10-~{FAULT})*%
X102250000Y-142149999D02*
X101050000Y-140950000D01*
X101050000Y-140950000D02*
X101050000Y-140799999D01*
%TO.N,Net-(U10-ILIM)*%
X102850000Y-142899999D02*
X101649999Y-144100000D01*
X102850000Y-142450000D02*
X102850000Y-142899999D01*
X101649999Y-144100000D02*
X101500000Y-144100000D01*
X101500000Y-144100000D02*
X101350000Y-144250000D01*
X103149999Y-142149999D02*
X102850000Y-142450000D01*
%TO.N,TGT_VBUS*%
X105250000Y-139600000D02*
X105550000Y-139299999D01*
X104949999Y-142600000D02*
X105100000Y-142750000D01*
X105100000Y-144700000D02*
X104949999Y-144850000D01*
X106899999Y-139600000D02*
X106899999Y-139899999D01*
X105550000Y-139299999D02*
X106600000Y-139299999D01*
X104500000Y-141549999D02*
X105250000Y-140799999D01*
X106600000Y-139299999D02*
X106899999Y-139600000D01*
X105250000Y-140799999D02*
X105250000Y-139600000D01*
X104949999Y-146350000D02*
X104800000Y-146500000D01*
X104500000Y-142299999D02*
X104500000Y-141549999D01*
X104800000Y-146500000D02*
X104800000Y-147100000D01*
X106899999Y-139899999D02*
X107050000Y-140049999D01*
X104649999Y-142450000D02*
X104500000Y-142299999D01*
X104649999Y-147250000D02*
X104649999Y-147399999D01*
X104800000Y-147100000D02*
X104649999Y-147250000D01*
X104949999Y-144850000D02*
X104949999Y-146350000D01*
X105100000Y-142750000D02*
X104800000Y-142450000D01*
X104199999Y-142149999D02*
X104649999Y-142600000D01*
X104800000Y-142450000D02*
X104649999Y-142450000D01*
X105100000Y-142750000D02*
X105100000Y-144700000D01*
X104649999Y-147399999D02*
X104649999Y-147549999D01*
X104649999Y-142600000D02*
X104949999Y-142600000D01*
X104199999Y-142149999D02*
X103900000Y-142050000D01*
%TO.N,Net-(U1-VREG_AVDD)*%
X106449999Y-122199999D02*
X108699999Y-122199999D01*
X105350000Y-121250000D02*
X105200000Y-121220000D01*
X109449999Y-122800000D02*
X109600000Y-122949999D01*
X105200000Y-118770000D02*
X105700000Y-119270000D01*
X109300000Y-122800000D02*
X109449999Y-122800000D01*
X105700000Y-119270000D02*
X105700000Y-120900000D01*
X105700000Y-120900000D02*
X105350000Y-121250000D01*
X108699999Y-122199999D02*
X109300000Y-122800000D01*
X105700000Y-120900000D02*
X106450000Y-122200000D01*
X109600000Y-122949999D02*
X109600000Y-123550000D01*
%TO.N,Net-(D1-A)*%
X112600000Y-129250000D02*
X112600000Y-130899999D01*
%TO.N,+1V1*%
X107050000Y-121750000D02*
X106899999Y-121750000D01*
X103149999Y-126250000D02*
X103300000Y-126399999D01*
X106899999Y-121750000D02*
X106750000Y-121600000D01*
X109750000Y-126850000D02*
X109600000Y-127000000D01*
D44*
X107975000Y-125155000D02*
X107975000Y-123505000D01*
D45*
X103899999Y-126399999D02*
X104050000Y-126550000D01*
D44*
X107925000Y-124105000D02*
X107850000Y-124105000D01*
D45*
X104199999Y-127600000D02*
X104199999Y-128949999D01*
X108550000Y-119199999D02*
X110350000Y-121000000D01*
D44*
X107925000Y-123505000D02*
X107925000Y-124105000D01*
X108000000Y-123505000D02*
X107925000Y-123505000D01*
X106710000Y-131280000D02*
X106650000Y-131340000D01*
D45*
X103149999Y-126250000D02*
X103899999Y-126250000D01*
X104199999Y-125949999D02*
X104350000Y-125949999D01*
D44*
X106710000Y-130739999D02*
X106710000Y-131280000D01*
X107850000Y-124105000D02*
X107850000Y-124180000D01*
X106800000Y-124180000D02*
X106800000Y-125005000D01*
X105450000Y-131340000D02*
X104800000Y-131340000D01*
X108725000Y-125230000D02*
X108650000Y-125230000D01*
X108650000Y-125230000D02*
X108650000Y-125155000D01*
D45*
X103300000Y-126399999D02*
X103899999Y-126399999D01*
X109750000Y-126699999D02*
X109750000Y-126850000D01*
D44*
X106770000Y-130680000D02*
X106710000Y-130739999D01*
X108650000Y-125155000D02*
X107975000Y-125155000D01*
X107850000Y-124180000D02*
X106800000Y-124180000D01*
D45*
X104050000Y-126550000D02*
X104050000Y-127449999D01*
D44*
X108725000Y-126730000D02*
X108725000Y-125230000D01*
D45*
X104199999Y-128949999D02*
X104350000Y-129100000D01*
D44*
X106650000Y-131340000D02*
X105450000Y-131340000D01*
X107024999Y-121875000D02*
X107534999Y-121875000D01*
X104800000Y-131340000D02*
X104800000Y-131400000D01*
X107024999Y-121725000D02*
X107024999Y-121875000D01*
X109775000Y-126730000D02*
X108725000Y-126730000D01*
D45*
X104050000Y-127449999D02*
X104199999Y-127600000D01*
X110350000Y-126699999D02*
X109750000Y-126699999D01*
X103899999Y-126250000D02*
X104199999Y-125949999D01*
%TO.N,SWDIO*%
D44*
X107600000Y-130669999D02*
X107600000Y-131089999D01*
%TO.N,I2C_SDA*%
D45*
X108399999Y-130600000D02*
X108399999Y-131350000D01*
X108399999Y-131350000D02*
X109899999Y-131350000D01*
X108399999Y-132399999D02*
X108699999Y-132699999D01*
X109149999Y-138399999D02*
X109000000Y-138399999D01*
X108399999Y-130600000D02*
X108399999Y-132399999D01*
X109899999Y-131350000D02*
X109899999Y-130449999D01*
X109149999Y-138100000D02*
X109149999Y-138399999D01*
X109899999Y-130449999D02*
X110050000Y-130299999D01*
%TO.N,I2C_SCL*%
D44*
X107619999Y-136630000D02*
X109300000Y-134950000D01*
X107680000Y-137770000D02*
X107619999Y-137710000D01*
X107619999Y-137650000D02*
X107559999Y-137590000D01*
X109550000Y-138470000D02*
X109550000Y-138100000D01*
X107559999Y-137590000D02*
X107559999Y-137290000D01*
X107619999Y-137710000D02*
X107619999Y-137650000D01*
X107619999Y-137230000D02*
X107619999Y-136630000D01*
X109300000Y-134950000D02*
X109300000Y-134890000D01*
X109360000Y-134830000D02*
X109401880Y-133671880D01*
X107559999Y-137290000D02*
X107619999Y-137230000D01*
X109300000Y-134890000D02*
X109360000Y-134830000D01*
X107740000Y-137770000D02*
X107680000Y-137770000D01*
X107800000Y-137830000D02*
X107740000Y-137770000D01*
X107919999Y-137830000D02*
X107800000Y-137830000D01*
X108188725Y-138161274D02*
X107919999Y-137830000D01*
%TO.N,FUSB_INT*%
X110000000Y-138440000D02*
X110060000Y-138500000D01*
X110000000Y-138380000D02*
X110000000Y-138440000D01*
%TO.N,SBU1_DIR*%
X104020000Y-135520000D02*
X104140000Y-135400000D01*
X110233118Y-129493118D02*
X110380000Y-129520000D01*
%TO.N,SBU2_DIR*%
X106560000Y-134640000D02*
X106560000Y-134579999D01*
X106500000Y-134700000D02*
X106560000Y-134640000D01*
X109740000Y-129720000D02*
X109740000Y-129239999D01*
X109560000Y-129900000D02*
X109740000Y-129720000D01*
X109800000Y-129180000D02*
X110280000Y-129180000D01*
X109500000Y-129900000D02*
X109560000Y-129900000D01*
X106320000Y-135480000D02*
X106380000Y-135420000D01*
X107039999Y-134100000D02*
X107085000Y-131459999D01*
X108600000Y-129959999D02*
X109440000Y-129959999D01*
X106380000Y-135420000D02*
X106380000Y-134940000D01*
X106440000Y-134880000D02*
X106440000Y-134820000D01*
X106500000Y-134760000D02*
X106500000Y-134700000D01*
X106380000Y-134940000D02*
X106440000Y-134880000D01*
X109440000Y-129959999D02*
X109500000Y-129900000D01*
X109740000Y-129239999D02*
X109800000Y-129180000D01*
X110340000Y-129120000D02*
X110399999Y-129120000D01*
X110280000Y-129180000D02*
X110340000Y-129120000D01*
X106560000Y-134579999D02*
X107039999Y-134100000D01*
X106440000Y-134820000D02*
X106500000Y-134760000D01*
%TO.N,SBU1_UART*%
D45*
X110800000Y-128799999D02*
X111550000Y-128799999D01*
X111699999Y-128949999D02*
X111699999Y-130899999D01*
X106000000Y-136750000D02*
X105250000Y-136750000D01*
X110649999Y-128650000D02*
X110800000Y-128799999D01*
X111399999Y-131049999D02*
X111399999Y-131199999D01*
X111550000Y-128799999D02*
X111699999Y-128949999D01*
X107199999Y-136149999D02*
X107050000Y-136299999D01*
X106750000Y-136450000D02*
X106600000Y-136450000D01*
X106600000Y-136450000D02*
X106449999Y-136600000D01*
X111550000Y-131049999D02*
X111399999Y-131049999D01*
X111399999Y-131199999D02*
X108550000Y-134049999D01*
X106149999Y-136600000D02*
X106000000Y-136750000D01*
X107050000Y-136299999D02*
X106899999Y-136299999D01*
X111699999Y-130899999D02*
X111550000Y-131049999D01*
X107350000Y-136149999D02*
X107199999Y-136149999D01*
X106449999Y-136600000D02*
X106149999Y-136600000D01*
X108550000Y-134049999D02*
X108550000Y-134199999D01*
X107350000Y-135399999D02*
X107350000Y-136149999D01*
X110350000Y-128650000D02*
X110649999Y-128650000D01*
X108550000Y-134199999D02*
X107350000Y-135399999D01*
X106899999Y-136299999D02*
X106750000Y-136450000D01*
X105250000Y-136750000D02*
X104649999Y-137350000D01*
%TO.N,SBU2_UART*%
X109750000Y-128350000D02*
X109149999Y-128949999D01*
X108850000Y-129100000D02*
X108699999Y-129100000D01*
X106899999Y-137200000D02*
X106899999Y-137350000D01*
X107050000Y-137049999D02*
X106899999Y-137200000D01*
X109000000Y-128949999D02*
X108850000Y-129100000D01*
X109149999Y-128949999D02*
X109000000Y-128949999D01*
X110350000Y-128199999D02*
X110050000Y-128199999D01*
X110050000Y-128199999D02*
X109899999Y-128350000D01*
X109899999Y-128350000D02*
X109750000Y-128350000D01*
X110350000Y-128350000D02*
X110350000Y-128199999D01*
%TO.N,LED_STAT*%
X110350000Y-127449999D02*
X110350000Y-127600000D01*
X110350000Y-127600000D02*
X111250000Y-127600000D01*
X111250000Y-127600000D02*
X112600000Y-126250000D01*
%TO.N,VREG_LX*%
X108850000Y-123550000D02*
X108850000Y-124149999D01*
%TO.N,MCU_D_N*%
X112899999Y-114550000D02*
X112750000Y-114550000D01*
X107649999Y-123550000D02*
X107649999Y-122949999D01*
%TO.N,MCU_D_P*%
X112899999Y-113800000D02*
X112750000Y-113949999D01*
X112750000Y-113949999D02*
X112750000Y-114100000D01*
X107199999Y-123550000D02*
X107199999Y-123699999D01*
%TO.N,Net-(U1-QSPI_SS)*%
X104050000Y-123550000D02*
X103899999Y-123699999D01*
%TO.N,HOST_CC1*%
X108699999Y-108699999D02*
X108699999Y-108850000D01*
X108250000Y-107500000D02*
X108250000Y-107800000D01*
X108699999Y-108850000D02*
X108850000Y-109000000D01*
X108399999Y-107949999D02*
X108399999Y-108399999D01*
X108250000Y-107800000D02*
X108399999Y-107949999D01*
X108399999Y-108399999D02*
X108699999Y-108699999D01*
%TO.N,HOST_CC2*%
X105100000Y-108550000D02*
X105100000Y-108699999D01*
X105250000Y-108399999D02*
X105100000Y-108550000D01*
X105250000Y-107500000D02*
X105250000Y-108399999D01*
X105100000Y-108699999D02*
X104949999Y-108850000D01*
X104949999Y-108850000D02*
X104949999Y-109000000D01*
%TO.N,Net-(D2-A)*%
X112600000Y-125350000D02*
X112600000Y-123699999D01*
%TO.N,HUB_XI*%
X110949999Y-117699999D02*
X110800000Y-117850000D01*
X110500000Y-118449999D02*
X110350000Y-118600000D01*
X110949999Y-117399999D02*
X110949999Y-117699999D01*
X110949999Y-117399999D02*
X110949999Y-117850000D01*
X110500000Y-118300000D02*
X110500000Y-118449999D01*
X110800000Y-118000000D02*
X110500000Y-118300000D01*
X110800000Y-117850000D02*
X110800000Y-118000000D01*
%TO.N,TGT_D_N*%
X107199999Y-147399999D02*
X107199999Y-146500000D01*
X109750000Y-135549999D02*
X109600000Y-135700000D01*
X113050000Y-132549999D02*
X110649999Y-134950000D01*
X109149999Y-137500000D02*
X108699999Y-137950000D01*
X112899999Y-115750000D02*
X113350000Y-115750000D01*
X109149999Y-137350000D02*
X109149999Y-137500000D01*
X113350000Y-115750000D02*
X113350000Y-128199999D01*
X113050000Y-132250000D02*
X113050000Y-132549999D01*
X108699999Y-138250000D02*
X108100000Y-138850000D01*
X107949999Y-142299999D02*
X107949999Y-144250000D01*
X107800000Y-146049999D02*
X107350000Y-146500000D01*
X108100000Y-138850000D02*
X108100000Y-139750000D01*
X113199999Y-132100000D02*
X113050000Y-132250000D01*
X109600000Y-135700000D02*
X109600000Y-136450000D01*
X107199999Y-147250000D02*
X107199999Y-147399999D01*
X107199999Y-146500000D02*
X106300000Y-146500000D01*
X107800000Y-144399999D02*
X107800000Y-146049999D01*
X112750000Y-115600000D02*
X112899999Y-115750000D01*
X110199999Y-135100000D02*
X109899999Y-135100000D01*
X107949999Y-140049999D02*
X107949999Y-142299999D01*
X109300000Y-137200000D02*
X109149999Y-137350000D01*
X108699999Y-137950000D02*
X108699999Y-138250000D01*
X107949999Y-144250000D02*
X107800000Y-144399999D01*
X110649999Y-134950000D02*
X110350000Y-134950000D01*
X109600000Y-136450000D02*
X109449999Y-136600000D01*
X107949999Y-139899999D02*
X107949999Y-140049999D01*
X107350000Y-147100000D02*
X107199999Y-147250000D01*
X109899999Y-135100000D02*
X109750000Y-135250000D01*
X113199999Y-128350000D02*
X113199999Y-132100000D01*
X109449999Y-136899999D02*
X109300000Y-137049999D01*
X109750000Y-135250000D02*
X109750000Y-135549999D01*
X106300000Y-146500000D02*
X106300000Y-147399999D01*
X109300000Y-137049999D02*
X109300000Y-137200000D01*
X109449999Y-136600000D02*
X109449999Y-136899999D01*
X113350000Y-128199999D02*
X113199999Y-128350000D01*
X107350000Y-146500000D02*
X107350000Y-147100000D01*
X108100000Y-139750000D02*
X107949999Y-139899999D01*
X110350000Y-134950000D02*
X110199999Y-135100000D01*
%TO.N,TGT_D_P*%
X107649999Y-148299999D02*
X107649999Y-147549999D01*
X106750000Y-147700000D02*
X106899999Y-147850000D01*
X107649999Y-147549999D02*
X107800000Y-147399999D01*
X106750000Y-147399999D02*
X106750000Y-147700000D01*
X106899999Y-147850000D02*
X106899999Y-148299999D01*
X112750000Y-115149999D02*
X113199999Y-115149999D01*
X106000000Y-140049999D02*
X106000000Y-142299999D01*
X106899999Y-148299999D02*
X107649999Y-148299999D01*
X106000000Y-142299999D02*
X106000000Y-146049999D01*
%TO.N,TGT_SBU2*%
X106899999Y-135549999D02*
X106899999Y-135100000D01*
X105250000Y-147250000D02*
X105250000Y-147399999D01*
X106899999Y-135100000D02*
X107050000Y-135100000D01*
%TO.N,TGT_CC2*%
X110800000Y-140350000D02*
X110800000Y-140500000D01*
X110500000Y-140799999D02*
X110500000Y-142750000D01*
X110350000Y-144850000D02*
X109449999Y-145750000D01*
X110500000Y-142750000D02*
X110350000Y-142899999D01*
X110350000Y-142899999D02*
X110350000Y-144850000D01*
X109449999Y-145750000D02*
X109449999Y-145899999D01*
X108850000Y-146500000D02*
X108850000Y-147100000D01*
X108699999Y-147250000D02*
X108699999Y-147399999D01*
X110800000Y-140500000D02*
X110500000Y-140799999D01*
X109449999Y-145899999D02*
X108850000Y-146500000D01*
X110949999Y-140200000D02*
X110800000Y-140350000D01*
X108850000Y-147100000D02*
X108699999Y-147250000D01*
%TO.N,TGT_CC1*%
X105699999Y-146500000D02*
X105699999Y-147399999D01*
X109000000Y-140799999D02*
X108399999Y-141399999D01*
X108850000Y-140649999D02*
X109000000Y-140799999D01*
X108850000Y-140500000D02*
X108850000Y-140649999D01*
X108550000Y-140200000D02*
X108850000Y-140500000D01*
X105550000Y-145149999D02*
X105550000Y-146350000D01*
X108399999Y-141399999D02*
X108399999Y-141549999D01*
X105550000Y-146350000D02*
X105699999Y-146500000D01*
%TO.N,TGT_SBU1*%
X104649999Y-135549999D02*
X104649999Y-136149999D01*
%TD*%
%TA.AperFunction,Conductor*%
%TO.N,GND*%
G36*
X115442539Y-100520185D02*
G01*
X115488294Y-100572989D01*
X115499500Y-100624500D01*
X115499500Y-154375500D01*
X115479815Y-154442539D01*
X115427011Y-154488294D01*
X115375500Y-154499500D01*
X100624500Y-154499500D01*
X100557461Y-154479815D01*
X100511706Y-154427011D01*
X100500500Y-154375500D01*
X100500500Y-144860660D01*
X100520185Y-144793621D01*
X100572989Y-144747866D01*
X100642147Y-144737922D01*
X100705703Y-144766947D01*
X100714645Y-144777083D01*
X100714812Y-144776917D01*
X100723446Y-144785551D01*
X100789769Y-144829867D01*
X100789770Y-144829868D01*
X100848247Y-144841499D01*
X100848250Y-144841500D01*
X100848252Y-144841500D01*
X101751750Y-144841500D01*
X101751751Y-144841499D01*
X101766568Y-144838552D01*
X101810229Y-144829868D01*
X101810229Y-144829867D01*
X101810231Y-144829867D01*
X101876552Y-144785552D01*
X101920867Y-144719231D01*
X101920867Y-144719229D01*
X101920868Y-144719229D01*
X101932499Y-144660752D01*
X101932500Y-144660750D01*
X101932500Y-144258476D01*
X101952185Y-144191437D01*
X101968819Y-144170795D01*
X102507948Y-143631666D01*
X103083558Y-143056057D01*
X103089775Y-143041046D01*
X103133616Y-142986644D01*
X103199910Y-142964579D01*
X103204336Y-142964500D01*
X103519750Y-142964500D01*
X103519751Y-142964499D01*
X103540084Y-142960455D01*
X103578229Y-142952868D01*
X103578231Y-142952867D01*
X103606108Y-142934240D01*
X103672785Y-142913361D01*
X103740165Y-142931845D01*
X103743892Y-142934240D01*
X103771768Y-142952867D01*
X103771770Y-142952868D01*
X103830247Y-142964499D01*
X103830250Y-142964500D01*
X103830252Y-142964500D01*
X104469747Y-142964500D01*
X104469748Y-142964500D01*
X104490082Y-142960455D01*
X104559671Y-142966681D01*
X104614850Y-143009542D01*
X104635891Y-143057881D01*
X104641131Y-143084228D01*
X104641132Y-143084229D01*
X104685447Y-143150551D01*
X104761923Y-143201651D01*
X104760666Y-143203531D01*
X104802353Y-143237122D01*
X104824421Y-143303415D01*
X104824500Y-143307846D01*
X104824500Y-144534521D01*
X104816919Y-144560336D01*
X104812874Y-144586944D01*
X104806386Y-144596206D01*
X104804815Y-144601560D01*
X104793553Y-144616480D01*
X104790967Y-144619415D01*
X104716442Y-144693941D01*
X104716442Y-144693942D01*
X104708555Y-144712983D01*
X104674499Y-144795199D01*
X104674499Y-146184521D01*
X104667973Y-146206742D01*
X104665930Y-146229817D01*
X104657350Y-146242921D01*
X104654814Y-146251560D01*
X104648492Y-146260503D01*
X104643699Y-146266683D01*
X104566442Y-146343942D01*
X104552910Y-146376613D01*
X104546542Y-146391984D01*
X104546541Y-146391987D01*
X104537820Y-146413043D01*
X104493979Y-146467447D01*
X104427684Y-146489511D01*
X104423259Y-146489590D01*
X104300098Y-146489590D01*
X104221468Y-146505230D01*
X104221465Y-146505231D01*
X104221461Y-146505232D01*
X104182570Y-146521341D01*
X104182568Y-146521342D01*
X104182566Y-146521343D01*
X104182559Y-146521346D01*
X104124281Y-146557966D01*
X104124276Y-146557970D01*
X104071352Y-146632558D01*
X104055245Y-146671445D01*
X104055242Y-146671456D01*
X104039602Y-146750086D01*
X104039602Y-148036997D01*
X104019917Y-148104036D01*
X103967113Y-148149791D01*
X103947697Y-148156771D01*
X103897168Y-148170310D01*
X103897161Y-148170313D01*
X103777338Y-148239492D01*
X103777333Y-148239496D01*
X103679496Y-148337333D01*
X103679492Y-148337338D01*
X103610313Y-148457161D01*
X103610312Y-148457164D01*
X103574500Y-148590817D01*
X103574500Y-148729182D01*
X103610312Y-148862835D01*
X103610313Y-148862838D01*
X103679492Y-148982661D01*
X103679494Y-148982664D01*
X103679495Y-148982665D01*
X103777335Y-149080505D01*
X103897164Y-149149688D01*
X104030817Y-149185500D01*
X104030819Y-149185500D01*
X104169181Y-149185500D01*
X104169183Y-149185500D01*
X104302836Y-149149688D01*
X104422665Y-149080505D01*
X104520505Y-148982665D01*
X104589688Y-148862836D01*
X104625500Y-148729183D01*
X104625500Y-148590817D01*
X104592224Y-148466628D01*
X104593887Y-148396781D01*
X104633050Y-148338918D01*
X104697278Y-148311414D01*
X104711999Y-148310537D01*
X104900077Y-148310537D01*
X104900077Y-148310536D01*
X104978717Y-148294895D01*
X105017608Y-148278786D01*
X105026227Y-148273370D01*
X105032374Y-148269508D01*
X105098348Y-148250500D01*
X105419750Y-148250500D01*
X105475808Y-148239349D01*
X105524192Y-148239349D01*
X105580249Y-148250500D01*
X105580252Y-148250500D01*
X105919750Y-148250500D01*
X105975808Y-148239349D01*
X106024192Y-148239349D01*
X106080249Y-148250500D01*
X106080252Y-148250500D01*
X106419750Y-148250500D01*
X106475808Y-148239349D01*
X106484109Y-148239346D01*
X106488886Y-148237465D01*
X106524131Y-148239337D01*
X106524630Y-148239436D01*
X106586557Y-148271790D01*
X106621161Y-148332489D01*
X106622725Y-148345879D01*
X106624499Y-148354799D01*
X106666442Y-148456057D01*
X106743941Y-148533556D01*
X106845199Y-148575499D01*
X106845200Y-148575499D01*
X107704798Y-148575499D01*
X107704799Y-148575499D01*
X107806057Y-148533556D01*
X107883556Y-148456057D01*
X107925499Y-148354799D01*
X107925499Y-148354790D01*
X107927152Y-148346483D01*
X107959533Y-148284570D01*
X108020247Y-148249992D01*
X108072967Y-148249051D01*
X108074501Y-148249356D01*
X108080251Y-148250500D01*
X108080252Y-148250500D01*
X108419750Y-148250500D01*
X108475808Y-148239349D01*
X108524192Y-148239349D01*
X108580249Y-148250500D01*
X108903144Y-148250500D01*
X108970183Y-148270185D01*
X108974890Y-148273364D01*
X108982316Y-148278633D01*
X109021207Y-148294742D01*
X109099845Y-148310383D01*
X109099847Y-148310384D01*
X109099848Y-148310384D01*
X109288042Y-148310384D01*
X109355081Y-148330069D01*
X109400836Y-148382873D01*
X109410780Y-148452031D01*
X109407818Y-148466470D01*
X109389843Y-148533556D01*
X109374500Y-148590817D01*
X109374500Y-148729182D01*
X109410312Y-148862835D01*
X109410313Y-148862838D01*
X109479492Y-148982661D01*
X109479494Y-148982664D01*
X109479495Y-148982665D01*
X109577335Y-149080505D01*
X109697164Y-149149688D01*
X109830817Y-149185500D01*
X109830819Y-149185500D01*
X109969181Y-149185500D01*
X109969183Y-149185500D01*
X110102836Y-149149688D01*
X110222665Y-149080505D01*
X110320505Y-148982665D01*
X110389688Y-148862836D01*
X110425500Y-148729183D01*
X110425500Y-148590817D01*
X110389688Y-148457164D01*
X110320505Y-148337335D01*
X110222665Y-148239495D01*
X110222664Y-148239494D01*
X110222661Y-148239492D01*
X110102838Y-148170313D01*
X110102831Y-148170310D01*
X110052277Y-148156764D01*
X109992617Y-148120399D01*
X109962089Y-148057552D01*
X109960372Y-148036990D01*
X109960372Y-146749910D01*
X109960371Y-146749908D01*
X109944730Y-146671271D01*
X109928621Y-146632380D01*
X109928616Y-146632373D01*
X109928615Y-146632369D01*
X109891995Y-146574091D01*
X109891992Y-146574086D01*
X109817404Y-146521163D01*
X109817403Y-146521162D01*
X109778516Y-146505055D01*
X109778514Y-146505054D01*
X109778513Y-146505054D01*
X109778510Y-146505053D01*
X109778505Y-146505052D01*
X109699875Y-146489412D01*
X109699872Y-146489412D01*
X109549565Y-146489412D01*
X109482526Y-146469727D01*
X109436771Y-146416923D01*
X109426827Y-146347765D01*
X109455852Y-146284209D01*
X109461884Y-146277731D01*
X109587603Y-146152011D01*
X109683557Y-146056057D01*
X109705179Y-146003855D01*
X109725499Y-145954799D01*
X109725499Y-145902051D01*
X109728372Y-145888939D01*
X109738971Y-145869596D01*
X109745184Y-145848438D01*
X109761818Y-145827796D01*
X110583555Y-145006061D01*
X110583555Y-145006060D01*
X110583557Y-145006059D01*
X110596215Y-144975500D01*
X110625500Y-144904800D01*
X110625500Y-143065478D01*
X110645185Y-142998439D01*
X110646494Y-142996444D01*
X110653246Y-142986369D01*
X110733557Y-142906059D01*
X110771713Y-142813942D01*
X110775500Y-142804800D01*
X110775500Y-141356389D01*
X111354200Y-141356389D01*
X111354200Y-141483610D01*
X111378419Y-141605368D01*
X111379017Y-141608373D01*
X111379332Y-141609133D01*
X111427697Y-141725898D01*
X111427702Y-141725907D01*
X111498373Y-141831673D01*
X111498376Y-141831677D01*
X111588322Y-141921623D01*
X111588326Y-141921626D01*
X111694092Y-141992297D01*
X111694098Y-141992300D01*
X111694099Y-141992301D01*
X111811627Y-142040983D01*
X111901192Y-142058798D01*
X111936389Y-142065799D01*
X111936393Y-142065800D01*
X111936394Y-142065800D01*
X112063607Y-142065800D01*
X112063608Y-142065799D01*
X112188373Y-142040983D01*
X112305901Y-141992301D01*
X112411674Y-141921626D01*
X112501626Y-141831674D01*
X112572301Y-141725901D01*
X112620983Y-141608373D01*
X112645800Y-141483606D01*
X112645800Y-141356394D01*
X112620983Y-141231627D01*
X112572301Y-141114099D01*
X112572300Y-141114098D01*
X112572297Y-141114092D01*
X112501626Y-141008326D01*
X112501623Y-141008322D01*
X112411677Y-140918376D01*
X112411673Y-140918373D01*
X112305907Y-140847702D01*
X112305898Y-140847697D01*
X112210081Y-140808008D01*
X112188373Y-140799017D01*
X112188369Y-140799016D01*
X112188365Y-140799015D01*
X112063610Y-140774200D01*
X112063606Y-140774200D01*
X111936394Y-140774200D01*
X111936389Y-140774200D01*
X111811634Y-140799015D01*
X111811624Y-140799018D01*
X111694101Y-140847697D01*
X111694092Y-140847702D01*
X111588326Y-140918373D01*
X111588322Y-140918376D01*
X111498376Y-141008322D01*
X111498373Y-141008326D01*
X111427702Y-141114092D01*
X111427697Y-141114101D01*
X111379018Y-141231624D01*
X111379015Y-141231634D01*
X111354200Y-141356389D01*
X110775500Y-141356389D01*
X110775500Y-141330788D01*
X110795185Y-141263749D01*
X110830611Y-141227685D01*
X110834552Y-141225052D01*
X110878867Y-141158731D01*
X110878867Y-141158729D01*
X110878868Y-141158729D01*
X110890499Y-141100252D01*
X110890500Y-141100250D01*
X110890500Y-140850478D01*
X110910185Y-140783439D01*
X110926819Y-140762796D01*
X110930748Y-140758867D01*
X111033557Y-140656059D01*
X111063588Y-140583557D01*
X111071259Y-140565037D01*
X111115104Y-140510638D01*
X111181400Y-140488579D01*
X111185816Y-140488500D01*
X111252250Y-140488500D01*
X111252251Y-140488499D01*
X111271005Y-140484769D01*
X111310729Y-140476868D01*
X111310729Y-140476867D01*
X111310731Y-140476867D01*
X111377052Y-140432552D01*
X111421367Y-140366231D01*
X111421367Y-140366229D01*
X111421368Y-140366229D01*
X111432999Y-140307752D01*
X111433000Y-140307750D01*
X111433000Y-139988249D01*
X111419860Y-139922192D01*
X111419860Y-139913850D01*
X111417970Y-139909046D01*
X111419861Y-139873803D01*
X111422547Y-139860303D01*
X111454935Y-139798393D01*
X111515652Y-139763822D01*
X111544163Y-139760500D01*
X112921975Y-139760500D01*
X112983976Y-139777114D01*
X113069706Y-139826611D01*
X113069707Y-139826611D01*
X113069712Y-139826614D01*
X113158856Y-139850500D01*
X113158858Y-139850500D01*
X113251142Y-139850500D01*
X113251144Y-139850500D01*
X113340288Y-139826614D01*
X113420212Y-139780469D01*
X113485469Y-139715212D01*
X113531614Y-139635288D01*
X113555500Y-139546144D01*
X113555500Y-139453856D01*
X113531614Y-139364712D01*
X113531611Y-139364706D01*
X113485473Y-139284794D01*
X113485470Y-139284791D01*
X113485469Y-139284788D01*
X113420212Y-139219531D01*
X113420209Y-139219529D01*
X113420205Y-139219526D01*
X113340293Y-139173388D01*
X113332784Y-139170278D01*
X113334044Y-139167233D01*
X113287491Y-139138829D01*
X113256990Y-139075969D01*
X113265315Y-139006597D01*
X113271889Y-138993470D01*
X113276614Y-138985288D01*
X113300500Y-138896144D01*
X113300500Y-138803856D01*
X113276614Y-138714712D01*
X113275105Y-138712098D01*
X113230473Y-138634794D01*
X113230470Y-138634791D01*
X113230469Y-138634788D01*
X113165212Y-138569531D01*
X113165209Y-138569529D01*
X113165205Y-138569526D01*
X113085293Y-138523388D01*
X113085290Y-138523387D01*
X113085289Y-138523386D01*
X113085288Y-138523386D01*
X112996144Y-138499500D01*
X112903856Y-138499500D01*
X112814712Y-138523386D01*
X112814711Y-138523386D01*
X112814709Y-138523387D01*
X112814706Y-138523388D01*
X112734794Y-138569526D01*
X112734785Y-138569533D01*
X112669533Y-138634785D01*
X112669526Y-138634794D01*
X112623388Y-138714706D01*
X112623387Y-138714709D01*
X112623386Y-138714711D01*
X112623386Y-138714712D01*
X112599500Y-138803856D01*
X112599500Y-138896144D01*
X112623385Y-138985286D01*
X112623387Y-138985290D01*
X112623388Y-138985293D01*
X112662768Y-139053499D01*
X112679242Y-139121398D01*
X112656390Y-139187426D01*
X112601470Y-139230617D01*
X112555382Y-139239500D01*
X111755113Y-139239500D01*
X111688074Y-139219815D01*
X111642319Y-139167011D01*
X111640553Y-139162955D01*
X111625841Y-139127440D01*
X111625841Y-139127439D01*
X111552561Y-139054159D01*
X111552559Y-139054158D01*
X111497783Y-139031468D01*
X111443380Y-138987626D01*
X111423620Y-138941097D01*
X111421367Y-138929769D01*
X111398899Y-138896144D01*
X111377052Y-138863447D01*
X111310730Y-138819132D01*
X111310729Y-138819131D01*
X111252252Y-138807500D01*
X111252248Y-138807500D01*
X111077251Y-138807500D01*
X111075669Y-138807035D01*
X111074077Y-138807459D01*
X111042268Y-138797227D01*
X111010212Y-138787815D01*
X111008629Y-138786408D01*
X111007563Y-138786065D01*
X111002461Y-138780923D01*
X110981490Y-138762277D01*
X110972420Y-138751252D01*
X110970841Y-138747439D01*
X110962059Y-138738657D01*
X110958237Y-138734011D01*
X110954487Y-138725211D01*
X110939437Y-138702687D01*
X110899939Y-138607332D01*
X110890500Y-138559879D01*
X110890500Y-138195749D01*
X110890499Y-138195747D01*
X110878868Y-138137270D01*
X110878867Y-138137269D01*
X110834552Y-138070947D01*
X110768230Y-138026632D01*
X110755918Y-138024183D01*
X110694007Y-137991798D01*
X110665550Y-137950021D01*
X110645841Y-137902439D01*
X110572561Y-137829159D01*
X110572560Y-137829158D01*
X110563923Y-137820521D01*
X110537344Y-137793942D01*
X110497561Y-137754159D01*
X110401817Y-137714500D01*
X110284500Y-137714500D01*
X110275814Y-137711949D01*
X110266853Y-137713238D01*
X110242812Y-137702259D01*
X110217461Y-137694815D01*
X110211533Y-137687974D01*
X110203297Y-137684213D01*
X110189007Y-137661978D01*
X110171706Y-137642011D01*
X110169418Y-137631496D01*
X110165523Y-137625435D01*
X110160500Y-137590500D01*
X110160500Y-137433024D01*
X110177114Y-137371022D01*
X110185754Y-137356059D01*
X110226614Y-137285288D01*
X110250500Y-137196144D01*
X110250500Y-137103856D01*
X110226614Y-137014712D01*
X110225976Y-137013607D01*
X110180473Y-136934794D01*
X110180470Y-136934791D01*
X110180469Y-136934788D01*
X110115212Y-136869531D01*
X110115209Y-136869529D01*
X110115205Y-136869526D01*
X110035293Y-136823388D01*
X110035290Y-136823387D01*
X110035289Y-136823386D01*
X110035288Y-136823386D01*
X109946144Y-136799500D01*
X109936292Y-136799500D01*
X109869253Y-136779815D01*
X109823498Y-136727011D01*
X109813554Y-136657853D01*
X109823164Y-136624726D01*
X109829901Y-136609714D01*
X109833557Y-136606059D01*
X109856985Y-136549499D01*
X109875500Y-136504800D01*
X109875500Y-136276389D01*
X110338200Y-136276389D01*
X110338200Y-136403610D01*
X110363015Y-136528365D01*
X110363018Y-136528375D01*
X110411697Y-136645898D01*
X110411702Y-136645907D01*
X110482373Y-136751673D01*
X110482376Y-136751677D01*
X110572322Y-136841623D01*
X110572326Y-136841626D01*
X110678092Y-136912297D01*
X110678098Y-136912300D01*
X110678099Y-136912301D01*
X110795627Y-136960983D01*
X110920389Y-136985799D01*
X110920393Y-136985800D01*
X110920394Y-136985800D01*
X111047607Y-136985800D01*
X111047608Y-136985799D01*
X111172373Y-136960983D01*
X111289901Y-136912301D01*
X111395674Y-136841626D01*
X111485626Y-136751674D01*
X111556301Y-136645901D01*
X111604983Y-136528373D01*
X111629800Y-136403606D01*
X111629800Y-136276394D01*
X111629799Y-136276389D01*
X112370200Y-136276389D01*
X112370200Y-136403610D01*
X112395015Y-136528365D01*
X112395018Y-136528375D01*
X112443697Y-136645898D01*
X112443702Y-136645907D01*
X112514373Y-136751673D01*
X112514376Y-136751677D01*
X112604322Y-136841623D01*
X112604326Y-136841626D01*
X112710092Y-136912297D01*
X112710098Y-136912300D01*
X112710099Y-136912301D01*
X112827627Y-136960983D01*
X112952389Y-136985799D01*
X112952393Y-136985800D01*
X112952394Y-136985800D01*
X113079607Y-136985800D01*
X113079608Y-136985799D01*
X113204373Y-136960983D01*
X113321901Y-136912301D01*
X113427674Y-136841626D01*
X113517626Y-136751674D01*
X113588301Y-136645901D01*
X113636983Y-136528373D01*
X113661800Y-136403606D01*
X113661800Y-136276394D01*
X113636983Y-136151627D01*
X113588301Y-136034099D01*
X113588300Y-136034098D01*
X113588297Y-136034092D01*
X113517626Y-135928326D01*
X113517623Y-135928322D01*
X113427677Y-135838376D01*
X113427673Y-135838373D01*
X113321907Y-135767702D01*
X113321898Y-135767697D01*
X113204375Y-135719018D01*
X113204376Y-135719018D01*
X113204373Y-135719017D01*
X113204369Y-135719016D01*
X113204365Y-135719015D01*
X113079610Y-135694200D01*
X113079606Y-135694200D01*
X112952394Y-135694200D01*
X112952389Y-135694200D01*
X112827634Y-135719015D01*
X112827624Y-135719018D01*
X112710101Y-135767697D01*
X112710092Y-135767702D01*
X112604326Y-135838373D01*
X112604322Y-135838376D01*
X112514376Y-135928322D01*
X112514373Y-135928326D01*
X112443702Y-136034092D01*
X112443697Y-136034101D01*
X112395018Y-136151624D01*
X112395015Y-136151634D01*
X112370200Y-136276389D01*
X111629799Y-136276389D01*
X111604983Y-136151627D01*
X111556301Y-136034099D01*
X111556300Y-136034098D01*
X111556297Y-136034092D01*
X111485626Y-135928326D01*
X111485623Y-135928322D01*
X111395677Y-135838376D01*
X111395673Y-135838373D01*
X111289907Y-135767702D01*
X111289898Y-135767697D01*
X111172375Y-135719018D01*
X111172376Y-135719018D01*
X111172373Y-135719017D01*
X111172369Y-135719016D01*
X111172365Y-135719015D01*
X111047610Y-135694200D01*
X111047606Y-135694200D01*
X110920394Y-135694200D01*
X110920389Y-135694200D01*
X110795634Y-135719015D01*
X110795624Y-135719018D01*
X110678101Y-135767697D01*
X110678092Y-135767702D01*
X110572326Y-135838373D01*
X110572322Y-135838376D01*
X110482376Y-135928322D01*
X110482373Y-135928326D01*
X110411702Y-136034092D01*
X110411697Y-136034101D01*
X110363018Y-136151624D01*
X110363015Y-136151634D01*
X110338200Y-136276389D01*
X109875500Y-136276389D01*
X109875500Y-135865477D01*
X109895185Y-135798438D01*
X109911819Y-135777796D01*
X109945044Y-135744571D01*
X109983558Y-135706057D01*
X110013588Y-135633556D01*
X110025500Y-135604799D01*
X110025500Y-135492231D01*
X110026349Y-135485014D01*
X110037307Y-135459287D01*
X110045185Y-135432461D01*
X110050812Y-135427584D01*
X110053731Y-135420733D01*
X110076859Y-135405014D01*
X110097989Y-135386706D01*
X110106535Y-135384846D01*
X110111519Y-135381460D01*
X110123522Y-135381151D01*
X110149500Y-135375500D01*
X110254798Y-135375500D01*
X110254799Y-135375500D01*
X110307052Y-135353856D01*
X110356057Y-135333558D01*
X110434349Y-135255265D01*
X110441798Y-135249763D01*
X110466262Y-135240814D01*
X110489119Y-135228334D01*
X110505074Y-135226618D01*
X110507416Y-135225762D01*
X110509238Y-135226170D01*
X110515477Y-135225500D01*
X110704798Y-135225500D01*
X110704799Y-135225500D01*
X110806057Y-135183557D01*
X110883556Y-135106058D01*
X113283557Y-132706057D01*
X113293546Y-132681941D01*
X113325500Y-132604799D01*
X113325500Y-132415477D01*
X113331793Y-132394045D01*
X113333458Y-132371771D01*
X113342409Y-132357891D01*
X113345185Y-132348438D01*
X113350472Y-132340849D01*
X113355689Y-132333925D01*
X113433557Y-132256058D01*
X113450929Y-132214115D01*
X113475499Y-132154800D01*
X113475499Y-128515478D01*
X113495184Y-128448439D01*
X113498701Y-128443258D01*
X113504626Y-128434988D01*
X113583557Y-128356058D01*
X113608765Y-128295200D01*
X113625500Y-128254799D01*
X113625500Y-115695200D01*
X113583557Y-115593942D01*
X113506058Y-115516443D01*
X113501760Y-115512145D01*
X113468275Y-115450822D01*
X113473259Y-115381130D01*
X113482055Y-115362463D01*
X113526610Y-115285292D01*
X113526609Y-115285292D01*
X113526613Y-115285287D01*
X113550499Y-115196143D01*
X113550499Y-115103855D01*
X113526613Y-115014711D01*
X113524943Y-115011818D01*
X113480472Y-114934793D01*
X113480469Y-114934790D01*
X113480468Y-114934787D01*
X113415211Y-114869530D01*
X113415208Y-114869528D01*
X113415204Y-114869525D01*
X113335292Y-114823387D01*
X113335291Y-114823386D01*
X113334185Y-114823089D01*
X113325811Y-114820846D01*
X113266153Y-114784482D01*
X113235624Y-114721635D01*
X113234457Y-114689402D01*
X113235436Y-114679044D01*
X113250500Y-114622827D01*
X113250500Y-114533171D01*
X113250499Y-114533167D01*
X113250499Y-114503856D01*
X113226613Y-114414712D01*
X113203488Y-114374660D01*
X113187016Y-114306761D01*
X113203488Y-114250661D01*
X113227295Y-114209427D01*
X113250500Y-114122827D01*
X113250500Y-114033171D01*
X113234041Y-113971750D01*
X113234041Y-113907566D01*
X113250499Y-113846144D01*
X113250499Y-113753856D01*
X113226613Y-113664712D01*
X113222071Y-113656845D01*
X113180472Y-113584794D01*
X113180469Y-113584791D01*
X113180468Y-113584788D01*
X113115211Y-113519531D01*
X113115208Y-113519529D01*
X113115204Y-113519526D01*
X113035292Y-113473388D01*
X113035289Y-113473387D01*
X113035288Y-113473386D01*
X113035287Y-113473386D01*
X112946143Y-113449500D01*
X112853855Y-113449500D01*
X112764711Y-113473386D01*
X112764710Y-113473386D01*
X112764708Y-113473387D01*
X112764705Y-113473388D01*
X112684793Y-113519526D01*
X112684784Y-113519533D01*
X112619532Y-113584785D01*
X112619525Y-113584794D01*
X112569320Y-113671751D01*
X112567218Y-113670537D01*
X112566306Y-113671669D01*
X112561899Y-113684704D01*
X112544813Y-113698338D01*
X112531098Y-113715357D01*
X112516899Y-113720613D01*
X112507287Y-113728285D01*
X112483629Y-113732932D01*
X112473048Y-113736850D01*
X112466728Y-113737499D01*
X112445172Y-113737499D01*
X112431777Y-113741088D01*
X112421915Y-113742101D01*
X112396909Y-113737466D01*
X112371486Y-113736860D01*
X112363133Y-113731206D01*
X112353216Y-113729368D01*
X112334686Y-113711951D01*
X112313625Y-113697695D01*
X112309654Y-113688422D01*
X112302306Y-113681515D01*
X112296134Y-113656845D01*
X112286124Y-113633465D01*
X112287049Y-113620529D01*
X112285350Y-113613734D01*
X112288123Y-113605531D01*
X112289474Y-113586653D01*
X112290500Y-113582827D01*
X112290500Y-113073171D01*
X112267295Y-112986571D01*
X112222468Y-112908927D01*
X112159072Y-112845531D01*
X112159071Y-112845530D01*
X112081428Y-112800704D01*
X112081429Y-112800704D01*
X112052561Y-112792969D01*
X111994828Y-112777499D01*
X111905172Y-112777499D01*
X111830544Y-112797495D01*
X111760695Y-112795833D01*
X111702832Y-112756671D01*
X111682554Y-112721811D01*
X111675499Y-112703266D01*
X111675499Y-112695200D01*
X111638575Y-112606058D01*
X111633557Y-112593942D01*
X111633555Y-112593940D01*
X111633554Y-112593938D01*
X111561818Y-112522201D01*
X111528333Y-112460878D01*
X111525500Y-112434521D01*
X111525500Y-112395200D01*
X111525499Y-112395196D01*
X111492996Y-112316728D01*
X111492996Y-112316727D01*
X111483557Y-112293940D01*
X111464484Y-112274867D01*
X111256058Y-112066442D01*
X111184457Y-112036784D01*
X111169628Y-112030642D01*
X111154801Y-112024500D01*
X111154800Y-112024500D01*
X110365476Y-112024500D01*
X110298437Y-112004815D01*
X110277795Y-111988181D01*
X110209114Y-111919500D01*
X109906059Y-111616443D01*
X109906058Y-111616442D01*
X109906057Y-111616441D01*
X109876402Y-111604159D01*
X109876399Y-111604156D01*
X109876399Y-111604157D01*
X109804800Y-111574500D01*
X108540500Y-111574500D01*
X108473461Y-111554815D01*
X108427706Y-111502011D01*
X108416500Y-111450500D01*
X108416500Y-110994249D01*
X108416499Y-110994247D01*
X108404868Y-110935770D01*
X108404867Y-110935769D01*
X108360552Y-110869447D01*
X108284077Y-110818348D01*
X108286013Y-110815450D01*
X108247641Y-110784527D01*
X108225578Y-110718232D01*
X108225499Y-110713809D01*
X108225499Y-110086190D01*
X108245184Y-110019151D01*
X108285684Y-109984057D01*
X108284077Y-109981652D01*
X108360552Y-109930552D01*
X108371172Y-109914658D01*
X108404867Y-109864231D01*
X108404867Y-109864229D01*
X108404868Y-109864229D01*
X108416499Y-109805752D01*
X108416500Y-109805750D01*
X108416500Y-109566055D01*
X108436185Y-109499016D01*
X108488989Y-109453261D01*
X108558147Y-109443317D01*
X108564691Y-109444438D01*
X108610247Y-109453499D01*
X108610250Y-109453500D01*
X108610252Y-109453500D01*
X109189750Y-109453500D01*
X109189751Y-109453499D01*
X109204568Y-109450552D01*
X109248229Y-109441868D01*
X109248229Y-109441867D01*
X109248231Y-109441867D01*
X109314552Y-109397552D01*
X109358867Y-109331231D01*
X109358867Y-109331229D01*
X109358868Y-109331229D01*
X109370499Y-109272752D01*
X109370500Y-109272750D01*
X109370500Y-108726541D01*
X109390185Y-108659502D01*
X109392435Y-108656123D01*
X109398840Y-108646838D01*
X109430468Y-108615211D01*
X109476613Y-108535287D01*
X109477127Y-108533368D01*
X109483596Y-108523992D01*
X109507017Y-108505002D01*
X109528842Y-108484194D01*
X109534324Y-108482864D01*
X109537869Y-108479990D01*
X109553118Y-108478304D01*
X109585661Y-108470410D01*
X109699899Y-108470410D01*
X109699899Y-108470409D01*
X109778539Y-108454768D01*
X109817430Y-108438659D01*
X109821847Y-108435884D01*
X109833121Y-108428799D01*
X109875724Y-108402030D01*
X109928647Y-108327442D01*
X109944756Y-108288551D01*
X109960398Y-108209910D01*
X109960398Y-106923002D01*
X109980083Y-106855963D01*
X110032887Y-106810208D01*
X110052297Y-106803229D01*
X110102836Y-106789688D01*
X110222665Y-106720505D01*
X110320505Y-106622665D01*
X110389688Y-106502836D01*
X110425500Y-106369183D01*
X110425500Y-106230817D01*
X110389688Y-106097164D01*
X110320505Y-105977335D01*
X110222665Y-105879495D01*
X110222664Y-105879494D01*
X110222661Y-105879492D01*
X110102838Y-105810313D01*
X110102837Y-105810312D01*
X110102836Y-105810312D01*
X109969183Y-105774500D01*
X109830817Y-105774500D01*
X109697164Y-105810312D01*
X109697161Y-105810313D01*
X109577338Y-105879492D01*
X109577333Y-105879496D01*
X109479496Y-105977333D01*
X109479492Y-105977338D01*
X109410313Y-106097161D01*
X109410312Y-106097164D01*
X109374500Y-106230817D01*
X109374500Y-106369182D01*
X109407776Y-106493370D01*
X109406113Y-106563219D01*
X109366950Y-106621082D01*
X109302722Y-106648586D01*
X109288001Y-106649463D01*
X109099920Y-106649463D01*
X109021290Y-106665103D01*
X109021279Y-106665106D01*
X108982391Y-106681214D01*
X108982386Y-106681216D01*
X108967622Y-106690494D01*
X108901651Y-106709500D01*
X108580252Y-106709500D01*
X108524190Y-106720651D01*
X108475810Y-106720651D01*
X108419748Y-106709500D01*
X108080252Y-106709500D01*
X108024190Y-106720651D01*
X107975810Y-106720651D01*
X107919748Y-106709500D01*
X107580252Y-106709500D01*
X107580245Y-106709500D01*
X107576812Y-106709838D01*
X107575030Y-106709500D01*
X107574160Y-106709500D01*
X107574160Y-106709334D01*
X107508167Y-106696817D01*
X107457458Y-106648750D01*
X107450104Y-106633891D01*
X107445454Y-106622665D01*
X107433557Y-106593942D01*
X107433555Y-106593940D01*
X107433555Y-106593939D01*
X107206061Y-106366444D01*
X107206059Y-106366443D01*
X107164116Y-106349069D01*
X107164115Y-106349068D01*
X107104803Y-106324501D01*
X107104801Y-106324500D01*
X107104800Y-106324500D01*
X106395199Y-106324500D01*
X106395197Y-106324500D01*
X106395195Y-106324501D01*
X106335883Y-106349068D01*
X106335883Y-106349069D01*
X106309433Y-106360025D01*
X106293937Y-106366444D01*
X106066443Y-106593939D01*
X106054546Y-106622663D01*
X106054544Y-106622667D01*
X106049895Y-106633890D01*
X106006053Y-106688293D01*
X105939758Y-106710356D01*
X105923183Y-106709838D01*
X105919751Y-106709500D01*
X105919748Y-106709500D01*
X105580252Y-106709500D01*
X105524190Y-106720651D01*
X105475810Y-106720651D01*
X105419748Y-106709500D01*
X105096856Y-106709500D01*
X105029817Y-106689815D01*
X105025101Y-106686630D01*
X105017684Y-106681367D01*
X105017682Y-106681366D01*
X104978796Y-106665259D01*
X104978794Y-106665258D01*
X104978793Y-106665258D01*
X104978790Y-106665257D01*
X104978785Y-106665256D01*
X104900155Y-106649616D01*
X104900152Y-106649616D01*
X104711958Y-106649616D01*
X104644919Y-106629931D01*
X104599164Y-106577127D01*
X104589220Y-106507969D01*
X104592183Y-106493523D01*
X104592224Y-106493370D01*
X104625500Y-106369183D01*
X104625500Y-106230817D01*
X104589688Y-106097164D01*
X104520505Y-105977335D01*
X104422665Y-105879495D01*
X104422664Y-105879494D01*
X104422661Y-105879492D01*
X104302838Y-105810313D01*
X104302837Y-105810312D01*
X104302836Y-105810312D01*
X104169183Y-105774500D01*
X104030817Y-105774500D01*
X103897164Y-105810312D01*
X103897161Y-105810313D01*
X103777338Y-105879492D01*
X103777333Y-105879496D01*
X103679496Y-105977333D01*
X103679492Y-105977338D01*
X103610313Y-106097161D01*
X103610312Y-106097164D01*
X103574500Y-106230817D01*
X103574500Y-106369182D01*
X103610312Y-106502835D01*
X103610313Y-106502838D01*
X103679492Y-106622661D01*
X103679494Y-106622663D01*
X103679495Y-106622665D01*
X103777335Y-106720505D01*
X103777336Y-106720506D01*
X103777338Y-106720507D01*
X103837249Y-106755096D01*
X103897164Y-106789688D01*
X103947722Y-106803235D01*
X104007381Y-106839599D01*
X104037911Y-106902445D01*
X104039628Y-106923009D01*
X104039628Y-108210091D01*
X104055235Y-108288554D01*
X104055270Y-108288729D01*
X104065061Y-108312368D01*
X104066687Y-108320542D01*
X104069477Y-108324883D01*
X104074500Y-108359818D01*
X104074500Y-108384521D01*
X104054815Y-108451560D01*
X104038181Y-108472202D01*
X103542202Y-108968181D01*
X103480879Y-109001666D01*
X103454521Y-109004500D01*
X102851747Y-109004500D01*
X102793270Y-109016131D01*
X102793269Y-109016132D01*
X102726947Y-109060447D01*
X102682632Y-109126769D01*
X102682631Y-109126770D01*
X102671000Y-109185247D01*
X102671000Y-109530957D01*
X102665368Y-109550136D01*
X102664655Y-109570115D01*
X102655725Y-109582976D01*
X102651315Y-109597996D01*
X102636209Y-109611085D01*
X102624807Y-109627508D01*
X102600854Y-109641720D01*
X102598511Y-109643751D01*
X102594454Y-109645518D01*
X102544590Y-109666173D01*
X102543956Y-109666430D01*
X102543941Y-109666440D01*
X102326518Y-109883867D01*
X102316442Y-109893943D01*
X102301278Y-109930552D01*
X102292990Y-109950560D01*
X102274500Y-109995198D01*
X102274500Y-110854802D01*
X102285015Y-110880186D01*
X102292484Y-110949655D01*
X102261209Y-111012134D01*
X102201121Y-111047787D01*
X102174067Y-111051586D01*
X102155908Y-111052115D01*
X102146144Y-111049499D01*
X102053856Y-111049499D01*
X102030442Y-111055772D01*
X102015956Y-111056195D01*
X101995611Y-111050860D01*
X101974584Y-111050359D01*
X101962494Y-111042176D01*
X101948372Y-111038473D01*
X101934139Y-111022984D01*
X101916722Y-111011195D01*
X101909241Y-111001138D01*
X101882053Y-110960448D01*
X101815730Y-110916132D01*
X101815729Y-110916131D01*
X101757252Y-110904500D01*
X101757248Y-110904500D01*
X100624500Y-110904500D01*
X100557461Y-110884815D01*
X100511706Y-110832011D01*
X100500500Y-110780500D01*
X100500500Y-110019500D01*
X100520185Y-109952461D01*
X100572989Y-109906706D01*
X100624500Y-109895500D01*
X101757250Y-109895500D01*
X101757251Y-109895499D01*
X101772068Y-109892552D01*
X101815729Y-109883868D01*
X101815729Y-109883867D01*
X101815731Y-109883867D01*
X101882052Y-109839552D01*
X101926367Y-109773231D01*
X101926367Y-109773229D01*
X101926368Y-109773229D01*
X101937999Y-109714752D01*
X101938000Y-109714750D01*
X101938000Y-109185249D01*
X101937999Y-109185247D01*
X101926368Y-109126770D01*
X101926367Y-109126769D01*
X101882052Y-109060447D01*
X101815730Y-109016132D01*
X101815729Y-109016131D01*
X101757252Y-109004500D01*
X101757248Y-109004500D01*
X100624500Y-109004500D01*
X100557461Y-108984815D01*
X100511706Y-108932011D01*
X100500500Y-108880500D01*
X100500500Y-100624500D01*
X100520185Y-100557461D01*
X100572989Y-100511706D01*
X100624500Y-100500500D01*
X115375500Y-100500500D01*
X115442539Y-100520185D01*
G37*
%TD.AperFunction*%
%TA.AperFunction,Conductor*%
G36*
X107540166Y-140715127D02*
G01*
X107543891Y-140717521D01*
X107615923Y-140765652D01*
X107613986Y-140768550D01*
X107652354Y-140799468D01*
X107674420Y-140865762D01*
X107674499Y-140870190D01*
X107674499Y-141497809D01*
X107654814Y-141564848D01*
X107614314Y-141599940D01*
X107615923Y-141602348D01*
X107539447Y-141653447D01*
X107495132Y-141719769D01*
X107495131Y-141719770D01*
X107483500Y-141778247D01*
X107483500Y-142818456D01*
X107463815Y-142885495D01*
X107411011Y-142931250D01*
X107341853Y-142941194D01*
X107278297Y-142912169D01*
X107271819Y-142906137D01*
X107263333Y-142897651D01*
X107263331Y-142897649D01*
X107263328Y-142897647D01*
X107263324Y-142897644D01*
X107183412Y-142851506D01*
X107183409Y-142851505D01*
X107183408Y-142851504D01*
X107183407Y-142851504D01*
X107094263Y-142827618D01*
X107001975Y-142827618D01*
X106912831Y-142851504D01*
X106912830Y-142851504D01*
X106912828Y-142851505D01*
X106912825Y-142851506D01*
X106832913Y-142897644D01*
X106832904Y-142897651D01*
X106767652Y-142962903D01*
X106767647Y-142962909D01*
X106737819Y-143014572D01*
X106716165Y-143035218D01*
X106718413Y-143045368D01*
X106714433Y-143056160D01*
X106714472Y-143069077D01*
X106710412Y-143084228D01*
X106697619Y-143131974D01*
X106697619Y-143224262D01*
X106720015Y-143307846D01*
X106721506Y-143313408D01*
X106721507Y-143313411D01*
X106767645Y-143393323D01*
X106767648Y-143393327D01*
X106767650Y-143393330D01*
X106832907Y-143458587D01*
X106832910Y-143458588D01*
X106832913Y-143458591D01*
X106912825Y-143504729D01*
X106912826Y-143504729D01*
X106912831Y-143504732D01*
X107001975Y-143528618D01*
X107001977Y-143528618D01*
X107094261Y-143528618D01*
X107094263Y-143528618D01*
X107183407Y-143504732D01*
X107263331Y-143458587D01*
X107328588Y-143393330D01*
X107374733Y-143313406D01*
X107398619Y-143224262D01*
X107398619Y-143152441D01*
X107401094Y-143144010D01*
X107399807Y-143135320D01*
X107410786Y-143111001D01*
X107418304Y-143085402D01*
X107424943Y-143079649D01*
X107428559Y-143071641D01*
X107450944Y-143057118D01*
X107471108Y-143039647D01*
X107479804Y-143038396D01*
X107487175Y-143033615D01*
X107513855Y-143033500D01*
X107540266Y-143029703D01*
X107550094Y-143033344D01*
X107557044Y-143033315D01*
X107584642Y-143046146D01*
X107589211Y-143047839D01*
X107590347Y-143048562D01*
X107605769Y-143058867D01*
X107606881Y-143059088D01*
X107617091Y-143065588D01*
X107633243Y-143084067D01*
X107652354Y-143099468D01*
X107655829Y-143109909D01*
X107663072Y-143118196D01*
X107666668Y-143142474D01*
X107674420Y-143165762D01*
X107674499Y-143170190D01*
X107674499Y-144084523D01*
X107654814Y-144151562D01*
X107638180Y-144172204D01*
X107566444Y-144243939D01*
X107524500Y-144345198D01*
X107524500Y-145884521D01*
X107504815Y-145951560D01*
X107488181Y-145972202D01*
X107272203Y-146188181D01*
X107210880Y-146221666D01*
X107184522Y-146224500D01*
X106474500Y-146224500D01*
X106407461Y-146204815D01*
X106361706Y-146152011D01*
X106350500Y-146100500D01*
X106350500Y-146003856D01*
X106350500Y-146003855D01*
X106326614Y-145914711D01*
X106292112Y-145854954D01*
X106275500Y-145792954D01*
X106275500Y-143184248D01*
X106295185Y-143117209D01*
X106324819Y-143085259D01*
X106347473Y-143068167D01*
X106394231Y-143058867D01*
X106460552Y-143014552D01*
X106503260Y-142950635D01*
X106509993Y-142945556D01*
X106508816Y-142928377D01*
X106516500Y-142889749D01*
X106516500Y-141778249D01*
X106516499Y-141778247D01*
X106504868Y-141719770D01*
X106504867Y-141719769D01*
X106460552Y-141653447D01*
X106394230Y-141609132D01*
X106375307Y-141605368D01*
X106313397Y-141572982D01*
X106278823Y-141512266D01*
X106275500Y-141483751D01*
X106275500Y-140884248D01*
X106295185Y-140817209D01*
X106343429Y-140773649D01*
X106358610Y-140765952D01*
X106394231Y-140758867D01*
X106460552Y-140714552D01*
X106460836Y-140714126D01*
X106468929Y-140710024D01*
X106496262Y-140704948D01*
X106522786Y-140696643D01*
X106530132Y-140698658D01*
X106537625Y-140697267D01*
X106563362Y-140707774D01*
X106590166Y-140715127D01*
X106593891Y-140717521D01*
X106655769Y-140758867D01*
X106655770Y-140758868D01*
X106714247Y-140770499D01*
X106714250Y-140770500D01*
X106714252Y-140770500D01*
X107285750Y-140770500D01*
X107285751Y-140770499D01*
X107310121Y-140765652D01*
X107344229Y-140758868D01*
X107344229Y-140758867D01*
X107344231Y-140758867D01*
X107406109Y-140717521D01*
X107472786Y-140696643D01*
X107540166Y-140715127D01*
G37*
%TD.AperFunction*%
%TA.AperFunction,Conductor*%
G36*
X100648692Y-141317255D02*
G01*
X100710249Y-141329500D01*
X100710252Y-141329500D01*
X100988522Y-141329500D01*
X101055561Y-141349185D01*
X101076203Y-141365819D01*
X101713181Y-142002796D01*
X101746666Y-142064119D01*
X101749500Y-142090477D01*
X101749500Y-142783752D01*
X101761131Y-142842229D01*
X101761132Y-142842230D01*
X101805447Y-142908552D01*
X101871769Y-142952867D01*
X101871770Y-142952868D01*
X101930247Y-142964499D01*
X101930250Y-142964500D01*
X101930252Y-142964500D01*
X102096521Y-142964500D01*
X102163560Y-142984185D01*
X102209315Y-143036989D01*
X102219259Y-143106147D01*
X102190234Y-143169703D01*
X102184202Y-143176181D01*
X101762203Y-143598181D01*
X101700880Y-143631666D01*
X101674522Y-143634500D01*
X100848247Y-143634500D01*
X100789770Y-143646131D01*
X100789769Y-143646132D01*
X100723446Y-143690448D01*
X100714812Y-143699083D01*
X100712544Y-143696815D01*
X100673982Y-143729038D01*
X100604657Y-143737741D01*
X100541631Y-143707582D01*
X100504916Y-143648137D01*
X100500500Y-143615339D01*
X100500500Y-141438872D01*
X100520185Y-141371833D01*
X100572989Y-141326078D01*
X100642147Y-141316134D01*
X100648692Y-141317255D01*
G37*
%TD.AperFunction*%
%TA.AperFunction,Conductor*%
G36*
X105663772Y-140891118D02*
G01*
X105711383Y-140942255D01*
X105724500Y-140997761D01*
X105724500Y-141530338D01*
X105704815Y-141597377D01*
X105669391Y-141633440D01*
X105639447Y-141653447D01*
X105595132Y-141719769D01*
X105595131Y-141719770D01*
X105583500Y-141778247D01*
X105583500Y-142192943D01*
X105563815Y-142259982D01*
X105511011Y-142305737D01*
X105441853Y-142315681D01*
X105435311Y-142314561D01*
X105389749Y-142305499D01*
X105389748Y-142305499D01*
X105096476Y-142305499D01*
X105030913Y-142286749D01*
X105018849Y-142279234D01*
X104956058Y-142216443D01*
X104854800Y-142174500D01*
X104850716Y-142174500D01*
X104833937Y-142164048D01*
X104817211Y-142145286D01*
X104797643Y-142129517D01*
X104794360Y-142119653D01*
X104787443Y-142111894D01*
X104783516Y-142087070D01*
X104775579Y-142063222D01*
X104775500Y-142058798D01*
X104775500Y-141715476D01*
X104795185Y-141648437D01*
X104811819Y-141627795D01*
X105123480Y-141316134D01*
X105483557Y-140956058D01*
X105485938Y-140950310D01*
X105529778Y-140895906D01*
X105596072Y-140873840D01*
X105663772Y-140891118D01*
G37*
%TD.AperFunction*%
%TA.AperFunction,Conductor*%
G36*
X105419277Y-138845184D02*
G01*
X105465032Y-138897988D01*
X105474976Y-138967146D01*
X105445951Y-139030702D01*
X105399692Y-139064059D01*
X105393942Y-139066440D01*
X105393939Y-139066442D01*
X105016441Y-139443942D01*
X105003217Y-139475868D01*
X104995471Y-139494571D01*
X104995471Y-139494572D01*
X104974500Y-139545198D01*
X104974500Y-140634521D01*
X104954815Y-140701560D01*
X104938181Y-140722202D01*
X104622144Y-141038238D01*
X104560821Y-141071723D01*
X104491129Y-141066739D01*
X104472464Y-141057944D01*
X104455711Y-141048272D01*
X104395290Y-141013386D01*
X104335858Y-140997462D01*
X104306144Y-140989500D01*
X104213856Y-140989500D01*
X104124712Y-141013386D01*
X104124711Y-141013386D01*
X104124709Y-141013387D01*
X104124706Y-141013388D01*
X104044794Y-141059526D01*
X104044785Y-141059533D01*
X103979533Y-141124785D01*
X103979526Y-141124794D01*
X103933388Y-141204706D01*
X103933387Y-141204709D01*
X103933386Y-141204711D01*
X103933386Y-141204712D01*
X103916466Y-141267860D01*
X103909500Y-141293856D01*
X103909500Y-141345972D01*
X103889815Y-141413011D01*
X103837011Y-141458766D01*
X103831988Y-141460928D01*
X103821151Y-141465310D01*
X103771769Y-141475133D01*
X103733301Y-141500836D01*
X103721488Y-141505614D01*
X103698885Y-141507851D01*
X103677213Y-141514638D01*
X103664783Y-141511228D01*
X103651958Y-141512498D01*
X103631735Y-141502161D01*
X103609833Y-141496153D01*
X103606110Y-141493760D01*
X103578233Y-141475133D01*
X103578229Y-141475131D01*
X103519752Y-141463500D01*
X103519748Y-141463500D01*
X102880252Y-141463500D01*
X102880247Y-141463500D01*
X102821770Y-141475131D01*
X102821766Y-141475133D01*
X102793890Y-141493760D01*
X102727213Y-141514638D01*
X102659833Y-141496153D01*
X102656110Y-141493760D01*
X102628233Y-141475133D01*
X102628229Y-141475131D01*
X102569752Y-141463500D01*
X102569748Y-141463500D01*
X102004478Y-141463500D01*
X101937439Y-141443815D01*
X101916797Y-141427181D01*
X101506819Y-141017203D01*
X101498485Y-141001941D01*
X101486101Y-140989735D01*
X101480936Y-140969803D01*
X101473334Y-140955880D01*
X101474163Y-140943660D01*
X101470500Y-140929522D01*
X101470500Y-140697295D01*
X101490185Y-140630256D01*
X101542989Y-140584501D01*
X101612147Y-140574557D01*
X101641951Y-140582733D01*
X101643941Y-140583557D01*
X101643942Y-140583558D01*
X101715540Y-140613214D01*
X101715541Y-140613215D01*
X101745197Y-140625499D01*
X101745198Y-140625499D01*
X101745200Y-140625500D01*
X101745201Y-140625500D01*
X103804799Y-140625500D01*
X103804800Y-140625500D01*
X103891110Y-140589749D01*
X103891111Y-140589749D01*
X103899283Y-140586363D01*
X103906059Y-140583557D01*
X104133557Y-140356058D01*
X104139775Y-140341047D01*
X104183616Y-140286644D01*
X104249910Y-140264579D01*
X104254336Y-140264500D01*
X104469750Y-140264500D01*
X104469751Y-140264499D01*
X104484568Y-140261552D01*
X104528229Y-140252868D01*
X104528229Y-140252867D01*
X104528231Y-140252867D01*
X104594552Y-140208552D01*
X104638867Y-140142231D01*
X104638867Y-140142229D01*
X104638868Y-140142229D01*
X104650499Y-140083752D01*
X104650500Y-140083750D01*
X104650500Y-138949499D01*
X104670185Y-138882460D01*
X104722989Y-138836705D01*
X104774500Y-138825499D01*
X105352238Y-138825499D01*
X105419277Y-138845184D01*
G37*
%TD.AperFunction*%
%TA.AperFunction,Conductor*%
G36*
X108658581Y-138767979D02*
G01*
X108673109Y-138769018D01*
X108689975Y-138781644D01*
X108709292Y-138790052D01*
X108725887Y-138808526D01*
X108729043Y-138810889D01*
X108732878Y-138816309D01*
X108765447Y-138865052D01*
X108831769Y-138909367D01*
X108831770Y-138909368D01*
X108890247Y-138920999D01*
X108890250Y-138921000D01*
X108890252Y-138921000D01*
X109209750Y-138921000D01*
X109275808Y-138907860D01*
X109324192Y-138907860D01*
X109390249Y-138921000D01*
X109390252Y-138921000D01*
X109709750Y-138921000D01*
X109775808Y-138907860D01*
X109824192Y-138907860D01*
X109890249Y-138921000D01*
X109890252Y-138921000D01*
X110209750Y-138921000D01*
X110209751Y-138920999D01*
X110218605Y-138919238D01*
X110247210Y-138913549D01*
X110316801Y-138919776D01*
X110344834Y-138935248D01*
X110352420Y-138940823D01*
X110377438Y-138965841D01*
X110398115Y-138974405D01*
X110410216Y-138983299D01*
X110422658Y-138999617D01*
X110438638Y-139012495D01*
X110451344Y-139035764D01*
X110454159Y-139042561D01*
X110460946Y-139052719D01*
X110459711Y-139053543D01*
X110486664Y-139102898D01*
X110489500Y-139129264D01*
X110489500Y-139171817D01*
X110513856Y-139230617D01*
X110517561Y-139239560D01*
X110525805Y-139269839D01*
X110527000Y-139278383D01*
X110527000Y-139307748D01*
X110538633Y-139366231D01*
X110539458Y-139367466D01*
X110541327Y-139380825D01*
X110540140Y-139388860D01*
X110540140Y-139422190D01*
X110527000Y-139488252D01*
X110527000Y-139807747D01*
X110540140Y-139873810D01*
X110540140Y-139922190D01*
X110527000Y-139988252D01*
X110527000Y-140251000D01*
X110507315Y-140318039D01*
X110454511Y-140363794D01*
X110421478Y-140373616D01*
X110412294Y-140375000D01*
X110390252Y-140375000D01*
X110331769Y-140386633D01*
X110330798Y-140387281D01*
X110318478Y-140389138D01*
X110311187Y-140388140D01*
X110275810Y-140388140D01*
X110209748Y-140375000D01*
X109890252Y-140375000D01*
X109824190Y-140388140D01*
X109775810Y-140388140D01*
X109709748Y-140375000D01*
X109390252Y-140375000D01*
X109324190Y-140388140D01*
X109319318Y-140388253D01*
X109316815Y-140389377D01*
X109296938Y-140388777D01*
X109281522Y-140389138D01*
X109269201Y-140387281D01*
X109268231Y-140386633D01*
X109209748Y-140375000D01*
X109187706Y-140375000D01*
X109178522Y-140373616D01*
X109154922Y-140362644D01*
X109129961Y-140355315D01*
X109123757Y-140348156D01*
X109115164Y-140344161D01*
X109101242Y-140322171D01*
X109084206Y-140302511D01*
X109081803Y-140291469D01*
X109077789Y-140285128D01*
X109077868Y-140273379D01*
X109073000Y-140251000D01*
X109073000Y-139988249D01*
X109072999Y-139988247D01*
X109061368Y-139929770D01*
X109061367Y-139929769D01*
X109017052Y-139863447D01*
X108950730Y-139819132D01*
X108950729Y-139819131D01*
X108892252Y-139807500D01*
X108892248Y-139807500D01*
X108540500Y-139807500D01*
X108473461Y-139787815D01*
X108427706Y-139735011D01*
X108416500Y-139683500D01*
X108416500Y-139478249D01*
X108416499Y-139478247D01*
X108404868Y-139419771D01*
X108404866Y-139419768D01*
X108396397Y-139407092D01*
X108375520Y-139340414D01*
X108375500Y-139338203D01*
X108375500Y-139015477D01*
X108395185Y-138948438D01*
X108411813Y-138927801D01*
X108542098Y-138797516D01*
X108560585Y-138787421D01*
X108576259Y-138773343D01*
X108590635Y-138771013D01*
X108603417Y-138764034D01*
X108624432Y-138765536D01*
X108645229Y-138762167D01*
X108658581Y-138767979D01*
G37*
%TD.AperFunction*%
%TA.AperFunction,Conductor*%
G36*
X103592539Y-138845184D02*
G01*
X103638294Y-138897988D01*
X103649500Y-138949499D01*
X103649500Y-139910176D01*
X103640061Y-139957629D01*
X103623358Y-139997953D01*
X103579516Y-140052357D01*
X103513222Y-140074421D01*
X103508797Y-140074500D01*
X102874500Y-140074500D01*
X102807461Y-140054815D01*
X102761706Y-140002011D01*
X102750500Y-139950500D01*
X102750500Y-139390476D01*
X102770185Y-139323437D01*
X102786819Y-139302795D01*
X102858997Y-139230617D01*
X102933556Y-139156058D01*
X102938575Y-139143941D01*
X102975499Y-139054800D01*
X102975499Y-138949499D01*
X102995184Y-138882460D01*
X103047988Y-138836705D01*
X103099499Y-138825499D01*
X103525500Y-138825499D01*
X103592539Y-138845184D01*
G37*
%TD.AperFunction*%
%TA.AperFunction,Conductor*%
G36*
X101139561Y-120583184D02*
G01*
X101160203Y-120599818D01*
X101188181Y-120627796D01*
X101221666Y-120689119D01*
X101224500Y-120715477D01*
X101224500Y-120754801D01*
X101236411Y-120783554D01*
X101236411Y-120783557D01*
X101236413Y-120783557D01*
X101236413Y-120783558D01*
X101266442Y-120856057D01*
X101266444Y-120856059D01*
X101488181Y-121077796D01*
X101521666Y-121139119D01*
X101524500Y-121165477D01*
X101524500Y-122104800D01*
X101555998Y-122180841D01*
X101555997Y-122180841D01*
X101555998Y-122180842D01*
X101566440Y-122206052D01*
X101566441Y-122206054D01*
X101566443Y-122206058D01*
X101566445Y-122206060D01*
X101793181Y-122432797D01*
X101826666Y-122494120D01*
X101829500Y-122520478D01*
X101829500Y-122673752D01*
X101841131Y-122732229D01*
X101841132Y-122732230D01*
X101882366Y-122793939D01*
X101885448Y-122798552D01*
X101919391Y-122821232D01*
X101964196Y-122874843D01*
X101974500Y-122924334D01*
X101974500Y-128784521D01*
X101954815Y-128851560D01*
X101938181Y-128872202D01*
X101643942Y-129166442D01*
X101566444Y-129243939D01*
X101524500Y-129345198D01*
X101524500Y-132454797D01*
X101524501Y-132454803D01*
X101530823Y-132470066D01*
X101530825Y-132470069D01*
X101535949Y-132482439D01*
X101566442Y-132556057D01*
X101645985Y-132635600D01*
X101652289Y-132644661D01*
X101659999Y-132667753D01*
X101671665Y-132689118D01*
X101673818Y-132709143D01*
X101674416Y-132710934D01*
X101674131Y-132712054D01*
X101674499Y-132715476D01*
X101674499Y-132754798D01*
X101704349Y-132826863D01*
X101704350Y-132826865D01*
X101704351Y-132826866D01*
X101716442Y-132856057D01*
X101716444Y-132856059D01*
X101788181Y-132927796D01*
X101821666Y-132989119D01*
X101822976Y-132996099D01*
X101824500Y-133005731D01*
X101824500Y-133054800D01*
X101831441Y-133071556D01*
X101866443Y-133156059D01*
X101915166Y-133204782D01*
X101938181Y-133227796D01*
X101971666Y-133289119D01*
X101974500Y-133315478D01*
X101974500Y-133354796D01*
X101974501Y-133354801D01*
X102016439Y-133456051D01*
X102016440Y-133456053D01*
X102016442Y-133456057D01*
X102016444Y-133456059D01*
X102088180Y-133527795D01*
X102121665Y-133589118D01*
X102124499Y-133615476D01*
X102124499Y-133654798D01*
X102124500Y-133654803D01*
X102149067Y-133714115D01*
X102149068Y-133714115D01*
X102149068Y-133714116D01*
X102166442Y-133756059D01*
X102217551Y-133807168D01*
X102238181Y-133827797D01*
X102271666Y-133889120D01*
X102274500Y-133915479D01*
X102274500Y-134050841D01*
X102274500Y-134104798D01*
X102274500Y-134104799D01*
X102274501Y-134104801D01*
X102316439Y-134206051D01*
X102316440Y-134206053D01*
X102316442Y-134206057D01*
X102316443Y-134206058D01*
X102316444Y-134206059D01*
X102388180Y-134277795D01*
X102421592Y-134338785D01*
X102424499Y-134351973D01*
X102424499Y-134404800D01*
X102445205Y-134454788D01*
X102466442Y-134506059D01*
X102512823Y-134552440D01*
X102538181Y-134577797D01*
X102570913Y-134635868D01*
X102574500Y-134650454D01*
X102574500Y-134704799D01*
X102603786Y-134775500D01*
X102607389Y-134784200D01*
X102607390Y-134784201D01*
X102616442Y-134806056D01*
X102688181Y-134877795D01*
X102721666Y-134939118D01*
X102723218Y-134947692D01*
X102724500Y-134956538D01*
X102724500Y-135004800D01*
X102729323Y-135016443D01*
X102735256Y-135030768D01*
X102735257Y-135030771D01*
X102766439Y-135106052D01*
X102766440Y-135106054D01*
X102766442Y-135106058D01*
X102766444Y-135106060D01*
X102838180Y-135177796D01*
X102871665Y-135239119D01*
X102874499Y-135265477D01*
X102874499Y-135454797D01*
X102874500Y-135454804D01*
X102881185Y-135470943D01*
X102882434Y-135482568D01*
X102887968Y-135492869D01*
X102886101Y-135516671D01*
X102888654Y-135540412D01*
X102883280Y-135552640D01*
X102882506Y-135562524D01*
X102871407Y-135579665D01*
X102865379Y-135593385D01*
X102860269Y-135600114D01*
X102766442Y-135693942D01*
X102745471Y-135744571D01*
X102739345Y-135759361D01*
X102724500Y-135795198D01*
X102724500Y-136284521D01*
X102715855Y-136313961D01*
X102709332Y-136343948D01*
X102705577Y-136348963D01*
X102704815Y-136351560D01*
X102688181Y-136372202D01*
X102551202Y-136509181D01*
X102489879Y-136542666D01*
X102463521Y-136545500D01*
X102110247Y-136545500D01*
X102051770Y-136557131D01*
X102051769Y-136557132D01*
X101985447Y-136601447D01*
X101941132Y-136667769D01*
X101941131Y-136667770D01*
X101929500Y-136726247D01*
X101929500Y-137265752D01*
X101941131Y-137324229D01*
X101941132Y-137324230D01*
X101985447Y-137390552D01*
X102051769Y-137434867D01*
X102051770Y-137434868D01*
X102110247Y-137446499D01*
X102110250Y-137446500D01*
X102662814Y-137446500D01*
X102729853Y-137466185D01*
X102775608Y-137518989D01*
X102785552Y-137588147D01*
X102772265Y-137626533D01*
X102772390Y-137626585D01*
X102771523Y-137628676D01*
X102770199Y-137632504D01*
X102769278Y-137634098D01*
X102769278Y-137634099D01*
X102745392Y-137723243D01*
X102745392Y-137815531D01*
X102766739Y-137895200D01*
X102769279Y-137904677D01*
X102769280Y-137904680D01*
X102815418Y-137984592D01*
X102815425Y-137984601D01*
X102880680Y-138049856D01*
X102883638Y-138052126D01*
X102885499Y-138054675D01*
X102886427Y-138055603D01*
X102886282Y-138055747D01*
X102924839Y-138108556D01*
X102928991Y-138178302D01*
X102894776Y-138239221D01*
X102841544Y-138269917D01*
X102825159Y-138274499D01*
X102795200Y-138274499D01*
X102739819Y-138297439D01*
X102732942Y-138300287D01*
X102732933Y-138300290D01*
X102693945Y-138316439D01*
X102693940Y-138316442D01*
X102543941Y-138466443D01*
X102466442Y-138543942D01*
X102424499Y-138645199D01*
X102422117Y-138657177D01*
X102419463Y-138656649D01*
X102404814Y-138706539D01*
X102352010Y-138752294D01*
X102300499Y-138763500D01*
X102049499Y-138763500D01*
X101982460Y-138743815D01*
X101936705Y-138691011D01*
X101925499Y-138639500D01*
X101925499Y-138195201D01*
X101925499Y-138195200D01*
X101883556Y-138093942D01*
X101806819Y-138017205D01*
X101773334Y-137955882D01*
X101770500Y-137929524D01*
X101770500Y-137750249D01*
X101770499Y-137750247D01*
X101758868Y-137691770D01*
X101758867Y-137691769D01*
X101714552Y-137625447D01*
X101648230Y-137581132D01*
X101648229Y-137581131D01*
X101589752Y-137569500D01*
X101589748Y-137569500D01*
X101010252Y-137569500D01*
X101010247Y-137569500D01*
X100951770Y-137581131D01*
X100951769Y-137581132D01*
X100885447Y-137625447D01*
X100841132Y-137691769D01*
X100841131Y-137691770D01*
X100829500Y-137750247D01*
X100829500Y-138289752D01*
X100841131Y-138348229D01*
X100841132Y-138348230D01*
X100885447Y-138414552D01*
X100951769Y-138458867D01*
X100951770Y-138458868D01*
X101010247Y-138470499D01*
X101010250Y-138470500D01*
X101010252Y-138470500D01*
X101250499Y-138470500D01*
X101317538Y-138490185D01*
X101363293Y-138542989D01*
X101374499Y-138594500D01*
X101374499Y-139132720D01*
X101354814Y-139199759D01*
X101302010Y-139245514D01*
X101232852Y-139255458D01*
X101188499Y-139240107D01*
X101135290Y-139209387D01*
X101135289Y-139209386D01*
X101135288Y-139209386D01*
X101046144Y-139185500D01*
X100953856Y-139185500D01*
X100864712Y-139209386D01*
X100864711Y-139209386D01*
X100864709Y-139209387D01*
X100864706Y-139209388D01*
X100784794Y-139255526D01*
X100784785Y-139255533D01*
X100713784Y-139326535D01*
X100711780Y-139324531D01*
X100666446Y-139357633D01*
X100596700Y-139361787D01*
X100535780Y-139327573D01*
X100503028Y-139265855D01*
X100500500Y-139240943D01*
X100500500Y-120687499D01*
X100520185Y-120620460D01*
X100572989Y-120574705D01*
X100624500Y-120563499D01*
X101072522Y-120563499D01*
X101139561Y-120583184D01*
G37*
%TD.AperFunction*%
%TA.AperFunction,Conductor*%
G36*
X103720899Y-136086693D02*
G01*
X103780247Y-136098498D01*
X103780250Y-136098499D01*
X104178187Y-136098499D01*
X104245226Y-136118184D01*
X104290981Y-136170988D01*
X104297962Y-136190405D01*
X104299499Y-136196141D01*
X104299499Y-136196143D01*
X104304938Y-136216442D01*
X104323386Y-136285291D01*
X104323387Y-136285292D01*
X104369525Y-136365204D01*
X104369528Y-136365208D01*
X104369530Y-136365211D01*
X104434787Y-136430468D01*
X104434790Y-136430469D01*
X104434793Y-136430472D01*
X104514705Y-136476610D01*
X104514706Y-136476610D01*
X104514711Y-136476613D01*
X104603855Y-136500499D01*
X104603857Y-136500499D01*
X104696141Y-136500499D01*
X104696143Y-136500499D01*
X104785287Y-136476613D01*
X104794119Y-136471513D01*
X104862016Y-136455038D01*
X104928045Y-136477887D01*
X104971238Y-136532806D01*
X104977883Y-136602359D01*
X104945871Y-136664463D01*
X104943805Y-136666579D01*
X104849202Y-136761181D01*
X104787882Y-136794665D01*
X104761523Y-136797499D01*
X104430247Y-136797499D01*
X104371770Y-136809130D01*
X104371769Y-136809131D01*
X104305447Y-136853446D01*
X104261132Y-136919768D01*
X104261131Y-136919769D01*
X104249500Y-136978246D01*
X104249500Y-137817751D01*
X104261131Y-137876228D01*
X104261132Y-137876229D01*
X104305447Y-137942551D01*
X104371769Y-137986866D01*
X104371770Y-137986867D01*
X104430247Y-137998498D01*
X104430250Y-137998499D01*
X104430252Y-137998499D01*
X104869750Y-137998499D01*
X104869751Y-137998498D01*
X104889418Y-137994586D01*
X104928228Y-137986867D01*
X104928228Y-137986866D01*
X104928231Y-137986866D01*
X104957189Y-137967516D01*
X104986721Y-137958268D01*
X105015565Y-137947065D01*
X105019769Y-137947920D01*
X105023864Y-137946638D01*
X105053706Y-137954824D01*
X105084032Y-137960993D01*
X105088666Y-137964413D01*
X105091245Y-137965121D01*
X105112569Y-137981761D01*
X105115343Y-137984461D01*
X105115423Y-137984599D01*
X105180680Y-138049856D01*
X105185223Y-138052479D01*
X105194637Y-138061642D01*
X105208359Y-138085984D01*
X105224839Y-138108556D01*
X105225282Y-138116006D01*
X105228947Y-138122507D01*
X105227330Y-138150402D01*
X105228991Y-138178302D01*
X105225335Y-138184809D01*
X105224904Y-138192260D01*
X105208461Y-138214854D01*
X105194776Y-138239221D01*
X105188183Y-138242719D01*
X105183792Y-138248754D01*
X105157742Y-138258872D01*
X105133058Y-138271971D01*
X105120824Y-138273212D01*
X105118663Y-138274052D01*
X105116629Y-138273638D01*
X105108148Y-138274499D01*
X103383636Y-138274499D01*
X103316597Y-138254814D01*
X103270842Y-138202010D01*
X103260898Y-138132852D01*
X103289923Y-138069296D01*
X103308146Y-138052126D01*
X103311099Y-138049858D01*
X103311104Y-138049856D01*
X103326142Y-138034818D01*
X103387465Y-138001333D01*
X103413823Y-137998499D01*
X103569750Y-137998499D01*
X103569751Y-137998498D01*
X103584568Y-137995551D01*
X103628229Y-137986867D01*
X103628229Y-137986866D01*
X103628231Y-137986866D01*
X103694552Y-137942551D01*
X103738867Y-137876230D01*
X103738867Y-137876228D01*
X103738868Y-137876228D01*
X103750499Y-137817751D01*
X103750500Y-137817749D01*
X103750500Y-136978248D01*
X103750499Y-136978246D01*
X103738868Y-136919769D01*
X103738867Y-136919768D01*
X103694552Y-136853446D01*
X103628230Y-136809131D01*
X103628229Y-136809130D01*
X103569752Y-136797499D01*
X103569748Y-136797499D01*
X103337628Y-136797499D01*
X103270589Y-136777814D01*
X103224834Y-136725010D01*
X103214890Y-136655852D01*
X103224259Y-136623265D01*
X103230550Y-136609064D01*
X103233557Y-136606059D01*
X103256985Y-136549499D01*
X103275500Y-136504800D01*
X103275500Y-136222499D01*
X103295185Y-136155460D01*
X103347989Y-136109705D01*
X103399500Y-136098499D01*
X103569750Y-136098499D01*
X103569751Y-136098498D01*
X103587047Y-136095058D01*
X103640210Y-136084484D01*
X103640464Y-136085761D01*
X103697009Y-136079679D01*
X103720899Y-136086693D01*
G37*
%TD.AperFunction*%
%TA.AperFunction,Conductor*%
G36*
X106492539Y-136895185D02*
G01*
X106538294Y-136947989D01*
X106549500Y-136999500D01*
X106549500Y-137700500D01*
X106529815Y-137767539D01*
X106477011Y-137813294D01*
X106425500Y-137824500D01*
X106245197Y-137824500D01*
X106221953Y-137834129D01*
X106152484Y-137841598D01*
X106090005Y-137810323D01*
X106054352Y-137750235D01*
X106050500Y-137719568D01*
X106050500Y-137110135D01*
X106056127Y-137090971D01*
X106056834Y-137071012D01*
X106065769Y-137058133D01*
X106070185Y-137043096D01*
X106085276Y-137030018D01*
X106096664Y-137013607D01*
X106120638Y-136999377D01*
X106122989Y-136997341D01*
X106126988Y-136995598D01*
X106130987Y-136993942D01*
X106156059Y-136983557D01*
X106227797Y-136911819D01*
X106254724Y-136897115D01*
X106280543Y-136880523D01*
X106286743Y-136879631D01*
X106289120Y-136878334D01*
X106315478Y-136875500D01*
X106425500Y-136875500D01*
X106492539Y-136895185D01*
G37*
%TD.AperFunction*%
%TA.AperFunction,Conductor*%
G36*
X103642539Y-130220185D02*
G01*
X103688294Y-130272989D01*
X103699500Y-130324500D01*
X103699500Y-131127252D01*
X103711131Y-131185729D01*
X103711132Y-131185730D01*
X103755447Y-131252052D01*
X103821769Y-131296367D01*
X103821770Y-131296368D01*
X103880247Y-131307999D01*
X103880250Y-131308000D01*
X103880252Y-131308000D01*
X104119750Y-131308000D01*
X104175808Y-131296849D01*
X104177317Y-131296781D01*
X104178023Y-131296429D01*
X104184020Y-131296483D01*
X104213295Y-131295181D01*
X104221283Y-131296042D01*
X104221769Y-131296367D01*
X104280252Y-131308000D01*
X104332165Y-131308000D01*
X104338795Y-131308715D01*
X104365158Y-131319645D01*
X104392539Y-131327685D01*
X104397017Y-131332853D01*
X104403338Y-131335474D01*
X104419609Y-131358926D01*
X104438294Y-131380489D01*
X104439994Y-131388306D01*
X104443167Y-131392879D01*
X104443590Y-131404833D01*
X104449500Y-131432000D01*
X104449500Y-131446144D01*
X104464472Y-131502022D01*
X104473387Y-131535290D01*
X104473388Y-131535293D01*
X104519526Y-131615205D01*
X104519529Y-131615209D01*
X104519531Y-131615212D01*
X104584788Y-131680469D01*
X104584791Y-131680470D01*
X104584794Y-131680473D01*
X104664706Y-131726611D01*
X104664707Y-131726611D01*
X104664712Y-131726614D01*
X104753856Y-131750500D01*
X104753858Y-131750500D01*
X104846142Y-131750500D01*
X104846144Y-131750500D01*
X104935288Y-131726614D01*
X105015212Y-131680469D01*
X105058862Y-131636819D01*
X105120185Y-131603334D01*
X105146543Y-131600500D01*
X106689805Y-131600500D01*
X106701323Y-131603882D01*
X106713274Y-131602741D01*
X106734228Y-131613544D01*
X106756844Y-131620185D01*
X106766256Y-131630056D01*
X106775376Y-131634758D01*
X106797193Y-131662502D01*
X106803147Y-131672815D01*
X106819741Y-131736926D01*
X106782185Y-133940143D01*
X106761361Y-134006838D01*
X106745884Y-134025711D01*
X106412439Y-134359158D01*
X106339160Y-134432436D01*
X106339158Y-134432439D01*
X106306168Y-134512082D01*
X106302517Y-134520081D01*
X106293517Y-134538081D01*
X106279159Y-134552439D01*
X106244492Y-134636129D01*
X106242517Y-134640081D01*
X106236504Y-134646544D01*
X106219294Y-134672303D01*
X106219161Y-134672435D01*
X106219158Y-134672440D01*
X106186168Y-134752082D01*
X106180316Y-134764280D01*
X106171801Y-134779796D01*
X106159159Y-134792439D01*
X106141592Y-134834847D01*
X106138330Y-134840793D01*
X106118181Y-134860857D01*
X106100340Y-134882997D01*
X106092686Y-134886247D01*
X106088822Y-134890096D01*
X106078279Y-134892366D01*
X106053814Y-134902757D01*
X106009792Y-134911514D01*
X106009538Y-134910238D01*
X105952977Y-134916316D01*
X105929089Y-134909302D01*
X105869751Y-134897499D01*
X105869748Y-134897499D01*
X105638477Y-134897499D01*
X105571438Y-134877814D01*
X105550796Y-134861180D01*
X105419431Y-134729815D01*
X105256059Y-134566442D01*
X105222252Y-134552439D01*
X105222251Y-134552438D01*
X105154800Y-134524499D01*
X103654800Y-134524499D01*
X103545200Y-134524499D01*
X103545199Y-134524499D01*
X103513043Y-134537819D01*
X103443945Y-134566441D01*
X103443940Y-134566443D01*
X103387681Y-134622703D01*
X103379735Y-134627041D01*
X103374310Y-134634289D01*
X103349550Y-134643523D01*
X103326358Y-134656188D01*
X103317328Y-134655542D01*
X103308846Y-134658706D01*
X103283025Y-134653089D01*
X103256666Y-134651204D01*
X103247612Y-134645385D01*
X103240573Y-134643854D01*
X103212319Y-134622703D01*
X103161819Y-134572203D01*
X103128334Y-134510880D01*
X103125500Y-134484522D01*
X103125500Y-134445201D01*
X103125499Y-134445197D01*
X103088576Y-134356058D01*
X103088576Y-134356057D01*
X103083558Y-134343943D01*
X103083557Y-134343942D01*
X103083557Y-134343941D01*
X103011818Y-134272202D01*
X102979086Y-134214131D01*
X102975499Y-134199544D01*
X102975499Y-134145199D01*
X102946214Y-134074500D01*
X102933557Y-134043941D01*
X102933555Y-134043939D01*
X102933555Y-134043938D01*
X102861818Y-133972200D01*
X102828333Y-133910877D01*
X102825500Y-133884520D01*
X102825500Y-133695201D01*
X102825499Y-133695197D01*
X102799890Y-133633373D01*
X102799889Y-133633372D01*
X102793141Y-133617080D01*
X102783557Y-133593941D01*
X102706984Y-133517368D01*
X102702713Y-133512035D01*
X102691931Y-133485783D01*
X102678333Y-133460879D01*
X102677137Y-133449759D01*
X102676170Y-133447404D01*
X102676620Y-133444950D01*
X102675499Y-133434521D01*
X102675499Y-133395200D01*
X102675498Y-133395196D01*
X102644922Y-133321380D01*
X102644922Y-133321379D01*
X102633557Y-133293940D01*
X102561818Y-133222201D01*
X102529311Y-133165027D01*
X102525500Y-133150012D01*
X102525500Y-133095199D01*
X102483557Y-132993941D01*
X102483557Y-132993940D01*
X102411819Y-132922202D01*
X102378334Y-132860879D01*
X102375500Y-132834521D01*
X102375500Y-132795202D01*
X102375500Y-132795200D01*
X102345841Y-132723599D01*
X102333557Y-132693941D01*
X102333555Y-132693939D01*
X102333555Y-132693938D01*
X102261818Y-132622201D01*
X102229087Y-132564134D01*
X102225499Y-132549545D01*
X102225499Y-132495199D01*
X102196201Y-132424468D01*
X102183557Y-132393941D01*
X102149353Y-132359737D01*
X102111818Y-132322201D01*
X102078334Y-132260877D01*
X102075500Y-132234520D01*
X102075500Y-131537500D01*
X102095185Y-131470461D01*
X102147989Y-131424706D01*
X102199500Y-131413500D01*
X102589750Y-131413500D01*
X102589751Y-131413499D01*
X102604568Y-131410552D01*
X102648229Y-131401868D01*
X102648229Y-131401867D01*
X102648231Y-131401867D01*
X102714552Y-131357552D01*
X102758867Y-131291231D01*
X102758867Y-131291229D01*
X102758868Y-131291229D01*
X102770499Y-131232752D01*
X102770500Y-131232750D01*
X102770500Y-130627249D01*
X102770499Y-130627247D01*
X102758868Y-130568770D01*
X102754194Y-130557487D01*
X102755242Y-130557052D01*
X102738070Y-130502220D01*
X102740117Y-130477455D01*
X102744760Y-130452342D01*
X102758867Y-130431231D01*
X102770500Y-130372748D01*
X102770500Y-130313133D01*
X102772567Y-130301955D01*
X102783415Y-130280513D01*
X102790185Y-130257461D01*
X102798902Y-130249907D01*
X102804112Y-130239611D01*
X102824833Y-130227437D01*
X102842989Y-130211706D01*
X102856683Y-130208726D01*
X102864355Y-130204220D01*
X102875371Y-130204661D01*
X102894500Y-130200500D01*
X103575500Y-130200500D01*
X103642539Y-130220185D01*
G37*
%TD.AperFunction*%
%TA.AperFunction,Conductor*%
G36*
X112020227Y-131039379D02*
G01*
X112050577Y-131041550D01*
X112054452Y-131044451D01*
X112059242Y-131045161D01*
X112082149Y-131065184D01*
X112106511Y-131083421D01*
X112108745Y-131088432D01*
X112111848Y-131091144D01*
X112126371Y-131123312D01*
X112129500Y-131134141D01*
X112129500Y-131136748D01*
X112141133Y-131195231D01*
X112151736Y-131211099D01*
X112157076Y-131229580D01*
X112156774Y-131299449D01*
X112141308Y-131332344D01*
X112141131Y-131332770D01*
X112129500Y-131391247D01*
X112129500Y-131813499D01*
X112109815Y-131880538D01*
X112057011Y-131926293D01*
X112005500Y-131937499D01*
X111610247Y-131937499D01*
X111551770Y-131949130D01*
X111551769Y-131949131D01*
X111485447Y-131993446D01*
X111441132Y-132059768D01*
X111441131Y-132059769D01*
X111429500Y-132118246D01*
X111429500Y-132657751D01*
X111441131Y-132716228D01*
X111441132Y-132716229D01*
X111485445Y-132782548D01*
X111485446Y-132782548D01*
X111485448Y-132782551D01*
X111494391Y-132788526D01*
X111539195Y-132842137D01*
X111546321Y-132876361D01*
X111548439Y-132876083D01*
X111549500Y-132884142D01*
X111549500Y-132884143D01*
X111570928Y-132964115D01*
X111573387Y-132973289D01*
X111573388Y-132973292D01*
X111619526Y-133053204D01*
X111619529Y-133053208D01*
X111619531Y-133053211D01*
X111684788Y-133118468D01*
X111684791Y-133118469D01*
X111684794Y-133118472D01*
X111764706Y-133164610D01*
X111764711Y-133164613D01*
X111772704Y-133166754D01*
X111778917Y-133168419D01*
X111838578Y-133204782D01*
X111869109Y-133267629D01*
X111860815Y-133337005D01*
X111834507Y-133375875D01*
X110572203Y-134638181D01*
X110510880Y-134671666D01*
X110484522Y-134674500D01*
X110295197Y-134674500D01*
X110287920Y-134677514D01*
X110287914Y-134677517D01*
X110276034Y-134682439D01*
X110193942Y-134716442D01*
X110114029Y-134796354D01*
X110104487Y-134802876D01*
X110081807Y-134810238D01*
X110060880Y-134821666D01*
X110039539Y-134823960D01*
X110038032Y-134824450D01*
X110037148Y-134824217D01*
X110034522Y-134824500D01*
X109845196Y-134824500D01*
X109812165Y-134838183D01*
X109812162Y-134838184D01*
X109795802Y-134844960D01*
X109726332Y-134852427D01*
X109663854Y-134821151D01*
X109628203Y-134761061D01*
X109624433Y-134725922D01*
X109651971Y-133964396D01*
X109674065Y-133898114D01*
X109677517Y-133893388D01*
X109682343Y-133887097D01*
X109682349Y-133887092D01*
X109728494Y-133807168D01*
X109752380Y-133718024D01*
X109752380Y-133625736D01*
X109728494Y-133536592D01*
X109723415Y-133527795D01*
X109678286Y-133449630D01*
X109679923Y-133448684D01*
X109658487Y-133393237D01*
X109672524Y-133324792D01*
X109694373Y-133295240D01*
X111633556Y-131356057D01*
X111635132Y-131352251D01*
X111678968Y-131297846D01*
X111702243Y-131285136D01*
X111706059Y-131283556D01*
X111919563Y-131070050D01*
X111923811Y-131067731D01*
X111926447Y-131063669D01*
X111954184Y-131051146D01*
X111980886Y-131036566D01*
X111985714Y-131036911D01*
X111990127Y-131034919D01*
X112020227Y-131039379D01*
G37*
%TD.AperFunction*%
%TA.AperFunction,Conductor*%
G36*
X107617538Y-131460184D02*
G01*
X107663293Y-131512988D01*
X107674499Y-131564499D01*
X107674499Y-133216846D01*
X107654814Y-133283885D01*
X107602010Y-133329640D01*
X107576583Y-133336944D01*
X107576705Y-133337397D01*
X107568856Y-133339500D01*
X107568855Y-133339500D01*
X107479711Y-133363386D01*
X107479709Y-133363386D01*
X107471860Y-133365490D01*
X107470989Y-133362240D01*
X107416979Y-133367995D01*
X107354530Y-133336661D01*
X107318934Y-133276539D01*
X107315129Y-133243879D01*
X107340634Y-131747575D01*
X107351603Y-131698663D01*
X107359495Y-131681184D01*
X107365469Y-131675211D01*
X107411614Y-131595287D01*
X107431074Y-131522660D01*
X107435224Y-131513470D01*
X107451679Y-131494314D01*
X107464826Y-131472746D01*
X107474062Y-131468258D01*
X107480753Y-131460471D01*
X107504954Y-131453252D01*
X107527673Y-131442216D01*
X107547507Y-131440559D01*
X107547708Y-131440500D01*
X107547823Y-131440533D01*
X107548237Y-131440499D01*
X107550499Y-131440499D01*
X107617538Y-131460184D01*
G37*
%TD.AperFunction*%
%TA.AperFunction,Conductor*%
G36*
X105824192Y-124156849D02*
G01*
X105880249Y-124168000D01*
X106072183Y-124168000D01*
X106139222Y-124187685D01*
X106184977Y-124240489D01*
X106194921Y-124309647D01*
X106179570Y-124354000D01*
X106173387Y-124364708D01*
X106173387Y-124364709D01*
X106173386Y-124364711D01*
X106173386Y-124364712D01*
X106149500Y-124453856D01*
X106149500Y-124546144D01*
X106159833Y-124584709D01*
X106173387Y-124635290D01*
X106173388Y-124635293D01*
X106219526Y-124715205D01*
X106219529Y-124715209D01*
X106219531Y-124715212D01*
X106284788Y-124780469D01*
X106284791Y-124780470D01*
X106284794Y-124780473D01*
X106364706Y-124826611D01*
X106364708Y-124826612D01*
X106364712Y-124826614D01*
X106364715Y-124826614D01*
X106372216Y-124829722D01*
X106371017Y-124832615D01*
X106418054Y-124861290D01*
X106448579Y-124924139D01*
X106449054Y-124950729D01*
X106449500Y-124950729D01*
X106449500Y-124958856D01*
X106449500Y-125051144D01*
X106469596Y-125126144D01*
X106473387Y-125140290D01*
X106473388Y-125140293D01*
X106519526Y-125220205D01*
X106519529Y-125220209D01*
X106519531Y-125220212D01*
X106584788Y-125285469D01*
X106584791Y-125285470D01*
X106584794Y-125285473D01*
X106664706Y-125331611D01*
X106664707Y-125331611D01*
X106664712Y-125331614D01*
X106753856Y-125355500D01*
X106753858Y-125355500D01*
X106846142Y-125355500D01*
X106846144Y-125355500D01*
X106935288Y-125331614D01*
X107015212Y-125285469D01*
X107080469Y-125220212D01*
X107126614Y-125140288D01*
X107150500Y-125051144D01*
X107150500Y-124958856D01*
X107126614Y-124869712D01*
X107123775Y-124864794D01*
X107077114Y-124783976D01*
X107072963Y-124768488D01*
X107065523Y-124756910D01*
X107060500Y-124721975D01*
X107060500Y-124564500D01*
X107080185Y-124497461D01*
X107132989Y-124451706D01*
X107184500Y-124440500D01*
X107590500Y-124440500D01*
X107657539Y-124460185D01*
X107703294Y-124512989D01*
X107714500Y-124564500D01*
X107714500Y-125103183D01*
X107714500Y-125206817D01*
X107754159Y-125302561D01*
X107827439Y-125375841D01*
X107923183Y-125415500D01*
X108340500Y-125415500D01*
X108407539Y-125435185D01*
X108453294Y-125487989D01*
X108464500Y-125539500D01*
X108464500Y-126678183D01*
X108464500Y-126781817D01*
X108504159Y-126877561D01*
X108577439Y-126950841D01*
X108673183Y-126990500D01*
X109139442Y-126990500D01*
X109206481Y-127010185D01*
X109252236Y-127062989D01*
X109259217Y-127082407D01*
X109273387Y-127135290D01*
X109273388Y-127135293D01*
X109319526Y-127215205D01*
X109319529Y-127215209D01*
X109319531Y-127215212D01*
X109384788Y-127280469D01*
X109384791Y-127280470D01*
X109384794Y-127280473D01*
X109464706Y-127326611D01*
X109464707Y-127326611D01*
X109464712Y-127326614D01*
X109553856Y-127350500D01*
X109553858Y-127350500D01*
X109618000Y-127350500D01*
X109626685Y-127353050D01*
X109635647Y-127351762D01*
X109659687Y-127362740D01*
X109685039Y-127370185D01*
X109690966Y-127377025D01*
X109699203Y-127380787D01*
X109713492Y-127403021D01*
X109730794Y-127422989D01*
X109733081Y-127433503D01*
X109736977Y-127439565D01*
X109742000Y-127474500D01*
X109742000Y-127506040D01*
X109722315Y-127573079D01*
X109680001Y-127613426D01*
X109634794Y-127639526D01*
X109634785Y-127639533D01*
X109569533Y-127704785D01*
X109569526Y-127704794D01*
X109523388Y-127784706D01*
X109523387Y-127784709D01*
X109523386Y-127784711D01*
X109523386Y-127784712D01*
X109499500Y-127873856D01*
X109499500Y-127966144D01*
X109513863Y-128019748D01*
X109523386Y-128055288D01*
X109524020Y-128056386D01*
X109524273Y-128057431D01*
X109526498Y-128062802D01*
X109525660Y-128063148D01*
X109540493Y-128124286D01*
X109517641Y-128190313D01*
X109504314Y-128206068D01*
X109072202Y-128638180D01*
X109023924Y-128668072D01*
X109004747Y-128674499D01*
X108945200Y-128674499D01*
X108885884Y-128699068D01*
X108843941Y-128716442D01*
X108825968Y-128734414D01*
X108798312Y-128743683D01*
X108791360Y-128743945D01*
X108785257Y-128747278D01*
X108754270Y-128748571D01*
X108754270Y-128749500D01*
X108746143Y-128749500D01*
X108653855Y-128749500D01*
X108564711Y-128773386D01*
X108564710Y-128773386D01*
X108564708Y-128773387D01*
X108564705Y-128773388D01*
X108484793Y-128819526D01*
X108484784Y-128819533D01*
X108413783Y-128890535D01*
X108411615Y-128888367D01*
X108366929Y-128920987D01*
X108297182Y-128925131D01*
X108236267Y-128890909D01*
X108234177Y-128888497D01*
X108165213Y-128819533D01*
X108165211Y-128819531D01*
X108165208Y-128819529D01*
X108165204Y-128819526D01*
X108085292Y-128773388D01*
X108085289Y-128773387D01*
X108085288Y-128773386D01*
X108085287Y-128773386D01*
X107996143Y-128749500D01*
X107903855Y-128749500D01*
X107814711Y-128773386D01*
X107814710Y-128773386D01*
X107814708Y-128773387D01*
X107814705Y-128773388D01*
X107734793Y-128819526D01*
X107734784Y-128819533D01*
X107669532Y-128884785D01*
X107669525Y-128884794D01*
X107623387Y-128964706D01*
X107623386Y-128964709D01*
X107623385Y-128964711D01*
X107623385Y-128964712D01*
X107599499Y-129053856D01*
X107599499Y-129146144D01*
X107604938Y-129166442D01*
X107623385Y-129235290D01*
X107648179Y-129278231D01*
X107655117Y-129290249D01*
X107657885Y-129295042D01*
X107662035Y-129310531D01*
X107669476Y-129322109D01*
X107674499Y-129357044D01*
X107674499Y-129512958D01*
X107654814Y-129579997D01*
X107602010Y-129625752D01*
X107532852Y-129635696D01*
X107469296Y-129606671D01*
X107431522Y-129547893D01*
X107430736Y-129545098D01*
X107426614Y-129529711D01*
X107426612Y-129529708D01*
X107426612Y-129529706D01*
X107426611Y-129529705D01*
X107380473Y-129449793D01*
X107380470Y-129449790D01*
X107380469Y-129449787D01*
X107315212Y-129384530D01*
X107315209Y-129384528D01*
X107315205Y-129384525D01*
X107235293Y-129338387D01*
X107235290Y-129338386D01*
X107235289Y-129338385D01*
X107235288Y-129338385D01*
X107146144Y-129314499D01*
X107053856Y-129314499D01*
X106964712Y-129338385D01*
X106964711Y-129338385D01*
X106964709Y-129338386D01*
X106964706Y-129338387D01*
X106884794Y-129384525D01*
X106884785Y-129384532D01*
X106819533Y-129449784D01*
X106819526Y-129449793D01*
X106773388Y-129529705D01*
X106773385Y-129529710D01*
X106772347Y-129533588D01*
X106770578Y-129536488D01*
X106770278Y-129537215D01*
X106770164Y-129537168D01*
X106763445Y-129548191D01*
X106759216Y-129564764D01*
X106745636Y-129577406D01*
X106735981Y-129593248D01*
X106720597Y-129600720D01*
X106708080Y-129612375D01*
X106689821Y-129615669D01*
X106673133Y-129623776D01*
X106655801Y-129621808D01*
X106639320Y-129624782D01*
X106605122Y-129616054D01*
X106533771Y-129586501D01*
X106533770Y-129586500D01*
X106504801Y-129574500D01*
X106504799Y-129574500D01*
X106407044Y-129574500D01*
X106345043Y-129557887D01*
X106328249Y-129548191D01*
X106285287Y-129523386D01*
X106196143Y-129499500D01*
X106103855Y-129499500D01*
X106014711Y-129523386D01*
X106014710Y-129523386D01*
X106014708Y-129523387D01*
X106014705Y-129523388D01*
X105934793Y-129569526D01*
X105934784Y-129569533D01*
X105869532Y-129634785D01*
X105869525Y-129634794D01*
X105823387Y-129714706D01*
X105823385Y-129714710D01*
X105816018Y-129742204D01*
X105807115Y-129756809D01*
X105802885Y-129773382D01*
X105789307Y-129786022D01*
X105779652Y-129801863D01*
X105764266Y-129809336D01*
X105751747Y-129820992D01*
X105733491Y-129824285D01*
X105716804Y-129832391D01*
X105699470Y-129830422D01*
X105682987Y-129833396D01*
X105648790Y-129824667D01*
X105542310Y-129780560D01*
X105502083Y-129753681D01*
X105497562Y-129749160D01*
X105497561Y-129749159D01*
X105401817Y-129709500D01*
X104883025Y-129709500D01*
X104821024Y-129692886D01*
X104735293Y-129643388D01*
X104735290Y-129643387D01*
X104735289Y-129643386D01*
X104735288Y-129643386D01*
X104646144Y-129619500D01*
X104613973Y-129619500D01*
X104546934Y-129599815D01*
X104501179Y-129547011D01*
X104491235Y-129477853D01*
X104520260Y-129414297D01*
X104551971Y-129388114D01*
X104553437Y-129387267D01*
X104565212Y-129380469D01*
X104630469Y-129315212D01*
X104676614Y-129235288D01*
X104700500Y-129146144D01*
X104700500Y-129053856D01*
X104676614Y-128964712D01*
X104673407Y-128959157D01*
X104630473Y-128884794D01*
X104630470Y-128884791D01*
X104630469Y-128884788D01*
X104565212Y-128819531D01*
X104553767Y-128812923D01*
X104537497Y-128803529D01*
X104489282Y-128752961D01*
X104475499Y-128696143D01*
X104475499Y-127545201D01*
X104475499Y-127545200D01*
X104450929Y-127485885D01*
X104433557Y-127443943D01*
X104355688Y-127366073D01*
X104350472Y-127359151D01*
X104341090Y-127334242D01*
X104328333Y-127310879D01*
X104326752Y-127296174D01*
X104325845Y-127293765D01*
X104326276Y-127291748D01*
X104325500Y-127284522D01*
X104325500Y-126495201D01*
X104325499Y-126495197D01*
X104314076Y-126467621D01*
X104306606Y-126398152D01*
X104337879Y-126335672D01*
X104396539Y-126300392D01*
X104485288Y-126276613D01*
X104565212Y-126230468D01*
X104630469Y-126165211D01*
X104676614Y-126085287D01*
X104700500Y-125996143D01*
X104700500Y-125903855D01*
X104676614Y-125814711D01*
X104656719Y-125780252D01*
X104630473Y-125734793D01*
X104630470Y-125734790D01*
X104630469Y-125734787D01*
X104565212Y-125669530D01*
X104565209Y-125669528D01*
X104565205Y-125669525D01*
X104485293Y-125623387D01*
X104485290Y-125623386D01*
X104485289Y-125623385D01*
X104485288Y-125623385D01*
X104396144Y-125599499D01*
X104303856Y-125599499D01*
X104214711Y-125623385D01*
X104134784Y-125669531D01*
X104128343Y-125674475D01*
X104128230Y-125674328D01*
X104126515Y-125676799D01*
X104096162Y-125694809D01*
X104073601Y-125704155D01*
X104073598Y-125704156D01*
X104032657Y-125721115D01*
X104031334Y-125717921D01*
X103984209Y-125732675D01*
X103916829Y-125714188D01*
X103870141Y-125662207D01*
X103858000Y-125608695D01*
X103858000Y-125380249D01*
X103846849Y-125324192D01*
X103846849Y-125275808D01*
X103858000Y-125219750D01*
X103858000Y-125033856D01*
X104809500Y-125033856D01*
X104809500Y-125126144D01*
X104831116Y-125206817D01*
X104833387Y-125215290D01*
X104833388Y-125215293D01*
X104879526Y-125295205D01*
X104879529Y-125295209D01*
X104879531Y-125295212D01*
X104944788Y-125360469D01*
X104944791Y-125360470D01*
X104944794Y-125360473D01*
X105024706Y-125406611D01*
X105024707Y-125406611D01*
X105024712Y-125406614D01*
X105113856Y-125430500D01*
X105113858Y-125430500D01*
X105206142Y-125430500D01*
X105206144Y-125430500D01*
X105295288Y-125406614D01*
X105375212Y-125360469D01*
X105440469Y-125295212D01*
X105486614Y-125215288D01*
X105510500Y-125126144D01*
X105510500Y-125033856D01*
X105486614Y-124944712D01*
X105486611Y-124944706D01*
X105440473Y-124864794D01*
X105440470Y-124864791D01*
X105440469Y-124864788D01*
X105375212Y-124799531D01*
X105375209Y-124799529D01*
X105375205Y-124799526D01*
X105295293Y-124753388D01*
X105295290Y-124753387D01*
X105295289Y-124753386D01*
X105295288Y-124753386D01*
X105206144Y-124729500D01*
X105113856Y-124729500D01*
X105024712Y-124753386D01*
X105024711Y-124753386D01*
X105024709Y-124753387D01*
X105024706Y-124753388D01*
X104944794Y-124799526D01*
X104944785Y-124799533D01*
X104879533Y-124864785D01*
X104879526Y-124864794D01*
X104833388Y-124944706D01*
X104833387Y-124944709D01*
X104833386Y-124944711D01*
X104833386Y-124944712D01*
X104809500Y-125033856D01*
X103858000Y-125033856D01*
X103858000Y-125032385D01*
X103858000Y-124980252D01*
X103846367Y-124921769D01*
X103846040Y-124921279D01*
X103845178Y-124913271D01*
X103846849Y-124904002D01*
X103846849Y-124875808D01*
X103858000Y-124819750D01*
X103858000Y-124580249D01*
X103846849Y-124524192D01*
X103844728Y-124491949D01*
X103845540Y-124479468D01*
X103846367Y-124478231D01*
X103858000Y-124419748D01*
X103858000Y-124287975D01*
X103858262Y-124283949D01*
X103868931Y-124254772D01*
X103877685Y-124224961D01*
X103880829Y-124222236D01*
X103882258Y-124218329D01*
X103907013Y-124199547D01*
X103930489Y-124179206D01*
X103935167Y-124178188D01*
X103937921Y-124176099D01*
X103948598Y-124175266D01*
X103982000Y-124168000D01*
X104119750Y-124168000D01*
X104175808Y-124156849D01*
X104224192Y-124156849D01*
X104280249Y-124168000D01*
X104280252Y-124168000D01*
X104519750Y-124168000D01*
X104575808Y-124156849D01*
X104624192Y-124156849D01*
X104680249Y-124168000D01*
X104680252Y-124168000D01*
X104919750Y-124168000D01*
X104975808Y-124156849D01*
X105024192Y-124156849D01*
X105080249Y-124168000D01*
X105080252Y-124168000D01*
X105319750Y-124168000D01*
X105375808Y-124156849D01*
X105424192Y-124156849D01*
X105480249Y-124168000D01*
X105480252Y-124168000D01*
X105719750Y-124168000D01*
X105775808Y-124156849D01*
X105784145Y-124156849D01*
X105788949Y-124154959D01*
X105824192Y-124156849D01*
G37*
%TD.AperFunction*%
%TA.AperFunction,Conductor*%
G36*
X111367538Y-129095184D02*
G01*
X111413293Y-129147988D01*
X111424499Y-129199499D01*
X111424499Y-129637500D01*
X111404814Y-129704539D01*
X111352010Y-129750294D01*
X111300499Y-129761500D01*
X111140852Y-129761500D01*
X111073813Y-129741815D01*
X111028058Y-129689011D01*
X111017449Y-129625350D01*
X111018000Y-129619753D01*
X111018000Y-129380249D01*
X111006849Y-129324192D01*
X111006735Y-129320549D01*
X111005891Y-129318744D01*
X111006218Y-129304044D01*
X111005575Y-129283451D01*
X111006255Y-129278397D01*
X111006367Y-129278231D01*
X111018000Y-129219748D01*
X111018000Y-129191185D01*
X111019109Y-129182950D01*
X111030090Y-129158323D01*
X111037685Y-129132460D01*
X111044104Y-129126897D01*
X111047565Y-129119137D01*
X111070117Y-129104356D01*
X111090489Y-129086705D01*
X111100313Y-129084567D01*
X111106003Y-129080839D01*
X111117944Y-129080732D01*
X111142000Y-129075499D01*
X111300499Y-129075499D01*
X111367538Y-129095184D01*
G37*
%TD.AperFunction*%
%TA.AperFunction,Conductor*%
G36*
X112995900Y-126672455D02*
G01*
X113051077Y-126715318D01*
X113074322Y-126781207D01*
X113074500Y-126787845D01*
X113074500Y-128034522D01*
X113054815Y-128101561D01*
X113038181Y-128122203D01*
X112966443Y-128193940D01*
X112924499Y-128295199D01*
X112924499Y-128537500D01*
X112904814Y-128604539D01*
X112852010Y-128650294D01*
X112800499Y-128661500D01*
X112180247Y-128661500D01*
X112121770Y-128673131D01*
X112121769Y-128673132D01*
X112055446Y-128717448D01*
X112046812Y-128726083D01*
X112044428Y-128723699D01*
X112006284Y-128755558D01*
X111936956Y-128764246D01*
X111873938Y-128734072D01*
X111869146Y-128729529D01*
X111706061Y-128566443D01*
X111706059Y-128566442D01*
X111664116Y-128549068D01*
X111664115Y-128549067D01*
X111604803Y-128524500D01*
X111604801Y-128524499D01*
X111604800Y-128524499D01*
X111604798Y-128524499D01*
X111142000Y-128524499D01*
X111074961Y-128504814D01*
X111029206Y-128452010D01*
X111018000Y-128400499D01*
X111018000Y-128180249D01*
X111006849Y-128124192D01*
X111006735Y-128120548D01*
X111005891Y-128118743D01*
X111006218Y-128104044D01*
X111005575Y-128083451D01*
X111006255Y-128078397D01*
X111006367Y-128078231D01*
X111018000Y-128019748D01*
X111018000Y-127991186D01*
X111019109Y-127982951D01*
X111030090Y-127958324D01*
X111037685Y-127932461D01*
X111044104Y-127926898D01*
X111047565Y-127919138D01*
X111070117Y-127904357D01*
X111090489Y-127886706D01*
X111100313Y-127884568D01*
X111106003Y-127880840D01*
X111117944Y-127880733D01*
X111142000Y-127875500D01*
X111304799Y-127875500D01*
X111304800Y-127875500D01*
X111406058Y-127833557D01*
X111409286Y-127830329D01*
X111470609Y-127796844D01*
X111540301Y-127801828D01*
X111584648Y-127830329D01*
X111634788Y-127880469D01*
X111634791Y-127880470D01*
X111634794Y-127880473D01*
X111714706Y-127926611D01*
X111714707Y-127926611D01*
X111714712Y-127926614D01*
X111803856Y-127950500D01*
X111803858Y-127950500D01*
X111896142Y-127950500D01*
X111896144Y-127950500D01*
X111985288Y-127926614D01*
X112065212Y-127880469D01*
X112130469Y-127815212D01*
X112176614Y-127735288D01*
X112200500Y-127646144D01*
X112200500Y-127553856D01*
X112176614Y-127464712D01*
X112164623Y-127443943D01*
X112130473Y-127384794D01*
X112130470Y-127384791D01*
X112130469Y-127384788D01*
X112080328Y-127334647D01*
X112046843Y-127273324D01*
X112051827Y-127203632D01*
X112080323Y-127159290D01*
X112529798Y-126709816D01*
X112591120Y-126676334D01*
X112617478Y-126673500D01*
X112889750Y-126673500D01*
X112926308Y-126666228D01*
X112995900Y-126672455D01*
G37*
%TD.AperFunction*%
%TA.AperFunction,Conductor*%
G36*
X109366939Y-124122260D02*
G01*
X109387018Y-124133147D01*
X109421769Y-124156367D01*
X109421770Y-124156368D01*
X109480247Y-124167999D01*
X109480250Y-124168000D01*
X109618000Y-124168000D01*
X109622772Y-124169401D01*
X109627641Y-124168375D01*
X109655968Y-124179148D01*
X109685039Y-124187685D01*
X109688296Y-124191444D01*
X109692947Y-124193213D01*
X109710954Y-124217593D01*
X109730794Y-124240489D01*
X109732308Y-124246504D01*
X109734458Y-124249414D01*
X109737815Y-124268372D01*
X109741738Y-124283949D01*
X109742000Y-124287975D01*
X109742000Y-124419748D01*
X109753633Y-124478231D01*
X109754458Y-124479467D01*
X109755271Y-124491949D01*
X109753151Y-124501401D01*
X109753151Y-124524190D01*
X109745133Y-124564500D01*
X109742000Y-124580252D01*
X109742000Y-124819748D01*
X109742450Y-124822011D01*
X109753151Y-124875810D01*
X109753151Y-124924190D01*
X109744284Y-124968769D01*
X109742000Y-124980252D01*
X109742000Y-125219748D01*
X109742091Y-125220205D01*
X109753151Y-125275810D01*
X109753151Y-125324190D01*
X109746923Y-125355500D01*
X109742000Y-125380252D01*
X109742000Y-125619748D01*
X109742724Y-125623386D01*
X109753151Y-125675810D01*
X109753151Y-125724190D01*
X109742000Y-125780252D01*
X109742000Y-126016957D01*
X109722315Y-126083996D01*
X109669511Y-126129751D01*
X109600353Y-126139695D01*
X109536797Y-126110670D01*
X109530319Y-126104638D01*
X109515214Y-126089533D01*
X109515212Y-126089531D01*
X109515209Y-126089529D01*
X109515205Y-126089526D01*
X109435293Y-126043388D01*
X109435290Y-126043387D01*
X109435289Y-126043386D01*
X109435288Y-126043386D01*
X109346144Y-126019500D01*
X109253856Y-126019500D01*
X109164712Y-126043386D01*
X109164711Y-126043386D01*
X109164709Y-126043387D01*
X109157198Y-126046498D01*
X109155864Y-126043279D01*
X109103474Y-126055933D01*
X109037471Y-126033013D01*
X108994336Y-125978048D01*
X108985500Y-125932079D01*
X108985500Y-125178184D01*
X108985500Y-125178183D01*
X108945841Y-125082439D01*
X108872561Y-125009159D01*
X108872560Y-125009158D01*
X108863923Y-125000521D01*
X108832171Y-124968769D01*
X108797561Y-124934159D01*
X108701817Y-124894500D01*
X108359500Y-124894500D01*
X108292461Y-124874815D01*
X108246706Y-124822011D01*
X108235500Y-124770500D01*
X108235500Y-124292000D01*
X108238050Y-124283314D01*
X108236762Y-124274353D01*
X108247740Y-124250312D01*
X108255185Y-124224961D01*
X108262025Y-124219033D01*
X108265787Y-124210797D01*
X108288021Y-124196507D01*
X108307989Y-124179206D01*
X108318503Y-124176918D01*
X108324565Y-124173023D01*
X108359500Y-124168000D01*
X108396811Y-124168000D01*
X108463850Y-124187685D01*
X108509605Y-124240489D01*
X108516583Y-124259901D01*
X108523252Y-124284788D01*
X108523387Y-124285290D01*
X108523388Y-124285292D01*
X108569526Y-124365204D01*
X108569529Y-124365208D01*
X108569531Y-124365211D01*
X108634788Y-124430468D01*
X108634791Y-124430469D01*
X108634794Y-124430472D01*
X108714706Y-124476610D01*
X108714707Y-124476610D01*
X108714712Y-124476613D01*
X108803856Y-124500499D01*
X108803858Y-124500499D01*
X108896142Y-124500499D01*
X108896144Y-124500499D01*
X108985288Y-124476613D01*
X109065212Y-124430468D01*
X109130469Y-124365211D01*
X109176614Y-124285287D01*
X109198353Y-124204153D01*
X109234716Y-124144496D01*
X109297563Y-124113966D01*
X109366939Y-124122260D01*
G37*
%TD.AperFunction*%
%TA.AperFunction,Conductor*%
G36*
X103277398Y-114179703D02*
G01*
X103288661Y-114180106D01*
X103308611Y-114193958D01*
X103330703Y-114204047D01*
X103338284Y-114214561D01*
X103346053Y-114219955D01*
X103364061Y-114250307D01*
X103366443Y-114256058D01*
X103366445Y-114256060D01*
X103638181Y-114527796D01*
X103671666Y-114589119D01*
X103674500Y-114615477D01*
X103674500Y-115964752D01*
X103686131Y-116023229D01*
X103686132Y-116023230D01*
X103730447Y-116089552D01*
X103796769Y-116133867D01*
X103796770Y-116133868D01*
X103855247Y-116145499D01*
X103855250Y-116145500D01*
X103855252Y-116145500D01*
X105244750Y-116145500D01*
X105244751Y-116145499D01*
X105259568Y-116142552D01*
X105303229Y-116133868D01*
X105303229Y-116133867D01*
X105303231Y-116133867D01*
X105369552Y-116089552D01*
X105413867Y-116023231D01*
X105413867Y-116023229D01*
X105413868Y-116023229D01*
X105425499Y-115964752D01*
X105425500Y-115964750D01*
X105425500Y-115415477D01*
X105434144Y-115386036D01*
X105440668Y-115356050D01*
X105444422Y-115351034D01*
X105445185Y-115348438D01*
X105461819Y-115327796D01*
X105477796Y-115311819D01*
X105539119Y-115278334D01*
X105565477Y-115275500D01*
X106354799Y-115275500D01*
X106354800Y-115275500D01*
X106414116Y-115250930D01*
X106456059Y-115233557D01*
X106677797Y-115011817D01*
X106730125Y-114980645D01*
X106747425Y-114975499D01*
X106804800Y-114975499D01*
X106906058Y-114933556D01*
X106913519Y-114926094D01*
X106938156Y-114918766D01*
X106955111Y-114918706D01*
X106971291Y-114913640D01*
X106997700Y-114916003D01*
X107010247Y-114918498D01*
X107010250Y-114918499D01*
X107010252Y-114918499D01*
X107589750Y-114918499D01*
X107589751Y-114918498D01*
X107648231Y-114906866D01*
X107648235Y-114906863D01*
X107653044Y-114904872D01*
X107722513Y-114897402D01*
X107784993Y-114928674D01*
X107820647Y-114988762D01*
X107824500Y-115019432D01*
X107824500Y-116600633D01*
X107817409Y-116624781D01*
X107814351Y-116649766D01*
X107807732Y-116657735D01*
X107804815Y-116667672D01*
X107785795Y-116684152D01*
X107769714Y-116703518D01*
X107759838Y-116706644D01*
X107752011Y-116713427D01*
X107727100Y-116717008D01*
X107703103Y-116724606D01*
X107690606Y-116722256D01*
X107682853Y-116723371D01*
X107668070Y-116720317D01*
X107656910Y-116717293D01*
X107656060Y-116716443D01*
X107656056Y-116716441D01*
X107554800Y-116674499D01*
X107498976Y-116674499D01*
X107483048Y-116670183D01*
X107466764Y-116660195D01*
X107448439Y-116654814D01*
X107427797Y-116638180D01*
X107206059Y-116416443D01*
X107206055Y-116416440D01*
X107184322Y-116407438D01*
X107104800Y-116374499D01*
X105795200Y-116374499D01*
X105795199Y-116374499D01*
X105762308Y-116388123D01*
X105729416Y-116401748D01*
X105729414Y-116401749D01*
X105693941Y-116416441D01*
X105472204Y-116638180D01*
X105410881Y-116671665D01*
X105384523Y-116674499D01*
X104895196Y-116674499D01*
X104794589Y-116716173D01*
X104793957Y-116716430D01*
X104793941Y-116716440D01*
X104566441Y-116943943D01*
X104563391Y-116951308D01*
X104561424Y-116956059D01*
X104561056Y-116956947D01*
X104517217Y-117011353D01*
X104450924Y-117033420D01*
X104446493Y-117033499D01*
X104360247Y-117033499D01*
X104301770Y-117045130D01*
X104301769Y-117045131D01*
X104235447Y-117089446D01*
X104191132Y-117155768D01*
X104191131Y-117155769D01*
X104179500Y-117214246D01*
X104179500Y-117648613D01*
X104159815Y-117715652D01*
X104107011Y-117761407D01*
X104054340Y-117770189D01*
X104054340Y-117772499D01*
X102851747Y-117772499D01*
X102793270Y-117784130D01*
X102793269Y-117784131D01*
X102726947Y-117828446D01*
X102682632Y-117894768D01*
X102682631Y-117894769D01*
X102671000Y-117953246D01*
X102671000Y-118482751D01*
X102682631Y-118541228D01*
X102682632Y-118541229D01*
X102726947Y-118607551D01*
X102793269Y-118651866D01*
X102793270Y-118651867D01*
X102851747Y-118663498D01*
X102851750Y-118663499D01*
X102851752Y-118663499D01*
X104048250Y-118663499D01*
X104048251Y-118663498D01*
X104063068Y-118660551D01*
X104106729Y-118651867D01*
X104106729Y-118651866D01*
X104106731Y-118651866D01*
X104173052Y-118607551D01*
X104204418Y-118560608D01*
X104258030Y-118515804D01*
X104307520Y-118505500D01*
X104605500Y-118505500D01*
X104672539Y-118525185D01*
X104718294Y-118577989D01*
X104729500Y-118629500D01*
X104729500Y-119072747D01*
X104743420Y-119142731D01*
X104740988Y-119169897D01*
X104742061Y-119197148D01*
X104737919Y-119204187D01*
X104737191Y-119212322D01*
X104720461Y-119233857D01*
X104706629Y-119257367D01*
X104697746Y-119263098D01*
X104694328Y-119267499D01*
X104677711Y-119277601D01*
X104673543Y-119279706D01*
X104602439Y-119309159D01*
X104589374Y-119322223D01*
X104571646Y-119331179D01*
X104556031Y-119334055D01*
X104542095Y-119341665D01*
X104515737Y-119344499D01*
X103723181Y-119344499D01*
X103627436Y-119384159D01*
X103554159Y-119457436D01*
X103514499Y-119553181D01*
X103512117Y-119565159D01*
X103509745Y-119564687D01*
X103494814Y-119615538D01*
X103442010Y-119661293D01*
X103390499Y-119672499D01*
X102851747Y-119672499D01*
X102793270Y-119684130D01*
X102793269Y-119684131D01*
X102726947Y-119728446D01*
X102682632Y-119794768D01*
X102682631Y-119794769D01*
X102671000Y-119853246D01*
X102671000Y-120382751D01*
X102682631Y-120441228D01*
X102682632Y-120441229D01*
X102726947Y-120507551D01*
X102793269Y-120551866D01*
X102793270Y-120551867D01*
X102851747Y-120563498D01*
X102851750Y-120563499D01*
X102851752Y-120563499D01*
X103412362Y-120563499D01*
X103479401Y-120583184D01*
X103509587Y-120614837D01*
X103511515Y-120613358D01*
X103516461Y-120619804D01*
X103516463Y-120619807D01*
X103581720Y-120685064D01*
X103581723Y-120685065D01*
X103581726Y-120685068D01*
X103661638Y-120731206D01*
X103661639Y-120731206D01*
X103661644Y-120731209D01*
X103750788Y-120755095D01*
X103750790Y-120755095D01*
X103843074Y-120755095D01*
X103843076Y-120755095D01*
X103932220Y-120731209D01*
X104012144Y-120685064D01*
X104077401Y-120619807D01*
X104108388Y-120566135D01*
X104146882Y-120525036D01*
X104173052Y-120507551D01*
X104217367Y-120441230D01*
X104217367Y-120441229D01*
X104217368Y-120441228D01*
X104228999Y-120382751D01*
X104229000Y-120382749D01*
X104229000Y-119989499D01*
X104248685Y-119922460D01*
X104301489Y-119876705D01*
X104353000Y-119865499D01*
X104614359Y-119865499D01*
X104681398Y-119885184D01*
X104727153Y-119937988D01*
X104735976Y-119965308D01*
X104741131Y-119991229D01*
X104741132Y-119991230D01*
X104785447Y-120057552D01*
X104851769Y-120101867D01*
X104851770Y-120101868D01*
X104910247Y-120113499D01*
X104910250Y-120113500D01*
X104910252Y-120113500D01*
X105300500Y-120113500D01*
X105367539Y-120133185D01*
X105413294Y-120185989D01*
X105424500Y-120237500D01*
X105424500Y-120645500D01*
X105404815Y-120712539D01*
X105352011Y-120758294D01*
X105300500Y-120769500D01*
X104910247Y-120769500D01*
X104851770Y-120781131D01*
X104851769Y-120781132D01*
X104785447Y-120825447D01*
X104741132Y-120891769D01*
X104741131Y-120891770D01*
X104729500Y-120950247D01*
X104729500Y-121489752D01*
X104741131Y-121548229D01*
X104741132Y-121548230D01*
X104785447Y-121614552D01*
X104851769Y-121658867D01*
X104851770Y-121658868D01*
X104910247Y-121670499D01*
X104910250Y-121670500D01*
X104910252Y-121670500D01*
X105489750Y-121670500D01*
X105489751Y-121670499D01*
X105504568Y-121667552D01*
X105548229Y-121658868D01*
X105548229Y-121658867D01*
X105548231Y-121658867D01*
X105614552Y-121614552D01*
X105614551Y-121614552D01*
X105624707Y-121607767D01*
X105625402Y-121608807D01*
X105675472Y-121581464D01*
X105745164Y-121586445D01*
X105801100Y-121628313D01*
X105809244Y-121640663D01*
X106178380Y-122280499D01*
X106202362Y-122322067D01*
X106216442Y-122356057D01*
X106229513Y-122369128D01*
X106238751Y-122385140D01*
X106261500Y-122402607D01*
X106273653Y-122413268D01*
X106293182Y-122432797D01*
X106293941Y-122433556D01*
X106295913Y-122434373D01*
X106323983Y-122450584D01*
X106325682Y-122451889D01*
X106361214Y-122461421D01*
X106395199Y-122475499D01*
X106413684Y-122475499D01*
X106431538Y-122480289D01*
X106455995Y-122477077D01*
X106459982Y-122476554D01*
X106476126Y-122475499D01*
X107329456Y-122475499D01*
X107396495Y-122495184D01*
X107442250Y-122547988D01*
X107452194Y-122617146D01*
X107423169Y-122680702D01*
X107417137Y-122687180D01*
X107369532Y-122734784D01*
X107369525Y-122734793D01*
X107323387Y-122814705D01*
X107323081Y-122815445D01*
X107322655Y-122815973D01*
X107319320Y-122821750D01*
X107318419Y-122821230D01*
X107310536Y-122831013D01*
X107302230Y-122849203D01*
X107289062Y-122857665D01*
X107279244Y-122869851D01*
X107260273Y-122876166D01*
X107243452Y-122886977D01*
X107215905Y-122890937D01*
X107212952Y-122891921D01*
X107208517Y-122892000D01*
X107159043Y-122892000D01*
X107092004Y-122872315D01*
X107071362Y-122855681D01*
X107015214Y-122799533D01*
X107015212Y-122799531D01*
X107015209Y-122799529D01*
X107015205Y-122799526D01*
X106935293Y-122753388D01*
X106935290Y-122753387D01*
X106935289Y-122753386D01*
X106935288Y-122753386D01*
X106846144Y-122729500D01*
X106753856Y-122729500D01*
X106753854Y-122729500D01*
X106661477Y-122754252D01*
X106597294Y-122754252D01*
X106552423Y-122742229D01*
X106552419Y-122742229D01*
X106460131Y-122742229D01*
X106370987Y-122766115D01*
X106370986Y-122766115D01*
X106370984Y-122766116D01*
X106370981Y-122766117D01*
X106291069Y-122812255D01*
X106291059Y-122812263D01*
X106242995Y-122860327D01*
X106181672Y-122893811D01*
X106131125Y-122894263D01*
X106119748Y-122892000D01*
X105880252Y-122892000D01*
X105824190Y-122903151D01*
X105775810Y-122903151D01*
X105719748Y-122892000D01*
X105480252Y-122892000D01*
X105424190Y-122903151D01*
X105375810Y-122903151D01*
X105319748Y-122892000D01*
X105080252Y-122892000D01*
X105024190Y-122903151D01*
X104975810Y-122903151D01*
X104919748Y-122892000D01*
X104680252Y-122892000D01*
X104624190Y-122903151D01*
X104575810Y-122903151D01*
X104519748Y-122892000D01*
X104280252Y-122892000D01*
X104224190Y-122903151D01*
X104175810Y-122903151D01*
X104119748Y-122892000D01*
X103880252Y-122892000D01*
X103880247Y-122892000D01*
X103821770Y-122903631D01*
X103821769Y-122903632D01*
X103755447Y-122947947D01*
X103711132Y-123014269D01*
X103711131Y-123014270D01*
X103699500Y-123072747D01*
X103699500Y-123353454D01*
X103679815Y-123420493D01*
X103663182Y-123441134D01*
X103619533Y-123484783D01*
X103619525Y-123484793D01*
X103573387Y-123564705D01*
X103573386Y-123564708D01*
X103573385Y-123564710D01*
X103573385Y-123564711D01*
X103549499Y-123653855D01*
X103549499Y-123746143D01*
X103572715Y-123832788D01*
X103575489Y-123843138D01*
X103572131Y-123844037D01*
X103573905Y-123860755D01*
X103578563Y-123893147D01*
X103577573Y-123895313D01*
X103577825Y-123897681D01*
X103563136Y-123926926D01*
X103549538Y-123956703D01*
X103547534Y-123957990D01*
X103546466Y-123960118D01*
X103518301Y-123976777D01*
X103490760Y-123994477D01*
X103487613Y-123994929D01*
X103486329Y-123995689D01*
X103455825Y-123999500D01*
X103325711Y-123999500D01*
X103258672Y-123979815D01*
X103249319Y-123973174D01*
X103238699Y-123964868D01*
X103198019Y-123908062D01*
X103195318Y-123899295D01*
X103192153Y-123887480D01*
X103185341Y-123875681D01*
X103146012Y-123807562D01*
X103146009Y-123807559D01*
X103146008Y-123807556D01*
X103080751Y-123742299D01*
X103080748Y-123742297D01*
X103080744Y-123742294D01*
X103000832Y-123696156D01*
X103000829Y-123696155D01*
X103000828Y-123696154D01*
X103000827Y-123696154D01*
X102911683Y-123672268D01*
X102819395Y-123672268D01*
X102730249Y-123696154D01*
X102711499Y-123706980D01*
X102643599Y-123723452D01*
X102577572Y-123700599D01*
X102534382Y-123645677D01*
X102525500Y-123599592D01*
X102525500Y-122969044D01*
X102545185Y-122902005D01*
X102597989Y-122856250D01*
X102625307Y-122847426D01*
X102648231Y-122842867D01*
X102714552Y-122798552D01*
X102758867Y-122732231D01*
X102758867Y-122732229D01*
X102758868Y-122732229D01*
X102770499Y-122673752D01*
X102770500Y-122673750D01*
X102770500Y-122134249D01*
X102770499Y-122134247D01*
X102758868Y-122075770D01*
X102758867Y-122075769D01*
X102714552Y-122009447D01*
X102648230Y-121965132D01*
X102648229Y-121965131D01*
X102589752Y-121953500D01*
X102589748Y-121953500D01*
X102249481Y-121953500D01*
X102241302Y-121951873D01*
X102236226Y-121952789D01*
X102202028Y-121944061D01*
X102152047Y-121923358D01*
X102097644Y-121879517D01*
X102075579Y-121813222D01*
X102075500Y-121808797D01*
X102075500Y-120945201D01*
X102075500Y-120945200D01*
X102049130Y-120881538D01*
X102033558Y-120843942D01*
X102033556Y-120843940D01*
X102033556Y-120843939D01*
X101877291Y-120687674D01*
X101843806Y-120626351D01*
X101848790Y-120556659D01*
X101877294Y-120512308D01*
X101882045Y-120507555D01*
X101882052Y-120507551D01*
X101926367Y-120441230D01*
X101926367Y-120441228D01*
X101926368Y-120441228D01*
X101937999Y-120382751D01*
X101938000Y-120382749D01*
X101938000Y-119853248D01*
X101934068Y-119833482D01*
X101940295Y-119763890D01*
X101967999Y-119721614D01*
X102183556Y-119506059D01*
X102207529Y-119448183D01*
X102225499Y-119404800D01*
X102225499Y-118615477D01*
X102245184Y-118548438D01*
X102261816Y-118527798D01*
X102333556Y-118456060D01*
X102337495Y-118446552D01*
X102375500Y-118354800D01*
X102375500Y-117715477D01*
X102395185Y-117648438D01*
X102411819Y-117627796D01*
X102739783Y-117299833D01*
X103083557Y-116956059D01*
X103099115Y-116918499D01*
X103125500Y-116854800D01*
X103125500Y-114297760D01*
X103128675Y-114286946D01*
X103127471Y-114275742D01*
X103138342Y-114254023D01*
X103145185Y-114230721D01*
X103153700Y-114223342D01*
X103158746Y-114213263D01*
X103179636Y-114200868D01*
X103197989Y-114184966D01*
X103209142Y-114183362D01*
X103218836Y-114177611D01*
X103243109Y-114178478D01*
X103267147Y-114175022D01*
X103277398Y-114179703D01*
G37*
%TD.AperFunction*%
%TA.AperFunction,Conductor*%
G36*
X112307393Y-120902420D02*
G01*
X112307487Y-120902194D01*
X112309289Y-120902940D01*
X112315161Y-120904551D01*
X112318758Y-120906863D01*
X112318770Y-120906868D01*
X112377247Y-120918499D01*
X112377250Y-120918500D01*
X112950500Y-120918500D01*
X113017539Y-120938185D01*
X113063294Y-120990989D01*
X113074500Y-121042500D01*
X113074500Y-121223457D01*
X113054815Y-121290496D01*
X113002011Y-121336251D01*
X112932853Y-121346195D01*
X112869297Y-121317170D01*
X112862819Y-121311138D01*
X112815214Y-121263533D01*
X112815212Y-121263531D01*
X112815209Y-121263529D01*
X112815205Y-121263526D01*
X112735293Y-121217388D01*
X112735290Y-121217387D01*
X112735289Y-121217386D01*
X112735288Y-121217386D01*
X112646144Y-121193500D01*
X112553856Y-121193500D01*
X112464712Y-121217386D01*
X112464711Y-121217386D01*
X112464709Y-121217387D01*
X112464706Y-121217388D01*
X112384794Y-121263526D01*
X112384785Y-121263533D01*
X112319533Y-121328785D01*
X112319526Y-121328794D01*
X112273388Y-121408706D01*
X112273387Y-121408709D01*
X112273386Y-121408711D01*
X112273386Y-121408712D01*
X112249500Y-121497856D01*
X112249500Y-121590144D01*
X112271031Y-121670500D01*
X112273387Y-121679290D01*
X112273388Y-121679293D01*
X112319526Y-121759205D01*
X112319529Y-121759209D01*
X112319531Y-121759212D01*
X112384788Y-121824469D01*
X112384791Y-121824470D01*
X112384794Y-121824473D01*
X112464706Y-121870611D01*
X112464707Y-121870611D01*
X112464712Y-121870614D01*
X112553856Y-121894500D01*
X112553858Y-121894500D01*
X112646142Y-121894500D01*
X112646144Y-121894500D01*
X112735288Y-121870614D01*
X112815212Y-121824469D01*
X112862819Y-121776862D01*
X112924142Y-121743377D01*
X112993834Y-121748361D01*
X113049767Y-121790233D01*
X113074184Y-121855697D01*
X113074500Y-121864543D01*
X113074500Y-122749457D01*
X113054815Y-122816496D01*
X113002011Y-122862251D01*
X112932853Y-122872195D01*
X112869297Y-122843170D01*
X112862819Y-122837138D01*
X112815214Y-122789533D01*
X112815212Y-122789531D01*
X112815209Y-122789529D01*
X112815205Y-122789526D01*
X112735293Y-122743388D01*
X112735290Y-122743387D01*
X112735289Y-122743386D01*
X112735288Y-122743386D01*
X112646144Y-122719500D01*
X112553856Y-122719500D01*
X112464712Y-122743386D01*
X112464711Y-122743386D01*
X112464709Y-122743387D01*
X112464706Y-122743388D01*
X112384794Y-122789526D01*
X112384785Y-122789533D01*
X112319533Y-122854785D01*
X112319526Y-122854794D01*
X112273388Y-122934706D01*
X112273387Y-122934709D01*
X112273386Y-122934711D01*
X112273386Y-122934712D01*
X112264187Y-122969044D01*
X112249500Y-123023856D01*
X112249500Y-123041961D01*
X112229815Y-123109000D01*
X112177011Y-123154755D01*
X112149692Y-123163578D01*
X112121770Y-123169132D01*
X112121769Y-123169132D01*
X112055447Y-123213447D01*
X112011132Y-123279769D01*
X112011131Y-123279770D01*
X111999500Y-123338247D01*
X111999500Y-123752943D01*
X111979815Y-123819982D01*
X111927011Y-123865737D01*
X111857853Y-123875681D01*
X111794297Y-123846656D01*
X111786436Y-123838314D01*
X111786216Y-123838535D01*
X111715214Y-123767533D01*
X111715212Y-123767531D01*
X111715209Y-123767529D01*
X111715205Y-123767526D01*
X111635293Y-123721388D01*
X111635290Y-123721387D01*
X111635289Y-123721386D01*
X111635288Y-123721386D01*
X111546144Y-123697500D01*
X111453856Y-123697500D01*
X111364712Y-123721386D01*
X111364711Y-123721386D01*
X111364709Y-123721387D01*
X111364706Y-123721388D01*
X111284794Y-123767526D01*
X111284785Y-123767533D01*
X111213784Y-123838535D01*
X111211400Y-123836151D01*
X111167516Y-123868127D01*
X111097766Y-123872211D01*
X111036880Y-123837936D01*
X111018301Y-123813397D01*
X111014929Y-123807556D01*
X110949672Y-123742299D01*
X110949669Y-123742297D01*
X110949665Y-123742294D01*
X110869753Y-123696156D01*
X110869750Y-123696155D01*
X110869749Y-123696154D01*
X110869748Y-123696154D01*
X110780604Y-123672268D01*
X110688316Y-123672268D01*
X110599172Y-123696154D01*
X110599171Y-123696154D01*
X110599169Y-123696155D01*
X110599166Y-123696156D01*
X110519254Y-123742294D01*
X110519245Y-123742301D01*
X110453993Y-123807553D01*
X110453991Y-123807556D01*
X110407844Y-123887483D01*
X110407843Y-123887484D01*
X110404679Y-123899294D01*
X110393074Y-123918330D01*
X110385728Y-123939380D01*
X110370654Y-123955107D01*
X110368311Y-123958952D01*
X110361307Y-123964861D01*
X110350689Y-123973167D01*
X110285758Y-123998968D01*
X110274288Y-123999500D01*
X110024500Y-123999500D01*
X109957461Y-123979815D01*
X109911706Y-123927011D01*
X109900500Y-123875500D01*
X109900500Y-123072749D01*
X109900499Y-123072747D01*
X109888868Y-123014270D01*
X109884940Y-123004788D01*
X109879269Y-122987674D01*
X109875500Y-122972739D01*
X109875500Y-122895199D01*
X109833557Y-122793941D01*
X109833556Y-122793940D01*
X109833556Y-122793939D01*
X109793868Y-122754252D01*
X109606056Y-122566442D01*
X109564113Y-122549069D01*
X109504799Y-122524500D01*
X109451234Y-122524500D01*
X109437363Y-122521271D01*
X109418843Y-122510806D01*
X109398439Y-122504815D01*
X109377797Y-122488181D01*
X109204662Y-122315046D01*
X108972295Y-122082680D01*
X108938811Y-122021358D01*
X108943795Y-121951667D01*
X108956875Y-121926109D01*
X108957951Y-121924499D01*
X108981413Y-121889385D01*
X109035024Y-121844582D01*
X109104349Y-121835875D01*
X109167377Y-121866030D01*
X109172195Y-121870597D01*
X109542439Y-122240841D01*
X109638183Y-122280500D01*
X109638184Y-122280500D01*
X111001816Y-122280500D01*
X111001817Y-122280500D01*
X111097561Y-122240841D01*
X111230842Y-122107561D01*
X111230842Y-122107559D01*
X111237649Y-122100753D01*
X111298972Y-122067269D01*
X111357424Y-122068660D01*
X111364708Y-122070611D01*
X111364712Y-122070614D01*
X111453856Y-122094500D01*
X111453859Y-122094500D01*
X111546142Y-122094500D01*
X111546144Y-122094500D01*
X111635288Y-122070614D01*
X111715212Y-122024469D01*
X111780469Y-121959212D01*
X111826614Y-121879288D01*
X111850500Y-121790144D01*
X111850500Y-121697856D01*
X111826614Y-121608712D01*
X111826611Y-121608706D01*
X111780473Y-121528794D01*
X111780470Y-121528791D01*
X111780469Y-121528788D01*
X111715212Y-121463531D01*
X111715209Y-121463529D01*
X111715205Y-121463526D01*
X111635293Y-121417388D01*
X111635290Y-121417387D01*
X111635289Y-121417386D01*
X111635288Y-121417386D01*
X111546144Y-121393500D01*
X111453856Y-121393500D01*
X111453854Y-121393500D01*
X111426592Y-121400805D01*
X111356742Y-121399142D01*
X111298880Y-121359978D01*
X111271377Y-121295750D01*
X111270500Y-121281030D01*
X111270500Y-121013057D01*
X111290185Y-120946018D01*
X111342989Y-120900263D01*
X111412147Y-120890319D01*
X111446890Y-120903633D01*
X111447487Y-120902194D01*
X111458770Y-120906868D01*
X111517247Y-120918499D01*
X111517250Y-120918500D01*
X111517252Y-120918500D01*
X112122750Y-120918500D01*
X112122751Y-120918499D01*
X112137568Y-120915552D01*
X112181229Y-120906868D01*
X112192513Y-120902194D01*
X112192947Y-120903242D01*
X112247780Y-120886070D01*
X112307393Y-120902420D01*
G37*
%TD.AperFunction*%
%TA.AperFunction,Conductor*%
G36*
X106951562Y-116945184D02*
G01*
X106972202Y-116961816D01*
X107193941Y-117183556D01*
X107222058Y-117195202D01*
X107264815Y-117212913D01*
X107295197Y-117225498D01*
X107295198Y-117225498D01*
X107295200Y-117225499D01*
X107334520Y-117225499D01*
X107361467Y-117233411D01*
X107389154Y-117238183D01*
X107397121Y-117243880D01*
X107401559Y-117245184D01*
X107418302Y-117258084D01*
X107420286Y-117259902D01*
X107493939Y-117333556D01*
X107493940Y-117333556D01*
X107493941Y-117333557D01*
X107595199Y-117375500D01*
X107704797Y-117375500D01*
X108384523Y-117375500D01*
X108413965Y-117384145D01*
X108443949Y-117390668D01*
X108448964Y-117394422D01*
X108451562Y-117395185D01*
X108472199Y-117411814D01*
X108616443Y-117556057D01*
X108693942Y-117633556D01*
X108759140Y-117660562D01*
X108813543Y-117704404D01*
X108835607Y-117770698D01*
X108824453Y-117826693D01*
X108815645Y-117845952D01*
X108809159Y-117852439D01*
X108775328Y-117934112D01*
X108774375Y-117936197D01*
X108770211Y-117940997D01*
X108749294Y-117972303D01*
X108749161Y-117972435D01*
X108749158Y-117972440D01*
X108716169Y-118052080D01*
X108689290Y-118092306D01*
X108110434Y-118671163D01*
X108110431Y-118671166D01*
X108102439Y-118679159D01*
X108029159Y-118752439D01*
X107991150Y-118844197D01*
X107983700Y-118855006D01*
X107977477Y-118860054D01*
X107969294Y-118872303D01*
X107969161Y-118872435D01*
X107969160Y-118872437D01*
X107969159Y-118872438D01*
X107969159Y-118872439D01*
X107957544Y-118900478D01*
X107929500Y-118968182D01*
X107929500Y-119145500D01*
X107909815Y-119212539D01*
X107857011Y-119258294D01*
X107805500Y-119269500D01*
X107310247Y-119269500D01*
X107251770Y-119281131D01*
X107251769Y-119281132D01*
X107185447Y-119325447D01*
X107141132Y-119391769D01*
X107141131Y-119391770D01*
X107129500Y-119450247D01*
X107129500Y-119957609D01*
X107121154Y-119999569D01*
X107121185Y-119999578D01*
X107121061Y-120000040D01*
X107120064Y-120005054D01*
X107119083Y-120007422D01*
X107119081Y-120007428D01*
X107119081Y-120007429D01*
X107099402Y-120080872D01*
X107095195Y-120096573D01*
X107095195Y-120188860D01*
X107119082Y-120278007D01*
X107119083Y-120278010D01*
X107165221Y-120357922D01*
X107165224Y-120357926D01*
X107165226Y-120357929D01*
X107230483Y-120423186D01*
X107230486Y-120423187D01*
X107230489Y-120423190D01*
X107310401Y-120469328D01*
X107310402Y-120469328D01*
X107310407Y-120469331D01*
X107399551Y-120493217D01*
X107399553Y-120493217D01*
X107475500Y-120493217D01*
X107542539Y-120512902D01*
X107588294Y-120565706D01*
X107599500Y-120617217D01*
X107599500Y-121217038D01*
X107579815Y-121284077D01*
X107527011Y-121329832D01*
X107457853Y-121339776D01*
X107406609Y-121320140D01*
X107348230Y-121281132D01*
X107348229Y-121281131D01*
X107289752Y-121269500D01*
X107289748Y-121269500D01*
X106887111Y-121269500D01*
X106855019Y-121265275D01*
X106796145Y-121249500D01*
X106796144Y-121249500D01*
X106703856Y-121249500D01*
X106614712Y-121273386D01*
X106614711Y-121273386D01*
X106614709Y-121273387D01*
X106614706Y-121273388D01*
X106534794Y-121319526D01*
X106534789Y-121319530D01*
X106474901Y-121379418D01*
X106413577Y-121412902D01*
X106343886Y-121407917D01*
X106287952Y-121366046D01*
X106279813Y-121353702D01*
X105992093Y-120854988D01*
X105975500Y-120793022D01*
X105975500Y-119215201D01*
X105975500Y-119215200D01*
X105961268Y-119180841D01*
X105933558Y-119113942D01*
X105706819Y-118887203D01*
X105692115Y-118860275D01*
X105675523Y-118834457D01*
X105674631Y-118828256D01*
X105673334Y-118825880D01*
X105670500Y-118799522D01*
X105670500Y-118697519D01*
X105690185Y-118630480D01*
X105742989Y-118584725D01*
X105762404Y-118577745D01*
X105785288Y-118571614D01*
X105865212Y-118525469D01*
X105930469Y-118460212D01*
X105953189Y-118420859D01*
X105973744Y-118401261D01*
X105992029Y-118379530D01*
X105998700Y-118377465D01*
X106003755Y-118372646D01*
X106031642Y-118367271D01*
X106058776Y-118358875D01*
X106065505Y-118360745D01*
X106072363Y-118359424D01*
X106098727Y-118369978D01*
X106126094Y-118377585D01*
X106131993Y-118383296D01*
X106137227Y-118385392D01*
X106153100Y-118400308D01*
X106158867Y-118406772D01*
X106185448Y-118446552D01*
X106207517Y-118461298D01*
X106218025Y-118473075D01*
X106226506Y-118490955D01*
X106239195Y-118506138D01*
X106243488Y-118526756D01*
X106247969Y-118536203D01*
X106247451Y-118540214D01*
X106248439Y-118540084D01*
X106249500Y-118548143D01*
X106249500Y-118548144D01*
X106271299Y-118629500D01*
X106273387Y-118637290D01*
X106273388Y-118637293D01*
X106319526Y-118717205D01*
X106319529Y-118717209D01*
X106319531Y-118717212D01*
X106384788Y-118782469D01*
X106384791Y-118782470D01*
X106384794Y-118782473D01*
X106464706Y-118828611D01*
X106464707Y-118828611D01*
X106464712Y-118828614D01*
X106553856Y-118852500D01*
X106553858Y-118852500D01*
X106646142Y-118852500D01*
X106646144Y-118852500D01*
X106735288Y-118828614D01*
X106815212Y-118782469D01*
X106880469Y-118717212D01*
X106926614Y-118637288D01*
X106950500Y-118548144D01*
X106950500Y-118548135D01*
X106951561Y-118540084D01*
X106954934Y-118540528D01*
X106970185Y-118488590D01*
X107005607Y-118452528D01*
X107014552Y-118446552D01*
X107058867Y-118380231D01*
X107058867Y-118380229D01*
X107058868Y-118380229D01*
X107067552Y-118336568D01*
X107070500Y-118321748D01*
X107070500Y-117782252D01*
X107070500Y-117782249D01*
X107070499Y-117782247D01*
X107058868Y-117723770D01*
X107058867Y-117723769D01*
X107014552Y-117657447D01*
X106948230Y-117613132D01*
X106948229Y-117613131D01*
X106889752Y-117601500D01*
X106889748Y-117601500D01*
X106310252Y-117601500D01*
X106310247Y-117601500D01*
X106251770Y-117613131D01*
X106251769Y-117613132D01*
X106185447Y-117657447D01*
X106141132Y-117723769D01*
X106141131Y-117723770D01*
X106129500Y-117782247D01*
X106129500Y-117929457D01*
X106109815Y-117996496D01*
X106057011Y-118042251D01*
X105987853Y-118052195D01*
X105924297Y-118023170D01*
X105917819Y-118017138D01*
X105865214Y-117964533D01*
X105865212Y-117964531D01*
X105865209Y-117964529D01*
X105865205Y-117964526D01*
X105785293Y-117918388D01*
X105785290Y-117918387D01*
X105785289Y-117918386D01*
X105785288Y-117918386D01*
X105696144Y-117894500D01*
X105603856Y-117894500D01*
X105514712Y-117918386D01*
X105514711Y-117918386D01*
X105514709Y-117918387D01*
X105514706Y-117918388D01*
X105428976Y-117967886D01*
X105413488Y-117972036D01*
X105401910Y-117979477D01*
X105366975Y-117984500D01*
X105193652Y-117984500D01*
X105126613Y-117964815D01*
X105080858Y-117912011D01*
X105070914Y-117842853D01*
X105072034Y-117836310D01*
X105080500Y-117793746D01*
X105080500Y-117349499D01*
X105100185Y-117282460D01*
X105152989Y-117236705D01*
X105204500Y-117225499D01*
X105604799Y-117225499D01*
X105604800Y-117225499D01*
X105706058Y-117183556D01*
X105783557Y-117106057D01*
X105783556Y-117106057D01*
X105911001Y-116978613D01*
X105927799Y-116961816D01*
X105989123Y-116928332D01*
X106015479Y-116925499D01*
X106884523Y-116925499D01*
X106951562Y-116945184D01*
G37*
%TD.AperFunction*%
%TA.AperFunction,Conductor*%
G36*
X112441342Y-116917472D02*
G01*
X112445172Y-116918499D01*
X112445174Y-116918499D01*
X112950500Y-116918499D01*
X113017539Y-116938184D01*
X113063294Y-116990988D01*
X113074500Y-117042499D01*
X113074500Y-119853500D01*
X113054815Y-119920539D01*
X113002011Y-119966294D01*
X112950500Y-119977500D01*
X112654138Y-119977500D01*
X112587099Y-119957815D01*
X112541344Y-119905011D01*
X112539578Y-119900954D01*
X112500842Y-119807441D01*
X112500841Y-119807440D01*
X112500841Y-119807439D01*
X112427561Y-119734159D01*
X112331817Y-119694500D01*
X112064265Y-119694500D01*
X112034824Y-119685855D01*
X112004838Y-119679332D01*
X111999822Y-119675577D01*
X111997226Y-119674815D01*
X111976584Y-119658181D01*
X111901819Y-119583416D01*
X111868334Y-119522093D01*
X111865500Y-119495735D01*
X111865500Y-118778184D01*
X111865500Y-118778183D01*
X111831818Y-118696870D01*
X111825193Y-118663565D01*
X111823441Y-118663796D01*
X111822380Y-118655743D01*
X111822380Y-118655736D01*
X111798494Y-118566592D01*
X111787843Y-118548144D01*
X111752353Y-118486674D01*
X111752350Y-118486671D01*
X111752349Y-118486668D01*
X111687092Y-118421411D01*
X111687089Y-118421409D01*
X111687085Y-118421406D01*
X111607173Y-118375268D01*
X111607170Y-118375267D01*
X111607169Y-118375266D01*
X111607168Y-118375266D01*
X111518024Y-118351380D01*
X111425736Y-118351380D01*
X111336592Y-118375266D01*
X111336591Y-118375266D01*
X111336589Y-118375267D01*
X111336586Y-118375268D01*
X111278440Y-118408840D01*
X111260408Y-118413214D01*
X111244225Y-118422301D01*
X111211821Y-118425003D01*
X111210540Y-118425314D01*
X111209053Y-118425234D01*
X111112574Y-118419477D01*
X111046826Y-118395834D01*
X111004298Y-118340398D01*
X110998491Y-118270770D01*
X111031250Y-118209056D01*
X111078484Y-118181414D01*
X111077783Y-118179722D01*
X111085280Y-118176615D01*
X111085287Y-118176614D01*
X111165211Y-118130469D01*
X111230468Y-118065212D01*
X111276613Y-117985288D01*
X111280600Y-117970406D01*
X111316964Y-117910746D01*
X111379811Y-117880216D01*
X111400375Y-117878499D01*
X111494826Y-117878499D01*
X111494828Y-117878499D01*
X111581428Y-117855294D01*
X111638002Y-117822631D01*
X111705900Y-117806159D01*
X111761997Y-117822631D01*
X111818572Y-117855294D01*
X111905172Y-117878499D01*
X111905174Y-117878499D01*
X111994826Y-117878499D01*
X111994828Y-117878499D01*
X112081428Y-117855294D01*
X112159072Y-117810467D01*
X112222468Y-117747071D01*
X112267295Y-117669427D01*
X112290500Y-117582827D01*
X112290500Y-117073171D01*
X112289474Y-117069342D01*
X112289553Y-117065986D01*
X112289439Y-117065114D01*
X112289575Y-117065096D01*
X112291135Y-116999494D01*
X112330296Y-116941630D01*
X112394523Y-116914124D01*
X112441342Y-116917472D01*
G37*
%TD.AperFunction*%
%TA.AperFunction,Conductor*%
G36*
X102634893Y-111695184D02*
G01*
X102680648Y-111747988D01*
X102690592Y-111817146D01*
X102675240Y-111861500D01*
X102673386Y-111864712D01*
X102673385Y-111864714D01*
X102655526Y-111931363D01*
X102636512Y-111971541D01*
X102630600Y-111979782D01*
X102616443Y-111993940D01*
X102616443Y-111993941D01*
X102610974Y-112007143D01*
X102610974Y-112007144D01*
X102574500Y-112095198D01*
X102574500Y-115557500D01*
X102554815Y-115624539D01*
X102502011Y-115670294D01*
X102450500Y-115681500D01*
X102010247Y-115681500D01*
X101951770Y-115693131D01*
X101951769Y-115693132D01*
X101885447Y-115737447D01*
X101841132Y-115803769D01*
X101841131Y-115803770D01*
X101829500Y-115862247D01*
X101829500Y-116170500D01*
X101809815Y-116237539D01*
X101757011Y-116283294D01*
X101705500Y-116294500D01*
X101423182Y-116294500D01*
X101356554Y-116322099D01*
X101328065Y-116333900D01*
X101327437Y-116334160D01*
X101254160Y-116407437D01*
X101214500Y-116503182D01*
X101214500Y-117396975D01*
X101197886Y-117458976D01*
X101148388Y-117544706D01*
X101148387Y-117544709D01*
X101148386Y-117544711D01*
X101148386Y-117544712D01*
X101145346Y-117556057D01*
X101124500Y-117633856D01*
X101124500Y-117648499D01*
X101104815Y-117715538D01*
X101052011Y-117761293D01*
X101000500Y-117772499D01*
X100624500Y-117772499D01*
X100557461Y-117752814D01*
X100511706Y-117700010D01*
X100500500Y-117648499D01*
X100500500Y-112004500D01*
X100520185Y-111937461D01*
X100572989Y-111891706D01*
X100624500Y-111880500D01*
X100716142Y-111880500D01*
X100716144Y-111880500D01*
X100805288Y-111856614D01*
X100839501Y-111836861D01*
X100882364Y-111812114D01*
X100944365Y-111795500D01*
X101757250Y-111795500D01*
X101757251Y-111795499D01*
X101772068Y-111792552D01*
X101815729Y-111783868D01*
X101815731Y-111783867D01*
X101872818Y-111745722D01*
X101939495Y-111724843D01*
X101973795Y-111729046D01*
X102053856Y-111750499D01*
X102053859Y-111750499D01*
X102146142Y-111750499D01*
X102146144Y-111750499D01*
X102235288Y-111726613D01*
X102295044Y-111692111D01*
X102357045Y-111675499D01*
X102567854Y-111675499D01*
X102634893Y-111695184D01*
G37*
%TD.AperFunction*%
%TA.AperFunction,Conductor*%
G36*
X102004922Y-116820922D02*
G01*
X102024164Y-116821372D01*
X102051302Y-116834541D01*
X102053496Y-116835185D01*
X102054806Y-116836241D01*
X102055917Y-116836780D01*
X102065744Y-116843425D01*
X102084788Y-116862469D01*
X102147166Y-116898484D01*
X102150812Y-116900949D01*
X102170378Y-116924627D01*
X102191568Y-116946850D01*
X102192427Y-116951308D01*
X102195320Y-116954809D01*
X102198979Y-116985307D01*
X102204790Y-117015457D01*
X102203102Y-117019671D01*
X102203644Y-117024181D01*
X102190234Y-117051815D01*
X102178822Y-117080322D01*
X102175123Y-117082955D01*
X102173141Y-117087041D01*
X102169033Y-117091350D01*
X101947181Y-117313203D01*
X101885858Y-117346688D01*
X101816167Y-117341704D01*
X101760233Y-117299833D01*
X101735816Y-117234368D01*
X101735500Y-117225522D01*
X101735500Y-116939500D01*
X101755185Y-116872461D01*
X101807989Y-116826706D01*
X101859500Y-116815500D01*
X101986457Y-116815500D01*
X102004922Y-116820922D01*
G37*
%TD.AperFunction*%
%TA.AperFunction,Conductor*%
G36*
X104448834Y-108943295D02*
G01*
X104504768Y-108985166D01*
X104529184Y-109050631D01*
X104529500Y-109059476D01*
X104529500Y-109272752D01*
X104541131Y-109331229D01*
X104541132Y-109331230D01*
X104585447Y-109397552D01*
X104651769Y-109441867D01*
X104651770Y-109441868D01*
X104710247Y-109453499D01*
X104710250Y-109453500D01*
X104710252Y-109453500D01*
X105289750Y-109453500D01*
X105289751Y-109453499D01*
X105304568Y-109450552D01*
X105348229Y-109441868D01*
X105348231Y-109441867D01*
X105390608Y-109413551D01*
X105457285Y-109392672D01*
X105524665Y-109411156D01*
X105571356Y-109463134D01*
X105583500Y-109516652D01*
X105583500Y-109805752D01*
X105595131Y-109864229D01*
X105595132Y-109864230D01*
X105639447Y-109930552D01*
X105669391Y-109950560D01*
X105714196Y-110004173D01*
X105724500Y-110053662D01*
X105724500Y-110746338D01*
X105704815Y-110813377D01*
X105669391Y-110849440D01*
X105639447Y-110869447D01*
X105595132Y-110935769D01*
X105595131Y-110935770D01*
X105583500Y-110994247D01*
X105583500Y-112105752D01*
X105595131Y-112164229D01*
X105595132Y-112164230D01*
X105639447Y-112230552D01*
X105705769Y-112274867D01*
X105705770Y-112274868D01*
X105764247Y-112286499D01*
X105764250Y-112286500D01*
X105764252Y-112286500D01*
X106063354Y-112286500D01*
X106130393Y-112306185D01*
X106176148Y-112358989D01*
X106177907Y-112363029D01*
X106216442Y-112456058D01*
X106293941Y-112533557D01*
X106395199Y-112575500D01*
X107334522Y-112575500D01*
X107401561Y-112595185D01*
X107422203Y-112611819D01*
X107493943Y-112683559D01*
X107572256Y-112715996D01*
X107595199Y-112725499D01*
X107704799Y-112725499D01*
X109434521Y-112725499D01*
X109463961Y-112734143D01*
X109493948Y-112740667D01*
X109498963Y-112744421D01*
X109501560Y-112745184D01*
X109522201Y-112761817D01*
X109607581Y-112847198D01*
X109641066Y-112908520D01*
X109636082Y-112978212D01*
X109634463Y-112982326D01*
X109632706Y-112986566D01*
X109632705Y-112986571D01*
X109609500Y-113073171D01*
X109609500Y-113582827D01*
X109623069Y-113633465D01*
X109632705Y-113669427D01*
X109674662Y-113742101D01*
X109677532Y-113747071D01*
X109740928Y-113810467D01*
X109818572Y-113855294D01*
X109905172Y-113878499D01*
X109905174Y-113878499D01*
X109994826Y-113878499D01*
X109994828Y-113878499D01*
X110081428Y-113855294D01*
X110138002Y-113822631D01*
X110205900Y-113806159D01*
X110261997Y-113822631D01*
X110318572Y-113855294D01*
X110405172Y-113878499D01*
X110405174Y-113878499D01*
X110494826Y-113878499D01*
X110494828Y-113878499D01*
X110581428Y-113855294D01*
X110613438Y-113836812D01*
X110621170Y-113832705D01*
X110631722Y-113827568D01*
X110635288Y-113826614D01*
X110643898Y-113821642D01*
X110647824Y-113819732D01*
X110678118Y-113814614D01*
X110707984Y-113807367D01*
X110712743Y-113808764D01*
X110716718Y-113808093D01*
X110730463Y-113813966D01*
X110764088Y-113823838D01*
X110818572Y-113855294D01*
X110905172Y-113878499D01*
X110905174Y-113878499D01*
X110994826Y-113878499D01*
X110994828Y-113878499D01*
X111081428Y-113855294D01*
X111138002Y-113822631D01*
X111205900Y-113806159D01*
X111261997Y-113822631D01*
X111318572Y-113855294D01*
X111405172Y-113878499D01*
X111405174Y-113878499D01*
X111494826Y-113878499D01*
X111494828Y-113878499D01*
X111581428Y-113855294D01*
X111638002Y-113822631D01*
X111705900Y-113806159D01*
X111761997Y-113822631D01*
X111818572Y-113855294D01*
X111905172Y-113878499D01*
X111905174Y-113878499D01*
X111994826Y-113878499D01*
X111994828Y-113878499D01*
X111998653Y-113877474D01*
X112002006Y-113877553D01*
X112002885Y-113877438D01*
X112002903Y-113877574D01*
X112068501Y-113879133D01*
X112126366Y-113918293D01*
X112153873Y-113982520D01*
X112150527Y-114029334D01*
X112149501Y-114033163D01*
X112149500Y-114033170D01*
X112149500Y-114033171D01*
X112149500Y-114122827D01*
X112172705Y-114209427D01*
X112204897Y-114265187D01*
X112205367Y-114266000D01*
X112221838Y-114333900D01*
X112205367Y-114389998D01*
X112172705Y-114446570D01*
X112172705Y-114446571D01*
X112149500Y-114533171D01*
X112149500Y-114622827D01*
X112157320Y-114652011D01*
X112172705Y-114709427D01*
X112205367Y-114766000D01*
X112221838Y-114833900D01*
X112205367Y-114889998D01*
X112172705Y-114946570D01*
X112163575Y-114980645D01*
X112149500Y-115033171D01*
X112149500Y-115122827D01*
X112172705Y-115209427D01*
X112186634Y-115233554D01*
X112205367Y-115266000D01*
X112221838Y-115333900D01*
X112205367Y-115389998D01*
X112172705Y-115446570D01*
X112172705Y-115446571D01*
X112149500Y-115533171D01*
X112149500Y-115622827D01*
X112149959Y-115624539D01*
X112172705Y-115709427D01*
X112205367Y-115766000D01*
X112221838Y-115833900D01*
X112205367Y-115889998D01*
X112172705Y-115946570D01*
X112172705Y-115946571D01*
X112149500Y-116033171D01*
X112149500Y-116122827D01*
X112172705Y-116209427D01*
X112205367Y-116266000D01*
X112221838Y-116333900D01*
X112205367Y-116389998D01*
X112172705Y-116446570D01*
X112172705Y-116446571D01*
X112157536Y-116503183D01*
X112149500Y-116533172D01*
X112149500Y-116622827D01*
X112150527Y-116626660D01*
X112150446Y-116630017D01*
X112150561Y-116630884D01*
X112150425Y-116630901D01*
X112148862Y-116696510D01*
X112109698Y-116754371D01*
X112045468Y-116781874D01*
X111998661Y-116778526D01*
X111994828Y-116777499D01*
X111905172Y-116777499D01*
X111869450Y-116787071D01*
X111818571Y-116800704D01*
X111792944Y-116815500D01*
X111768964Y-116829345D01*
X111761999Y-116833366D01*
X111694099Y-116849837D01*
X111638001Y-116833366D01*
X111631036Y-116829345D01*
X111581428Y-116800704D01*
X111581429Y-116800704D01*
X111530550Y-116787071D01*
X111494828Y-116777499D01*
X111405172Y-116777499D01*
X111369450Y-116787071D01*
X111318571Y-116800704D01*
X111292944Y-116815500D01*
X111268964Y-116829345D01*
X111261999Y-116833366D01*
X111194099Y-116849837D01*
X111138001Y-116833366D01*
X111131036Y-116829345D01*
X111081428Y-116800704D01*
X111081429Y-116800704D01*
X111030550Y-116787071D01*
X110994828Y-116777499D01*
X110905172Y-116777499D01*
X110869450Y-116787071D01*
X110818571Y-116800704D01*
X110792944Y-116815500D01*
X110768964Y-116829345D01*
X110761999Y-116833366D01*
X110694099Y-116849837D01*
X110638001Y-116833366D01*
X110631036Y-116829345D01*
X110581428Y-116800704D01*
X110581429Y-116800704D01*
X110530550Y-116787071D01*
X110494828Y-116777499D01*
X110405172Y-116777499D01*
X110369450Y-116787071D01*
X110318571Y-116800704D01*
X110292944Y-116815500D01*
X110268964Y-116829345D01*
X110261999Y-116833366D01*
X110194099Y-116849837D01*
X110138001Y-116833366D01*
X110131036Y-116829345D01*
X110081428Y-116800704D01*
X110081429Y-116800704D01*
X110030550Y-116787071D01*
X109994828Y-116777499D01*
X109905172Y-116777499D01*
X109869450Y-116787071D01*
X109818571Y-116800704D01*
X109792944Y-116815500D01*
X109768964Y-116829345D01*
X109761999Y-116833366D01*
X109694099Y-116849837D01*
X109638001Y-116833366D01*
X109631036Y-116829345D01*
X109581428Y-116800704D01*
X109581429Y-116800704D01*
X109530550Y-116787071D01*
X109494828Y-116777499D01*
X109405172Y-116777499D01*
X109405171Y-116777499D01*
X109405164Y-116777500D01*
X109401335Y-116778526D01*
X109397980Y-116778445D01*
X109397115Y-116778560D01*
X109397097Y-116778424D01*
X109331486Y-116776860D01*
X109273625Y-116737695D01*
X109246124Y-116673465D01*
X109249474Y-116626653D01*
X109250500Y-116622827D01*
X109250500Y-116533171D01*
X109227295Y-116446571D01*
X109194632Y-116389996D01*
X109178160Y-116322099D01*
X109194633Y-116266000D01*
X109227295Y-116209427D01*
X109250500Y-116122827D01*
X109250500Y-116033171D01*
X109227295Y-115946571D01*
X109194632Y-115889996D01*
X109178160Y-115822099D01*
X109194633Y-115766000D01*
X109227295Y-115709427D01*
X109250500Y-115622827D01*
X109250500Y-115533171D01*
X109227295Y-115446571D01*
X109194632Y-115389996D01*
X109178160Y-115322099D01*
X109194633Y-115266000D01*
X109227295Y-115209427D01*
X109250500Y-115122827D01*
X109250500Y-115033171D01*
X109227295Y-114946571D01*
X109194632Y-114889996D01*
X109178160Y-114822099D01*
X109194633Y-114766000D01*
X109227295Y-114709427D01*
X109250500Y-114622827D01*
X109250500Y-114533171D01*
X109227295Y-114446571D01*
X109194632Y-114389996D01*
X109178160Y-114322099D01*
X109194633Y-114266000D01*
X109227295Y-114209427D01*
X109250500Y-114122827D01*
X109250500Y-114033171D01*
X109227295Y-113946571D01*
X109182468Y-113868927D01*
X109119072Y-113805531D01*
X109119071Y-113805530D01*
X109041428Y-113760704D01*
X109041429Y-113760704D01*
X108990550Y-113747071D01*
X108954828Y-113737499D01*
X108445172Y-113737499D01*
X108409450Y-113747071D01*
X108358571Y-113760704D01*
X108276846Y-113807888D01*
X108214847Y-113824500D01*
X108195199Y-113824500D01*
X108165472Y-113836814D01*
X108120858Y-113855294D01*
X108093942Y-113866443D01*
X108093940Y-113866444D01*
X108022204Y-113938181D01*
X107960881Y-113971666D01*
X107934523Y-113974500D01*
X107745198Y-113974500D01*
X107685885Y-113999069D01*
X107677114Y-114002701D01*
X107659385Y-114010045D01*
X107595934Y-114016864D01*
X107595813Y-114018096D01*
X107589751Y-114017499D01*
X107589748Y-114017499D01*
X107010252Y-114017499D01*
X107010247Y-114017499D01*
X106951770Y-114029130D01*
X106951769Y-114029131D01*
X106885447Y-114073446D01*
X106841132Y-114139768D01*
X106841131Y-114139769D01*
X106829500Y-114198246D01*
X106828903Y-114204311D01*
X106827724Y-114204194D01*
X106809815Y-114265187D01*
X106785590Y-114292814D01*
X106770823Y-114305306D01*
X106743941Y-114316442D01*
X106668547Y-114391835D01*
X106664612Y-114395165D01*
X106637188Y-114407299D01*
X106610880Y-114421665D01*
X106602746Y-114422539D01*
X106600718Y-114423437D01*
X106598138Y-114423034D01*
X106584522Y-114424499D01*
X106545198Y-114424499D01*
X106473599Y-114454157D01*
X106443941Y-114466441D01*
X106406527Y-114503856D01*
X106222201Y-114688182D01*
X106160881Y-114721666D01*
X106134522Y-114724500D01*
X105549500Y-114724500D01*
X105482461Y-114704815D01*
X105436706Y-114652011D01*
X105425500Y-114600500D01*
X105425500Y-114515249D01*
X105425499Y-114515247D01*
X105413868Y-114456770D01*
X105413867Y-114456769D01*
X105369552Y-114390447D01*
X105303230Y-114346132D01*
X105303229Y-114346131D01*
X105244752Y-114334500D01*
X105244748Y-114334500D01*
X104275478Y-114334500D01*
X104208439Y-114314815D01*
X104187797Y-114298181D01*
X103911819Y-114022203D01*
X103878334Y-113960880D01*
X103875500Y-113934522D01*
X103875500Y-112395200D01*
X103875500Y-112395199D01*
X103833557Y-112293941D01*
X103833556Y-112293940D01*
X103833556Y-112293939D01*
X103760307Y-112220691D01*
X103758835Y-112219113D01*
X103744082Y-112189719D01*
X103728333Y-112160877D01*
X103727985Y-112157649D01*
X103727493Y-112156667D01*
X103727685Y-112154856D01*
X103725499Y-112134519D01*
X103725499Y-111919500D01*
X103745184Y-111852461D01*
X103797988Y-111806706D01*
X103849499Y-111795500D01*
X104048250Y-111795500D01*
X104048251Y-111795499D01*
X104063068Y-111792552D01*
X104106729Y-111783868D01*
X104106729Y-111783867D01*
X104106731Y-111783867D01*
X104173052Y-111739552D01*
X104217367Y-111673231D01*
X104217367Y-111673229D01*
X104217368Y-111673229D01*
X104228999Y-111614752D01*
X104229000Y-111614750D01*
X104229000Y-111085249D01*
X104228999Y-111085247D01*
X104217368Y-111026770D01*
X104217367Y-111026769D01*
X104173052Y-110960447D01*
X104106730Y-110916132D01*
X104106729Y-110916131D01*
X104048252Y-110904500D01*
X104048248Y-110904500D01*
X103095478Y-110904500D01*
X103066037Y-110895855D01*
X103036051Y-110889332D01*
X103031035Y-110885577D01*
X103028439Y-110884815D01*
X103007797Y-110868181D01*
X102861819Y-110722203D01*
X102828334Y-110660880D01*
X102825500Y-110634522D01*
X102825500Y-110299499D01*
X102845185Y-110232460D01*
X102897989Y-110186705D01*
X102949500Y-110175499D01*
X103054799Y-110175499D01*
X103054800Y-110175499D01*
X103126396Y-110145841D01*
X103126399Y-110145841D01*
X103138684Y-110140751D01*
X103156059Y-110133556D01*
X103357796Y-109931817D01*
X103419117Y-109898334D01*
X103445476Y-109895500D01*
X104048250Y-109895500D01*
X104048251Y-109895499D01*
X104063068Y-109892552D01*
X104106729Y-109883868D01*
X104106729Y-109883867D01*
X104106731Y-109883867D01*
X104173052Y-109839552D01*
X104217367Y-109773231D01*
X104217367Y-109773229D01*
X104217368Y-109773229D01*
X104228999Y-109714752D01*
X104229000Y-109714750D01*
X104229000Y-109185249D01*
X104228999Y-109185247D01*
X104221252Y-109146297D01*
X104221959Y-109138390D01*
X104219185Y-109130951D01*
X104225028Y-109104087D01*
X104227479Y-109076706D01*
X104232727Y-109068696D01*
X104234037Y-109062678D01*
X104255181Y-109034432D01*
X104317822Y-108971792D01*
X104379143Y-108938310D01*
X104448834Y-108943295D01*
G37*
%TD.AperFunction*%
%TA.AperFunction,Conductor*%
G36*
X107540166Y-109931127D02*
G01*
X107543891Y-109933521D01*
X107615923Y-109981652D01*
X107613986Y-109984550D01*
X107652354Y-110015468D01*
X107674420Y-110081762D01*
X107674499Y-110086190D01*
X107674499Y-110713809D01*
X107654814Y-110780848D01*
X107614314Y-110815940D01*
X107615923Y-110818348D01*
X107539447Y-110869447D01*
X107495132Y-110935769D01*
X107495131Y-110935770D01*
X107483500Y-110994247D01*
X107483500Y-111900500D01*
X107463815Y-111967539D01*
X107411011Y-112013294D01*
X107359500Y-112024500D01*
X106841201Y-112024500D01*
X106774162Y-112004815D01*
X106728407Y-111952011D01*
X106726641Y-111947954D01*
X106683557Y-111843944D01*
X106683556Y-111843943D01*
X106683556Y-111843942D01*
X106606057Y-111766443D01*
X106566226Y-111726612D01*
X106552817Y-111713202D01*
X106519333Y-111651878D01*
X106519333Y-111651873D01*
X106516500Y-111625522D01*
X106516500Y-110994249D01*
X106516499Y-110994247D01*
X106504868Y-110935770D01*
X106504867Y-110935769D01*
X106460552Y-110869447D01*
X106394230Y-110825132D01*
X106375307Y-110821368D01*
X106313397Y-110788982D01*
X106278823Y-110728266D01*
X106275500Y-110699751D01*
X106275500Y-110100248D01*
X106295185Y-110033209D01*
X106343429Y-109989649D01*
X106358610Y-109981952D01*
X106394231Y-109974867D01*
X106460552Y-109930552D01*
X106460836Y-109930126D01*
X106468929Y-109926024D01*
X106496262Y-109920948D01*
X106522786Y-109912643D01*
X106530132Y-109914658D01*
X106537625Y-109913267D01*
X106563362Y-109923774D01*
X106590166Y-109931127D01*
X106593891Y-109933521D01*
X106655769Y-109974867D01*
X106655770Y-109974868D01*
X106714247Y-109986499D01*
X106714250Y-109986500D01*
X106714252Y-109986500D01*
X107285750Y-109986500D01*
X107285751Y-109986499D01*
X107310121Y-109981652D01*
X107344229Y-109974868D01*
X107344229Y-109974867D01*
X107344231Y-109974867D01*
X107406109Y-109933521D01*
X107472786Y-109912643D01*
X107540166Y-109931127D01*
G37*
%TD.AperFunction*%
%TD*%
M02*
