%TF.GenerationSoftware,KiCad,Pcbnew,10.0.4*%
%TF.CreationDate,2026-07-20T18:38:35-04:00*%
%TF.ProjectId,dongle-lite,646f6e67-6c65-42d6-9c69-74652e6b6963,rev?*%
%TF.SameCoordinates,Original*%
%TF.FileFunction,Copper,L3,Inr*%
%TF.FilePolarity,Positive*%
%FSLAX46Y46*%
G04 Gerber Fmt 4.6, Leading zero omitted, Abs format (unit mm)*
G04 Created by KiCad (PCBNEW 10.0.4) date 2026-07-20 18:38:35*
%MOMM*%
%LPD*%
G01*
G04 APERTURE LIST*
%TA.AperFunction,ComponentPad*%
%ADD10O,1.200000X2.000000*%
%TD*%
%TA.AperFunction,ComponentPad*%
%ADD11O,1.200000X1.800000*%
%TD*%
%TA.AperFunction,ViaPad*%
%ADD12C,0.300000*%
%TD*%
%TA.AperFunction,Conductor*%
%ADD13C,0.150000*%
%TD*%
%TA.AperFunction,Conductor*%
%ADD14C,0.120000*%
%TD*%
G04 APERTURE END LIST*
D10*
%TO.N,GND*%
%TO.C,J1*%
X102670000Y-106800000D03*
D11*
X102670000Y-102620000D03*
X111330000Y-102620000D03*
D10*
X111330000Y-106800000D03*
%TD*%
%TO.N,GND*%
%TO.C,J2*%
X111330000Y-148160000D03*
D11*
X111330000Y-152340000D03*
X102670000Y-152340000D03*
D10*
X102670000Y-148160000D03*
%TD*%
D12*
%TO.N,RUN*%
X102399999Y-130899999D03*
X106149999Y-129850000D03*
X107949999Y-129100000D03*
X109030000Y-134670000D03*
X109365142Y-132171153D03*
%TO.N,+3V3*%
X113205000Y-139500000D03*
X107445695Y-120142717D03*
X109300000Y-129569999D03*
X102865539Y-124022768D03*
X112600000Y-132143999D03*
X101000000Y-139536000D03*
X111900000Y-132837999D03*
X102300000Y-129620000D03*
X108446330Y-122881653D03*
X111150000Y-130661999D03*
X109900000Y-137150000D03*
X103095892Y-137769387D03*
X107950000Y-137450000D03*
X106506275Y-123092729D03*
X102300000Y-116582000D03*
X101475000Y-117680000D03*
X102670194Y-128285385D03*
X106600000Y-118502000D03*
X106800000Y-123080000D03*
X110930000Y-127100000D03*
X109300000Y-126370000D03*
X102350000Y-130044999D03*
X100670000Y-111530000D03*
X111500000Y-124048000D03*
X109030000Y-136873038D03*
X105395892Y-137769387D03*
X106500000Y-124500000D03*
X110753778Y-124449421D03*
X112600000Y-121544000D03*
X103796932Y-120404595D03*
X104600000Y-129970000D03*
X111500000Y-121744000D03*
X110734460Y-124022768D03*
X109564999Y-130789999D03*
X105625000Y-137450000D03*
X103175000Y-128320000D03*
%TO.N,GND*%
X103911091Y-124691091D03*
X110950000Y-113950000D03*
X113950000Y-119950000D03*
X110450000Y-139250000D03*
X110710000Y-115327999D03*
X104950000Y-152950000D03*
X107201040Y-117811040D03*
X104950000Y-101950000D03*
X107091866Y-119090475D03*
X109875499Y-136610526D03*
X106200000Y-137030000D03*
X108910288Y-128504999D03*
X107850000Y-113630000D03*
X101950000Y-140950000D03*
X104950000Y-110950000D03*
X113950000Y-131949999D03*
X111405575Y-128066228D03*
X103480384Y-138950000D03*
X105200000Y-120380000D03*
X113950000Y-110950000D03*
X110950000Y-149950000D03*
X111900000Y-131547999D03*
X103614890Y-136479679D03*
X104950000Y-104950000D03*
X111200000Y-129372000D03*
X104149999Y-132199999D03*
X113950000Y-104950000D03*
X101950000Y-116950000D03*
X112020000Y-119232000D03*
X110950000Y-152950000D03*
X110200000Y-147400000D03*
X107108133Y-117420475D03*
X106050000Y-134050000D03*
X110950000Y-110950000D03*
X101950000Y-134950000D03*
X110050000Y-116177999D03*
X113950000Y-152950000D03*
X107950000Y-104950000D03*
X101950000Y-104950000D03*
X108620000Y-139648000D03*
X113950000Y-101950000D03*
X103450000Y-119167999D03*
X107950000Y-149950000D03*
X104850000Y-128280000D03*
X103200000Y-139514000D03*
X110950000Y-101950000D03*
X113950000Y-107950000D03*
X110950000Y-143950000D03*
X102850000Y-121560000D03*
X106675500Y-145096643D03*
X110950000Y-104950000D03*
X113950000Y-140950000D03*
X110950000Y-122950000D03*
X101950000Y-149950000D03*
X113950000Y-128949999D03*
X107220000Y-124500000D03*
X107250000Y-127100000D03*
X101950000Y-146950000D03*
X109200000Y-123530000D03*
X101950000Y-113950000D03*
X107950000Y-152950000D03*
X107475000Y-132739711D03*
X105100000Y-141915999D03*
X113950000Y-122950000D03*
X113950000Y-143950000D03*
X107950000Y-101950000D03*
X104950000Y-149950000D03*
X110950000Y-132500000D03*
X113950000Y-125950000D03*
X103060288Y-110625000D03*
X111800000Y-114477999D03*
X103800000Y-107560000D03*
X109300000Y-125080000D03*
X113950000Y-149950000D03*
X110200000Y-107560000D03*
X106904095Y-110656073D03*
X105978133Y-117710475D03*
X100900500Y-141716134D03*
X101950000Y-107950000D03*
X104950000Y-113950000D03*
X110950000Y-146950000D03*
X107000000Y-120880000D03*
X110950000Y-140950000D03*
X113950000Y-116950000D03*
X109800000Y-139648000D03*
X110950000Y-107950000D03*
X113950000Y-146950000D03*
X103800000Y-147400000D03*
X109450000Y-109830000D03*
X107511091Y-113941091D03*
X100989524Y-131008133D03*
X101950000Y-137950000D03*
X109070000Y-139148000D03*
%TO.N,+5V*%
X109149999Y-108399999D03*
X106600000Y-108850000D03*
X104500000Y-115449999D03*
X102100000Y-111399999D03*
X101350000Y-137950000D03*
X104649999Y-107500000D03*
X107350000Y-109000000D03*
%TO.N,HUB_RSTB*%
X109600000Y-118000000D03*
X110500000Y-113500000D03*
%TO.N,HUB_3V3*%
X111274721Y-120296084D03*
X111471880Y-118701880D03*
%TO.N,SHIFT_EN*%
X109850000Y-127920000D03*
X105650000Y-118245000D03*
%TO.N,+1V2*%
X103000000Y-112000000D03*
%TO.N,TGT_VBUS_EN*%
X110649999Y-131350000D03*
X107050000Y-138100000D03*
%TO.N,TGT_VBUS*%
X104649999Y-147549999D03*
X109449999Y-147399999D03*
X103900000Y-142050000D03*
%TO.N,+1V1*%
X106800000Y-125005000D03*
X104350000Y-129100000D03*
X104350000Y-125949999D03*
X107534999Y-121875000D03*
X111850000Y-127600000D03*
X106750000Y-121600000D03*
X108000000Y-123525000D03*
X104800000Y-131400000D03*
X108550000Y-119199999D03*
X109600000Y-127000000D03*
%TO.N,Net-(U1-XIN)*%
X106000000Y-130690000D03*
%TO.N,Net-(U1-XOUT)*%
X107100000Y-129664999D03*
X106380000Y-130329999D03*
X107614999Y-133690000D03*
%TO.N,SWCLK*%
X107199999Y-130600000D03*
X112950000Y-138850000D03*
X108250000Y-136899999D03*
%TO.N,SWDIO*%
X107600000Y-131089999D03*
%TO.N,I2C_SDA*%
X108699999Y-132699999D03*
X109149999Y-138100000D03*
X110050000Y-130299999D03*
%TO.N,I2C_SCL*%
X109401880Y-133671880D03*
X108820000Y-130750000D03*
X109550000Y-138100000D03*
X109534242Y-131695431D03*
X108188725Y-138161274D03*
X112600000Y-123070000D03*
%TO.N,FUSB_INT*%
X111288118Y-126188118D03*
X109170701Y-130475845D03*
X110000000Y-138380000D03*
%TO.N,SBU1_DIR*%
X104140000Y-135400000D03*
X110233118Y-129493118D03*
%TO.N,SBU2_DIR*%
X108600000Y-129959999D03*
X107085000Y-131459999D03*
%TO.N,SBU2_UART*%
X108699999Y-129100000D03*
X107050000Y-137049999D03*
%TO.N,VREG_LX*%
X108250000Y-121000000D03*
X108850000Y-124149999D03*
%TO.N,MCU_D_N*%
X107649999Y-122949999D03*
X112899999Y-114550000D03*
%TO.N,MCU_D_P*%
X107199999Y-123699999D03*
X112899999Y-113800000D03*
%TO.N,Net-(U1-QSPI_SS)*%
X103899999Y-123699999D03*
%TO.N,HUB_XO*%
X110500000Y-117399999D03*
%TO.N,HUB_XI*%
X110350000Y-118600000D03*
X110949999Y-117850000D03*
%TO.N,TGT_D_P*%
X113199999Y-115149999D03*
X106000000Y-140049999D03*
X106000000Y-146049999D03*
X106750000Y-147399999D03*
%TO.N,TGT_SBU2*%
X105250000Y-147250000D03*
X107050000Y-135100000D03*
%TO.N,TGT_CC1*%
X108399999Y-141549999D03*
X105550000Y-145149999D03*
%TO.N,TGT_SBU1*%
X104649999Y-136149999D03*
X108250000Y-147399999D03*
%TO.N,Net-(SW1-A)*%
X104260000Y-141340000D03*
X105160000Y-125080000D03*
X107048119Y-143178118D03*
X110020000Y-142970000D03*
%TD*%
%TO.N,RUN*%
D13*
X102399999Y-130899999D02*
X105100000Y-130899999D01*
D14*
X108990000Y-133290000D02*
X109030000Y-134670000D01*
D13*
X105100000Y-130899999D02*
X106149999Y-129850000D01*
D14*
X109365142Y-132171153D02*
X109350000Y-132930000D01*
X109350000Y-132930000D02*
X108990000Y-133290000D01*
%TO.N,+3V3*%
X102350000Y-130044999D02*
X104600000Y-130044999D01*
X104600000Y-130044999D02*
X104600000Y-129970000D01*
X109000000Y-137150000D02*
X109900000Y-137150000D01*
X109030000Y-136873038D02*
X109000000Y-137150000D01*
%TO.N,+5V*%
D13*
X107350000Y-109000000D02*
X107949999Y-108399999D01*
X104500000Y-115449999D02*
X104500000Y-125050000D01*
X105699999Y-107949999D02*
X105550000Y-107949999D01*
X105250000Y-107800000D02*
X105100000Y-107649999D01*
X104800000Y-107649999D02*
X104649999Y-107500000D01*
X104500000Y-125050000D02*
X103899999Y-125649999D01*
X105550000Y-107949999D02*
X105399999Y-107800000D01*
X101350000Y-128650000D02*
X101350000Y-137950000D01*
X105399999Y-107800000D02*
X105250000Y-107800000D01*
X107949999Y-108399999D02*
X109149999Y-108399999D01*
X106600000Y-108850000D02*
X105699999Y-107949999D01*
X105100000Y-107649999D02*
X104800000Y-107649999D01*
X103899999Y-126100000D02*
X101350000Y-128650000D01*
X103899999Y-125649999D02*
X103899999Y-126100000D01*
%TO.N,HUB_RSTB*%
X109750000Y-115149999D02*
X109750000Y-114850000D01*
X110199999Y-113949999D02*
X110350000Y-113800000D01*
X109600000Y-118000000D02*
X109600000Y-115300000D01*
X110050000Y-114250000D02*
X110199999Y-114100000D01*
X110050000Y-114399999D02*
X110050000Y-114250000D01*
X109899999Y-114699999D02*
X109899999Y-114550000D01*
X110350000Y-113800000D02*
X110350000Y-113649999D01*
X109899999Y-114550000D02*
X110050000Y-114399999D01*
X109750000Y-114850000D02*
X109899999Y-114699999D01*
X110350000Y-113649999D02*
X110500000Y-113500000D01*
X110199999Y-114100000D02*
X110199999Y-113949999D01*
X109600000Y-115300000D02*
X109750000Y-115149999D01*
%TO.N,HUB_3V3*%
D14*
X111274721Y-120296084D02*
X111250000Y-118840000D01*
X111250000Y-118840000D02*
X111471880Y-118701880D01*
%TO.N,SHIFT_EN*%
X106175000Y-127920000D02*
X109850000Y-127920000D01*
X106175000Y-124770000D02*
X106175000Y-127920000D01*
X106100000Y-124170000D02*
X106100000Y-124770000D01*
X105650000Y-123945000D02*
X105950000Y-123945000D01*
X105650000Y-118245000D02*
X105650000Y-123945000D01*
X105950000Y-124020000D02*
X106025000Y-124020000D01*
X106025000Y-124170000D02*
X106100000Y-124170000D01*
X106100000Y-124770000D02*
X106175000Y-124770000D01*
X105950000Y-123945000D02*
X105950000Y-124020000D01*
X106025000Y-124020000D02*
X106025000Y-124170000D01*
%TO.N,TGT_VBUS*%
D13*
X104949999Y-147700000D02*
X105100000Y-147700000D01*
X109000000Y-147549999D02*
X109149999Y-147549999D01*
X108550000Y-147850000D02*
X108699999Y-147700000D01*
X109149999Y-147549999D02*
X109300000Y-147399999D01*
X104649999Y-147549999D02*
X104949999Y-147549999D01*
X108699999Y-147700000D02*
X108850000Y-147700000D01*
X104949999Y-147549999D02*
X104949999Y-147700000D01*
X105250000Y-147850000D02*
X108550000Y-147850000D01*
X109300000Y-147399999D02*
X109449999Y-147399999D01*
X108850000Y-147700000D02*
X109000000Y-147549999D01*
X105100000Y-147700000D02*
X105250000Y-147850000D01*
%TO.N,+1V1*%
X110649999Y-127449999D02*
X110800000Y-127600000D01*
D14*
X107774999Y-122625000D02*
X107925000Y-122625000D01*
X107925000Y-122625000D02*
X107925000Y-122700000D01*
X107925000Y-122700000D02*
X108000000Y-122700000D01*
X107774999Y-122550000D02*
X107774999Y-122625000D01*
X107534999Y-121875000D02*
X107475000Y-122550000D01*
D13*
X110050000Y-127000000D02*
X110500000Y-127449999D01*
D14*
X108000000Y-122700000D02*
X108000000Y-123525000D01*
D13*
X109600000Y-127000000D02*
X110050000Y-127000000D01*
X110500000Y-127449999D02*
X110649999Y-127449999D01*
D14*
X107475000Y-122550000D02*
X107774999Y-122550000D01*
D13*
X110800000Y-127600000D02*
X111850000Y-127600000D01*
%TO.N,I2C_SDA*%
X108699999Y-137649999D02*
X109149999Y-138100000D01*
X108699999Y-132699999D02*
X108699999Y-137649999D01*
%TO.N,I2C_SCL*%
D14*
X109479999Y-131830000D02*
X109534242Y-131695431D01*
X109660000Y-132070000D02*
X109660000Y-132009999D01*
X109401880Y-133671880D02*
X109360000Y-133389999D01*
X109600000Y-133150000D02*
X109600000Y-132610000D01*
X109660000Y-132009999D02*
X109479999Y-131830000D01*
X109360000Y-133389999D02*
X109600000Y-133150000D01*
X109660000Y-132490000D02*
X109720000Y-132430000D01*
X109720000Y-132430000D02*
X109720000Y-132130000D01*
X109720000Y-132130000D02*
X109660000Y-132070000D01*
X109660000Y-132550000D02*
X109660000Y-132490000D01*
X109600000Y-132610000D02*
X109660000Y-132550000D01*
%TO.N,FUSB_INT*%
X107840000Y-137840000D02*
X108320000Y-137840000D01*
X108140000Y-136460000D02*
X107900000Y-136700000D01*
X107600000Y-137660000D02*
X107720000Y-137780000D01*
X109170701Y-130475845D02*
X109220000Y-131600000D01*
X108920000Y-138440000D02*
X109940000Y-138440000D01*
X108320000Y-133340000D02*
X108140000Y-133520000D01*
X108380000Y-132440000D02*
X108380000Y-132500000D01*
X108140000Y-133520000D02*
X108140000Y-136460000D01*
X107900000Y-136940000D02*
X107600000Y-137240000D01*
X109940000Y-138440000D02*
X110000000Y-138380000D01*
X109220000Y-131600000D02*
X108380000Y-132440000D01*
X107780000Y-137780000D02*
X107840000Y-137840000D01*
X107720000Y-137780000D02*
X107780000Y-137780000D01*
X108380000Y-132500000D02*
X108320000Y-132560000D01*
X107600000Y-137240000D02*
X107600000Y-137660000D01*
X108320000Y-132560000D02*
X108320000Y-133340000D01*
X107900000Y-136700000D02*
X107900000Y-136940000D01*
X108320000Y-137840000D02*
X108920000Y-138440000D01*
%TO.N,SBU1_DIR*%
X108460000Y-131080000D02*
X108460000Y-130539999D01*
X110080000Y-129639999D02*
X110140000Y-129639999D01*
X109420000Y-129940000D02*
X109480000Y-129940000D01*
X109000000Y-130060000D02*
X109240000Y-130060000D01*
X109780000Y-129820000D02*
X109840000Y-129759999D01*
X109240000Y-130060000D02*
X109300000Y-130000000D01*
X109840000Y-129759999D02*
X109900000Y-129759999D01*
X109300000Y-130000000D02*
X109360000Y-130000000D01*
X108760000Y-130240000D02*
X108820000Y-130240000D01*
X109480000Y-129940000D02*
X109539999Y-129880000D01*
X109360000Y-130000000D02*
X109420000Y-129940000D01*
X109900000Y-129759999D02*
X109960000Y-129699999D01*
X109960000Y-129699999D02*
X110020000Y-129699999D01*
X104140000Y-135400000D02*
X108460000Y-131080000D01*
X108820000Y-130240000D02*
X109000000Y-130060000D01*
X109600000Y-129880000D02*
X109660000Y-129820000D01*
X110140000Y-129639999D02*
X110233118Y-129493118D01*
X110020000Y-129699999D02*
X110080000Y-129639999D01*
X109539999Y-129880000D02*
X109600000Y-129880000D01*
X109660000Y-129820000D02*
X109780000Y-129820000D01*
X108460000Y-130539999D02*
X108760000Y-130240000D01*
%TO.N,SBU2_DIR*%
X106860000Y-130380000D02*
X106979999Y-130259999D01*
X107085000Y-131459999D02*
X107039999Y-130979999D01*
X108060000Y-130199999D02*
X108119999Y-130139999D01*
X108119999Y-130139999D02*
X108180000Y-130139999D01*
X106979999Y-130259999D02*
X107940000Y-130259999D01*
X107940000Y-130259999D02*
X108000000Y-130199999D01*
X108180000Y-130139999D02*
X108240000Y-130079999D01*
X108000000Y-130199999D02*
X108060000Y-130199999D01*
X107039999Y-130979999D02*
X106860000Y-130799999D01*
X108240000Y-130079999D02*
X108300000Y-130079999D01*
X108300000Y-130079999D02*
X108360000Y-130019999D01*
X108360000Y-130019999D02*
X108479999Y-130019999D01*
X106860000Y-130799999D02*
X106860000Y-130380000D01*
X108479999Y-130019999D02*
X108539999Y-129959999D01*
X108539999Y-129959999D02*
X108600000Y-129959999D01*
%TO.N,VREG_LX*%
D13*
X108550000Y-121750000D02*
X108550000Y-121600000D01*
X108399999Y-121449999D02*
X108399999Y-121300000D01*
X108850000Y-122050000D02*
X108550000Y-121750000D01*
X108250000Y-121149999D02*
X108250000Y-121000000D01*
X108550000Y-121600000D02*
X108399999Y-121449999D01*
X108399999Y-121300000D02*
X108250000Y-121149999D01*
X108850000Y-124149999D02*
X108850000Y-122050000D01*
%TO.N,MCU_D_P*%
X107199999Y-123699999D02*
X107199999Y-121149999D01*
X110050000Y-118149999D02*
X110050000Y-117100000D01*
X109899999Y-118449999D02*
X109899999Y-118300000D01*
X109899999Y-118300000D02*
X110050000Y-118149999D01*
X112449999Y-114250000D02*
X112899999Y-113800000D01*
X112449999Y-114699999D02*
X112449999Y-114250000D01*
X110050000Y-117100000D02*
X112449999Y-114699999D01*
X107199999Y-121149999D02*
X109899999Y-118449999D01*
%TO.N,TGT_D_P*%
X106000000Y-146049999D02*
X106300000Y-146350000D01*
X106449999Y-146649999D02*
X106449999Y-146799999D01*
X106600000Y-146950000D02*
X106600000Y-147250000D01*
X106300000Y-146350000D02*
X106300000Y-146500000D01*
X106300000Y-146500000D02*
X106449999Y-146649999D01*
X106600000Y-147250000D02*
X106750000Y-147399999D01*
X106449999Y-146799999D02*
X106600000Y-146950000D01*
%TO.N,TGT_SBU2*%
X106449999Y-144700000D02*
X106449999Y-144850000D01*
X106449999Y-144850000D02*
X105550000Y-145750000D01*
X105550000Y-145750000D02*
X105550000Y-146799999D01*
X107050000Y-135100000D02*
X107050000Y-136299999D01*
X105550000Y-146799999D02*
X105399999Y-146950000D01*
X106600000Y-136750000D02*
X106600000Y-144549999D01*
X105399999Y-146950000D02*
X105399999Y-147100000D01*
X105399999Y-147100000D02*
X105250000Y-147250000D01*
X106600000Y-144549999D02*
X106449999Y-144700000D01*
X107050000Y-136299999D02*
X106600000Y-136750000D01*
%TO.N,Net-(SW1-A)*%
D14*
X107048119Y-143178118D02*
X107140000Y-143209999D01*
X107140000Y-143209999D02*
X107380000Y-142970000D01*
X107380000Y-142970000D02*
X110020000Y-142970000D01*
%TD*%
M02*
