%TF.GenerationSoftware,KiCad,Pcbnew,10.0.4*%
%TF.CreationDate,2026-07-20T18:38:35-04:00*%
%TF.ProjectId,dongle-lite,646f6e67-6c65-42d6-9c69-74652e6b6963,rev?*%
%TF.SameCoordinates,Original*%
%TF.FileFunction,Soldermask,Top*%
%TF.FilePolarity,Negative*%
%FSLAX46Y46*%
G04 Gerber Fmt 4.6, Leading zero omitted, Abs format (unit mm)*
G04 Created by KiCad (PCBNEW 10.0.4) date 2026-07-20 18:38:35*
%MOMM*%
%LPD*%
G01*
G04 APERTURE LIST*
G04 Aperture macros list*
%AMFreePoly0*
4,1,15,0.335278,0.685443,0.349923,0.650088,0.349923,-0.615000,0.335278,-0.650355,0.299923,-0.665000,-0.300050,-0.665000,-0.335405,-0.650355,-0.350050,-0.615000,-0.350050,0.649935,-0.335405,0.685290,-0.300050,0.699935,-0.000445,0.699935,-0.000076,0.700088,0.299923,0.700088,0.335278,0.685443,0.335278,0.685443,$1*%
%AMFreePoly1*
4,1,17,0.335431,0.685290,0.350076,0.649935,0.350076,-0.650037,0.335431,-0.685392,0.300076,-0.700037,0.000187,-0.700037,0.000127,-0.700062,-0.299898,-0.700062,-0.335253,-0.685417,-0.349898,-0.650062,-0.349898,0.649910,-0.335253,0.685265,-0.299898,0.699910,-0.000009,0.699910,0.000051,0.699935,0.300076,0.699935,0.335431,0.685290,0.335431,0.685290,$1*%
%AMFreePoly2*
4,1,13,0.335227,0.685443,0.349872,0.650088,0.349872,-0.615000,0.335227,-0.650355,0.299872,-0.665000,-0.300152,-0.665000,-0.335507,-0.650355,-0.350152,-0.615000,-0.350152,0.650088,-0.335507,0.685443,-0.300152,0.700088,0.299872,0.700088,0.335227,0.685443,0.335227,0.685443,$1*%
%AMFreePoly3*
4,1,13,0.335227,0.685443,0.349872,0.650088,0.349872,-0.649884,0.335227,-0.685239,0.299872,-0.699884,-0.300152,-0.699884,-0.335507,-0.685239,-0.350152,-0.649884,-0.350152,0.650088,-0.335507,0.685443,-0.300152,0.700088,0.299872,0.700088,0.335227,0.685443,0.335227,0.685443,$1*%
G04 Aperture macros list end*
%ADD10R,0.540000X0.566000*%
%ADD11R,0.532000X1.072000*%
%ADD12R,0.566000X0.540000*%
%ADD13R,0.540000X0.500000*%
%ADD14R,0.500000X0.540000*%
%ADD15R,1.157000X0.490000*%
%ADD16R,1.175000X0.490000*%
%ADD17R,0.600000X1.100000*%
%ADD18R,0.864000X0.806000*%
%ADD19R,1.350000X1.410000*%
%ADD20R,0.800000X0.800000*%
%ADD21R,0.875000X0.200000*%
%ADD22R,0.200000X0.875000*%
%ADD23R,3.400000X3.400000*%
%ADD24C,0.750000*%
%ADD25O,1.200000X2.000000*%
%ADD26O,1.200000X1.800000*%
%ADD27FreePoly0,180.000000*%
%ADD28FreePoly1,180.000000*%
%ADD29R,0.300000X1.300000*%
%ADD30FreePoly2,180.000000*%
%ADD31FreePoly3,180.000000*%
%ADD32O,0.280000X0.700000*%
%ADD33O,0.700000X0.280000*%
%ADD34R,2.800000X2.800000*%
%ADD35R,0.400000X0.800000*%
%ADD36R,0.505000X0.280000*%
%ADD37R,0.280000X0.505000*%
%ADD38R,1.375000X1.375000*%
%ADD39R,1.000000X1.600000*%
%ADD40FreePoly0,0.000000*%
%ADD41FreePoly1,0.000000*%
%ADD42FreePoly2,0.000000*%
%ADD43FreePoly3,0.000000*%
%ADD44C,0.990600*%
G04 APERTURE END LIST*
D10*
%TO.C,R1*%
X102300000Y-130930000D03*
X102300000Y-130070000D03*
%TD*%
D11*
%TO.C,D10*%
X106050000Y-111550000D03*
X107000000Y-111550000D03*
X107950000Y-111550000D03*
X107950000Y-109250000D03*
X107000000Y-109250000D03*
X106050000Y-109250000D03*
%TD*%
D12*
%TO.C,R5*%
X111820000Y-120448000D03*
X112680000Y-120448000D03*
%TD*%
D13*
%TO.C,C6*%
X107600000Y-119720000D03*
X107600000Y-118880000D03*
%TD*%
%TO.C,C17*%
X107300000Y-114467999D03*
X107300000Y-113627999D03*
%TD*%
D14*
%TO.C,C18*%
X111180000Y-119232000D03*
X112020000Y-119232000D03*
%TD*%
D15*
%TO.C,U6*%
X103450000Y-120117999D03*
X103450000Y-119167999D03*
X103450000Y-118217999D03*
D16*
X101150000Y-118217999D03*
X101150000Y-120117999D03*
%TD*%
D17*
%TO.C,U10*%
X104150000Y-139514000D03*
X103200000Y-139514000D03*
X102250000Y-139514000D03*
X102250000Y-142214000D03*
X103200000Y-142214000D03*
X104150000Y-142214000D03*
%TD*%
D18*
%TO.C,R8*%
X101300000Y-144238000D03*
X101300000Y-142738000D03*
%TD*%
D13*
%TO.C,C20*%
X106600000Y-118052000D03*
X106600000Y-117212000D03*
%TD*%
D19*
%TO.C,C22*%
X104550000Y-115240000D03*
X104550000Y-113240000D03*
%TD*%
D10*
%TO.C,R12*%
X105200000Y-119630000D03*
X105200000Y-118770000D03*
%TD*%
D20*
%TO.C,D1*%
X112600000Y-129262000D03*
X112600000Y-127762000D03*
%TD*%
D13*
%TO.C,C23*%
X102300000Y-116132000D03*
X102300000Y-115292000D03*
%TD*%
D21*
%TO.C,U1*%
X103220000Y-124300000D03*
X103220000Y-124700000D03*
X103220000Y-125100000D03*
X103220000Y-125500000D03*
X103220000Y-125900000D03*
X103220000Y-126300000D03*
X103220000Y-126700000D03*
X103220000Y-127100000D03*
X103220000Y-127500000D03*
X103220000Y-127900000D03*
X103220000Y-128300000D03*
X103220000Y-128700000D03*
X103220000Y-129100000D03*
X103220000Y-129500000D03*
X103220000Y-129900000D03*
D22*
X104000000Y-130670000D03*
X104400000Y-130670000D03*
X104800000Y-130670000D03*
X105200000Y-130670000D03*
X105600000Y-130670000D03*
X106000000Y-130670000D03*
X106400000Y-130670000D03*
X106800000Y-130670000D03*
X107200000Y-130670000D03*
X107600000Y-130670000D03*
X108000000Y-130670000D03*
X108400000Y-130670000D03*
X108800000Y-130670000D03*
X109200000Y-130670000D03*
X109600000Y-130670000D03*
D21*
X110380000Y-129900000D03*
X110380000Y-129500000D03*
X110380000Y-129100000D03*
X110380000Y-128700000D03*
X110380000Y-128300000D03*
X110380000Y-127900000D03*
X110380000Y-127500000D03*
X110380000Y-127100000D03*
X110380000Y-126700000D03*
X110380000Y-126300000D03*
X110380000Y-125900000D03*
X110380000Y-125500000D03*
X110380000Y-125100000D03*
X110380000Y-124700000D03*
X110380000Y-124300000D03*
D22*
X109600000Y-123530000D03*
X109200000Y-123530000D03*
X108800000Y-123530000D03*
X108400000Y-123530000D03*
X108000000Y-123530000D03*
X107600000Y-123530000D03*
X107200000Y-123530000D03*
X106800000Y-123530000D03*
X106400000Y-123530000D03*
X106000000Y-123530000D03*
X105600000Y-123530000D03*
X105200000Y-123530000D03*
X104800000Y-123530000D03*
X104400000Y-123530000D03*
X104000000Y-123530000D03*
D23*
X106800000Y-127100000D03*
%TD*%
D13*
%TO.C,C24*%
X102300000Y-122404000D03*
X102300000Y-121564000D03*
%TD*%
D24*
%TO.C,J1*%
X109900000Y-106300000D03*
X104100000Y-106300000D03*
D25*
X102670000Y-106800000D03*
D26*
X102670000Y-102620000D03*
X111330000Y-102620000D03*
D25*
X111330000Y-106800000D03*
D27*
X110200000Y-107560000D03*
D28*
X109400000Y-107560000D03*
D29*
X108250000Y-107560000D03*
X107250000Y-107560000D03*
X106750000Y-107560000D03*
X105750000Y-107560000D03*
D30*
X103800000Y-107560000D03*
D31*
X104600000Y-107560000D03*
D29*
X105250000Y-107560000D03*
X106250000Y-107560000D03*
X107750000Y-107560000D03*
X108750000Y-107560000D03*
%TD*%
D13*
%TO.C,C13*%
X111200000Y-130212000D03*
X111200000Y-129372000D03*
%TD*%
D10*
%TO.C,R11*%
X112600000Y-126190000D03*
X112600000Y-125330000D03*
%TD*%
D13*
%TO.C,C7*%
X107000000Y-121720000D03*
X107000000Y-120880000D03*
%TD*%
D32*
%TO.C,U3*%
X109450000Y-117327999D03*
X109950000Y-117327999D03*
X110450000Y-117327999D03*
X110950000Y-117327999D03*
X111450000Y-117327999D03*
X111950000Y-117327999D03*
D33*
X112700000Y-116577999D03*
X112700000Y-116077999D03*
X112700000Y-115577999D03*
X112700000Y-115077999D03*
X112700000Y-114577999D03*
X112700000Y-114077999D03*
D32*
X111950000Y-113327999D03*
X111450000Y-113327999D03*
X110950000Y-113327999D03*
X110450000Y-113327999D03*
X109950000Y-113327999D03*
X109450000Y-113327999D03*
D33*
X108700000Y-114077999D03*
X108700000Y-114577999D03*
X108700000Y-115077999D03*
X108700000Y-115577999D03*
X108700000Y-116077999D03*
X108700000Y-116577999D03*
D34*
X110710000Y-115327999D03*
%TD*%
D35*
%TO.C,U9*%
X105650000Y-137397999D03*
X106300000Y-137397999D03*
X106950000Y-137397999D03*
X106950000Y-135497999D03*
X106300000Y-135497999D03*
X105650000Y-135497999D03*
%TD*%
D10*
%TO.C,R10*%
X112600000Y-131694000D03*
X112600000Y-130834000D03*
%TD*%
D13*
%TO.C,C26*%
X105100000Y-142755999D03*
X105100000Y-141915999D03*
%TD*%
%TO.C,C9*%
X105200000Y-121220000D03*
X105200000Y-120380000D03*
%TD*%
%TO.C,C25*%
X101300000Y-138020000D03*
X101300000Y-137180000D03*
%TD*%
%TO.C,C21*%
X102400000Y-136996000D03*
X102400000Y-136156000D03*
%TD*%
D15*
%TO.C,U5*%
X103450000Y-111350000D03*
X103450000Y-110400000D03*
X103450000Y-109450000D03*
D16*
X101150000Y-109450000D03*
X101150000Y-111350000D03*
%TD*%
D36*
%TO.C,U2*%
X110980000Y-140148000D03*
X110980000Y-139648000D03*
X110980000Y-139148000D03*
D37*
X110550000Y-138468000D03*
X110050000Y-138468000D03*
X109550000Y-138468000D03*
X109050000Y-138468000D03*
D36*
X108620000Y-139148000D03*
X108620000Y-139648000D03*
X108620000Y-140148000D03*
D37*
X109050000Y-140828000D03*
X109550000Y-140828000D03*
X110050000Y-140828000D03*
X110550000Y-140828000D03*
D38*
X109800000Y-139648000D03*
%TD*%
D11*
%TO.C,D11*%
X106050000Y-142334000D03*
X107000000Y-142334000D03*
X107950000Y-142334000D03*
X107950000Y-140034000D03*
X107000000Y-140034000D03*
X106050000Y-140034000D03*
%TD*%
D10*
%TO.C,R7*%
X105000000Y-108970000D03*
X105000000Y-109830000D03*
%TD*%
D35*
%TO.C,U8*%
X103350000Y-137397999D03*
X104000000Y-137397999D03*
X104650000Y-137397999D03*
X104650000Y-135497999D03*
X104000000Y-135497999D03*
X103350000Y-135497999D03*
%TD*%
D14*
%TO.C,C19*%
X104630000Y-117503999D03*
X105470000Y-117503999D03*
%TD*%
D10*
%TO.C,R6*%
X108900000Y-108970000D03*
X108900000Y-109830000D03*
%TD*%
D20*
%TO.C,D2*%
X112600000Y-123758000D03*
X112600000Y-122258000D03*
%TD*%
D10*
%TO.C,R9*%
X101000000Y-140846000D03*
X101000000Y-139986000D03*
%TD*%
D39*
%TO.C,L1*%
X108300000Y-121000000D03*
X110300000Y-121000000D03*
%TD*%
D13*
%TO.C,C14*%
X111900000Y-132387999D03*
X111900000Y-131547999D03*
%TD*%
D24*
%TO.C,J2*%
X104100000Y-148660000D03*
X109900000Y-148660000D03*
D25*
X111330000Y-148160000D03*
D26*
X111330000Y-152340000D03*
X102670000Y-152340000D03*
D25*
X102670000Y-148160000D03*
D40*
X103800000Y-147400000D03*
D41*
X104600000Y-147400000D03*
D29*
X105750000Y-147400000D03*
X106750000Y-147400000D03*
X107250000Y-147400000D03*
X108250000Y-147400000D03*
D42*
X110200000Y-147400000D03*
D43*
X109400000Y-147400000D03*
D29*
X108750000Y-147400000D03*
X107750000Y-147400000D03*
X106250000Y-147400000D03*
X105250000Y-147400000D03*
%TD*%
D44*
%TO.C,J3*%
X112000000Y-141420000D03*
X110984000Y-136340000D03*
X113016000Y-136340000D03*
%TD*%
M02*
