%TF.GenerationSoftware,KiCad,Pcbnew,10.0.4*%
%TF.CreationDate,2026-07-20T18:38:35-04:00*%
%TF.ProjectId,dongle-lite,646f6e67-6c65-42d6-9c69-74652e6b6963,rev?*%
%TF.SameCoordinates,Original*%
%TF.FileFunction,Paste,Bot*%
%TF.FilePolarity,Positive*%
%FSLAX46Y46*%
G04 Gerber Fmt 4.6, Leading zero omitted, Abs format (unit mm)*
G04 Created by KiCad (PCBNEW 10.0.4) date 2026-07-20 18:38:35*
%MOMM*%
%LPD*%
G01*
G04 APERTURE LIST*
%ADD10R,0.500000X0.540000*%
%ADD11R,1.400000X1.200000*%
%ADD12R,0.540000X0.500000*%
%ADD13R,1.350000X1.410000*%
%ADD14R,0.566000X0.540000*%
%ADD15R,0.540000X0.566000*%
%ADD16R,1.000000X0.750000*%
G04 APERTURE END LIST*
D10*
%TO.C,C11*%
X106380000Y-124500000D03*
X107220000Y-124500000D03*
%TD*%
D11*
%TO.C,Y1*%
X105500000Y-132350000D03*
X107700000Y-132350000D03*
X107700000Y-134050000D03*
X105500000Y-134050000D03*
%TD*%
D12*
%TO.C,C4*%
X104300000Y-125920000D03*
X104300000Y-125080000D03*
%TD*%
D11*
%TO.C,Y2*%
X111800000Y-116177999D03*
X109600000Y-116177999D03*
X109600000Y-114477999D03*
X111800000Y-114477999D03*
%TD*%
D12*
%TO.C,C8*%
X109300000Y-125920000D03*
X109300000Y-125080000D03*
%TD*%
D13*
%TO.C,C16*%
X110000000Y-119422400D03*
X110000000Y-121422400D03*
%TD*%
D14*
%TO.C,R13*%
X104820000Y-124400000D03*
X105680000Y-124400000D03*
%TD*%
D12*
%TO.C,C27*%
X110400000Y-127520000D03*
X110400000Y-126680000D03*
%TD*%
D13*
%TO.C,C15*%
X107900000Y-116327999D03*
X107900000Y-114327999D03*
%TD*%
%TO.C,C1*%
X103600000Y-134200000D03*
X103600000Y-132200000D03*
%TD*%
D15*
%TO.C,R3*%
X112600000Y-123054000D03*
X112600000Y-122194000D03*
%TD*%
D16*
%TO.C,SW1*%
X104000000Y-142950000D03*
X110000000Y-142950000D03*
X104000000Y-139250000D03*
X110000000Y-139250000D03*
%TD*%
D12*
%TO.C,C10*%
X109300000Y-129119999D03*
X109300000Y-128279999D03*
%TD*%
D15*
%TO.C,R2*%
X111500000Y-123054000D03*
X111500000Y-122194000D03*
%TD*%
%TO.C,R4*%
X111500000Y-125358000D03*
X111500000Y-124498000D03*
%TD*%
D13*
%TO.C,C2*%
X110500000Y-134500000D03*
X110500000Y-132500000D03*
%TD*%
D12*
%TO.C,C5*%
X104300000Y-129119999D03*
X104300000Y-128279999D03*
%TD*%
%TO.C,C12*%
X103200000Y-127520000D03*
X103200000Y-126680000D03*
%TD*%
M02*
