%TF.GenerationSoftware,KiCad,Pcbnew,10.0.4*%
%TF.CreationDate,2026-07-20T18:38:35-04:00*%
%TF.ProjectId,dongle-lite,646f6e67-6c65-42d6-9c69-74652e6b6963,rev?*%
%TF.SameCoordinates,Original*%
%TF.FileFunction,Soldermask,Bot*%
%TF.FilePolarity,Negative*%
%FSLAX46Y46*%
G04 Gerber Fmt 4.6, Leading zero omitted, Abs format (unit mm)*
G04 Created by KiCad (PCBNEW 10.0.4) date 2026-07-20 18:38:35*
%MOMM*%
%LPD*%
G01*
G04 APERTURE LIST*
%ADD10C,0.750000*%
%ADD11O,1.200000X2.000000*%
%ADD12O,1.200000X1.800000*%
%ADD13C,1.000000*%
%ADD14R,0.500000X0.540000*%
%ADD15R,1.400000X1.200000*%
%ADD16R,0.540000X0.500000*%
%ADD17C,0.990600*%
%ADD18C,0.787400*%
%ADD19R,1.350000X1.410000*%
%ADD20R,0.566000X0.540000*%
%ADD21R,0.540000X0.566000*%
%ADD22R,1.000000X0.750000*%
G04 APERTURE END LIST*
D10*
%TO.C,J1*%
X109900000Y-106300000D03*
X104100000Y-106300000D03*
D11*
X102670000Y-106800000D03*
D12*
X102670000Y-102620000D03*
X111330000Y-102620000D03*
D11*
X111330000Y-106800000D03*
%TD*%
D10*
%TO.C,J2*%
X104100000Y-148660000D03*
X109900000Y-148660000D03*
D11*
X111330000Y-148160000D03*
D12*
X111330000Y-152340000D03*
X102670000Y-152340000D03*
D11*
X102670000Y-148160000D03*
%TD*%
D13*
%TO.C,TP5*%
X101500000Y-142592000D03*
%TD*%
%TO.C,TP1*%
X101500000Y-111500000D03*
%TD*%
%TO.C,TP6*%
X101200000Y-130500000D03*
%TD*%
D14*
%TO.C,C11*%
X106380000Y-124500000D03*
X107220000Y-124500000D03*
%TD*%
D15*
%TO.C,Y1*%
X105500000Y-132350000D03*
X107700000Y-132350000D03*
X107700000Y-134050000D03*
X105500000Y-134050000D03*
%TD*%
D13*
%TO.C,TP8*%
X108600000Y-101150000D03*
%TD*%
%TO.C,TP3*%
X104300000Y-109000000D03*
%TD*%
D16*
%TO.C,C4*%
X104300000Y-125920000D03*
X104300000Y-125080000D03*
%TD*%
D17*
%TO.C,J3*%
X112000000Y-141420000D03*
X110984000Y-136340000D03*
X113016000Y-136340000D03*
D18*
X111365000Y-140150000D03*
X112635000Y-140150000D03*
X111365000Y-138880000D03*
X112635000Y-138880000D03*
X111365000Y-137610000D03*
X112635000Y-137610000D03*
%TD*%
D15*
%TO.C,Y2*%
X111800000Y-116177999D03*
X109600000Y-116177999D03*
X109600000Y-114477999D03*
X111800000Y-114477999D03*
%TD*%
D16*
%TO.C,C8*%
X109300000Y-125920000D03*
X109300000Y-125080000D03*
%TD*%
D19*
%TO.C,C16*%
X110000000Y-119422400D03*
X110000000Y-121422400D03*
%TD*%
D13*
%TO.C,TP7*%
X105800000Y-101150000D03*
%TD*%
D20*
%TO.C,R13*%
X104820000Y-124400000D03*
X105680000Y-124400000D03*
%TD*%
D13*
%TO.C,TP4*%
X112620000Y-127321600D03*
%TD*%
D16*
%TO.C,C27*%
X110400000Y-127520000D03*
X110400000Y-126680000D03*
%TD*%
D19*
%TO.C,C15*%
X107900000Y-116327999D03*
X107900000Y-114327999D03*
%TD*%
%TO.C,C1*%
X103600000Y-134200000D03*
X103600000Y-132200000D03*
%TD*%
D21*
%TO.C,R3*%
X112600000Y-123054000D03*
X112600000Y-122194000D03*
%TD*%
D13*
%TO.C,TP2*%
X101500000Y-117760000D03*
%TD*%
D22*
%TO.C,SW1*%
X104000000Y-142950000D03*
X110000000Y-142950000D03*
X104000000Y-139250000D03*
X110000000Y-139250000D03*
%TD*%
D16*
%TO.C,C10*%
X109300000Y-129119999D03*
X109300000Y-128279999D03*
%TD*%
D21*
%TO.C,R2*%
X111500000Y-123054000D03*
X111500000Y-122194000D03*
%TD*%
%TO.C,R4*%
X111500000Y-125358000D03*
X111500000Y-124498000D03*
%TD*%
D19*
%TO.C,C2*%
X110500000Y-134500000D03*
X110500000Y-132500000D03*
%TD*%
D16*
%TO.C,C5*%
X104300000Y-129119999D03*
X104300000Y-128279999D03*
%TD*%
%TO.C,C12*%
X103200000Y-127520000D03*
X103200000Y-126680000D03*
%TD*%
M02*
