%TF.GenerationSoftware,KiCad,Pcbnew,10.0.4*%
%TF.CreationDate,2026-07-20T18:38:35-04:00*%
%TF.ProjectId,dongle-lite,646f6e67-6c65-42d6-9c69-74652e6b6963,rev?*%
%TF.SameCoordinates,Original*%
%TF.FileFunction,Legend,Bot*%
%TF.FilePolarity,Positive*%
%FSLAX46Y46*%
G04 Gerber Fmt 4.6, Leading zero omitted, Abs format (unit mm)*
G04 Created by KiCad (PCBNEW 10.0.4) date 2026-07-20 18:38:35*
%MOMM*%
%LPD*%
G01*
G04 APERTURE LIST*
%ADD10C,0.120000*%
%ADD11C,0.250000*%
%ADD12C,0.060000*%
G04 APERTURE END LIST*
D10*
X102528570Y-110009093D02*
X101919047Y-110009093D01*
X102223808Y-110313855D02*
X102223808Y-109704331D01*
X101157142Y-109513855D02*
X101538094Y-109513855D01*
X101538094Y-109513855D02*
X101576190Y-109894807D01*
X101576190Y-109894807D02*
X101538094Y-109856712D01*
X101538094Y-109856712D02*
X101461904Y-109818617D01*
X101461904Y-109818617D02*
X101271428Y-109818617D01*
X101271428Y-109818617D02*
X101195237Y-109856712D01*
X101195237Y-109856712D02*
X101157142Y-109894807D01*
X101157142Y-109894807D02*
X101119047Y-109970998D01*
X101119047Y-109970998D02*
X101119047Y-110161474D01*
X101119047Y-110161474D02*
X101157142Y-110237664D01*
X101157142Y-110237664D02*
X101195237Y-110275760D01*
X101195237Y-110275760D02*
X101271428Y-110313855D01*
X101271428Y-110313855D02*
X101461904Y-110313855D01*
X101461904Y-110313855D02*
X101538094Y-110275760D01*
X101538094Y-110275760D02*
X101576190Y-110237664D01*
X100890475Y-109513855D02*
X100623808Y-110313855D01*
X100623808Y-110313855D02*
X100357142Y-109513855D01*
X103259523Y-115359093D02*
X102650000Y-115359093D01*
X102954761Y-115663855D02*
X102954761Y-115054331D01*
X102345238Y-114863855D02*
X101850000Y-114863855D01*
X101850000Y-114863855D02*
X102116666Y-115168617D01*
X102116666Y-115168617D02*
X102002381Y-115168617D01*
X102002381Y-115168617D02*
X101926190Y-115206712D01*
X101926190Y-115206712D02*
X101888095Y-115244807D01*
X101888095Y-115244807D02*
X101850000Y-115320998D01*
X101850000Y-115320998D02*
X101850000Y-115511474D01*
X101850000Y-115511474D02*
X101888095Y-115587664D01*
X101888095Y-115587664D02*
X101926190Y-115625760D01*
X101926190Y-115625760D02*
X102002381Y-115663855D01*
X102002381Y-115663855D02*
X102230952Y-115663855D01*
X102230952Y-115663855D02*
X102307143Y-115625760D01*
X102307143Y-115625760D02*
X102345238Y-115587664D01*
X101621428Y-114863855D02*
X101354761Y-115663855D01*
X101354761Y-115663855D02*
X101088095Y-114863855D01*
X100897619Y-114863855D02*
X100402381Y-114863855D01*
X100402381Y-114863855D02*
X100669047Y-115168617D01*
X100669047Y-115168617D02*
X100554762Y-115168617D01*
X100554762Y-115168617D02*
X100478571Y-115206712D01*
X100478571Y-115206712D02*
X100440476Y-115244807D01*
X100440476Y-115244807D02*
X100402381Y-115320998D01*
X100402381Y-115320998D02*
X100402381Y-115511474D01*
X100402381Y-115511474D02*
X100440476Y-115587664D01*
X100440476Y-115587664D02*
X100478571Y-115625760D01*
X100478571Y-115625760D02*
X100554762Y-115663855D01*
X100554762Y-115663855D02*
X100783333Y-115663855D01*
X100783333Y-115663855D02*
X100859524Y-115625760D01*
X100859524Y-115625760D02*
X100897619Y-115587664D01*
X103109523Y-125001949D02*
X103185713Y-124963854D01*
X103185713Y-124963854D02*
X103299999Y-124963854D01*
X103299999Y-124963854D02*
X103414285Y-125001949D01*
X103414285Y-125001949D02*
X103490475Y-125078139D01*
X103490475Y-125078139D02*
X103528570Y-125154330D01*
X103528570Y-125154330D02*
X103566666Y-125306711D01*
X103566666Y-125306711D02*
X103566666Y-125420997D01*
X103566666Y-125420997D02*
X103528570Y-125573378D01*
X103528570Y-125573378D02*
X103490475Y-125649568D01*
X103490475Y-125649568D02*
X103414285Y-125725759D01*
X103414285Y-125725759D02*
X103299999Y-125763854D01*
X103299999Y-125763854D02*
X103223808Y-125763854D01*
X103223808Y-125763854D02*
X103109523Y-125725759D01*
X103109523Y-125725759D02*
X103071427Y-125687663D01*
X103071427Y-125687663D02*
X103071427Y-125420997D01*
X103071427Y-125420997D02*
X103223808Y-125420997D01*
X102728570Y-125763854D02*
X102728570Y-124963854D01*
X102728570Y-124963854D02*
X102271427Y-125763854D01*
X102271427Y-125763854D02*
X102271427Y-124963854D01*
X101890475Y-125763854D02*
X101890475Y-124963854D01*
X101890475Y-124963854D02*
X101699999Y-124963854D01*
X101699999Y-124963854D02*
X101585713Y-125001949D01*
X101585713Y-125001949D02*
X101509523Y-125078139D01*
X101509523Y-125078139D02*
X101471428Y-125154330D01*
X101471428Y-125154330D02*
X101433332Y-125306711D01*
X101433332Y-125306711D02*
X101433332Y-125420997D01*
X101433332Y-125420997D02*
X101471428Y-125573378D01*
X101471428Y-125573378D02*
X101509523Y-125649568D01*
X101509523Y-125649568D02*
X101585713Y-125725759D01*
X101585713Y-125725759D02*
X101699999Y-125763854D01*
X101699999Y-125763854D02*
X101890475Y-125763854D01*
X104266666Y-135563855D02*
X103999999Y-136363855D01*
X103999999Y-136363855D02*
X103733333Y-135563855D01*
X103200000Y-135944807D02*
X103085714Y-135982902D01*
X103085714Y-135982902D02*
X103047619Y-136020998D01*
X103047619Y-136020998D02*
X103009523Y-136097188D01*
X103009523Y-136097188D02*
X103009523Y-136211474D01*
X103009523Y-136211474D02*
X103047619Y-136287664D01*
X103047619Y-136287664D02*
X103085714Y-136325760D01*
X103085714Y-136325760D02*
X103161904Y-136363855D01*
X103161904Y-136363855D02*
X103466666Y-136363855D01*
X103466666Y-136363855D02*
X103466666Y-135563855D01*
X103466666Y-135563855D02*
X103200000Y-135563855D01*
X103200000Y-135563855D02*
X103123809Y-135601950D01*
X103123809Y-135601950D02*
X103085714Y-135640045D01*
X103085714Y-135640045D02*
X103047619Y-135716236D01*
X103047619Y-135716236D02*
X103047619Y-135792426D01*
X103047619Y-135792426D02*
X103085714Y-135868617D01*
X103085714Y-135868617D02*
X103123809Y-135906712D01*
X103123809Y-135906712D02*
X103200000Y-135944807D01*
X103200000Y-135944807D02*
X103466666Y-135944807D01*
X102666666Y-135563855D02*
X102666666Y-136211474D01*
X102666666Y-136211474D02*
X102628571Y-136287664D01*
X102628571Y-136287664D02*
X102590476Y-136325760D01*
X102590476Y-136325760D02*
X102514285Y-136363855D01*
X102514285Y-136363855D02*
X102361904Y-136363855D01*
X102361904Y-136363855D02*
X102285714Y-136325760D01*
X102285714Y-136325760D02*
X102247619Y-136287664D01*
X102247619Y-136287664D02*
X102209523Y-136211474D01*
X102209523Y-136211474D02*
X102209523Y-135563855D01*
X101866667Y-136325760D02*
X101752381Y-136363855D01*
X101752381Y-136363855D02*
X101561905Y-136363855D01*
X101561905Y-136363855D02*
X101485714Y-136325760D01*
X101485714Y-136325760D02*
X101447619Y-136287664D01*
X101447619Y-136287664D02*
X101409524Y-136211474D01*
X101409524Y-136211474D02*
X101409524Y-136135283D01*
X101409524Y-136135283D02*
X101447619Y-136059093D01*
X101447619Y-136059093D02*
X101485714Y-136020998D01*
X101485714Y-136020998D02*
X101561905Y-135982902D01*
X101561905Y-135982902D02*
X101714286Y-135944807D01*
X101714286Y-135944807D02*
X101790476Y-135906712D01*
X101790476Y-135906712D02*
X101828571Y-135868617D01*
X101828571Y-135868617D02*
X101866667Y-135792426D01*
X101866667Y-135792426D02*
X101866667Y-135716236D01*
X101866667Y-135716236D02*
X101828571Y-135640045D01*
X101828571Y-135640045D02*
X101790476Y-135601950D01*
X101790476Y-135601950D02*
X101714286Y-135563855D01*
X101714286Y-135563855D02*
X101523809Y-135563855D01*
X101523809Y-135563855D02*
X101409524Y-135601950D01*
X106059522Y-110609093D02*
X105449999Y-110609093D01*
X105754760Y-110913855D02*
X105754760Y-110304331D01*
X104649999Y-110913855D02*
X105107142Y-110913855D01*
X104878570Y-110913855D02*
X104878570Y-110113855D01*
X104878570Y-110113855D02*
X104954761Y-110228140D01*
X104954761Y-110228140D02*
X105030951Y-110304331D01*
X105030951Y-110304331D02*
X105107142Y-110342426D01*
X104421427Y-110113855D02*
X104154760Y-110913855D01*
X104154760Y-110913855D02*
X103888094Y-110113855D01*
X103659523Y-110190045D02*
X103621427Y-110151950D01*
X103621427Y-110151950D02*
X103545237Y-110113855D01*
X103545237Y-110113855D02*
X103354761Y-110113855D01*
X103354761Y-110113855D02*
X103278570Y-110151950D01*
X103278570Y-110151950D02*
X103240475Y-110190045D01*
X103240475Y-110190045D02*
X103202380Y-110266236D01*
X103202380Y-110266236D02*
X103202380Y-110342426D01*
X103202380Y-110342426D02*
X103240475Y-110456712D01*
X103240475Y-110456712D02*
X103697618Y-110913855D01*
X103697618Y-110913855D02*
X103202380Y-110913855D01*
X106990474Y-103163855D02*
X107257141Y-102782902D01*
X107447617Y-103163855D02*
X107447617Y-102363855D01*
X107447617Y-102363855D02*
X107142855Y-102363855D01*
X107142855Y-102363855D02*
X107066665Y-102401950D01*
X107066665Y-102401950D02*
X107028570Y-102440045D01*
X107028570Y-102440045D02*
X106990474Y-102516236D01*
X106990474Y-102516236D02*
X106990474Y-102630521D01*
X106990474Y-102630521D02*
X107028570Y-102706712D01*
X107028570Y-102706712D02*
X107066665Y-102744807D01*
X107066665Y-102744807D02*
X107142855Y-102782902D01*
X107142855Y-102782902D02*
X107447617Y-102782902D01*
X106647617Y-102363855D02*
X106647617Y-103011474D01*
X106647617Y-103011474D02*
X106609522Y-103087664D01*
X106609522Y-103087664D02*
X106571427Y-103125760D01*
X106571427Y-103125760D02*
X106495236Y-103163855D01*
X106495236Y-103163855D02*
X106342855Y-103163855D01*
X106342855Y-103163855D02*
X106266665Y-103125760D01*
X106266665Y-103125760D02*
X106228570Y-103087664D01*
X106228570Y-103087664D02*
X106190474Y-103011474D01*
X106190474Y-103011474D02*
X106190474Y-102363855D01*
X105809522Y-103163855D02*
X105809522Y-102363855D01*
X105809522Y-102363855D02*
X105352379Y-103163855D01*
X105352379Y-103163855D02*
X105352379Y-102363855D01*
X107885714Y-136724807D02*
X107771428Y-136762902D01*
X107771428Y-136762902D02*
X107733333Y-136800998D01*
X107733333Y-136800998D02*
X107695237Y-136877188D01*
X107695237Y-136877188D02*
X107695237Y-136991474D01*
X107695237Y-136991474D02*
X107733333Y-137067664D01*
X107733333Y-137067664D02*
X107771428Y-137105760D01*
X107771428Y-137105760D02*
X107847618Y-137143855D01*
X107847618Y-137143855D02*
X108152380Y-137143855D01*
X108152380Y-137143855D02*
X108152380Y-136343855D01*
X108152380Y-136343855D02*
X107885714Y-136343855D01*
X107885714Y-136343855D02*
X107809523Y-136381950D01*
X107809523Y-136381950D02*
X107771428Y-136420045D01*
X107771428Y-136420045D02*
X107733333Y-136496236D01*
X107733333Y-136496236D02*
X107733333Y-136572426D01*
X107733333Y-136572426D02*
X107771428Y-136648617D01*
X107771428Y-136648617D02*
X107809523Y-136686712D01*
X107809523Y-136686712D02*
X107885714Y-136724807D01*
X107885714Y-136724807D02*
X108152380Y-136724807D01*
X107199999Y-136343855D02*
X107047618Y-136343855D01*
X107047618Y-136343855D02*
X106971428Y-136381950D01*
X106971428Y-136381950D02*
X106895237Y-136458140D01*
X106895237Y-136458140D02*
X106857142Y-136610521D01*
X106857142Y-136610521D02*
X106857142Y-136877188D01*
X106857142Y-136877188D02*
X106895237Y-137029569D01*
X106895237Y-137029569D02*
X106971428Y-137105760D01*
X106971428Y-137105760D02*
X107047618Y-137143855D01*
X107047618Y-137143855D02*
X107199999Y-137143855D01*
X107199999Y-137143855D02*
X107276190Y-137105760D01*
X107276190Y-137105760D02*
X107352380Y-137029569D01*
X107352380Y-137029569D02*
X107390476Y-136877188D01*
X107390476Y-136877188D02*
X107390476Y-136610521D01*
X107390476Y-136610521D02*
X107352380Y-136458140D01*
X107352380Y-136458140D02*
X107276190Y-136381950D01*
X107276190Y-136381950D02*
X107199999Y-136343855D01*
X106361904Y-136343855D02*
X106209523Y-136343855D01*
X106209523Y-136343855D02*
X106133333Y-136381950D01*
X106133333Y-136381950D02*
X106057142Y-136458140D01*
X106057142Y-136458140D02*
X106019047Y-136610521D01*
X106019047Y-136610521D02*
X106019047Y-136877188D01*
X106019047Y-136877188D02*
X106057142Y-137029569D01*
X106057142Y-137029569D02*
X106133333Y-137105760D01*
X106133333Y-137105760D02*
X106209523Y-137143855D01*
X106209523Y-137143855D02*
X106361904Y-137143855D01*
X106361904Y-137143855D02*
X106438095Y-137105760D01*
X106438095Y-137105760D02*
X106514285Y-137029569D01*
X106514285Y-137029569D02*
X106552381Y-136877188D01*
X106552381Y-136877188D02*
X106552381Y-136610521D01*
X106552381Y-136610521D02*
X106514285Y-136458140D01*
X106514285Y-136458140D02*
X106438095Y-136381950D01*
X106438095Y-136381950D02*
X106361904Y-136343855D01*
X105790476Y-136343855D02*
X105333333Y-136343855D01*
X105561905Y-137143855D02*
X105561905Y-136343855D01*
X109399999Y-146413855D02*
X109780951Y-146413855D01*
X109780951Y-146413855D02*
X109780951Y-145613855D01*
X109133332Y-145994807D02*
X108866666Y-145994807D01*
X108752380Y-146413855D02*
X109133332Y-146413855D01*
X109133332Y-146413855D02*
X109133332Y-145613855D01*
X109133332Y-145613855D02*
X108752380Y-145613855D01*
X108142856Y-145994807D02*
X108409522Y-145994807D01*
X108409522Y-146413855D02*
X108409522Y-145613855D01*
X108409522Y-145613855D02*
X108028570Y-145613855D01*
X107838094Y-145613855D02*
X107380951Y-145613855D01*
X107609523Y-146413855D02*
X107609523Y-145613855D01*
X107152380Y-146375760D02*
X107038094Y-146413855D01*
X107038094Y-146413855D02*
X106847618Y-146413855D01*
X106847618Y-146413855D02*
X106771427Y-146375760D01*
X106771427Y-146375760D02*
X106733332Y-146337664D01*
X106733332Y-146337664D02*
X106695237Y-146261474D01*
X106695237Y-146261474D02*
X106695237Y-146185283D01*
X106695237Y-146185283D02*
X106733332Y-146109093D01*
X106733332Y-146109093D02*
X106771427Y-146070998D01*
X106771427Y-146070998D02*
X106847618Y-146032902D01*
X106847618Y-146032902D02*
X106999999Y-145994807D01*
X106999999Y-145994807D02*
X107076189Y-145956712D01*
X107076189Y-145956712D02*
X107114284Y-145918617D01*
X107114284Y-145918617D02*
X107152380Y-145842426D01*
X107152380Y-145842426D02*
X107152380Y-145766236D01*
X107152380Y-145766236D02*
X107114284Y-145690045D01*
X107114284Y-145690045D02*
X107076189Y-145651950D01*
X107076189Y-145651950D02*
X106999999Y-145613855D01*
X106999999Y-145613855D02*
X106809522Y-145613855D01*
X106809522Y-145613855D02*
X106695237Y-145651950D01*
X106352379Y-146413855D02*
X106352379Y-145613855D01*
X106352379Y-145994807D02*
X105895236Y-145994807D01*
X105895236Y-146413855D02*
X105895236Y-145613855D01*
X105514284Y-146413855D02*
X105514284Y-145613855D01*
X104866666Y-145994807D02*
X105133332Y-145994807D01*
X105133332Y-146413855D02*
X105133332Y-145613855D01*
X105133332Y-145613855D02*
X104752380Y-145613855D01*
X104561904Y-145613855D02*
X104104761Y-145613855D01*
X104333333Y-146413855D02*
X104333333Y-145613855D01*
X109895237Y-147150521D02*
X110504760Y-147379093D01*
X110504760Y-147379093D02*
X109895237Y-147607664D01*
X108904761Y-147150521D02*
X109514284Y-147379093D01*
X109514284Y-147379093D02*
X108904761Y-147607664D01*
X107533332Y-147683855D02*
X107914284Y-147683855D01*
X107914284Y-147683855D02*
X107914284Y-146883855D01*
X107114284Y-146883855D02*
X106961903Y-146883855D01*
X106961903Y-146883855D02*
X106885713Y-146921950D01*
X106885713Y-146921950D02*
X106809522Y-146998140D01*
X106809522Y-146998140D02*
X106771427Y-147150521D01*
X106771427Y-147150521D02*
X106771427Y-147417188D01*
X106771427Y-147417188D02*
X106809522Y-147569569D01*
X106809522Y-147569569D02*
X106885713Y-147645760D01*
X106885713Y-147645760D02*
X106961903Y-147683855D01*
X106961903Y-147683855D02*
X107114284Y-147683855D01*
X107114284Y-147683855D02*
X107190475Y-147645760D01*
X107190475Y-147645760D02*
X107266665Y-147569569D01*
X107266665Y-147569569D02*
X107304761Y-147417188D01*
X107304761Y-147417188D02*
X107304761Y-147150521D01*
X107304761Y-147150521D02*
X107266665Y-146998140D01*
X107266665Y-146998140D02*
X107190475Y-146921950D01*
X107190475Y-146921950D02*
X107114284Y-146883855D01*
X106009523Y-146921950D02*
X106085713Y-146883855D01*
X106085713Y-146883855D02*
X106199999Y-146883855D01*
X106199999Y-146883855D02*
X106314285Y-146921950D01*
X106314285Y-146921950D02*
X106390475Y-146998140D01*
X106390475Y-146998140D02*
X106428570Y-147074331D01*
X106428570Y-147074331D02*
X106466666Y-147226712D01*
X106466666Y-147226712D02*
X106466666Y-147340998D01*
X106466666Y-147340998D02*
X106428570Y-147493379D01*
X106428570Y-147493379D02*
X106390475Y-147569569D01*
X106390475Y-147569569D02*
X106314285Y-147645760D01*
X106314285Y-147645760D02*
X106199999Y-147683855D01*
X106199999Y-147683855D02*
X106123808Y-147683855D01*
X106123808Y-147683855D02*
X106009523Y-147645760D01*
X106009523Y-147645760D02*
X105971427Y-147607664D01*
X105971427Y-147607664D02*
X105971427Y-147340998D01*
X105971427Y-147340998D02*
X106123808Y-147340998D01*
X105628570Y-147683855D02*
X105628570Y-146883855D01*
X104790475Y-147607664D02*
X104828571Y-147645760D01*
X104828571Y-147645760D02*
X104942856Y-147683855D01*
X104942856Y-147683855D02*
X105019047Y-147683855D01*
X105019047Y-147683855D02*
X105133333Y-147645760D01*
X105133333Y-147645760D02*
X105209523Y-147569569D01*
X105209523Y-147569569D02*
X105247618Y-147493379D01*
X105247618Y-147493379D02*
X105285714Y-147340998D01*
X105285714Y-147340998D02*
X105285714Y-147226712D01*
X105285714Y-147226712D02*
X105247618Y-147074331D01*
X105247618Y-147074331D02*
X105209523Y-146998140D01*
X105209523Y-146998140D02*
X105133333Y-146921950D01*
X105133333Y-146921950D02*
X105019047Y-146883855D01*
X105019047Y-146883855D02*
X104942856Y-146883855D01*
X104942856Y-146883855D02*
X104828571Y-146921950D01*
X104828571Y-146921950D02*
X104790475Y-146960045D01*
X104485714Y-147455283D02*
X104104761Y-147455283D01*
X104561904Y-147683855D02*
X104295237Y-146883855D01*
X104295237Y-146883855D02*
X104028571Y-147683855D01*
X103380952Y-147683855D02*
X103761904Y-147683855D01*
X103761904Y-147683855D02*
X103761904Y-146883855D01*
X112104763Y-150223855D02*
X112180953Y-150185760D01*
X112180953Y-150185760D02*
X112219048Y-150109569D01*
X112219048Y-150109569D02*
X112219048Y-149423855D01*
X111800000Y-150223855D02*
X111800000Y-149690521D01*
X111800000Y-149423855D02*
X111838096Y-149461950D01*
X111838096Y-149461950D02*
X111800000Y-149500045D01*
X111800000Y-149500045D02*
X111761905Y-149461950D01*
X111761905Y-149461950D02*
X111800000Y-149423855D01*
X111800000Y-149423855D02*
X111800000Y-149500045D01*
X111419048Y-150223855D02*
X111419048Y-149423855D01*
X111419048Y-149728617D02*
X111342858Y-149690521D01*
X111342858Y-149690521D02*
X111190477Y-149690521D01*
X111190477Y-149690521D02*
X111114286Y-149728617D01*
X111114286Y-149728617D02*
X111076191Y-149766712D01*
X111076191Y-149766712D02*
X111038096Y-149842902D01*
X111038096Y-149842902D02*
X111038096Y-150071474D01*
X111038096Y-150071474D02*
X111076191Y-150147664D01*
X111076191Y-150147664D02*
X111114286Y-150185760D01*
X111114286Y-150185760D02*
X111190477Y-150223855D01*
X111190477Y-150223855D02*
X111342858Y-150223855D01*
X111342858Y-150223855D02*
X111419048Y-150185760D01*
X110390476Y-150185760D02*
X110466667Y-150223855D01*
X110466667Y-150223855D02*
X110619048Y-150223855D01*
X110619048Y-150223855D02*
X110695238Y-150185760D01*
X110695238Y-150185760D02*
X110733334Y-150109569D01*
X110733334Y-150109569D02*
X110733334Y-149804807D01*
X110733334Y-149804807D02*
X110695238Y-149728617D01*
X110695238Y-149728617D02*
X110619048Y-149690521D01*
X110619048Y-149690521D02*
X110466667Y-149690521D01*
X110466667Y-149690521D02*
X110390476Y-149728617D01*
X110390476Y-149728617D02*
X110352381Y-149804807D01*
X110352381Y-149804807D02*
X110352381Y-149880998D01*
X110352381Y-149880998D02*
X110733334Y-149957188D01*
X110009524Y-150223855D02*
X110009524Y-149690521D01*
X110009524Y-149842902D02*
X109971429Y-149766712D01*
X109971429Y-149766712D02*
X109933334Y-149728617D01*
X109933334Y-149728617D02*
X109857143Y-149690521D01*
X109857143Y-149690521D02*
X109780953Y-149690521D01*
X109171429Y-150223855D02*
X109171429Y-149804807D01*
X109171429Y-149804807D02*
X109209524Y-149728617D01*
X109209524Y-149728617D02*
X109285715Y-149690521D01*
X109285715Y-149690521D02*
X109438096Y-149690521D01*
X109438096Y-149690521D02*
X109514286Y-149728617D01*
X109171429Y-150185760D02*
X109247620Y-150223855D01*
X109247620Y-150223855D02*
X109438096Y-150223855D01*
X109438096Y-150223855D02*
X109514286Y-150185760D01*
X109514286Y-150185760D02*
X109552382Y-150109569D01*
X109552382Y-150109569D02*
X109552382Y-150033379D01*
X109552382Y-150033379D02*
X109514286Y-149957188D01*
X109514286Y-149957188D02*
X109438096Y-149919093D01*
X109438096Y-149919093D02*
X109247620Y-149919093D01*
X109247620Y-149919093D02*
X109171429Y-149880998D01*
X108904762Y-149690521D02*
X108600000Y-149690521D01*
X108790476Y-149423855D02*
X108790476Y-150109569D01*
X108790476Y-150109569D02*
X108752381Y-150185760D01*
X108752381Y-150185760D02*
X108676191Y-150223855D01*
X108676191Y-150223855D02*
X108600000Y-150223855D01*
X108028571Y-150185760D02*
X108104762Y-150223855D01*
X108104762Y-150223855D02*
X108257143Y-150223855D01*
X108257143Y-150223855D02*
X108333333Y-150185760D01*
X108333333Y-150185760D02*
X108371429Y-150109569D01*
X108371429Y-150109569D02*
X108371429Y-149804807D01*
X108371429Y-149804807D02*
X108333333Y-149728617D01*
X108333333Y-149728617D02*
X108257143Y-149690521D01*
X108257143Y-149690521D02*
X108104762Y-149690521D01*
X108104762Y-149690521D02*
X108028571Y-149728617D01*
X108028571Y-149728617D02*
X107990476Y-149804807D01*
X107990476Y-149804807D02*
X107990476Y-149880998D01*
X107990476Y-149880998D02*
X108371429Y-149957188D01*
X107114286Y-149690521D02*
X106923810Y-150223855D01*
X106733333Y-149690521D02*
X106923810Y-150223855D01*
X106923810Y-150223855D02*
X107000000Y-150414331D01*
X107000000Y-150414331D02*
X107038095Y-150452426D01*
X107038095Y-150452426D02*
X107114286Y-150490521D01*
X106314286Y-150223855D02*
X106390476Y-150185760D01*
X106390476Y-150185760D02*
X106428571Y-150147664D01*
X106428571Y-150147664D02*
X106466667Y-150071474D01*
X106466667Y-150071474D02*
X106466667Y-149842902D01*
X106466667Y-149842902D02*
X106428571Y-149766712D01*
X106428571Y-149766712D02*
X106390476Y-149728617D01*
X106390476Y-149728617D02*
X106314286Y-149690521D01*
X106314286Y-149690521D02*
X106200000Y-149690521D01*
X106200000Y-149690521D02*
X106123809Y-149728617D01*
X106123809Y-149728617D02*
X106085714Y-149766712D01*
X106085714Y-149766712D02*
X106047619Y-149842902D01*
X106047619Y-149842902D02*
X106047619Y-150071474D01*
X106047619Y-150071474D02*
X106085714Y-150147664D01*
X106085714Y-150147664D02*
X106123809Y-150185760D01*
X106123809Y-150185760D02*
X106200000Y-150223855D01*
X106200000Y-150223855D02*
X106314286Y-150223855D01*
X105361904Y-149690521D02*
X105361904Y-150223855D01*
X105704761Y-149690521D02*
X105704761Y-150109569D01*
X105704761Y-150109569D02*
X105666666Y-150185760D01*
X105666666Y-150185760D02*
X105590476Y-150223855D01*
X105590476Y-150223855D02*
X105476190Y-150223855D01*
X105476190Y-150223855D02*
X105399999Y-150185760D01*
X105399999Y-150185760D02*
X105361904Y-150147664D01*
X104980951Y-150223855D02*
X104980951Y-149690521D01*
X104980951Y-149842902D02*
X104942856Y-149766712D01*
X104942856Y-149766712D02*
X104904761Y-149728617D01*
X104904761Y-149728617D02*
X104828570Y-149690521D01*
X104828570Y-149690521D02*
X104752380Y-149690521D01*
X103876189Y-150223855D02*
X103876189Y-149690521D01*
X103876189Y-149766712D02*
X103838094Y-149728617D01*
X103838094Y-149728617D02*
X103761904Y-149690521D01*
X103761904Y-149690521D02*
X103647618Y-149690521D01*
X103647618Y-149690521D02*
X103571427Y-149728617D01*
X103571427Y-149728617D02*
X103533332Y-149804807D01*
X103533332Y-149804807D02*
X103533332Y-150223855D01*
X103533332Y-149804807D02*
X103495237Y-149728617D01*
X103495237Y-149728617D02*
X103419046Y-149690521D01*
X103419046Y-149690521D02*
X103304761Y-149690521D01*
X103304761Y-149690521D02*
X103228570Y-149728617D01*
X103228570Y-149728617D02*
X103190475Y-149804807D01*
X103190475Y-149804807D02*
X103190475Y-150223855D01*
X102466665Y-150223855D02*
X102466665Y-149804807D01*
X102466665Y-149804807D02*
X102504760Y-149728617D01*
X102504760Y-149728617D02*
X102580951Y-149690521D01*
X102580951Y-149690521D02*
X102733332Y-149690521D01*
X102733332Y-149690521D02*
X102809522Y-149728617D01*
X102466665Y-150185760D02*
X102542856Y-150223855D01*
X102542856Y-150223855D02*
X102733332Y-150223855D01*
X102733332Y-150223855D02*
X102809522Y-150185760D01*
X102809522Y-150185760D02*
X102847618Y-150109569D01*
X102847618Y-150109569D02*
X102847618Y-150033379D01*
X102847618Y-150033379D02*
X102809522Y-149957188D01*
X102809522Y-149957188D02*
X102733332Y-149919093D01*
X102733332Y-149919093D02*
X102542856Y-149919093D01*
X102542856Y-149919093D02*
X102466665Y-149880998D01*
X101742855Y-150185760D02*
X101819046Y-150223855D01*
X101819046Y-150223855D02*
X101971427Y-150223855D01*
X101971427Y-150223855D02*
X102047617Y-150185760D01*
X102047617Y-150185760D02*
X102085712Y-150147664D01*
X102085712Y-150147664D02*
X102123808Y-150071474D01*
X102123808Y-150071474D02*
X102123808Y-149842902D01*
X102123808Y-149842902D02*
X102085712Y-149766712D01*
X102085712Y-149766712D02*
X102047617Y-149728617D01*
X102047617Y-149728617D02*
X101971427Y-149690521D01*
X101971427Y-149690521D02*
X101819046Y-149690521D01*
X101819046Y-149690521D02*
X101742855Y-149728617D01*
X110809523Y-151493855D02*
X110809523Y-150960521D01*
X110809523Y-151112902D02*
X110771428Y-151036712D01*
X110771428Y-151036712D02*
X110733333Y-150998617D01*
X110733333Y-150998617D02*
X110657142Y-150960521D01*
X110657142Y-150960521D02*
X110580952Y-150960521D01*
X110009523Y-151455760D02*
X110085714Y-151493855D01*
X110085714Y-151493855D02*
X110238095Y-151493855D01*
X110238095Y-151493855D02*
X110314285Y-151455760D01*
X110314285Y-151455760D02*
X110352381Y-151379569D01*
X110352381Y-151379569D02*
X110352381Y-151074807D01*
X110352381Y-151074807D02*
X110314285Y-150998617D01*
X110314285Y-150998617D02*
X110238095Y-150960521D01*
X110238095Y-150960521D02*
X110085714Y-150960521D01*
X110085714Y-150960521D02*
X110009523Y-150998617D01*
X110009523Y-150998617D02*
X109971428Y-151074807D01*
X109971428Y-151074807D02*
X109971428Y-151150998D01*
X109971428Y-151150998D02*
X110352381Y-151227188D01*
X109666667Y-151455760D02*
X109590476Y-151493855D01*
X109590476Y-151493855D02*
X109438095Y-151493855D01*
X109438095Y-151493855D02*
X109361905Y-151455760D01*
X109361905Y-151455760D02*
X109323809Y-151379569D01*
X109323809Y-151379569D02*
X109323809Y-151341474D01*
X109323809Y-151341474D02*
X109361905Y-151265283D01*
X109361905Y-151265283D02*
X109438095Y-151227188D01*
X109438095Y-151227188D02*
X109552381Y-151227188D01*
X109552381Y-151227188D02*
X109628571Y-151189093D01*
X109628571Y-151189093D02*
X109666667Y-151112902D01*
X109666667Y-151112902D02*
X109666667Y-151074807D01*
X109666667Y-151074807D02*
X109628571Y-150998617D01*
X109628571Y-150998617D02*
X109552381Y-150960521D01*
X109552381Y-150960521D02*
X109438095Y-150960521D01*
X109438095Y-150960521D02*
X109361905Y-150998617D01*
X109095238Y-150960521D02*
X108790476Y-150960521D01*
X108980952Y-150693855D02*
X108980952Y-151379569D01*
X108980952Y-151379569D02*
X108942857Y-151455760D01*
X108942857Y-151455760D02*
X108866667Y-151493855D01*
X108866667Y-151493855D02*
X108790476Y-151493855D01*
X108409524Y-151493855D02*
X108485714Y-151455760D01*
X108485714Y-151455760D02*
X108523809Y-151417664D01*
X108523809Y-151417664D02*
X108561905Y-151341474D01*
X108561905Y-151341474D02*
X108561905Y-151112902D01*
X108561905Y-151112902D02*
X108523809Y-151036712D01*
X108523809Y-151036712D02*
X108485714Y-150998617D01*
X108485714Y-150998617D02*
X108409524Y-150960521D01*
X108409524Y-150960521D02*
X108295238Y-150960521D01*
X108295238Y-150960521D02*
X108219047Y-150998617D01*
X108219047Y-150998617D02*
X108180952Y-151036712D01*
X108180952Y-151036712D02*
X108142857Y-151112902D01*
X108142857Y-151112902D02*
X108142857Y-151341474D01*
X108142857Y-151341474D02*
X108180952Y-151417664D01*
X108180952Y-151417664D02*
X108219047Y-151455760D01*
X108219047Y-151455760D02*
X108295238Y-151493855D01*
X108295238Y-151493855D02*
X108409524Y-151493855D01*
X107799999Y-151493855D02*
X107799999Y-150960521D01*
X107799999Y-151112902D02*
X107761904Y-151036712D01*
X107761904Y-151036712D02*
X107723809Y-150998617D01*
X107723809Y-150998617D02*
X107647618Y-150960521D01*
X107647618Y-150960521D02*
X107571428Y-150960521D01*
X106999999Y-151455760D02*
X107076190Y-151493855D01*
X107076190Y-151493855D02*
X107228571Y-151493855D01*
X107228571Y-151493855D02*
X107304761Y-151455760D01*
X107304761Y-151455760D02*
X107342857Y-151379569D01*
X107342857Y-151379569D02*
X107342857Y-151074807D01*
X107342857Y-151074807D02*
X107304761Y-150998617D01*
X107304761Y-150998617D02*
X107228571Y-150960521D01*
X107228571Y-150960521D02*
X107076190Y-150960521D01*
X107076190Y-150960521D02*
X106999999Y-150998617D01*
X106999999Y-150998617D02*
X106961904Y-151074807D01*
X106961904Y-151074807D02*
X106961904Y-151150998D01*
X106961904Y-151150998D02*
X107342857Y-151227188D01*
X106619047Y-151493855D02*
X106619047Y-150693855D01*
X106542857Y-151189093D02*
X106314285Y-151493855D01*
X106314285Y-150960521D02*
X106619047Y-151265283D01*
X105971428Y-151493855D02*
X105971428Y-150960521D01*
X105971428Y-150693855D02*
X106009524Y-150731950D01*
X106009524Y-150731950D02*
X105971428Y-150770045D01*
X105971428Y-150770045D02*
X105933333Y-150731950D01*
X105933333Y-150731950D02*
X105971428Y-150693855D01*
X105971428Y-150693855D02*
X105971428Y-150770045D01*
X105704762Y-150960521D02*
X105400000Y-150960521D01*
X105590476Y-150693855D02*
X105590476Y-151379569D01*
X105590476Y-151379569D02*
X105552381Y-151455760D01*
X105552381Y-151455760D02*
X105476191Y-151493855D01*
X105476191Y-151493855D02*
X105400000Y-151493855D01*
X105133333Y-151417664D02*
X105095238Y-151455760D01*
X105095238Y-151455760D02*
X105133333Y-151493855D01*
X105133333Y-151493855D02*
X105171429Y-151455760D01*
X105171429Y-151455760D02*
X105133333Y-151417664D01*
X105133333Y-151417664D02*
X105133333Y-151493855D01*
X104638096Y-151493855D02*
X104714286Y-151455760D01*
X104714286Y-151455760D02*
X104752381Y-151417664D01*
X104752381Y-151417664D02*
X104790477Y-151341474D01*
X104790477Y-151341474D02*
X104790477Y-151112902D01*
X104790477Y-151112902D02*
X104752381Y-151036712D01*
X104752381Y-151036712D02*
X104714286Y-150998617D01*
X104714286Y-150998617D02*
X104638096Y-150960521D01*
X104638096Y-150960521D02*
X104523810Y-150960521D01*
X104523810Y-150960521D02*
X104447619Y-150998617D01*
X104447619Y-150998617D02*
X104409524Y-151036712D01*
X104409524Y-151036712D02*
X104371429Y-151112902D01*
X104371429Y-151112902D02*
X104371429Y-151341474D01*
X104371429Y-151341474D02*
X104409524Y-151417664D01*
X104409524Y-151417664D02*
X104447619Y-151455760D01*
X104447619Y-151455760D02*
X104523810Y-151493855D01*
X104523810Y-151493855D02*
X104638096Y-151493855D01*
X104028571Y-151493855D02*
X104028571Y-150960521D01*
X104028571Y-151112902D02*
X103990476Y-151036712D01*
X103990476Y-151036712D02*
X103952381Y-150998617D01*
X103952381Y-150998617D02*
X103876190Y-150960521D01*
X103876190Y-150960521D02*
X103800000Y-150960521D01*
X103190476Y-150960521D02*
X103190476Y-151608140D01*
X103190476Y-151608140D02*
X103228571Y-151684331D01*
X103228571Y-151684331D02*
X103266667Y-151722426D01*
X103266667Y-151722426D02*
X103342857Y-151760521D01*
X103342857Y-151760521D02*
X103457143Y-151760521D01*
X103457143Y-151760521D02*
X103533333Y-151722426D01*
X103190476Y-151455760D02*
X103266667Y-151493855D01*
X103266667Y-151493855D02*
X103419048Y-151493855D01*
X103419048Y-151493855D02*
X103495238Y-151455760D01*
X103495238Y-151455760D02*
X103533333Y-151417664D01*
X103533333Y-151417664D02*
X103571429Y-151341474D01*
X103571429Y-151341474D02*
X103571429Y-151112902D01*
X103571429Y-151112902D02*
X103533333Y-151036712D01*
X103533333Y-151036712D02*
X103495238Y-150998617D01*
X103495238Y-150998617D02*
X103419048Y-150960521D01*
X103419048Y-150960521D02*
X103266667Y-150960521D01*
X103266667Y-150960521D02*
X103190476Y-150998617D01*
X110423808Y-101363855D02*
X110423808Y-100563855D01*
X110042856Y-101363855D02*
X110042856Y-100563855D01*
X110042856Y-100563855D02*
X109585713Y-101363855D01*
X109585713Y-101363855D02*
X109585713Y-100563855D01*
X109319047Y-100563855D02*
X108861904Y-100563855D01*
X109090476Y-101363855D02*
X109090476Y-100563855D01*
X114159523Y-120759093D02*
X113550000Y-120759093D01*
X113854761Y-121063855D02*
X113854761Y-120454331D01*
X112750000Y-121063855D02*
X113207143Y-121063855D01*
X112978571Y-121063855D02*
X112978571Y-120263855D01*
X112978571Y-120263855D02*
X113054762Y-120378140D01*
X113054762Y-120378140D02*
X113130952Y-120454331D01*
X113130952Y-120454331D02*
X113207143Y-120492426D01*
X112521428Y-120263855D02*
X112254761Y-121063855D01*
X112254761Y-121063855D02*
X111988095Y-120263855D01*
X111302381Y-121063855D02*
X111759524Y-121063855D01*
X111530952Y-121063855D02*
X111530952Y-120263855D01*
X111530952Y-120263855D02*
X111607143Y-120378140D01*
X111607143Y-120378140D02*
X111683333Y-120454331D01*
X111683333Y-120454331D02*
X111759524Y-120492426D01*
X113985714Y-129125760D02*
X113871428Y-129163855D01*
X113871428Y-129163855D02*
X113680952Y-129163855D01*
X113680952Y-129163855D02*
X113604761Y-129125760D01*
X113604761Y-129125760D02*
X113566666Y-129087664D01*
X113566666Y-129087664D02*
X113528571Y-129011474D01*
X113528571Y-129011474D02*
X113528571Y-128935283D01*
X113528571Y-128935283D02*
X113566666Y-128859093D01*
X113566666Y-128859093D02*
X113604761Y-128820998D01*
X113604761Y-128820998D02*
X113680952Y-128782902D01*
X113680952Y-128782902D02*
X113833333Y-128744807D01*
X113833333Y-128744807D02*
X113909523Y-128706712D01*
X113909523Y-128706712D02*
X113947618Y-128668617D01*
X113947618Y-128668617D02*
X113985714Y-128592426D01*
X113985714Y-128592426D02*
X113985714Y-128516236D01*
X113985714Y-128516236D02*
X113947618Y-128440045D01*
X113947618Y-128440045D02*
X113909523Y-128401950D01*
X113909523Y-128401950D02*
X113833333Y-128363855D01*
X113833333Y-128363855D02*
X113642856Y-128363855D01*
X113642856Y-128363855D02*
X113528571Y-128401950D01*
X113261904Y-128363855D02*
X113071428Y-129163855D01*
X113071428Y-129163855D02*
X112919047Y-128592426D01*
X112919047Y-128592426D02*
X112766666Y-129163855D01*
X112766666Y-129163855D02*
X112576190Y-128363855D01*
X112271427Y-129163855D02*
X112271427Y-128363855D01*
X112271427Y-128363855D02*
X112080951Y-128363855D01*
X112080951Y-128363855D02*
X111966665Y-128401950D01*
X111966665Y-128401950D02*
X111890475Y-128478140D01*
X111890475Y-128478140D02*
X111852380Y-128554331D01*
X111852380Y-128554331D02*
X111814284Y-128706712D01*
X111814284Y-128706712D02*
X111814284Y-128820998D01*
X111814284Y-128820998D02*
X111852380Y-128973379D01*
X111852380Y-128973379D02*
X111890475Y-129049569D01*
X111890475Y-129049569D02*
X111966665Y-129125760D01*
X111966665Y-129125760D02*
X112080951Y-129163855D01*
X112080951Y-129163855D02*
X112271427Y-129163855D01*
X101563855Y-118171428D02*
X100763855Y-118171428D01*
X101525760Y-118171428D02*
X101563855Y-118095237D01*
X101563855Y-118095237D02*
X101563855Y-117942856D01*
X101563855Y-117942856D02*
X101525760Y-117866666D01*
X101525760Y-117866666D02*
X101487664Y-117828571D01*
X101487664Y-117828571D02*
X101411474Y-117790475D01*
X101411474Y-117790475D02*
X101182902Y-117790475D01*
X101182902Y-117790475D02*
X101106712Y-117828571D01*
X101106712Y-117828571D02*
X101068617Y-117866666D01*
X101068617Y-117866666D02*
X101030521Y-117942856D01*
X101030521Y-117942856D02*
X101030521Y-118095237D01*
X101030521Y-118095237D02*
X101068617Y-118171428D01*
X101563855Y-118666666D02*
X101525760Y-118590476D01*
X101525760Y-118590476D02*
X101487664Y-118552381D01*
X101487664Y-118552381D02*
X101411474Y-118514285D01*
X101411474Y-118514285D02*
X101182902Y-118514285D01*
X101182902Y-118514285D02*
X101106712Y-118552381D01*
X101106712Y-118552381D02*
X101068617Y-118590476D01*
X101068617Y-118590476D02*
X101030521Y-118666666D01*
X101030521Y-118666666D02*
X101030521Y-118780952D01*
X101030521Y-118780952D02*
X101068617Y-118857143D01*
X101068617Y-118857143D02*
X101106712Y-118895238D01*
X101106712Y-118895238D02*
X101182902Y-118933333D01*
X101182902Y-118933333D02*
X101411474Y-118933333D01*
X101411474Y-118933333D02*
X101487664Y-118895238D01*
X101487664Y-118895238D02*
X101525760Y-118857143D01*
X101525760Y-118857143D02*
X101563855Y-118780952D01*
X101563855Y-118780952D02*
X101563855Y-118666666D01*
X101030521Y-119276191D02*
X101563855Y-119276191D01*
X101106712Y-119276191D02*
X101068617Y-119314286D01*
X101068617Y-119314286D02*
X101030521Y-119390476D01*
X101030521Y-119390476D02*
X101030521Y-119504762D01*
X101030521Y-119504762D02*
X101068617Y-119580953D01*
X101068617Y-119580953D02*
X101144807Y-119619048D01*
X101144807Y-119619048D02*
X101563855Y-119619048D01*
X101030521Y-120342858D02*
X101678140Y-120342858D01*
X101678140Y-120342858D02*
X101754331Y-120304763D01*
X101754331Y-120304763D02*
X101792426Y-120266667D01*
X101792426Y-120266667D02*
X101830521Y-120190477D01*
X101830521Y-120190477D02*
X101830521Y-120076191D01*
X101830521Y-120076191D02*
X101792426Y-120000001D01*
X101525760Y-120342858D02*
X101563855Y-120266667D01*
X101563855Y-120266667D02*
X101563855Y-120114286D01*
X101563855Y-120114286D02*
X101525760Y-120038096D01*
X101525760Y-120038096D02*
X101487664Y-120000001D01*
X101487664Y-120000001D02*
X101411474Y-119961905D01*
X101411474Y-119961905D02*
X101182902Y-119961905D01*
X101182902Y-119961905D02*
X101106712Y-120000001D01*
X101106712Y-120000001D02*
X101068617Y-120038096D01*
X101068617Y-120038096D02*
X101030521Y-120114286D01*
X101030521Y-120114286D02*
X101030521Y-120266667D01*
X101030521Y-120266667D02*
X101068617Y-120342858D01*
X101563855Y-120838096D02*
X101525760Y-120761906D01*
X101525760Y-120761906D02*
X101449569Y-120723811D01*
X101449569Y-120723811D02*
X100763855Y-120723811D01*
X101525760Y-121447621D02*
X101563855Y-121371430D01*
X101563855Y-121371430D02*
X101563855Y-121219049D01*
X101563855Y-121219049D02*
X101525760Y-121142859D01*
X101525760Y-121142859D02*
X101449569Y-121104763D01*
X101449569Y-121104763D02*
X101144807Y-121104763D01*
X101144807Y-121104763D02*
X101068617Y-121142859D01*
X101068617Y-121142859D02*
X101030521Y-121219049D01*
X101030521Y-121219049D02*
X101030521Y-121371430D01*
X101030521Y-121371430D02*
X101068617Y-121447621D01*
X101068617Y-121447621D02*
X101144807Y-121485716D01*
X101144807Y-121485716D02*
X101220998Y-121485716D01*
X101220998Y-121485716D02*
X101297188Y-121104763D01*
X101259093Y-121828573D02*
X101259093Y-122438097D01*
X101563855Y-122933334D02*
X101525760Y-122857144D01*
X101525760Y-122857144D02*
X101449569Y-122819049D01*
X101449569Y-122819049D02*
X100763855Y-122819049D01*
X101563855Y-123238097D02*
X101030521Y-123238097D01*
X100763855Y-123238097D02*
X100801950Y-123200001D01*
X100801950Y-123200001D02*
X100840045Y-123238097D01*
X100840045Y-123238097D02*
X100801950Y-123276192D01*
X100801950Y-123276192D02*
X100763855Y-123238097D01*
X100763855Y-123238097D02*
X100840045Y-123238097D01*
X101030521Y-123504763D02*
X101030521Y-123809525D01*
X100763855Y-123619049D02*
X101449569Y-123619049D01*
X101449569Y-123619049D02*
X101525760Y-123657144D01*
X101525760Y-123657144D02*
X101563855Y-123733334D01*
X101563855Y-123733334D02*
X101563855Y-123809525D01*
X101525760Y-124380954D02*
X101563855Y-124304763D01*
X101563855Y-124304763D02*
X101563855Y-124152382D01*
X101563855Y-124152382D02*
X101525760Y-124076192D01*
X101525760Y-124076192D02*
X101449569Y-124038096D01*
X101449569Y-124038096D02*
X101144807Y-124038096D01*
X101144807Y-124038096D02*
X101068617Y-124076192D01*
X101068617Y-124076192D02*
X101030521Y-124152382D01*
X101030521Y-124152382D02*
X101030521Y-124304763D01*
X101030521Y-124304763D02*
X101068617Y-124380954D01*
X101068617Y-124380954D02*
X101144807Y-124419049D01*
X101144807Y-124419049D02*
X101220998Y-124419049D01*
X101220998Y-124419049D02*
X101297188Y-124038096D01*
X101563855Y-125371430D02*
X101030521Y-125371430D01*
X101182902Y-125371430D02*
X101106712Y-125409525D01*
X101106712Y-125409525D02*
X101068617Y-125447620D01*
X101068617Y-125447620D02*
X101030521Y-125523811D01*
X101030521Y-125523811D02*
X101030521Y-125600001D01*
X101335283Y-125828572D02*
X101335283Y-126209525D01*
X101563855Y-125752382D02*
X100763855Y-126019049D01*
X100763855Y-126019049D02*
X101563855Y-126285715D01*
X102509523Y-140380855D02*
X102052380Y-140380855D01*
X102280952Y-141180855D02*
X102280952Y-140380855D01*
X101785713Y-141180855D02*
X101785713Y-140380855D01*
X101785713Y-140380855D02*
X101480951Y-140380855D01*
X101480951Y-140380855D02*
X101404761Y-140418950D01*
X101404761Y-140418950D02*
X101366666Y-140457045D01*
X101366666Y-140457045D02*
X101328570Y-140533236D01*
X101328570Y-140533236D02*
X101328570Y-140647521D01*
X101328570Y-140647521D02*
X101366666Y-140723712D01*
X101366666Y-140723712D02*
X101404761Y-140761807D01*
X101404761Y-140761807D02*
X101480951Y-140799902D01*
X101480951Y-140799902D02*
X101785713Y-140799902D01*
X100604761Y-140380855D02*
X100985713Y-140380855D01*
X100985713Y-140380855D02*
X101023809Y-140761807D01*
X101023809Y-140761807D02*
X100985713Y-140723712D01*
X100985713Y-140723712D02*
X100909523Y-140685617D01*
X100909523Y-140685617D02*
X100719047Y-140685617D01*
X100719047Y-140685617D02*
X100642856Y-140723712D01*
X100642856Y-140723712D02*
X100604761Y-140761807D01*
X100604761Y-140761807D02*
X100566666Y-140837998D01*
X100566666Y-140837998D02*
X100566666Y-141028474D01*
X100566666Y-141028474D02*
X100604761Y-141104664D01*
X100604761Y-141104664D02*
X100642856Y-141142760D01*
X100642856Y-141142760D02*
X100719047Y-141180855D01*
X100719047Y-141180855D02*
X100909523Y-141180855D01*
X100909523Y-141180855D02*
X100985713Y-141142760D01*
X100985713Y-141142760D02*
X101023809Y-141104664D01*
X102509523Y-112838855D02*
X102052380Y-112838855D01*
X102280952Y-113638855D02*
X102280952Y-112838855D01*
X101785713Y-113638855D02*
X101785713Y-112838855D01*
X101785713Y-112838855D02*
X101480951Y-112838855D01*
X101480951Y-112838855D02*
X101404761Y-112876950D01*
X101404761Y-112876950D02*
X101366666Y-112915045D01*
X101366666Y-112915045D02*
X101328570Y-112991236D01*
X101328570Y-112991236D02*
X101328570Y-113105521D01*
X101328570Y-113105521D02*
X101366666Y-113181712D01*
X101366666Y-113181712D02*
X101404761Y-113219807D01*
X101404761Y-113219807D02*
X101480951Y-113257902D01*
X101480951Y-113257902D02*
X101785713Y-113257902D01*
X100566666Y-113638855D02*
X101023809Y-113638855D01*
X100795237Y-113638855D02*
X100795237Y-112838855D01*
X100795237Y-112838855D02*
X100871428Y-112953140D01*
X100871428Y-112953140D02*
X100947618Y-113029331D01*
X100947618Y-113029331D02*
X101023809Y-113067426D01*
X104384523Y-130063855D02*
X103927380Y-130063855D01*
X104155952Y-130863855D02*
X104155952Y-130063855D01*
X103660713Y-130863855D02*
X103660713Y-130063855D01*
X103660713Y-130063855D02*
X103355951Y-130063855D01*
X103355951Y-130063855D02*
X103279761Y-130101950D01*
X103279761Y-130101950D02*
X103241666Y-130140045D01*
X103241666Y-130140045D02*
X103203570Y-130216236D01*
X103203570Y-130216236D02*
X103203570Y-130330521D01*
X103203570Y-130330521D02*
X103241666Y-130406712D01*
X103241666Y-130406712D02*
X103279761Y-130444807D01*
X103279761Y-130444807D02*
X103355951Y-130482902D01*
X103355951Y-130482902D02*
X103660713Y-130482902D01*
X102517856Y-130063855D02*
X102670237Y-130063855D01*
X102670237Y-130063855D02*
X102746428Y-130101950D01*
X102746428Y-130101950D02*
X102784523Y-130140045D01*
X102784523Y-130140045D02*
X102860713Y-130254331D01*
X102860713Y-130254331D02*
X102898809Y-130406712D01*
X102898809Y-130406712D02*
X102898809Y-130711474D01*
X102898809Y-130711474D02*
X102860713Y-130787664D01*
X102860713Y-130787664D02*
X102822618Y-130825760D01*
X102822618Y-130825760D02*
X102746428Y-130863855D01*
X102746428Y-130863855D02*
X102594047Y-130863855D01*
X102594047Y-130863855D02*
X102517856Y-130825760D01*
X102517856Y-130825760D02*
X102479761Y-130787664D01*
X102479761Y-130787664D02*
X102441666Y-130711474D01*
X102441666Y-130711474D02*
X102441666Y-130520998D01*
X102441666Y-130520998D02*
X102479761Y-130444807D01*
X102479761Y-130444807D02*
X102517856Y-130406712D01*
X102517856Y-130406712D02*
X102594047Y-130368617D01*
X102594047Y-130368617D02*
X102746428Y-130368617D01*
X102746428Y-130368617D02*
X102822618Y-130406712D01*
X102822618Y-130406712D02*
X102860713Y-130444807D01*
X102860713Y-130444807D02*
X102898809Y-130520998D01*
X107314285Y-128787664D02*
X107352381Y-128825760D01*
X107352381Y-128825760D02*
X107466666Y-128863855D01*
X107466666Y-128863855D02*
X107542857Y-128863855D01*
X107542857Y-128863855D02*
X107657143Y-128825760D01*
X107657143Y-128825760D02*
X107733333Y-128749569D01*
X107733333Y-128749569D02*
X107771428Y-128673379D01*
X107771428Y-128673379D02*
X107809524Y-128520998D01*
X107809524Y-128520998D02*
X107809524Y-128406712D01*
X107809524Y-128406712D02*
X107771428Y-128254331D01*
X107771428Y-128254331D02*
X107733333Y-128178140D01*
X107733333Y-128178140D02*
X107657143Y-128101950D01*
X107657143Y-128101950D02*
X107542857Y-128063855D01*
X107542857Y-128063855D02*
X107466666Y-128063855D01*
X107466666Y-128063855D02*
X107352381Y-128101950D01*
X107352381Y-128101950D02*
X107314285Y-128140045D01*
X106552381Y-128863855D02*
X107009524Y-128863855D01*
X106780952Y-128863855D02*
X106780952Y-128063855D01*
X106780952Y-128063855D02*
X106857143Y-128178140D01*
X106857143Y-128178140D02*
X106933333Y-128254331D01*
X106933333Y-128254331D02*
X107009524Y-128292426D01*
X105790476Y-128863855D02*
X106247619Y-128863855D01*
X106019047Y-128863855D02*
X106019047Y-128063855D01*
X106019047Y-128063855D02*
X106095238Y-128178140D01*
X106095238Y-128178140D02*
X106171428Y-128254331D01*
X106171428Y-128254331D02*
X106247619Y-128292426D01*
X106980951Y-130632901D02*
X106980951Y-131013854D01*
X107247618Y-130213854D02*
X106980951Y-130632901D01*
X106980951Y-130632901D02*
X106714285Y-130213854D01*
X106028571Y-131013854D02*
X106485714Y-131013854D01*
X106257142Y-131013854D02*
X106257142Y-130213854D01*
X106257142Y-130213854D02*
X106333333Y-130328139D01*
X106333333Y-130328139D02*
X106409523Y-130404330D01*
X106409523Y-130404330D02*
X106485714Y-130442425D01*
X111563855Y-134688332D02*
X112135283Y-134688332D01*
X112135283Y-134688332D02*
X112249569Y-134650237D01*
X112249569Y-134650237D02*
X112325760Y-134574046D01*
X112325760Y-134574046D02*
X112363855Y-134459761D01*
X112363855Y-134459761D02*
X112363855Y-134383570D01*
X111563855Y-134993094D02*
X111563855Y-135488332D01*
X111563855Y-135488332D02*
X111868617Y-135221666D01*
X111868617Y-135221666D02*
X111868617Y-135335951D01*
X111868617Y-135335951D02*
X111906712Y-135412142D01*
X111906712Y-135412142D02*
X111944807Y-135450237D01*
X111944807Y-135450237D02*
X112020998Y-135488332D01*
X112020998Y-135488332D02*
X112211474Y-135488332D01*
X112211474Y-135488332D02*
X112287664Y-135450237D01*
X112287664Y-135450237D02*
X112325760Y-135412142D01*
X112325760Y-135412142D02*
X112363855Y-135335951D01*
X112363855Y-135335951D02*
X112363855Y-135107380D01*
X112363855Y-135107380D02*
X112325760Y-135031189D01*
X112325760Y-135031189D02*
X112287664Y-134993094D01*
X111080951Y-110460901D02*
X111080951Y-110841854D01*
X111347618Y-110041854D02*
X111080951Y-110460901D01*
X111080951Y-110460901D02*
X110814285Y-110041854D01*
X110585714Y-110118044D02*
X110547618Y-110079949D01*
X110547618Y-110079949D02*
X110471428Y-110041854D01*
X110471428Y-110041854D02*
X110280952Y-110041854D01*
X110280952Y-110041854D02*
X110204761Y-110079949D01*
X110204761Y-110079949D02*
X110166666Y-110118044D01*
X110166666Y-110118044D02*
X110128571Y-110194235D01*
X110128571Y-110194235D02*
X110128571Y-110270425D01*
X110128571Y-110270425D02*
X110166666Y-110384711D01*
X110166666Y-110384711D02*
X110623809Y-110841854D01*
X110623809Y-110841854D02*
X110128571Y-110841854D01*
X113587664Y-125366667D02*
X113625760Y-125328571D01*
X113625760Y-125328571D02*
X113663855Y-125214286D01*
X113663855Y-125214286D02*
X113663855Y-125138095D01*
X113663855Y-125138095D02*
X113625760Y-125023809D01*
X113625760Y-125023809D02*
X113549569Y-124947619D01*
X113549569Y-124947619D02*
X113473379Y-124909524D01*
X113473379Y-124909524D02*
X113320998Y-124871428D01*
X113320998Y-124871428D02*
X113206712Y-124871428D01*
X113206712Y-124871428D02*
X113054331Y-124909524D01*
X113054331Y-124909524D02*
X112978140Y-124947619D01*
X112978140Y-124947619D02*
X112901950Y-125023809D01*
X112901950Y-125023809D02*
X112863855Y-125138095D01*
X112863855Y-125138095D02*
X112863855Y-125214286D01*
X112863855Y-125214286D02*
X112901950Y-125328571D01*
X112901950Y-125328571D02*
X112940045Y-125366667D01*
X113206712Y-125823809D02*
X113168617Y-125747619D01*
X113168617Y-125747619D02*
X113130521Y-125709524D01*
X113130521Y-125709524D02*
X113054331Y-125671428D01*
X113054331Y-125671428D02*
X113016236Y-125671428D01*
X113016236Y-125671428D02*
X112940045Y-125709524D01*
X112940045Y-125709524D02*
X112901950Y-125747619D01*
X112901950Y-125747619D02*
X112863855Y-125823809D01*
X112863855Y-125823809D02*
X112863855Y-125976190D01*
X112863855Y-125976190D02*
X112901950Y-126052381D01*
X112901950Y-126052381D02*
X112940045Y-126090476D01*
X112940045Y-126090476D02*
X113016236Y-126128571D01*
X113016236Y-126128571D02*
X113054331Y-126128571D01*
X113054331Y-126128571D02*
X113130521Y-126090476D01*
X113130521Y-126090476D02*
X113168617Y-126052381D01*
X113168617Y-126052381D02*
X113206712Y-125976190D01*
X113206712Y-125976190D02*
X113206712Y-125823809D01*
X113206712Y-125823809D02*
X113244807Y-125747619D01*
X113244807Y-125747619D02*
X113282902Y-125709524D01*
X113282902Y-125709524D02*
X113359093Y-125671428D01*
X113359093Y-125671428D02*
X113511474Y-125671428D01*
X113511474Y-125671428D02*
X113587664Y-125709524D01*
X113587664Y-125709524D02*
X113625760Y-125747619D01*
X113625760Y-125747619D02*
X113663855Y-125823809D01*
X113663855Y-125823809D02*
X113663855Y-125976190D01*
X113663855Y-125976190D02*
X113625760Y-126052381D01*
X113625760Y-126052381D02*
X113587664Y-126090476D01*
X113587664Y-126090476D02*
X113511474Y-126128571D01*
X113511474Y-126128571D02*
X113359093Y-126128571D01*
X113359093Y-126128571D02*
X113282902Y-126090476D01*
X113282902Y-126090476D02*
X113244807Y-126052381D01*
X113244807Y-126052381D02*
X113206712Y-125976190D01*
X106809523Y-103938855D02*
X106352380Y-103938855D01*
X106580952Y-104738855D02*
X106580952Y-103938855D01*
X106085713Y-104738855D02*
X106085713Y-103938855D01*
X106085713Y-103938855D02*
X105780951Y-103938855D01*
X105780951Y-103938855D02*
X105704761Y-103976950D01*
X105704761Y-103976950D02*
X105666666Y-104015045D01*
X105666666Y-104015045D02*
X105628570Y-104091236D01*
X105628570Y-104091236D02*
X105628570Y-104205521D01*
X105628570Y-104205521D02*
X105666666Y-104281712D01*
X105666666Y-104281712D02*
X105704761Y-104319807D01*
X105704761Y-104319807D02*
X105780951Y-104357902D01*
X105780951Y-104357902D02*
X106085713Y-104357902D01*
X105361904Y-103938855D02*
X104828570Y-103938855D01*
X104828570Y-103938855D02*
X105171428Y-104738855D01*
X105764285Y-123650855D02*
X106030952Y-123269902D01*
X106221428Y-123650855D02*
X106221428Y-122850855D01*
X106221428Y-122850855D02*
X105916666Y-122850855D01*
X105916666Y-122850855D02*
X105840476Y-122888950D01*
X105840476Y-122888950D02*
X105802381Y-122927045D01*
X105802381Y-122927045D02*
X105764285Y-123003236D01*
X105764285Y-123003236D02*
X105764285Y-123117521D01*
X105764285Y-123117521D02*
X105802381Y-123193712D01*
X105802381Y-123193712D02*
X105840476Y-123231807D01*
X105840476Y-123231807D02*
X105916666Y-123269902D01*
X105916666Y-123269902D02*
X106221428Y-123269902D01*
X105002381Y-123650855D02*
X105459524Y-123650855D01*
X105230952Y-123650855D02*
X105230952Y-122850855D01*
X105230952Y-122850855D02*
X105307143Y-122965140D01*
X105307143Y-122965140D02*
X105383333Y-123041331D01*
X105383333Y-123041331D02*
X105459524Y-123079426D01*
X104735714Y-122850855D02*
X104240476Y-122850855D01*
X104240476Y-122850855D02*
X104507142Y-123155617D01*
X104507142Y-123155617D02*
X104392857Y-123155617D01*
X104392857Y-123155617D02*
X104316666Y-123193712D01*
X104316666Y-123193712D02*
X104278571Y-123231807D01*
X104278571Y-123231807D02*
X104240476Y-123307998D01*
X104240476Y-123307998D02*
X104240476Y-123498474D01*
X104240476Y-123498474D02*
X104278571Y-123574664D01*
X104278571Y-123574664D02*
X104316666Y-123612760D01*
X104316666Y-123612760D02*
X104392857Y-123650855D01*
X104392857Y-123650855D02*
X104621428Y-123650855D01*
X104621428Y-123650855D02*
X104697619Y-123612760D01*
X104697619Y-123612760D02*
X104735714Y-123574664D01*
X113629523Y-130110455D02*
X113172380Y-130110455D01*
X113400952Y-130910455D02*
X113400952Y-130110455D01*
X112905713Y-130910455D02*
X112905713Y-130110455D01*
X112905713Y-130110455D02*
X112600951Y-130110455D01*
X112600951Y-130110455D02*
X112524761Y-130148550D01*
X112524761Y-130148550D02*
X112486666Y-130186645D01*
X112486666Y-130186645D02*
X112448570Y-130262836D01*
X112448570Y-130262836D02*
X112448570Y-130377121D01*
X112448570Y-130377121D02*
X112486666Y-130453312D01*
X112486666Y-130453312D02*
X112524761Y-130491407D01*
X112524761Y-130491407D02*
X112600951Y-130529502D01*
X112600951Y-130529502D02*
X112905713Y-130529502D01*
X111762856Y-130377121D02*
X111762856Y-130910455D01*
X111953332Y-130072360D02*
X112143809Y-130643788D01*
X112143809Y-130643788D02*
X111648570Y-130643788D01*
X110687664Y-124315714D02*
X110725760Y-124277618D01*
X110725760Y-124277618D02*
X110763855Y-124163333D01*
X110763855Y-124163333D02*
X110763855Y-124087142D01*
X110763855Y-124087142D02*
X110725760Y-123972856D01*
X110725760Y-123972856D02*
X110649569Y-123896666D01*
X110649569Y-123896666D02*
X110573379Y-123858571D01*
X110573379Y-123858571D02*
X110420998Y-123820475D01*
X110420998Y-123820475D02*
X110306712Y-123820475D01*
X110306712Y-123820475D02*
X110154331Y-123858571D01*
X110154331Y-123858571D02*
X110078140Y-123896666D01*
X110078140Y-123896666D02*
X110001950Y-123972856D01*
X110001950Y-123972856D02*
X109963855Y-124087142D01*
X109963855Y-124087142D02*
X109963855Y-124163333D01*
X109963855Y-124163333D02*
X110001950Y-124277618D01*
X110001950Y-124277618D02*
X110040045Y-124315714D01*
X110040045Y-124620475D02*
X110001950Y-124658571D01*
X110001950Y-124658571D02*
X109963855Y-124734761D01*
X109963855Y-124734761D02*
X109963855Y-124925237D01*
X109963855Y-124925237D02*
X110001950Y-125001428D01*
X110001950Y-125001428D02*
X110040045Y-125039523D01*
X110040045Y-125039523D02*
X110116236Y-125077618D01*
X110116236Y-125077618D02*
X110192426Y-125077618D01*
X110192426Y-125077618D02*
X110306712Y-125039523D01*
X110306712Y-125039523D02*
X110763855Y-124582380D01*
X110763855Y-124582380D02*
X110763855Y-125077618D01*
X109963855Y-125344285D02*
X109963855Y-125877619D01*
X109963855Y-125877619D02*
X110763855Y-125534761D01*
X101782663Y-133066666D02*
X101820759Y-133028570D01*
X101820759Y-133028570D02*
X101858854Y-132914285D01*
X101858854Y-132914285D02*
X101858854Y-132838094D01*
X101858854Y-132838094D02*
X101820759Y-132723808D01*
X101820759Y-132723808D02*
X101744568Y-132647618D01*
X101744568Y-132647618D02*
X101668378Y-132609523D01*
X101668378Y-132609523D02*
X101515997Y-132571427D01*
X101515997Y-132571427D02*
X101401711Y-132571427D01*
X101401711Y-132571427D02*
X101249330Y-132609523D01*
X101249330Y-132609523D02*
X101173139Y-132647618D01*
X101173139Y-132647618D02*
X101096949Y-132723808D01*
X101096949Y-132723808D02*
X101058854Y-132838094D01*
X101058854Y-132838094D02*
X101058854Y-132914285D01*
X101058854Y-132914285D02*
X101096949Y-133028570D01*
X101096949Y-133028570D02*
X101135044Y-133066666D01*
X101858854Y-133828570D02*
X101858854Y-133371427D01*
X101858854Y-133599999D02*
X101058854Y-133599999D01*
X101058854Y-133599999D02*
X101173139Y-133523808D01*
X101173139Y-133523808D02*
X101249330Y-133447618D01*
X101249330Y-133447618D02*
X101287425Y-133371427D01*
X111556667Y-143835760D02*
X111442381Y-143873855D01*
X111442381Y-143873855D02*
X111251905Y-143873855D01*
X111251905Y-143873855D02*
X111175714Y-143835760D01*
X111175714Y-143835760D02*
X111137619Y-143797664D01*
X111137619Y-143797664D02*
X111099524Y-143721474D01*
X111099524Y-143721474D02*
X111099524Y-143645283D01*
X111099524Y-143645283D02*
X111137619Y-143569093D01*
X111137619Y-143569093D02*
X111175714Y-143530998D01*
X111175714Y-143530998D02*
X111251905Y-143492902D01*
X111251905Y-143492902D02*
X111404286Y-143454807D01*
X111404286Y-143454807D02*
X111480476Y-143416712D01*
X111480476Y-143416712D02*
X111518571Y-143378617D01*
X111518571Y-143378617D02*
X111556667Y-143302426D01*
X111556667Y-143302426D02*
X111556667Y-143226236D01*
X111556667Y-143226236D02*
X111518571Y-143150045D01*
X111518571Y-143150045D02*
X111480476Y-143111950D01*
X111480476Y-143111950D02*
X111404286Y-143073855D01*
X111404286Y-143073855D02*
X111213809Y-143073855D01*
X111213809Y-143073855D02*
X111099524Y-143111950D01*
X110832857Y-143073855D02*
X110642381Y-143873855D01*
X110642381Y-143873855D02*
X110490000Y-143302426D01*
X110490000Y-143302426D02*
X110337619Y-143873855D01*
X110337619Y-143873855D02*
X110147143Y-143073855D01*
X109423333Y-143873855D02*
X109880476Y-143873855D01*
X109651904Y-143873855D02*
X109651904Y-143073855D01*
X109651904Y-143073855D02*
X109728095Y-143188140D01*
X109728095Y-143188140D02*
X109804285Y-143264331D01*
X109804285Y-143264331D02*
X109880476Y-143302426D01*
X114176855Y-122490667D02*
X113795902Y-122224000D01*
X114176855Y-122033524D02*
X113376855Y-122033524D01*
X113376855Y-122033524D02*
X113376855Y-122338286D01*
X113376855Y-122338286D02*
X113414950Y-122414476D01*
X113414950Y-122414476D02*
X113453045Y-122452571D01*
X113453045Y-122452571D02*
X113529236Y-122490667D01*
X113529236Y-122490667D02*
X113643521Y-122490667D01*
X113643521Y-122490667D02*
X113719712Y-122452571D01*
X113719712Y-122452571D02*
X113757807Y-122414476D01*
X113757807Y-122414476D02*
X113795902Y-122338286D01*
X113795902Y-122338286D02*
X113795902Y-122033524D01*
X113453045Y-122795428D02*
X113414950Y-122833524D01*
X113414950Y-122833524D02*
X113376855Y-122909714D01*
X113376855Y-122909714D02*
X113376855Y-123100190D01*
X113376855Y-123100190D02*
X113414950Y-123176381D01*
X113414950Y-123176381D02*
X113453045Y-123214476D01*
X113453045Y-123214476D02*
X113529236Y-123252571D01*
X113529236Y-123252571D02*
X113605426Y-123252571D01*
X113605426Y-123252571D02*
X113719712Y-123214476D01*
X113719712Y-123214476D02*
X114176855Y-122757333D01*
X114176855Y-122757333D02*
X114176855Y-123252571D01*
%TO.C,TP5*%
X102200000Y-142592000D02*
G75*
G02*
X100800000Y-142592000I-700000J0D01*
G01*
X100800000Y-142592000D02*
G75*
G02*
X102200000Y-142592000I700000J0D01*
G01*
%TO.C,TP1*%
X102200000Y-111500000D02*
G75*
G02*
X100800000Y-111500000I-700000J0D01*
G01*
X100800000Y-111500000D02*
G75*
G02*
X102200000Y-111500000I700000J0D01*
G01*
%TO.C,TP6*%
X101900000Y-130500000D02*
G75*
G02*
X100500000Y-130500000I-700000J0D01*
G01*
X100500000Y-130500000D02*
G75*
G02*
X101900000Y-130500000I700000J0D01*
G01*
%TO.C,J3*%
X110730000Y-140150000D02*
X110730000Y-140785000D01*
X110730000Y-140785000D02*
X111365000Y-140785000D01*
%TO.C,TP7*%
X106500000Y-101150000D02*
G75*
G02*
X105100000Y-101150000I-700000J0D01*
G01*
X105100000Y-101150000D02*
G75*
G02*
X106500000Y-101150000I700000J0D01*
G01*
%TO.C,TP4*%
X113320000Y-127321600D02*
G75*
G02*
X111920000Y-127321600I-700000J0D01*
G01*
X111920000Y-127321600D02*
G75*
G02*
X113320000Y-127321600I700000J0D01*
G01*
%TO.C,SW1*%
D11*
X104450000Y-142270000D02*
X104450000Y-139930000D01*
X104830000Y-139440000D02*
X105720000Y-138550000D01*
X105200000Y-140100000D02*
X105200000Y-142100000D01*
X105200000Y-142100000D02*
X106000000Y-142900000D01*
X105720000Y-138550000D02*
X108280000Y-138550000D01*
X105720000Y-143650000D02*
X104830000Y-142760000D01*
X105720000Y-143650000D02*
X108280000Y-143650000D01*
X106000000Y-142900000D02*
X107900000Y-142900000D01*
X106100000Y-139200000D02*
X105200000Y-140100000D01*
X107800000Y-139200000D02*
X106100000Y-139200000D01*
X107900000Y-142900000D02*
X108800000Y-142000000D01*
X108280000Y-143650000D02*
X109170000Y-142760000D01*
X108800000Y-140200000D02*
X107800000Y-139200000D01*
X108800000Y-142000000D02*
X108800000Y-140200000D01*
X109170000Y-139440000D02*
X108280000Y-138550000D01*
X109550000Y-142270000D02*
X109550000Y-139930000D01*
D12*
X103780000Y-143650000D02*
G75*
G02*
X103720000Y-143650000I-30000J0D01*
G01*
X103720000Y-143650000D02*
G75*
G02*
X103780000Y-143650000I30000J0D01*
G01*
D11*
X108280000Y-141100000D02*
G75*
G02*
X105720000Y-141100000I-1280000J0D01*
G01*
X105720000Y-141100000D02*
G75*
G02*
X108280000Y-141100000I1280000J0D01*
G01*
%TD*%
M02*
