%TF.GenerationSoftware,KiCad,Pcbnew,10.0.4*%
%TF.CreationDate,2026-07-21T17:51:00-04:00*%
%TF.ProjectId,dongle-lite-1s4l,646f6e67-6c65-42d6-9c69-74652d317334,rev?*%
%TF.SameCoordinates,Original*%
%TF.FileFunction,Copper,L4,Bot*%
%TF.FilePolarity,Positive*%
%FSLAX46Y46*%
G04 Gerber Fmt 4.6, Leading zero omitted, Abs format (unit mm)*
G04 Created by KiCad (PCBNEW 10.0.4) date 2026-07-21 17:51:00*
%MOMM*%
%LPD*%
G01*
G04 APERTURE LIST*
%TA.AperFunction,ComponentPad*%
%ADD10O,1.200000X2.000000*%
%TD*%
%TA.AperFunction,ComponentPad*%
%ADD11O,1.200000X1.800000*%
%TD*%
%TA.AperFunction,ViaPad*%
%ADD12C,0.450000*%
%TD*%
%TA.AperFunction,Conductor*%
%ADD13C,0.120000*%
%TD*%
G04 APERTURE END LIST*
D10*
%TO.P,J1,1,EH_1*%
%TO.N,GND*%
X102670000Y-105825000D03*
D11*
%TO.P,J1,2,EH_2*%
X102670000Y-101645000D03*
%TO.P,J1,3,EH_3*%
X111330000Y-101645000D03*
D10*
%TO.P,J1,4,EH_4*%
X111330000Y-105825000D03*
%TD*%
%TO.P,J2,1,EH_1*%
%TO.N,GND*%
X111330000Y-169175000D03*
D11*
%TO.P,J2,2,EH_2*%
X111330000Y-173355000D03*
%TO.P,J2,3,EH_3*%
X102670000Y-173355000D03*
D10*
%TO.P,J2,4,EH_4*%
X102670000Y-169175000D03*
%TD*%
D12*
%TO.N,RUN*%
X116058100Y-155132100D03*
X107968800Y-141534700D03*
X99515000Y-135478900D03*
%TO.N,+3V3*%
X103330300Y-152638000D03*
X101538600Y-126805200D03*
X106030900Y-151621100D03*
X105789100Y-127257600D03*
%TO.N,+5V*%
X104112100Y-121963800D03*
X103929300Y-153610400D03*
X108579300Y-120971900D03*
X101593600Y-153014700D03*
X101450000Y-121963800D03*
%TO.N,HOST_D_P*%
X111036000Y-118862000D03*
X105873000Y-118862000D03*
%TO.N,GND*%
X115435600Y-159148100D03*
X107711100Y-140756500D03*
X111716300Y-143936500D03*
X101229400Y-159148100D03*
X109435600Y-159148100D03*
X110337300Y-144965100D03*
%TO.N,HOST_D_N*%
X107948700Y-117016500D03*
X113228000Y-117016500D03*
%TO.N,HUB_RSTB*%
X109485800Y-120242100D03*
X112443100Y-129070400D03*
%TO.N,HUB_3V3*%
X109735500Y-125873900D03*
X112876300Y-127882300D03*
%TO.N,Net-(U1-XOUT)*%
X110334400Y-149175700D03*
X106368800Y-143076500D03*
X106067100Y-148261600D03*
%TO.N,SHIFT_EN*%
X109593600Y-139528700D03*
X109527400Y-127526500D03*
X104014000Y-125183400D03*
%TO.N,+1V2*%
X102300000Y-131766500D03*
X102664400Y-151102800D03*
%TO.N,TGT_VBUS_EN*%
X110348800Y-142245400D03*
X102680400Y-142243800D03*
X102095200Y-153615700D03*
%TO.N,FUSB_INT*%
X97065000Y-133086900D03*
X111852200Y-135834300D03*
X109168800Y-138517700D03*
%TO.N,Net-(U1-VREG_AVDD)*%
X109504300Y-134298100D03*
X104510100Y-127216200D03*
%TO.N,+1V1*%
X109971700Y-131637000D03*
X100901800Y-142620500D03*
X105883600Y-131637000D03*
X106878000Y-141226500D03*
X109462200Y-135925900D03*
X114450000Y-131637000D03*
%TO.N,SWDIO*%
X108691400Y-150358800D03*
X113919200Y-153273400D03*
%TO.N,SWCLK*%
X113470500Y-151201300D03*
X108339100Y-148413700D03*
%TO.N,I2C_SDA*%
X108679300Y-136786100D03*
X111971700Y-133747700D03*
%TO.N,I2C_SCL*%
X109180100Y-144022800D03*
X112350100Y-132030300D03*
%TO.N,SBU1_DIR*%
X110938000Y-143554800D03*
X104031600Y-148991900D03*
%TO.N,SBU2_DIR*%
X107199900Y-149359200D03*
X109556000Y-140728700D03*
%TO.N,SBU1_UART*%
X105563900Y-141329200D03*
X111116800Y-140266800D03*
X104645100Y-151147300D03*
%TO.N,SBU2_UART*%
X107849900Y-151259800D03*
X111118800Y-139713200D03*
%TO.N,VREG_LX*%
X108768800Y-133800500D03*
X107354400Y-132690900D03*
%TO.N,MCU_D_N*%
X114286000Y-122112000D03*
X108035800Y-124824100D03*
X107978500Y-135918500D03*
%TO.N,MCU_D_P*%
X113667900Y-121612200D03*
X107145400Y-134403200D03*
X107103900Y-124620400D03*
%TO.N,HUB_XI*%
X108863300Y-119377900D03*
X109452100Y-126359700D03*
%TO.N,HUB_XO*%
X112095900Y-116618100D03*
X106267400Y-122759400D03*
X110970000Y-125499400D03*
%TO.N,TGT_D_N*%
X113665800Y-123130300D03*
X107341300Y-157775100D03*
X107659100Y-125497400D03*
X107205100Y-162084300D03*
%TO.N,TGT_D_P*%
X112550000Y-157074400D03*
X105627300Y-159811000D03*
X113665500Y-122538600D03*
X110224900Y-158732700D03*
%TO.N,TGT_SBU2*%
X105235000Y-167428500D03*
X106017900Y-150567500D03*
%TO.N,TGT_CC1*%
X104852800Y-158357500D03*
X109053400Y-156439800D03*
%TO.N,Net-(SW1-A)*%
X108765000Y-163968100D03*
X114615300Y-163968100D03*
X104491200Y-132773200D03*
%TD*%
%TO.N,GND*%
D13*
X110951200Y-143016200D02*
X110146900Y-143016200D01*
X107887200Y-140756500D02*
X107711100Y-140756500D01*
X111716300Y-143936500D02*
X111716300Y-143781300D01*
X110146900Y-143016200D02*
X107887200Y-140756500D01*
X111716300Y-143781300D02*
X110951200Y-143016200D01*
%TO.N,+1V1*%
X106878000Y-141226500D02*
X105484000Y-142620500D01*
X105484000Y-142620500D02*
X100901800Y-142620500D01*
%TO.N,HUB_XO*%
X110970000Y-125499400D02*
X108230000Y-122759400D01*
X108230000Y-122759400D02*
X106267400Y-122759400D01*
%TO.N,TGT_D_P*%
X106705600Y-158732700D02*
X105627300Y-159811000D01*
X110224900Y-158732700D02*
X106705600Y-158732700D01*
%TD*%
%TA.AperFunction,Conductor*%
%TO.N,GND*%
G36*
X117642539Y-99320185D02*
G01*
X117688294Y-99372989D01*
X117699500Y-99424500D01*
X117699500Y-175575500D01*
X117679815Y-175642539D01*
X117627011Y-175688294D01*
X117575500Y-175699500D01*
X96424500Y-175699500D01*
X96357461Y-175679815D01*
X96311706Y-175627011D01*
X96300500Y-175575500D01*
X96300500Y-169605817D01*
X103574500Y-169605817D01*
X103574500Y-169744182D01*
X103610312Y-169877835D01*
X103610313Y-169877838D01*
X103679492Y-169997661D01*
X103679494Y-169997664D01*
X103679495Y-169997665D01*
X103777335Y-170095505D01*
X103897164Y-170164688D01*
X104030817Y-170200500D01*
X104030819Y-170200500D01*
X104169181Y-170200500D01*
X104169183Y-170200500D01*
X104302836Y-170164688D01*
X104422665Y-170095505D01*
X104520505Y-169997665D01*
X104589688Y-169877836D01*
X104625500Y-169744183D01*
X104625500Y-169605817D01*
X109374500Y-169605817D01*
X109374500Y-169744182D01*
X109410312Y-169877835D01*
X109410313Y-169877838D01*
X109479492Y-169997661D01*
X109479494Y-169997664D01*
X109479495Y-169997665D01*
X109577335Y-170095505D01*
X109697164Y-170164688D01*
X109830817Y-170200500D01*
X109830819Y-170200500D01*
X109969181Y-170200500D01*
X109969183Y-170200500D01*
X110102836Y-170164688D01*
X110222665Y-170095505D01*
X110320505Y-169997665D01*
X110389688Y-169877836D01*
X110425500Y-169744183D01*
X110425500Y-169605817D01*
X110389688Y-169472164D01*
X110320505Y-169352335D01*
X110222665Y-169254495D01*
X110222664Y-169254494D01*
X110222661Y-169254492D01*
X110102838Y-169185313D01*
X110102837Y-169185312D01*
X110102836Y-169185312D01*
X109969183Y-169149500D01*
X109830817Y-169149500D01*
X109697164Y-169185312D01*
X109697161Y-169185313D01*
X109577338Y-169254492D01*
X109577333Y-169254496D01*
X109479496Y-169352333D01*
X109479492Y-169352338D01*
X109410313Y-169472161D01*
X109410312Y-169472164D01*
X109374500Y-169605817D01*
X104625500Y-169605817D01*
X104589688Y-169472164D01*
X104520505Y-169352335D01*
X104422665Y-169254495D01*
X104422664Y-169254494D01*
X104422661Y-169254492D01*
X104302838Y-169185313D01*
X104302837Y-169185312D01*
X104302836Y-169185312D01*
X104169183Y-169149500D01*
X104030817Y-169149500D01*
X103897164Y-169185312D01*
X103897161Y-169185313D01*
X103777338Y-169254492D01*
X103777333Y-169254496D01*
X103679496Y-169352333D01*
X103679492Y-169352338D01*
X103610313Y-169472161D01*
X103610312Y-169472164D01*
X103574500Y-169605817D01*
X96300500Y-169605817D01*
X96300500Y-167386964D01*
X104919500Y-167386964D01*
X104919500Y-167470036D01*
X104939238Y-167543701D01*
X104941002Y-167550282D01*
X104941003Y-167550283D01*
X104980676Y-167618996D01*
X104982538Y-167622221D01*
X105041279Y-167680962D01*
X105077250Y-167701730D01*
X105113216Y-167722496D01*
X105113217Y-167722497D01*
X105113219Y-167722497D01*
X105113222Y-167722499D01*
X105193464Y-167744000D01*
X105193467Y-167744000D01*
X105276533Y-167744000D01*
X105276536Y-167744000D01*
X105356778Y-167722499D01*
X105356780Y-167722497D01*
X105356782Y-167722497D01*
X105356783Y-167722496D01*
X105428721Y-167680962D01*
X105487462Y-167622221D01*
X105528999Y-167550278D01*
X105550500Y-167470036D01*
X105550500Y-167386964D01*
X105528999Y-167306722D01*
X105528997Y-167306719D01*
X105528997Y-167306717D01*
X105528996Y-167306716D01*
X105487465Y-167234785D01*
X105487462Y-167234779D01*
X105428721Y-167176038D01*
X105425496Y-167174176D01*
X105356783Y-167134503D01*
X105356782Y-167134502D01*
X105350201Y-167132738D01*
X105276536Y-167113000D01*
X105193464Y-167113000D01*
X105137058Y-167128113D01*
X105113217Y-167134502D01*
X105113216Y-167134503D01*
X105041285Y-167176034D01*
X105041276Y-167176040D01*
X104982540Y-167234776D01*
X104982534Y-167234785D01*
X104941003Y-167306716D01*
X104941002Y-167306717D01*
X104941001Y-167306722D01*
X104919500Y-167386964D01*
X96300500Y-167386964D01*
X96300500Y-163926564D01*
X108449500Y-163926564D01*
X108449500Y-164009636D01*
X108469238Y-164083301D01*
X108471002Y-164089882D01*
X108471003Y-164089883D01*
X108510676Y-164158596D01*
X108512538Y-164161821D01*
X108571279Y-164220562D01*
X108607250Y-164241330D01*
X108643216Y-164262096D01*
X108643217Y-164262097D01*
X108643219Y-164262097D01*
X108643222Y-164262099D01*
X108723464Y-164283600D01*
X108723467Y-164283600D01*
X108806533Y-164283600D01*
X108806536Y-164283600D01*
X108886778Y-164262099D01*
X108886780Y-164262097D01*
X108886782Y-164262097D01*
X108886783Y-164262096D01*
X108958721Y-164220562D01*
X109017462Y-164161821D01*
X109058999Y-164089878D01*
X109080500Y-164009636D01*
X109080500Y-163926564D01*
X114299800Y-163926564D01*
X114299800Y-164009636D01*
X114319538Y-164083301D01*
X114321302Y-164089882D01*
X114321303Y-164089883D01*
X114360976Y-164158596D01*
X114362838Y-164161821D01*
X114421579Y-164220562D01*
X114457550Y-164241330D01*
X114493516Y-164262096D01*
X114493517Y-164262097D01*
X114493519Y-164262097D01*
X114493522Y-164262099D01*
X114573764Y-164283600D01*
X114573767Y-164283600D01*
X114656833Y-164283600D01*
X114656836Y-164283600D01*
X114737078Y-164262099D01*
X114737080Y-164262097D01*
X114737082Y-164262097D01*
X114737083Y-164262096D01*
X114809021Y-164220562D01*
X114867762Y-164161821D01*
X114909299Y-164089878D01*
X114930800Y-164009636D01*
X114930800Y-163926564D01*
X114909299Y-163846322D01*
X114909297Y-163846319D01*
X114909297Y-163846317D01*
X114909296Y-163846316D01*
X114867765Y-163774385D01*
X114867762Y-163774379D01*
X114809021Y-163715638D01*
X114805796Y-163713776D01*
X114737083Y-163674103D01*
X114737082Y-163674102D01*
X114730501Y-163672338D01*
X114656836Y-163652600D01*
X114573764Y-163652600D01*
X114517358Y-163667713D01*
X114493517Y-163674102D01*
X114493516Y-163674103D01*
X114421585Y-163715634D01*
X114421576Y-163715640D01*
X114362840Y-163774376D01*
X114362834Y-163774385D01*
X114321303Y-163846316D01*
X114321302Y-163846317D01*
X114321301Y-163846322D01*
X114299800Y-163926564D01*
X109080500Y-163926564D01*
X109058999Y-163846322D01*
X109058997Y-163846319D01*
X109058997Y-163846317D01*
X109058996Y-163846316D01*
X109017465Y-163774385D01*
X109017462Y-163774379D01*
X108958721Y-163715638D01*
X108955496Y-163713776D01*
X108886783Y-163674103D01*
X108886782Y-163674102D01*
X108880201Y-163672338D01*
X108806536Y-163652600D01*
X108723464Y-163652600D01*
X108667058Y-163667713D01*
X108643217Y-163674102D01*
X108643216Y-163674103D01*
X108571285Y-163715634D01*
X108571276Y-163715640D01*
X108512540Y-163774376D01*
X108512534Y-163774385D01*
X108471003Y-163846316D01*
X108471002Y-163846317D01*
X108471001Y-163846322D01*
X108449500Y-163926564D01*
X96300500Y-163926564D01*
X96300500Y-162042764D01*
X106889600Y-162042764D01*
X106889600Y-162125836D01*
X106909338Y-162199501D01*
X106911102Y-162206082D01*
X106911103Y-162206083D01*
X106950776Y-162274796D01*
X106952638Y-162278021D01*
X107011379Y-162336762D01*
X107047350Y-162357530D01*
X107083316Y-162378296D01*
X107083317Y-162378297D01*
X107083319Y-162378297D01*
X107083322Y-162378299D01*
X107163564Y-162399800D01*
X107163567Y-162399800D01*
X107246633Y-162399800D01*
X107246636Y-162399800D01*
X107326878Y-162378299D01*
X107326880Y-162378297D01*
X107326882Y-162378297D01*
X107326883Y-162378296D01*
X107398821Y-162336762D01*
X107457562Y-162278021D01*
X107499099Y-162206078D01*
X107520600Y-162125836D01*
X107520600Y-162042764D01*
X107499099Y-161962522D01*
X107499097Y-161962519D01*
X107499097Y-161962517D01*
X107499096Y-161962516D01*
X107457565Y-161890585D01*
X107457562Y-161890579D01*
X107398821Y-161831838D01*
X107395596Y-161829976D01*
X107326883Y-161790303D01*
X107326882Y-161790302D01*
X107320301Y-161788538D01*
X107246636Y-161768800D01*
X107163564Y-161768800D01*
X107107158Y-161783913D01*
X107083317Y-161790302D01*
X107083316Y-161790303D01*
X107011385Y-161831834D01*
X107011376Y-161831840D01*
X106952640Y-161890576D01*
X106952634Y-161890585D01*
X106911103Y-161962516D01*
X106911102Y-161962517D01*
X106911101Y-161962522D01*
X106889600Y-162042764D01*
X96300500Y-162042764D01*
X96300500Y-159769464D01*
X105311800Y-159769464D01*
X105311800Y-159852536D01*
X105331538Y-159926201D01*
X105333302Y-159932782D01*
X105333303Y-159932783D01*
X105372976Y-160001496D01*
X105374838Y-160004721D01*
X105433579Y-160063462D01*
X105469550Y-160084230D01*
X105505516Y-160104996D01*
X105505517Y-160104997D01*
X105505519Y-160104997D01*
X105505522Y-160104999D01*
X105585764Y-160126500D01*
X105585767Y-160126500D01*
X105668833Y-160126500D01*
X105668836Y-160126500D01*
X105749078Y-160104999D01*
X105749080Y-160104997D01*
X105749082Y-160104997D01*
X105749083Y-160104996D01*
X105821021Y-160063462D01*
X105879762Y-160004721D01*
X105921299Y-159932778D01*
X105942800Y-159852536D01*
X105942800Y-159769464D01*
X105942800Y-159761336D01*
X105945977Y-159761336D01*
X105954413Y-159707088D01*
X105978925Y-159672212D01*
X106731620Y-158919519D01*
X106792943Y-158886034D01*
X106819301Y-158883200D01*
X109878124Y-158883200D01*
X109945163Y-158902885D01*
X109965639Y-158921725D01*
X109966691Y-158920674D01*
X109972438Y-158926421D01*
X110031179Y-158985162D01*
X110067150Y-159005930D01*
X110103116Y-159026696D01*
X110103117Y-159026697D01*
X110103119Y-159026697D01*
X110103122Y-159026699D01*
X110183364Y-159048200D01*
X110183367Y-159048200D01*
X110266433Y-159048200D01*
X110266436Y-159048200D01*
X110346678Y-159026699D01*
X110346680Y-159026697D01*
X110346682Y-159026697D01*
X110346683Y-159026696D01*
X110418621Y-158985162D01*
X110477362Y-158926421D01*
X110518899Y-158854478D01*
X110540400Y-158774236D01*
X110540400Y-158691164D01*
X110518899Y-158610922D01*
X110518897Y-158610919D01*
X110518897Y-158610917D01*
X110518896Y-158610916D01*
X110477365Y-158538985D01*
X110477362Y-158538979D01*
X110418621Y-158480238D01*
X110415396Y-158478376D01*
X110346683Y-158438703D01*
X110346682Y-158438702D01*
X110340101Y-158436938D01*
X110266436Y-158417200D01*
X110183364Y-158417200D01*
X110126958Y-158432313D01*
X110103117Y-158438702D01*
X110103116Y-158438703D01*
X110031185Y-158480234D01*
X110031176Y-158480240D01*
X109966691Y-158544726D01*
X109964447Y-158542482D01*
X109920089Y-158574883D01*
X109878124Y-158582200D01*
X106675663Y-158582200D01*
X106636550Y-158598402D01*
X106636548Y-158598402D01*
X106620350Y-158605110D01*
X106620348Y-158605112D01*
X105766088Y-159459371D01*
X105704765Y-159492856D01*
X105676963Y-159494015D01*
X105676963Y-159495500D01*
X105668836Y-159495500D01*
X105585764Y-159495500D01*
X105537558Y-159508417D01*
X105505517Y-159517002D01*
X105505516Y-159517003D01*
X105433585Y-159558534D01*
X105433576Y-159558540D01*
X105374840Y-159617276D01*
X105374834Y-159617285D01*
X105333303Y-159689216D01*
X105333302Y-159689217D01*
X105333301Y-159689222D01*
X105311800Y-159769464D01*
X96300500Y-159769464D01*
X96300500Y-158315964D01*
X104537300Y-158315964D01*
X104537300Y-158399036D01*
X104547929Y-158438702D01*
X104558802Y-158479282D01*
X104558803Y-158479283D01*
X104559356Y-158480240D01*
X104600338Y-158551221D01*
X104659079Y-158609962D01*
X104695050Y-158630730D01*
X104731016Y-158651496D01*
X104731017Y-158651497D01*
X104731019Y-158651497D01*
X104731022Y-158651499D01*
X104811264Y-158673000D01*
X104811267Y-158673000D01*
X104894333Y-158673000D01*
X104894336Y-158673000D01*
X104974578Y-158651499D01*
X104974580Y-158651497D01*
X104974582Y-158651497D01*
X104974583Y-158651496D01*
X105046521Y-158609962D01*
X105105262Y-158551221D01*
X105146799Y-158479278D01*
X105168300Y-158399036D01*
X105168300Y-158315964D01*
X105146799Y-158235722D01*
X105146797Y-158235719D01*
X105146797Y-158235717D01*
X105146796Y-158235716D01*
X105105265Y-158163785D01*
X105105262Y-158163779D01*
X105046521Y-158105038D01*
X105043296Y-158103176D01*
X104974583Y-158063503D01*
X104974582Y-158063502D01*
X104968001Y-158061738D01*
X104894336Y-158042000D01*
X104811264Y-158042000D01*
X104754858Y-158057113D01*
X104731017Y-158063502D01*
X104731016Y-158063503D01*
X104659085Y-158105034D01*
X104659076Y-158105040D01*
X104600340Y-158163776D01*
X104600334Y-158163785D01*
X104558803Y-158235716D01*
X104558802Y-158235717D01*
X104558801Y-158235722D01*
X104537300Y-158315964D01*
X96300500Y-158315964D01*
X96300500Y-157733564D01*
X107025800Y-157733564D01*
X107025800Y-157816636D01*
X107045538Y-157890301D01*
X107047302Y-157896882D01*
X107047303Y-157896883D01*
X107086976Y-157965596D01*
X107088838Y-157968821D01*
X107147579Y-158027562D01*
X107172586Y-158042000D01*
X107219516Y-158069096D01*
X107219517Y-158069097D01*
X107219519Y-158069097D01*
X107219522Y-158069099D01*
X107299764Y-158090600D01*
X107299767Y-158090600D01*
X107382833Y-158090600D01*
X107382836Y-158090600D01*
X107463078Y-158069099D01*
X107463080Y-158069097D01*
X107463082Y-158069097D01*
X107463083Y-158069096D01*
X107472772Y-158063502D01*
X107535021Y-158027562D01*
X107593762Y-157968821D01*
X107635299Y-157896878D01*
X107656800Y-157816636D01*
X107656800Y-157733564D01*
X107635299Y-157653322D01*
X107635297Y-157653319D01*
X107635297Y-157653317D01*
X107635296Y-157653316D01*
X107593765Y-157581385D01*
X107593762Y-157581379D01*
X107535021Y-157522638D01*
X107531796Y-157520776D01*
X107463083Y-157481103D01*
X107463082Y-157481102D01*
X107456501Y-157479338D01*
X107382836Y-157459600D01*
X107299764Y-157459600D01*
X107243358Y-157474713D01*
X107219517Y-157481102D01*
X107219516Y-157481103D01*
X107147585Y-157522634D01*
X107147576Y-157522640D01*
X107088840Y-157581376D01*
X107088834Y-157581385D01*
X107047303Y-157653316D01*
X107047302Y-157653317D01*
X107047301Y-157653322D01*
X107025800Y-157733564D01*
X96300500Y-157733564D01*
X96300500Y-157032864D01*
X112234500Y-157032864D01*
X112234500Y-157115936D01*
X112254238Y-157189601D01*
X112256002Y-157196182D01*
X112256003Y-157196183D01*
X112295676Y-157264896D01*
X112297538Y-157268121D01*
X112356279Y-157326862D01*
X112392250Y-157347630D01*
X112428216Y-157368396D01*
X112428217Y-157368397D01*
X112428219Y-157368397D01*
X112428222Y-157368399D01*
X112508464Y-157389900D01*
X112508467Y-157389900D01*
X112591533Y-157389900D01*
X112591536Y-157389900D01*
X112671778Y-157368399D01*
X112671780Y-157368397D01*
X112671782Y-157368397D01*
X112671783Y-157368396D01*
X112743721Y-157326862D01*
X112802462Y-157268121D01*
X112843999Y-157196178D01*
X112865500Y-157115936D01*
X112865500Y-157032864D01*
X112843999Y-156952622D01*
X112843997Y-156952619D01*
X112843997Y-156952617D01*
X112843996Y-156952616D01*
X112802465Y-156880685D01*
X112802462Y-156880679D01*
X112743721Y-156821938D01*
X112740496Y-156820076D01*
X112671783Y-156780403D01*
X112671782Y-156780402D01*
X112665201Y-156778638D01*
X112591536Y-156758900D01*
X112508464Y-156758900D01*
X112452058Y-156774013D01*
X112428217Y-156780402D01*
X112428216Y-156780403D01*
X112356285Y-156821934D01*
X112356276Y-156821940D01*
X112297540Y-156880676D01*
X112297534Y-156880685D01*
X112256003Y-156952616D01*
X112256002Y-156952617D01*
X112256001Y-156952622D01*
X112234500Y-157032864D01*
X96300500Y-157032864D01*
X96300500Y-156398264D01*
X108737900Y-156398264D01*
X108737900Y-156481336D01*
X108757638Y-156555001D01*
X108759402Y-156561582D01*
X108759403Y-156561583D01*
X108799076Y-156630296D01*
X108800938Y-156633521D01*
X108859679Y-156692262D01*
X108895650Y-156713030D01*
X108931616Y-156733796D01*
X108931617Y-156733797D01*
X108931619Y-156733797D01*
X108931622Y-156733799D01*
X109011864Y-156755300D01*
X109011867Y-156755300D01*
X109094933Y-156755300D01*
X109094936Y-156755300D01*
X109175178Y-156733799D01*
X109175180Y-156733797D01*
X109175182Y-156733797D01*
X109175183Y-156733796D01*
X109247121Y-156692262D01*
X109305862Y-156633521D01*
X109347399Y-156561578D01*
X109368900Y-156481336D01*
X109368900Y-156398264D01*
X109347399Y-156318022D01*
X109347397Y-156318019D01*
X109347397Y-156318017D01*
X109347396Y-156318016D01*
X109305865Y-156246085D01*
X109305862Y-156246079D01*
X109247121Y-156187338D01*
X109243896Y-156185476D01*
X109175183Y-156145803D01*
X109175182Y-156145802D01*
X109168601Y-156144038D01*
X109094936Y-156124300D01*
X109011864Y-156124300D01*
X108955458Y-156139413D01*
X108931617Y-156145802D01*
X108931616Y-156145803D01*
X108859685Y-156187334D01*
X108859676Y-156187340D01*
X108800940Y-156246076D01*
X108800934Y-156246085D01*
X108759403Y-156318016D01*
X108759402Y-156318017D01*
X108759401Y-156318022D01*
X108737900Y-156398264D01*
X96300500Y-156398264D01*
X96300500Y-155028289D01*
X114388200Y-155028289D01*
X114388200Y-155155510D01*
X114413015Y-155280265D01*
X114413018Y-155280275D01*
X114461697Y-155397798D01*
X114461702Y-155397807D01*
X114532373Y-155503573D01*
X114532376Y-155503577D01*
X114622322Y-155593523D01*
X114622326Y-155593526D01*
X114728092Y-155664197D01*
X114728098Y-155664200D01*
X114728099Y-155664201D01*
X114845627Y-155712883D01*
X114970389Y-155737699D01*
X114970393Y-155737700D01*
X114970394Y-155737700D01*
X115097607Y-155737700D01*
X115097608Y-155737699D01*
X115222373Y-155712883D01*
X115339901Y-155664201D01*
X115445674Y-155593526D01*
X115535626Y-155503574D01*
X115606301Y-155397801D01*
X115614750Y-155377402D01*
X115658590Y-155323001D01*
X115724884Y-155300935D01*
X115792583Y-155318214D01*
X115816992Y-155337175D01*
X115864379Y-155384562D01*
X115887313Y-155397803D01*
X115936316Y-155426096D01*
X115936317Y-155426097D01*
X115936319Y-155426097D01*
X115936322Y-155426099D01*
X116016564Y-155447600D01*
X116016567Y-155447600D01*
X116099633Y-155447600D01*
X116099636Y-155447600D01*
X116179878Y-155426099D01*
X116179880Y-155426097D01*
X116179882Y-155426097D01*
X116179883Y-155426096D01*
X116251821Y-155384562D01*
X116310562Y-155325821D01*
X116352099Y-155253878D01*
X116373600Y-155173636D01*
X116373600Y-155090564D01*
X116352099Y-155010322D01*
X116352097Y-155010319D01*
X116352097Y-155010317D01*
X116352096Y-155010316D01*
X116310565Y-154938385D01*
X116310562Y-154938379D01*
X116251821Y-154879638D01*
X116248596Y-154877776D01*
X116179883Y-154838103D01*
X116179882Y-154838102D01*
X116173301Y-154836338D01*
X116099636Y-154816600D01*
X116016564Y-154816600D01*
X115960158Y-154831713D01*
X115936317Y-154838102D01*
X115936316Y-154838103D01*
X115864385Y-154879634D01*
X115864379Y-154879638D01*
X115840539Y-154903478D01*
X115779215Y-154936962D01*
X115709523Y-154931976D01*
X115653591Y-154890104D01*
X115638298Y-154863247D01*
X115606304Y-154786004D01*
X115606297Y-154785992D01*
X115535626Y-154680226D01*
X115535623Y-154680222D01*
X115445677Y-154590276D01*
X115445673Y-154590273D01*
X115339907Y-154519602D01*
X115339898Y-154519597D01*
X115222375Y-154470918D01*
X115222376Y-154470918D01*
X115222373Y-154470917D01*
X115222369Y-154470916D01*
X115222365Y-154470915D01*
X115097610Y-154446100D01*
X115097606Y-154446100D01*
X114970394Y-154446100D01*
X114970389Y-154446100D01*
X114845634Y-154470915D01*
X114845624Y-154470918D01*
X114728101Y-154519597D01*
X114728092Y-154519602D01*
X114622326Y-154590273D01*
X114622322Y-154590276D01*
X114532376Y-154680222D01*
X114532373Y-154680226D01*
X114461702Y-154785992D01*
X114461697Y-154786001D01*
X114413018Y-154903524D01*
X114413015Y-154903534D01*
X114388200Y-155028289D01*
X96300500Y-155028289D01*
X96300500Y-152973164D01*
X101278100Y-152973164D01*
X101278100Y-153056236D01*
X101297838Y-153129901D01*
X101299602Y-153136482D01*
X101299603Y-153136483D01*
X101336598Y-153200558D01*
X101341138Y-153208421D01*
X101399879Y-153267162D01*
X101435850Y-153287930D01*
X101471816Y-153308696D01*
X101471817Y-153308697D01*
X101471819Y-153308697D01*
X101471822Y-153308699D01*
X101552064Y-153330200D01*
X101552067Y-153330200D01*
X101635132Y-153330200D01*
X101635136Y-153330200D01*
X101655336Y-153324787D01*
X101725181Y-153326448D01*
X101783045Y-153365608D01*
X101810552Y-153429836D01*
X101802829Y-153485944D01*
X101803305Y-153486072D01*
X101802292Y-153489851D01*
X101801997Y-153491997D01*
X101801204Y-153493910D01*
X101801201Y-153493922D01*
X101779700Y-153574164D01*
X101779700Y-153657236D01*
X101799438Y-153730901D01*
X101801202Y-153737482D01*
X101801203Y-153737483D01*
X101839674Y-153804114D01*
X101842738Y-153809421D01*
X101901479Y-153868162D01*
X101937450Y-153888930D01*
X101973416Y-153909696D01*
X101973417Y-153909697D01*
X101973419Y-153909697D01*
X101973422Y-153909699D01*
X102053664Y-153931200D01*
X102053667Y-153931200D01*
X102136733Y-153931200D01*
X102136736Y-153931200D01*
X102216978Y-153909699D01*
X102216980Y-153909697D01*
X102216982Y-153909697D01*
X102216983Y-153909696D01*
X102288921Y-153868162D01*
X102347662Y-153809421D01*
X102389199Y-153737478D01*
X102410700Y-153657236D01*
X102410700Y-153574164D01*
X102409280Y-153568864D01*
X103613800Y-153568864D01*
X103613800Y-153651936D01*
X103633538Y-153725601D01*
X103635302Y-153732182D01*
X103635303Y-153732183D01*
X103674976Y-153800896D01*
X103676838Y-153804121D01*
X103735579Y-153862862D01*
X103771550Y-153883630D01*
X103807516Y-153904396D01*
X103807517Y-153904397D01*
X103807519Y-153904397D01*
X103807522Y-153904399D01*
X103887764Y-153925900D01*
X103887767Y-153925900D01*
X103970833Y-153925900D01*
X103970836Y-153925900D01*
X104051078Y-153904399D01*
X104051080Y-153904397D01*
X104051082Y-153904397D01*
X104051083Y-153904396D01*
X104123021Y-153862862D01*
X104181762Y-153804121D01*
X104223299Y-153732178D01*
X104244800Y-153651936D01*
X104244800Y-153568864D01*
X104223299Y-153488622D01*
X104223297Y-153488619D01*
X104223297Y-153488617D01*
X104223296Y-153488616D01*
X104181765Y-153416685D01*
X104181762Y-153416679D01*
X104123021Y-153357938D01*
X104076577Y-153331123D01*
X104076575Y-153331121D01*
X104051083Y-153316403D01*
X104051082Y-153316402D01*
X104044501Y-153314638D01*
X103970836Y-153294900D01*
X103887764Y-153294900D01*
X103836266Y-153308699D01*
X103807517Y-153316402D01*
X103807516Y-153316403D01*
X103735585Y-153357934D01*
X103735576Y-153357940D01*
X103676840Y-153416676D01*
X103676834Y-153416685D01*
X103635303Y-153488616D01*
X103635302Y-153488617D01*
X103633884Y-153493910D01*
X103613800Y-153568864D01*
X102409280Y-153568864D01*
X102389199Y-153493922D01*
X102389197Y-153493919D01*
X102389197Y-153493917D01*
X102389196Y-153493916D01*
X102347665Y-153421985D01*
X102347662Y-153421979D01*
X102288921Y-153363238D01*
X102279734Y-153357934D01*
X102216983Y-153321703D01*
X102216982Y-153321702D01*
X102210401Y-153319938D01*
X102136736Y-153300200D01*
X102053664Y-153300200D01*
X102033463Y-153305613D01*
X101963613Y-153303950D01*
X101905751Y-153264787D01*
X101891653Y-153231864D01*
X113603700Y-153231864D01*
X113603700Y-153314936D01*
X113615223Y-153357940D01*
X113625202Y-153395182D01*
X113625203Y-153395183D01*
X113640678Y-153421985D01*
X113666738Y-153467121D01*
X113725479Y-153525862D01*
X113761450Y-153546630D01*
X113797416Y-153567396D01*
X113797417Y-153567397D01*
X113797419Y-153567397D01*
X113797422Y-153567399D01*
X113877664Y-153588900D01*
X113877667Y-153588900D01*
X113960733Y-153588900D01*
X113960736Y-153588900D01*
X114040978Y-153567399D01*
X114040980Y-153567397D01*
X114040982Y-153567397D01*
X114040983Y-153567396D01*
X114112921Y-153525862D01*
X114171662Y-153467121D01*
X114213199Y-153395178D01*
X114234700Y-153314936D01*
X114234700Y-153231864D01*
X114213199Y-153151622D01*
X114213197Y-153151619D01*
X114213197Y-153151617D01*
X114213196Y-153151616D01*
X114171665Y-153079685D01*
X114171662Y-153079679D01*
X114112921Y-153020938D01*
X114109696Y-153019076D01*
X114040983Y-152979403D01*
X114040982Y-152979402D01*
X114034401Y-152977638D01*
X113960736Y-152957900D01*
X113877664Y-152957900D01*
X113821258Y-152973013D01*
X113797417Y-152979402D01*
X113797416Y-152979403D01*
X113725485Y-153020934D01*
X113725476Y-153020940D01*
X113666740Y-153079676D01*
X113666734Y-153079685D01*
X113625203Y-153151616D01*
X113625202Y-153151617D01*
X113625201Y-153151622D01*
X113603700Y-153231864D01*
X101891653Y-153231864D01*
X101878247Y-153200558D01*
X101885972Y-153144455D01*
X101885495Y-153144328D01*
X101886513Y-153140527D01*
X101886808Y-153138388D01*
X101887597Y-153136482D01*
X101887597Y-153136480D01*
X101887599Y-153136478D01*
X101909100Y-153056236D01*
X101909100Y-152973164D01*
X101887599Y-152892922D01*
X101887597Y-152892919D01*
X101887597Y-152892917D01*
X101887596Y-152892916D01*
X101846065Y-152820985D01*
X101846062Y-152820979D01*
X101787321Y-152762238D01*
X101783060Y-152759778D01*
X101715383Y-152720703D01*
X101715382Y-152720702D01*
X101711132Y-152719563D01*
X101635136Y-152699200D01*
X101552064Y-152699200D01*
X101495658Y-152714313D01*
X101471817Y-152720702D01*
X101471816Y-152720703D01*
X101399885Y-152762234D01*
X101399876Y-152762240D01*
X101341140Y-152820976D01*
X101341134Y-152820985D01*
X101299603Y-152892916D01*
X101299602Y-152892917D01*
X101299601Y-152892922D01*
X101278100Y-152973164D01*
X96300500Y-152973164D01*
X96300500Y-152596464D01*
X103014800Y-152596464D01*
X103014800Y-152679536D01*
X103025831Y-152720702D01*
X103036302Y-152759782D01*
X103036303Y-152759783D01*
X103037722Y-152762240D01*
X103077838Y-152831721D01*
X103136579Y-152890462D01*
X103140840Y-152892922D01*
X103208516Y-152931996D01*
X103208517Y-152931997D01*
X103208519Y-152931997D01*
X103208522Y-152931999D01*
X103288764Y-152953500D01*
X103288767Y-152953500D01*
X103371833Y-152953500D01*
X103371836Y-152953500D01*
X103452078Y-152931999D01*
X103452080Y-152931997D01*
X103452082Y-152931997D01*
X103452083Y-152931996D01*
X103524021Y-152890462D01*
X103582762Y-152831721D01*
X103624299Y-152759778D01*
X103645800Y-152679536D01*
X103645800Y-152596464D01*
X103624299Y-152516222D01*
X103624297Y-152516219D01*
X103624297Y-152516217D01*
X103624296Y-152516216D01*
X103582765Y-152444285D01*
X103582762Y-152444279D01*
X103524021Y-152385538D01*
X103520796Y-152383676D01*
X103452083Y-152344003D01*
X103452082Y-152344002D01*
X103445501Y-152342238D01*
X103371836Y-152322500D01*
X103288764Y-152322500D01*
X103232358Y-152337613D01*
X103208517Y-152344002D01*
X103208516Y-152344003D01*
X103136585Y-152385534D01*
X103136576Y-152385540D01*
X103077840Y-152444276D01*
X103077834Y-152444285D01*
X103036303Y-152516216D01*
X103036302Y-152516217D01*
X103036301Y-152516222D01*
X103014800Y-152596464D01*
X96300500Y-152596464D01*
X96300500Y-151579564D01*
X105715400Y-151579564D01*
X105715400Y-151662636D01*
X105735138Y-151736301D01*
X105736902Y-151742882D01*
X105736903Y-151742883D01*
X105776576Y-151811596D01*
X105778438Y-151814821D01*
X105837179Y-151873562D01*
X105873150Y-151894330D01*
X105909116Y-151915096D01*
X105909117Y-151915097D01*
X105909119Y-151915097D01*
X105909122Y-151915099D01*
X105989364Y-151936600D01*
X105989367Y-151936600D01*
X106072433Y-151936600D01*
X106072436Y-151936600D01*
X106152678Y-151915099D01*
X106152680Y-151915097D01*
X106152682Y-151915097D01*
X106152683Y-151915096D01*
X106224621Y-151873562D01*
X106283362Y-151814821D01*
X106324899Y-151742878D01*
X106346400Y-151662636D01*
X106346400Y-151579564D01*
X106324899Y-151499322D01*
X106324897Y-151499319D01*
X106324897Y-151499317D01*
X106324896Y-151499316D01*
X106291399Y-151441299D01*
X106283362Y-151427379D01*
X106224621Y-151368638D01*
X106201459Y-151355265D01*
X106152683Y-151327103D01*
X106152682Y-151327102D01*
X106146101Y-151325338D01*
X106072436Y-151305600D01*
X105989364Y-151305600D01*
X105932958Y-151320713D01*
X105909117Y-151327102D01*
X105909116Y-151327103D01*
X105837185Y-151368634D01*
X105837176Y-151368640D01*
X105778440Y-151427376D01*
X105778434Y-151427385D01*
X105736903Y-151499316D01*
X105736902Y-151499317D01*
X105733434Y-151512262D01*
X105715400Y-151579564D01*
X96300500Y-151579564D01*
X96300500Y-151061264D01*
X102348900Y-151061264D01*
X102348900Y-151144336D01*
X102359456Y-151183730D01*
X102370402Y-151224582D01*
X102370403Y-151224583D01*
X102396096Y-151269082D01*
X102411938Y-151296521D01*
X102470679Y-151355262D01*
X102493840Y-151368634D01*
X102542616Y-151396796D01*
X102542617Y-151396797D01*
X102542619Y-151396797D01*
X102542622Y-151396799D01*
X102622864Y-151418300D01*
X102622867Y-151418300D01*
X102705933Y-151418300D01*
X102705936Y-151418300D01*
X102786178Y-151396799D01*
X102786180Y-151396797D01*
X102786182Y-151396797D01*
X102786183Y-151396796D01*
X102789254Y-151395023D01*
X102858121Y-151355262D01*
X102916862Y-151296521D01*
X102958399Y-151224578D01*
X102979900Y-151144336D01*
X102979900Y-151105764D01*
X104329600Y-151105764D01*
X104329600Y-151188836D01*
X104349338Y-151262501D01*
X104351102Y-151269082D01*
X104351103Y-151269083D01*
X104369725Y-151301336D01*
X104392638Y-151341021D01*
X104451379Y-151399762D01*
X104483487Y-151418300D01*
X104523316Y-151441296D01*
X104523317Y-151441297D01*
X104523319Y-151441297D01*
X104523322Y-151441299D01*
X104603564Y-151462800D01*
X104603567Y-151462800D01*
X104686633Y-151462800D01*
X104686636Y-151462800D01*
X104766878Y-151441299D01*
X104766880Y-151441297D01*
X104766882Y-151441297D01*
X104766883Y-151441296D01*
X104790977Y-151427385D01*
X104838821Y-151399762D01*
X104897562Y-151341021D01*
X104939099Y-151269078D01*
X104952715Y-151218264D01*
X107534400Y-151218264D01*
X107534400Y-151301336D01*
X107552433Y-151368634D01*
X107555902Y-151381582D01*
X107555903Y-151381583D01*
X107595576Y-151450296D01*
X107597438Y-151453521D01*
X107656179Y-151512262D01*
X107692150Y-151533030D01*
X107728116Y-151553796D01*
X107728117Y-151553797D01*
X107728119Y-151553797D01*
X107728122Y-151553799D01*
X107808364Y-151575300D01*
X107808367Y-151575300D01*
X107891433Y-151575300D01*
X107891436Y-151575300D01*
X107971678Y-151553799D01*
X107971680Y-151553797D01*
X107971682Y-151553797D01*
X107971683Y-151553796D01*
X108043621Y-151512262D01*
X108102362Y-151453521D01*
X108143899Y-151381578D01*
X108165400Y-151301336D01*
X108165400Y-151218264D01*
X108149725Y-151159764D01*
X113155000Y-151159764D01*
X113155000Y-151242836D01*
X113170675Y-151301336D01*
X113176502Y-151323082D01*
X113176503Y-151323083D01*
X113210279Y-151381582D01*
X113218038Y-151395021D01*
X113276779Y-151453762D01*
X113292433Y-151462800D01*
X113348716Y-151495296D01*
X113348717Y-151495297D01*
X113348719Y-151495297D01*
X113348722Y-151495299D01*
X113428964Y-151516800D01*
X113428967Y-151516800D01*
X113512033Y-151516800D01*
X113512036Y-151516800D01*
X113592278Y-151495299D01*
X113592280Y-151495297D01*
X113592282Y-151495297D01*
X113592283Y-151495296D01*
X113664221Y-151453762D01*
X113722962Y-151395021D01*
X113764499Y-151323078D01*
X113786000Y-151242836D01*
X113786000Y-151159764D01*
X113764499Y-151079522D01*
X113764497Y-151079519D01*
X113764497Y-151079517D01*
X113764496Y-151079516D01*
X113743730Y-151043550D01*
X113722962Y-151007579D01*
X113664221Y-150948838D01*
X113656361Y-150944300D01*
X113592283Y-150907303D01*
X113592282Y-150907302D01*
X113585701Y-150905538D01*
X113512036Y-150885800D01*
X113428964Y-150885800D01*
X113372558Y-150900913D01*
X113348717Y-150907302D01*
X113348716Y-150907303D01*
X113276785Y-150948834D01*
X113276776Y-150948840D01*
X113218040Y-151007576D01*
X113218034Y-151007585D01*
X113176503Y-151079516D01*
X113176502Y-151079517D01*
X113176501Y-151079522D01*
X113155000Y-151159764D01*
X108149725Y-151159764D01*
X108143899Y-151138022D01*
X108102362Y-151066079D01*
X108043621Y-151007338D01*
X108040396Y-151005476D01*
X107971683Y-150965803D01*
X107971682Y-150965802D01*
X107965101Y-150964038D01*
X107891436Y-150944300D01*
X107808364Y-150944300D01*
X107751958Y-150959413D01*
X107728117Y-150965802D01*
X107728116Y-150965803D01*
X107656185Y-151007334D01*
X107656176Y-151007340D01*
X107597440Y-151066076D01*
X107597434Y-151066085D01*
X107555903Y-151138016D01*
X107555902Y-151138017D01*
X107555901Y-151138022D01*
X107534400Y-151218264D01*
X104952715Y-151218264D01*
X104960600Y-151188836D01*
X104960600Y-151105764D01*
X104939099Y-151025522D01*
X104939097Y-151025519D01*
X104939097Y-151025517D01*
X104939096Y-151025516D01*
X104913406Y-150981022D01*
X104897562Y-150953579D01*
X104838821Y-150894838D01*
X104823167Y-150885800D01*
X104766883Y-150853303D01*
X104766882Y-150853302D01*
X104760301Y-150851538D01*
X104686636Y-150831800D01*
X104603564Y-150831800D01*
X104547158Y-150846913D01*
X104523317Y-150853302D01*
X104523316Y-150853303D01*
X104451385Y-150894834D01*
X104451376Y-150894840D01*
X104392640Y-150953576D01*
X104392634Y-150953585D01*
X104351103Y-151025516D01*
X104351102Y-151025517D01*
X104351101Y-151025522D01*
X104329600Y-151105764D01*
X102979900Y-151105764D01*
X102979900Y-151061264D01*
X102958399Y-150981022D01*
X102958397Y-150981019D01*
X102958397Y-150981017D01*
X102958396Y-150981016D01*
X102916865Y-150909085D01*
X102916862Y-150909079D01*
X102858121Y-150850338D01*
X102826013Y-150831800D01*
X102786183Y-150808803D01*
X102786182Y-150808802D01*
X102779601Y-150807038D01*
X102705936Y-150787300D01*
X102622864Y-150787300D01*
X102566458Y-150802413D01*
X102542617Y-150808802D01*
X102542616Y-150808803D01*
X102470685Y-150850334D01*
X102470676Y-150850340D01*
X102411940Y-150909076D01*
X102411934Y-150909085D01*
X102370403Y-150981016D01*
X102370402Y-150981017D01*
X102370401Y-150981022D01*
X102348900Y-151061264D01*
X96300500Y-151061264D01*
X96300500Y-150525964D01*
X105702400Y-150525964D01*
X105702400Y-150609036D01*
X105715440Y-150657700D01*
X105723902Y-150689282D01*
X105723903Y-150689283D01*
X105763576Y-150757996D01*
X105765438Y-150761221D01*
X105824179Y-150819962D01*
X105844683Y-150831800D01*
X105896116Y-150861496D01*
X105896117Y-150861497D01*
X105896119Y-150861497D01*
X105896122Y-150861499D01*
X105976364Y-150883000D01*
X105976367Y-150883000D01*
X106059433Y-150883000D01*
X106059436Y-150883000D01*
X106139678Y-150861499D01*
X106139680Y-150861497D01*
X106139682Y-150861497D01*
X106139683Y-150861496D01*
X106211621Y-150819962D01*
X106270362Y-150761221D01*
X106311899Y-150689278D01*
X106333400Y-150609036D01*
X106333400Y-150525964D01*
X106311899Y-150445722D01*
X106270362Y-150373779D01*
X106213847Y-150317264D01*
X108375900Y-150317264D01*
X108375900Y-150400336D01*
X108395638Y-150474001D01*
X108397402Y-150480582D01*
X108397403Y-150480583D01*
X108423605Y-150525964D01*
X108438938Y-150552521D01*
X108497679Y-150611262D01*
X108533650Y-150632030D01*
X108569616Y-150652796D01*
X108569617Y-150652797D01*
X108569619Y-150652797D01*
X108569622Y-150652799D01*
X108649864Y-150674300D01*
X108649867Y-150674300D01*
X108732933Y-150674300D01*
X108732936Y-150674300D01*
X108813178Y-150652799D01*
X108813180Y-150652797D01*
X108813182Y-150652797D01*
X108813183Y-150652796D01*
X108885121Y-150611262D01*
X108943862Y-150552521D01*
X108985399Y-150480578D01*
X109006900Y-150400336D01*
X109006900Y-150317264D01*
X108985399Y-150237022D01*
X108985397Y-150237019D01*
X108985397Y-150237017D01*
X108985396Y-150237016D01*
X108943865Y-150165085D01*
X108943862Y-150165079D01*
X108885121Y-150106338D01*
X108881896Y-150104476D01*
X108813183Y-150064803D01*
X108813182Y-150064802D01*
X108811813Y-150064435D01*
X108732936Y-150043300D01*
X108649864Y-150043300D01*
X108593458Y-150058413D01*
X108569617Y-150064802D01*
X108569616Y-150064803D01*
X108497685Y-150106334D01*
X108497676Y-150106340D01*
X108438940Y-150165076D01*
X108438934Y-150165085D01*
X108397403Y-150237016D01*
X108397402Y-150237017D01*
X108389059Y-150268153D01*
X108375900Y-150317264D01*
X106213847Y-150317264D01*
X106211621Y-150315038D01*
X106208396Y-150313176D01*
X106139683Y-150273503D01*
X106139682Y-150273502D01*
X106133101Y-150271738D01*
X106059436Y-150252000D01*
X105976364Y-150252000D01*
X105919958Y-150267113D01*
X105896117Y-150273502D01*
X105896116Y-150273503D01*
X105824185Y-150315034D01*
X105824176Y-150315040D01*
X105765440Y-150373776D01*
X105765434Y-150373785D01*
X105723903Y-150445716D01*
X105723902Y-150445717D01*
X105723901Y-150445722D01*
X105702400Y-150525964D01*
X96300500Y-150525964D01*
X96300500Y-149948289D01*
X113372200Y-149948289D01*
X113372200Y-150075510D01*
X113397015Y-150200265D01*
X113397018Y-150200275D01*
X113445697Y-150317798D01*
X113445702Y-150317807D01*
X113516373Y-150423573D01*
X113516376Y-150423577D01*
X113606322Y-150513523D01*
X113606326Y-150513526D01*
X113712092Y-150584197D01*
X113712098Y-150584200D01*
X113712099Y-150584201D01*
X113829627Y-150632883D01*
X113954389Y-150657699D01*
X113954393Y-150657700D01*
X113954394Y-150657700D01*
X114081607Y-150657700D01*
X114081608Y-150657699D01*
X114206373Y-150632883D01*
X114323901Y-150584201D01*
X114429674Y-150513526D01*
X114519626Y-150423574D01*
X114590301Y-150317801D01*
X114638983Y-150200273D01*
X114663800Y-150075506D01*
X114663800Y-149948294D01*
X114663799Y-149948289D01*
X115404200Y-149948289D01*
X115404200Y-150075510D01*
X115429015Y-150200265D01*
X115429018Y-150200275D01*
X115477697Y-150317798D01*
X115477702Y-150317807D01*
X115548373Y-150423573D01*
X115548376Y-150423577D01*
X115638322Y-150513523D01*
X115638326Y-150513526D01*
X115744092Y-150584197D01*
X115744098Y-150584200D01*
X115744099Y-150584201D01*
X115861627Y-150632883D01*
X115986389Y-150657699D01*
X115986393Y-150657700D01*
X115986394Y-150657700D01*
X116113607Y-150657700D01*
X116113608Y-150657699D01*
X116238373Y-150632883D01*
X116355901Y-150584201D01*
X116461674Y-150513526D01*
X116551626Y-150423574D01*
X116622301Y-150317801D01*
X116670983Y-150200273D01*
X116695800Y-150075506D01*
X116695800Y-149948294D01*
X116670983Y-149823527D01*
X116622301Y-149705999D01*
X116622300Y-149705998D01*
X116622297Y-149705992D01*
X116551626Y-149600226D01*
X116551623Y-149600222D01*
X116461677Y-149510276D01*
X116461673Y-149510273D01*
X116355907Y-149439602D01*
X116355898Y-149439597D01*
X116238375Y-149390918D01*
X116238376Y-149390918D01*
X116238373Y-149390917D01*
X116238369Y-149390916D01*
X116238365Y-149390915D01*
X116113610Y-149366100D01*
X116113606Y-149366100D01*
X115986394Y-149366100D01*
X115986389Y-149366100D01*
X115861634Y-149390915D01*
X115861624Y-149390918D01*
X115744101Y-149439597D01*
X115744092Y-149439602D01*
X115638326Y-149510273D01*
X115638322Y-149510276D01*
X115548376Y-149600222D01*
X115548373Y-149600226D01*
X115477702Y-149705992D01*
X115477697Y-149706001D01*
X115429018Y-149823524D01*
X115429015Y-149823534D01*
X115404200Y-149948289D01*
X114663799Y-149948289D01*
X114638983Y-149823527D01*
X114590301Y-149705999D01*
X114590300Y-149705998D01*
X114590297Y-149705992D01*
X114519626Y-149600226D01*
X114519623Y-149600222D01*
X114429677Y-149510276D01*
X114429673Y-149510273D01*
X114323907Y-149439602D01*
X114323898Y-149439597D01*
X114206375Y-149390918D01*
X114206376Y-149390918D01*
X114206373Y-149390917D01*
X114206369Y-149390916D01*
X114206365Y-149390915D01*
X114081610Y-149366100D01*
X114081606Y-149366100D01*
X113954394Y-149366100D01*
X113954389Y-149366100D01*
X113829634Y-149390915D01*
X113829624Y-149390918D01*
X113712101Y-149439597D01*
X113712092Y-149439602D01*
X113606326Y-149510273D01*
X113606322Y-149510276D01*
X113516376Y-149600222D01*
X113516373Y-149600226D01*
X113445702Y-149705992D01*
X113445697Y-149706001D01*
X113397018Y-149823524D01*
X113397015Y-149823534D01*
X113372200Y-149948289D01*
X96300500Y-149948289D01*
X96300500Y-149317664D01*
X106884400Y-149317664D01*
X106884400Y-149400736D01*
X106902878Y-149469696D01*
X106905902Y-149480982D01*
X106905903Y-149480983D01*
X106922815Y-149510274D01*
X106947438Y-149552921D01*
X107006179Y-149611662D01*
X107042150Y-149632430D01*
X107078116Y-149653196D01*
X107078117Y-149653197D01*
X107078119Y-149653197D01*
X107078122Y-149653199D01*
X107158364Y-149674700D01*
X107158367Y-149674700D01*
X107241433Y-149674700D01*
X107241436Y-149674700D01*
X107321678Y-149653199D01*
X107321680Y-149653197D01*
X107321682Y-149653197D01*
X107321683Y-149653196D01*
X107393621Y-149611662D01*
X107452362Y-149552921D01*
X107493899Y-149480978D01*
X107515400Y-149400736D01*
X107515400Y-149317664D01*
X107493899Y-149237422D01*
X107462289Y-149182673D01*
X107452364Y-149165482D01*
X107452359Y-149165476D01*
X107421047Y-149134164D01*
X110018900Y-149134164D01*
X110018900Y-149217236D01*
X110037298Y-149285896D01*
X110040402Y-149297482D01*
X110040403Y-149297483D01*
X110080021Y-149366100D01*
X110081938Y-149369421D01*
X110140679Y-149428162D01*
X110176650Y-149448930D01*
X110212616Y-149469696D01*
X110212617Y-149469697D01*
X110212619Y-149469697D01*
X110212622Y-149469699D01*
X110292864Y-149491200D01*
X110292867Y-149491200D01*
X110375933Y-149491200D01*
X110375936Y-149491200D01*
X110456178Y-149469699D01*
X110456180Y-149469697D01*
X110456182Y-149469697D01*
X110456183Y-149469696D01*
X110528121Y-149428162D01*
X110586862Y-149369421D01*
X110628399Y-149297478D01*
X110649900Y-149217236D01*
X110649900Y-149134164D01*
X110628399Y-149053922D01*
X110628397Y-149053919D01*
X110628397Y-149053917D01*
X110628396Y-149053916D01*
X110586865Y-148981985D01*
X110586862Y-148981979D01*
X110528121Y-148923238D01*
X110524896Y-148921376D01*
X110456183Y-148881703D01*
X110456182Y-148881702D01*
X110449601Y-148879938D01*
X110375936Y-148860200D01*
X110292864Y-148860200D01*
X110236458Y-148875313D01*
X110212617Y-148881702D01*
X110212616Y-148881703D01*
X110140685Y-148923234D01*
X110140676Y-148923240D01*
X110081940Y-148981976D01*
X110081934Y-148981985D01*
X110040403Y-149053916D01*
X110040402Y-149053917D01*
X110037378Y-149065203D01*
X110018900Y-149134164D01*
X107421047Y-149134164D01*
X107393623Y-149106740D01*
X107393621Y-149106738D01*
X107390396Y-149104876D01*
X107321683Y-149065203D01*
X107321682Y-149065202D01*
X107315101Y-149063438D01*
X107241436Y-149043700D01*
X107158364Y-149043700D01*
X107101958Y-149058813D01*
X107078117Y-149065202D01*
X107078116Y-149065203D01*
X107006185Y-149106734D01*
X107006176Y-149106740D01*
X106947440Y-149165476D01*
X106947434Y-149165485D01*
X106905903Y-149237416D01*
X106905902Y-149237417D01*
X106897559Y-149268553D01*
X106884400Y-149317664D01*
X96300500Y-149317664D01*
X96300500Y-148950364D01*
X103716100Y-148950364D01*
X103716100Y-149033436D01*
X103724612Y-149065202D01*
X103737602Y-149113682D01*
X103737603Y-149113683D01*
X103767512Y-149165485D01*
X103779138Y-149185621D01*
X103837879Y-149244362D01*
X103873850Y-149265130D01*
X103909816Y-149285896D01*
X103909817Y-149285897D01*
X103909819Y-149285897D01*
X103909822Y-149285899D01*
X103990064Y-149307400D01*
X103990067Y-149307400D01*
X104073133Y-149307400D01*
X104073136Y-149307400D01*
X104153378Y-149285899D01*
X104153380Y-149285897D01*
X104153382Y-149285897D01*
X104153383Y-149285896D01*
X104225321Y-149244362D01*
X104284062Y-149185621D01*
X104325599Y-149113678D01*
X104347100Y-149033436D01*
X104347100Y-148950364D01*
X104325599Y-148870122D01*
X104325597Y-148870119D01*
X104325597Y-148870117D01*
X104325596Y-148870116D01*
X104284065Y-148798185D01*
X104284062Y-148798179D01*
X104225321Y-148739438D01*
X104207589Y-148729200D01*
X104153383Y-148697903D01*
X104153382Y-148697902D01*
X104146801Y-148696138D01*
X104073136Y-148676400D01*
X103990064Y-148676400D01*
X103933658Y-148691513D01*
X103909817Y-148697902D01*
X103909816Y-148697903D01*
X103837885Y-148739434D01*
X103837876Y-148739440D01*
X103779140Y-148798176D01*
X103779134Y-148798185D01*
X103737603Y-148870116D01*
X103737602Y-148870117D01*
X103737601Y-148870122D01*
X103716100Y-148950364D01*
X96300500Y-148950364D01*
X96300500Y-148220064D01*
X105751600Y-148220064D01*
X105751600Y-148303136D01*
X105770096Y-148372164D01*
X105773102Y-148383382D01*
X105773103Y-148383383D01*
X105812776Y-148452096D01*
X105814638Y-148455321D01*
X105873379Y-148514062D01*
X105909350Y-148534830D01*
X105945316Y-148555596D01*
X105945317Y-148555597D01*
X105945319Y-148555597D01*
X105945322Y-148555599D01*
X106025564Y-148577100D01*
X106025567Y-148577100D01*
X106108633Y-148577100D01*
X106108636Y-148577100D01*
X106188878Y-148555599D01*
X106188880Y-148555597D01*
X106188882Y-148555597D01*
X106188883Y-148555596D01*
X106260821Y-148514062D01*
X106319562Y-148455321D01*
X106361099Y-148383378D01*
X106364104Y-148372164D01*
X108023600Y-148372164D01*
X108023600Y-148455236D01*
X108043338Y-148528901D01*
X108045102Y-148535482D01*
X108045103Y-148535483D01*
X108069132Y-148577100D01*
X108086638Y-148607421D01*
X108145379Y-148666162D01*
X108181350Y-148686930D01*
X108217316Y-148707696D01*
X108217317Y-148707697D01*
X108217319Y-148707697D01*
X108217322Y-148707699D01*
X108297564Y-148729200D01*
X108297567Y-148729200D01*
X108380633Y-148729200D01*
X108380636Y-148729200D01*
X108460878Y-148707699D01*
X108460880Y-148707697D01*
X108460882Y-148707697D01*
X108460883Y-148707696D01*
X108532821Y-148666162D01*
X108591562Y-148607421D01*
X108633099Y-148535478D01*
X108654600Y-148455236D01*
X108654600Y-148372164D01*
X108633099Y-148291922D01*
X108633097Y-148291919D01*
X108633097Y-148291917D01*
X108633096Y-148291916D01*
X108591565Y-148219985D01*
X108591562Y-148219979D01*
X108532821Y-148161238D01*
X108529596Y-148159376D01*
X108460883Y-148119703D01*
X108460882Y-148119702D01*
X108454301Y-148117938D01*
X108380636Y-148098200D01*
X108297564Y-148098200D01*
X108241158Y-148113313D01*
X108217317Y-148119702D01*
X108217316Y-148119703D01*
X108145385Y-148161234D01*
X108145376Y-148161240D01*
X108086640Y-148219976D01*
X108086634Y-148219985D01*
X108045103Y-148291916D01*
X108045102Y-148291917D01*
X108045101Y-148291922D01*
X108023600Y-148372164D01*
X106364104Y-148372164D01*
X106382600Y-148303136D01*
X106382600Y-148220064D01*
X106361099Y-148139822D01*
X106361097Y-148139819D01*
X106361097Y-148139817D01*
X106361096Y-148139816D01*
X106319565Y-148067885D01*
X106319562Y-148067879D01*
X106260821Y-148009138D01*
X106257596Y-148007276D01*
X106188883Y-147967603D01*
X106188882Y-147967602D01*
X106182301Y-147965838D01*
X106108636Y-147946100D01*
X106025564Y-147946100D01*
X105969158Y-147961213D01*
X105945317Y-147967602D01*
X105945316Y-147967603D01*
X105873385Y-148009134D01*
X105873376Y-148009140D01*
X105814640Y-148067876D01*
X105814634Y-148067885D01*
X105773103Y-148139816D01*
X105773102Y-148139817D01*
X105767362Y-148161240D01*
X105751600Y-148220064D01*
X96300500Y-148220064D01*
X96300500Y-143981264D01*
X108864600Y-143981264D01*
X108864600Y-144064336D01*
X108884338Y-144138001D01*
X108886102Y-144144582D01*
X108886103Y-144144583D01*
X108925776Y-144213296D01*
X108927638Y-144216521D01*
X108986379Y-144275262D01*
X109022350Y-144296030D01*
X109058316Y-144316796D01*
X109058317Y-144316797D01*
X109058319Y-144316797D01*
X109058322Y-144316799D01*
X109138564Y-144338300D01*
X109138567Y-144338300D01*
X109221633Y-144338300D01*
X109221636Y-144338300D01*
X109301878Y-144316799D01*
X109301880Y-144316797D01*
X109301882Y-144316797D01*
X109301883Y-144316796D01*
X109373821Y-144275262D01*
X109432562Y-144216521D01*
X109474099Y-144144578D01*
X109495600Y-144064336D01*
X109495600Y-143981264D01*
X109474099Y-143901022D01*
X109474097Y-143901019D01*
X109474097Y-143901017D01*
X109474096Y-143901016D01*
X109453330Y-143865050D01*
X109432562Y-143829079D01*
X109373821Y-143770338D01*
X109370596Y-143768476D01*
X109301883Y-143728803D01*
X109301882Y-143728802D01*
X109295301Y-143727038D01*
X109221636Y-143707300D01*
X109138564Y-143707300D01*
X109082158Y-143722413D01*
X109058317Y-143728802D01*
X109058316Y-143728803D01*
X108986385Y-143770334D01*
X108986376Y-143770340D01*
X108927640Y-143829076D01*
X108927634Y-143829085D01*
X108886103Y-143901016D01*
X108886102Y-143901017D01*
X108886101Y-143901022D01*
X108864600Y-143981264D01*
X96300500Y-143981264D01*
X96300500Y-143513264D01*
X110622500Y-143513264D01*
X110622500Y-143596336D01*
X110642238Y-143670001D01*
X110644002Y-143676582D01*
X110644003Y-143676583D01*
X110683676Y-143745296D01*
X110685538Y-143748521D01*
X110744279Y-143807262D01*
X110780250Y-143828030D01*
X110816216Y-143848796D01*
X110816217Y-143848797D01*
X110816219Y-143848797D01*
X110816222Y-143848799D01*
X110896464Y-143870300D01*
X110896467Y-143870300D01*
X110979533Y-143870300D01*
X110979536Y-143870300D01*
X111059778Y-143848799D01*
X111059780Y-143848797D01*
X111059782Y-143848797D01*
X111059783Y-143848796D01*
X111131721Y-143807262D01*
X111190462Y-143748521D01*
X111231999Y-143676578D01*
X111253500Y-143596336D01*
X111253500Y-143513264D01*
X111231999Y-143433022D01*
X111231997Y-143433019D01*
X111231997Y-143433017D01*
X111231996Y-143433016D01*
X111211230Y-143397050D01*
X111190462Y-143361079D01*
X111131721Y-143302338D01*
X111128496Y-143300476D01*
X111059783Y-143260803D01*
X111059782Y-143260802D01*
X111053201Y-143259038D01*
X110979536Y-143239300D01*
X110896464Y-143239300D01*
X110840058Y-143254413D01*
X110816217Y-143260802D01*
X110816216Y-143260803D01*
X110744285Y-143302334D01*
X110744276Y-143302340D01*
X110685540Y-143361076D01*
X110685534Y-143361085D01*
X110644003Y-143433016D01*
X110644002Y-143433017D01*
X110644001Y-143433022D01*
X110622500Y-143513264D01*
X96300500Y-143513264D01*
X96300500Y-143034964D01*
X106053300Y-143034964D01*
X106053300Y-143118036D01*
X106073038Y-143191701D01*
X106074802Y-143198282D01*
X106074803Y-143198283D01*
X106098485Y-143239300D01*
X106116338Y-143270221D01*
X106175079Y-143328962D01*
X106211050Y-143349730D01*
X106247016Y-143370496D01*
X106247017Y-143370497D01*
X106247019Y-143370497D01*
X106247022Y-143370499D01*
X106327264Y-143392000D01*
X106327267Y-143392000D01*
X106410334Y-143392000D01*
X106410336Y-143392000D01*
X106490578Y-143370499D01*
X106490580Y-143370497D01*
X106490582Y-143370497D01*
X106490583Y-143370496D01*
X106506883Y-143361085D01*
X106562521Y-143328962D01*
X106621262Y-143270221D01*
X106662799Y-143198278D01*
X106684300Y-143118036D01*
X106684300Y-143034964D01*
X106662799Y-142954722D01*
X106662797Y-142954719D01*
X106662797Y-142954717D01*
X106662796Y-142954716D01*
X106621265Y-142882785D01*
X106621262Y-142882779D01*
X106562521Y-142824038D01*
X106559296Y-142822176D01*
X106490583Y-142782503D01*
X106490582Y-142782502D01*
X106474963Y-142778317D01*
X106410336Y-142761000D01*
X106327264Y-142761000D01*
X106279129Y-142773898D01*
X106247017Y-142782502D01*
X106247016Y-142782503D01*
X106175085Y-142824034D01*
X106175076Y-142824040D01*
X106116340Y-142882776D01*
X106116334Y-142882785D01*
X106074803Y-142954716D01*
X106074802Y-142954717D01*
X106074801Y-142954722D01*
X106053300Y-143034964D01*
X96300500Y-143034964D01*
X96300500Y-142578964D01*
X100586300Y-142578964D01*
X100586300Y-142662036D01*
X100606038Y-142735701D01*
X100607802Y-142742282D01*
X100607803Y-142742283D01*
X100631025Y-142782503D01*
X100649338Y-142814221D01*
X100708079Y-142872962D01*
X100725093Y-142882785D01*
X100780016Y-142914496D01*
X100780017Y-142914497D01*
X100780019Y-142914497D01*
X100780022Y-142914499D01*
X100860264Y-142936000D01*
X100860267Y-142936000D01*
X100943333Y-142936000D01*
X100943336Y-142936000D01*
X101023578Y-142914499D01*
X101095521Y-142872962D01*
X101154262Y-142814221D01*
X101157553Y-142808519D01*
X101173190Y-142796547D01*
X101191106Y-142789641D01*
X101206611Y-142778317D01*
X101231951Y-142773898D01*
X101238385Y-142771419D01*
X101241953Y-142772154D01*
X101248576Y-142771000D01*
X105513935Y-142771000D01*
X105513936Y-142771000D01*
X105538071Y-142761002D01*
X105538077Y-142761001D01*
X105538077Y-142761000D01*
X105569252Y-142748088D01*
X105867025Y-142450315D01*
X106113475Y-142203864D01*
X110033300Y-142203864D01*
X110033300Y-142286936D01*
X110040527Y-142313906D01*
X110054802Y-142367182D01*
X110054803Y-142367183D01*
X110064372Y-142383756D01*
X110096338Y-142439121D01*
X110155079Y-142497862D01*
X110156569Y-142498722D01*
X110227016Y-142539396D01*
X110227017Y-142539397D01*
X110227019Y-142539397D01*
X110227022Y-142539399D01*
X110307264Y-142560900D01*
X110307267Y-142560900D01*
X110390333Y-142560900D01*
X110390336Y-142560900D01*
X110470578Y-142539399D01*
X110470580Y-142539397D01*
X110470582Y-142539397D01*
X110470583Y-142539396D01*
X110542521Y-142497862D01*
X110601262Y-142439121D01*
X110642799Y-142367178D01*
X110664300Y-142286936D01*
X110664300Y-142203864D01*
X110642799Y-142123622D01*
X110642797Y-142123619D01*
X110642797Y-142123617D01*
X110642796Y-142123616D01*
X110601265Y-142051685D01*
X110601262Y-142051679D01*
X110542521Y-141992938D01*
X110539296Y-141991076D01*
X110470583Y-141951403D01*
X110470582Y-141951402D01*
X110464001Y-141949638D01*
X110390336Y-141929900D01*
X110307264Y-141929900D01*
X110250858Y-141945013D01*
X110227017Y-141951402D01*
X110227016Y-141951403D01*
X110155085Y-141992934D01*
X110155076Y-141992940D01*
X110096340Y-142051676D01*
X110096334Y-142051685D01*
X110054803Y-142123616D01*
X110054802Y-142123617D01*
X110054801Y-142123622D01*
X110033300Y-142203864D01*
X106113475Y-142203864D01*
X106209283Y-142108056D01*
X106326005Y-141991334D01*
X106739211Y-141578126D01*
X106800532Y-141544643D01*
X106828336Y-141543490D01*
X106828336Y-141542000D01*
X106919533Y-141542000D01*
X106919536Y-141542000D01*
X106999778Y-141520499D01*
X106999780Y-141520497D01*
X106999782Y-141520497D01*
X106999783Y-141520496D01*
X107047123Y-141493164D01*
X107653300Y-141493164D01*
X107653300Y-141576236D01*
X107665884Y-141623199D01*
X107674802Y-141656482D01*
X107674803Y-141656483D01*
X107714476Y-141725196D01*
X107716338Y-141728421D01*
X107775079Y-141787162D01*
X107811050Y-141807930D01*
X107847016Y-141828696D01*
X107847017Y-141828697D01*
X107847019Y-141828697D01*
X107847022Y-141828699D01*
X107927264Y-141850200D01*
X107927267Y-141850200D01*
X108010333Y-141850200D01*
X108010336Y-141850200D01*
X108090578Y-141828699D01*
X108090580Y-141828697D01*
X108090582Y-141828697D01*
X108090583Y-141828696D01*
X108162521Y-141787162D01*
X108221262Y-141728421D01*
X108262799Y-141656478D01*
X108284300Y-141576236D01*
X108284300Y-141493164D01*
X108262799Y-141412922D01*
X108262797Y-141412919D01*
X108262797Y-141412917D01*
X108262796Y-141412916D01*
X108221265Y-141340985D01*
X108221262Y-141340979D01*
X108162521Y-141282238D01*
X108137918Y-141268033D01*
X108090583Y-141240703D01*
X108090582Y-141240702D01*
X108084001Y-141238938D01*
X108010336Y-141219200D01*
X107927264Y-141219200D01*
X107870858Y-141234313D01*
X107847017Y-141240702D01*
X107847016Y-141240703D01*
X107775085Y-141282234D01*
X107775076Y-141282240D01*
X107716340Y-141340976D01*
X107716334Y-141340985D01*
X107674803Y-141412916D01*
X107674802Y-141412917D01*
X107666459Y-141444053D01*
X107653300Y-141493164D01*
X107047123Y-141493164D01*
X107071721Y-141478962D01*
X107130462Y-141420221D01*
X107171999Y-141348278D01*
X107193500Y-141268036D01*
X107193500Y-141184964D01*
X107171999Y-141104722D01*
X107171997Y-141104719D01*
X107171997Y-141104717D01*
X107171996Y-141104716D01*
X107137056Y-141044200D01*
X107130462Y-141032779D01*
X107071721Y-140974038D01*
X107068496Y-140972176D01*
X106999783Y-140932503D01*
X106999782Y-140932502D01*
X106993201Y-140930738D01*
X106919536Y-140911000D01*
X106836464Y-140911000D01*
X106780058Y-140926113D01*
X106756217Y-140932502D01*
X106756216Y-140932503D01*
X106684285Y-140974034D01*
X106684276Y-140974040D01*
X106625540Y-141032776D01*
X106625534Y-141032785D01*
X106584003Y-141104716D01*
X106584002Y-141104717D01*
X106584001Y-141104722D01*
X106562500Y-141184964D01*
X106562500Y-141184966D01*
X106562500Y-141276163D01*
X106559332Y-141276163D01*
X106550860Y-141330465D01*
X106526371Y-141365288D01*
X105457979Y-142433681D01*
X105396656Y-142467166D01*
X105370298Y-142470000D01*
X103108019Y-142470000D01*
X103040980Y-142450315D01*
X102995225Y-142397511D01*
X102985281Y-142328353D01*
X102988242Y-142313915D01*
X102995900Y-142285336D01*
X102995900Y-142202264D01*
X102974399Y-142122022D01*
X102974397Y-142122019D01*
X102974397Y-142122017D01*
X102974396Y-142122016D01*
X102933789Y-142051685D01*
X102932862Y-142050079D01*
X102874121Y-141991338D01*
X102870896Y-141989476D01*
X102802183Y-141949803D01*
X102802182Y-141949802D01*
X102795601Y-141948038D01*
X102721936Y-141928300D01*
X102638864Y-141928300D01*
X102582458Y-141943413D01*
X102558617Y-141949802D01*
X102558616Y-141949803D01*
X102486685Y-141991334D01*
X102486676Y-141991340D01*
X102427940Y-142050076D01*
X102427934Y-142050085D01*
X102386403Y-142122016D01*
X102386402Y-142122017D01*
X102385972Y-142123622D01*
X102364900Y-142202264D01*
X102364900Y-142285336D01*
X102372555Y-142313908D01*
X102370893Y-142383756D01*
X102331731Y-142441619D01*
X102267502Y-142469123D01*
X102252781Y-142470000D01*
X101248576Y-142470000D01*
X101181537Y-142450315D01*
X101161060Y-142431474D01*
X101160009Y-142432526D01*
X101095523Y-142368040D01*
X101095521Y-142368038D01*
X101091260Y-142365578D01*
X101023583Y-142326503D01*
X101023582Y-142326502D01*
X101017001Y-142324738D01*
X100943336Y-142305000D01*
X100860264Y-142305000D01*
X100803858Y-142320113D01*
X100780017Y-142326502D01*
X100780016Y-142326503D01*
X100708085Y-142368034D01*
X100708076Y-142368040D01*
X100649340Y-142426776D01*
X100649334Y-142426785D01*
X100607803Y-142498716D01*
X100607802Y-142498717D01*
X100607801Y-142498722D01*
X100586300Y-142578964D01*
X96300500Y-142578964D01*
X96300500Y-141287664D01*
X105248400Y-141287664D01*
X105248400Y-141370736D01*
X105261660Y-141420221D01*
X105269902Y-141450982D01*
X105269903Y-141450983D01*
X105309576Y-141519696D01*
X105311438Y-141522921D01*
X105370179Y-141581662D01*
X105406150Y-141602430D01*
X105442116Y-141623196D01*
X105442117Y-141623197D01*
X105442119Y-141623197D01*
X105442122Y-141623199D01*
X105522364Y-141644700D01*
X105522367Y-141644700D01*
X105605433Y-141644700D01*
X105605436Y-141644700D01*
X105685678Y-141623199D01*
X105685680Y-141623197D01*
X105685682Y-141623197D01*
X105685683Y-141623196D01*
X105757621Y-141581662D01*
X105816362Y-141522921D01*
X105857899Y-141450978D01*
X105879400Y-141370736D01*
X105879400Y-141287664D01*
X105857899Y-141207422D01*
X105857897Y-141207419D01*
X105857897Y-141207417D01*
X105857896Y-141207416D01*
X105816365Y-141135485D01*
X105816362Y-141135479D01*
X105757621Y-141076738D01*
X105754396Y-141074876D01*
X105685683Y-141035203D01*
X105685682Y-141035202D01*
X105676628Y-141032776D01*
X105605436Y-141013700D01*
X105522364Y-141013700D01*
X105465958Y-141028813D01*
X105442117Y-141035202D01*
X105442116Y-141035203D01*
X105370185Y-141076734D01*
X105370176Y-141076740D01*
X105311440Y-141135476D01*
X105311434Y-141135485D01*
X105269903Y-141207416D01*
X105269902Y-141207417D01*
X105269901Y-141207422D01*
X105248400Y-141287664D01*
X96300500Y-141287664D01*
X96300500Y-140687164D01*
X109240500Y-140687164D01*
X109240500Y-140770236D01*
X109260238Y-140843901D01*
X109262002Y-140850482D01*
X109262003Y-140850483D01*
X109296944Y-140911000D01*
X109303538Y-140922421D01*
X109362279Y-140981162D01*
X109398250Y-141001930D01*
X109434216Y-141022696D01*
X109434217Y-141022697D01*
X109434219Y-141022697D01*
X109434222Y-141022699D01*
X109514464Y-141044200D01*
X109514467Y-141044200D01*
X109597533Y-141044200D01*
X109597536Y-141044200D01*
X109677778Y-141022699D01*
X109677780Y-141022697D01*
X109677782Y-141022697D01*
X109677783Y-141022696D01*
X109693364Y-141013700D01*
X109749721Y-140981162D01*
X109808462Y-140922421D01*
X109849999Y-140850478D01*
X109871500Y-140770236D01*
X109871500Y-140687164D01*
X109849999Y-140606922D01*
X109849997Y-140606919D01*
X109849997Y-140606917D01*
X109849996Y-140606916D01*
X109808465Y-140534985D01*
X109808462Y-140534979D01*
X109749721Y-140476238D01*
X109746496Y-140474376D01*
X109677783Y-140434703D01*
X109677782Y-140434702D01*
X109671201Y-140432938D01*
X109597536Y-140413200D01*
X109514464Y-140413200D01*
X109458058Y-140428313D01*
X109434217Y-140434702D01*
X109434216Y-140434703D01*
X109362285Y-140476234D01*
X109362276Y-140476240D01*
X109303540Y-140534976D01*
X109303534Y-140534985D01*
X109262003Y-140606916D01*
X109262002Y-140606917D01*
X109262001Y-140606922D01*
X109240500Y-140687164D01*
X96300500Y-140687164D01*
X96300500Y-140225264D01*
X110801300Y-140225264D01*
X110801300Y-140308336D01*
X110821038Y-140382001D01*
X110822802Y-140388582D01*
X110822803Y-140388583D01*
X110862476Y-140457296D01*
X110864338Y-140460521D01*
X110923079Y-140519262D01*
X110950296Y-140534976D01*
X110995016Y-140560796D01*
X110995017Y-140560797D01*
X110995019Y-140560797D01*
X110995022Y-140560799D01*
X111075264Y-140582300D01*
X111075267Y-140582300D01*
X111158333Y-140582300D01*
X111158336Y-140582300D01*
X111238578Y-140560799D01*
X111238580Y-140560797D01*
X111238582Y-140560797D01*
X111238583Y-140560796D01*
X111310521Y-140519262D01*
X111369262Y-140460521D01*
X111410799Y-140388578D01*
X111432300Y-140308336D01*
X111432300Y-140225264D01*
X111410799Y-140145022D01*
X111410797Y-140145019D01*
X111410797Y-140145017D01*
X111410796Y-140145016D01*
X111369265Y-140073085D01*
X111369262Y-140073079D01*
X111369255Y-140073072D01*
X111364315Y-140066633D01*
X111367060Y-140064525D01*
X111341289Y-140016941D01*
X111346513Y-139947266D01*
X111367700Y-139914430D01*
X111366315Y-139913367D01*
X111371251Y-139906931D01*
X111371262Y-139906921D01*
X111412799Y-139834978D01*
X111434300Y-139754736D01*
X111434300Y-139671664D01*
X111412799Y-139591422D01*
X111412797Y-139591419D01*
X111412797Y-139591417D01*
X111412796Y-139591416D01*
X111371265Y-139519485D01*
X111371262Y-139519479D01*
X111312521Y-139460738D01*
X111309296Y-139458876D01*
X111240583Y-139419203D01*
X111240582Y-139419202D01*
X111234001Y-139417438D01*
X111160336Y-139397700D01*
X111077264Y-139397700D01*
X111020858Y-139412813D01*
X110997017Y-139419202D01*
X110997016Y-139419203D01*
X110925085Y-139460734D01*
X110925076Y-139460740D01*
X110866340Y-139519476D01*
X110866334Y-139519485D01*
X110824803Y-139591416D01*
X110824802Y-139591417D01*
X110824801Y-139591422D01*
X110803300Y-139671664D01*
X110803300Y-139754736D01*
X110810381Y-139781162D01*
X110824802Y-139834982D01*
X110824803Y-139834983D01*
X110830125Y-139844200D01*
X110866338Y-139906921D01*
X110866343Y-139906926D01*
X110871285Y-139913367D01*
X110868486Y-139915514D01*
X110894220Y-139962641D01*
X110889236Y-140032333D01*
X110887391Y-140036989D01*
X110877961Y-140059455D01*
X110864338Y-140073079D01*
X110822801Y-140145022D01*
X110801300Y-140225264D01*
X96300500Y-140225264D01*
X96300500Y-139487164D01*
X109278100Y-139487164D01*
X109278100Y-139570236D01*
X109283777Y-139591422D01*
X109299602Y-139650482D01*
X109299603Y-139650483D01*
X109339276Y-139719196D01*
X109341138Y-139722421D01*
X109399879Y-139781162D01*
X109435850Y-139801930D01*
X109471816Y-139822696D01*
X109471817Y-139822697D01*
X109471819Y-139822697D01*
X109471822Y-139822699D01*
X109552064Y-139844200D01*
X109552067Y-139844200D01*
X109635133Y-139844200D01*
X109635136Y-139844200D01*
X109715378Y-139822699D01*
X109715380Y-139822697D01*
X109715382Y-139822697D01*
X109715383Y-139822696D01*
X109787321Y-139781162D01*
X109846062Y-139722421D01*
X109887599Y-139650478D01*
X109909100Y-139570236D01*
X109909100Y-139487164D01*
X109887599Y-139406922D01*
X109887597Y-139406919D01*
X109887597Y-139406917D01*
X109887596Y-139406916D01*
X109846065Y-139334985D01*
X109846062Y-139334979D01*
X109787321Y-139276238D01*
X109784096Y-139274376D01*
X109715383Y-139234703D01*
X109715382Y-139234702D01*
X109708801Y-139232938D01*
X109635136Y-139213200D01*
X109552064Y-139213200D01*
X109495658Y-139228313D01*
X109471817Y-139234702D01*
X109471816Y-139234703D01*
X109399885Y-139276234D01*
X109399876Y-139276240D01*
X109341140Y-139334976D01*
X109341134Y-139334985D01*
X109299603Y-139406916D01*
X109299602Y-139406917D01*
X109296310Y-139419203D01*
X109278100Y-139487164D01*
X96300500Y-139487164D01*
X96300500Y-138476164D01*
X108853300Y-138476164D01*
X108853300Y-138559236D01*
X108873038Y-138632901D01*
X108874802Y-138639482D01*
X108874803Y-138639483D01*
X108914476Y-138708196D01*
X108916338Y-138711421D01*
X108975079Y-138770162D01*
X109011050Y-138790930D01*
X109047016Y-138811696D01*
X109047017Y-138811697D01*
X109047019Y-138811697D01*
X109047022Y-138811699D01*
X109127264Y-138833200D01*
X109127267Y-138833200D01*
X109210333Y-138833200D01*
X109210336Y-138833200D01*
X109290578Y-138811699D01*
X109290580Y-138811697D01*
X109290582Y-138811697D01*
X109290583Y-138811696D01*
X109362521Y-138770162D01*
X109421262Y-138711421D01*
X109462799Y-138639478D01*
X109484300Y-138559236D01*
X109484300Y-138476164D01*
X109462799Y-138395922D01*
X109462797Y-138395919D01*
X109462797Y-138395917D01*
X109462796Y-138395916D01*
X109421265Y-138323985D01*
X109421262Y-138323979D01*
X109362521Y-138265238D01*
X109359296Y-138263376D01*
X109290583Y-138223703D01*
X109290582Y-138223702D01*
X109284001Y-138221938D01*
X109210336Y-138202200D01*
X109127264Y-138202200D01*
X109070858Y-138217313D01*
X109047017Y-138223702D01*
X109047016Y-138223703D01*
X108975085Y-138265234D01*
X108975076Y-138265240D01*
X108916340Y-138323976D01*
X108916334Y-138323985D01*
X108874803Y-138395916D01*
X108874802Y-138395917D01*
X108874801Y-138395922D01*
X108853300Y-138476164D01*
X96300500Y-138476164D01*
X96300500Y-136744564D01*
X108363800Y-136744564D01*
X108363800Y-136827636D01*
X108383538Y-136901301D01*
X108385302Y-136907882D01*
X108385303Y-136907883D01*
X108424976Y-136976596D01*
X108426838Y-136979821D01*
X108485579Y-137038562D01*
X108521550Y-137059330D01*
X108557516Y-137080096D01*
X108557517Y-137080097D01*
X108557519Y-137080097D01*
X108557522Y-137080099D01*
X108637764Y-137101600D01*
X108637767Y-137101600D01*
X108720833Y-137101600D01*
X108720836Y-137101600D01*
X108801078Y-137080099D01*
X108801080Y-137080097D01*
X108801082Y-137080097D01*
X108801083Y-137080096D01*
X108873021Y-137038562D01*
X108931762Y-136979821D01*
X108973299Y-136907878D01*
X108994800Y-136827636D01*
X108994800Y-136744564D01*
X108973299Y-136664322D01*
X108973297Y-136664319D01*
X108973297Y-136664317D01*
X108973296Y-136664316D01*
X108931765Y-136592385D01*
X108931762Y-136592379D01*
X108873021Y-136533638D01*
X108869796Y-136531776D01*
X108801083Y-136492103D01*
X108801082Y-136492102D01*
X108794501Y-136490338D01*
X108720836Y-136470600D01*
X108637764Y-136470600D01*
X108581358Y-136485713D01*
X108557517Y-136492102D01*
X108557516Y-136492103D01*
X108485585Y-136533634D01*
X108485576Y-136533640D01*
X108426840Y-136592376D01*
X108426834Y-136592385D01*
X108385303Y-136664316D01*
X108385302Y-136664317D01*
X108385301Y-136664322D01*
X108363800Y-136744564D01*
X96300500Y-136744564D01*
X96300500Y-135876964D01*
X107663000Y-135876964D01*
X107663000Y-135960036D01*
X107681215Y-136028014D01*
X107684502Y-136040282D01*
X107684503Y-136040283D01*
X107724176Y-136108996D01*
X107726038Y-136112221D01*
X107784779Y-136170962D01*
X107820750Y-136191730D01*
X107856716Y-136212496D01*
X107856717Y-136212497D01*
X107856719Y-136212497D01*
X107856722Y-136212499D01*
X107936964Y-136234000D01*
X107936967Y-136234000D01*
X108020033Y-136234000D01*
X108020036Y-136234000D01*
X108100278Y-136212499D01*
X108100280Y-136212497D01*
X108100282Y-136212497D01*
X108100283Y-136212496D01*
X108172221Y-136170962D01*
X108230962Y-136112221D01*
X108272499Y-136040278D01*
X108294000Y-135960036D01*
X108294000Y-135884364D01*
X109146700Y-135884364D01*
X109146700Y-135967436D01*
X109166438Y-136041101D01*
X109168202Y-136047682D01*
X109168203Y-136047683D01*
X109205467Y-136112223D01*
X109209738Y-136119621D01*
X109268479Y-136178362D01*
X109304450Y-136199130D01*
X109340416Y-136219896D01*
X109340417Y-136219897D01*
X109340419Y-136219897D01*
X109340422Y-136219899D01*
X109420664Y-136241400D01*
X109420667Y-136241400D01*
X109503733Y-136241400D01*
X109503736Y-136241400D01*
X109583978Y-136219899D01*
X109583980Y-136219897D01*
X109583982Y-136219897D01*
X109583983Y-136219896D01*
X109655921Y-136178362D01*
X109714662Y-136119621D01*
X109756199Y-136047678D01*
X109777700Y-135967436D01*
X109777700Y-135884364D01*
X109756199Y-135804122D01*
X109756197Y-135804119D01*
X109756197Y-135804117D01*
X109756196Y-135804116D01*
X109749642Y-135792764D01*
X111536700Y-135792764D01*
X111536700Y-135875836D01*
X111538986Y-135884366D01*
X111558202Y-135956082D01*
X111558203Y-135956083D01*
X111597876Y-136024796D01*
X111599738Y-136028021D01*
X111658479Y-136086762D01*
X111694450Y-136107530D01*
X111730416Y-136128296D01*
X111730417Y-136128297D01*
X111730419Y-136128297D01*
X111730422Y-136128299D01*
X111810664Y-136149800D01*
X111810667Y-136149800D01*
X111893733Y-136149800D01*
X111893736Y-136149800D01*
X111973978Y-136128299D01*
X111973980Y-136128297D01*
X111973982Y-136128297D01*
X111973983Y-136128296D01*
X112045921Y-136086762D01*
X112104662Y-136028021D01*
X112146199Y-135956078D01*
X112167700Y-135875836D01*
X112167700Y-135792764D01*
X112146199Y-135712522D01*
X112146197Y-135712519D01*
X112146197Y-135712517D01*
X112146196Y-135712516D01*
X112104665Y-135640585D01*
X112104662Y-135640579D01*
X112045921Y-135581838D01*
X112042696Y-135579976D01*
X111973983Y-135540303D01*
X111973982Y-135540302D01*
X111967401Y-135538538D01*
X111893736Y-135518800D01*
X111810664Y-135518800D01*
X111754258Y-135533913D01*
X111730417Y-135540302D01*
X111730416Y-135540303D01*
X111658485Y-135581834D01*
X111658476Y-135581840D01*
X111599740Y-135640576D01*
X111599734Y-135640585D01*
X111558203Y-135712516D01*
X111558202Y-135712517D01*
X111553152Y-135731365D01*
X111536700Y-135792764D01*
X109749642Y-135792764D01*
X109714665Y-135732185D01*
X109714662Y-135732179D01*
X109655921Y-135673438D01*
X109643097Y-135666034D01*
X109583983Y-135631903D01*
X109583982Y-135631902D01*
X109577401Y-135630138D01*
X109503736Y-135610400D01*
X109420664Y-135610400D01*
X109364258Y-135625513D01*
X109340417Y-135631902D01*
X109340416Y-135631903D01*
X109268485Y-135673434D01*
X109268476Y-135673440D01*
X109209740Y-135732176D01*
X109209734Y-135732185D01*
X109168203Y-135804116D01*
X109168202Y-135804117D01*
X109168201Y-135804122D01*
X109146700Y-135884364D01*
X108294000Y-135884364D01*
X108294000Y-135876964D01*
X108272499Y-135796722D01*
X108272497Y-135796719D01*
X108272497Y-135796717D01*
X108272496Y-135796716D01*
X108235234Y-135732179D01*
X108230962Y-135724779D01*
X108172221Y-135666038D01*
X108168996Y-135664176D01*
X108100283Y-135624503D01*
X108100282Y-135624502D01*
X108093701Y-135622738D01*
X108020036Y-135603000D01*
X107936964Y-135603000D01*
X107880558Y-135618113D01*
X107856717Y-135624502D01*
X107856716Y-135624503D01*
X107784785Y-135666034D01*
X107784776Y-135666040D01*
X107726040Y-135724776D01*
X107726034Y-135724785D01*
X107684503Y-135796716D01*
X107684502Y-135796717D01*
X107676159Y-135827853D01*
X107663000Y-135876964D01*
X96300500Y-135876964D01*
X96300500Y-135437364D01*
X99199500Y-135437364D01*
X99199500Y-135520436D01*
X99215952Y-135581834D01*
X99221002Y-135600682D01*
X99221003Y-135600683D01*
X99258735Y-135666034D01*
X99262538Y-135672621D01*
X99321279Y-135731362D01*
X99357250Y-135752130D01*
X99393216Y-135772896D01*
X99393217Y-135772897D01*
X99393219Y-135772897D01*
X99393222Y-135772899D01*
X99473464Y-135794400D01*
X99473467Y-135794400D01*
X99556533Y-135794400D01*
X99556536Y-135794400D01*
X99636778Y-135772899D01*
X99708721Y-135731362D01*
X99767462Y-135672621D01*
X99808999Y-135600678D01*
X99830500Y-135520436D01*
X99830500Y-135437364D01*
X99808999Y-135357122D01*
X99808997Y-135357119D01*
X99808997Y-135357117D01*
X99808996Y-135357116D01*
X99767465Y-135285185D01*
X99767462Y-135285179D01*
X99708721Y-135226438D01*
X99705496Y-135224576D01*
X99636783Y-135184903D01*
X99636782Y-135184902D01*
X99630201Y-135183138D01*
X99556536Y-135163400D01*
X99473464Y-135163400D01*
X99417058Y-135178513D01*
X99393217Y-135184902D01*
X99393216Y-135184903D01*
X99321285Y-135226434D01*
X99321276Y-135226440D01*
X99262540Y-135285176D01*
X99262534Y-135285185D01*
X99221003Y-135357116D01*
X99221002Y-135357117D01*
X99221001Y-135357122D01*
X99199500Y-135437364D01*
X96300500Y-135437364D01*
X96300500Y-134361664D01*
X106829900Y-134361664D01*
X106829900Y-134444736D01*
X106842515Y-134491814D01*
X106851402Y-134524982D01*
X106851403Y-134524983D01*
X106890152Y-134592096D01*
X106892938Y-134596921D01*
X106951679Y-134655662D01*
X106987650Y-134676430D01*
X107023616Y-134697196D01*
X107023617Y-134697197D01*
X107023619Y-134697197D01*
X107023622Y-134697199D01*
X107103864Y-134718700D01*
X107103867Y-134718700D01*
X107186933Y-134718700D01*
X107186936Y-134718700D01*
X107267178Y-134697199D01*
X107267180Y-134697197D01*
X107267182Y-134697197D01*
X107267183Y-134697196D01*
X107339121Y-134655662D01*
X107397862Y-134596921D01*
X107439399Y-134524978D01*
X107460900Y-134444736D01*
X107460900Y-134361664D01*
X107439399Y-134281422D01*
X107425047Y-134256564D01*
X109188800Y-134256564D01*
X109188800Y-134339636D01*
X109208538Y-134413301D01*
X109210302Y-134419882D01*
X109210303Y-134419883D01*
X109249976Y-134488596D01*
X109251838Y-134491821D01*
X109310579Y-134550562D01*
X109346550Y-134571330D01*
X109382516Y-134592096D01*
X109382517Y-134592097D01*
X109382519Y-134592097D01*
X109382522Y-134592099D01*
X109462764Y-134613600D01*
X109462767Y-134613600D01*
X109545833Y-134613600D01*
X109545836Y-134613600D01*
X109626078Y-134592099D01*
X109626080Y-134592097D01*
X109626082Y-134592097D01*
X109626083Y-134592096D01*
X109698021Y-134550562D01*
X109756762Y-134491821D01*
X109798299Y-134419878D01*
X109819800Y-134339636D01*
X109819800Y-134256564D01*
X109798299Y-134176322D01*
X109798297Y-134176319D01*
X109798297Y-134176317D01*
X109798296Y-134176316D01*
X109759547Y-134109203D01*
X109756762Y-134104379D01*
X109698021Y-134045638D01*
X109691193Y-134041696D01*
X109626083Y-134004103D01*
X109626082Y-134004102D01*
X109619501Y-134002338D01*
X109545836Y-133982600D01*
X109462764Y-133982600D01*
X109406358Y-133997713D01*
X109382517Y-134004102D01*
X109382516Y-134004103D01*
X109310585Y-134045634D01*
X109310576Y-134045640D01*
X109251840Y-134104376D01*
X109251834Y-134104385D01*
X109210303Y-134176316D01*
X109210302Y-134176317D01*
X109210301Y-134176322D01*
X109188800Y-134256564D01*
X107425047Y-134256564D01*
X107397862Y-134209479D01*
X107339121Y-134150738D01*
X107335896Y-134148876D01*
X107267183Y-134109203D01*
X107267182Y-134109202D01*
X107260601Y-134107438D01*
X107186936Y-134087700D01*
X107103864Y-134087700D01*
X107047458Y-134102813D01*
X107023617Y-134109202D01*
X107023616Y-134109203D01*
X106951685Y-134150734D01*
X106951676Y-134150740D01*
X106892940Y-134209476D01*
X106892934Y-134209485D01*
X106851403Y-134281416D01*
X106851402Y-134281417D01*
X106851401Y-134281422D01*
X106829900Y-134361664D01*
X96300500Y-134361664D01*
X96300500Y-133758964D01*
X108453300Y-133758964D01*
X108453300Y-133842036D01*
X108473038Y-133915701D01*
X108474802Y-133922282D01*
X108474803Y-133922283D01*
X108514476Y-133990996D01*
X108516338Y-133994221D01*
X108575079Y-134052962D01*
X108611050Y-134073730D01*
X108647016Y-134094496D01*
X108647017Y-134094497D01*
X108647019Y-134094497D01*
X108647022Y-134094499D01*
X108727264Y-134116000D01*
X108727267Y-134116000D01*
X108810333Y-134116000D01*
X108810336Y-134116000D01*
X108890578Y-134094499D01*
X108890580Y-134094497D01*
X108890582Y-134094497D01*
X108890583Y-134094496D01*
X108902354Y-134087700D01*
X108962521Y-134052962D01*
X109021262Y-133994221D01*
X109062799Y-133922278D01*
X109084300Y-133842036D01*
X109084300Y-133758964D01*
X109070152Y-133706164D01*
X111656200Y-133706164D01*
X111656200Y-133789236D01*
X111670347Y-133842033D01*
X111677702Y-133869482D01*
X111677703Y-133869483D01*
X111708188Y-133922282D01*
X111719238Y-133941421D01*
X111777979Y-134000162D01*
X111813950Y-134020930D01*
X111849916Y-134041696D01*
X111849917Y-134041697D01*
X111849919Y-134041697D01*
X111849922Y-134041699D01*
X111930164Y-134063200D01*
X111930167Y-134063200D01*
X112013233Y-134063200D01*
X112013236Y-134063200D01*
X112093478Y-134041699D01*
X112093480Y-134041697D01*
X112093482Y-134041697D01*
X112093483Y-134041696D01*
X112165421Y-134000162D01*
X112224162Y-133941421D01*
X112265699Y-133869478D01*
X112287200Y-133789236D01*
X112287200Y-133706164D01*
X112265699Y-133625922D01*
X112265697Y-133625919D01*
X112265697Y-133625917D01*
X112265696Y-133625916D01*
X112224165Y-133553985D01*
X112224162Y-133553979D01*
X112165421Y-133495238D01*
X112147689Y-133485000D01*
X112093483Y-133453703D01*
X112093482Y-133453702D01*
X112086901Y-133451938D01*
X112013236Y-133432200D01*
X111930164Y-133432200D01*
X111873758Y-133447313D01*
X111849917Y-133453702D01*
X111849916Y-133453703D01*
X111777985Y-133495234D01*
X111777976Y-133495240D01*
X111719240Y-133553976D01*
X111719234Y-133553985D01*
X111677703Y-133625916D01*
X111677702Y-133625917D01*
X111677701Y-133625922D01*
X111656200Y-133706164D01*
X109070152Y-133706164D01*
X109062799Y-133678722D01*
X109062797Y-133678718D01*
X109062796Y-133678716D01*
X109032314Y-133625922D01*
X109021262Y-133606779D01*
X108962521Y-133548038D01*
X108959296Y-133546176D01*
X108890583Y-133506503D01*
X108890582Y-133506502D01*
X108884001Y-133504738D01*
X108810336Y-133485000D01*
X108727264Y-133485000D01*
X108670858Y-133500113D01*
X108647017Y-133506502D01*
X108647016Y-133506503D01*
X108575085Y-133548034D01*
X108575076Y-133548040D01*
X108516340Y-133606776D01*
X108516334Y-133606785D01*
X108474803Y-133678716D01*
X108474802Y-133678717D01*
X108474801Y-133678722D01*
X108453300Y-133758964D01*
X96300500Y-133758964D01*
X96300500Y-133045364D01*
X96749500Y-133045364D01*
X96749500Y-133128436D01*
X96769238Y-133202101D01*
X96771002Y-133208682D01*
X96771003Y-133208683D01*
X96810676Y-133277396D01*
X96812538Y-133280621D01*
X96871279Y-133339362D01*
X96907250Y-133360130D01*
X96943216Y-133380896D01*
X96943217Y-133380897D01*
X96943219Y-133380897D01*
X96943222Y-133380899D01*
X97023464Y-133402400D01*
X97023467Y-133402400D01*
X97106533Y-133402400D01*
X97106536Y-133402400D01*
X97186778Y-133380899D01*
X97186780Y-133380897D01*
X97186782Y-133380897D01*
X97186783Y-133380896D01*
X97258721Y-133339362D01*
X97317462Y-133280621D01*
X97358999Y-133208678D01*
X97380500Y-133128436D01*
X97380500Y-133045364D01*
X97358999Y-132965122D01*
X97358997Y-132965119D01*
X97358997Y-132965117D01*
X97358996Y-132965116D01*
X97338230Y-132929150D01*
X97317462Y-132893179D01*
X97258721Y-132834438D01*
X97252633Y-132830923D01*
X97252631Y-132830921D01*
X97186783Y-132792903D01*
X97186782Y-132792902D01*
X97180201Y-132791138D01*
X97106536Y-132771400D01*
X97023464Y-132771400D01*
X96967058Y-132786513D01*
X96943217Y-132792902D01*
X96943216Y-132792903D01*
X96871285Y-132834434D01*
X96871276Y-132834440D01*
X96812540Y-132893176D01*
X96812534Y-132893185D01*
X96771003Y-132965116D01*
X96771002Y-132965117D01*
X96765702Y-132984897D01*
X96749500Y-133045364D01*
X96300500Y-133045364D01*
X96300500Y-132731664D01*
X104175700Y-132731664D01*
X104175700Y-132814736D01*
X104180980Y-132834440D01*
X104197202Y-132894982D01*
X104197203Y-132894983D01*
X104236876Y-132963696D01*
X104238738Y-132966921D01*
X104297479Y-133025662D01*
X104331603Y-133045364D01*
X104369416Y-133067196D01*
X104369417Y-133067197D01*
X104369419Y-133067197D01*
X104369422Y-133067199D01*
X104449664Y-133088700D01*
X104449667Y-133088700D01*
X104532733Y-133088700D01*
X104532736Y-133088700D01*
X104612978Y-133067199D01*
X104612980Y-133067197D01*
X104612982Y-133067197D01*
X104612983Y-133067196D01*
X104684921Y-133025662D01*
X104743662Y-132966921D01*
X104785199Y-132894978D01*
X104806700Y-132814736D01*
X104806700Y-132731664D01*
X104785199Y-132651422D01*
X104785197Y-132651419D01*
X104785197Y-132651417D01*
X104785196Y-132651416D01*
X104784011Y-132649364D01*
X107038900Y-132649364D01*
X107038900Y-132732436D01*
X107055102Y-132792901D01*
X107060402Y-132812682D01*
X107060403Y-132812683D01*
X107100076Y-132881396D01*
X107101938Y-132884621D01*
X107160679Y-132943362D01*
X107196650Y-132964130D01*
X107232616Y-132984896D01*
X107232617Y-132984897D01*
X107232619Y-132984897D01*
X107232622Y-132984899D01*
X107312864Y-133006400D01*
X107312867Y-133006400D01*
X107395933Y-133006400D01*
X107395936Y-133006400D01*
X107476178Y-132984899D01*
X107476180Y-132984897D01*
X107476182Y-132984897D01*
X107476183Y-132984896D01*
X107548121Y-132943362D01*
X107606862Y-132884621D01*
X107648399Y-132812678D01*
X107669900Y-132732436D01*
X107669900Y-132649364D01*
X107648399Y-132569122D01*
X107648397Y-132569119D01*
X107648397Y-132569117D01*
X107648396Y-132569116D01*
X107606865Y-132497185D01*
X107606862Y-132497179D01*
X107548121Y-132438438D01*
X107544896Y-132436576D01*
X107476183Y-132396903D01*
X107476182Y-132396902D01*
X107469601Y-132395138D01*
X107395936Y-132375400D01*
X107312864Y-132375400D01*
X107256458Y-132390513D01*
X107232617Y-132396902D01*
X107232616Y-132396903D01*
X107160685Y-132438434D01*
X107160676Y-132438440D01*
X107101940Y-132497176D01*
X107101934Y-132497185D01*
X107060403Y-132569116D01*
X107060402Y-132569117D01*
X107057626Y-132579479D01*
X107038900Y-132649364D01*
X104784011Y-132649364D01*
X104743665Y-132579485D01*
X104743662Y-132579479D01*
X104684921Y-132520738D01*
X104681696Y-132518876D01*
X104612983Y-132479203D01*
X104612982Y-132479202D01*
X104606401Y-132477438D01*
X104532736Y-132457700D01*
X104449664Y-132457700D01*
X104393258Y-132472813D01*
X104369417Y-132479202D01*
X104369416Y-132479203D01*
X104297485Y-132520734D01*
X104297476Y-132520740D01*
X104238740Y-132579476D01*
X104238734Y-132579485D01*
X104197203Y-132651416D01*
X104197202Y-132651417D01*
X104197201Y-132651422D01*
X104175700Y-132731664D01*
X96300500Y-132731664D01*
X96300500Y-131724964D01*
X101984500Y-131724964D01*
X101984500Y-131808036D01*
X101992150Y-131836585D01*
X102006002Y-131888282D01*
X102006003Y-131888283D01*
X102030665Y-131930997D01*
X102047538Y-131960221D01*
X102106279Y-132018962D01*
X102142250Y-132039730D01*
X102178216Y-132060496D01*
X102178217Y-132060497D01*
X102178219Y-132060497D01*
X102178222Y-132060499D01*
X102258464Y-132082000D01*
X102258467Y-132082000D01*
X102341533Y-132082000D01*
X102341536Y-132082000D01*
X102421778Y-132060499D01*
X102421780Y-132060497D01*
X102421782Y-132060497D01*
X102421783Y-132060496D01*
X102493721Y-132018962D01*
X102523919Y-131988764D01*
X112034600Y-131988764D01*
X112034600Y-132071836D01*
X112054338Y-132145501D01*
X112056102Y-132152082D01*
X112056103Y-132152083D01*
X112095776Y-132220796D01*
X112097638Y-132224021D01*
X112156379Y-132282762D01*
X112192350Y-132303530D01*
X112228316Y-132324296D01*
X112228317Y-132324297D01*
X112228319Y-132324297D01*
X112228322Y-132324299D01*
X112308564Y-132345800D01*
X112308567Y-132345800D01*
X112391633Y-132345800D01*
X112391636Y-132345800D01*
X112471878Y-132324299D01*
X112471880Y-132324297D01*
X112471882Y-132324297D01*
X112471883Y-132324296D01*
X112543821Y-132282762D01*
X112602562Y-132224021D01*
X112644099Y-132152078D01*
X112665600Y-132071836D01*
X112665600Y-131988764D01*
X112644099Y-131908522D01*
X112644097Y-131908519D01*
X112644097Y-131908517D01*
X112644096Y-131908516D01*
X112602565Y-131836585D01*
X112602562Y-131836579D01*
X112543821Y-131777838D01*
X112540596Y-131775976D01*
X112471883Y-131736303D01*
X112471882Y-131736302D01*
X112465301Y-131734538D01*
X112391636Y-131714800D01*
X112308564Y-131714800D01*
X112252158Y-131729913D01*
X112228317Y-131736302D01*
X112228316Y-131736303D01*
X112156385Y-131777834D01*
X112156376Y-131777840D01*
X112097640Y-131836576D01*
X112097634Y-131836585D01*
X112056103Y-131908516D01*
X112056102Y-131908517D01*
X112056101Y-131908522D01*
X112034600Y-131988764D01*
X102523919Y-131988764D01*
X102552462Y-131960221D01*
X102593999Y-131888278D01*
X102615500Y-131808036D01*
X102615500Y-131724964D01*
X102593999Y-131644722D01*
X102593997Y-131644719D01*
X102593997Y-131644717D01*
X102565559Y-131595464D01*
X105568100Y-131595464D01*
X105568100Y-131678536D01*
X105580541Y-131724966D01*
X105589602Y-131758782D01*
X105589603Y-131758783D01*
X105629276Y-131827496D01*
X105631138Y-131830721D01*
X105689879Y-131889462D01*
X105722881Y-131908516D01*
X105761816Y-131930996D01*
X105761817Y-131930997D01*
X105761819Y-131930997D01*
X105761822Y-131930999D01*
X105842064Y-131952500D01*
X105842067Y-131952500D01*
X105925133Y-131952500D01*
X105925136Y-131952500D01*
X106005378Y-131930999D01*
X106005380Y-131930997D01*
X106005382Y-131930997D01*
X106005383Y-131930996D01*
X106077321Y-131889462D01*
X106136062Y-131830721D01*
X106177599Y-131758778D01*
X106199100Y-131678536D01*
X106199100Y-131595464D01*
X109656200Y-131595464D01*
X109656200Y-131678536D01*
X109668641Y-131724966D01*
X109677702Y-131758782D01*
X109677703Y-131758783D01*
X109717376Y-131827496D01*
X109719238Y-131830721D01*
X109777979Y-131889462D01*
X109810981Y-131908516D01*
X109849916Y-131930996D01*
X109849917Y-131930997D01*
X109849919Y-131930997D01*
X109849922Y-131930999D01*
X109930164Y-131952500D01*
X109930167Y-131952500D01*
X110013233Y-131952500D01*
X110013236Y-131952500D01*
X110093478Y-131930999D01*
X110093480Y-131930997D01*
X110093482Y-131930997D01*
X110093483Y-131930996D01*
X110165421Y-131889462D01*
X110224162Y-131830721D01*
X110265699Y-131758778D01*
X110287200Y-131678536D01*
X110287200Y-131595464D01*
X114134500Y-131595464D01*
X114134500Y-131678536D01*
X114146941Y-131724966D01*
X114156002Y-131758782D01*
X114156003Y-131758783D01*
X114195676Y-131827496D01*
X114197538Y-131830721D01*
X114256279Y-131889462D01*
X114289281Y-131908516D01*
X114328216Y-131930996D01*
X114328217Y-131930997D01*
X114328219Y-131930997D01*
X114328222Y-131930999D01*
X114408464Y-131952500D01*
X114408467Y-131952500D01*
X114491533Y-131952500D01*
X114491536Y-131952500D01*
X114571778Y-131930999D01*
X114571780Y-131930997D01*
X114571782Y-131930997D01*
X114571783Y-131930996D01*
X114643721Y-131889462D01*
X114702462Y-131830721D01*
X114743999Y-131758778D01*
X114765500Y-131678536D01*
X114765500Y-131595464D01*
X114743999Y-131515222D01*
X114743997Y-131515219D01*
X114743997Y-131515217D01*
X114743996Y-131515216D01*
X114719334Y-131472501D01*
X114702462Y-131443279D01*
X114643721Y-131384538D01*
X114640496Y-131382676D01*
X114571783Y-131343003D01*
X114571782Y-131343002D01*
X114565201Y-131341238D01*
X114491536Y-131321500D01*
X114408464Y-131321500D01*
X114352058Y-131336613D01*
X114328217Y-131343002D01*
X114328216Y-131343003D01*
X114256285Y-131384534D01*
X114256276Y-131384540D01*
X114197540Y-131443276D01*
X114197534Y-131443285D01*
X114156003Y-131515216D01*
X114156002Y-131515217D01*
X114156001Y-131515222D01*
X114134500Y-131595464D01*
X110287200Y-131595464D01*
X110265699Y-131515222D01*
X110265697Y-131515219D01*
X110265697Y-131515217D01*
X110265696Y-131515216D01*
X110241034Y-131472501D01*
X110224162Y-131443279D01*
X110165421Y-131384538D01*
X110162196Y-131382676D01*
X110093483Y-131343003D01*
X110093482Y-131343002D01*
X110086901Y-131341238D01*
X110013236Y-131321500D01*
X109930164Y-131321500D01*
X109873758Y-131336613D01*
X109849917Y-131343002D01*
X109849916Y-131343003D01*
X109777985Y-131384534D01*
X109777976Y-131384540D01*
X109719240Y-131443276D01*
X109719234Y-131443285D01*
X109677703Y-131515216D01*
X109677702Y-131515217D01*
X109677701Y-131515222D01*
X109656200Y-131595464D01*
X106199100Y-131595464D01*
X106177599Y-131515222D01*
X106177597Y-131515219D01*
X106177597Y-131515217D01*
X106177596Y-131515216D01*
X106152934Y-131472501D01*
X106136062Y-131443279D01*
X106077321Y-131384538D01*
X106074096Y-131382676D01*
X106005383Y-131343003D01*
X106005382Y-131343002D01*
X105998801Y-131341238D01*
X105925136Y-131321500D01*
X105842064Y-131321500D01*
X105785658Y-131336613D01*
X105761817Y-131343002D01*
X105761816Y-131343003D01*
X105689885Y-131384534D01*
X105689876Y-131384540D01*
X105631140Y-131443276D01*
X105631134Y-131443285D01*
X105589603Y-131515216D01*
X105589602Y-131515217D01*
X105589601Y-131515222D01*
X105568100Y-131595464D01*
X102565559Y-131595464D01*
X102552465Y-131572785D01*
X102552462Y-131572779D01*
X102493721Y-131514038D01*
X102490496Y-131512176D01*
X102421783Y-131472503D01*
X102421782Y-131472502D01*
X102415201Y-131470738D01*
X102341536Y-131451000D01*
X102258464Y-131451000D01*
X102202058Y-131466113D01*
X102178217Y-131472502D01*
X102178216Y-131472503D01*
X102106285Y-131514034D01*
X102106276Y-131514040D01*
X102047540Y-131572776D01*
X102047534Y-131572785D01*
X102006003Y-131644716D01*
X102006002Y-131644717D01*
X102006001Y-131644722D01*
X101984500Y-131724964D01*
X96300500Y-131724964D01*
X96300500Y-129028864D01*
X112127600Y-129028864D01*
X112127600Y-129111936D01*
X112147338Y-129185601D01*
X112149102Y-129192182D01*
X112149103Y-129192183D01*
X112188776Y-129260896D01*
X112190638Y-129264121D01*
X112249379Y-129322862D01*
X112285350Y-129343630D01*
X112321316Y-129364396D01*
X112321317Y-129364397D01*
X112321319Y-129364397D01*
X112321322Y-129364399D01*
X112401564Y-129385900D01*
X112401567Y-129385900D01*
X112484633Y-129385900D01*
X112484636Y-129385900D01*
X112564878Y-129364399D01*
X112564880Y-129364397D01*
X112564882Y-129364397D01*
X112564883Y-129364396D01*
X112636821Y-129322862D01*
X112695562Y-129264121D01*
X112737099Y-129192178D01*
X112758600Y-129111936D01*
X112758600Y-129028864D01*
X112737099Y-128948622D01*
X112737097Y-128948619D01*
X112737097Y-128948617D01*
X112737096Y-128948616D01*
X112695565Y-128876685D01*
X112695562Y-128876679D01*
X112636821Y-128817938D01*
X112633596Y-128816076D01*
X112564883Y-128776403D01*
X112564882Y-128776402D01*
X112558301Y-128774638D01*
X112484636Y-128754900D01*
X112401564Y-128754900D01*
X112345158Y-128770013D01*
X112321317Y-128776402D01*
X112321316Y-128776403D01*
X112249385Y-128817934D01*
X112249376Y-128817940D01*
X112190640Y-128876676D01*
X112190634Y-128876685D01*
X112149103Y-128948616D01*
X112149102Y-128948617D01*
X112149101Y-128948622D01*
X112127600Y-129028864D01*
X96300500Y-129028864D01*
X96300500Y-127174664D01*
X104194600Y-127174664D01*
X104194600Y-127257736D01*
X104214338Y-127331401D01*
X104216102Y-127337982D01*
X104216103Y-127337983D01*
X104254633Y-127404716D01*
X104257638Y-127409921D01*
X104316379Y-127468662D01*
X104344618Y-127484966D01*
X104388316Y-127510196D01*
X104388317Y-127510197D01*
X104388319Y-127510197D01*
X104388322Y-127510199D01*
X104468564Y-127531700D01*
X104468567Y-127531700D01*
X104551633Y-127531700D01*
X104551636Y-127531700D01*
X104631878Y-127510199D01*
X104631880Y-127510197D01*
X104631882Y-127510197D01*
X104631883Y-127510196D01*
X104632120Y-127510059D01*
X104703821Y-127468662D01*
X104762562Y-127409921D01*
X104804099Y-127337978D01*
X104825600Y-127257736D01*
X104825600Y-127216064D01*
X105473600Y-127216064D01*
X105473600Y-127299136D01*
X105493338Y-127372801D01*
X105495102Y-127379382D01*
X105495103Y-127379383D01*
X105512731Y-127409914D01*
X105536638Y-127451321D01*
X105595379Y-127510062D01*
X105631350Y-127530830D01*
X105667316Y-127551596D01*
X105667317Y-127551597D01*
X105667319Y-127551597D01*
X105667322Y-127551599D01*
X105747564Y-127573100D01*
X105747567Y-127573100D01*
X105830633Y-127573100D01*
X105830636Y-127573100D01*
X105910878Y-127551599D01*
X105910880Y-127551597D01*
X105910882Y-127551597D01*
X105910883Y-127551596D01*
X105982821Y-127510062D01*
X106007919Y-127484964D01*
X109211900Y-127484964D01*
X109211900Y-127568036D01*
X109217331Y-127588303D01*
X109233402Y-127648282D01*
X109233403Y-127648283D01*
X109273076Y-127716996D01*
X109274938Y-127720221D01*
X109333679Y-127778962D01*
X109369650Y-127799730D01*
X109405616Y-127820496D01*
X109405617Y-127820497D01*
X109405619Y-127820497D01*
X109405622Y-127820499D01*
X109485864Y-127842000D01*
X109485867Y-127842000D01*
X109568933Y-127842000D01*
X109568936Y-127842000D01*
X109573549Y-127840764D01*
X112560800Y-127840764D01*
X112560800Y-127923836D01*
X112580538Y-127997501D01*
X112582302Y-128004082D01*
X112582303Y-128004083D01*
X112621976Y-128072796D01*
X112623838Y-128076021D01*
X112682579Y-128134762D01*
X112718550Y-128155530D01*
X112754516Y-128176296D01*
X112754517Y-128176297D01*
X112754519Y-128176297D01*
X112754522Y-128176299D01*
X112834764Y-128197800D01*
X112834767Y-128197800D01*
X112917833Y-128197800D01*
X112917836Y-128197800D01*
X112998078Y-128176299D01*
X112998080Y-128176297D01*
X112998082Y-128176297D01*
X112998083Y-128176296D01*
X113070021Y-128134762D01*
X113128762Y-128076021D01*
X113170299Y-128004078D01*
X113191800Y-127923836D01*
X113191800Y-127840764D01*
X113170299Y-127760522D01*
X113170297Y-127760519D01*
X113170297Y-127760517D01*
X113170296Y-127760516D01*
X113128765Y-127688585D01*
X113128762Y-127688579D01*
X113070021Y-127629838D01*
X113066796Y-127627976D01*
X112998083Y-127588303D01*
X112998082Y-127588302D01*
X112991501Y-127586538D01*
X112917836Y-127566800D01*
X112834764Y-127566800D01*
X112778358Y-127581913D01*
X112754517Y-127588302D01*
X112754516Y-127588303D01*
X112682585Y-127629834D01*
X112682576Y-127629840D01*
X112623840Y-127688576D01*
X112623834Y-127688585D01*
X112582303Y-127760516D01*
X112582302Y-127760517D01*
X112582301Y-127760522D01*
X112560800Y-127840764D01*
X109573549Y-127840764D01*
X109649178Y-127820499D01*
X109649180Y-127820497D01*
X109649182Y-127820497D01*
X109649183Y-127820496D01*
X109721121Y-127778962D01*
X109779862Y-127720221D01*
X109821399Y-127648278D01*
X109842900Y-127568036D01*
X109842900Y-127484964D01*
X109821399Y-127404722D01*
X109821397Y-127404719D01*
X109821397Y-127404717D01*
X109821396Y-127404716D01*
X109800630Y-127368750D01*
X109779862Y-127332779D01*
X109721121Y-127274038D01*
X109692886Y-127257736D01*
X109649183Y-127232503D01*
X109649182Y-127232502D01*
X109642601Y-127230738D01*
X109568936Y-127211000D01*
X109485864Y-127211000D01*
X109429458Y-127226113D01*
X109405617Y-127232502D01*
X109405616Y-127232503D01*
X109333685Y-127274034D01*
X109333676Y-127274040D01*
X109274940Y-127332776D01*
X109274934Y-127332785D01*
X109233403Y-127404716D01*
X109233402Y-127404717D01*
X109233401Y-127404722D01*
X109211900Y-127484964D01*
X106007919Y-127484964D01*
X106041562Y-127451321D01*
X106083099Y-127379378D01*
X106104600Y-127299136D01*
X106104600Y-127216064D01*
X106083099Y-127135822D01*
X106083097Y-127135819D01*
X106083097Y-127135817D01*
X106083096Y-127135816D01*
X106041565Y-127063885D01*
X106041562Y-127063879D01*
X105982821Y-127005138D01*
X105979596Y-127003276D01*
X105910883Y-126963603D01*
X105910882Y-126963602D01*
X105904301Y-126961838D01*
X105830636Y-126942100D01*
X105747564Y-126942100D01*
X105691158Y-126957213D01*
X105667317Y-126963602D01*
X105667316Y-126963603D01*
X105595385Y-127005134D01*
X105595376Y-127005140D01*
X105536640Y-127063876D01*
X105536634Y-127063885D01*
X105495103Y-127135816D01*
X105495102Y-127135817D01*
X105495101Y-127135822D01*
X105473600Y-127216064D01*
X104825600Y-127216064D01*
X104825600Y-127174664D01*
X104804099Y-127094422D01*
X104804097Y-127094419D01*
X104804097Y-127094417D01*
X104804096Y-127094416D01*
X104762565Y-127022485D01*
X104762562Y-127022479D01*
X104703821Y-126963738D01*
X104666344Y-126942100D01*
X104631883Y-126922203D01*
X104631882Y-126922202D01*
X104625301Y-126920438D01*
X104551636Y-126900700D01*
X104468564Y-126900700D01*
X104412158Y-126915813D01*
X104388317Y-126922202D01*
X104388316Y-126922203D01*
X104316385Y-126963734D01*
X104316376Y-126963740D01*
X104257640Y-127022476D01*
X104257634Y-127022485D01*
X104216103Y-127094416D01*
X104216102Y-127094417D01*
X104214821Y-127099199D01*
X104194600Y-127174664D01*
X96300500Y-127174664D01*
X96300500Y-126763664D01*
X101223100Y-126763664D01*
X101223100Y-126846736D01*
X101237560Y-126900700D01*
X101244602Y-126926982D01*
X101244603Y-126926983D01*
X101284276Y-126995696D01*
X101286138Y-126998921D01*
X101344879Y-127057662D01*
X101380850Y-127078430D01*
X101416816Y-127099196D01*
X101416817Y-127099197D01*
X101416819Y-127099197D01*
X101416822Y-127099199D01*
X101497064Y-127120700D01*
X101497067Y-127120700D01*
X101580133Y-127120700D01*
X101580136Y-127120700D01*
X101660378Y-127099199D01*
X101660380Y-127099197D01*
X101660382Y-127099197D01*
X101660383Y-127099196D01*
X101668652Y-127094422D01*
X101732321Y-127057662D01*
X101791062Y-126998921D01*
X101832599Y-126926978D01*
X101854100Y-126846736D01*
X101854100Y-126763664D01*
X101832599Y-126683422D01*
X101832597Y-126683419D01*
X101832597Y-126683417D01*
X101832596Y-126683416D01*
X101791456Y-126612162D01*
X101791062Y-126611479D01*
X101732321Y-126552738D01*
X101729096Y-126550876D01*
X101660383Y-126511203D01*
X101660382Y-126511202D01*
X101653801Y-126509438D01*
X101580136Y-126489700D01*
X101497064Y-126489700D01*
X101440658Y-126504813D01*
X101416817Y-126511202D01*
X101416816Y-126511203D01*
X101344885Y-126552734D01*
X101344876Y-126552740D01*
X101286140Y-126611476D01*
X101286134Y-126611485D01*
X101244603Y-126683416D01*
X101244602Y-126683417D01*
X101244601Y-126683422D01*
X101223100Y-126763664D01*
X96300500Y-126763664D01*
X96300500Y-126318164D01*
X109136600Y-126318164D01*
X109136600Y-126401236D01*
X109156338Y-126474901D01*
X109158102Y-126481482D01*
X109158103Y-126481483D01*
X109175262Y-126511202D01*
X109199638Y-126553421D01*
X109258379Y-126612162D01*
X109294350Y-126632930D01*
X109330316Y-126653696D01*
X109330317Y-126653697D01*
X109330319Y-126653697D01*
X109330322Y-126653699D01*
X109410564Y-126675200D01*
X109410567Y-126675200D01*
X109493633Y-126675200D01*
X109493636Y-126675200D01*
X109573878Y-126653699D01*
X109573880Y-126653697D01*
X109573882Y-126653697D01*
X109573883Y-126653696D01*
X109645821Y-126612162D01*
X109704562Y-126553421D01*
X109746099Y-126481478D01*
X109767600Y-126401236D01*
X109767600Y-126318164D01*
X109767599Y-126318162D01*
X109766539Y-126310108D01*
X109768379Y-126309865D01*
X109769798Y-126250307D01*
X109808961Y-126192445D01*
X109849910Y-126171335D01*
X109849774Y-126171007D01*
X109853708Y-126169377D01*
X109855817Y-126168290D01*
X109857278Y-126167899D01*
X109857280Y-126167897D01*
X109857282Y-126167897D01*
X109857283Y-126167896D01*
X109860603Y-126165979D01*
X109929221Y-126126362D01*
X109987962Y-126067621D01*
X110029499Y-125995678D01*
X110051000Y-125915436D01*
X110051000Y-125832364D01*
X110029499Y-125752122D01*
X110029497Y-125752119D01*
X110029497Y-125752117D01*
X110029496Y-125752116D01*
X109995430Y-125693114D01*
X109987962Y-125680179D01*
X109929221Y-125621438D01*
X109925307Y-125619178D01*
X109857283Y-125579903D01*
X109857282Y-125579902D01*
X109850701Y-125578138D01*
X109777036Y-125558400D01*
X109693964Y-125558400D01*
X109637558Y-125573513D01*
X109613717Y-125579902D01*
X109613716Y-125579903D01*
X109541785Y-125621434D01*
X109541776Y-125621440D01*
X109483040Y-125680176D01*
X109483034Y-125680185D01*
X109441503Y-125752116D01*
X109441502Y-125752117D01*
X109441501Y-125752122D01*
X109420000Y-125832364D01*
X109420000Y-125832366D01*
X109420000Y-125915434D01*
X109421061Y-125923492D01*
X109419222Y-125923734D01*
X109417797Y-125983306D01*
X109378627Y-126041163D01*
X109337690Y-126062266D01*
X109337826Y-126062593D01*
X109333912Y-126064213D01*
X109331794Y-126065306D01*
X109330324Y-126065699D01*
X109330316Y-126065703D01*
X109258385Y-126107234D01*
X109258376Y-126107240D01*
X109199640Y-126165976D01*
X109199634Y-126165985D01*
X109158103Y-126237916D01*
X109158102Y-126237917D01*
X109158101Y-126237922D01*
X109136600Y-126318164D01*
X96300500Y-126318164D01*
X96300500Y-125141864D01*
X103698500Y-125141864D01*
X103698500Y-125224936D01*
X103718238Y-125298601D01*
X103720002Y-125305182D01*
X103720003Y-125305183D01*
X103731792Y-125325601D01*
X103761538Y-125377121D01*
X103820279Y-125435862D01*
X103844311Y-125449737D01*
X103892216Y-125477396D01*
X103892217Y-125477397D01*
X103892219Y-125477397D01*
X103892222Y-125477399D01*
X103972464Y-125498900D01*
X103972467Y-125498900D01*
X104055533Y-125498900D01*
X104055536Y-125498900D01*
X104135778Y-125477399D01*
X104135780Y-125477397D01*
X104135782Y-125477397D01*
X104135783Y-125477396D01*
X104173077Y-125455864D01*
X107343600Y-125455864D01*
X107343600Y-125538936D01*
X107363338Y-125612601D01*
X107365102Y-125619182D01*
X107365103Y-125619183D01*
X107400324Y-125680185D01*
X107406638Y-125691121D01*
X107465379Y-125749862D01*
X107501350Y-125770630D01*
X107537316Y-125791396D01*
X107537317Y-125791397D01*
X107537319Y-125791397D01*
X107537322Y-125791399D01*
X107617564Y-125812900D01*
X107617567Y-125812900D01*
X107700633Y-125812900D01*
X107700636Y-125812900D01*
X107780878Y-125791399D01*
X107780880Y-125791397D01*
X107780882Y-125791397D01*
X107780883Y-125791396D01*
X107852821Y-125749862D01*
X107911562Y-125691121D01*
X107953099Y-125619178D01*
X107974600Y-125538936D01*
X107974600Y-125455864D01*
X107953099Y-125375622D01*
X107924219Y-125325601D01*
X107907746Y-125257700D01*
X107930598Y-125191673D01*
X107985519Y-125148483D01*
X108031606Y-125139600D01*
X108077333Y-125139600D01*
X108077336Y-125139600D01*
X108157578Y-125118099D01*
X108157580Y-125118097D01*
X108157582Y-125118097D01*
X108157583Y-125118096D01*
X108229521Y-125076562D01*
X108288262Y-125017821D01*
X108329799Y-124945878D01*
X108351300Y-124865636D01*
X108351300Y-124782564D01*
X108329799Y-124702322D01*
X108329797Y-124702319D01*
X108329797Y-124702317D01*
X108329796Y-124702316D01*
X108288265Y-124630385D01*
X108288262Y-124630379D01*
X108229521Y-124571638D01*
X108226296Y-124569776D01*
X108157583Y-124530103D01*
X108157582Y-124530102D01*
X108151001Y-124528338D01*
X108077336Y-124508600D01*
X107994264Y-124508600D01*
X107937858Y-124523713D01*
X107914017Y-124530102D01*
X107914016Y-124530103D01*
X107842085Y-124571634D01*
X107842076Y-124571640D01*
X107783340Y-124630376D01*
X107783334Y-124630385D01*
X107741803Y-124702316D01*
X107741802Y-124702317D01*
X107741801Y-124702322D01*
X107720300Y-124782564D01*
X107720300Y-124865636D01*
X107741801Y-124945878D01*
X107741804Y-124945883D01*
X107770681Y-124995899D01*
X107787154Y-125063800D01*
X107764302Y-125129827D01*
X107709381Y-125173017D01*
X107663294Y-125181900D01*
X107617564Y-125181900D01*
X107561894Y-125196817D01*
X107537317Y-125203402D01*
X107537316Y-125203403D01*
X107465385Y-125244934D01*
X107465376Y-125244940D01*
X107406640Y-125303676D01*
X107406634Y-125303685D01*
X107365103Y-125375616D01*
X107365102Y-125375617D01*
X107364566Y-125377617D01*
X107343600Y-125455864D01*
X104173077Y-125455864D01*
X104207721Y-125435862D01*
X104266462Y-125377121D01*
X104267328Y-125375622D01*
X104307996Y-125305183D01*
X104307997Y-125305182D01*
X104307997Y-125305180D01*
X104307999Y-125305178D01*
X104329500Y-125224936D01*
X104329500Y-125141864D01*
X104307999Y-125061622D01*
X104307997Y-125061619D01*
X104307997Y-125061617D01*
X104307996Y-125061616D01*
X104266465Y-124989685D01*
X104266462Y-124989679D01*
X104207721Y-124930938D01*
X104204496Y-124929076D01*
X104135783Y-124889403D01*
X104135782Y-124889402D01*
X104129201Y-124887638D01*
X104055536Y-124867900D01*
X103972464Y-124867900D01*
X103916058Y-124883013D01*
X103892217Y-124889402D01*
X103892216Y-124889403D01*
X103820285Y-124930934D01*
X103820276Y-124930940D01*
X103761540Y-124989676D01*
X103761534Y-124989685D01*
X103720003Y-125061616D01*
X103720002Y-125061617D01*
X103715998Y-125076562D01*
X103698500Y-125141864D01*
X96300500Y-125141864D01*
X96300500Y-124578864D01*
X106788400Y-124578864D01*
X106788400Y-124661936D01*
X106799222Y-124702322D01*
X106809902Y-124742182D01*
X106809903Y-124742183D01*
X106833218Y-124782564D01*
X106851438Y-124814121D01*
X106910179Y-124872862D01*
X106946150Y-124893630D01*
X106982116Y-124914396D01*
X106982117Y-124914397D01*
X106982119Y-124914397D01*
X106982122Y-124914399D01*
X107062364Y-124935900D01*
X107062367Y-124935900D01*
X107145433Y-124935900D01*
X107145436Y-124935900D01*
X107225678Y-124914399D01*
X107225680Y-124914397D01*
X107225682Y-124914397D01*
X107225683Y-124914396D01*
X107297621Y-124872862D01*
X107356362Y-124814121D01*
X107397899Y-124742178D01*
X107419400Y-124661936D01*
X107419400Y-124578864D01*
X107397899Y-124498622D01*
X107397897Y-124498619D01*
X107397897Y-124498617D01*
X107397896Y-124498616D01*
X107356365Y-124426685D01*
X107356362Y-124426679D01*
X107297621Y-124367938D01*
X107294396Y-124366076D01*
X107225683Y-124326403D01*
X107225682Y-124326402D01*
X107219101Y-124324638D01*
X107145436Y-124304900D01*
X107062364Y-124304900D01*
X107005958Y-124320013D01*
X106982117Y-124326402D01*
X106982116Y-124326403D01*
X106910185Y-124367934D01*
X106910176Y-124367940D01*
X106851440Y-124426676D01*
X106851434Y-124426685D01*
X106809903Y-124498616D01*
X106809902Y-124498617D01*
X106809901Y-124498622D01*
X106788400Y-124578864D01*
X96300500Y-124578864D01*
X96300500Y-122717864D01*
X105951900Y-122717864D01*
X105951900Y-122800936D01*
X105967903Y-122860658D01*
X105973402Y-122881182D01*
X105973403Y-122881183D01*
X106005387Y-122936579D01*
X106014938Y-122953121D01*
X106073679Y-123011862D01*
X106109650Y-123032630D01*
X106145616Y-123053396D01*
X106145617Y-123053397D01*
X106145619Y-123053397D01*
X106145622Y-123053399D01*
X106225864Y-123074900D01*
X106225867Y-123074900D01*
X106308933Y-123074900D01*
X106308936Y-123074900D01*
X106389178Y-123053399D01*
X106389180Y-123053397D01*
X106389182Y-123053397D01*
X106389183Y-123053396D01*
X106461121Y-123011862D01*
X106519862Y-122953121D01*
X106519862Y-122953120D01*
X106525609Y-122947374D01*
X106527852Y-122949617D01*
X106572211Y-122917217D01*
X106614176Y-122909900D01*
X108116298Y-122909900D01*
X108183337Y-122929585D01*
X108203979Y-122946219D01*
X110618371Y-125360610D01*
X110651856Y-125421933D01*
X110653018Y-125449737D01*
X110654500Y-125449737D01*
X110654500Y-125457864D01*
X110654500Y-125540936D01*
X110674238Y-125614601D01*
X110676002Y-125621182D01*
X110676003Y-125621183D01*
X110710064Y-125680176D01*
X110717538Y-125693121D01*
X110776279Y-125751862D01*
X110812250Y-125772630D01*
X110848216Y-125793396D01*
X110848217Y-125793397D01*
X110848219Y-125793397D01*
X110848222Y-125793399D01*
X110928464Y-125814900D01*
X110928467Y-125814900D01*
X111011533Y-125814900D01*
X111011536Y-125814900D01*
X111091778Y-125793399D01*
X111091780Y-125793397D01*
X111091782Y-125793397D01*
X111091783Y-125793396D01*
X111095242Y-125791399D01*
X111163721Y-125751862D01*
X111222462Y-125693121D01*
X111263999Y-125621178D01*
X111285500Y-125540936D01*
X111285500Y-125457864D01*
X111263999Y-125377622D01*
X111263997Y-125377619D01*
X111263997Y-125377617D01*
X111263996Y-125377616D01*
X111222465Y-125305685D01*
X111222462Y-125305679D01*
X111163721Y-125246938D01*
X111160250Y-125244934D01*
X111091783Y-125205403D01*
X111091782Y-125205402D01*
X111084314Y-125203401D01*
X111011536Y-125183900D01*
X110928464Y-125183900D01*
X110920337Y-125183900D01*
X110920337Y-125180735D01*
X110866013Y-125172250D01*
X110831210Y-125147771D01*
X108315255Y-122631814D01*
X108315253Y-122631813D01*
X108315252Y-122631812D01*
X108280705Y-122617503D01*
X108259936Y-122608900D01*
X108258707Y-122608900D01*
X106614176Y-122608900D01*
X106547137Y-122589215D01*
X106526660Y-122570374D01*
X106525609Y-122571426D01*
X106461123Y-122506940D01*
X106461121Y-122506938D01*
X106457896Y-122505076D01*
X106444019Y-122497064D01*
X113350000Y-122497064D01*
X113350000Y-122580136D01*
X113369738Y-122653801D01*
X113371502Y-122660382D01*
X113371503Y-122660383D01*
X113404691Y-122717864D01*
X113413038Y-122732321D01*
X113413040Y-122732323D01*
X113427636Y-122746919D01*
X113461121Y-122808242D01*
X113456137Y-122877934D01*
X113427636Y-122922281D01*
X113413340Y-122936576D01*
X113413334Y-122936585D01*
X113371803Y-123008516D01*
X113371802Y-123008517D01*
X113371801Y-123008522D01*
X113350300Y-123088764D01*
X113350300Y-123171836D01*
X113370038Y-123245501D01*
X113371802Y-123252082D01*
X113371803Y-123252083D01*
X113411476Y-123320796D01*
X113413338Y-123324021D01*
X113472079Y-123382762D01*
X113508050Y-123403530D01*
X113544016Y-123424296D01*
X113544017Y-123424297D01*
X113544019Y-123424297D01*
X113544022Y-123424299D01*
X113624264Y-123445800D01*
X113624267Y-123445800D01*
X113707333Y-123445800D01*
X113707336Y-123445800D01*
X113787578Y-123424299D01*
X113787580Y-123424297D01*
X113787582Y-123424297D01*
X113787583Y-123424296D01*
X113859521Y-123382762D01*
X113918262Y-123324021D01*
X113959799Y-123252078D01*
X113981300Y-123171836D01*
X113981300Y-123088764D01*
X113959799Y-123008522D01*
X113959797Y-123008519D01*
X113959797Y-123008517D01*
X113959796Y-123008516D01*
X113927814Y-122953123D01*
X113918262Y-122936579D01*
X113903664Y-122921981D01*
X113870179Y-122860658D01*
X113875163Y-122790966D01*
X113903664Y-122746619D01*
X113917962Y-122732321D01*
X113959499Y-122660378D01*
X113981000Y-122580136D01*
X113981000Y-122514990D01*
X114000685Y-122447951D01*
X114053489Y-122402196D01*
X114122647Y-122392252D01*
X114156289Y-122403897D01*
X114156708Y-122402887D01*
X114164217Y-122405997D01*
X114164219Y-122405997D01*
X114164222Y-122405999D01*
X114244464Y-122427500D01*
X114244467Y-122427500D01*
X114327533Y-122427500D01*
X114327536Y-122427500D01*
X114407778Y-122405999D01*
X114407780Y-122405997D01*
X114407782Y-122405997D01*
X114407783Y-122405996D01*
X114479721Y-122364462D01*
X114538462Y-122305721D01*
X114579999Y-122233778D01*
X114601500Y-122153536D01*
X114601500Y-122070464D01*
X114579999Y-121990222D01*
X114579997Y-121990219D01*
X114579997Y-121990217D01*
X114579996Y-121990216D01*
X114540764Y-121922266D01*
X114538462Y-121918279D01*
X114479721Y-121859538D01*
X114476496Y-121857676D01*
X114407783Y-121818003D01*
X114407782Y-121818002D01*
X114398452Y-121815502D01*
X114327536Y-121796500D01*
X114244464Y-121796500D01*
X114188058Y-121811613D01*
X114164217Y-121818002D01*
X114164212Y-121818004D01*
X114157486Y-121821888D01*
X114089585Y-121838357D01*
X114023560Y-121815502D01*
X113980372Y-121760578D01*
X113973734Y-121691024D01*
X113975712Y-121682425D01*
X113983400Y-121653736D01*
X113983400Y-121570664D01*
X113961899Y-121490422D01*
X113961897Y-121490419D01*
X113961897Y-121490417D01*
X113961896Y-121490416D01*
X113920365Y-121418485D01*
X113920362Y-121418479D01*
X113861621Y-121359738D01*
X113858396Y-121357876D01*
X113789683Y-121318203D01*
X113789682Y-121318202D01*
X113783101Y-121316438D01*
X113709436Y-121296700D01*
X113626364Y-121296700D01*
X113569958Y-121311813D01*
X113546117Y-121318202D01*
X113546116Y-121318203D01*
X113474185Y-121359734D01*
X113474176Y-121359740D01*
X113415440Y-121418476D01*
X113415434Y-121418485D01*
X113373903Y-121490416D01*
X113373902Y-121490417D01*
X113373901Y-121490422D01*
X113352400Y-121570664D01*
X113352400Y-121653736D01*
X113367835Y-121711338D01*
X113373902Y-121733982D01*
X113373903Y-121733983D01*
X113409999Y-121796500D01*
X113415438Y-121805921D01*
X113474179Y-121864662D01*
X113510150Y-121885430D01*
X113546116Y-121906196D01*
X113546117Y-121906197D01*
X113546119Y-121906197D01*
X113546122Y-121906199D01*
X113626364Y-121927700D01*
X113626367Y-121927700D01*
X113709433Y-121927700D01*
X113709436Y-121927700D01*
X113789678Y-121906199D01*
X113796403Y-121902315D01*
X113864303Y-121885841D01*
X113930331Y-121908691D01*
X113973523Y-121963611D01*
X113981856Y-122021375D01*
X113980875Y-122031742D01*
X113970500Y-122070464D01*
X113970500Y-122141456D01*
X113969949Y-122147283D01*
X113959076Y-122174514D01*
X113950815Y-122202648D01*
X113946270Y-122206585D01*
X113944040Y-122212172D01*
X113920167Y-122229204D01*
X113898011Y-122248403D01*
X113892059Y-122249258D01*
X113887163Y-122252752D01*
X113857876Y-122254173D01*
X113828853Y-122258347D01*
X113821847Y-122255922D01*
X113817376Y-122256140D01*
X113809705Y-122251721D01*
X113795209Y-122246704D01*
X113794792Y-122247713D01*
X113787282Y-122244602D01*
X113780701Y-122242838D01*
X113707036Y-122223100D01*
X113623964Y-122223100D01*
X113567558Y-122238213D01*
X113543717Y-122244602D01*
X113543716Y-122244603D01*
X113471785Y-122286134D01*
X113471776Y-122286140D01*
X113413040Y-122344876D01*
X113413034Y-122344885D01*
X113371503Y-122416816D01*
X113371502Y-122416817D01*
X113371501Y-122416822D01*
X113350000Y-122497064D01*
X106444019Y-122497064D01*
X106389183Y-122465403D01*
X106389182Y-122465402D01*
X106382601Y-122463638D01*
X106308936Y-122443900D01*
X106225864Y-122443900D01*
X106169458Y-122459013D01*
X106145617Y-122465402D01*
X106145616Y-122465403D01*
X106073685Y-122506934D01*
X106073676Y-122506940D01*
X106014940Y-122565676D01*
X106014934Y-122565685D01*
X105973403Y-122637616D01*
X105973402Y-122637617D01*
X105973401Y-122637622D01*
X105951900Y-122717864D01*
X96300500Y-122717864D01*
X96300500Y-121922264D01*
X101134500Y-121922264D01*
X101134500Y-122005336D01*
X101138798Y-122021375D01*
X101156002Y-122085582D01*
X101156003Y-122085583D01*
X101191627Y-122147283D01*
X101197538Y-122157521D01*
X101256279Y-122216262D01*
X101268123Y-122223100D01*
X101328216Y-122257796D01*
X101328217Y-122257797D01*
X101328219Y-122257797D01*
X101328222Y-122257799D01*
X101408464Y-122279300D01*
X101408467Y-122279300D01*
X101491533Y-122279300D01*
X101491536Y-122279300D01*
X101571778Y-122257799D01*
X101571780Y-122257797D01*
X101571782Y-122257797D01*
X101571783Y-122257796D01*
X101578058Y-122254173D01*
X101643721Y-122216262D01*
X101702462Y-122157521D01*
X101743999Y-122085578D01*
X101765500Y-122005336D01*
X101765500Y-121922264D01*
X103796600Y-121922264D01*
X103796600Y-122005336D01*
X103800898Y-122021375D01*
X103818102Y-122085582D01*
X103818103Y-122085583D01*
X103853727Y-122147283D01*
X103859638Y-122157521D01*
X103918379Y-122216262D01*
X103930223Y-122223100D01*
X103990316Y-122257796D01*
X103990317Y-122257797D01*
X103990319Y-122257797D01*
X103990322Y-122257799D01*
X104070564Y-122279300D01*
X104070567Y-122279300D01*
X104153633Y-122279300D01*
X104153636Y-122279300D01*
X104233878Y-122257799D01*
X104233880Y-122257797D01*
X104233882Y-122257797D01*
X104233883Y-122257796D01*
X104240158Y-122254173D01*
X104305821Y-122216262D01*
X104364562Y-122157521D01*
X104406099Y-122085578D01*
X104427600Y-122005336D01*
X104427600Y-121922264D01*
X104406099Y-121842022D01*
X104406097Y-121842019D01*
X104406097Y-121842017D01*
X104406096Y-121842016D01*
X104364565Y-121770085D01*
X104364562Y-121770079D01*
X104305821Y-121711338D01*
X104270637Y-121691024D01*
X104233883Y-121669803D01*
X104233882Y-121669802D01*
X104227301Y-121668038D01*
X104153636Y-121648300D01*
X104070564Y-121648300D01*
X104014158Y-121663413D01*
X103990317Y-121669802D01*
X103990316Y-121669803D01*
X103918385Y-121711334D01*
X103918376Y-121711340D01*
X103859640Y-121770076D01*
X103859634Y-121770085D01*
X103818103Y-121842016D01*
X103818102Y-121842017D01*
X103812034Y-121864665D01*
X103796600Y-121922264D01*
X101765500Y-121922264D01*
X101743999Y-121842022D01*
X101743997Y-121842019D01*
X101743997Y-121842017D01*
X101743996Y-121842016D01*
X101702465Y-121770085D01*
X101702462Y-121770079D01*
X101643721Y-121711338D01*
X101608537Y-121691024D01*
X101571783Y-121669803D01*
X101571782Y-121669802D01*
X101565201Y-121668038D01*
X101491536Y-121648300D01*
X101408464Y-121648300D01*
X101352058Y-121663413D01*
X101328217Y-121669802D01*
X101328216Y-121669803D01*
X101256285Y-121711334D01*
X101256276Y-121711340D01*
X101197540Y-121770076D01*
X101197534Y-121770085D01*
X101156003Y-121842016D01*
X101156002Y-121842017D01*
X101149934Y-121864665D01*
X101134500Y-121922264D01*
X96300500Y-121922264D01*
X96300500Y-120930364D01*
X108263800Y-120930364D01*
X108263800Y-121013436D01*
X108283538Y-121087101D01*
X108285302Y-121093682D01*
X108285303Y-121093683D01*
X108324976Y-121162396D01*
X108326838Y-121165621D01*
X108385579Y-121224362D01*
X108421550Y-121245130D01*
X108457516Y-121265896D01*
X108457517Y-121265897D01*
X108457519Y-121265897D01*
X108457522Y-121265899D01*
X108537764Y-121287400D01*
X108537767Y-121287400D01*
X108620833Y-121287400D01*
X108620836Y-121287400D01*
X108701078Y-121265899D01*
X108701080Y-121265897D01*
X108701082Y-121265897D01*
X108701083Y-121265896D01*
X108773021Y-121224362D01*
X108831762Y-121165621D01*
X108873299Y-121093678D01*
X108894800Y-121013436D01*
X108894800Y-120930364D01*
X108873299Y-120850122D01*
X108873297Y-120850119D01*
X108873297Y-120850117D01*
X108873296Y-120850116D01*
X108831765Y-120778185D01*
X108831762Y-120778179D01*
X108773021Y-120719438D01*
X108769796Y-120717576D01*
X108701083Y-120677903D01*
X108701082Y-120677902D01*
X108694501Y-120676138D01*
X108620836Y-120656400D01*
X108537764Y-120656400D01*
X108481358Y-120671513D01*
X108457517Y-120677902D01*
X108457516Y-120677903D01*
X108385585Y-120719434D01*
X108385576Y-120719440D01*
X108326840Y-120778176D01*
X108326834Y-120778185D01*
X108285303Y-120850116D01*
X108285302Y-120850117D01*
X108285301Y-120850122D01*
X108263800Y-120930364D01*
X96300500Y-120930364D01*
X96300500Y-120200564D01*
X109170300Y-120200564D01*
X109170300Y-120283636D01*
X109190038Y-120357301D01*
X109191802Y-120363882D01*
X109191803Y-120363883D01*
X109231476Y-120432596D01*
X109233338Y-120435821D01*
X109292079Y-120494562D01*
X109328050Y-120515330D01*
X109364016Y-120536096D01*
X109364017Y-120536097D01*
X109364019Y-120536097D01*
X109364022Y-120536099D01*
X109444264Y-120557600D01*
X109444267Y-120557600D01*
X109527333Y-120557600D01*
X109527336Y-120557600D01*
X109607578Y-120536099D01*
X109607580Y-120536097D01*
X109607582Y-120536097D01*
X109607583Y-120536096D01*
X109679521Y-120494562D01*
X109738262Y-120435821D01*
X109779799Y-120363878D01*
X109801300Y-120283636D01*
X109801300Y-120200564D01*
X109779799Y-120120322D01*
X109779797Y-120120319D01*
X109779797Y-120120317D01*
X109779796Y-120120316D01*
X109738265Y-120048385D01*
X109738262Y-120048379D01*
X109679521Y-119989638D01*
X109676296Y-119987776D01*
X109607583Y-119948103D01*
X109607582Y-119948102D01*
X109601001Y-119946338D01*
X109527336Y-119926600D01*
X109444264Y-119926600D01*
X109387858Y-119941713D01*
X109364017Y-119948102D01*
X109364016Y-119948103D01*
X109292085Y-119989634D01*
X109292076Y-119989640D01*
X109233340Y-120048376D01*
X109233334Y-120048385D01*
X109191803Y-120120316D01*
X109191802Y-120120317D01*
X109191801Y-120120322D01*
X109170300Y-120200564D01*
X96300500Y-120200564D01*
X96300500Y-119336364D01*
X108547800Y-119336364D01*
X108547800Y-119419436D01*
X108567538Y-119493101D01*
X108569302Y-119499682D01*
X108569303Y-119499683D01*
X108608976Y-119568396D01*
X108610838Y-119571621D01*
X108669579Y-119630362D01*
X108705550Y-119651130D01*
X108741516Y-119671896D01*
X108741517Y-119671897D01*
X108741519Y-119671897D01*
X108741522Y-119671899D01*
X108821764Y-119693400D01*
X108821767Y-119693400D01*
X108904833Y-119693400D01*
X108904836Y-119693400D01*
X108985078Y-119671899D01*
X108985080Y-119671897D01*
X108985082Y-119671897D01*
X108985083Y-119671896D01*
X109057021Y-119630362D01*
X109115762Y-119571621D01*
X109157299Y-119499678D01*
X109178800Y-119419436D01*
X109178800Y-119336364D01*
X109157299Y-119256122D01*
X109157297Y-119256119D01*
X109157297Y-119256117D01*
X109157296Y-119256116D01*
X109115765Y-119184185D01*
X109115762Y-119184179D01*
X109057021Y-119125438D01*
X109038016Y-119114465D01*
X108985083Y-119083903D01*
X108985082Y-119083902D01*
X108978501Y-119082138D01*
X108904836Y-119062400D01*
X108821764Y-119062400D01*
X108765358Y-119077513D01*
X108741517Y-119083902D01*
X108741516Y-119083903D01*
X108669585Y-119125434D01*
X108669576Y-119125440D01*
X108610840Y-119184176D01*
X108610834Y-119184185D01*
X108569303Y-119256116D01*
X108569302Y-119256117D01*
X108569301Y-119256122D01*
X108547800Y-119336364D01*
X96300500Y-119336364D01*
X96300500Y-118820464D01*
X105557500Y-118820464D01*
X105557500Y-118903536D01*
X105577238Y-118977201D01*
X105579002Y-118983782D01*
X105579003Y-118983783D01*
X105618676Y-119052496D01*
X105620538Y-119055721D01*
X105679279Y-119114462D01*
X105715250Y-119135230D01*
X105751216Y-119155996D01*
X105751217Y-119155997D01*
X105751219Y-119155997D01*
X105751222Y-119155999D01*
X105831464Y-119177500D01*
X105831467Y-119177500D01*
X105914533Y-119177500D01*
X105914536Y-119177500D01*
X105994778Y-119155999D01*
X105994780Y-119155997D01*
X105994782Y-119155997D01*
X105994783Y-119155996D01*
X106066721Y-119114462D01*
X106125462Y-119055721D01*
X106166999Y-118983778D01*
X106188500Y-118903536D01*
X106188500Y-118820464D01*
X110720500Y-118820464D01*
X110720500Y-118903536D01*
X110740238Y-118977201D01*
X110742002Y-118983782D01*
X110742003Y-118983783D01*
X110781676Y-119052496D01*
X110783538Y-119055721D01*
X110842279Y-119114462D01*
X110878250Y-119135230D01*
X110914216Y-119155996D01*
X110914217Y-119155997D01*
X110914219Y-119155997D01*
X110914222Y-119155999D01*
X110994464Y-119177500D01*
X110994467Y-119177500D01*
X111077533Y-119177500D01*
X111077536Y-119177500D01*
X111157778Y-119155999D01*
X111157780Y-119155997D01*
X111157782Y-119155997D01*
X111157783Y-119155996D01*
X111229721Y-119114462D01*
X111288462Y-119055721D01*
X111329999Y-118983778D01*
X111351500Y-118903536D01*
X111351500Y-118820464D01*
X111329999Y-118740222D01*
X111329997Y-118740219D01*
X111329997Y-118740217D01*
X111329996Y-118740216D01*
X111288465Y-118668285D01*
X111288462Y-118668279D01*
X111229721Y-118609538D01*
X111226496Y-118607676D01*
X111157783Y-118568003D01*
X111157782Y-118568002D01*
X111151201Y-118566238D01*
X111077536Y-118546500D01*
X110994464Y-118546500D01*
X110938058Y-118561613D01*
X110914217Y-118568002D01*
X110914216Y-118568003D01*
X110842285Y-118609534D01*
X110842276Y-118609540D01*
X110783540Y-118668276D01*
X110783534Y-118668285D01*
X110742003Y-118740216D01*
X110742002Y-118740217D01*
X110742001Y-118740222D01*
X110720500Y-118820464D01*
X106188500Y-118820464D01*
X106166999Y-118740222D01*
X106166997Y-118740219D01*
X106166997Y-118740217D01*
X106166996Y-118740216D01*
X106125465Y-118668285D01*
X106125462Y-118668279D01*
X106066721Y-118609538D01*
X106063496Y-118607676D01*
X105994783Y-118568003D01*
X105994782Y-118568002D01*
X105988201Y-118566238D01*
X105914536Y-118546500D01*
X105831464Y-118546500D01*
X105775058Y-118561613D01*
X105751217Y-118568002D01*
X105751216Y-118568003D01*
X105679285Y-118609534D01*
X105679276Y-118609540D01*
X105620540Y-118668276D01*
X105620534Y-118668285D01*
X105579003Y-118740216D01*
X105579002Y-118740217D01*
X105579001Y-118740222D01*
X105557500Y-118820464D01*
X96300500Y-118820464D01*
X96300500Y-116974964D01*
X107633200Y-116974964D01*
X107633200Y-117058036D01*
X107652938Y-117131701D01*
X107654702Y-117138282D01*
X107654703Y-117138283D01*
X107694376Y-117206996D01*
X107696238Y-117210221D01*
X107754979Y-117268962D01*
X107790950Y-117289730D01*
X107826916Y-117310496D01*
X107826917Y-117310497D01*
X107826919Y-117310497D01*
X107826922Y-117310499D01*
X107907164Y-117332000D01*
X107907167Y-117332000D01*
X107990233Y-117332000D01*
X107990236Y-117332000D01*
X108070478Y-117310499D01*
X108070480Y-117310497D01*
X108070482Y-117310497D01*
X108070483Y-117310496D01*
X108142421Y-117268962D01*
X108201162Y-117210221D01*
X108242699Y-117138278D01*
X108264200Y-117058036D01*
X108264200Y-116974964D01*
X112912500Y-116974964D01*
X112912500Y-117058036D01*
X112932238Y-117131701D01*
X112934002Y-117138282D01*
X112934003Y-117138283D01*
X112973676Y-117206996D01*
X112975538Y-117210221D01*
X113034279Y-117268962D01*
X113070250Y-117289730D01*
X113106216Y-117310496D01*
X113106217Y-117310497D01*
X113106219Y-117310497D01*
X113106222Y-117310499D01*
X113186464Y-117332000D01*
X113186467Y-117332000D01*
X113269533Y-117332000D01*
X113269536Y-117332000D01*
X113349778Y-117310499D01*
X113349780Y-117310497D01*
X113349782Y-117310497D01*
X113349783Y-117310496D01*
X113421721Y-117268962D01*
X113480462Y-117210221D01*
X113521999Y-117138278D01*
X113543500Y-117058036D01*
X113543500Y-116974964D01*
X113521999Y-116894722D01*
X113521997Y-116894719D01*
X113521997Y-116894717D01*
X113521996Y-116894716D01*
X113480465Y-116822785D01*
X113480462Y-116822779D01*
X113421721Y-116764038D01*
X113418496Y-116762176D01*
X113349783Y-116722503D01*
X113349782Y-116722502D01*
X113343201Y-116720738D01*
X113269536Y-116701000D01*
X113186464Y-116701000D01*
X113130058Y-116716113D01*
X113106217Y-116722502D01*
X113106216Y-116722503D01*
X113034285Y-116764034D01*
X113034276Y-116764040D01*
X112975540Y-116822776D01*
X112975534Y-116822785D01*
X112934003Y-116894716D01*
X112934002Y-116894717D01*
X112929345Y-116912097D01*
X112912500Y-116974964D01*
X108264200Y-116974964D01*
X108242699Y-116894722D01*
X108242697Y-116894719D01*
X108242697Y-116894717D01*
X108242696Y-116894716D01*
X108201165Y-116822785D01*
X108201162Y-116822779D01*
X108142421Y-116764038D01*
X108139196Y-116762176D01*
X108070483Y-116722503D01*
X108070482Y-116722502D01*
X108063901Y-116720738D01*
X107990236Y-116701000D01*
X107907164Y-116701000D01*
X107850758Y-116716113D01*
X107826917Y-116722502D01*
X107826916Y-116722503D01*
X107754985Y-116764034D01*
X107754976Y-116764040D01*
X107696240Y-116822776D01*
X107696234Y-116822785D01*
X107654703Y-116894716D01*
X107654702Y-116894717D01*
X107650045Y-116912097D01*
X107633200Y-116974964D01*
X96300500Y-116974964D01*
X96300500Y-116576564D01*
X111780400Y-116576564D01*
X111780400Y-116659636D01*
X111791484Y-116701000D01*
X111801902Y-116739882D01*
X111801903Y-116739883D01*
X111815851Y-116764040D01*
X111843438Y-116811821D01*
X111902179Y-116870562D01*
X111938150Y-116891330D01*
X111974116Y-116912096D01*
X111974117Y-116912097D01*
X111974119Y-116912097D01*
X111974122Y-116912099D01*
X112054364Y-116933600D01*
X112054367Y-116933600D01*
X112137433Y-116933600D01*
X112137436Y-116933600D01*
X112217678Y-116912099D01*
X112217680Y-116912097D01*
X112217682Y-116912097D01*
X112217683Y-116912096D01*
X112289619Y-116870563D01*
X112289618Y-116870563D01*
X112289621Y-116870562D01*
X112348362Y-116811821D01*
X112389899Y-116739878D01*
X112411400Y-116659636D01*
X112411400Y-116576564D01*
X112389899Y-116496322D01*
X112389897Y-116496319D01*
X112389897Y-116496317D01*
X112389896Y-116496316D01*
X112348365Y-116424385D01*
X112348362Y-116424379D01*
X112289621Y-116365638D01*
X112286396Y-116363776D01*
X112217683Y-116324103D01*
X112217682Y-116324102D01*
X112211101Y-116322338D01*
X112137436Y-116302600D01*
X112054364Y-116302600D01*
X111997958Y-116317713D01*
X111974117Y-116324102D01*
X111974116Y-116324103D01*
X111902185Y-116365634D01*
X111902176Y-116365640D01*
X111843440Y-116424376D01*
X111843434Y-116424385D01*
X111801903Y-116496316D01*
X111801902Y-116496317D01*
X111801901Y-116496322D01*
X111780400Y-116576564D01*
X96300500Y-116576564D01*
X96300500Y-105255817D01*
X103574500Y-105255817D01*
X103574500Y-105394182D01*
X103610312Y-105527835D01*
X103610313Y-105527838D01*
X103679492Y-105647661D01*
X103679494Y-105647664D01*
X103679495Y-105647665D01*
X103777335Y-105745505D01*
X103897164Y-105814688D01*
X104030817Y-105850500D01*
X104030819Y-105850500D01*
X104169181Y-105850500D01*
X104169183Y-105850500D01*
X104302836Y-105814688D01*
X104422665Y-105745505D01*
X104520505Y-105647665D01*
X104589688Y-105527836D01*
X104625500Y-105394183D01*
X104625500Y-105255817D01*
X109374500Y-105255817D01*
X109374500Y-105394182D01*
X109410312Y-105527835D01*
X109410313Y-105527838D01*
X109479492Y-105647661D01*
X109479494Y-105647664D01*
X109479495Y-105647665D01*
X109577335Y-105745505D01*
X109697164Y-105814688D01*
X109830817Y-105850500D01*
X109830819Y-105850500D01*
X109969181Y-105850500D01*
X109969183Y-105850500D01*
X110102836Y-105814688D01*
X110222665Y-105745505D01*
X110320505Y-105647665D01*
X110389688Y-105527836D01*
X110425500Y-105394183D01*
X110425500Y-105255817D01*
X110389688Y-105122164D01*
X110320505Y-105002335D01*
X110222665Y-104904495D01*
X110222664Y-104904494D01*
X110222661Y-104904492D01*
X110102838Y-104835313D01*
X110102837Y-104835312D01*
X110102836Y-104835312D01*
X109969183Y-104799500D01*
X109830817Y-104799500D01*
X109697164Y-104835312D01*
X109697161Y-104835313D01*
X109577338Y-104904492D01*
X109577333Y-104904496D01*
X109479496Y-105002333D01*
X109479492Y-105002338D01*
X109410313Y-105122161D01*
X109410312Y-105122164D01*
X109374500Y-105255817D01*
X104625500Y-105255817D01*
X104589688Y-105122164D01*
X104520505Y-105002335D01*
X104422665Y-104904495D01*
X104422664Y-104904494D01*
X104422661Y-104904492D01*
X104302838Y-104835313D01*
X104302837Y-104835312D01*
X104302836Y-104835312D01*
X104169183Y-104799500D01*
X104030817Y-104799500D01*
X103897164Y-104835312D01*
X103897161Y-104835313D01*
X103777338Y-104904492D01*
X103777333Y-104904496D01*
X103679496Y-105002333D01*
X103679492Y-105002338D01*
X103610313Y-105122161D01*
X103610312Y-105122164D01*
X103574500Y-105255817D01*
X96300500Y-105255817D01*
X96300500Y-99424500D01*
X96320185Y-99357461D01*
X96372989Y-99311706D01*
X96424500Y-99300500D01*
X117575500Y-99300500D01*
X117642539Y-99320185D01*
G37*
%TD.AperFunction*%
%TD*%
M02*
