M48
; DRILL file KiCad 10.0.4 date 2026-07-21T17:51:00
; FORMAT={-:-/ absolute / metric / decimal}
; #@! TF.CreationDate,2026-07-21T17:51:00-04:00
; #@! TF.GenerationSoftware,Kicad,Pcbnew,10.0.4
; #@! TF.FileFunction,MixedPlating,1,4
FMAT,2
METRIC
; #@! TA.AperFunction,Plated,PTH,ViaDrill
T1C0.200
; #@! TA.AperFunction,Plated,PTH,ComponentDrill
T2C0.800
; #@! TA.AperFunction,NonPlated,NPTH,ComponentDrill
T3C0.750
; #@! TA.AperFunction,NonPlated,NPTH,ComponentDrill
T4C0.991
%
G90
G05
T1
X97.065Y-133.087
X99.515Y-135.479
X100.902Y-142.62
X101.229Y-159.148
X101.45Y-121.964
X101.539Y-126.805
X101.594Y-153.015
X102.095Y-153.616
X102.3Y-131.767
X102.664Y-151.103
X102.68Y-142.244
X103.33Y-152.638
X103.929Y-153.61
X104.014Y-125.183
X104.032Y-148.992
X104.112Y-121.964
X104.491Y-132.773
X104.51Y-127.216
X104.645Y-151.147
X104.853Y-158.357
X105.235Y-167.428
X105.564Y-141.329
X105.627Y-159.811
X105.789Y-127.258
X105.873Y-118.862
X105.884Y-131.637
X106.018Y-150.567
X106.031Y-151.621
X106.067Y-148.262
X106.267Y-122.759
X106.369Y-143.076
X106.878Y-141.226
X107.104Y-124.62
X107.145Y-134.403
X107.2Y-149.359
X107.205Y-162.084
X107.341Y-157.775
X107.354Y-132.691
X107.659Y-125.497
X107.711Y-140.756
X107.85Y-151.26
X107.949Y-117.016
X107.969Y-141.535
X107.978Y-135.918
X108.036Y-124.824
X108.339Y-148.414
X108.579Y-120.972
X108.679Y-136.786
X108.691Y-150.359
X108.765Y-163.968
X108.769Y-133.8
X108.863Y-119.378
X109.053Y-156.44
X109.169Y-138.518
X109.18Y-144.023
X109.436Y-159.148
X109.452Y-126.36
X109.462Y-135.926
X109.486Y-120.242
X109.504Y-134.298
X109.527Y-127.526
X109.556Y-140.729
X109.594Y-139.529
X109.736Y-125.874
X109.972Y-131.637
X110.225Y-158.733
X110.334Y-149.176
X110.337Y-144.965
X110.349Y-142.245
X110.938Y-143.555
X110.97Y-125.499
X111.036Y-118.862
X111.117Y-140.267
X111.119Y-139.713
X111.716Y-143.936
X111.852Y-135.834
X111.972Y-133.748
X112.096Y-116.618
X112.35Y-132.03
X112.443Y-129.07
X112.55Y-157.074
X112.876Y-127.882
X113.228Y-117.016
X113.471Y-151.201
X113.665Y-122.539
X113.666Y-123.13
X113.668Y-121.612
X113.919Y-153.273
X114.286Y-122.112
X114.45Y-131.637
X114.615Y-163.968
X115.436Y-159.148
X116.058Y-155.132
T3
X104.1Y-105.325
X104.1Y-169.675
X109.9Y-105.325
X109.9Y-169.675
T4
X114.018Y-150.012
X115.034Y-155.092
X116.05Y-150.012
T2
X102.67Y-101.945G85X102.67Y-101.345
G05
X102.67Y-106.225G85X102.67Y-105.425
G05
X102.67Y-168.775G85X102.67Y-169.575
G05
X102.67Y-173.055G85X102.67Y-173.655
G05
X111.33Y-101.945G85X111.33Y-101.345
G05
X111.33Y-106.225G85X111.33Y-105.425
G05
X111.33Y-168.775G85X111.33Y-169.575
G05
X111.33Y-173.055G85X111.33Y-173.655
G05
M30
