%TF.GenerationSoftware,KiCad,Pcbnew,10.0.4*%
%TF.CreationDate,2026-07-30T12:01:34-04:00*%
%TF.ProjectId,layout,6c61796f-7574-42e6-9b69-6361645f7063,v0.0.0*%
%TF.SameCoordinates,Original*%
%TF.FileFunction,Legend,Bot*%
%TF.FilePolarity,Positive*%
%FSLAX46Y46*%
G04 Gerber Fmt 4.6, Leading zero omitted, Abs format (unit mm)*
G04 Created by KiCad (PCBNEW 10.0.4) date 2026-07-30 12:01:34*
%MOMM*%
%LPD*%
G01*
G04 APERTURE LIST*
%ADD10C,0.250000*%
%ADD11C,0.550000*%
%ADD12C,0.350000*%
%ADD13C,0.200000*%
%ADD14C,0.380000*%
%ADD15R,1.700000X1.700000*%
%ADD16C,1.700000*%
%ADD17C,0.750000*%
%ADD18O,1.200000X2.000000*%
%ADD19O,1.200000X1.800000*%
G04 APERTURE END LIST*
D10*
X101500000Y-102700000D02*
G75*
G02*
X102700000Y-101500000I1200000J0D01*
G01*
X101500000Y-140300000D02*
X101500000Y-102700000D01*
X102700000Y-101500000D02*
X113300000Y-101500000D01*
X102700000Y-141500000D02*
G75*
G02*
X101500000Y-140300000I0J1200000D01*
G01*
D11*
X105200000Y-120700000D02*
X108000000Y-121900000D01*
X106800000Y-117300000D02*
X113500000Y-119000000D01*
X108000000Y-106000000D02*
X108000000Y-112500000D01*
X108275000Y-106000000D02*
G75*
G02*
X107725000Y-106000000I-275000J0D01*
G01*
X107725000Y-106000000D02*
G75*
G02*
X108275000Y-106000000I275000J0D01*
G01*
X108000000Y-112500000D02*
X109200000Y-113600000D01*
X108000000Y-114700000D02*
X108000000Y-116200000D01*
X108000000Y-116200000D02*
X106800000Y-117300000D01*
X108000000Y-121900000D02*
X108000000Y-124500000D01*
X108000000Y-124500000D02*
X110300000Y-126200000D01*
X108000000Y-127900000D02*
X108000000Y-133000000D01*
X108275000Y-133000000D02*
G75*
G02*
X107725000Y-133000000I-275000J0D01*
G01*
X107725000Y-133000000D02*
G75*
G02*
X108275000Y-133000000I275000J0D01*
G01*
X109200000Y-113600000D02*
X108000000Y-114700000D01*
X110300000Y-126200000D02*
X108000000Y-127900000D01*
D12*
X112000000Y-130699999D02*
X113600000Y-130699999D01*
X112800000Y-129900000D02*
X112800000Y-131500000D01*
D10*
X113300000Y-101500000D02*
G75*
G02*
X114500000Y-102700000I0J-1200000D01*
G01*
X113300000Y-141500000D02*
X102700000Y-141500000D01*
D11*
X113500000Y-119000000D02*
X105200000Y-120700000D01*
D10*
X114500000Y-102700000D02*
X114500000Y-140300000D01*
X114500000Y-140300000D02*
G75*
G02*
X113300000Y-141500000I-1200000J0D01*
G01*
D13*
X113684522Y-135167873D02*
X113684522Y-133917873D01*
X113684522Y-135108350D02*
X113803570Y-135167873D01*
X113803570Y-135167873D02*
X114041665Y-135167873D01*
X114041665Y-135167873D02*
X114160713Y-135108350D01*
X114160713Y-135108350D02*
X114220236Y-135048826D01*
X114220236Y-135048826D02*
X114279760Y-134929778D01*
X114279760Y-134929778D02*
X114279760Y-134572635D01*
X114279760Y-134572635D02*
X114220236Y-134453588D01*
X114220236Y-134453588D02*
X114160713Y-134394064D01*
X114160713Y-134394064D02*
X114041665Y-134334540D01*
X114041665Y-134334540D02*
X113803570Y-134334540D01*
X113803570Y-134334540D02*
X113684522Y-134394064D01*
X112910713Y-135167873D02*
X113029761Y-135108350D01*
X113029761Y-135108350D02*
X113089284Y-135048826D01*
X113089284Y-135048826D02*
X113148808Y-134929778D01*
X113148808Y-134929778D02*
X113148808Y-134572635D01*
X113148808Y-134572635D02*
X113089284Y-134453588D01*
X113089284Y-134453588D02*
X113029761Y-134394064D01*
X113029761Y-134394064D02*
X112910713Y-134334540D01*
X112910713Y-134334540D02*
X112732142Y-134334540D01*
X112732142Y-134334540D02*
X112613094Y-134394064D01*
X112613094Y-134394064D02*
X112553570Y-134453588D01*
X112553570Y-134453588D02*
X112494046Y-134572635D01*
X112494046Y-134572635D02*
X112494046Y-134929778D01*
X112494046Y-134929778D02*
X112553570Y-135048826D01*
X112553570Y-135048826D02*
X112613094Y-135108350D01*
X112613094Y-135108350D02*
X112732142Y-135167873D01*
X112732142Y-135167873D02*
X112910713Y-135167873D01*
X111958332Y-134334540D02*
X111958332Y-135167873D01*
X111958332Y-134453588D02*
X111898809Y-134394064D01*
X111898809Y-134394064D02*
X111779761Y-134334540D01*
X111779761Y-134334540D02*
X111601190Y-134334540D01*
X111601190Y-134334540D02*
X111482142Y-134394064D01*
X111482142Y-134394064D02*
X111422618Y-134513111D01*
X111422618Y-134513111D02*
X111422618Y-135167873D01*
X110291666Y-134334540D02*
X110291666Y-135346445D01*
X110291666Y-135346445D02*
X110351190Y-135465492D01*
X110351190Y-135465492D02*
X110410714Y-135525016D01*
X110410714Y-135525016D02*
X110529761Y-135584540D01*
X110529761Y-135584540D02*
X110708333Y-135584540D01*
X110708333Y-135584540D02*
X110827380Y-135525016D01*
X110291666Y-135108350D02*
X110410714Y-135167873D01*
X110410714Y-135167873D02*
X110648809Y-135167873D01*
X110648809Y-135167873D02*
X110767857Y-135108350D01*
X110767857Y-135108350D02*
X110827380Y-135048826D01*
X110827380Y-135048826D02*
X110886904Y-134929778D01*
X110886904Y-134929778D02*
X110886904Y-134572635D01*
X110886904Y-134572635D02*
X110827380Y-134453588D01*
X110827380Y-134453588D02*
X110767857Y-134394064D01*
X110767857Y-134394064D02*
X110648809Y-134334540D01*
X110648809Y-134334540D02*
X110410714Y-134334540D01*
X110410714Y-134334540D02*
X110291666Y-134394064D01*
X109517857Y-135167873D02*
X109636905Y-135108350D01*
X109636905Y-135108350D02*
X109696428Y-134989302D01*
X109696428Y-134989302D02*
X109696428Y-133917873D01*
X108565476Y-135108350D02*
X108684524Y-135167873D01*
X108684524Y-135167873D02*
X108922619Y-135167873D01*
X108922619Y-135167873D02*
X109041666Y-135108350D01*
X109041666Y-135108350D02*
X109101190Y-134989302D01*
X109101190Y-134989302D02*
X109101190Y-134513111D01*
X109101190Y-134513111D02*
X109041666Y-134394064D01*
X109041666Y-134394064D02*
X108922619Y-134334540D01*
X108922619Y-134334540D02*
X108684524Y-134334540D01*
X108684524Y-134334540D02*
X108565476Y-134394064D01*
X108565476Y-134394064D02*
X108505952Y-134513111D01*
X108505952Y-134513111D02*
X108505952Y-134632159D01*
X108505952Y-134632159D02*
X109101190Y-134751207D01*
X107970237Y-134691683D02*
X107017857Y-134691683D01*
X106422618Y-134334540D02*
X106422618Y-135584540D01*
X106422618Y-134394064D02*
X106303571Y-134334540D01*
X106303571Y-134334540D02*
X106065476Y-134334540D01*
X106065476Y-134334540D02*
X105946428Y-134394064D01*
X105946428Y-134394064D02*
X105886904Y-134453588D01*
X105886904Y-134453588D02*
X105827380Y-134572635D01*
X105827380Y-134572635D02*
X105827380Y-134929778D01*
X105827380Y-134929778D02*
X105886904Y-135048826D01*
X105886904Y-135048826D02*
X105946428Y-135108350D01*
X105946428Y-135108350D02*
X106065476Y-135167873D01*
X106065476Y-135167873D02*
X106303571Y-135167873D01*
X106303571Y-135167873D02*
X106422618Y-135108350D01*
X105291666Y-135167873D02*
X105291666Y-134334540D01*
X105291666Y-134572635D02*
X105232143Y-134453588D01*
X105232143Y-134453588D02*
X105172619Y-134394064D01*
X105172619Y-134394064D02*
X105053571Y-134334540D01*
X105053571Y-134334540D02*
X104934524Y-134334540D01*
X104339285Y-135167873D02*
X104458333Y-135108350D01*
X104458333Y-135108350D02*
X104517856Y-135048826D01*
X104517856Y-135048826D02*
X104577380Y-134929778D01*
X104577380Y-134929778D02*
X104577380Y-134572635D01*
X104577380Y-134572635D02*
X104517856Y-134453588D01*
X104517856Y-134453588D02*
X104458333Y-134394064D01*
X104458333Y-134394064D02*
X104339285Y-134334540D01*
X104339285Y-134334540D02*
X104160714Y-134334540D01*
X104160714Y-134334540D02*
X104041666Y-134394064D01*
X104041666Y-134394064D02*
X103982142Y-134453588D01*
X103982142Y-134453588D02*
X103922618Y-134572635D01*
X103922618Y-134572635D02*
X103922618Y-134929778D01*
X103922618Y-134929778D02*
X103982142Y-135048826D01*
X103982142Y-135048826D02*
X104041666Y-135108350D01*
X104041666Y-135108350D02*
X104160714Y-135167873D01*
X104160714Y-135167873D02*
X104339285Y-135167873D01*
X103386904Y-135167873D02*
X103386904Y-133917873D01*
X103386904Y-134394064D02*
X103267857Y-134334540D01*
X103267857Y-134334540D02*
X103029762Y-134334540D01*
X103029762Y-134334540D02*
X102910714Y-134394064D01*
X102910714Y-134394064D02*
X102851190Y-134453588D01*
X102851190Y-134453588D02*
X102791666Y-134572635D01*
X102791666Y-134572635D02*
X102791666Y-134929778D01*
X102791666Y-134929778D02*
X102851190Y-135048826D01*
X102851190Y-135048826D02*
X102910714Y-135108350D01*
X102910714Y-135108350D02*
X103029762Y-135167873D01*
X103029762Y-135167873D02*
X103267857Y-135167873D01*
X103267857Y-135167873D02*
X103386904Y-135108350D01*
X101779762Y-135108350D02*
X101898810Y-135167873D01*
X101898810Y-135167873D02*
X102136905Y-135167873D01*
X102136905Y-135167873D02*
X102255952Y-135108350D01*
X102255952Y-135108350D02*
X102315476Y-134989302D01*
X102315476Y-134989302D02*
X102315476Y-134513111D01*
X102315476Y-134513111D02*
X102255952Y-134394064D01*
X102255952Y-134394064D02*
X102136905Y-134334540D01*
X102136905Y-134334540D02*
X101898810Y-134334540D01*
X101898810Y-134334540D02*
X101779762Y-134394064D01*
X101779762Y-134394064D02*
X101720238Y-134513111D01*
X101720238Y-134513111D02*
X101720238Y-134632159D01*
X101720238Y-134632159D02*
X102315476Y-134751207D01*
D14*
X104290525Y-111057142D02*
X102690525Y-111057142D01*
X103147668Y-111057142D02*
X102919097Y-111171428D01*
X102919097Y-111171428D02*
X102804811Y-111285714D01*
X102804811Y-111285714D02*
X102690525Y-111514285D01*
X102690525Y-111514285D02*
X102690525Y-111742856D01*
X104176240Y-113457142D02*
X104290525Y-113228570D01*
X104290525Y-113228570D02*
X104290525Y-112771428D01*
X104290525Y-112771428D02*
X104176240Y-112542856D01*
X104176240Y-112542856D02*
X103947668Y-112428570D01*
X103947668Y-112428570D02*
X103033382Y-112428570D01*
X103033382Y-112428570D02*
X102804811Y-112542856D01*
X102804811Y-112542856D02*
X102690525Y-112771428D01*
X102690525Y-112771428D02*
X102690525Y-113228570D01*
X102690525Y-113228570D02*
X102804811Y-113457142D01*
X102804811Y-113457142D02*
X103033382Y-113571428D01*
X103033382Y-113571428D02*
X103261954Y-113571428D01*
X103261954Y-113571428D02*
X103490525Y-112428570D01*
X104176240Y-114485713D02*
X104290525Y-114714285D01*
X104290525Y-114714285D02*
X104290525Y-115171428D01*
X104290525Y-115171428D02*
X104176240Y-115399999D01*
X104176240Y-115399999D02*
X103947668Y-115514285D01*
X103947668Y-115514285D02*
X103833382Y-115514285D01*
X103833382Y-115514285D02*
X103604811Y-115399999D01*
X103604811Y-115399999D02*
X103490525Y-115171428D01*
X103490525Y-115171428D02*
X103490525Y-114828571D01*
X103490525Y-114828571D02*
X103376240Y-114599999D01*
X103376240Y-114599999D02*
X103147668Y-114485713D01*
X103147668Y-114485713D02*
X103033382Y-114485713D01*
X103033382Y-114485713D02*
X102804811Y-114599999D01*
X102804811Y-114599999D02*
X102690525Y-114828571D01*
X102690525Y-114828571D02*
X102690525Y-115171428D01*
X102690525Y-115171428D02*
X102804811Y-115399999D01*
X102690525Y-116199999D02*
X102690525Y-117114285D01*
X101890525Y-116542856D02*
X103947668Y-116542856D01*
X103947668Y-116542856D02*
X104176240Y-116657142D01*
X104176240Y-116657142D02*
X104290525Y-116885713D01*
X104290525Y-116885713D02*
X104290525Y-117114285D01*
X104290525Y-118257142D02*
X104176240Y-118028571D01*
X104176240Y-118028571D02*
X104061954Y-117914285D01*
X104061954Y-117914285D02*
X103833382Y-117799999D01*
X103833382Y-117799999D02*
X103147668Y-117799999D01*
X103147668Y-117799999D02*
X102919097Y-117914285D01*
X102919097Y-117914285D02*
X102804811Y-118028571D01*
X102804811Y-118028571D02*
X102690525Y-118257142D01*
X102690525Y-118257142D02*
X102690525Y-118599999D01*
X102690525Y-118599999D02*
X102804811Y-118828571D01*
X102804811Y-118828571D02*
X102919097Y-118942857D01*
X102919097Y-118942857D02*
X103147668Y-119057142D01*
X103147668Y-119057142D02*
X103833382Y-119057142D01*
X103833382Y-119057142D02*
X104061954Y-118942857D01*
X104061954Y-118942857D02*
X104176240Y-118828571D01*
X104176240Y-118828571D02*
X104290525Y-118599999D01*
X104290525Y-118599999D02*
X104290525Y-118257142D01*
X104290525Y-120085714D02*
X102690525Y-120085714D01*
X103147668Y-120085714D02*
X102919097Y-120200000D01*
X102919097Y-120200000D02*
X102804811Y-120314286D01*
X102804811Y-120314286D02*
X102690525Y-120542857D01*
X102690525Y-120542857D02*
X102690525Y-120771428D01*
X104176240Y-122485714D02*
X104290525Y-122257142D01*
X104290525Y-122257142D02*
X104290525Y-121800000D01*
X104290525Y-121800000D02*
X104176240Y-121571428D01*
X104176240Y-121571428D02*
X103947668Y-121457142D01*
X103947668Y-121457142D02*
X103033382Y-121457142D01*
X103033382Y-121457142D02*
X102804811Y-121571428D01*
X102804811Y-121571428D02*
X102690525Y-121800000D01*
X102690525Y-121800000D02*
X102690525Y-122257142D01*
X102690525Y-122257142D02*
X102804811Y-122485714D01*
X102804811Y-122485714D02*
X103033382Y-122600000D01*
X103033382Y-122600000D02*
X103261954Y-122600000D01*
X103261954Y-122600000D02*
X103490525Y-121457142D01*
X104290525Y-123628571D02*
X101890525Y-123628571D01*
X103376240Y-123857143D02*
X104290525Y-124542857D01*
X102690525Y-124542857D02*
X103604811Y-123628571D01*
X104290525Y-125571428D02*
X102690525Y-125571428D01*
X101890525Y-125571428D02*
X102004811Y-125457142D01*
X102004811Y-125457142D02*
X102119097Y-125571428D01*
X102119097Y-125571428D02*
X102004811Y-125685714D01*
X102004811Y-125685714D02*
X101890525Y-125571428D01*
X101890525Y-125571428D02*
X102119097Y-125571428D01*
X102690525Y-126371428D02*
X102690525Y-127285714D01*
X101890525Y-126714285D02*
X103947668Y-126714285D01*
X103947668Y-126714285D02*
X104176240Y-126828571D01*
X104176240Y-126828571D02*
X104290525Y-127057142D01*
X104290525Y-127057142D02*
X104290525Y-127285714D01*
%LPC*%
D15*
%TO.C,J2*%
X105460000Y-139820000D03*
D16*
X105460000Y-137280000D03*
X108000000Y-139820000D03*
X108000000Y-137280000D03*
X110540000Y-139820000D03*
X110540000Y-137280000D03*
%TD*%
D17*
%TO.C,J1*%
X110900000Y-106300000D03*
X105100000Y-106300000D03*
D18*
X103670000Y-106800000D03*
D19*
X103670000Y-102620000D03*
X112330000Y-102620000D03*
D18*
X112330000Y-106800000D03*
%TD*%
%LPD*%
M02*
