M48
; DRILL file KiCad 10.0.4 date 2026-07-30T12:01:34
; FORMAT={-:-/ absolute / metric / decimal}
; #@! TF.CreationDate,2026-07-30T12:01:34-04:00
; #@! TF.GenerationSoftware,Kicad,Pcbnew,10.0.4
; #@! TF.FileFunction,MixedPlating,1,2
FMAT,2
METRIC
; #@! TA.AperFunction,Plated,PTH,ViaDrill
T1C0.300
; #@! TA.AperFunction,Plated,PTH,ComponentDrill
T2C0.800
; #@! TA.AperFunction,Plated,PTH,ComponentDrill
T3C1.000
; #@! TA.AperFunction,NonPlated,NPTH,ComponentDrill
T4C0.750
%
G90
G05
T1
X100.68Y-118.55
X101.222Y-119.938
X101.778Y-117.056
X102.0Y-137.0
X102.099Y-113.441
X102.255Y-119.367
X103.293Y-128.223
X103.382Y-121.187
X103.772Y-113.972
X103.918Y-111.64
X104.422Y-121.494
X105.0Y-111.55
X105.341Y-119.932
X105.393Y-117.631
X105.409Y-118.342
X105.461Y-115.95
X105.616Y-112.903
X107.011Y-122.774
X107.032Y-119.085
X107.2Y-106.455
X107.25Y-112.1
X108.0Y-111.55
X108.075Y-124.661
X108.094Y-119.925
X108.173Y-115.105
X108.283Y-112.143
X108.3Y-106.455
X108.545Y-122.662
X108.896Y-127.949
X109.67Y-116.431
X109.728Y-120.375
X109.737Y-133.845
X109.924Y-125.051
X110.718Y-118.181
X110.722Y-116.072
X110.768Y-115.357
X110.956Y-125.792
X111.25Y-124.312
X112.035Y-127.644
X112.259Y-121.293
X112.64Y-114.134
X112.75Y-133.3
X112.752Y-124.269
X112.983Y-111.233
X113.321Y-120.207
X113.397Y-125.08
X113.571Y-126.905
X114.385Y-122.345
X114.596Y-116.737
X114.596Y-119.394
X114.786Y-121.205
X115.139Y-118.766
X115.45Y-112.81
X115.475Y-113.649
T3
X105.46Y-137.28
X105.46Y-139.82
X108.0Y-137.28
X108.0Y-139.82
X110.54Y-137.28
X110.54Y-139.82
T4
X105.1Y-106.3
X110.9Y-106.3
T2
X103.67Y-102.92G85X103.67Y-102.32
G05
X103.67Y-107.2G85X103.67Y-106.4
G05
X112.33Y-102.92G85X112.33Y-102.32
G05
X112.33Y-107.2G85X112.33Y-106.4
G05
M30
