%TF.GenerationSoftware,KiCad,Pcbnew,10.0.4*%
%TF.CreationDate,2026-07-30T12:01:34-04:00*%
%TF.ProjectId,layout,6c61796f-7574-42e6-9b69-6361645f7063,v0.0.0*%
%TF.SameCoordinates,Original*%
%TF.FileFunction,Paste,Top*%
%TF.FilePolarity,Positive*%
%FSLAX46Y46*%
G04 Gerber Fmt 4.6, Leading zero omitted, Abs format (unit mm)*
G04 Created by KiCad (PCBNEW 10.0.4) date 2026-07-30 12:01:34*
%MOMM*%
%LPD*%
G01*
G04 APERTURE LIST*
G04 Aperture macros list*
%AMRoundRect*
0 Rectangle with rounded corners*
0 $1 Rounding radius*
0 $2 $3 $4 $5 $6 $7 $8 $9 X,Y pos of 4 corners*
0 Add a 4 corners polygon primitive as box body*
4,1,4,$2,$3,$4,$5,$6,$7,$8,$9,$2,$3,0*
0 Add four circle primitives for the rounded corners*
1,1,$1+$1,$2,$3*
1,1,$1+$1,$4,$5*
1,1,$1+$1,$6,$7*
1,1,$1+$1,$8,$9*
0 Add four rect primitives between the rounded corners*
20,1,$1+$1,$2,$3,$4,$5,0*
20,1,$1+$1,$4,$5,$6,$7,0*
20,1,$1+$1,$6,$7,$8,$9,0*
20,1,$1+$1,$8,$9,$2,$3,0*%
%AMFreePoly0*
4,1,15,0.335278,0.685443,0.349923,0.650088,0.349923,-0.615000,0.335278,-0.650355,0.299923,-0.665000,-0.300050,-0.665000,-0.335405,-0.650355,-0.350050,-0.615000,-0.350050,0.649935,-0.335405,0.685290,-0.300050,0.699935,-0.000445,0.699935,-0.000076,0.700088,0.299923,0.700088,0.335278,0.685443,0.335278,0.685443,$1*%
%AMFreePoly1*
4,1,17,0.335431,0.685290,0.350076,0.649935,0.350076,-0.650037,0.335431,-0.685392,0.300076,-0.700037,0.000187,-0.700037,0.000127,-0.700062,-0.299898,-0.700062,-0.335253,-0.685417,-0.349898,-0.650062,-0.349898,0.649910,-0.335253,0.685265,-0.299898,0.699910,-0.000009,0.699910,0.000051,0.699935,0.300076,0.699935,0.335431,0.685290,0.335431,0.685290,$1*%
%AMFreePoly2*
4,1,13,0.335227,0.685443,0.349872,0.650088,0.349872,-0.615000,0.335227,-0.650355,0.299872,-0.665000,-0.300152,-0.665000,-0.335507,-0.650355,-0.350152,-0.615000,-0.350152,0.650088,-0.335507,0.685443,-0.300152,0.700088,0.299872,0.700088,0.335227,0.685443,0.335227,0.685443,$1*%
%AMFreePoly3*
4,1,13,0.335227,0.685443,0.349872,0.650088,0.349872,-0.649884,0.335227,-0.685239,0.299872,-0.699884,-0.300152,-0.699884,-0.335507,-0.685239,-0.350152,-0.649884,-0.350152,0.650088,-0.335507,0.685443,-0.300152,0.700088,0.299872,0.700088,0.335227,0.685443,0.335227,0.685443,$1*%
G04 Aperture macros list end*
%ADD10R,0.532000X1.072000*%
%ADD11RoundRect,0.140000X0.170000X-0.140000X0.170000X0.140000X-0.170000X0.140000X-0.170000X-0.140000X0*%
%ADD12RoundRect,0.135000X0.185000X-0.135000X0.185000X0.135000X-0.185000X0.135000X-0.185000X-0.135000X0*%
%ADD13RoundRect,0.135000X-0.135000X-0.185000X0.135000X-0.185000X0.135000X0.185000X-0.135000X0.185000X0*%
%ADD14R,0.800000X0.800000*%
%ADD15RoundRect,0.140000X-0.140000X-0.170000X0.140000X-0.170000X0.140000X0.170000X-0.140000X0.170000X0*%
%ADD16RoundRect,0.250000X0.475000X-0.250000X0.475000X0.250000X-0.475000X0.250000X-0.475000X-0.250000X0*%
%ADD17R,1.400000X1.200000*%
%ADD18R,1.000000X1.600000*%
%ADD19RoundRect,0.135000X0.135000X0.185000X-0.135000X0.185000X-0.135000X-0.185000X0.135000X-0.185000X0*%
%ADD20R,1.157000X0.490000*%
%ADD21R,1.175000X0.490000*%
%ADD22R,1.000000X0.750000*%
%ADD23R,0.875000X0.200000*%
%ADD24R,0.200000X0.875000*%
%ADD25R,3.400000X3.400000*%
%ADD26FreePoly0,180.000000*%
%ADD27FreePoly1,180.000000*%
%ADD28R,0.300000X1.300000*%
%ADD29FreePoly2,180.000000*%
%ADD30FreePoly3,180.000000*%
G04 APERTURE END LIST*
D10*
%TO.C,D3*%
X107050000Y-112841100D03*
X108000000Y-112841100D03*
X108950000Y-112841100D03*
X108950000Y-110541100D03*
X108000000Y-110541100D03*
X107050000Y-110541100D03*
%TD*%
D11*
%TO.C,C2*%
X102200000Y-118520100D03*
X102200000Y-117560100D03*
%TD*%
D12*
%TO.C,R4*%
X110100000Y-123605100D03*
X110100000Y-122585100D03*
%TD*%
D11*
%TO.C,C6*%
X107200000Y-123555100D03*
X107200000Y-122595100D03*
%TD*%
D13*
%TO.C,R7*%
X105290000Y-132725100D03*
X106310000Y-132725100D03*
%TD*%
D14*
%TO.C,D2*%
X114500000Y-129970000D03*
X114500000Y-131470000D03*
%TD*%
D15*
%TO.C,C13*%
X104820000Y-112910100D03*
X105780000Y-112910100D03*
%TD*%
D16*
%TO.C,C1*%
X102200000Y-115990100D03*
X102200000Y-114090100D03*
%TD*%
D11*
%TO.C,C8*%
X114800000Y-123555100D03*
X114800000Y-122595100D03*
%TD*%
%TO.C,C10*%
X114600000Y-120320100D03*
X114600000Y-119360100D03*
%TD*%
D17*
%TO.C,Y1*%
X103600000Y-124420100D03*
X105800000Y-124420100D03*
X105800000Y-122720100D03*
X103600000Y-122720100D03*
%TD*%
D14*
%TO.C,D1*%
X101900000Y-129970100D03*
X101900000Y-131470100D03*
%TD*%
D11*
%TO.C,C5*%
X114600000Y-118110100D03*
X114600000Y-117150100D03*
%TD*%
D13*
%TO.C,R3*%
X113090000Y-125835100D03*
X114110000Y-125835100D03*
%TD*%
D18*
%TO.C,L1*%
X111300000Y-122965100D03*
X113300000Y-122965100D03*
%TD*%
D13*
%TO.C,R11*%
X109490000Y-132725100D03*
X110510000Y-132725100D03*
%TD*%
D11*
%TO.C,C12*%
X114600000Y-115900100D03*
X114600000Y-114940100D03*
%TD*%
%TO.C,C3*%
X102200000Y-120730100D03*
X102200000Y-119770100D03*
%TD*%
D19*
%TO.C,R2*%
X105510000Y-110520100D03*
X104490000Y-110520100D03*
%TD*%
D20*
%TO.C,U2*%
X103354500Y-112450100D03*
X103354500Y-111500100D03*
X103354500Y-110550100D03*
D21*
X101054500Y-110550100D03*
X101054500Y-112450100D03*
%TD*%
D22*
%TO.C,SW1*%
X105000000Y-127465100D03*
X111000000Y-127465100D03*
X105000000Y-131165100D03*
X111000000Y-131165100D03*
%TD*%
D11*
%TO.C,C9*%
X102200000Y-122940100D03*
X102200000Y-121980100D03*
%TD*%
D12*
%TO.C,R9*%
X101900000Y-128805100D03*
X101900000Y-127785100D03*
%TD*%
D11*
%TO.C,C11*%
X114600000Y-113690100D03*
X114600000Y-112730100D03*
%TD*%
D15*
%TO.C,C4*%
X110120000Y-125825100D03*
X111080000Y-125825100D03*
%TD*%
D13*
%TO.C,R6*%
X103190000Y-132725100D03*
X104210000Y-132725100D03*
%TD*%
D23*
%TO.C,U1*%
X104420000Y-115012600D03*
X104420000Y-115412600D03*
X104420000Y-115812600D03*
X104420000Y-116212600D03*
X104420000Y-116612600D03*
X104420000Y-117012600D03*
X104420000Y-117412600D03*
X104420000Y-117812600D03*
X104420000Y-118212600D03*
X104420000Y-118612600D03*
X104420000Y-119012600D03*
X104420000Y-119412600D03*
X104420000Y-119812600D03*
X104420000Y-120212600D03*
X104420000Y-120612600D03*
D24*
X105200000Y-121382600D03*
X105600000Y-121382600D03*
X106000000Y-121382600D03*
X106400000Y-121382600D03*
X106800000Y-121382600D03*
X107200000Y-121382600D03*
X107600000Y-121382600D03*
X108000000Y-121382600D03*
X108400000Y-121382600D03*
X108800000Y-121382600D03*
X109200000Y-121382600D03*
X109600000Y-121382600D03*
X110000000Y-121382600D03*
X110400000Y-121382600D03*
X110800000Y-121382600D03*
D23*
X111580000Y-120612600D03*
X111580000Y-120212600D03*
X111580000Y-119812600D03*
X111580000Y-119412600D03*
X111580000Y-119012600D03*
X111580000Y-118612600D03*
X111580000Y-118212600D03*
X111580000Y-117812600D03*
X111580000Y-117412600D03*
X111580000Y-117012600D03*
X111580000Y-116612600D03*
X111580000Y-116212600D03*
X111580000Y-115812600D03*
X111580000Y-115412600D03*
X111580000Y-115012600D03*
D24*
X110800000Y-114242600D03*
X110400000Y-114242600D03*
X110000000Y-114242600D03*
X109600000Y-114242600D03*
X109200000Y-114242600D03*
X108800000Y-114242600D03*
X108400000Y-114242600D03*
X108000000Y-114242600D03*
X107600000Y-114242600D03*
X107200000Y-114242600D03*
X106800000Y-114242600D03*
X106400000Y-114242600D03*
X106000000Y-114242600D03*
X105600000Y-114242600D03*
X105200000Y-114242600D03*
D25*
X108000000Y-117812600D03*
%TD*%
D11*
%TO.C,C7*%
X108600000Y-123555100D03*
X108600000Y-122595100D03*
%TD*%
D13*
%TO.C,R1*%
X110890000Y-110520100D03*
X111910000Y-110520100D03*
%TD*%
D26*
%TO.C,J1*%
X111200000Y-107560000D03*
D27*
X110400000Y-107560000D03*
D28*
X109250000Y-107560000D03*
X108250000Y-107560000D03*
X107750000Y-107560000D03*
X106750000Y-107560000D03*
D29*
X104800000Y-107560000D03*
D30*
X105600000Y-107560000D03*
D28*
X106250000Y-107560000D03*
X107250000Y-107560000D03*
X108750000Y-107560000D03*
X109750000Y-107560000D03*
%TD*%
D12*
%TO.C,R10*%
X114500000Y-128810000D03*
X114500000Y-127790000D03*
%TD*%
D15*
%TO.C,C14*%
X110220000Y-112910100D03*
X111180000Y-112910100D03*
%TD*%
D12*
%TO.C,R5*%
X114600000Y-111490100D03*
X114600000Y-110470100D03*
%TD*%
D13*
%TO.C,R8*%
X107390000Y-132725100D03*
X108410000Y-132725100D03*
%TD*%
M02*
