%TF.GenerationSoftware,KiCad,Pcbnew,10.0.4*%
%TF.CreationDate,2026-07-30T12:01:34-04:00*%
%TF.ProjectId,layout,6c61796f-7574-42e6-9b69-6361645f7063,v0.0.0*%
%TF.SameCoordinates,Original*%
%TF.FileFunction,Copper,L2,Bot*%
%TF.FilePolarity,Positive*%
%FSLAX46Y46*%
G04 Gerber Fmt 4.6, Leading zero omitted, Abs format (unit mm)*
G04 Created by KiCad (PCBNEW 10.0.4) date 2026-07-30 12:01:34*
%MOMM*%
%LPD*%
G01*
G04 APERTURE LIST*
%TA.AperFunction,ComponentPad*%
%ADD10R,1.700000X1.700000*%
%TD*%
%TA.AperFunction,ComponentPad*%
%ADD11C,1.700000*%
%TD*%
%TA.AperFunction,ComponentPad*%
%ADD12O,1.200000X2.000000*%
%TD*%
%TA.AperFunction,ComponentPad*%
%ADD13O,1.200000X1.800000*%
%TD*%
%TA.AperFunction,ViaPad*%
%ADD14C,0.600000*%
%TD*%
%TA.AperFunction,ViaPad*%
%ADD15C,0.500000*%
%TD*%
%TA.AperFunction,ViaPad*%
%ADD16C,0.450000*%
%TD*%
%TA.AperFunction,Conductor*%
%ADD17C,0.160000*%
%TD*%
%TA.AperFunction,Conductor*%
%ADD18C,0.150000*%
%TD*%
G04 APERTURE END LIST*
D10*
%TO.P,J2,1*%
%TO.N,TGT_VTREF*%
X105460000Y-139820000D03*
D11*
%TO.P,J2,2*%
%TO.N,TGT_SWDIO*%
X105460000Y-137280000D03*
%TO.P,J2,3*%
%TO.N,TGT_RESET*%
X108000000Y-139820000D03*
%TO.P,J2,4*%
%TO.N,TGT_SWCLK*%
X108000000Y-137280000D03*
%TO.P,J2,5*%
%TO.N,GND*%
X110540000Y-139820000D03*
%TO.P,J2,6*%
%TO.N,TGT_BOOT*%
X110540000Y-137280000D03*
%TD*%
D12*
%TO.P,J1,1*%
%TO.N,GND*%
X103670000Y-106800000D03*
D13*
%TO.P,J1,2*%
X103670000Y-102620000D03*
%TO.P,J1,3*%
X112330000Y-102620000D03*
D12*
%TO.P,J1,4*%
X112330000Y-106800000D03*
%TD*%
D14*
%TO.N,USB_DP*%
X107200000Y-106455000D03*
X108300000Y-106455000D03*
X107250000Y-112100000D03*
D15*
X108173000Y-115105400D03*
D14*
%TO.N,GND*%
X110956057Y-125791578D03*
X107032200Y-119084933D03*
X108545471Y-122662485D03*
X104422400Y-121494271D03*
X112640340Y-114134165D03*
X115474520Y-113648538D03*
X102099114Y-113441384D03*
X114595700Y-119393527D03*
X101777535Y-117056387D03*
X113571071Y-126904789D03*
X112752016Y-124268844D03*
X102254692Y-119367352D03*
X114595700Y-116737453D03*
X102000000Y-137000000D03*
D16*
X110767829Y-115356980D03*
X108282745Y-112143166D03*
D14*
X105392714Y-117631279D03*
D16*
X109670092Y-116431181D03*
D14*
X105616337Y-112903185D03*
X114385235Y-122345126D03*
X103918014Y-111639673D03*
X107010671Y-122773885D03*
X103292900Y-128222884D03*
%TO.N,VBUS*%
X105000000Y-111550000D03*
X108000000Y-111550000D03*
D15*
%TO.N,+3V3*%
X115139400Y-118765900D03*
X113396600Y-125080200D03*
X109923600Y-125051300D03*
X110717900Y-118180800D03*
X101222500Y-119938300D03*
X105341500Y-119931900D03*
%TO.N,RUN*%
X113321200Y-120206600D03*
X109727600Y-120374800D03*
%TO.N,XIN*%
X108094000Y-119924800D03*
X108074600Y-124660900D03*
D14*
%TO.N,TGT_VTREF*%
X112750000Y-133300000D03*
D15*
%TO.N,VREG_LX*%
X111249800Y-124312100D03*
X110722500Y-116072100D03*
%TO.N,PROBE_BOOT*%
X109737100Y-133845000D03*
X105408900Y-118341600D03*
%TO.N,BOOT_SW*%
X112035000Y-127643700D03*
X115450300Y-112809700D03*
%TO.N,PROBE_SWCLK*%
X100680000Y-118550000D03*
X105460700Y-115950500D03*
%TO.N,PROBE_RESET*%
X108895700Y-127949200D03*
X103382400Y-121186900D03*
%TO.N,LED_ACT*%
X112259200Y-121293200D03*
X114786100Y-121205300D03*
%TO.N,QSPI_SS*%
X112983200Y-111233200D03*
X103771700Y-113972500D03*
%TD*%
%TO.N,USB_DP*%
D17*
X108173000Y-115105400D02*
X108173000Y-112758700D01*
D18*
X107296000Y-111882000D02*
X107250000Y-112100000D01*
D17*
X108173000Y-112758700D02*
X107296500Y-111882200D01*
D18*
X107200000Y-106455000D02*
X108300000Y-106455000D01*
%TO.N,VBUS*%
X108000000Y-111550000D02*
X105000000Y-111550000D01*
%TO.N,+3V3*%
D17*
X113263400Y-125213400D02*
X113396600Y-125080200D01*
X109923600Y-125051300D02*
X110085700Y-125213400D01*
X107092600Y-118180800D02*
X110717900Y-118180800D01*
X105341500Y-119931900D02*
X101228900Y-119931900D01*
X101222500Y-119938300D02*
X101461700Y-119938300D01*
X115293700Y-123183100D02*
X115293700Y-118920200D01*
X115293700Y-118920200D02*
X115139400Y-118765900D01*
X115139400Y-118765900D02*
X111303000Y-118765900D01*
X111303000Y-118765900D02*
X110717900Y-118180800D01*
X113396600Y-125080200D02*
X115293700Y-123183100D01*
X110085700Y-125213400D02*
X113263400Y-125213400D01*
X105341500Y-119931900D02*
X107092600Y-118180800D01*
%TO.N,RUN*%
X109895800Y-120206600D02*
X109727600Y-120374800D01*
X109727600Y-120374800D02*
X109583800Y-120518600D01*
X113321200Y-120206600D02*
X109895800Y-120206600D01*
%TO.N,XIN*%
D18*
X111422800Y-124840100D02*
X110999800Y-124840100D01*
X111769000Y-123599800D02*
X111769000Y-124493900D01*
X108211600Y-124523900D02*
X108074600Y-124660900D01*
X108094000Y-119924800D02*
X111769000Y-123599800D01*
X110683600Y-124523900D02*
X108211600Y-124523900D01*
X111769000Y-124493900D02*
X111422800Y-124840100D01*
X110999800Y-124840100D02*
X110683600Y-124523900D01*
%TO.N,TGT_VTREF*%
D17*
X112750000Y-133300000D02*
X112750000Y-141500000D01*
X112750000Y-141500000D02*
X105460000Y-141500000D01*
X105460000Y-141500000D02*
X105460000Y-139820000D01*
%TO.N,VREG_LX*%
X109684500Y-117110100D02*
X110722500Y-116072100D01*
X100678200Y-119778600D02*
X103346700Y-117110100D01*
X101191100Y-120674700D02*
X100678200Y-120161800D01*
X111249800Y-124312100D02*
X107612400Y-120674700D01*
X107612400Y-120674700D02*
X101191100Y-120674700D01*
X100678200Y-120161800D02*
X100678200Y-119778600D01*
X103346700Y-117110100D02*
X109684500Y-117110100D01*
%TO.N,PROBE_BOOT*%
D18*
X115632700Y-127949400D02*
X109737100Y-133845000D01*
X105408900Y-118341600D02*
X106132700Y-117617800D01*
X114754100Y-117617800D02*
X115632700Y-118496400D01*
X115632700Y-118496400D02*
X115632700Y-127949400D01*
D17*
X105408900Y-118341600D02*
X105273400Y-118477100D01*
D18*
X106132700Y-117617800D02*
X114754100Y-117617800D01*
%TO.N,BOOT_SW*%
D17*
X112035000Y-127643700D02*
X111920300Y-127643700D01*
X112035000Y-127643700D02*
X111213900Y-128464800D01*
X112672800Y-112809700D02*
X115450300Y-112809700D01*
X103559700Y-116442200D02*
X109040300Y-116442200D01*
X109040300Y-116442200D02*
X112672800Y-112809700D01*
X100356500Y-119645400D02*
X103559700Y-116442200D01*
X111213900Y-128464800D02*
X108478800Y-128464800D01*
X100356500Y-120342500D02*
X100356500Y-119645400D01*
X108478800Y-128464800D02*
X100356500Y-120342500D01*
%TO.N,PROBE_SWCLK*%
D18*
X101900000Y-117670000D02*
X100680000Y-118550000D01*
X103650000Y-115920000D02*
X101900000Y-117670000D01*
X105460700Y-115950500D02*
X103650000Y-115920000D01*
%TO.N,PROBE_RESET*%
X103352200Y-121217100D02*
X108895700Y-126760600D01*
X108895700Y-126760600D02*
X108895700Y-127949200D01*
X103382400Y-121186900D02*
X103352200Y-121217100D01*
%TO.N,LED_ACT*%
D17*
X114698200Y-121293200D02*
X112259200Y-121293200D01*
X114786100Y-121205300D02*
X114698200Y-121293200D01*
%TO.N,QSPI_SS*%
D18*
X108578400Y-115638000D02*
X112983200Y-111233200D01*
X103771700Y-113972500D02*
X104178100Y-113972500D01*
X105843600Y-115638000D02*
X108578400Y-115638000D01*
X104178100Y-113972500D02*
X105843600Y-115638000D01*
%TD*%
%TA.AperFunction,Conductor*%
%TO.N,GND*%
G36*
X100326825Y-120709511D02*
G01*
X108306569Y-128689256D01*
X108370531Y-128726184D01*
X108441868Y-128745299D01*
X108441869Y-128745300D01*
X108441871Y-128745300D01*
X111250831Y-128745300D01*
X111250831Y-128745299D01*
X111322169Y-128726184D01*
X111386131Y-128689256D01*
X111438356Y-128637031D01*
X111438356Y-128637029D01*
X111444444Y-128630942D01*
X111444446Y-128630938D01*
X111959513Y-128115874D01*
X112011839Y-128094200D01*
X112094311Y-128094200D01*
X112094311Y-128094199D01*
X112208886Y-128063499D01*
X112311613Y-128004189D01*
X112395489Y-127920313D01*
X112454799Y-127817586D01*
X112485499Y-127703011D01*
X112485500Y-127703011D01*
X112485500Y-127584389D01*
X112485499Y-127584388D01*
X112454800Y-127469817D01*
X112454798Y-127469812D01*
X112395491Y-127367090D01*
X112395490Y-127367089D01*
X112395489Y-127367087D01*
X112311613Y-127283211D01*
X112311610Y-127283209D01*
X112311609Y-127283208D01*
X112208887Y-127223901D01*
X112208882Y-127223899D01*
X112094311Y-127193200D01*
X112094309Y-127193200D01*
X111975691Y-127193200D01*
X111975689Y-127193200D01*
X111861117Y-127223899D01*
X111861112Y-127223901D01*
X111758390Y-127283208D01*
X111674508Y-127367090D01*
X111615201Y-127469812D01*
X111615199Y-127469817D01*
X111584500Y-127584388D01*
X111584500Y-127666861D01*
X111562826Y-127719187D01*
X111119388Y-128162626D01*
X111067062Y-128184300D01*
X109395536Y-128184300D01*
X109343210Y-128162626D01*
X109321536Y-128110300D01*
X109324057Y-128091147D01*
X109331465Y-128063499D01*
X109346200Y-128008509D01*
X109346200Y-127889891D01*
X109346200Y-127889889D01*
X109346199Y-127889888D01*
X109337375Y-127856958D01*
X109315499Y-127775314D01*
X109283094Y-127719187D01*
X109256191Y-127672590D01*
X109256190Y-127672589D01*
X109256189Y-127672587D01*
X109192874Y-127609272D01*
X109171200Y-127556946D01*
X109171200Y-126705800D01*
X109129257Y-126604543D01*
X109129257Y-126604542D01*
X109051758Y-126527043D01*
X103850013Y-121325298D01*
X103828339Y-121272972D01*
X103830862Y-121253815D01*
X103832900Y-121246211D01*
X103832900Y-121127592D01*
X103830681Y-121119312D01*
X103811668Y-121048352D01*
X103819061Y-120992200D01*
X103863994Y-120957721D01*
X103883147Y-120955200D01*
X107465562Y-120955200D01*
X107517888Y-120976874D01*
X110663088Y-124122074D01*
X110684762Y-124174400D01*
X110663088Y-124226726D01*
X110610762Y-124248400D01*
X108280827Y-124248400D01*
X108252509Y-124242767D01*
X108248485Y-124241100D01*
X108133911Y-124210400D01*
X108133909Y-124210400D01*
X108015291Y-124210400D01*
X108015289Y-124210400D01*
X107900717Y-124241099D01*
X107900712Y-124241101D01*
X107797990Y-124300408D01*
X107714108Y-124384290D01*
X107654801Y-124487012D01*
X107654799Y-124487017D01*
X107624100Y-124601588D01*
X107624100Y-124720211D01*
X107654799Y-124834782D01*
X107654801Y-124834787D01*
X107714108Y-124937509D01*
X107714109Y-124937510D01*
X107714111Y-124937513D01*
X107797987Y-125021389D01*
X107900714Y-125080699D01*
X107900715Y-125080699D01*
X107900717Y-125080700D01*
X107958002Y-125096049D01*
X108015288Y-125111399D01*
X108015289Y-125111400D01*
X108015291Y-125111400D01*
X108133911Y-125111400D01*
X108133911Y-125111399D01*
X108248486Y-125080699D01*
X108351213Y-125021389D01*
X108435089Y-124937513D01*
X108493467Y-124836399D01*
X108538400Y-124801921D01*
X108557553Y-124799400D01*
X109428266Y-124799400D01*
X109480592Y-124821074D01*
X109502266Y-124873400D01*
X109499744Y-124892553D01*
X109473100Y-124991988D01*
X109473100Y-125110611D01*
X109503799Y-125225182D01*
X109503801Y-125225187D01*
X109563108Y-125327909D01*
X109563109Y-125327910D01*
X109563111Y-125327913D01*
X109646987Y-125411789D01*
X109646989Y-125411790D01*
X109646990Y-125411791D01*
X109697046Y-125440691D01*
X109749714Y-125471099D01*
X109749715Y-125471099D01*
X109749717Y-125471100D01*
X109807002Y-125486449D01*
X109864288Y-125501799D01*
X109864289Y-125501800D01*
X109864291Y-125501800D01*
X109982909Y-125501800D01*
X110011428Y-125494158D01*
X110043842Y-125494159D01*
X110043960Y-125493267D01*
X110048769Y-125493900D01*
X110048771Y-125493900D01*
X110048772Y-125493900D01*
X113193271Y-125493900D01*
X113218009Y-125498820D01*
X113218030Y-125498744D01*
X113219203Y-125499058D01*
X113221589Y-125499533D01*
X113222712Y-125499998D01*
X113222714Y-125499999D01*
X113337288Y-125530699D01*
X113337289Y-125530700D01*
X113337291Y-125530700D01*
X113455911Y-125530700D01*
X113455911Y-125530699D01*
X113570486Y-125499999D01*
X113673213Y-125440689D01*
X113757089Y-125356813D01*
X113816399Y-125254086D01*
X113847099Y-125139511D01*
X113847100Y-125139511D01*
X113847100Y-125057038D01*
X113868774Y-125004712D01*
X115230874Y-123642612D01*
X115283200Y-123620938D01*
X115335526Y-123642612D01*
X115357200Y-123694938D01*
X115357200Y-127804632D01*
X115335526Y-127856958D01*
X109819658Y-133372826D01*
X109767332Y-133394500D01*
X109677789Y-133394500D01*
X109563217Y-133425199D01*
X109563212Y-133425201D01*
X109460490Y-133484508D01*
X109376608Y-133568390D01*
X109317301Y-133671112D01*
X109317299Y-133671117D01*
X109286600Y-133785688D01*
X109286600Y-133904311D01*
X109317299Y-134018882D01*
X109317301Y-134018887D01*
X109376608Y-134121609D01*
X109376609Y-134121610D01*
X109376611Y-134121613D01*
X109460487Y-134205489D01*
X109563214Y-134264799D01*
X109563215Y-134264799D01*
X109563217Y-134264800D01*
X109620502Y-134280149D01*
X109677788Y-134295499D01*
X109677789Y-134295500D01*
X109677791Y-134295500D01*
X109796411Y-134295500D01*
X109796411Y-134295499D01*
X109910986Y-134264799D01*
X110013713Y-134205489D01*
X110097589Y-134121613D01*
X110156899Y-134018886D01*
X110187599Y-133904311D01*
X110187600Y-133904311D01*
X110187600Y-133814766D01*
X110209274Y-133762440D01*
X111172214Y-132799500D01*
X115673175Y-128298539D01*
X115725500Y-128276866D01*
X115777826Y-128298540D01*
X115799500Y-128350866D01*
X115799500Y-140997570D01*
X115799342Y-141002410D01*
X115784421Y-141230045D01*
X115783157Y-141239642D01*
X115739129Y-141460985D01*
X115736624Y-141470334D01*
X115664079Y-141684045D01*
X115660375Y-141692988D01*
X115560557Y-141895400D01*
X115555717Y-141903783D01*
X115430334Y-142091432D01*
X115424441Y-142099112D01*
X115275635Y-142268791D01*
X115268791Y-142275635D01*
X115099112Y-142424441D01*
X115091432Y-142430334D01*
X114903783Y-142555717D01*
X114895400Y-142560557D01*
X114692988Y-142660375D01*
X114684045Y-142664079D01*
X114470334Y-142736624D01*
X114460985Y-142739129D01*
X114239642Y-142783157D01*
X114230045Y-142784421D01*
X114002411Y-142799342D01*
X113997571Y-142799500D01*
X102002429Y-142799500D01*
X101997589Y-142799342D01*
X101769954Y-142784421D01*
X101760357Y-142783157D01*
X101539012Y-142739129D01*
X101529663Y-142736624D01*
X101315955Y-142664080D01*
X101307012Y-142660376D01*
X101205805Y-142610467D01*
X101104595Y-142560555D01*
X101096220Y-142555720D01*
X100908563Y-142430331D01*
X100900884Y-142424438D01*
X100884725Y-142410267D01*
X100731202Y-142275632D01*
X100724367Y-142268797D01*
X100575560Y-142099114D01*
X100569668Y-142091436D01*
X100444276Y-141903774D01*
X100439446Y-141895409D01*
X100339622Y-141692984D01*
X100335920Y-141684046D01*
X100263373Y-141470330D01*
X100260872Y-141460995D01*
X100216842Y-141239642D01*
X100215578Y-141230045D01*
X100200658Y-141002410D01*
X100200500Y-140997570D01*
X100200500Y-138950253D01*
X104409500Y-138950253D01*
X104409500Y-140689746D01*
X104421133Y-140748232D01*
X104450608Y-140792343D01*
X104465448Y-140814552D01*
X104509560Y-140844027D01*
X104531767Y-140858866D01*
X104531768Y-140858866D01*
X104531769Y-140858867D01*
X104590252Y-140870500D01*
X105105500Y-140870500D01*
X105157826Y-140892174D01*
X105179500Y-140944500D01*
X105179500Y-141536930D01*
X105198615Y-141608268D01*
X105226088Y-141655852D01*
X105235544Y-141672231D01*
X105287769Y-141724456D01*
X105351731Y-141761384D01*
X105351730Y-141761384D01*
X105392918Y-141772420D01*
X105423069Y-141780499D01*
X105423070Y-141780500D01*
X105423072Y-141780500D01*
X112786930Y-141780500D01*
X112786930Y-141780499D01*
X112858269Y-141761384D01*
X112922231Y-141724456D01*
X112974456Y-141672231D01*
X113011384Y-141608269D01*
X113030499Y-141536930D01*
X113030500Y-141536930D01*
X113030500Y-133757568D01*
X113052174Y-133705242D01*
X113055407Y-133702406D01*
X113057311Y-133700501D01*
X113057314Y-133700500D01*
X113150500Y-133607314D01*
X113216392Y-133493186D01*
X113250499Y-133365894D01*
X113250500Y-133365894D01*
X113250500Y-133234106D01*
X113250499Y-133234105D01*
X113216393Y-133106818D01*
X113216392Y-133106814D01*
X113150500Y-132992686D01*
X113057314Y-132899500D01*
X112943190Y-132833610D01*
X112943181Y-132833606D01*
X112815894Y-132799500D01*
X112815892Y-132799500D01*
X112684108Y-132799500D01*
X112684106Y-132799500D01*
X112556818Y-132833606D01*
X112556809Y-132833610D01*
X112442685Y-132899500D01*
X112349500Y-132992685D01*
X112283610Y-133106809D01*
X112283606Y-133106818D01*
X112249500Y-133234105D01*
X112249500Y-133365894D01*
X112283606Y-133493181D01*
X112283610Y-133493190D01*
X112349500Y-133607314D01*
X112446116Y-133703930D01*
X112444441Y-133705604D01*
X112468866Y-133747906D01*
X112469500Y-133757568D01*
X112469500Y-141145500D01*
X112447826Y-141197826D01*
X112395500Y-141219500D01*
X105814500Y-141219500D01*
X105762174Y-141197826D01*
X105740500Y-141145500D01*
X105740500Y-140944500D01*
X105762174Y-140892174D01*
X105814500Y-140870500D01*
X106329746Y-140870500D01*
X106329748Y-140870500D01*
X106388231Y-140858867D01*
X106454552Y-140814552D01*
X106498867Y-140748231D01*
X106510500Y-140689748D01*
X106510500Y-139716535D01*
X106949500Y-139716535D01*
X106949500Y-139923464D01*
X106989868Y-140126413D01*
X106989870Y-140126420D01*
X107069059Y-140317598D01*
X107184023Y-140489655D01*
X107330345Y-140635977D01*
X107502402Y-140750941D01*
X107693580Y-140830130D01*
X107896535Y-140870500D01*
X107896536Y-140870500D01*
X108103464Y-140870500D01*
X108103465Y-140870500D01*
X108306420Y-140830130D01*
X108497598Y-140750941D01*
X108669655Y-140635977D01*
X108815977Y-140489655D01*
X108930941Y-140317598D01*
X109010130Y-140126420D01*
X109050500Y-139923465D01*
X109050500Y-139716535D01*
X109010130Y-139513580D01*
X108930941Y-139322402D01*
X108815977Y-139150345D01*
X108669655Y-139004023D01*
X108589180Y-138950252D01*
X108497598Y-138889059D01*
X108306420Y-138809870D01*
X108306413Y-138809868D01*
X108153516Y-138779455D01*
X108103465Y-138769500D01*
X107896535Y-138769500D01*
X107856385Y-138777486D01*
X107693586Y-138809868D01*
X107693579Y-138809870D01*
X107502401Y-138889059D01*
X107330345Y-139004022D01*
X107330344Y-139004024D01*
X107184024Y-139150344D01*
X107184022Y-139150345D01*
X107069059Y-139322401D01*
X106989870Y-139513579D01*
X106989868Y-139513586D01*
X106949500Y-139716535D01*
X106510500Y-139716535D01*
X106510500Y-138950252D01*
X106498867Y-138891769D01*
X106497056Y-138889059D01*
X106484027Y-138869560D01*
X106454552Y-138825448D01*
X106431235Y-138809868D01*
X106388232Y-138781133D01*
X106388233Y-138781133D01*
X106358989Y-138775316D01*
X106329748Y-138769500D01*
X104590252Y-138769500D01*
X104561010Y-138775316D01*
X104531767Y-138781133D01*
X104465449Y-138825447D01*
X104465447Y-138825449D01*
X104421133Y-138891767D01*
X104409500Y-138950253D01*
X100200500Y-138950253D01*
X100200500Y-137176535D01*
X104409500Y-137176535D01*
X104409500Y-137383464D01*
X104449868Y-137586413D01*
X104449870Y-137586420D01*
X104529059Y-137777598D01*
X104644023Y-137949655D01*
X104790345Y-138095977D01*
X104962402Y-138210941D01*
X105153580Y-138290130D01*
X105356535Y-138330500D01*
X105356536Y-138330500D01*
X105563464Y-138330500D01*
X105563465Y-138330500D01*
X105766420Y-138290130D01*
X105957598Y-138210941D01*
X106129655Y-138095977D01*
X106275977Y-137949655D01*
X106390941Y-137777598D01*
X106470130Y-137586420D01*
X106510500Y-137383465D01*
X106510500Y-137176535D01*
X106949500Y-137176535D01*
X106949500Y-137383464D01*
X106989868Y-137586413D01*
X106989870Y-137586420D01*
X107069059Y-137777598D01*
X107184023Y-137949655D01*
X107330345Y-138095977D01*
X107502402Y-138210941D01*
X107693580Y-138290130D01*
X107896535Y-138330500D01*
X107896536Y-138330500D01*
X108103464Y-138330500D01*
X108103465Y-138330500D01*
X108306420Y-138290130D01*
X108497598Y-138210941D01*
X108669655Y-138095977D01*
X108815977Y-137949655D01*
X108930941Y-137777598D01*
X109010130Y-137586420D01*
X109050500Y-137383465D01*
X109050500Y-137176535D01*
X109489500Y-137176535D01*
X109489500Y-137383464D01*
X109529868Y-137586413D01*
X109529870Y-137586420D01*
X109609059Y-137777598D01*
X109724023Y-137949655D01*
X109870345Y-138095977D01*
X110042402Y-138210941D01*
X110233580Y-138290130D01*
X110436535Y-138330500D01*
X110436536Y-138330500D01*
X110643464Y-138330500D01*
X110643465Y-138330500D01*
X110846420Y-138290130D01*
X111037598Y-138210941D01*
X111209655Y-138095977D01*
X111355977Y-137949655D01*
X111470941Y-137777598D01*
X111550130Y-137586420D01*
X111590500Y-137383465D01*
X111590500Y-137176535D01*
X111550130Y-136973580D01*
X111470941Y-136782402D01*
X111355977Y-136610345D01*
X111209655Y-136464023D01*
X111037598Y-136349059D01*
X110846420Y-136269870D01*
X110846413Y-136269868D01*
X110693516Y-136239455D01*
X110643465Y-136229500D01*
X110436535Y-136229500D01*
X110396385Y-136237486D01*
X110233586Y-136269868D01*
X110233579Y-136269870D01*
X110042401Y-136349059D01*
X109870345Y-136464022D01*
X109870344Y-136464024D01*
X109724024Y-136610344D01*
X109724022Y-136610345D01*
X109609059Y-136782401D01*
X109529870Y-136973579D01*
X109529868Y-136973586D01*
X109489500Y-137176535D01*
X109050500Y-137176535D01*
X109010130Y-136973580D01*
X108930941Y-136782402D01*
X108815977Y-136610345D01*
X108669655Y-136464023D01*
X108497598Y-136349059D01*
X108306420Y-136269870D01*
X108306413Y-136269868D01*
X108153516Y-136239455D01*
X108103465Y-136229500D01*
X107896535Y-136229500D01*
X107856385Y-136237486D01*
X107693586Y-136269868D01*
X107693579Y-136269870D01*
X107502401Y-136349059D01*
X107330345Y-136464022D01*
X107330344Y-136464024D01*
X107184024Y-136610344D01*
X107184022Y-136610345D01*
X107069059Y-136782401D01*
X106989870Y-136973579D01*
X106989868Y-136973586D01*
X106949500Y-137176535D01*
X106510500Y-137176535D01*
X106470130Y-136973580D01*
X106390941Y-136782402D01*
X106275977Y-136610345D01*
X106129655Y-136464023D01*
X105957598Y-136349059D01*
X105766420Y-136269870D01*
X105766413Y-136269868D01*
X105613516Y-136239455D01*
X105563465Y-136229500D01*
X105356535Y-136229500D01*
X105316385Y-136237486D01*
X105153586Y-136269868D01*
X105153579Y-136269870D01*
X104962401Y-136349059D01*
X104790345Y-136464022D01*
X104790344Y-136464024D01*
X104644024Y-136610344D01*
X104644022Y-136610345D01*
X104529059Y-136782401D01*
X104449870Y-136973579D01*
X104449868Y-136973586D01*
X104409500Y-137176535D01*
X100200500Y-137176535D01*
X100200500Y-120761838D01*
X100222174Y-120709512D01*
X100274500Y-120687838D01*
X100326825Y-120709511D01*
G37*
%TD.AperFunction*%
%TA.AperFunction,Conductor*%
G36*
X110382971Y-118482974D02*
G01*
X110415479Y-118515481D01*
X110441287Y-118541289D01*
X110544014Y-118600599D01*
X110544015Y-118600599D01*
X110544017Y-118600600D01*
X110576520Y-118609309D01*
X110658588Y-118631299D01*
X110658589Y-118631300D01*
X110658591Y-118631300D01*
X110741062Y-118631300D01*
X110793387Y-118652973D01*
X111078543Y-118938130D01*
X111078544Y-118938131D01*
X111130769Y-118990356D01*
X111194731Y-119027284D01*
X111266068Y-119046399D01*
X111266069Y-119046400D01*
X111266071Y-119046400D01*
X111266072Y-119046400D01*
X114752146Y-119046400D01*
X114804471Y-119068074D01*
X114862786Y-119126388D01*
X114862789Y-119126390D01*
X114965514Y-119185699D01*
X114967513Y-119186527D01*
X114968285Y-119187299D01*
X114969714Y-119188124D01*
X114969493Y-119188506D01*
X115007565Y-119226572D01*
X115013200Y-119254896D01*
X115013200Y-120703320D01*
X114991526Y-120755646D01*
X114939200Y-120777320D01*
X114920048Y-120774799D01*
X114845409Y-120754800D01*
X114726791Y-120754800D01*
X114726789Y-120754800D01*
X114612217Y-120785499D01*
X114612212Y-120785501D01*
X114509490Y-120844808D01*
X114425611Y-120928686D01*
X114398468Y-120975700D01*
X114353534Y-121010179D01*
X114334382Y-121012700D01*
X112646454Y-121012700D01*
X112594129Y-120991026D01*
X112535813Y-120932711D01*
X112535810Y-120932709D01*
X112433087Y-120873401D01*
X112433082Y-120873399D01*
X112318511Y-120842700D01*
X112318509Y-120842700D01*
X112199891Y-120842700D01*
X112199889Y-120842700D01*
X112085317Y-120873399D01*
X112085312Y-120873401D01*
X111982590Y-120932708D01*
X111898708Y-121016590D01*
X111839401Y-121119312D01*
X111839399Y-121119317D01*
X111808700Y-121233888D01*
X111808700Y-121352511D01*
X111839399Y-121467082D01*
X111839401Y-121467087D01*
X111898708Y-121569809D01*
X111898709Y-121569810D01*
X111898711Y-121569813D01*
X111982587Y-121653689D01*
X111982589Y-121653690D01*
X111982590Y-121653691D01*
X112085312Y-121712998D01*
X112085314Y-121712999D01*
X112085315Y-121712999D01*
X112085317Y-121713000D01*
X112142602Y-121728349D01*
X112199888Y-121743699D01*
X112199889Y-121743700D01*
X112199891Y-121743700D01*
X112318511Y-121743700D01*
X112318511Y-121743699D01*
X112433086Y-121712999D01*
X112535813Y-121653689D01*
X112564971Y-121624531D01*
X112594129Y-121595374D01*
X112646454Y-121573700D01*
X114503360Y-121573700D01*
X114540360Y-121583614D01*
X114580346Y-121606700D01*
X114612214Y-121625099D01*
X114612215Y-121625099D01*
X114612217Y-121625100D01*
X114652154Y-121635801D01*
X114726788Y-121655799D01*
X114726789Y-121655800D01*
X114726791Y-121655800D01*
X114845411Y-121655800D01*
X114845411Y-121655799D01*
X114892459Y-121643193D01*
X114920047Y-121635801D01*
X114976200Y-121643193D01*
X115010678Y-121688126D01*
X115013200Y-121707279D01*
X115013200Y-123036261D01*
X114991526Y-123088587D01*
X113472088Y-124608026D01*
X113419762Y-124629700D01*
X113337289Y-124629700D01*
X113222717Y-124660399D01*
X113222712Y-124660401D01*
X113119990Y-124719708D01*
X113036108Y-124803590D01*
X112982813Y-124895900D01*
X112937879Y-124930379D01*
X112918727Y-124932900D01*
X111898267Y-124932900D01*
X111845941Y-124911226D01*
X111824267Y-124858900D01*
X111845941Y-124806574D01*
X111853115Y-124799400D01*
X112002558Y-124649958D01*
X112044500Y-124548700D01*
X112044500Y-124439100D01*
X112044500Y-123545000D01*
X112002557Y-123443742D01*
X111925058Y-123366243D01*
X109483414Y-120924599D01*
X109482911Y-120923385D01*
X109481715Y-120922843D01*
X109472144Y-120897392D01*
X109461740Y-120872273D01*
X109462242Y-120871059D01*
X109461780Y-120869829D01*
X109473013Y-120845056D01*
X109483414Y-120819947D01*
X109484627Y-120819444D01*
X109485170Y-120818248D01*
X109495609Y-120814895D01*
X109535740Y-120798273D01*
X109538184Y-120798313D01*
X109544742Y-120798529D01*
X109546871Y-120799100D01*
X109562004Y-120799100D01*
X109563215Y-120799140D01*
X109564090Y-120799537D01*
X109579924Y-120801622D01*
X109668288Y-120825299D01*
X109668289Y-120825300D01*
X109668291Y-120825300D01*
X109786911Y-120825300D01*
X109786911Y-120825299D01*
X109901486Y-120794599D01*
X110004213Y-120735289D01*
X110088089Y-120651413D01*
X110147399Y-120548686D01*
X110149204Y-120541947D01*
X110183683Y-120497014D01*
X110220683Y-120487100D01*
X112933946Y-120487100D01*
X112986271Y-120508774D01*
X113016686Y-120539188D01*
X113044587Y-120567089D01*
X113072468Y-120583186D01*
X113136954Y-120620418D01*
X113147314Y-120626399D01*
X113147315Y-120626399D01*
X113147317Y-120626400D01*
X113167575Y-120631828D01*
X113261888Y-120657099D01*
X113261889Y-120657100D01*
X113261891Y-120657100D01*
X113380511Y-120657100D01*
X113380511Y-120657099D01*
X113495086Y-120626399D01*
X113597813Y-120567089D01*
X113681689Y-120483213D01*
X113740999Y-120380486D01*
X113771699Y-120265911D01*
X113771700Y-120265911D01*
X113771700Y-120147289D01*
X113771699Y-120147288D01*
X113758676Y-120098687D01*
X113740999Y-120032714D01*
X113712937Y-119984109D01*
X113681691Y-119929990D01*
X113681690Y-119929989D01*
X113681689Y-119929987D01*
X113597813Y-119846111D01*
X113597810Y-119846109D01*
X113597809Y-119846108D01*
X113495087Y-119786801D01*
X113495082Y-119786799D01*
X113380511Y-119756100D01*
X113380509Y-119756100D01*
X113261891Y-119756100D01*
X113261889Y-119756100D01*
X113147317Y-119786799D01*
X113147312Y-119786801D01*
X113044589Y-119846109D01*
X113044586Y-119846111D01*
X112986271Y-119904426D01*
X112933946Y-119926100D01*
X109858867Y-119926100D01*
X109845398Y-119929709D01*
X109807098Y-119929709D01*
X109786910Y-119924300D01*
X109786909Y-119924300D01*
X109668291Y-119924300D01*
X109668289Y-119924300D01*
X109553717Y-119954999D01*
X109553712Y-119955001D01*
X109450990Y-120014308D01*
X109367108Y-120098190D01*
X109307801Y-120200912D01*
X109307799Y-120200917D01*
X109277100Y-120315488D01*
X109277100Y-120434111D01*
X109300778Y-120522476D01*
X109303260Y-120539188D01*
X109303300Y-120540400D01*
X109303300Y-120555529D01*
X109303869Y-120557653D01*
X109304086Y-120564218D01*
X109295295Y-120587592D01*
X109288829Y-120611714D01*
X109285501Y-120613634D01*
X109284149Y-120617231D01*
X109261400Y-120627545D01*
X109239776Y-120640027D01*
X109236066Y-120639032D01*
X109232567Y-120640619D01*
X109209192Y-120631828D01*
X109185071Y-120625362D01*
X109179870Y-120620801D01*
X109179554Y-120620682D01*
X109179434Y-120620418D01*
X109177800Y-120618985D01*
X108566174Y-120007359D01*
X108544500Y-119955033D01*
X108544500Y-119865489D01*
X108544499Y-119865488D01*
X108539306Y-119846109D01*
X108513799Y-119750914D01*
X108454489Y-119648187D01*
X108370613Y-119564311D01*
X108370610Y-119564309D01*
X108370609Y-119564308D01*
X108267887Y-119505001D01*
X108267882Y-119504999D01*
X108153311Y-119474300D01*
X108153309Y-119474300D01*
X108034691Y-119474300D01*
X108034689Y-119474300D01*
X107920117Y-119504999D01*
X107920112Y-119505001D01*
X107817390Y-119564308D01*
X107733508Y-119648190D01*
X107674201Y-119750912D01*
X107674199Y-119750917D01*
X107643500Y-119865488D01*
X107643500Y-119984111D01*
X107674199Y-120098682D01*
X107674201Y-120098687D01*
X107733508Y-120201409D01*
X107733509Y-120201410D01*
X107733511Y-120201413D01*
X107817387Y-120285289D01*
X107817389Y-120285290D01*
X107817390Y-120285291D01*
X107869698Y-120315491D01*
X107920114Y-120344599D01*
X107920115Y-120344599D01*
X107920117Y-120344600D01*
X107946611Y-120351699D01*
X108034688Y-120375299D01*
X108034689Y-120375300D01*
X108124233Y-120375300D01*
X108176559Y-120396974D01*
X111471826Y-123692241D01*
X111493500Y-123744567D01*
X111493500Y-123814568D01*
X111471826Y-123866894D01*
X111419500Y-123888568D01*
X111400348Y-123886047D01*
X111309109Y-123861600D01*
X111226639Y-123861600D01*
X111174313Y-123839926D01*
X107841076Y-120506690D01*
X107841074Y-120506687D01*
X107784630Y-120450243D01*
X107720670Y-120413316D01*
X107716592Y-120412223D01*
X107709529Y-120410331D01*
X107679429Y-120402265D01*
X107649330Y-120394200D01*
X107649329Y-120394200D01*
X107649328Y-120394200D01*
X105694953Y-120394200D01*
X105642627Y-120372526D01*
X105620953Y-120320200D01*
X105642626Y-120267875D01*
X105701989Y-120208513D01*
X105761299Y-120105786D01*
X105791999Y-119991211D01*
X105792000Y-119991211D01*
X105792000Y-119908738D01*
X105813674Y-119856412D01*
X107187113Y-118482974D01*
X107239439Y-118461300D01*
X110330646Y-118461300D01*
X110382971Y-118482974D01*
G37*
%TD.AperFunction*%
%TA.AperFunction,Conductor*%
G36*
X105843958Y-117412274D02*
G01*
X105865632Y-117464600D01*
X105843958Y-117516926D01*
X105491457Y-117869426D01*
X105439131Y-117891100D01*
X105349589Y-117891100D01*
X105235017Y-117921799D01*
X105235012Y-117921801D01*
X105132290Y-117981108D01*
X105048408Y-118064990D01*
X104989101Y-118167712D01*
X104989099Y-118167717D01*
X104958400Y-118282288D01*
X104958400Y-118400911D01*
X104989099Y-118515481D01*
X104989100Y-118515482D01*
X104989101Y-118515486D01*
X104989102Y-118515487D01*
X104992049Y-118520592D01*
X104999439Y-118538435D01*
X105012015Y-118585366D01*
X105012016Y-118585370D01*
X105048942Y-118649327D01*
X105048943Y-118649328D01*
X105048945Y-118649331D01*
X105101169Y-118701555D01*
X105101171Y-118701556D01*
X105101172Y-118701557D01*
X105102097Y-118702091D01*
X105165131Y-118738484D01*
X105212065Y-118751060D01*
X105229909Y-118758452D01*
X105235010Y-118761397D01*
X105235012Y-118761397D01*
X105235014Y-118761399D01*
X105235015Y-118761399D01*
X105235017Y-118761400D01*
X105292302Y-118776749D01*
X105349588Y-118792099D01*
X105349589Y-118792100D01*
X105349591Y-118792100D01*
X105468211Y-118792100D01*
X105468211Y-118792099D01*
X105582786Y-118761399D01*
X105685513Y-118702089D01*
X105769389Y-118618213D01*
X105828699Y-118515486D01*
X105859399Y-118400911D01*
X105859400Y-118400911D01*
X105859400Y-118311367D01*
X105881074Y-118259041D01*
X106225142Y-117914974D01*
X106277468Y-117893300D01*
X106804761Y-117893300D01*
X106857087Y-117914974D01*
X106878761Y-117967300D01*
X106857087Y-118019626D01*
X105416988Y-119459726D01*
X105364662Y-119481400D01*
X105282189Y-119481400D01*
X105167617Y-119512099D01*
X105167612Y-119512101D01*
X105064889Y-119571409D01*
X105064886Y-119571411D01*
X105006571Y-119629726D01*
X104954246Y-119651400D01*
X101603354Y-119651400D01*
X101551029Y-119629726D01*
X101499113Y-119577811D01*
X101440976Y-119544245D01*
X101406498Y-119499311D01*
X101413891Y-119443158D01*
X101425647Y-119427837D01*
X103441213Y-117412274D01*
X103493539Y-117390600D01*
X105791632Y-117390600D01*
X105843958Y-117412274D01*
G37*
%TD.AperFunction*%
%TA.AperFunction,Conductor*%
G36*
X114002411Y-100200658D02*
G01*
X114230045Y-100215578D01*
X114239642Y-100216842D01*
X114290142Y-100226887D01*
X114460995Y-100260872D01*
X114470330Y-100263373D01*
X114684046Y-100335920D01*
X114692984Y-100339622D01*
X114895409Y-100439446D01*
X114903774Y-100444276D01*
X115091430Y-100569664D01*
X115091436Y-100569668D01*
X115099110Y-100575557D01*
X115268797Y-100724367D01*
X115275632Y-100731202D01*
X115410267Y-100884725D01*
X115424438Y-100900884D01*
X115430331Y-100908563D01*
X115555718Y-101096216D01*
X115560558Y-101104599D01*
X115660376Y-101307012D01*
X115664080Y-101315955D01*
X115736624Y-101529663D01*
X115739129Y-101539012D01*
X115783157Y-101760357D01*
X115784421Y-101769954D01*
X115799342Y-101997589D01*
X115799500Y-102002429D01*
X115799500Y-112362946D01*
X115777826Y-112415272D01*
X115725500Y-112436946D01*
X115688500Y-112427032D01*
X115624188Y-112389902D01*
X115624182Y-112389899D01*
X115509611Y-112359200D01*
X115509609Y-112359200D01*
X115390991Y-112359200D01*
X115390989Y-112359200D01*
X115276417Y-112389899D01*
X115276412Y-112389901D01*
X115173689Y-112449209D01*
X115173686Y-112449211D01*
X115115371Y-112507526D01*
X115063046Y-112529200D01*
X112635870Y-112529200D01*
X112564531Y-112548315D01*
X112500569Y-112585243D01*
X108945788Y-116140026D01*
X108893462Y-116161700D01*
X105966940Y-116161700D01*
X105960493Y-116159029D01*
X105953673Y-116160501D01*
X105935069Y-116148498D01*
X105914614Y-116140026D01*
X105911943Y-116133579D01*
X105906081Y-116129797D01*
X105902987Y-116111957D01*
X105892940Y-116087700D01*
X105894139Y-116074433D01*
X105894681Y-116071457D01*
X105911200Y-116009809D01*
X105911200Y-115980812D01*
X105912399Y-115974233D01*
X105924401Y-115955629D01*
X105932874Y-115935174D01*
X105939320Y-115932503D01*
X105943103Y-115926641D01*
X105964744Y-115921972D01*
X105985200Y-115913500D01*
X108633198Y-115913500D01*
X108633200Y-115913500D01*
X108734458Y-115871557D01*
X108811957Y-115794058D01*
X112900640Y-111705373D01*
X112952966Y-111683700D01*
X113042511Y-111683700D01*
X113042511Y-111683699D01*
X113157086Y-111652999D01*
X113259813Y-111593689D01*
X113343689Y-111509813D01*
X113402999Y-111407086D01*
X113433699Y-111292511D01*
X113433700Y-111292511D01*
X113433700Y-111173889D01*
X113433699Y-111173888D01*
X113403000Y-111059317D01*
X113402998Y-111059312D01*
X113343691Y-110956590D01*
X113343690Y-110956589D01*
X113343689Y-110956587D01*
X113259813Y-110872711D01*
X113259810Y-110872709D01*
X113259809Y-110872708D01*
X113157087Y-110813401D01*
X113157082Y-110813399D01*
X113042511Y-110782700D01*
X113042509Y-110782700D01*
X112923891Y-110782700D01*
X112923889Y-110782700D01*
X112809317Y-110813399D01*
X112809312Y-110813401D01*
X112706590Y-110872708D01*
X112622708Y-110956590D01*
X112563401Y-111059312D01*
X112563399Y-111059317D01*
X112532700Y-111173888D01*
X112532700Y-111263432D01*
X112511026Y-111315758D01*
X108747350Y-115079433D01*
X108695024Y-115101107D01*
X108642698Y-115079433D01*
X108623546Y-115046260D01*
X108592800Y-114931517D01*
X108592798Y-114931512D01*
X108533490Y-114828789D01*
X108533488Y-114828786D01*
X108475174Y-114770471D01*
X108453500Y-114718146D01*
X108453500Y-112721770D01*
X108453499Y-112721769D01*
X108434384Y-112650431D01*
X108397456Y-112586469D01*
X107987813Y-112176826D01*
X107966139Y-112124500D01*
X107987813Y-112072174D01*
X108040139Y-112050500D01*
X108065894Y-112050500D01*
X108065894Y-112050499D01*
X108193186Y-112016392D01*
X108307314Y-111950500D01*
X108400500Y-111857314D01*
X108466392Y-111743186D01*
X108500499Y-111615894D01*
X108500500Y-111615894D01*
X108500500Y-111484106D01*
X108500499Y-111484105D01*
X108466393Y-111356818D01*
X108466392Y-111356814D01*
X108400500Y-111242686D01*
X108307314Y-111149500D01*
X108193190Y-111083610D01*
X108193181Y-111083606D01*
X108065894Y-111049500D01*
X108065892Y-111049500D01*
X107934108Y-111049500D01*
X107934106Y-111049500D01*
X107806818Y-111083606D01*
X107806809Y-111083610D01*
X107692685Y-111149500D01*
X107599496Y-111242690D01*
X107597298Y-111245555D01*
X107548245Y-111273868D01*
X107538595Y-111274500D01*
X105461405Y-111274500D01*
X105409079Y-111252826D01*
X105402702Y-111245555D01*
X105400503Y-111242690D01*
X105400501Y-111242688D01*
X105400500Y-111242686D01*
X105307314Y-111149500D01*
X105193190Y-111083610D01*
X105193181Y-111083606D01*
X105065894Y-111049500D01*
X105065892Y-111049500D01*
X104934108Y-111049500D01*
X104934106Y-111049500D01*
X104806818Y-111083606D01*
X104806809Y-111083610D01*
X104692685Y-111149500D01*
X104599500Y-111242685D01*
X104533610Y-111356809D01*
X104533606Y-111356818D01*
X104499500Y-111484105D01*
X104499500Y-111615894D01*
X104533606Y-111743181D01*
X104533607Y-111743184D01*
X104533608Y-111743186D01*
X104599500Y-111857314D01*
X104692686Y-111950500D01*
X104806814Y-112016392D01*
X104934105Y-112050499D01*
X104934106Y-112050500D01*
X104934108Y-112050500D01*
X105065894Y-112050500D01*
X105065894Y-112050499D01*
X105193186Y-112016392D01*
X105307314Y-111950500D01*
X105400500Y-111857314D01*
X105400503Y-111857309D01*
X105402702Y-111854445D01*
X105451755Y-111826132D01*
X105461405Y-111825500D01*
X106708958Y-111825500D01*
X106761284Y-111847174D01*
X106782958Y-111899500D01*
X106780436Y-111918653D01*
X106749500Y-112034105D01*
X106749500Y-112165894D01*
X106783606Y-112293181D01*
X106783607Y-112293184D01*
X106783608Y-112293186D01*
X106849500Y-112407314D01*
X106942686Y-112500500D01*
X107056814Y-112566392D01*
X107184105Y-112600499D01*
X107184106Y-112600500D01*
X107184108Y-112600500D01*
X107315891Y-112600500D01*
X107315892Y-112600500D01*
X107443186Y-112566392D01*
X107483286Y-112543239D01*
X107539437Y-112535846D01*
X107572612Y-112554999D01*
X107870826Y-112853212D01*
X107892500Y-112905538D01*
X107892500Y-114718146D01*
X107870826Y-114770471D01*
X107812511Y-114828786D01*
X107812509Y-114828789D01*
X107753201Y-114931512D01*
X107753199Y-114931517D01*
X107722500Y-115046088D01*
X107722500Y-115046091D01*
X107722500Y-115164709D01*
X107736620Y-115217404D01*
X107750538Y-115269347D01*
X107743145Y-115325500D01*
X107698212Y-115359979D01*
X107679059Y-115362500D01*
X105988368Y-115362500D01*
X105936042Y-115340826D01*
X104334159Y-113738944D01*
X104334157Y-113738942D01*
X104274842Y-113714373D01*
X104232900Y-113697000D01*
X104232899Y-113697000D01*
X104163954Y-113697000D01*
X104111628Y-113675326D01*
X104048313Y-113612011D01*
X104048310Y-113612009D01*
X104048309Y-113612008D01*
X103945587Y-113552701D01*
X103945582Y-113552699D01*
X103831011Y-113522000D01*
X103831009Y-113522000D01*
X103712391Y-113522000D01*
X103712389Y-113522000D01*
X103597817Y-113552699D01*
X103597812Y-113552701D01*
X103495090Y-113612008D01*
X103411208Y-113695890D01*
X103351901Y-113798612D01*
X103351899Y-113798617D01*
X103321200Y-113913188D01*
X103321200Y-114031811D01*
X103351899Y-114146382D01*
X103351901Y-114146387D01*
X103411208Y-114249109D01*
X103411209Y-114249110D01*
X103411211Y-114249113D01*
X103495087Y-114332989D01*
X103597814Y-114392299D01*
X103597815Y-114392299D01*
X103597817Y-114392300D01*
X103655102Y-114407649D01*
X103712388Y-114422999D01*
X103712389Y-114423000D01*
X103712391Y-114423000D01*
X103831011Y-114423000D01*
X103831011Y-114422999D01*
X103945586Y-114392299D01*
X104048313Y-114332989D01*
X104052159Y-114330038D01*
X104053634Y-114331960D01*
X104098617Y-114313310D01*
X104150951Y-114334966D01*
X104150969Y-114334984D01*
X105256578Y-115440594D01*
X105278252Y-115492920D01*
X105256578Y-115545246D01*
X105241253Y-115557005D01*
X105184087Y-115590010D01*
X105127317Y-115646779D01*
X105074991Y-115668452D01*
X105073746Y-115668442D01*
X103716308Y-115645577D01*
X103716308Y-115645576D01*
X103707021Y-115645419D01*
X103704800Y-115644500D01*
X103652330Y-115644500D01*
X103651735Y-115644490D01*
X103649643Y-115644454D01*
X103599848Y-115643616D01*
X103599847Y-115643616D01*
X103599654Y-115643613D01*
X103598102Y-115643922D01*
X103598096Y-115643924D01*
X103595200Y-115644499D01*
X103547262Y-115664355D01*
X103546111Y-115664820D01*
X103497894Y-115683848D01*
X103495379Y-115685468D01*
X103495348Y-115685489D01*
X103494076Y-115686307D01*
X103457229Y-115723153D01*
X103456765Y-115723616D01*
X103419104Y-115760031D01*
X103418145Y-115762236D01*
X103411582Y-115768800D01*
X101725068Y-117455315D01*
X101716032Y-117463005D01*
X100836576Y-118097368D01*
X100781459Y-118110401D01*
X100774134Y-118108831D01*
X100739309Y-118099500D01*
X100620691Y-118099500D01*
X100620689Y-118099500D01*
X100506117Y-118130199D01*
X100506112Y-118130201D01*
X100403390Y-118189508D01*
X100403387Y-118189510D01*
X100403387Y-118189511D01*
X100326824Y-118266073D01*
X100274500Y-118287747D01*
X100222174Y-118266073D01*
X100200500Y-118213747D01*
X100200500Y-106224231D01*
X104524500Y-106224231D01*
X104524500Y-106375768D01*
X104563717Y-106522130D01*
X104563718Y-106522133D01*
X104563719Y-106522135D01*
X104639485Y-106653365D01*
X104746635Y-106760515D01*
X104877865Y-106836281D01*
X105024231Y-106875499D01*
X105024232Y-106875500D01*
X105024234Y-106875500D01*
X105175768Y-106875500D01*
X105175768Y-106875499D01*
X105322135Y-106836281D01*
X105453365Y-106760515D01*
X105560515Y-106653365D01*
X105636281Y-106522135D01*
X105671926Y-106389105D01*
X106699500Y-106389105D01*
X106699500Y-106520894D01*
X106733606Y-106648181D01*
X106733607Y-106648184D01*
X106733608Y-106648186D01*
X106799500Y-106762314D01*
X106892686Y-106855500D01*
X107006814Y-106921392D01*
X107134105Y-106955499D01*
X107134106Y-106955500D01*
X107134108Y-106955500D01*
X107265894Y-106955500D01*
X107265894Y-106955499D01*
X107393186Y-106921392D01*
X107507314Y-106855500D01*
X107600500Y-106762314D01*
X107600503Y-106762309D01*
X107602702Y-106759445D01*
X107651755Y-106731132D01*
X107661405Y-106730500D01*
X107838595Y-106730500D01*
X107890921Y-106752174D01*
X107897298Y-106759445D01*
X107899496Y-106762309D01*
X107899498Y-106762311D01*
X107899500Y-106762314D01*
X107992686Y-106855500D01*
X108106814Y-106921392D01*
X108234105Y-106955499D01*
X108234106Y-106955500D01*
X108234108Y-106955500D01*
X108365894Y-106955500D01*
X108365894Y-106955499D01*
X108493186Y-106921392D01*
X108607314Y-106855500D01*
X108700500Y-106762314D01*
X108766392Y-106648186D01*
X108800499Y-106520894D01*
X108800500Y-106520894D01*
X108800500Y-106389106D01*
X108800499Y-106389105D01*
X108796925Y-106375768D01*
X108766392Y-106261814D01*
X108744693Y-106224231D01*
X110324500Y-106224231D01*
X110324500Y-106375768D01*
X110363717Y-106522130D01*
X110363718Y-106522133D01*
X110363719Y-106522135D01*
X110439485Y-106653365D01*
X110546635Y-106760515D01*
X110677865Y-106836281D01*
X110824231Y-106875499D01*
X110824232Y-106875500D01*
X110824234Y-106875500D01*
X110975768Y-106875500D01*
X110975768Y-106875499D01*
X111122135Y-106836281D01*
X111253365Y-106760515D01*
X111360515Y-106653365D01*
X111436281Y-106522135D01*
X111475499Y-106375768D01*
X111475500Y-106375768D01*
X111475500Y-106224232D01*
X111475499Y-106224231D01*
X111436282Y-106077869D01*
X111436281Y-106077865D01*
X111360515Y-105946635D01*
X111253365Y-105839485D01*
X111253362Y-105839483D01*
X111122139Y-105763721D01*
X111122130Y-105763717D01*
X110975768Y-105724500D01*
X110975766Y-105724500D01*
X110824234Y-105724500D01*
X110824232Y-105724500D01*
X110677869Y-105763717D01*
X110677860Y-105763721D01*
X110546637Y-105839483D01*
X110439483Y-105946637D01*
X110363721Y-106077860D01*
X110363717Y-106077869D01*
X110324500Y-106224231D01*
X108744693Y-106224231D01*
X108700500Y-106147686D01*
X108607314Y-106054500D01*
X108493190Y-105988610D01*
X108493181Y-105988606D01*
X108365894Y-105954500D01*
X108365892Y-105954500D01*
X108234108Y-105954500D01*
X108234106Y-105954500D01*
X108106818Y-105988606D01*
X108106809Y-105988610D01*
X107992685Y-106054500D01*
X107899496Y-106147690D01*
X107897298Y-106150555D01*
X107848245Y-106178868D01*
X107838595Y-106179500D01*
X107661405Y-106179500D01*
X107609079Y-106157826D01*
X107602702Y-106150555D01*
X107600503Y-106147690D01*
X107600501Y-106147688D01*
X107600500Y-106147686D01*
X107507314Y-106054500D01*
X107393190Y-105988610D01*
X107393181Y-105988606D01*
X107265894Y-105954500D01*
X107265892Y-105954500D01*
X107134108Y-105954500D01*
X107134106Y-105954500D01*
X107006818Y-105988606D01*
X107006809Y-105988610D01*
X106892685Y-106054500D01*
X106799500Y-106147685D01*
X106733610Y-106261809D01*
X106733606Y-106261818D01*
X106699500Y-106389105D01*
X105671926Y-106389105D01*
X105675500Y-106375766D01*
X105675500Y-106224234D01*
X105675500Y-106224232D01*
X105675499Y-106224231D01*
X105636282Y-106077869D01*
X105636281Y-106077865D01*
X105560515Y-105946635D01*
X105453365Y-105839485D01*
X105453362Y-105839483D01*
X105322139Y-105763721D01*
X105322130Y-105763717D01*
X105175768Y-105724500D01*
X105175766Y-105724500D01*
X105024234Y-105724500D01*
X105024232Y-105724500D01*
X104877869Y-105763717D01*
X104877860Y-105763721D01*
X104746637Y-105839483D01*
X104639483Y-105946637D01*
X104563721Y-106077860D01*
X104563717Y-106077869D01*
X104524500Y-106224231D01*
X100200500Y-106224231D01*
X100200500Y-102002429D01*
X100200658Y-101997589D01*
X100215578Y-101769953D01*
X100216842Y-101760357D01*
X100260872Y-101539000D01*
X100263368Y-101529681D01*
X100335919Y-101315950D01*
X100339621Y-101307016D01*
X100439442Y-101104599D01*
X100439448Y-101104586D01*
X100444273Y-101096228D01*
X100569673Y-100908553D01*
X100575547Y-100900898D01*
X100724367Y-100731202D01*
X100731202Y-100724367D01*
X100900898Y-100575547D01*
X100908553Y-100569673D01*
X101096228Y-100444273D01*
X101104586Y-100439448D01*
X101254690Y-100365425D01*
X101307016Y-100339621D01*
X101315950Y-100335919D01*
X101529681Y-100263368D01*
X101539000Y-100260872D01*
X101760357Y-100216841D01*
X101769951Y-100215578D01*
X101997589Y-100200657D01*
X102002429Y-100200500D01*
X102039882Y-100200500D01*
X113960118Y-100200500D01*
X113997571Y-100200500D01*
X114002411Y-100200658D01*
G37*
%TD.AperFunction*%
%TA.AperFunction,Conductor*%
G36*
X115115371Y-113111874D02*
G01*
X115173686Y-113170188D01*
X115173687Y-113170189D01*
X115276414Y-113229499D01*
X115276415Y-113229499D01*
X115276417Y-113229500D01*
X115333702Y-113244849D01*
X115390988Y-113260199D01*
X115390989Y-113260200D01*
X115390991Y-113260200D01*
X115509611Y-113260200D01*
X115509611Y-113260199D01*
X115624186Y-113229499D01*
X115688500Y-113192367D01*
X115744652Y-113184974D01*
X115789586Y-113219453D01*
X115799500Y-113256453D01*
X115799500Y-118094933D01*
X115777826Y-118147259D01*
X115725500Y-118168933D01*
X115673174Y-118147259D01*
X114910157Y-117384242D01*
X114879355Y-117371484D01*
X114808900Y-117342300D01*
X114808899Y-117342300D01*
X110027637Y-117342300D01*
X109975311Y-117320626D01*
X109953637Y-117268300D01*
X109975311Y-117215974D01*
X110647013Y-116544274D01*
X110699339Y-116522600D01*
X110781811Y-116522600D01*
X110781811Y-116522599D01*
X110896386Y-116491899D01*
X110999113Y-116432589D01*
X111082989Y-116348713D01*
X111142299Y-116245986D01*
X111172999Y-116131411D01*
X111173000Y-116131411D01*
X111173000Y-116012789D01*
X111172999Y-116012788D01*
X111142300Y-115898217D01*
X111142298Y-115898212D01*
X111082991Y-115795490D01*
X111082990Y-115795489D01*
X111082989Y-115795487D01*
X110999113Y-115711611D01*
X110999110Y-115711609D01*
X110999109Y-115711608D01*
X110896387Y-115652301D01*
X110896382Y-115652299D01*
X110781811Y-115621600D01*
X110781809Y-115621600D01*
X110663191Y-115621600D01*
X110663189Y-115621600D01*
X110548617Y-115652299D01*
X110548612Y-115652301D01*
X110445890Y-115711608D01*
X110362008Y-115795490D01*
X110302701Y-115898212D01*
X110302699Y-115898217D01*
X110272000Y-116012788D01*
X110272000Y-116095261D01*
X110250326Y-116147587D01*
X109589988Y-116807926D01*
X109537662Y-116829600D01*
X109206475Y-116829600D01*
X109154149Y-116807926D01*
X109132475Y-116755600D01*
X109154149Y-116703274D01*
X109169475Y-116691514D01*
X109212531Y-116666656D01*
X109264756Y-116614431D01*
X109264756Y-116614429D01*
X109270844Y-116608342D01*
X109270846Y-116608338D01*
X112767313Y-113111874D01*
X112819639Y-113090200D01*
X115063046Y-113090200D01*
X115115371Y-113111874D01*
G37*
%TD.AperFunction*%
%TD*%
M02*
