%TF.GenerationSoftware,KiCad,Pcbnew,10.0.4*%
%TF.CreationDate,2026-07-30T12:01:34-04:00*%
%TF.ProjectId,layout,6c61796f-7574-42e6-9b69-6361645f7063,v0.0.0*%
%TF.SameCoordinates,Original*%
%TF.FileFunction,Copper,L1,Top*%
%TF.FilePolarity,Positive*%
%FSLAX46Y46*%
G04 Gerber Fmt 4.6, Leading zero omitted, Abs format (unit mm)*
G04 Created by KiCad (PCBNEW 10.0.4) date 2026-07-30 12:01:34*
%MOMM*%
%LPD*%
G01*
G04 APERTURE LIST*
G04 Aperture macros list*
%AMRoundRect*
0 Rectangle with rounded corners*
0 $1 Rounding radius*
0 $2 $3 $4 $5 $6 $7 $8 $9 X,Y pos of 4 corners*
0 Add a 4 corners polygon primitive as box body*
4,1,4,$2,$3,$4,$5,$6,$7,$8,$9,$2,$3,0*
0 Add four circle primitives for the rounded corners*
1,1,$1+$1,$2,$3*
1,1,$1+$1,$4,$5*
1,1,$1+$1,$6,$7*
1,1,$1+$1,$8,$9*
0 Add four rect primitives between the rounded corners*
20,1,$1+$1,$2,$3,$4,$5,0*
20,1,$1+$1,$4,$5,$6,$7,0*
20,1,$1+$1,$6,$7,$8,$9,0*
20,1,$1+$1,$8,$9,$2,$3,0*%
%AMFreePoly0*
4,1,15,0.335278,0.685443,0.349923,0.650088,0.349923,-0.615000,0.335278,-0.650355,0.299923,-0.665000,-0.300050,-0.665000,-0.335405,-0.650355,-0.350050,-0.615000,-0.350050,0.649935,-0.335405,0.685290,-0.300050,0.699935,-0.000445,0.699935,-0.000076,0.700088,0.299923,0.700088,0.335278,0.685443,0.335278,0.685443,$1*%
%AMFreePoly1*
4,1,17,0.335431,0.685290,0.350076,0.649935,0.350076,-0.650037,0.335431,-0.685392,0.300076,-0.700037,0.000187,-0.700037,0.000127,-0.700062,-0.299898,-0.700062,-0.335253,-0.685417,-0.349898,-0.650062,-0.349898,0.649910,-0.335253,0.685265,-0.299898,0.699910,-0.000009,0.699910,0.000051,0.699935,0.300076,0.699935,0.335431,0.685290,0.335431,0.685290,$1*%
%AMFreePoly2*
4,1,13,0.335227,0.685443,0.349872,0.650088,0.349872,-0.615000,0.335227,-0.650355,0.299872,-0.665000,-0.300152,-0.665000,-0.335507,-0.650355,-0.350152,-0.615000,-0.350152,0.650088,-0.335507,0.685443,-0.300152,0.700088,0.299872,0.700088,0.335227,0.685443,0.335227,0.685443,$1*%
%AMFreePoly3*
4,1,13,0.335227,0.685443,0.349872,0.650088,0.349872,-0.649884,0.335227,-0.685239,0.299872,-0.699884,-0.300152,-0.699884,-0.335507,-0.685239,-0.350152,-0.649884,-0.350152,0.650088,-0.335507,0.685443,-0.300152,0.700088,0.299872,0.700088,0.335227,0.685443,0.335227,0.685443,$1*%
G04 Aperture macros list end*
%TA.AperFunction,SMDPad,CuDef*%
%ADD10R,0.532000X1.072000*%
%TD*%
%TA.AperFunction,SMDPad,CuDef*%
%ADD11RoundRect,0.140000X0.170000X-0.140000X0.170000X0.140000X-0.170000X0.140000X-0.170000X-0.140000X0*%
%TD*%
%TA.AperFunction,SMDPad,CuDef*%
%ADD12RoundRect,0.135000X0.185000X-0.135000X0.185000X0.135000X-0.185000X0.135000X-0.185000X-0.135000X0*%
%TD*%
%TA.AperFunction,SMDPad,CuDef*%
%ADD13RoundRect,0.135000X-0.135000X-0.185000X0.135000X-0.185000X0.135000X0.185000X-0.135000X0.185000X0*%
%TD*%
%TA.AperFunction,SMDPad,CuDef*%
%ADD14R,0.800000X0.800000*%
%TD*%
%TA.AperFunction,SMDPad,CuDef*%
%ADD15RoundRect,0.140000X-0.140000X-0.170000X0.140000X-0.170000X0.140000X0.170000X-0.140000X0.170000X0*%
%TD*%
%TA.AperFunction,SMDPad,CuDef*%
%ADD16RoundRect,0.250000X0.475000X-0.250000X0.475000X0.250000X-0.475000X0.250000X-0.475000X-0.250000X0*%
%TD*%
%TA.AperFunction,SMDPad,CuDef*%
%ADD17R,1.500000X1.000000*%
%TD*%
%TA.AperFunction,SMDPad,CuDef*%
%ADD18R,1.400000X1.200000*%
%TD*%
%TA.AperFunction,SMDPad,CuDef*%
%ADD19R,1.000000X1.600000*%
%TD*%
%TA.AperFunction,SMDPad,CuDef*%
%ADD20RoundRect,0.135000X0.135000X0.185000X-0.135000X0.185000X-0.135000X-0.185000X0.135000X-0.185000X0*%
%TD*%
%TA.AperFunction,SMDPad,CuDef*%
%ADD21R,1.157000X0.490000*%
%TD*%
%TA.AperFunction,SMDPad,CuDef*%
%ADD22R,1.175000X0.490000*%
%TD*%
%TA.AperFunction,SMDPad,CuDef*%
%ADD23R,1.000000X0.750000*%
%TD*%
%TA.AperFunction,ComponentPad*%
%ADD24R,1.700000X1.700000*%
%TD*%
%TA.AperFunction,ComponentPad*%
%ADD25C,1.700000*%
%TD*%
%TA.AperFunction,SMDPad,CuDef*%
%ADD26R,0.875000X0.200000*%
%TD*%
%TA.AperFunction,SMDPad,CuDef*%
%ADD27R,0.200000X0.875000*%
%TD*%
%TA.AperFunction,SMDPad,CuDef*%
%ADD28R,3.400000X3.400000*%
%TD*%
%TA.AperFunction,ComponentPad*%
%ADD29O,1.200000X2.000000*%
%TD*%
%TA.AperFunction,ComponentPad*%
%ADD30O,1.200000X1.800000*%
%TD*%
%TA.AperFunction,SMDPad,CuDef*%
%ADD31FreePoly0,180.000000*%
%TD*%
%TA.AperFunction,SMDPad,CuDef*%
%ADD32FreePoly1,180.000000*%
%TD*%
%TA.AperFunction,SMDPad,CuDef*%
%ADD33R,0.300000X1.300000*%
%TD*%
%TA.AperFunction,SMDPad,CuDef*%
%ADD34FreePoly2,180.000000*%
%TD*%
%TA.AperFunction,SMDPad,CuDef*%
%ADD35FreePoly3,180.000000*%
%TD*%
%TA.AperFunction,ViaPad*%
%ADD36C,0.600000*%
%TD*%
%TA.AperFunction,ViaPad*%
%ADD37C,0.500000*%
%TD*%
%TA.AperFunction,ViaPad*%
%ADD38C,0.450000*%
%TD*%
%TA.AperFunction,Conductor*%
%ADD39C,0.150000*%
%TD*%
%TA.AperFunction,Conductor*%
%ADD40C,0.160000*%
%TD*%
G04 APERTURE END LIST*
D10*
%TO.P,D3,1*%
%TO.N,USB_DP*%
X107050000Y-112841100D03*
%TO.P,D3,2*%
%TO.N,GND*%
X108000000Y-112841100D03*
%TO.P,D3,3*%
%TO.N,USB_DM*%
X108950000Y-112841100D03*
%TO.P,D3,4*%
X108950000Y-110541100D03*
%TO.P,D3,5*%
%TO.N,VBUS*%
X108000000Y-110541100D03*
%TO.P,D3,6*%
%TO.N,USB_DP*%
X107050000Y-110541100D03*
%TD*%
D11*
%TO.P,C2,1*%
%TO.N,+3V3*%
X102200000Y-118520100D03*
%TO.P,C2,2*%
%TO.N,GND*%
X102200000Y-117560100D03*
%TD*%
D12*
%TO.P,R4,1*%
%TO.N,RUN*%
X110100000Y-123605100D03*
%TO.P,R4,2*%
%TO.N,+3V3*%
X110100000Y-122585100D03*
%TD*%
D11*
%TO.P,C6,1*%
%TO.N,XIN*%
X107200000Y-123555100D03*
%TO.P,C6,2*%
%TO.N,GND*%
X107200000Y-122595100D03*
%TD*%
D13*
%TO.P,R7,1*%
%TO.N,PROBE_SWDIO*%
X105290000Y-132725100D03*
%TO.P,R7,2*%
%TO.N,TGT_SWDIO*%
X106310000Y-132725100D03*
%TD*%
D14*
%TO.P,D2,1*%
%TO.N,LEDA_A*%
X114500000Y-129970000D03*
%TO.P,D2,2*%
%TO.N,GND*%
X114500000Y-131470000D03*
%TD*%
D15*
%TO.P,C13,1*%
%TO.N,+3V3*%
X104820000Y-112910100D03*
%TO.P,C13,2*%
%TO.N,GND*%
X105780000Y-112910100D03*
%TD*%
D16*
%TO.P,C1,1*%
%TO.N,VBUS*%
X102200000Y-115990100D03*
%TO.P,C1,2*%
%TO.N,GND*%
X102200000Y-114090100D03*
%TD*%
D11*
%TO.P,C8,1*%
%TO.N,+1V1*%
X114800000Y-123555100D03*
%TO.P,C8,2*%
%TO.N,GND*%
X114800000Y-122595100D03*
%TD*%
%TO.P,C10,1*%
%TO.N,+3V3*%
X114600000Y-120320100D03*
%TO.P,C10,2*%
%TO.N,GND*%
X114600000Y-119360100D03*
%TD*%
D17*
%TO.P,JP1,1*%
%TO.N,+3V3*%
X112750000Y-130550000D03*
%TO.P,JP1,2*%
%TO.N,TGT_VTREF*%
X112750000Y-131850000D03*
%TD*%
D18*
%TO.P,Y1,1*%
%TO.N,XIN*%
X103600000Y-124420100D03*
%TO.P,Y1,2*%
%TO.N,GND*%
X105800000Y-124420100D03*
%TO.P,Y1,3*%
%TO.N,XOUT*%
X105800000Y-122720100D03*
%TO.P,Y1,4*%
%TO.N,GND*%
X103600000Y-122720100D03*
%TD*%
D14*
%TO.P,D1,1*%
%TO.N,LEDP_A*%
X101900000Y-129970100D03*
%TO.P,D1,2*%
%TO.N,GND*%
X101900000Y-131470100D03*
%TD*%
D11*
%TO.P,C5,1*%
%TO.N,VREG_AVDD*%
X114600000Y-118110100D03*
%TO.P,C5,2*%
%TO.N,GND*%
X114600000Y-117150100D03*
%TD*%
D13*
%TO.P,R3,1*%
%TO.N,+3V3*%
X113090000Y-125835100D03*
%TO.P,R3,2*%
%TO.N,VREG_AVDD*%
X114110000Y-125835100D03*
%TD*%
D19*
%TO.P,L1,1*%
%TO.N,VREG_LX*%
X111300000Y-122965100D03*
%TO.P,L1,2*%
%TO.N,+1V1*%
X113300000Y-122965100D03*
%TD*%
D13*
%TO.P,R11,1*%
%TO.N,PROBE_BOOT*%
X109490000Y-132725100D03*
%TO.P,R11,2*%
%TO.N,TGT_BOOT*%
X110510000Y-132725100D03*
%TD*%
D11*
%TO.P,C12,1*%
%TO.N,+3V3*%
X114600000Y-115900100D03*
%TO.P,C12,2*%
%TO.N,GND*%
X114600000Y-114940100D03*
%TD*%
%TO.P,C3,1*%
%TO.N,+3V3*%
X102200000Y-120730100D03*
%TO.P,C3,2*%
%TO.N,GND*%
X102200000Y-119770100D03*
%TD*%
D20*
%TO.P,R2,1*%
%TO.N,CC2*%
X105510000Y-110520100D03*
%TO.P,R2,2*%
%TO.N,GND*%
X104490000Y-110520100D03*
%TD*%
D21*
%TO.P,U2,1*%
%TO.N,VBUS*%
X103354500Y-112450100D03*
%TO.P,U2,2*%
%TO.N,GND*%
X103354500Y-111500100D03*
%TO.P,U2,3*%
%TO.N,VBUS*%
X103354500Y-110550100D03*
D22*
%TO.P,U2,4*%
%TO.N,U2.NC_RT9013_33_NC*%
X101054500Y-110550100D03*
%TO.P,U2,5*%
%TO.N,+3V3*%
X101054500Y-112450100D03*
%TD*%
D23*
%TO.P,SW1,1*%
%TO.N,BOOT_SW*%
X105000000Y-127465100D03*
%TO.P,SW1,2*%
X111000000Y-127465100D03*
%TO.P,SW1,3*%
%TO.N,GND*%
X105000000Y-131165100D03*
%TO.P,SW1,4*%
X111000000Y-131165100D03*
%TD*%
D11*
%TO.P,C9,1*%
%TO.N,+1V1*%
X102200000Y-122940100D03*
%TO.P,C9,2*%
%TO.N,GND*%
X102200000Y-121980100D03*
%TD*%
D12*
%TO.P,R9,1*%
%TO.N,+3V3*%
X101900000Y-128805100D03*
%TO.P,R9,2*%
%TO.N,LEDP_A*%
X101900000Y-127785100D03*
%TD*%
D11*
%TO.P,C11,1*%
%TO.N,+3V3*%
X114600000Y-113690100D03*
%TO.P,C11,2*%
%TO.N,GND*%
X114600000Y-112730100D03*
%TD*%
D15*
%TO.P,C4,1*%
%TO.N,+1V1*%
X110120000Y-125825100D03*
%TO.P,C4,2*%
%TO.N,GND*%
X111080000Y-125825100D03*
%TD*%
D13*
%TO.P,R6,1*%
%TO.N,PROBE_SWCLK*%
X103190000Y-132725100D03*
%TO.P,R6,2*%
%TO.N,TGT_SWCLK*%
X104210000Y-132725100D03*
%TD*%
D24*
%TO.P,J2,1*%
%TO.N,TGT_VTREF*%
X105460000Y-139820000D03*
D25*
%TO.P,J2,2*%
%TO.N,TGT_SWDIO*%
X105460000Y-137280000D03*
%TO.P,J2,3*%
%TO.N,TGT_RESET*%
X108000000Y-139820000D03*
%TO.P,J2,4*%
%TO.N,TGT_SWCLK*%
X108000000Y-137280000D03*
%TO.P,J2,5*%
%TO.N,GND*%
X110540000Y-139820000D03*
%TO.P,J2,6*%
%TO.N,TGT_BOOT*%
X110540000Y-137280000D03*
%TD*%
D26*
%TO.P,U1,1*%
%TO.N,+3V3*%
X104420000Y-115012600D03*
%TO.P,U1,2*%
%TO.N,U1.NC_RP2354A_GPIO0*%
X104420000Y-115412600D03*
%TO.P,U1,3*%
%TO.N,U1.NC_RP2354A_GPIO1*%
X104420000Y-115812600D03*
%TO.P,U1,4*%
%TO.N,PROBE_SWCLK*%
X104420000Y-116212600D03*
%TO.P,U1,5*%
%TO.N,PROBE_SWDIO*%
X104420000Y-116612600D03*
%TO.P,U1,6*%
%TO.N,+1V1*%
X104420000Y-117012600D03*
%TO.P,U1,7*%
%TO.N,U1.NC_RP2354A_GPIO4*%
X104420000Y-117412600D03*
%TO.P,U1,8*%
%TO.N,U1.NC_RP2354A_GPIO5*%
X104420000Y-117812600D03*
%TO.P,U1,9*%
%TO.N,PROBE_RESET*%
X104420000Y-118212600D03*
%TO.P,U1,10*%
%TO.N,PROBE_BOOT*%
X104420000Y-118612600D03*
%TO.P,U1,11*%
%TO.N,+3V3*%
X104420000Y-119012600D03*
%TO.P,U1,12*%
%TO.N,U1.NC_RP2354A_GPIO8*%
X104420000Y-119412600D03*
%TO.P,U1,13*%
%TO.N,U1.NC_RP2354A_GPIO9*%
X104420000Y-119812600D03*
%TO.P,U1,14*%
%TO.N,U1.NC_RP2354A_GPIO10*%
X104420000Y-120212600D03*
%TO.P,U1,15*%
%TO.N,U1.NC_RP2354A_GPIO11*%
X104420000Y-120612600D03*
D27*
%TO.P,U1,16*%
%TO.N,U1.NC_RP2354A_GPIO12*%
X105200000Y-121382600D03*
%TO.P,U1,17*%
%TO.N,U1.NC_RP2354A_GPIO13*%
X105600000Y-121382600D03*
%TO.P,U1,18*%
%TO.N,U1.NC_RP2354A_GPIO14*%
X106000000Y-121382600D03*
%TO.P,U1,19*%
%TO.N,U1.NC_RP2354A_GPIO15*%
X106400000Y-121382600D03*
%TO.P,U1,20*%
%TO.N,+3V3*%
X106800000Y-121382600D03*
%TO.P,U1,21*%
%TO.N,XIN*%
X107200000Y-121382600D03*
%TO.P,U1,22*%
%TO.N,XOUT*%
X107600000Y-121382600D03*
%TO.P,U1,23*%
%TO.N,+1V1*%
X108000000Y-121382600D03*
%TO.P,U1,24*%
%TO.N,MCU_SWCLK*%
X108400000Y-121382600D03*
%TO.P,U1,25*%
%TO.N,MCU_SWDIO*%
X108800000Y-121382600D03*
%TO.P,U1,26*%
%TO.N,RUN*%
X109200000Y-121382600D03*
%TO.P,U1,27*%
%TO.N,U1.NC_RP2354A_GPIO16*%
X109600000Y-121382600D03*
%TO.P,U1,28*%
%TO.N,U1.NC_RP2354A_GPIO17*%
X110000000Y-121382600D03*
%TO.P,U1,29*%
%TO.N,U1.NC_RP2354A_GPIO18*%
X110400000Y-121382600D03*
%TO.P,U1,30*%
%TO.N,+3V3*%
X110800000Y-121382600D03*
D26*
%TO.P,U1,31*%
%TO.N,U1.NC_RP2354A_GPIO19*%
X111580000Y-120612600D03*
%TO.P,U1,32*%
%TO.N,U1.NC_RP2354A_GPIO20*%
X111580000Y-120212600D03*
%TO.P,U1,33*%
%TO.N,U1.NC_RP2354A_GPIO21*%
X111580000Y-119812600D03*
%TO.P,U1,34*%
%TO.N,U1.NC_RP2354A_GPIO22*%
X111580000Y-119412600D03*
%TO.P,U1,35*%
%TO.N,U1.NC_RP2354A_GPIO23*%
X111580000Y-119012600D03*
%TO.P,U1,36*%
%TO.N,U1.NC_RP2354A_GPIO24*%
X111580000Y-118612600D03*
%TO.P,U1,37*%
%TO.N,LED_ACT*%
X111580000Y-118212600D03*
%TO.P,U1,38*%
%TO.N,+3V3*%
X111580000Y-117812600D03*
%TO.P,U1,39*%
%TO.N,+1V1*%
X111580000Y-117412600D03*
%TO.P,U1,40*%
%TO.N,U1.NC_RP2354A_GPIO26_ADC0*%
X111580000Y-117012600D03*
%TO.P,U1,41*%
%TO.N,U1.NC_RP2354A_GPIO27_ADC1*%
X111580000Y-116612600D03*
%TO.P,U1,42*%
%TO.N,U1.NC_RP2354A_GPIO28_ADC2*%
X111580000Y-116212600D03*
%TO.P,U1,43*%
%TO.N,U1.NC_RP2354A_GPIO29_ADC3*%
X111580000Y-115812600D03*
%TO.P,U1,44*%
%TO.N,+3V3*%
X111580000Y-115412600D03*
%TO.P,U1,45*%
X111580000Y-115012600D03*
D27*
%TO.P,U1,46*%
%TO.N,VREG_AVDD*%
X110800000Y-114242600D03*
%TO.P,U1,47*%
%TO.N,GND*%
X110400000Y-114242600D03*
%TO.P,U1,48*%
%TO.N,VREG_LX*%
X110000000Y-114242600D03*
%TO.P,U1,49*%
%TO.N,+3V3*%
X109600000Y-114242600D03*
%TO.P,U1,50*%
%TO.N,+1V1*%
X109200000Y-114242600D03*
%TO.P,U1,51*%
%TO.N,USB_DM*%
X108800000Y-114242600D03*
%TO.P,U1,52*%
%TO.N,USB_DP*%
X108400000Y-114242600D03*
%TO.P,U1,53*%
%TO.N,+3V3*%
X108000000Y-114242600D03*
%TO.P,U1,54*%
X107600000Y-114242600D03*
%TO.P,U1,55*%
%TO.N,U1.NC_RP2354A_QSPI_SD3*%
X107200000Y-114242600D03*
%TO.P,U1,56*%
%TO.N,U1.NC_RP2354A_QSPI_SCLK*%
X106800000Y-114242600D03*
%TO.P,U1,57*%
%TO.N,U1.NC_RP2354A_QSPI_SD0*%
X106400000Y-114242600D03*
%TO.P,U1,58*%
%TO.N,U1.NC_RP2354A_QSPI_SD2*%
X106000000Y-114242600D03*
%TO.P,U1,59*%
%TO.N,U1.NC_RP2354A_QSPI_SD1*%
X105600000Y-114242600D03*
%TO.P,U1,60*%
%TO.N,QSPI_SS*%
X105200000Y-114242600D03*
D28*
%TO.P,U1,61*%
%TO.N,GND*%
X108000000Y-117812600D03*
%TD*%
D11*
%TO.P,C7,1*%
%TO.N,XOUT*%
X108600000Y-123555100D03*
%TO.P,C7,2*%
%TO.N,GND*%
X108600000Y-122595100D03*
%TD*%
D13*
%TO.P,R1,1*%
%TO.N,CC1*%
X110890000Y-110520100D03*
%TO.P,R1,2*%
%TO.N,GND*%
X111910000Y-110520100D03*
%TD*%
D29*
%TO.P,J1,1*%
%TO.N,GND*%
X103670000Y-106800000D03*
D30*
%TO.P,J1,2*%
X103670000Y-102620000D03*
%TO.P,J1,3*%
X112330000Y-102620000D03*
D29*
%TO.P,J1,4*%
X112330000Y-106800000D03*
D31*
%TO.P,J1,A1B12*%
X111200000Y-107560000D03*
D32*
%TO.P,J1,A4B9*%
%TO.N,VBUS*%
X110400000Y-107560000D03*
D33*
%TO.P,J1,A5*%
%TO.N,CC1*%
X109250000Y-107560000D03*
%TO.P,J1,A6*%
%TO.N,USB_DP*%
X108250000Y-107560000D03*
%TO.P,J1,A7*%
%TO.N,USB_DM*%
X107750000Y-107560000D03*
%TO.P,J1,A8*%
%TO.N,J1.NC_TypeC31M12_SBU1*%
X106750000Y-107560000D03*
D34*
%TO.P,J1,B1A12*%
%TO.N,GND*%
X104800000Y-107560000D03*
D35*
%TO.P,J1,B4A9*%
%TO.N,VBUS*%
X105600000Y-107560000D03*
D33*
%TO.P,J1,B5*%
%TO.N,CC2*%
X106250000Y-107560000D03*
%TO.P,J1,B6*%
%TO.N,USB_DP*%
X107250000Y-107560000D03*
%TO.P,J1,B7*%
%TO.N,USB_DM*%
X108750000Y-107560000D03*
%TO.P,J1,B8*%
%TO.N,J1.NC_TypeC31M12_SBU2*%
X109750000Y-107560000D03*
%TD*%
D12*
%TO.P,R10,1*%
%TO.N,LED_ACT*%
X114500000Y-128810000D03*
%TO.P,R10,2*%
%TO.N,LEDA_A*%
X114500000Y-127790000D03*
%TD*%
D15*
%TO.P,C14,1*%
%TO.N,+3V3*%
X110220000Y-112910100D03*
%TO.P,C14,2*%
%TO.N,GND*%
X111180000Y-112910100D03*
%TD*%
D12*
%TO.P,R5,1*%
%TO.N,QSPI_SS*%
X114600000Y-111490100D03*
%TO.P,R5,2*%
%TO.N,BOOT_SW*%
X114600000Y-110470100D03*
%TD*%
D13*
%TO.P,R8,1*%
%TO.N,PROBE_RESET*%
X107390000Y-132725100D03*
%TO.P,R8,2*%
%TO.N,TGT_RESET*%
X108410000Y-132725100D03*
%TD*%
D36*
%TO.N,USB_DP*%
X107200000Y-106455000D03*
X108300000Y-106455000D03*
X107250000Y-112100000D03*
D37*
X108173000Y-115105400D03*
D36*
%TO.N,GND*%
X110956057Y-125791578D03*
X107032200Y-119084933D03*
X108545471Y-122662485D03*
X104422400Y-121494271D03*
X112640340Y-114134165D03*
X115474520Y-113648538D03*
X102099114Y-113441384D03*
X114595700Y-119393527D03*
X101777535Y-117056387D03*
X113571071Y-126904789D03*
X112752016Y-124268844D03*
X102254692Y-119367352D03*
X114595700Y-116737453D03*
X102000000Y-137000000D03*
D38*
X110767829Y-115356980D03*
X108282745Y-112143166D03*
D36*
X105392714Y-117631279D03*
D38*
X109670092Y-116431181D03*
D36*
X105616337Y-112903185D03*
X114385235Y-122345126D03*
X103918014Y-111639673D03*
X107010671Y-122773885D03*
X103292900Y-128222884D03*
%TO.N,VBUS*%
X105000000Y-111550000D03*
X108000000Y-111550000D03*
D37*
%TO.N,+3V3*%
X115139400Y-118765900D03*
X113396600Y-125080200D03*
X109923600Y-125051300D03*
X110717900Y-118180800D03*
X101222500Y-119938300D03*
X105341500Y-119931900D03*
%TO.N,RUN*%
X113321200Y-120206600D03*
X109727600Y-120374800D03*
%TO.N,XIN*%
X108094000Y-119924800D03*
X108074600Y-124660900D03*
D36*
%TO.N,TGT_VTREF*%
X112750000Y-133300000D03*
D37*
%TO.N,VREG_LX*%
X111249800Y-124312100D03*
X110722500Y-116072100D03*
%TO.N,PROBE_BOOT*%
X109737100Y-133845000D03*
X105408900Y-118341600D03*
%TO.N,BOOT_SW*%
X112035000Y-127643700D03*
X115450300Y-112809700D03*
%TO.N,PROBE_SWCLK*%
X100680000Y-118550000D03*
X105460700Y-115950500D03*
%TO.N,PROBE_RESET*%
X108895700Y-127949200D03*
X103382400Y-121186900D03*
%TO.N,LED_ACT*%
X112259200Y-121293200D03*
X114786100Y-121205300D03*
%TO.N,QSPI_SS*%
X112983200Y-111233200D03*
X103771700Y-113972500D03*
%TD*%
%TO.N,USB_DP*%
D39*
X108250000Y-106655000D02*
X108300000Y-106455000D01*
D40*
X108400000Y-114921800D02*
X108356600Y-114921800D01*
X108400000Y-114242600D02*
X108400000Y-114921800D01*
D39*
X107250000Y-106655000D02*
X107200000Y-106455000D01*
D40*
X108356600Y-114921800D02*
X108173000Y-115105400D01*
D39*
X108250000Y-107560000D02*
X108250000Y-106655000D01*
X107250000Y-107560000D02*
X107250000Y-106655000D01*
X107250000Y-112100000D02*
X107050000Y-112300000D01*
X107250000Y-109860000D02*
X107050000Y-110200000D01*
X107050000Y-110541000D02*
X107050000Y-112841000D01*
X107250000Y-107560000D02*
X107250000Y-109860000D01*
X107050000Y-110200000D02*
X107050000Y-110541000D01*
%TO.N,GND*%
X104800000Y-107560000D02*
X103670000Y-106800000D01*
X111200000Y-107560000D02*
X112330000Y-106800000D01*
%TO.N,USB_DM*%
D40*
X108950000Y-112841100D02*
X108950000Y-112063400D01*
X108950000Y-110541100D02*
X108950000Y-112063400D01*
D39*
X107750000Y-107560000D02*
X107750000Y-105705000D01*
X108950000Y-106755000D02*
X108750000Y-107055000D01*
X108850000Y-110100000D02*
X108950000Y-110450000D01*
X108750000Y-107560000D02*
X108850000Y-109350000D01*
X108850000Y-109350000D02*
X108850000Y-110100000D01*
D40*
X108800000Y-114242600D02*
X108800000Y-112991100D01*
D39*
X107750000Y-105705000D02*
X108950000Y-105705000D01*
X108950000Y-105705000D02*
X108950000Y-106755000D01*
D40*
X108800000Y-112991100D02*
X108950000Y-112841100D01*
D39*
X108750000Y-107055000D02*
X108750000Y-107560000D01*
X108950000Y-110450000D02*
X108950000Y-110541000D01*
%TO.N,VBUS*%
D40*
X102944400Y-110550100D02*
X103354500Y-110550100D01*
D39*
X105750000Y-107255000D02*
X105600000Y-107560000D01*
X105750000Y-105255000D02*
X105750000Y-107255000D01*
X103354500Y-109950000D02*
X103354500Y-110550100D01*
X105000000Y-111550000D02*
X105000000Y-109950000D01*
X110400000Y-107560000D02*
X110200000Y-107155000D01*
X105600000Y-109950000D02*
X103354500Y-109950000D01*
X110200000Y-107155000D02*
X110200000Y-105255000D01*
D40*
X102534000Y-110550000D02*
X102534000Y-112450000D01*
D39*
X105600000Y-107560000D02*
X105600000Y-109950000D01*
D40*
X102534000Y-112450000D02*
X103354500Y-112450100D01*
X103200700Y-114989400D02*
X102200000Y-115990100D01*
D39*
X108000000Y-110541000D02*
X108000000Y-111550000D01*
D40*
X102534300Y-112450100D02*
X102534300Y-112936800D01*
X102944400Y-110550100D02*
X102534300Y-110550100D01*
D39*
X110200000Y-105255000D02*
X105750000Y-105255000D01*
D40*
X102534300Y-112936800D02*
X103200700Y-113603200D01*
X103200700Y-113603200D02*
X103200700Y-114989400D01*
X103354500Y-110550100D02*
X103666700Y-110550100D01*
%TO.N,+3V3*%
X115158300Y-118765900D02*
X115141000Y-118765900D01*
X102776600Y-117943500D02*
X102200000Y-118520100D01*
X101883700Y-112450100D02*
X101883700Y-112815100D01*
X104420000Y-119012600D02*
X105099200Y-119012600D01*
X104820000Y-112910100D02*
X104342600Y-113387500D01*
X106800000Y-120703400D02*
X106113000Y-120703400D01*
X108000000Y-114242600D02*
X107600000Y-114242600D01*
X111919600Y-115412600D02*
X111580000Y-115412600D01*
X105099200Y-119689600D02*
X105341500Y-119931900D01*
X112259200Y-115012600D02*
X112259200Y-115412600D01*
X115158300Y-114248400D02*
X115158300Y-115900100D01*
X115158300Y-115900100D02*
X114600000Y-115900100D01*
X106113000Y-120703400D02*
X105341500Y-119931900D01*
X112238400Y-117812600D02*
X112259200Y-117791800D01*
X107600000Y-114242600D02*
X107600000Y-114921800D01*
X111580000Y-115012600D02*
X112259200Y-115012600D01*
X110900800Y-118080000D02*
X110900800Y-117812600D01*
X101054500Y-112450100D02*
X101883700Y-112450100D01*
X109600000Y-113530000D02*
X109600000Y-114242600D01*
X102501700Y-128203400D02*
X102501700Y-127480900D01*
X101647800Y-119938300D02*
X101647800Y-119072300D01*
X113090000Y-125835100D02*
X113090000Y-125386800D01*
X105099200Y-119012600D02*
X105099200Y-119689600D01*
X111919600Y-115412600D02*
X112259200Y-115412600D01*
X101222500Y-119938300D02*
X101647800Y-119938300D01*
X106800000Y-121382600D02*
X106800000Y-120703400D01*
X102131000Y-120661000D02*
X102200000Y-120730100D01*
X110717900Y-118180800D02*
X110800000Y-118180800D01*
X101323100Y-126302300D02*
X101323100Y-121468900D01*
X104342600Y-114585100D02*
X104595000Y-114837600D01*
X107600000Y-114921800D02*
X104679200Y-114921800D01*
X104595000Y-114837600D02*
X104420000Y-115012600D01*
X111321300Y-117812600D02*
X111580000Y-117812600D01*
X115158300Y-115900100D02*
X115158300Y-118765900D01*
X115158300Y-119761800D02*
X114600000Y-120320100D01*
X110100000Y-122585100D02*
X109529200Y-123155900D01*
X109529200Y-123155900D02*
X109529200Y-124656900D01*
X111580000Y-117812600D02*
X112238400Y-117812600D01*
X103567600Y-115360100D02*
X103567600Y-116083800D01*
X101900000Y-128805100D02*
X102501700Y-128203400D01*
X102501700Y-127480900D02*
X101323100Y-126302300D01*
X112650000Y-126280000D02*
X112650000Y-130400000D01*
X101647800Y-120177900D02*
X101647800Y-119938300D01*
X101323100Y-121468900D02*
X102131000Y-120661000D01*
X101202800Y-117522900D02*
X102200000Y-118520100D01*
X102131000Y-120661000D02*
X101647800Y-120177900D01*
X112650000Y-130400000D02*
X112750000Y-130550000D01*
X104679200Y-114921800D02*
X104595000Y-114837600D01*
X101222500Y-119938300D02*
X101461700Y-119938300D01*
X111321300Y-117812600D02*
X110900800Y-117812600D01*
X102776600Y-116874800D02*
X102776600Y-117943500D01*
X110800000Y-120703400D02*
X110800000Y-118180800D01*
X112650000Y-126275100D02*
X113090000Y-125835100D01*
X114600000Y-113690100D02*
X114473300Y-113563400D01*
X110873300Y-113563400D02*
X110220000Y-112910100D01*
X109529200Y-124656900D02*
X109923600Y-125051300D01*
X112259200Y-117791800D02*
X112259200Y-115412600D01*
X114600000Y-113690100D02*
X115158300Y-114248400D01*
X104342600Y-114585100D02*
X103567600Y-115360100D01*
X110800000Y-118180800D02*
X110900800Y-118080000D01*
X101202800Y-113496000D02*
X101202800Y-117522900D01*
X110800000Y-121382600D02*
X110800000Y-120703400D01*
X101883700Y-112815100D02*
X101202800Y-113496000D01*
X110220000Y-112910100D02*
X109600100Y-113530000D01*
X115158300Y-118765900D02*
X115158300Y-119761800D01*
X103567600Y-116083800D02*
X102776600Y-116874800D01*
X113090000Y-125386800D02*
X113396600Y-125080200D01*
X114473300Y-113563400D02*
X110873300Y-113563400D01*
X104342600Y-113387500D02*
X104342600Y-114585100D01*
X101647800Y-119072300D02*
X102200000Y-118520100D01*
%TO.N,RUN*%
X109399000Y-120703400D02*
X109727600Y-120374800D01*
X113321200Y-121236400D02*
X113321200Y-120206600D01*
X109200000Y-121382600D02*
X109200000Y-120703400D01*
X109727600Y-120374800D02*
X109583800Y-120518600D01*
X111423200Y-124834100D02*
X112552300Y-123705000D01*
X110100000Y-123866000D02*
X111068100Y-124834100D01*
X112552300Y-122005300D02*
X113321200Y-121236400D01*
X109200000Y-120703400D02*
X109399000Y-120703400D01*
X112552300Y-123705000D02*
X112552300Y-122005300D01*
X110100000Y-123605100D02*
X110100000Y-123866000D01*
X111068100Y-124834100D02*
X111423200Y-124834100D01*
%TO.N,XIN*%
X104541700Y-124420100D02*
X104541700Y-124803600D01*
D39*
X108074600Y-124660900D02*
X107200000Y-124660900D01*
D40*
X104999900Y-125261800D02*
X106685200Y-125261800D01*
D39*
X107315400Y-120703400D02*
X108094000Y-119924800D01*
D40*
X104541700Y-124803600D02*
X104999900Y-125261800D01*
X107200000Y-124660900D02*
X107200000Y-123555100D01*
D39*
X107200000Y-121382600D02*
X107200000Y-120703400D01*
D40*
X103600000Y-124420100D02*
X104541700Y-124420100D01*
X106685200Y-125261800D02*
X107200000Y-124747000D01*
D39*
X107200000Y-120703400D02*
X107315400Y-120703400D01*
D40*
X107200000Y-124747000D02*
X107200000Y-124660900D01*
%TO.N,PROBE_SWDIO*%
X105825800Y-129598200D02*
X105825800Y-132189300D01*
X102443100Y-121355100D02*
X101930500Y-121355100D01*
X103122700Y-120675500D02*
X102443100Y-121355100D01*
X104420000Y-116612600D02*
X103740800Y-116612600D01*
X103740800Y-116612600D02*
X103122700Y-117230700D01*
X101644800Y-125417200D02*
X105825800Y-129598200D01*
X105825800Y-132189300D02*
X105290000Y-132725100D01*
X103122700Y-117230700D02*
X103122700Y-120675500D01*
X101930500Y-121355100D02*
X101644800Y-121640800D01*
X101644800Y-121640800D02*
X101644800Y-125417200D01*
%TO.N,TGT_SWDIO*%
X106310000Y-132729999D02*
X106310000Y-136130000D01*
X106310000Y-136130000D02*
X105460000Y-136980000D01*
X105460000Y-136980000D02*
X105460000Y-137280000D01*
%TO.N,LEDA_A*%
X113920000Y-129389999D02*
X114500000Y-129970000D01*
X114500000Y-127790000D02*
X113920000Y-128370000D01*
X113920000Y-128370000D02*
X113920000Y-129389999D01*
%TO.N,+1V1*%
X110147100Y-118056300D02*
X110147100Y-119424700D01*
X113300000Y-124457300D02*
X111379400Y-126377900D01*
X109058300Y-119883000D02*
X108237900Y-120703400D01*
X104420000Y-117012600D02*
X105099200Y-117012600D01*
X105952400Y-116073900D02*
X106415600Y-115610700D01*
X110672800Y-126377900D02*
X110120000Y-125825100D01*
X108000000Y-121382600D02*
X108000000Y-121910100D01*
X109688800Y-119883000D02*
X109058300Y-119883000D01*
X110147100Y-119424700D02*
X109688800Y-119883000D01*
X109366400Y-125825100D02*
X110120000Y-125825100D01*
X105099200Y-117012600D02*
X105770800Y-116341000D01*
X109152200Y-125610900D02*
X109366400Y-125825100D01*
X109200000Y-114242600D02*
X109200000Y-114921800D01*
X109200000Y-115089700D02*
X109200000Y-114921800D01*
X108978800Y-122072900D02*
X109152200Y-122246300D01*
X106415600Y-115610700D02*
X108679000Y-115610700D01*
X113300000Y-124006800D02*
X113300000Y-124457300D01*
X105952400Y-116154200D02*
X105952400Y-116073900D01*
X109122300Y-115167400D02*
X110066500Y-116111700D01*
X110790800Y-117412600D02*
X110147100Y-118056300D01*
X110066500Y-116196700D02*
X110900800Y-117031000D01*
X110900800Y-117412600D02*
X110790800Y-117412600D01*
X109152200Y-122246300D02*
X109152200Y-125610900D01*
X108000000Y-121910100D02*
X108162800Y-122072900D01*
X111379400Y-126377900D02*
X110672800Y-126377900D01*
X102200000Y-124682600D02*
X103128300Y-125610900D01*
X111240400Y-117412600D02*
X111580000Y-117412600D01*
X108000000Y-121382600D02*
X108000000Y-120703400D01*
X113300000Y-122965100D02*
X113300000Y-124006800D01*
X108237900Y-120703400D02*
X108000000Y-120703400D01*
X105770800Y-116335800D02*
X105952400Y-116154200D01*
X103128300Y-125610900D02*
X109152200Y-125610900D01*
X110900800Y-117031000D02*
X110900800Y-117412600D01*
X113300000Y-122965100D02*
X114041700Y-122965100D01*
X102200000Y-122940100D02*
X102200000Y-124682600D01*
X108162800Y-122072900D02*
X108978800Y-122072900D01*
X114041700Y-122965100D02*
X114631700Y-123555100D01*
X110066500Y-116111700D02*
X110066500Y-116196700D01*
X114631700Y-123555100D02*
X114800000Y-123555100D01*
X109122300Y-115167400D02*
X109200000Y-115089700D01*
X108679000Y-115610700D02*
X109122300Y-115167400D01*
X111240400Y-117412600D02*
X110900800Y-117412600D01*
%TO.N,TGT_VTREF*%
X112750000Y-131850000D02*
X112750000Y-133300000D01*
%TO.N,XOUT*%
X107830000Y-122291800D02*
X107600000Y-122061800D01*
X107593000Y-122067300D02*
X106452800Y-122067300D01*
X106452800Y-122067300D02*
X105800000Y-122720100D01*
X107830000Y-122785100D02*
X107830000Y-122291800D01*
X107600000Y-121980900D02*
X107600000Y-122060300D01*
X107600000Y-121382600D02*
X107600000Y-121980900D01*
X108600000Y-123555100D02*
X107830000Y-122785100D01*
%TO.N,LEDP_A*%
X101326100Y-129113200D02*
X101326100Y-128359000D01*
X101541300Y-129328400D02*
X101326100Y-129113200D01*
X101326100Y-128359000D02*
X101900000Y-127785100D01*
X101900000Y-129328400D02*
X101541300Y-129328400D01*
X101900000Y-129970100D02*
X101900000Y-129328400D01*
%TO.N,VREG_AVDD*%
X114600000Y-118110100D02*
X114033100Y-118110100D01*
X114033100Y-116320700D02*
X114033100Y-118110100D01*
X114580900Y-121697000D02*
X114765900Y-121697000D01*
X114033100Y-121149200D02*
X114580900Y-121697000D01*
X115382900Y-124562200D02*
X114110000Y-125835100D01*
X115382900Y-122314000D02*
X115382900Y-124562200D01*
X114765900Y-121697000D02*
X115382900Y-122314000D01*
X114033100Y-118110100D02*
X114033100Y-121149200D01*
X111955000Y-114242600D02*
X114033100Y-116320700D01*
X110800000Y-114242600D02*
X111955000Y-114242600D01*
%TO.N,VREG_LX*%
X111249800Y-124057000D02*
X111249800Y-124312100D01*
X110000000Y-114242600D02*
X110000000Y-115349600D01*
X110000000Y-115349600D02*
X110722500Y-116072100D01*
X111300000Y-124006800D02*
X111249800Y-124057000D01*
X111300000Y-122965100D02*
X111300000Y-124006800D01*
%TO.N,PROBE_BOOT*%
X105273400Y-118477100D02*
X105408900Y-118341600D01*
X104420000Y-118612600D02*
X105137900Y-118612600D01*
D39*
X109490000Y-133597900D02*
X109490000Y-132725100D01*
D40*
X105137900Y-118612600D02*
X105408900Y-118341600D01*
D39*
X109737100Y-133845000D02*
X109490000Y-133597900D01*
%TO.N,TGT_BOOT*%
D40*
X110510000Y-136900000D02*
X110540000Y-137280000D01*
X110510000Y-132729999D02*
X110510000Y-136900000D01*
%TO.N,CC2*%
D39*
X106250000Y-110520100D02*
X105510000Y-110520100D01*
X106250000Y-107560000D02*
X106250000Y-110520100D01*
%TO.N,BOOT_SW*%
D40*
X112035000Y-127643700D02*
X111920300Y-127643700D01*
X111920300Y-127643700D02*
X111741700Y-127465100D01*
X105749300Y-127457500D02*
X105741700Y-127465100D01*
X115450300Y-111320400D02*
X114600000Y-110470100D01*
X105000000Y-127465100D02*
X105741700Y-127465100D01*
X110258300Y-127465100D02*
X110250700Y-127457500D01*
X111000000Y-127465100D02*
X110258300Y-127465100D01*
X110250700Y-127457500D02*
X105749300Y-127457500D01*
X115450300Y-112809700D02*
X115450300Y-111320400D01*
X111000000Y-127465100D02*
X111741700Y-127465100D01*
%TO.N,PROBE_SWCLK*%
D39*
X103190000Y-131609199D02*
X103190000Y-132725100D01*
X102192600Y-130611799D02*
X103190000Y-131609199D01*
X100680000Y-129830000D02*
X101329400Y-130611799D01*
X101329400Y-130611799D02*
X102192600Y-130611799D01*
X100680000Y-118550000D02*
X100680000Y-129830000D01*
X105198600Y-116212600D02*
X105460700Y-115950500D01*
X104420000Y-116212600D02*
X105198600Y-116212600D01*
%TO.N,TGT_SWCLK*%
D40*
X107200000Y-138550000D02*
X108000000Y-137750000D01*
X104210000Y-138550000D02*
X107200000Y-138550000D01*
X108000000Y-137750000D02*
X108000000Y-137280000D01*
X104210000Y-132729999D02*
X104210000Y-138550000D01*
%TO.N,TGT_RESET*%
X108410000Y-134800000D02*
X109270000Y-135660000D01*
X108410000Y-132729999D02*
X108410000Y-134800000D01*
X108350000Y-139820000D02*
X108000000Y-139820000D01*
X109270000Y-138900000D02*
X108350000Y-139820000D01*
X109270000Y-135660000D02*
X109270000Y-138900000D01*
%TO.N,PROBE_RESET*%
D39*
X104420000Y-118212600D02*
X103740800Y-118212600D01*
X103740800Y-120828500D02*
X103382400Y-121186900D01*
X108895700Y-127949200D02*
X108895700Y-131219400D01*
X108895700Y-131219400D02*
X107390000Y-132725100D01*
X103740800Y-118212600D02*
X103740800Y-120828500D01*
%TO.N,LED_ACT*%
D40*
X115704600Y-122123800D02*
X114786100Y-121205300D01*
X115704600Y-127300500D02*
X115704600Y-128805100D01*
X115704600Y-128805100D02*
X114500000Y-128805100D01*
X115704600Y-127300500D02*
X115704600Y-122123800D01*
X112259200Y-121293200D02*
X112259200Y-118212600D01*
X111580000Y-118212600D02*
X112259200Y-118212600D01*
%TO.N,QSPI_SS*%
X105981000Y-113563400D02*
X106340900Y-113203500D01*
X104297800Y-112751500D02*
X103771700Y-113277600D01*
X105200000Y-113563400D02*
X105981000Y-113563400D01*
D39*
X112983200Y-111233200D02*
X113240100Y-111490100D01*
D40*
X104297800Y-112521100D02*
X104297800Y-112751500D01*
D39*
X103771700Y-113277600D02*
X103771700Y-113972500D01*
X113240100Y-111490100D02*
X114600000Y-111490100D01*
D40*
X106124500Y-112337900D02*
X104481000Y-112337900D01*
X106340900Y-113203500D02*
X106340900Y-112554300D01*
X104481000Y-112337900D02*
X104297800Y-112521100D01*
X106340900Y-112554300D02*
X106124500Y-112337900D01*
X105200000Y-114242600D02*
X105200000Y-113563400D01*
%TO.N,CC1*%
D39*
X109550000Y-109900000D02*
X109550000Y-110520000D01*
X109250000Y-107560000D02*
X109250000Y-109600000D01*
X109550000Y-110520000D02*
X110890000Y-110520000D01*
X109250000Y-109600000D02*
X109550000Y-109900000D01*
%TD*%
%TA.AperFunction,Conductor*%
%TO.N,GND*%
G36*
X100326824Y-118833926D02*
G01*
X100382826Y-118889928D01*
X100404500Y-118942253D01*
X100404500Y-129817290D01*
X100400624Y-129859189D01*
X100404500Y-129871699D01*
X100404500Y-129884801D01*
X100419295Y-129920519D01*
X100421613Y-129926936D01*
X100433060Y-129963881D01*
X100441431Y-129973959D01*
X100446443Y-129986058D01*
X100476193Y-130015808D01*
X100478380Y-130018440D01*
X100478380Y-130018441D01*
X101083672Y-130747139D01*
X101095114Y-130766098D01*
X101095842Y-130767856D01*
X101095843Y-130767857D01*
X101125597Y-130797611D01*
X101152491Y-130829988D01*
X101164080Y-130836094D01*
X101173341Y-130845355D01*
X101173344Y-130845357D01*
X101209065Y-130860153D01*
X101215238Y-130863049D01*
X101249455Y-130881079D01*
X101251342Y-130881253D01*
X101272845Y-130886572D01*
X101274600Y-130887299D01*
X101274603Y-130887299D01*
X101316691Y-130887299D01*
X101358589Y-130891175D01*
X101371099Y-130887299D01*
X102047833Y-130887299D01*
X102100159Y-130908973D01*
X102892826Y-131701640D01*
X102914500Y-131753966D01*
X102914500Y-132188289D01*
X102892826Y-132240615D01*
X102871777Y-132255354D01*
X102859596Y-132261034D01*
X102775935Y-132344695D01*
X102725931Y-132451928D01*
X102719500Y-132500785D01*
X102719500Y-132949414D01*
X102725931Y-132998271D01*
X102725932Y-132998273D01*
X102775935Y-133105504D01*
X102859596Y-133189165D01*
X102966827Y-133239168D01*
X103015684Y-133245600D01*
X103015686Y-133245600D01*
X103364314Y-133245600D01*
X103364316Y-133245600D01*
X103413173Y-133239168D01*
X103520404Y-133189165D01*
X103604065Y-133105504D01*
X103632933Y-133043595D01*
X103674690Y-133005332D01*
X103731273Y-133007802D01*
X103767067Y-133043596D01*
X103795933Y-133105502D01*
X103795935Y-133105504D01*
X103879596Y-133189165D01*
X103886771Y-133192511D01*
X103925036Y-133234264D01*
X103929500Y-133259578D01*
X103929500Y-138586930D01*
X103948615Y-138658268D01*
X103982029Y-138716142D01*
X103985544Y-138722231D01*
X104037769Y-138774456D01*
X104101731Y-138811384D01*
X104101730Y-138811384D01*
X104142918Y-138822420D01*
X104173069Y-138830499D01*
X104173070Y-138830500D01*
X104173072Y-138830500D01*
X104246928Y-138830500D01*
X104343151Y-138830500D01*
X104395477Y-138852174D01*
X104417151Y-138904500D01*
X104415729Y-138918936D01*
X104409500Y-138950252D01*
X104409500Y-140689746D01*
X104421133Y-140748232D01*
X104450608Y-140792343D01*
X104465448Y-140814552D01*
X104509560Y-140844027D01*
X104531767Y-140858866D01*
X104531768Y-140858866D01*
X104531769Y-140858867D01*
X104590252Y-140870500D01*
X104590254Y-140870500D01*
X106329746Y-140870500D01*
X106329748Y-140870500D01*
X106388231Y-140858867D01*
X106454552Y-140814552D01*
X106498867Y-140748231D01*
X106510500Y-140689748D01*
X106510500Y-138950252D01*
X106504271Y-138918936D01*
X106515321Y-138863387D01*
X106562413Y-138831922D01*
X106576849Y-138830500D01*
X107236931Y-138830500D01*
X107236931Y-138830499D01*
X107287074Y-138817063D01*
X107308266Y-138811385D01*
X107308266Y-138811384D01*
X107308269Y-138811384D01*
X107310891Y-138809870D01*
X107372231Y-138774456D01*
X107424456Y-138722231D01*
X107424456Y-138722229D01*
X107430544Y-138716142D01*
X107430546Y-138716138D01*
X107801549Y-138345136D01*
X107853874Y-138323463D01*
X107868302Y-138324884D01*
X107896535Y-138330500D01*
X107896538Y-138330500D01*
X108103464Y-138330500D01*
X108103465Y-138330500D01*
X108306420Y-138290130D01*
X108497598Y-138210941D01*
X108669655Y-138095977D01*
X108815977Y-137949655D01*
X108853971Y-137892791D01*
X108901063Y-137861326D01*
X108956612Y-137872375D01*
X108988078Y-137919467D01*
X108989500Y-137933904D01*
X108989500Y-138753160D01*
X108967826Y-138805486D01*
X108771798Y-139001514D01*
X108719472Y-139023188D01*
X108674065Y-139004380D01*
X108672466Y-139006330D01*
X108669654Y-139004022D01*
X108497598Y-138889059D01*
X108306420Y-138809870D01*
X108306413Y-138809868D01*
X108153516Y-138779455D01*
X108103465Y-138769500D01*
X107896535Y-138769500D01*
X107856385Y-138777486D01*
X107693586Y-138809868D01*
X107693579Y-138809870D01*
X107502401Y-138889059D01*
X107330345Y-139004022D01*
X107330344Y-139004024D01*
X107184024Y-139150344D01*
X107184022Y-139150345D01*
X107069059Y-139322401D01*
X106989870Y-139513579D01*
X106989868Y-139513586D01*
X106949500Y-139716535D01*
X106949500Y-139923464D01*
X106989868Y-140126413D01*
X106989870Y-140126420D01*
X107069059Y-140317598D01*
X107184023Y-140489655D01*
X107330345Y-140635977D01*
X107502402Y-140750941D01*
X107693580Y-140830130D01*
X107896535Y-140870500D01*
X107896536Y-140870500D01*
X108103464Y-140870500D01*
X108103465Y-140870500D01*
X108306420Y-140830130D01*
X108497598Y-140750941D01*
X108669655Y-140635977D01*
X108815977Y-140489655D01*
X108930941Y-140317598D01*
X109010130Y-140126420D01*
X109050500Y-139923465D01*
X109050500Y-139716535D01*
X109024976Y-139588218D01*
X109036025Y-139532671D01*
X109045223Y-139521462D01*
X109494455Y-139072232D01*
X109531384Y-139008269D01*
X109550499Y-138936931D01*
X109550500Y-138936931D01*
X109550500Y-137933904D01*
X109572174Y-137881578D01*
X109624500Y-137859904D01*
X109676826Y-137881578D01*
X109686029Y-137892792D01*
X109724019Y-137949650D01*
X109724023Y-137949655D01*
X109870345Y-138095977D01*
X110042402Y-138210941D01*
X110233580Y-138290130D01*
X110436535Y-138330500D01*
X110436536Y-138330500D01*
X110643464Y-138330500D01*
X110643465Y-138330500D01*
X110846420Y-138290130D01*
X111037598Y-138210941D01*
X111209655Y-138095977D01*
X111355977Y-137949655D01*
X111470941Y-137777598D01*
X111550130Y-137586420D01*
X111590500Y-137383465D01*
X111590500Y-137176535D01*
X111550130Y-136973580D01*
X111470941Y-136782402D01*
X111355977Y-136610345D01*
X111209655Y-136464023D01*
X111037598Y-136349059D01*
X110846420Y-136269870D01*
X110846419Y-136269869D01*
X110846415Y-136269868D01*
X110843010Y-136268835D01*
X110799233Y-136232899D01*
X110790500Y-136198024D01*
X110790500Y-133259578D01*
X110812174Y-133207252D01*
X110833224Y-133192512D01*
X110840404Y-133189165D01*
X110924065Y-133105504D01*
X110974068Y-132998273D01*
X110980500Y-132949416D01*
X110980500Y-132500784D01*
X110974068Y-132451927D01*
X110924065Y-132344696D01*
X110840404Y-132261035D01*
X110733173Y-132211032D01*
X110733171Y-132211031D01*
X110697178Y-132206293D01*
X110684316Y-132204600D01*
X110335684Y-132204600D01*
X110324318Y-132206096D01*
X110286828Y-132211031D01*
X110179595Y-132261035D01*
X110095935Y-132344695D01*
X110067067Y-132406604D01*
X110025309Y-132444867D01*
X109968726Y-132442397D01*
X109932933Y-132406604D01*
X109915746Y-132369746D01*
X109904065Y-132344696D01*
X109820404Y-132261035D01*
X109713173Y-132211032D01*
X109713171Y-132211031D01*
X109677178Y-132206293D01*
X109664316Y-132204600D01*
X109315684Y-132204600D01*
X109304318Y-132206096D01*
X109266828Y-132211031D01*
X109159595Y-132261035D01*
X109075935Y-132344695D01*
X109025931Y-132451928D01*
X109023367Y-132471411D01*
X108995049Y-132520460D01*
X108940341Y-132535119D01*
X108891292Y-132506801D01*
X108876633Y-132471411D01*
X108874068Y-132451928D01*
X108874068Y-132451927D01*
X108824065Y-132344696D01*
X108740404Y-132261035D01*
X108633173Y-132211032D01*
X108633171Y-132211031D01*
X108597178Y-132206293D01*
X108584316Y-132204600D01*
X108584314Y-132204600D01*
X108478767Y-132204600D01*
X108426441Y-132182926D01*
X108404767Y-132130600D01*
X108426441Y-132078274D01*
X108462254Y-132042461D01*
X109129257Y-131375459D01*
X109147982Y-131330252D01*
X109171200Y-131274200D01*
X109171200Y-128341453D01*
X109192873Y-128289128D01*
X109256189Y-128225813D01*
X109315499Y-128123086D01*
X109346199Y-128008511D01*
X109346200Y-128008511D01*
X109346200Y-127889891D01*
X109330461Y-127831152D01*
X109337854Y-127775000D01*
X109382788Y-127740521D01*
X109401940Y-127738000D01*
X110183266Y-127738000D01*
X110196372Y-127739170D01*
X110199424Y-127739719D01*
X110221371Y-127745600D01*
X110221372Y-127745600D01*
X110232104Y-127745600D01*
X110238606Y-127746770D01*
X110257301Y-127758772D01*
X110277826Y-127767274D01*
X110280464Y-127773643D01*
X110286266Y-127777368D01*
X110290998Y-127799074D01*
X110299500Y-127819600D01*
X110299500Y-127859846D01*
X110311133Y-127918332D01*
X110319322Y-127930587D01*
X110355448Y-127984652D01*
X110384687Y-128004189D01*
X110421767Y-128028966D01*
X110421768Y-128028966D01*
X110421769Y-128028967D01*
X110480252Y-128040600D01*
X110480254Y-128040600D01*
X111519746Y-128040600D01*
X111519748Y-128040600D01*
X111578231Y-128028967D01*
X111644552Y-127984652D01*
X111644554Y-127984648D01*
X111650582Y-127980621D01*
X111706131Y-127969571D01*
X111744019Y-127989821D01*
X111758387Y-128004189D01*
X111758389Y-128004190D01*
X111758390Y-128004191D01*
X111858992Y-128062274D01*
X111861114Y-128063499D01*
X111861115Y-128063499D01*
X111861117Y-128063500D01*
X111918402Y-128078849D01*
X111975688Y-128094199D01*
X111975689Y-128094200D01*
X111975691Y-128094200D01*
X112094311Y-128094200D01*
X112094311Y-128094199D01*
X112208886Y-128063499D01*
X112258500Y-128034853D01*
X112314652Y-128027461D01*
X112359586Y-128061940D01*
X112369500Y-128098940D01*
X112369500Y-129775500D01*
X112347826Y-129827826D01*
X112295500Y-129849500D01*
X111980252Y-129849500D01*
X111951010Y-129855316D01*
X111921767Y-129861133D01*
X111855449Y-129905447D01*
X111855447Y-129905449D01*
X111811133Y-129971767D01*
X111808099Y-129987020D01*
X111799500Y-130030252D01*
X111799500Y-131069748D01*
X111806569Y-131105284D01*
X111811133Y-131128232D01*
X111831617Y-131158888D01*
X111842666Y-131214436D01*
X111831617Y-131241112D01*
X111811133Y-131271767D01*
X111799500Y-131330252D01*
X111799500Y-132369746D01*
X111811133Y-132428232D01*
X111822249Y-132444867D01*
X111855448Y-132494552D01*
X111899560Y-132524027D01*
X111921767Y-132538866D01*
X111921768Y-132538866D01*
X111921769Y-132538867D01*
X111980252Y-132550500D01*
X112395500Y-132550500D01*
X112447826Y-132572174D01*
X112469500Y-132624500D01*
X112469500Y-132842432D01*
X112447826Y-132894758D01*
X112444590Y-132897595D01*
X112349500Y-132992685D01*
X112283610Y-133106809D01*
X112283606Y-133106818D01*
X112249500Y-133234105D01*
X112249500Y-133365894D01*
X112283606Y-133493181D01*
X112283610Y-133493190D01*
X112343141Y-133596300D01*
X112349500Y-133607314D01*
X112442686Y-133700500D01*
X112556814Y-133766392D01*
X112684105Y-133800499D01*
X112684106Y-133800500D01*
X112684108Y-133800500D01*
X112815894Y-133800500D01*
X112815894Y-133800499D01*
X112943186Y-133766392D01*
X113057314Y-133700500D01*
X113150500Y-133607314D01*
X113216392Y-133493186D01*
X113250499Y-133365894D01*
X113250500Y-133365894D01*
X113250500Y-133234106D01*
X113250499Y-133234105D01*
X113245317Y-133214767D01*
X113216392Y-133106814D01*
X113150500Y-132992686D01*
X113057314Y-132899500D01*
X113053885Y-132896071D01*
X113055558Y-132894397D01*
X113031133Y-132852088D01*
X113030500Y-132842432D01*
X113030500Y-132624500D01*
X113052174Y-132572174D01*
X113104500Y-132550500D01*
X113519746Y-132550500D01*
X113519748Y-132550500D01*
X113578231Y-132538867D01*
X113644552Y-132494552D01*
X113688867Y-132428231D01*
X113700500Y-132369748D01*
X113700500Y-131330252D01*
X113688867Y-131271769D01*
X113668382Y-131241112D01*
X113657333Y-131185565D01*
X113668381Y-131158888D01*
X113688867Y-131128231D01*
X113700500Y-131069748D01*
X113700500Y-130030252D01*
X113688867Y-129971769D01*
X113683596Y-129963881D01*
X113674027Y-129949560D01*
X113644552Y-129905448D01*
X113613651Y-129884800D01*
X113578232Y-129861133D01*
X113578233Y-129861133D01*
X113548989Y-129855316D01*
X113519748Y-129849500D01*
X113519746Y-129849500D01*
X113004500Y-129849500D01*
X112952174Y-129827826D01*
X112930500Y-129775500D01*
X112930500Y-126429600D01*
X112952174Y-126377274D01*
X113004500Y-126355600D01*
X113264314Y-126355600D01*
X113264316Y-126355600D01*
X113313173Y-126349168D01*
X113420404Y-126299165D01*
X113504065Y-126215504D01*
X113532933Y-126153595D01*
X113574690Y-126115332D01*
X113631273Y-126117802D01*
X113667067Y-126153596D01*
X113695933Y-126215502D01*
X113695935Y-126215504D01*
X113779596Y-126299165D01*
X113886827Y-126349168D01*
X113935684Y-126355600D01*
X113935686Y-126355600D01*
X114284314Y-126355600D01*
X114284316Y-126355600D01*
X114333173Y-126349168D01*
X114440404Y-126299165D01*
X114524065Y-126215504D01*
X114574068Y-126108273D01*
X114580500Y-126059416D01*
X114580500Y-125791938D01*
X114602174Y-125739612D01*
X115297774Y-125044012D01*
X115350100Y-125022338D01*
X115402426Y-125044012D01*
X115424100Y-125096338D01*
X115424100Y-128450600D01*
X115402426Y-128502926D01*
X115350100Y-128524600D01*
X115032195Y-128524600D01*
X114979869Y-128502926D01*
X114965130Y-128481877D01*
X114964068Y-128479600D01*
X114964065Y-128479596D01*
X114880402Y-128395933D01*
X114834886Y-128374709D01*
X114818495Y-128367066D01*
X114780232Y-128325310D01*
X114782702Y-128268727D01*
X114818495Y-128232933D01*
X114880404Y-128204065D01*
X114964065Y-128120404D01*
X115014068Y-128013173D01*
X115020500Y-127964316D01*
X115020500Y-127615684D01*
X115014068Y-127566827D01*
X114964065Y-127459596D01*
X114880404Y-127375935D01*
X114773173Y-127325932D01*
X114773171Y-127325931D01*
X114735945Y-127321031D01*
X114724316Y-127319500D01*
X114275684Y-127319500D01*
X114264318Y-127320996D01*
X114226828Y-127325931D01*
X114119595Y-127375935D01*
X114035935Y-127459595D01*
X113985931Y-127566828D01*
X113979500Y-127615685D01*
X113979500Y-127883161D01*
X113957826Y-127935487D01*
X113695543Y-128197769D01*
X113669323Y-128243183D01*
X113669320Y-128243189D01*
X113665869Y-128249168D01*
X113658616Y-128261731D01*
X113645766Y-128309689D01*
X113645043Y-128312383D01*
X113645041Y-128312392D01*
X113639500Y-128333071D01*
X113639500Y-129426929D01*
X113658614Y-129498264D01*
X113658615Y-129498266D01*
X113658616Y-129498268D01*
X113659977Y-129500625D01*
X113659979Y-129500632D01*
X113659981Y-129500632D01*
X113695544Y-129562230D01*
X113877826Y-129744512D01*
X113899500Y-129796838D01*
X113899500Y-130389748D01*
X113899520Y-130389848D01*
X113911133Y-130448232D01*
X113939286Y-130490364D01*
X113955448Y-130514552D01*
X113982870Y-130532875D01*
X114021767Y-130558866D01*
X114021768Y-130558866D01*
X114021769Y-130558867D01*
X114080252Y-130570500D01*
X114080254Y-130570500D01*
X114919746Y-130570500D01*
X114919748Y-130570500D01*
X114978231Y-130558867D01*
X115044552Y-130514552D01*
X115088867Y-130448231D01*
X115100500Y-130389748D01*
X115100500Y-129550252D01*
X115088867Y-129491769D01*
X115088852Y-129491747D01*
X115071946Y-129466445D01*
X115044552Y-129425448D01*
X115022343Y-129410608D01*
X114978232Y-129381133D01*
X114978233Y-129381133D01*
X114948989Y-129375316D01*
X114919748Y-129369500D01*
X114919746Y-129369500D01*
X114902310Y-129369500D01*
X114849984Y-129347826D01*
X114828310Y-129295500D01*
X114849984Y-129243174D01*
X114871037Y-129228433D01*
X114871642Y-129228150D01*
X114880404Y-129224065D01*
X114964065Y-129140404D01*
X114969698Y-129128323D01*
X115011457Y-129090062D01*
X115036764Y-129085600D01*
X115725500Y-129085600D01*
X115777826Y-129107274D01*
X115799500Y-129159600D01*
X115799500Y-140997570D01*
X115799342Y-141002410D01*
X115784421Y-141230045D01*
X115783157Y-141239642D01*
X115739129Y-141460985D01*
X115736624Y-141470334D01*
X115664079Y-141684045D01*
X115660375Y-141692988D01*
X115560557Y-141895400D01*
X115555717Y-141903783D01*
X115430334Y-142091432D01*
X115424441Y-142099112D01*
X115275635Y-142268791D01*
X115268791Y-142275635D01*
X115099112Y-142424441D01*
X115091432Y-142430334D01*
X114903783Y-142555717D01*
X114895400Y-142560557D01*
X114692988Y-142660375D01*
X114684045Y-142664079D01*
X114470334Y-142736624D01*
X114460985Y-142739129D01*
X114239642Y-142783157D01*
X114230045Y-142784421D01*
X114002411Y-142799342D01*
X113997571Y-142799500D01*
X102002429Y-142799500D01*
X101997589Y-142799342D01*
X101769954Y-142784421D01*
X101760357Y-142783157D01*
X101539012Y-142739129D01*
X101529663Y-142736624D01*
X101315955Y-142664080D01*
X101307012Y-142660376D01*
X101205805Y-142610467D01*
X101104595Y-142560555D01*
X101096220Y-142555720D01*
X100908563Y-142430331D01*
X100900884Y-142424438D01*
X100884725Y-142410267D01*
X100731202Y-142275632D01*
X100724367Y-142268797D01*
X100575560Y-142099114D01*
X100569668Y-142091436D01*
X100444276Y-141903774D01*
X100439446Y-141895409D01*
X100339622Y-141692984D01*
X100335920Y-141684046D01*
X100263373Y-141470330D01*
X100260872Y-141460995D01*
X100216842Y-141239642D01*
X100215578Y-141230045D01*
X100200658Y-141002410D01*
X100200500Y-140997570D01*
X100200500Y-118886253D01*
X100222174Y-118833927D01*
X100274500Y-118812253D01*
X100326824Y-118833926D01*
G37*
%TD.AperFunction*%
%TA.AperFunction,Conductor*%
G36*
X101729926Y-125899012D02*
G01*
X105523626Y-129692712D01*
X105545300Y-129745038D01*
X105545300Y-132042461D01*
X105523626Y-132094787D01*
X105435487Y-132182926D01*
X105383161Y-132204600D01*
X105115684Y-132204600D01*
X105104318Y-132206096D01*
X105066828Y-132211031D01*
X104959595Y-132261035D01*
X104875935Y-132344695D01*
X104825931Y-132451928D01*
X104823367Y-132471411D01*
X104795049Y-132520460D01*
X104740341Y-132535119D01*
X104691292Y-132506801D01*
X104676633Y-132471411D01*
X104674068Y-132451928D01*
X104674068Y-132451927D01*
X104624065Y-132344696D01*
X104540404Y-132261035D01*
X104433173Y-132211032D01*
X104433171Y-132211031D01*
X104397178Y-132206293D01*
X104384316Y-132204600D01*
X104035684Y-132204600D01*
X104024318Y-132206096D01*
X103986828Y-132211031D01*
X103879595Y-132261035D01*
X103795935Y-132344695D01*
X103767067Y-132406604D01*
X103725309Y-132444867D01*
X103668726Y-132442397D01*
X103632933Y-132406604D01*
X103615746Y-132369746D01*
X103604065Y-132344696D01*
X103520404Y-132261035D01*
X103520403Y-132261034D01*
X103508223Y-132255354D01*
X103469962Y-132213595D01*
X103465500Y-132188289D01*
X103465500Y-131554399D01*
X103465499Y-131554397D01*
X103423559Y-131453143D01*
X103423557Y-131453140D01*
X102503291Y-130532875D01*
X102481617Y-130480549D01*
X102487254Y-130452221D01*
X102488861Y-130448339D01*
X102488867Y-130448331D01*
X102500500Y-130389848D01*
X102500500Y-129550352D01*
X102488867Y-129491869D01*
X102488800Y-129491769D01*
X102471879Y-129466445D01*
X102444552Y-129425548D01*
X102422343Y-129410708D01*
X102378232Y-129381233D01*
X102378233Y-129381233D01*
X102348989Y-129375416D01*
X102319748Y-129369600D01*
X102319746Y-129369600D01*
X102291588Y-129369600D01*
X102239262Y-129347926D01*
X102217588Y-129295600D01*
X102239262Y-129243274D01*
X102260314Y-129228533D01*
X102280404Y-129219165D01*
X102364065Y-129135504D01*
X102414068Y-129028273D01*
X102420500Y-128979416D01*
X102420500Y-128711938D01*
X102442174Y-128659612D01*
X102726155Y-128375632D01*
X102743303Y-128345932D01*
X102763084Y-128311669D01*
X102766291Y-128299700D01*
X102782200Y-128240329D01*
X102782200Y-128166472D01*
X102782200Y-127443972D01*
X102777966Y-127428172D01*
X102763084Y-127372631D01*
X102749574Y-127349231D01*
X102726156Y-127308669D01*
X102673931Y-127256444D01*
X102671352Y-127253865D01*
X102671341Y-127253855D01*
X101625274Y-126207788D01*
X101603600Y-126155462D01*
X101603600Y-125951338D01*
X101625274Y-125899012D01*
X101677600Y-125877338D01*
X101729926Y-125899012D01*
G37*
%TD.AperFunction*%
%TA.AperFunction,Conductor*%
G36*
X112742409Y-123958072D02*
G01*
X112780252Y-123965600D01*
X112945500Y-123965600D01*
X112997826Y-123987274D01*
X113019500Y-124039600D01*
X113019500Y-124310461D01*
X112997826Y-124362787D01*
X111284888Y-126075726D01*
X111232562Y-126097400D01*
X110819639Y-126097400D01*
X110767313Y-126075726D01*
X110622173Y-125930586D01*
X110600499Y-125878260D01*
X110600499Y-125615200D01*
X110593972Y-125565614D01*
X110593972Y-125565613D01*
X110543224Y-125456784D01*
X110458316Y-125371876D01*
X110374237Y-125332669D01*
X110335975Y-125290913D01*
X110338445Y-125234329D01*
X110341427Y-125228601D01*
X110343399Y-125225186D01*
X110374099Y-125110611D01*
X110374100Y-125110611D01*
X110374100Y-124991989D01*
X110374099Y-124991988D01*
X110371754Y-124983238D01*
X110343399Y-124877414D01*
X110318788Y-124834787D01*
X110284091Y-124774690D01*
X110284090Y-124774689D01*
X110284089Y-124774687D01*
X110200213Y-124690811D01*
X110200210Y-124690809D01*
X110200209Y-124690808D01*
X110097487Y-124631501D01*
X110097482Y-124631499D01*
X109982911Y-124600800D01*
X109982909Y-124600800D01*
X109900437Y-124600800D01*
X109900436Y-124600799D01*
X109900435Y-124600800D01*
X109882479Y-124593362D01*
X109848113Y-124579126D01*
X109831373Y-124562386D01*
X109820345Y-124535761D01*
X109809700Y-124510062D01*
X109809700Y-124151038D01*
X109831374Y-124098712D01*
X109883700Y-124077038D01*
X109936025Y-124098711D01*
X110843643Y-125006330D01*
X110843644Y-125006331D01*
X110895869Y-125058556D01*
X110940113Y-125084100D01*
X110959831Y-125095484D01*
X110959833Y-125095484D01*
X110959834Y-125095485D01*
X110995501Y-125105042D01*
X111031168Y-125114599D01*
X111031169Y-125114600D01*
X111031171Y-125114600D01*
X111460131Y-125114600D01*
X111460131Y-125114599D01*
X111531469Y-125095484D01*
X111544035Y-125088229D01*
X111595431Y-125058556D01*
X111647656Y-125006331D01*
X111647656Y-125006329D01*
X111653744Y-125000242D01*
X111653746Y-125000238D01*
X112675660Y-123978325D01*
X112682662Y-123975425D01*
X112686874Y-123969122D01*
X112708045Y-123964911D01*
X112727985Y-123956652D01*
X112742409Y-123958072D01*
G37*
%TD.AperFunction*%
%TA.AperFunction,Conductor*%
G36*
X107510988Y-122369474D02*
G01*
X107527826Y-122386312D01*
X107549500Y-122438638D01*
X107549500Y-122748171D01*
X107549500Y-122822029D01*
X107563801Y-122875400D01*
X107567326Y-122888555D01*
X107568616Y-122893370D01*
X107605543Y-122957330D01*
X107661984Y-123013771D01*
X107661990Y-123013776D01*
X108067826Y-123419612D01*
X108089500Y-123471938D01*
X108089500Y-123734999D01*
X108096027Y-123784585D01*
X108096028Y-123784587D01*
X108146776Y-123893416D01*
X108231684Y-123978324D01*
X108340513Y-124029072D01*
X108390099Y-124035600D01*
X108797700Y-124035599D01*
X108850026Y-124057273D01*
X108871700Y-124109599D01*
X108871700Y-125256400D01*
X108850026Y-125308726D01*
X108797700Y-125330400D01*
X107191938Y-125330400D01*
X107139612Y-125308726D01*
X107117938Y-125256400D01*
X107139612Y-125204074D01*
X107215910Y-125127777D01*
X107385613Y-124958074D01*
X107437939Y-124936400D01*
X107682346Y-124936400D01*
X107734672Y-124958074D01*
X107797987Y-125021389D01*
X107797989Y-125021390D01*
X107797990Y-125021391D01*
X107900712Y-125080698D01*
X107900714Y-125080699D01*
X107900715Y-125080699D01*
X107900717Y-125080700D01*
X107928816Y-125088229D01*
X108015288Y-125111399D01*
X108015289Y-125111400D01*
X108015291Y-125111400D01*
X108133911Y-125111400D01*
X108133911Y-125111399D01*
X108248486Y-125080699D01*
X108351213Y-125021389D01*
X108435089Y-124937513D01*
X108494399Y-124834786D01*
X108525099Y-124720211D01*
X108525100Y-124720211D01*
X108525100Y-124601589D01*
X108525099Y-124601588D01*
X108521481Y-124588087D01*
X108494399Y-124487014D01*
X108494398Y-124487012D01*
X108435091Y-124384290D01*
X108435090Y-124384289D01*
X108435089Y-124384287D01*
X108351213Y-124300411D01*
X108351210Y-124300409D01*
X108351209Y-124300408D01*
X108248487Y-124241101D01*
X108248482Y-124241099D01*
X108133911Y-124210400D01*
X108133909Y-124210400D01*
X108015291Y-124210400D01*
X108015289Y-124210400D01*
X107900717Y-124241099D01*
X107900712Y-124241101D01*
X107797990Y-124300408D01*
X107734672Y-124363726D01*
X107682346Y-124385400D01*
X107554500Y-124385400D01*
X107502174Y-124363726D01*
X107480500Y-124311400D01*
X107480500Y-124066416D01*
X107502174Y-124014090D01*
X107523227Y-123999349D01*
X107568316Y-123978324D01*
X107653224Y-123893416D01*
X107703972Y-123784587D01*
X107710500Y-123735001D01*
X107710499Y-123375200D01*
X107703972Y-123325613D01*
X107653224Y-123216784D01*
X107568316Y-123131876D01*
X107459487Y-123081128D01*
X107459485Y-123081127D01*
X107422955Y-123076318D01*
X107409901Y-123074600D01*
X107409899Y-123074600D01*
X106990100Y-123074600D01*
X106940514Y-123081127D01*
X106940512Y-123081128D01*
X106831683Y-123131876D01*
X106826826Y-123136734D01*
X106774500Y-123158408D01*
X106722174Y-123136734D01*
X106700500Y-123084408D01*
X106700500Y-122421800D01*
X106722174Y-122369474D01*
X106774500Y-122347800D01*
X107458662Y-122347800D01*
X107510988Y-122369474D01*
G37*
%TD.AperFunction*%
%TA.AperFunction,Conductor*%
G36*
X104877826Y-120934774D02*
G01*
X104899500Y-120987100D01*
X104899500Y-121839848D01*
X104905345Y-121869231D01*
X104911133Y-121898332D01*
X104931617Y-121928988D01*
X104942666Y-121984536D01*
X104931617Y-122011212D01*
X104911133Y-122041867D01*
X104911133Y-122041869D01*
X104899500Y-122100352D01*
X104899500Y-123339848D01*
X104904170Y-123363324D01*
X104911133Y-123398332D01*
X104929112Y-123425238D01*
X104955448Y-123464652D01*
X104999560Y-123494127D01*
X105021767Y-123508966D01*
X105021768Y-123508966D01*
X105021769Y-123508967D01*
X105080252Y-123520600D01*
X105080254Y-123520600D01*
X106519746Y-123520600D01*
X106519748Y-123520600D01*
X106578231Y-123508967D01*
X106578232Y-123508966D01*
X106578233Y-123508966D01*
X106584968Y-123506177D01*
X106586215Y-123509188D01*
X106629907Y-123500479D01*
X106677012Y-123531926D01*
X106689500Y-123573063D01*
X106689500Y-123734999D01*
X106696027Y-123784585D01*
X106696028Y-123784587D01*
X106746776Y-123893416D01*
X106831684Y-123978324D01*
X106876773Y-123999349D01*
X106915037Y-124041106D01*
X106919500Y-124066416D01*
X106919500Y-124600161D01*
X106897826Y-124652487D01*
X106590688Y-124959626D01*
X106538362Y-124981300D01*
X105146739Y-124981300D01*
X105094413Y-124959626D01*
X104843874Y-124709087D01*
X104822200Y-124656761D01*
X104822200Y-124383170D01*
X104822199Y-124383169D01*
X104803084Y-124311831D01*
X104766156Y-124247869D01*
X104713930Y-124195643D01*
X104649967Y-124158715D01*
X104649969Y-124158715D01*
X104578630Y-124139600D01*
X104578628Y-124139600D01*
X104574500Y-124139600D01*
X104522174Y-124117926D01*
X104500500Y-124065600D01*
X104500500Y-123800353D01*
X104497416Y-123784848D01*
X104488867Y-123741869D01*
X104444552Y-123675548D01*
X104422343Y-123660708D01*
X104378232Y-123631233D01*
X104378233Y-123631233D01*
X104348989Y-123625416D01*
X104319748Y-123619600D01*
X102880252Y-123619600D01*
X102851010Y-123625416D01*
X102821767Y-123631233D01*
X102755449Y-123675547D01*
X102755447Y-123675549D01*
X102711133Y-123741867D01*
X102699500Y-123800353D01*
X102699500Y-124606761D01*
X102677826Y-124659087D01*
X102625500Y-124680761D01*
X102573174Y-124659087D01*
X102502174Y-124588087D01*
X102480500Y-124535761D01*
X102480500Y-123451416D01*
X102502174Y-123399090D01*
X102523227Y-123384349D01*
X102568316Y-123363324D01*
X102653224Y-123278416D01*
X102703972Y-123169587D01*
X102710500Y-123120001D01*
X102710499Y-122760200D01*
X102703972Y-122710613D01*
X102653224Y-122601784D01*
X102568316Y-122516876D01*
X102459487Y-122466128D01*
X102459485Y-122466127D01*
X102422955Y-122461318D01*
X102409901Y-122459600D01*
X102409899Y-122459600D01*
X101999300Y-122459600D01*
X101946974Y-122437926D01*
X101925300Y-122385600D01*
X101925300Y-121787638D01*
X101946974Y-121735312D01*
X102025013Y-121657274D01*
X102077339Y-121635600D01*
X102480031Y-121635600D01*
X102480031Y-121635599D01*
X102551369Y-121616484D01*
X102568317Y-121606699D01*
X102615331Y-121579556D01*
X102667556Y-121527331D01*
X102667556Y-121527329D01*
X102673644Y-121521242D01*
X102673646Y-121521238D01*
X102847374Y-121347510D01*
X102899699Y-121325837D01*
X102952025Y-121347511D01*
X102963785Y-121362837D01*
X103021908Y-121463509D01*
X103021909Y-121463510D01*
X103021911Y-121463513D01*
X103105787Y-121547389D01*
X103105789Y-121547390D01*
X103105790Y-121547391D01*
X103208510Y-121606697D01*
X103208512Y-121606697D01*
X103208514Y-121606699D01*
X103208515Y-121606699D01*
X103208517Y-121606700D01*
X103265802Y-121622049D01*
X103323088Y-121637399D01*
X103323089Y-121637400D01*
X103323091Y-121637400D01*
X103441711Y-121637400D01*
X103441711Y-121637399D01*
X103556286Y-121606699D01*
X103556288Y-121606697D01*
X103556290Y-121606697D01*
X103620181Y-121569809D01*
X103659013Y-121547389D01*
X103742889Y-121463513D01*
X103802199Y-121360786D01*
X103832899Y-121246211D01*
X103832900Y-121246211D01*
X103832900Y-121156667D01*
X103854574Y-121104341D01*
X103884676Y-121074239D01*
X103974357Y-120984559D01*
X103985034Y-120958781D01*
X104025082Y-120918733D01*
X104053401Y-120913100D01*
X104825500Y-120913100D01*
X104877826Y-120934774D01*
G37*
%TD.AperFunction*%
%TA.AperFunction,Conductor*%
G36*
X113730926Y-120538627D02*
G01*
X113752600Y-120590953D01*
X113752600Y-121186131D01*
X113768925Y-121247053D01*
X113771715Y-121257467D01*
X113771718Y-121257473D01*
X113808643Y-121321430D01*
X113865084Y-121377871D01*
X113865089Y-121377875D01*
X114356443Y-121869230D01*
X114356444Y-121869231D01*
X114408669Y-121921456D01*
X114460825Y-121951568D01*
X114472631Y-121958384D01*
X114472633Y-121958385D01*
X114522776Y-121971820D01*
X114543968Y-121977499D01*
X114543969Y-121977500D01*
X114543971Y-121977500D01*
X114543972Y-121977500D01*
X114619062Y-121977500D01*
X114671388Y-121999174D01*
X115080726Y-122408512D01*
X115102400Y-122460838D01*
X115102400Y-123002396D01*
X115080726Y-123054722D01*
X115028400Y-123076396D01*
X115018748Y-123075764D01*
X115011048Y-123074751D01*
X115009901Y-123074600D01*
X115009900Y-123074600D01*
X114590098Y-123074600D01*
X114588956Y-123074751D01*
X114588730Y-123074690D01*
X114587686Y-123074759D01*
X114587662Y-123074404D01*
X114534253Y-123060076D01*
X114526993Y-123053707D01*
X114270376Y-122797090D01*
X114270374Y-122797087D01*
X114213930Y-122740643D01*
X114149970Y-122703716D01*
X114134790Y-122699648D01*
X114111354Y-122693369D01*
X114078629Y-122684600D01*
X114078628Y-122684600D01*
X114067113Y-122684600D01*
X114059876Y-122683141D01*
X114042033Y-122671151D01*
X114022174Y-122662926D01*
X114019236Y-122655834D01*
X114012865Y-122651553D01*
X114008725Y-122630458D01*
X114000500Y-122610600D01*
X114000500Y-122145353D01*
X113991549Y-122100353D01*
X113988867Y-122086869D01*
X113944552Y-122020548D01*
X113905451Y-121994421D01*
X113878232Y-121976233D01*
X113878233Y-121976233D01*
X113847398Y-121970100D01*
X113819748Y-121964600D01*
X113819746Y-121964600D01*
X113168338Y-121964600D01*
X113116012Y-121942926D01*
X113094338Y-121890600D01*
X113116012Y-121838274D01*
X113261544Y-121692742D01*
X113545656Y-121408631D01*
X113582584Y-121344669D01*
X113601699Y-121273331D01*
X113601700Y-121273331D01*
X113601700Y-120593853D01*
X113623373Y-120541528D01*
X113626275Y-120538626D01*
X113678600Y-120516953D01*
X113730926Y-120538627D01*
G37*
%TD.AperFunction*%
%TA.AperFunction,Conductor*%
G36*
X108850026Y-122375074D02*
G01*
X108871700Y-122427400D01*
X108871700Y-123000600D01*
X108850026Y-123052926D01*
X108797700Y-123074600D01*
X108546839Y-123074600D01*
X108494513Y-123052926D01*
X108132174Y-122690587D01*
X108110500Y-122638261D01*
X108110500Y-122427400D01*
X108132174Y-122375074D01*
X108184500Y-122353400D01*
X108797700Y-122353400D01*
X108850026Y-122375074D01*
G37*
%TD.AperFunction*%
%TA.AperFunction,Conductor*%
G36*
X114002411Y-100200658D02*
G01*
X114230045Y-100215578D01*
X114239642Y-100216842D01*
X114290142Y-100226887D01*
X114460995Y-100260872D01*
X114470330Y-100263373D01*
X114684046Y-100335920D01*
X114692984Y-100339622D01*
X114895409Y-100439446D01*
X114903774Y-100444276D01*
X115091430Y-100569664D01*
X115091436Y-100569668D01*
X115099110Y-100575557D01*
X115268797Y-100724367D01*
X115275632Y-100731202D01*
X115410267Y-100884725D01*
X115424438Y-100900884D01*
X115430331Y-100908563D01*
X115555718Y-101096216D01*
X115560558Y-101104599D01*
X115660376Y-101307012D01*
X115664080Y-101315955D01*
X115736624Y-101529663D01*
X115739129Y-101539012D01*
X115783157Y-101760357D01*
X115784421Y-101769954D01*
X115799342Y-101997589D01*
X115799500Y-102002429D01*
X115799500Y-111094261D01*
X115777826Y-111146587D01*
X115725500Y-111168261D01*
X115673174Y-111146587D01*
X115142174Y-110615587D01*
X115120500Y-110563261D01*
X115120500Y-110295785D01*
X115114101Y-110247174D01*
X115114068Y-110246927D01*
X115064065Y-110139696D01*
X114980404Y-110056035D01*
X114873173Y-110006032D01*
X114873171Y-110006031D01*
X114837178Y-110001293D01*
X114824316Y-109999600D01*
X114375684Y-109999600D01*
X114364318Y-110001096D01*
X114326828Y-110006031D01*
X114219595Y-110056035D01*
X114135935Y-110139695D01*
X114085931Y-110246928D01*
X114079500Y-110295785D01*
X114079500Y-110644414D01*
X114085931Y-110693271D01*
X114085932Y-110693273D01*
X114135935Y-110800504D01*
X114219596Y-110884165D01*
X114281504Y-110913033D01*
X114319767Y-110954791D01*
X114317297Y-111011374D01*
X114281504Y-111047166D01*
X114255458Y-111059312D01*
X114219595Y-111076035D01*
X114135935Y-111159695D01*
X114135933Y-111159698D01*
X114130255Y-111171875D01*
X114088497Y-111210138D01*
X114063189Y-111214600D01*
X113501390Y-111214600D01*
X113449064Y-111192926D01*
X113429912Y-111159753D01*
X113403000Y-111059317D01*
X113402998Y-111059312D01*
X113343691Y-110956590D01*
X113343690Y-110956589D01*
X113343689Y-110956587D01*
X113259813Y-110872711D01*
X113259810Y-110872709D01*
X113259809Y-110872708D01*
X113157087Y-110813401D01*
X113157082Y-110813399D01*
X113042511Y-110782700D01*
X113042509Y-110782700D01*
X112923891Y-110782700D01*
X112923889Y-110782700D01*
X112809317Y-110813399D01*
X112809312Y-110813401D01*
X112706590Y-110872708D01*
X112622708Y-110956590D01*
X112563401Y-111059312D01*
X112563399Y-111059317D01*
X112532700Y-111173888D01*
X112532700Y-111292511D01*
X112563399Y-111407082D01*
X112563401Y-111407087D01*
X112622708Y-111509809D01*
X112622709Y-111509810D01*
X112622711Y-111509813D01*
X112706587Y-111593689D01*
X112706589Y-111593690D01*
X112706590Y-111593691D01*
X112775728Y-111633608D01*
X112809314Y-111652999D01*
X112809315Y-111652999D01*
X112809317Y-111653000D01*
X112866602Y-111668349D01*
X112923888Y-111683699D01*
X112923889Y-111683700D01*
X113013432Y-111683700D01*
X113053665Y-111695593D01*
X113060229Y-111699845D01*
X113084041Y-111723657D01*
X113113699Y-111735941D01*
X113185300Y-111765600D01*
X114063189Y-111765600D01*
X114115515Y-111787274D01*
X114130255Y-111808325D01*
X114135933Y-111820501D01*
X114135935Y-111820504D01*
X114219596Y-111904165D01*
X114326827Y-111954168D01*
X114375684Y-111960600D01*
X114375686Y-111960600D01*
X114824314Y-111960600D01*
X114824316Y-111960600D01*
X114873173Y-111954168D01*
X114980404Y-111904165D01*
X115043474Y-111841095D01*
X115095800Y-111819421D01*
X115148126Y-111841095D01*
X115169800Y-111893421D01*
X115169800Y-112422446D01*
X115148126Y-112474771D01*
X115089811Y-112533086D01*
X115089809Y-112533089D01*
X115030501Y-112635812D01*
X115030499Y-112635817D01*
X114999800Y-112750388D01*
X114999800Y-112869011D01*
X115030499Y-112983582D01*
X115030501Y-112983587D01*
X115089808Y-113086309D01*
X115089809Y-113086310D01*
X115089811Y-113086313D01*
X115173687Y-113170189D01*
X115173689Y-113170190D01*
X115173690Y-113170191D01*
X115241948Y-113209600D01*
X115276414Y-113229499D01*
X115276415Y-113229499D01*
X115276417Y-113229500D01*
X115318097Y-113240668D01*
X115390988Y-113260199D01*
X115390989Y-113260200D01*
X115390991Y-113260200D01*
X115509611Y-113260200D01*
X115509611Y-113260199D01*
X115624186Y-113229499D01*
X115688500Y-113192367D01*
X115744652Y-113184974D01*
X115789586Y-113219453D01*
X115799500Y-113256453D01*
X115799500Y-121643361D01*
X115777826Y-121695687D01*
X115725500Y-121717361D01*
X115673174Y-121695687D01*
X115258274Y-121280787D01*
X115236600Y-121228461D01*
X115236600Y-121145989D01*
X115236599Y-121145988D01*
X115205900Y-121031417D01*
X115205898Y-121031412D01*
X115146591Y-120928690D01*
X115146590Y-120928689D01*
X115146589Y-120928687D01*
X115062713Y-120844811D01*
X115062710Y-120844809D01*
X115062709Y-120844808D01*
X115022046Y-120821331D01*
X114987567Y-120776397D01*
X114994960Y-120720245D01*
X115006721Y-120704919D01*
X115053221Y-120658419D01*
X115053224Y-120658416D01*
X115103972Y-120549587D01*
X115110500Y-120500001D01*
X115110499Y-120236937D01*
X115132172Y-120184613D01*
X115382755Y-119934032D01*
X115383728Y-119932348D01*
X115419684Y-119870069D01*
X115438799Y-119798730D01*
X115438800Y-119798730D01*
X115438800Y-119134253D01*
X115460473Y-119081928D01*
X115499889Y-119042513D01*
X115559199Y-118939786D01*
X115589899Y-118825211D01*
X115589900Y-118825211D01*
X115589900Y-118706589D01*
X115589899Y-118706588D01*
X115559200Y-118592017D01*
X115559198Y-118592012D01*
X115499891Y-118489290D01*
X115499890Y-118489289D01*
X115499889Y-118489287D01*
X115460473Y-118449871D01*
X115438800Y-118397546D01*
X115438800Y-114211471D01*
X115432433Y-114187713D01*
X115432432Y-114187710D01*
X115419684Y-114140131D01*
X115382755Y-114076168D01*
X115132172Y-113825586D01*
X115110499Y-113773261D01*
X115110499Y-113510200D01*
X115107772Y-113489486D01*
X115103972Y-113460613D01*
X115053224Y-113351784D01*
X114968316Y-113266876D01*
X114859487Y-113216128D01*
X114859485Y-113216127D01*
X114822955Y-113211318D01*
X114809901Y-113209600D01*
X114809899Y-113209600D01*
X114390100Y-113209600D01*
X114340514Y-113216127D01*
X114340512Y-113216128D01*
X114231683Y-113266876D01*
X114227911Y-113269518D01*
X114185467Y-113282900D01*
X111020139Y-113282900D01*
X110967813Y-113261226D01*
X110722173Y-113015586D01*
X110700499Y-112963260D01*
X110700499Y-112700200D01*
X110693972Y-112650614D01*
X110693972Y-112650613D01*
X110643224Y-112541784D01*
X110558316Y-112456876D01*
X110449487Y-112406128D01*
X110449485Y-112406127D01*
X110412955Y-112401318D01*
X110399901Y-112399600D01*
X110399899Y-112399600D01*
X110040100Y-112399600D01*
X109990514Y-112406127D01*
X109990512Y-112406128D01*
X109881683Y-112456876D01*
X109796776Y-112541783D01*
X109746027Y-112650614D01*
X109740359Y-112693672D01*
X109739832Y-112697681D01*
X109739500Y-112700200D01*
X109739500Y-112963260D01*
X109717826Y-113015586D01*
X109542826Y-113190586D01*
X109490500Y-113212260D01*
X109438174Y-113190586D01*
X109416500Y-113138260D01*
X109416500Y-112285353D01*
X109416084Y-112283262D01*
X109404867Y-112226869D01*
X109404048Y-112225644D01*
X109383802Y-112195343D01*
X109360552Y-112160548D01*
X109319218Y-112132929D01*
X109294232Y-112116233D01*
X109290063Y-112115404D01*
X109242971Y-112083938D01*
X109230500Y-112042826D01*
X109230500Y-111339373D01*
X109252174Y-111287047D01*
X109290066Y-111266795D01*
X109294231Y-111265967D01*
X109360552Y-111221652D01*
X109404867Y-111155331D01*
X109416500Y-111096848D01*
X109416500Y-110869500D01*
X109438174Y-110817174D01*
X109490500Y-110795500D01*
X109495200Y-110795500D01*
X110379827Y-110795500D01*
X110432153Y-110817174D01*
X110446893Y-110838225D01*
X110475935Y-110900504D01*
X110559596Y-110984165D01*
X110666827Y-111034168D01*
X110715684Y-111040600D01*
X110715686Y-111040600D01*
X111064314Y-111040600D01*
X111064316Y-111040600D01*
X111113173Y-111034168D01*
X111220404Y-110984165D01*
X111304065Y-110900504D01*
X111354068Y-110793273D01*
X111360500Y-110744416D01*
X111360500Y-110295784D01*
X111354068Y-110246927D01*
X111304065Y-110139696D01*
X111220404Y-110056035D01*
X111113173Y-110006032D01*
X111113171Y-110006031D01*
X111077178Y-110001293D01*
X111064316Y-109999600D01*
X110715684Y-109999600D01*
X110704318Y-110001096D01*
X110666828Y-110006031D01*
X110559595Y-110056035D01*
X110475935Y-110139695D01*
X110466211Y-110160549D01*
X110446987Y-110201774D01*
X110405231Y-110240037D01*
X110379921Y-110244500D01*
X109899500Y-110244500D01*
X109847174Y-110222826D01*
X109825500Y-110170500D01*
X109825500Y-109845200D01*
X109783557Y-109743942D01*
X109783556Y-109743940D01*
X109547174Y-109507558D01*
X109525500Y-109455232D01*
X109525500Y-108484500D01*
X109547174Y-108432174D01*
X109599500Y-108410500D01*
X109919085Y-108410500D01*
X109961906Y-108424148D01*
X109982392Y-108438684D01*
X109982395Y-108438685D01*
X109982398Y-108438687D01*
X110021225Y-108454769D01*
X110021283Y-108454793D01*
X110099924Y-108470435D01*
X110403350Y-108470435D01*
X110403857Y-108470410D01*
X110699898Y-108470410D01*
X110778539Y-108454768D01*
X110817430Y-108438659D01*
X110875724Y-108402030D01*
X110928647Y-108327442D01*
X110944756Y-108288551D01*
X110960398Y-108209910D01*
X110960398Y-106936400D01*
X110982072Y-106884074D01*
X111015242Y-106864922D01*
X111122135Y-106836281D01*
X111253365Y-106760515D01*
X111360515Y-106653365D01*
X111436281Y-106522135D01*
X111475499Y-106375768D01*
X111475500Y-106375768D01*
X111475500Y-106224232D01*
X111475499Y-106224231D01*
X111436282Y-106077869D01*
X111436281Y-106077865D01*
X111360515Y-105946635D01*
X111253365Y-105839485D01*
X111213499Y-105816468D01*
X111122139Y-105763721D01*
X111122130Y-105763717D01*
X110975768Y-105724500D01*
X110975766Y-105724500D01*
X110824234Y-105724500D01*
X110824232Y-105724500D01*
X110677869Y-105763717D01*
X110677860Y-105763721D01*
X110586500Y-105816468D01*
X110530347Y-105823860D01*
X110485414Y-105789382D01*
X110475500Y-105752382D01*
X110475500Y-105200200D01*
X110433557Y-105098943D01*
X110433557Y-105098942D01*
X110356058Y-105021443D01*
X110254800Y-104979500D01*
X105804800Y-104979500D01*
X105695200Y-104979500D01*
X105653258Y-104996873D01*
X105593943Y-105021442D01*
X105516442Y-105098943D01*
X105474500Y-105200200D01*
X105474500Y-105723515D01*
X105452826Y-105775841D01*
X105400500Y-105797515D01*
X105363500Y-105787601D01*
X105322139Y-105763721D01*
X105322130Y-105763717D01*
X105175768Y-105724500D01*
X105175766Y-105724500D01*
X105024234Y-105724500D01*
X105024232Y-105724500D01*
X104877869Y-105763717D01*
X104877860Y-105763721D01*
X104746637Y-105839483D01*
X104639483Y-105946637D01*
X104563721Y-106077860D01*
X104563717Y-106077869D01*
X104524500Y-106224231D01*
X104524500Y-106375768D01*
X104563717Y-106522130D01*
X104563721Y-106522139D01*
X104636495Y-106648186D01*
X104639485Y-106653365D01*
X104746635Y-106760515D01*
X104877865Y-106836281D01*
X104984782Y-106864929D01*
X105029714Y-106899407D01*
X105039628Y-106936407D01*
X105039628Y-108210087D01*
X105055268Y-108288722D01*
X105055271Y-108288733D01*
X105071376Y-108327615D01*
X105071380Y-108327623D01*
X105107007Y-108384321D01*
X105108008Y-108385914D01*
X105182596Y-108438837D01*
X105182602Y-108438839D01*
X105182605Y-108438841D01*
X105221120Y-108454794D01*
X105221487Y-108454946D01*
X105221491Y-108454946D01*
X105221495Y-108454948D01*
X105264935Y-108463588D01*
X105312028Y-108495053D01*
X105324500Y-108536166D01*
X105324500Y-109600500D01*
X105302826Y-109652826D01*
X105250500Y-109674500D01*
X103409300Y-109674500D01*
X103299700Y-109674500D01*
X103257758Y-109691873D01*
X103198443Y-109716442D01*
X103120942Y-109793943D01*
X103079000Y-109895200D01*
X103079000Y-110030600D01*
X103057326Y-110082926D01*
X103005000Y-110104600D01*
X102756252Y-110104600D01*
X102727010Y-110110416D01*
X102697767Y-110116233D01*
X102631449Y-110160547D01*
X102631447Y-110160549D01*
X102583083Y-110232929D01*
X102580806Y-110231408D01*
X102548347Y-110263867D01*
X102520029Y-110269500D01*
X102497070Y-110269500D01*
X102425731Y-110288615D01*
X102361769Y-110325543D01*
X102309543Y-110377769D01*
X102272615Y-110441731D01*
X102253500Y-110513069D01*
X102253500Y-112253440D01*
X102231826Y-112305766D01*
X102179500Y-112327440D01*
X102127174Y-112305766D01*
X102115415Y-112290441D01*
X102108156Y-112277869D01*
X102055930Y-112225643D01*
X101991967Y-112188715D01*
X101991969Y-112188715D01*
X101920630Y-112169600D01*
X101920628Y-112169600D01*
X101898012Y-112169600D01*
X101845686Y-112147926D01*
X101835434Y-112132583D01*
X101834917Y-112132929D01*
X101800535Y-112081475D01*
X101786552Y-112060548D01*
X101749404Y-112035726D01*
X101720232Y-112016233D01*
X101720233Y-112016233D01*
X101690989Y-112010416D01*
X101661748Y-112004600D01*
X100447252Y-112004600D01*
X100418010Y-112010416D01*
X100388767Y-112016233D01*
X100337487Y-112050499D01*
X100322450Y-112060547D01*
X100316389Y-112064597D01*
X100314241Y-112061383D01*
X100274500Y-112077845D01*
X100222174Y-112056171D01*
X100200500Y-112003845D01*
X100200500Y-110996355D01*
X100222174Y-110944029D01*
X100274500Y-110922355D01*
X100314241Y-110938816D01*
X100316389Y-110935603D01*
X100322447Y-110939651D01*
X100322448Y-110939652D01*
X100323867Y-110940600D01*
X100388767Y-110983966D01*
X100388768Y-110983966D01*
X100388769Y-110983967D01*
X100447252Y-110995600D01*
X100447254Y-110995600D01*
X101661746Y-110995600D01*
X101661748Y-110995600D01*
X101720231Y-110983967D01*
X101786552Y-110939652D01*
X101830867Y-110873331D01*
X101842500Y-110814848D01*
X101842500Y-110285352D01*
X101830867Y-110226869D01*
X101829952Y-110225500D01*
X101814099Y-110201774D01*
X101786552Y-110160548D01*
X101755344Y-110139695D01*
X101720232Y-110116233D01*
X101720233Y-110116233D01*
X101690989Y-110110416D01*
X101661748Y-110104600D01*
X100447252Y-110104600D01*
X100418010Y-110110416D01*
X100388767Y-110116233D01*
X100334299Y-110152628D01*
X100322450Y-110160547D01*
X100316389Y-110164597D01*
X100314241Y-110161383D01*
X100274500Y-110177845D01*
X100222174Y-110156171D01*
X100200500Y-110103845D01*
X100200500Y-102002429D01*
X100200658Y-101997589D01*
X100215578Y-101769953D01*
X100216842Y-101760357D01*
X100260872Y-101539000D01*
X100263368Y-101529681D01*
X100335919Y-101315950D01*
X100339621Y-101307016D01*
X100439442Y-101104599D01*
X100439448Y-101104586D01*
X100444273Y-101096228D01*
X100569673Y-100908553D01*
X100575547Y-100900898D01*
X100724367Y-100731202D01*
X100731202Y-100724367D01*
X100900898Y-100575547D01*
X100908553Y-100569673D01*
X101096228Y-100444273D01*
X101104586Y-100439448D01*
X101254690Y-100365425D01*
X101307016Y-100339621D01*
X101315950Y-100335919D01*
X101529681Y-100263368D01*
X101539000Y-100260872D01*
X101760357Y-100216841D01*
X101769951Y-100215578D01*
X101997589Y-100200657D01*
X102002429Y-100200500D01*
X102039882Y-100200500D01*
X113960118Y-100200500D01*
X113997571Y-100200500D01*
X114002411Y-100200658D01*
G37*
%TD.AperFunction*%
%TA.AperFunction,Conductor*%
G36*
X102799473Y-118719880D02*
G01*
X102837737Y-118761637D01*
X102842200Y-118786947D01*
X102842200Y-120463250D01*
X102820526Y-120515576D01*
X102768200Y-120537250D01*
X102715874Y-120515576D01*
X102701133Y-120494524D01*
X102686549Y-120463250D01*
X102653224Y-120391784D01*
X102568316Y-120306876D01*
X102459487Y-120256128D01*
X102459485Y-120256127D01*
X102422955Y-120251318D01*
X102409901Y-120249600D01*
X102409899Y-120249600D01*
X102146890Y-120249600D01*
X102094570Y-120227931D01*
X101949980Y-120083371D01*
X101928300Y-120031048D01*
X101928300Y-119219137D01*
X101949973Y-119166812D01*
X102094512Y-119022272D01*
X102146838Y-119000599D01*
X102409900Y-119000599D01*
X102459487Y-118994072D01*
X102568316Y-118943324D01*
X102653224Y-118858416D01*
X102701134Y-118755673D01*
X102742890Y-118717410D01*
X102799473Y-118719880D01*
G37*
%TD.AperFunction*%
%TA.AperFunction,Conductor*%
G36*
X109174611Y-115616424D02*
G01*
X109748213Y-116190086D01*
X109769876Y-116211751D01*
X109789024Y-116244916D01*
X109791655Y-116254732D01*
X109792003Y-116256031D01*
X109805116Y-116304969D01*
X109805117Y-116304971D01*
X109842043Y-116368930D01*
X109898484Y-116425371D01*
X109898490Y-116425376D01*
X110587587Y-117114473D01*
X110609261Y-117166799D01*
X110587587Y-117219125D01*
X109974871Y-117831842D01*
X109922644Y-117884068D01*
X109895743Y-117930661D01*
X109895740Y-117930667D01*
X109892027Y-117937100D01*
X109885716Y-117948031D01*
X109869495Y-118008569D01*
X109868911Y-118010747D01*
X109868909Y-118010754D01*
X109866600Y-118019372D01*
X109866600Y-119277862D01*
X109844926Y-119330188D01*
X109594288Y-119580826D01*
X109541962Y-119602500D01*
X109021369Y-119602500D01*
X108950031Y-119621615D01*
X108886069Y-119658543D01*
X108663580Y-119881032D01*
X108611254Y-119902706D01*
X108558928Y-119881032D01*
X108539776Y-119847859D01*
X108513800Y-119750917D01*
X108513798Y-119750912D01*
X108454491Y-119648190D01*
X108454490Y-119648189D01*
X108454489Y-119648187D01*
X108370613Y-119564311D01*
X108370610Y-119564309D01*
X108370609Y-119564308D01*
X108267887Y-119505001D01*
X108267882Y-119504999D01*
X108153311Y-119474300D01*
X108153309Y-119474300D01*
X108034691Y-119474300D01*
X108034689Y-119474300D01*
X107920117Y-119504999D01*
X107920112Y-119505001D01*
X107817390Y-119564308D01*
X107733508Y-119648190D01*
X107674201Y-119750912D01*
X107674199Y-119750917D01*
X107643500Y-119865488D01*
X107643500Y-119955031D01*
X107621826Y-120007357D01*
X107481896Y-120147288D01*
X107313694Y-120315491D01*
X107222959Y-120406226D01*
X107170633Y-120427900D01*
X107145200Y-120427900D01*
X107130206Y-120434111D01*
X107043942Y-120469842D01*
X107041654Y-120471372D01*
X107038954Y-120471908D01*
X107037209Y-120472632D01*
X107037065Y-120472284D01*
X106986105Y-120482420D01*
X106963544Y-120473928D01*
X106908267Y-120442015D01*
X106908269Y-120442015D01*
X106836930Y-120422900D01*
X106836928Y-120422900D01*
X106259839Y-120422900D01*
X106207513Y-120401226D01*
X105813674Y-120007387D01*
X105792000Y-119955061D01*
X105792000Y-119872589D01*
X105791999Y-119872588D01*
X105790097Y-119865491D01*
X105772208Y-119798728D01*
X105761300Y-119758017D01*
X105761298Y-119758012D01*
X105701991Y-119655290D01*
X105701990Y-119655289D01*
X105701989Y-119655287D01*
X105618113Y-119571411D01*
X105618110Y-119571409D01*
X105618109Y-119571408D01*
X105515387Y-119512101D01*
X105515382Y-119512099D01*
X105434547Y-119490439D01*
X105389614Y-119455960D01*
X105379700Y-119418961D01*
X105379700Y-118975670D01*
X105379699Y-118975669D01*
X105360585Y-118904334D01*
X105360584Y-118904333D01*
X105360584Y-118904331D01*
X105359871Y-118903097D01*
X105359777Y-118902384D01*
X105358729Y-118899852D01*
X105359407Y-118899570D01*
X105352481Y-118846946D01*
X105386960Y-118802013D01*
X105423959Y-118792100D01*
X105468211Y-118792100D01*
X105468211Y-118792099D01*
X105582786Y-118761399D01*
X105685513Y-118702089D01*
X105769389Y-118618213D01*
X105828699Y-118515486D01*
X105859399Y-118400911D01*
X105859400Y-118400911D01*
X105859400Y-118282289D01*
X105859399Y-118282288D01*
X105828700Y-118167717D01*
X105828698Y-118167712D01*
X105769391Y-118064990D01*
X105769390Y-118064989D01*
X105769389Y-118064987D01*
X105685513Y-117981111D01*
X105685510Y-117981109D01*
X105685509Y-117981108D01*
X105582787Y-117921801D01*
X105582782Y-117921799D01*
X105468211Y-117891100D01*
X105468209Y-117891100D01*
X105349591Y-117891100D01*
X105349589Y-117891100D01*
X105235017Y-117921799D01*
X105235012Y-117921801D01*
X105169000Y-117959914D01*
X105112847Y-117967306D01*
X105067914Y-117932828D01*
X105058000Y-117895828D01*
X105058000Y-117692853D01*
X105044945Y-117627221D01*
X105049128Y-117626388D01*
X105049027Y-117598791D01*
X105044945Y-117597979D01*
X105052432Y-117560340D01*
X105058000Y-117532348D01*
X105058000Y-117367100D01*
X105079674Y-117314774D01*
X105110118Y-117296409D01*
X105120807Y-117293100D01*
X105136129Y-117293100D01*
X105207469Y-117273984D01*
X105229064Y-117261516D01*
X105271431Y-117237056D01*
X105323656Y-117184831D01*
X105323656Y-117184829D01*
X105329744Y-117178742D01*
X105329746Y-117178738D01*
X105995256Y-116513231D01*
X105997488Y-116509364D01*
X106009245Y-116494040D01*
X106176855Y-116326432D01*
X106178414Y-116323733D01*
X106213784Y-116262469D01*
X106223258Y-116227113D01*
X106228150Y-116208855D01*
X106247302Y-116175684D01*
X106510113Y-115912874D01*
X106562439Y-115891200D01*
X108715931Y-115891200D01*
X108715931Y-115891199D01*
X108787269Y-115872084D01*
X108802705Y-115863172D01*
X108851231Y-115835156D01*
X108903456Y-115782931D01*
X108903456Y-115782929D01*
X108909544Y-115776842D01*
X108909546Y-115776838D01*
X109069961Y-115616424D01*
X109122286Y-115594751D01*
X109174611Y-115616424D01*
G37*
%TD.AperFunction*%
%TA.AperFunction,Conductor*%
G36*
X114387753Y-118590599D02*
G01*
X114390091Y-118590599D01*
X114390099Y-118590600D01*
X114623540Y-118590599D01*
X114675866Y-118612273D01*
X114697540Y-118664599D01*
X114695019Y-118683749D01*
X114688900Y-118706588D01*
X114688900Y-118825211D01*
X114719599Y-118939782D01*
X114719601Y-118939786D01*
X114778908Y-119042509D01*
X114778909Y-119042510D01*
X114778911Y-119042513D01*
X114856126Y-119119728D01*
X114877800Y-119172053D01*
X114877800Y-119614961D01*
X114856126Y-119667287D01*
X114705486Y-119817926D01*
X114653160Y-119839600D01*
X114387678Y-119839601D01*
X114387678Y-119837866D01*
X114338729Y-119821172D01*
X114313752Y-119770340D01*
X114313600Y-119765606D01*
X114313600Y-118664594D01*
X114335274Y-118612268D01*
X114387600Y-118590594D01*
X114387753Y-118590599D01*
G37*
%TD.AperFunction*%
%TA.AperFunction,Conductor*%
G36*
X101581740Y-116667254D02*
G01*
X101640301Y-116687746D01*
X101670734Y-116690600D01*
X102439123Y-116690600D01*
X102448360Y-116694426D01*
X102458276Y-116693121D01*
X102473602Y-116704881D01*
X102491449Y-116712274D01*
X102495275Y-116721512D01*
X102503209Y-116727600D01*
X102505730Y-116746753D01*
X102513123Y-116764600D01*
X102510602Y-116783748D01*
X102496327Y-116837028D01*
X102496319Y-116837057D01*
X102496100Y-116837872D01*
X102496100Y-117796661D01*
X102474426Y-117848987D01*
X102305487Y-118017926D01*
X102253161Y-118039600D01*
X102146839Y-118039600D01*
X102094513Y-118017926D01*
X101504974Y-117428387D01*
X101483300Y-117376061D01*
X101483300Y-116737102D01*
X101504974Y-116684776D01*
X101557300Y-116663102D01*
X101581740Y-116667254D01*
G37*
%TD.AperFunction*%
%TA.AperFunction,Conductor*%
G36*
X114387753Y-116380599D02*
G01*
X114390091Y-116380599D01*
X114390099Y-116380600D01*
X114803800Y-116380599D01*
X114856126Y-116402273D01*
X114877800Y-116454599D01*
X114877800Y-117555600D01*
X114856126Y-117607926D01*
X114803800Y-117629600D01*
X114387678Y-117629601D01*
X114387678Y-117627866D01*
X114338729Y-117611172D01*
X114313752Y-117560340D01*
X114313600Y-117555606D01*
X114313600Y-116454594D01*
X114314773Y-116451760D01*
X114313824Y-116448845D01*
X114325454Y-116425974D01*
X114335274Y-116402268D01*
X114338106Y-116401094D01*
X114339497Y-116398361D01*
X114363893Y-116390413D01*
X114387600Y-116380594D01*
X114387753Y-116380599D01*
G37*
%TD.AperFunction*%
%TA.AperFunction,Conductor*%
G36*
X114073494Y-113865574D02*
G01*
X114094535Y-113908243D01*
X114096027Y-113919585D01*
X114096028Y-113919587D01*
X114146776Y-114028416D01*
X114231684Y-114113324D01*
X114340513Y-114164072D01*
X114390099Y-114170600D01*
X114653160Y-114170599D01*
X114705486Y-114192273D01*
X114856126Y-114342912D01*
X114877800Y-114395238D01*
X114877800Y-115345600D01*
X114856126Y-115397926D01*
X114803800Y-115419600D01*
X114390100Y-115419600D01*
X114340514Y-115426127D01*
X114340512Y-115426128D01*
X114231683Y-115476876D01*
X114146776Y-115561783D01*
X114096027Y-115670614D01*
X114089500Y-115720200D01*
X114089500Y-115801761D01*
X114067826Y-115854087D01*
X114015500Y-115875761D01*
X113963174Y-115854087D01*
X112183676Y-114074590D01*
X112183674Y-114074587D01*
X112127230Y-114018143D01*
X112064603Y-113981986D01*
X112030124Y-113937053D01*
X112037516Y-113880901D01*
X112082449Y-113846422D01*
X112101602Y-113843900D01*
X114021168Y-113843900D01*
X114073494Y-113865574D01*
G37*
%TD.AperFunction*%
%TA.AperFunction,Conductor*%
G36*
X110355486Y-113442273D02*
G01*
X110519840Y-113606627D01*
X110541514Y-113658953D01*
X110529042Y-113700066D01*
X110511133Y-113726867D01*
X110499500Y-113785353D01*
X110499500Y-114699846D01*
X110511133Y-114758332D01*
X110515540Y-114764927D01*
X110555448Y-114824652D01*
X110599560Y-114854127D01*
X110621767Y-114868966D01*
X110621768Y-114868966D01*
X110621769Y-114868967D01*
X110680252Y-114880600D01*
X110680254Y-114880600D01*
X110868000Y-114880600D01*
X110920326Y-114902274D01*
X110942000Y-114954600D01*
X110942000Y-115132348D01*
X110953633Y-115190831D01*
X110955055Y-115197979D01*
X110950948Y-115198795D01*
X110950948Y-115226404D01*
X110955055Y-115227221D01*
X110953633Y-115234368D01*
X110953633Y-115234369D01*
X110942351Y-115291090D01*
X110942000Y-115292853D01*
X110942000Y-115532348D01*
X110946555Y-115555251D01*
X110935505Y-115610800D01*
X110888412Y-115642264D01*
X110854824Y-115641164D01*
X110781811Y-115621600D01*
X110781809Y-115621600D01*
X110699339Y-115621600D01*
X110647013Y-115599926D01*
X110302174Y-115255087D01*
X110280500Y-115202761D01*
X110280500Y-114793249D01*
X110286134Y-114764927D01*
X110288862Y-114758337D01*
X110288867Y-114758331D01*
X110300500Y-114699848D01*
X110300500Y-113785352D01*
X110288867Y-113726869D01*
X110284454Y-113720265D01*
X110274027Y-113704660D01*
X110244552Y-113660548D01*
X110199999Y-113630778D01*
X110178232Y-113616233D01*
X110178233Y-113616233D01*
X110148989Y-113610416D01*
X110119748Y-113604600D01*
X110119746Y-113604600D01*
X110100837Y-113604600D01*
X110048511Y-113582926D01*
X110026837Y-113530600D01*
X110048511Y-113478274D01*
X110084512Y-113442273D01*
X110136838Y-113420599D01*
X110303160Y-113420599D01*
X110355486Y-113442273D01*
G37*
%TD.AperFunction*%
%TA.AperFunction,Conductor*%
G36*
X102200262Y-112935503D02*
G01*
X102221880Y-112938349D01*
X102226351Y-112944175D01*
X102233320Y-112946492D01*
X102243085Y-112965982D01*
X102256360Y-112983281D01*
X102256360Y-112983283D01*
X102272915Y-113045068D01*
X102309843Y-113109030D01*
X102366284Y-113165471D01*
X102366290Y-113165476D01*
X102898526Y-113697712D01*
X102920200Y-113750038D01*
X102920200Y-114842561D01*
X102898526Y-114894887D01*
X102525487Y-115267926D01*
X102473161Y-115289600D01*
X101670734Y-115289600D01*
X101640301Y-115292454D01*
X101640299Y-115292454D01*
X101640294Y-115292455D01*
X101640292Y-115292455D01*
X101581740Y-115312944D01*
X101525192Y-115309769D01*
X101487453Y-115267537D01*
X101483300Y-115243097D01*
X101483300Y-113642837D01*
X101504973Y-113590512D01*
X102055928Y-113039557D01*
X102055931Y-113039556D01*
X102108156Y-112987331D01*
X102124323Y-112959327D01*
X102128938Y-112953998D01*
X102148428Y-112944232D01*
X102165727Y-112930958D01*
X102173009Y-112931916D01*
X102179575Y-112928627D01*
X102200262Y-112935503D01*
G37*
%TD.AperFunction*%
%TA.AperFunction,Conductor*%
G36*
X108549908Y-111230240D02*
G01*
X108552291Y-111230519D01*
X108554882Y-111231965D01*
X108605769Y-111265967D01*
X108621377Y-111269071D01*
X108631560Y-111274754D01*
X108666691Y-111319178D01*
X108669500Y-111339373D01*
X108669500Y-112042826D01*
X108647826Y-112095152D01*
X108609937Y-112115404D01*
X108605767Y-112116233D01*
X108539449Y-112160547D01*
X108539447Y-112160549D01*
X108495133Y-112226867D01*
X108495133Y-112226869D01*
X108483500Y-112285352D01*
X108483500Y-113396848D01*
X108495133Y-113455331D01*
X108498662Y-113460613D01*
X108507028Y-113473132D01*
X108519500Y-113514246D01*
X108519500Y-113530600D01*
X108497826Y-113582926D01*
X108445500Y-113604600D01*
X108280252Y-113604600D01*
X108221769Y-113616233D01*
X108221768Y-113616233D01*
X108214621Y-113617655D01*
X108213804Y-113613548D01*
X108186196Y-113613548D01*
X108185379Y-113617655D01*
X108178231Y-113616233D01*
X108119748Y-113604600D01*
X107880252Y-113604600D01*
X107821769Y-113616233D01*
X107821768Y-113616233D01*
X107814621Y-113617655D01*
X107813804Y-113613548D01*
X107786196Y-113613548D01*
X107785379Y-113617655D01*
X107778231Y-113616233D01*
X107719748Y-113604600D01*
X107543572Y-113604600D01*
X107491246Y-113582926D01*
X107469572Y-113530600D01*
X107482043Y-113489488D01*
X107504867Y-113455331D01*
X107516500Y-113396848D01*
X107516500Y-112566787D01*
X107538174Y-112514461D01*
X107553499Y-112502702D01*
X107557314Y-112500500D01*
X107650500Y-112407314D01*
X107716392Y-112293186D01*
X107750499Y-112165894D01*
X107750500Y-112165894D01*
X107750500Y-112097741D01*
X107772174Y-112045415D01*
X107824500Y-112023741D01*
X107843653Y-112026263D01*
X107934105Y-112050499D01*
X107934106Y-112050500D01*
X107934108Y-112050500D01*
X108065894Y-112050500D01*
X108065894Y-112050499D01*
X108193186Y-112016392D01*
X108307314Y-111950500D01*
X108400500Y-111857314D01*
X108466392Y-111743186D01*
X108500499Y-111615894D01*
X108500500Y-111615894D01*
X108500500Y-111484106D01*
X108500499Y-111484105D01*
X108487766Y-111436586D01*
X108466392Y-111356814D01*
X108456897Y-111340368D01*
X108452146Y-111332139D01*
X108450910Y-111322756D01*
X108445040Y-111315333D01*
X108447340Y-111295642D01*
X108444752Y-111275986D01*
X108450513Y-111268476D01*
X108451612Y-111259078D01*
X108467161Y-111246781D01*
X108479230Y-111231053D01*
X108488612Y-111229817D01*
X108496036Y-111223947D01*
X108515726Y-111226247D01*
X108535383Y-111223659D01*
X108549908Y-111230240D01*
G37*
%TD.AperFunction*%
%TA.AperFunction,Conductor*%
G36*
X106029988Y-112640074D02*
G01*
X106038726Y-112648812D01*
X106060400Y-112701138D01*
X106060400Y-113056661D01*
X106038726Y-113108987D01*
X105886488Y-113261226D01*
X105834162Y-113282900D01*
X105357290Y-113282900D01*
X105304964Y-113261226D01*
X105283290Y-113208900D01*
X105290223Y-113177627D01*
X105293691Y-113170189D01*
X105293972Y-113169587D01*
X105300500Y-113120001D01*
X105300499Y-112700200D01*
X105300499Y-112700199D01*
X105300499Y-112700195D01*
X105300341Y-112697786D01*
X105301933Y-112697681D01*
X105315371Y-112647392D01*
X105364401Y-112619040D01*
X105374110Y-112618400D01*
X105977662Y-112618400D01*
X106029988Y-112640074D01*
G37*
%TD.AperFunction*%
%TA.AperFunction,Conductor*%
G36*
X104702826Y-110247174D02*
G01*
X104724500Y-110299500D01*
X104724500Y-111088594D01*
X104702826Y-111140920D01*
X104695561Y-111147293D01*
X104692690Y-111149496D01*
X104599500Y-111242685D01*
X104533610Y-111356809D01*
X104533606Y-111356818D01*
X104499500Y-111484105D01*
X104499500Y-111615894D01*
X104533606Y-111743181D01*
X104533610Y-111743190D01*
X104599500Y-111857314D01*
X104673260Y-111931074D01*
X104694934Y-111983400D01*
X104673260Y-112035726D01*
X104620934Y-112057400D01*
X104444069Y-112057400D01*
X104372731Y-112076515D01*
X104308769Y-112113443D01*
X104308767Y-112113445D01*
X104248542Y-112173669D01*
X104196216Y-112195343D01*
X104143891Y-112173668D01*
X104123639Y-112135778D01*
X104123072Y-112132929D01*
X104121867Y-112126869D01*
X104111825Y-112111841D01*
X104091535Y-112081475D01*
X104077552Y-112060548D01*
X104040404Y-112035726D01*
X104011232Y-112016233D01*
X104011233Y-112016233D01*
X103981989Y-112010416D01*
X103952748Y-112004600D01*
X103952746Y-112004600D01*
X102888500Y-112004600D01*
X102836174Y-111982926D01*
X102814500Y-111930600D01*
X102814500Y-111069600D01*
X102836174Y-111017274D01*
X102888500Y-110995600D01*
X103952746Y-110995600D01*
X103952748Y-110995600D01*
X104011231Y-110983967D01*
X104077552Y-110939652D01*
X104121867Y-110873331D01*
X104133500Y-110814848D01*
X104133500Y-110299500D01*
X104155174Y-110247174D01*
X104207500Y-110225500D01*
X104650500Y-110225500D01*
X104702826Y-110247174D01*
G37*
%TD.AperFunction*%
%TD*%
M02*
